<svg width="24" height="24" viewBox="0 0 24 24" fill="none" xmlns="http://www.w3.org/2000/svg">
<path fill-rule="evenodd" clip-rule="evenodd" d="M22 11.9999C22 17.5199 17.51 21.9999 12 21.9999C6.48 21.9999 2 17.5199 2 11.9999C2 6.48988 6.48 1.99988 12 1.99988C17.51 1.99988 22 6.48988 22 11.9999ZM10.02 7.99988C9.73 8.29988 9.73 8.76988 10.03 9.05988L12.98 11.9999L10.03 14.9399C9.73 15.2299 9.73 15.7099 10.02 15.9999C10.32 16.2999 10.79 16.2999 11.08 15.9999L14.57 12.5299C14.71 12.3899 14.79 12.1999 14.79 11.9999C14.79 11.7999 14.71 11.6099 14.57 11.4699L11.08 7.99988C10.94 7.84988 10.75 7.77988 10.56 7.77988C10.36 7.77988 10.17 7.84988 10.02 7.99988Z" fill="#009C8E"/>
</svg>
