<svg width="229" height="176" viewBox="0 0 229 176" fill="none" xmlns="http://www.w3.org/2000/svg">
<path d="M123.593 28.6238L127.043 27.0371L126.307 22.869L122.472 22.57C121.985 21.2854 121.342 20.0652 120.558 18.9366L122.536 15.6022L119.54 12.6069L116.171 14.6018C114.237 13.2894 112.05 12.3964 109.75 11.9803L108.83 8.13989H104.593L103.621 12.0033C102.307 12.2539 101.027 12.6612 99.8096 13.2163L96.7569 10.5947L93.3074 13.0266L94.739 16.7692C93.8076 17.724 92.9897 18.783 92.3013 19.9255L88.3173 19.5173L86.8685 23.4956L90.1684 25.7378C90.011 26.6666 89.9322 27.607 89.9327 28.549C89.9327 28.9515 89.9327 29.3482 89.9787 29.7391L86.5293 31.6765L87.6274 35.7699L91.5597 35.7181C92.1386 36.9509 92.8644 38.1091 93.7214 39.1676L91.9966 42.6917L95.2449 45.4168L98.3896 43.1632C99.582 43.8496 100.854 44.3864 102.178 44.7614L102.805 48.5558L107.025 48.9237L108.301 45.3306C109.685 45.2077 111.049 44.9122 112.36 44.4509L115.022 47.1588L118.69 45.0431L117.683 41.3925C118.745 40.4885 119.691 39.4575 120.5 38.3224L124.232 39.0066L126.02 35.1662L123.093 32.7574C123.43 31.4055 123.598 30.017 123.593 28.6238ZM117.327 28.549C117.327 30.6412 116.707 32.6864 115.544 34.426C114.382 36.1656 112.73 37.5215 110.797 38.3221C108.864 39.1227 106.737 39.3322 104.685 38.9241C102.633 38.5159 100.748 37.5084 99.2688 36.029C97.7894 34.5496 96.7819 32.6647 96.3737 30.6128C95.9656 28.5608 96.175 26.4338 96.9757 24.5009C97.7763 22.568 99.1322 20.9159 100.872 19.7535C102.611 18.5912 104.657 17.9708 106.749 17.9708C109.554 17.9708 112.245 19.0853 114.229 21.0691C116.213 23.0529 117.327 25.7435 117.327 28.549Z" fill="#263238"/>
<path d="M123.593 26.4851L127.043 24.9041L126.307 20.7303L122.472 20.4314C121.986 19.148 121.343 17.9295 120.558 16.8037L122.536 13.4635L119.54 10.4682L116.171 12.4689C114.238 11.1545 112.05 10.2613 109.75 9.84734L108.83 6.00122H104.593L103.621 9.87034C102.307 10.1191 101.027 10.5244 99.8096 11.0776L96.7569 8.46182L93.3074 10.8879L94.739 14.6363C93.805 15.5887 92.9868 16.6481 92.3013 17.7925L88.3173 17.3786L86.8685 21.3627L90.1684 23.5991C90.0115 24.528 89.9327 25.4683 89.9327 26.4104C89.9327 26.8128 89.9327 27.2095 89.9787 27.6062L86.5293 29.5436L87.5584 33.6369L91.4907 33.5852C92.0692 34.8182 92.7951 35.9764 93.6524 37.0346L91.9277 40.5646L95.1759 43.2839L98.3206 41.0302C99.5116 41.7209 100.784 42.2598 102.109 42.6342L102.736 46.4229L106.956 46.7965L108.232 43.2034C109.616 43.0805 110.98 42.785 112.291 42.3238L114.953 45.0258L118.621 42.9102L117.614 39.2595C118.677 38.357 119.623 37.3258 120.431 36.1895L124.163 36.8794L125.951 33.0391L123.024 30.6244C123.386 29.2738 123.577 27.8832 123.593 26.4851ZM117.327 26.4104C117.324 28.5018 116.7 30.5453 115.536 32.2826C114.371 34.02 112.718 35.3731 110.785 36.1711C108.852 36.9691 106.725 37.1761 104.674 36.766C102.624 36.3559 100.74 35.3471 99.2627 33.867C97.785 32.3869 96.7793 30.502 96.3725 28.4505C95.9657 26.399 96.1762 24.273 96.9773 22.341C97.7785 20.4091 99.1343 18.758 100.874 17.5964C102.613 16.4348 104.657 15.8149 106.749 15.8149C108.139 15.8149 109.516 16.0891 110.801 16.6217C112.085 17.1544 113.252 17.9352 114.235 18.9193C115.217 19.9034 115.996 21.0715 116.527 22.357C117.057 23.6424 117.329 25.0198 117.327 26.4104Z" fill="white" stroke="#263238" stroke-width="0.364038" stroke-linecap="round" stroke-linejoin="round"/>
<path d="M117.378 87.3274L123.558 84.5161L122.253 77.0999L115.435 76.5652C114.567 74.2818 113.422 72.1135 112.026 70.109L115.538 64.176L110.215 58.8523L104.23 62.3823C100.791 60.0502 96.9014 58.4639 92.8123 57.7255L91.0875 50.8899H83.5333L81.8086 57.7888C79.4732 58.2321 77.1995 58.954 75.0362 59.9389L69.6551 55.2822L63.4863 59.5997L66.0274 66.2629C64.364 67.9532 62.907 69.8347 61.6869 71.8682L54.5983 71.1381L52.0227 78.2152L57.8925 82.1993C57.6105 83.8516 57.4682 85.5247 57.4671 87.201C57.4671 87.9138 57.5015 88.6152 57.5533 89.3166L51.373 92.766L53.322 100.039L60.3186 99.9466C61.3493 102.138 62.6427 104.196 64.1705 106.075L61.1522 112.342L66.9013 117.182L72.4893 113.158C74.6113 114.377 76.8739 115.333 79.2272 116.004L80.3713 122.747L87.8738 123.403L90.139 116.998C92.6014 116.778 95.027 116.253 97.3598 115.435L102.091 120.247L108.616 116.481L106.823 109.99C108.714 108.384 110.397 106.55 111.836 104.529L118.465 105.753L121.644 98.929L116.47 94.6345C117.075 92.246 117.38 89.7914 117.378 87.3274ZM106.242 87.201C106.242 90.9203 105.139 94.5561 103.073 97.6485C101.006 100.741 98.0695 103.151 94.6333 104.575C91.1971 105.998 87.416 106.37 83.7682 105.645C80.1203 104.919 76.7696 103.128 74.1396 100.498C71.5097 97.8683 69.7187 94.5175 68.9931 90.8697C68.2675 87.2218 68.6399 83.4407 70.0632 80.0045C71.4865 76.5683 73.8968 73.6314 76.9893 71.565C80.0818 69.4987 83.7176 68.3958 87.4369 68.3958C92.4239 68.3973 97.2061 70.379 100.732 73.9054C104.259 77.4317 106.241 82.214 106.242 87.201Z" fill="#263238"/>
<path d="M117.377 84.4357L123.558 81.6186L122.253 74.2023L115.434 73.6734C114.566 71.39 113.421 69.2217 112.025 67.2172L115.538 61.2842L110.214 55.9548L104.229 59.5078C100.79 57.1739 96.9011 55.5857 92.8116 54.8453L91.0869 48.0154H83.5326L81.8079 54.9143C79.4726 55.3576 77.1989 56.0795 75.0355 57.0644L69.6544 52.4077L63.4857 56.7252L66.0268 63.3884C64.3671 65.0811 62.9139 66.9646 61.6977 68.9994L54.6149 68.2463L52.0393 75.3234L57.9091 79.3075C57.6274 80.9579 57.4851 82.6292 57.4837 84.3034C57.4837 85.0163 57.5181 85.7235 57.5699 86.4249L51.3896 89.8743L53.3386 97.1526L60.3352 97.0606C61.3604 99.2441 62.6481 101.294 64.1698 103.166L61.1516 109.438L66.9006 114.279L72.4887 110.255C74.6097 111.474 76.8726 112.428 79.2266 113.095L80.3707 119.873L87.8732 120.534L90.1383 114.124C92.6008 113.904 95.0263 113.379 97.3591 112.56L102.091 117.372L108.616 113.606L106.822 107.116C108.713 105.51 110.397 103.675 111.835 101.654L118.464 102.879L121.643 96.0488L116.469 91.76C117.076 89.3659 117.381 86.9054 117.377 84.4357ZM106.241 84.3034C106.241 88.0228 105.139 91.6585 103.072 94.751C101.006 97.8435 98.0689 100.254 94.6327 101.677C91.1965 103.1 87.4154 103.473 83.7675 102.747C80.1197 102.022 76.7689 100.231 74.139 97.6007C71.509 94.9708 69.718 91.62 68.9924 87.9721C68.2668 84.3243 68.6392 80.5432 70.0625 77.107C71.4859 73.6708 73.8962 70.7339 76.9887 68.6675C80.0811 66.6012 83.7169 65.4983 87.4362 65.4983C92.4237 65.4983 97.2069 67.4795 100.734 71.0062C104.26 74.5328 106.241 79.316 106.241 84.3034Z" fill="white" stroke="#263238" stroke-width="0.364038" stroke-linecap="round" stroke-linejoin="round"/>
<path d="M185.527 103.724L191.707 100.907L190.397 93.4904L183.567 92.9615C182.698 90.6877 181.557 88.5276 180.169 86.5283L183.682 80.5895L178.358 75.2659L172.379 78.8188C168.938 76.4848 165.047 74.8966 160.956 74.1563L159.231 67.3264H151.7L149.975 74.2253C147.639 74.6678 145.366 75.3897 143.203 76.3754L137.816 71.7129L131.647 76.0362L134.188 82.6994C132.532 84.3937 131.081 86.277 129.865 88.3105L122.77 87.5803L120.195 94.6574L126.076 98.6013C125.799 100.252 125.659 101.923 125.656 103.597C125.656 104.31 125.691 105.017 125.737 105.713L119.562 109.162L121.477 116.423L128.468 116.331C129.497 118.514 130.787 120.564 132.308 122.437L129.29 128.709L135.039 133.55L140.633 129.525C142.75 130.76 145.014 131.726 147.371 132.4L148.521 139.144L155.994 139.799L158.254 133.418C160.716 133.196 163.141 132.671 165.474 131.854L170.212 136.66L176.731 132.894L174.943 126.409C176.833 124.802 178.516 122.968 179.956 120.948L186.608 122.172L189.793 115.348L184.619 111.054C185.221 108.657 185.526 106.195 185.527 103.724ZM174.368 103.591C174.372 107.312 173.271 110.95 171.206 114.046C169.141 117.141 166.204 119.554 162.767 120.979C159.331 122.405 155.548 122.778 151.899 122.053C148.249 121.328 144.897 119.537 142.266 116.906C139.635 114.275 137.843 110.923 137.118 107.273C136.393 103.624 136.767 99.8412 138.193 96.4043C139.618 92.9674 142.031 90.0306 145.126 87.9656C148.221 85.9006 151.86 84.8001 155.58 84.8036C160.562 84.8066 165.339 86.787 168.862 90.3098C172.385 93.8325 174.365 98.6095 174.368 103.591Z" fill="#263238"/>
<path d="M185.527 100.832L191.707 98.0149L190.397 90.5986L183.567 90.0697C182.695 87.7853 181.548 85.6154 180.152 83.6077L183.664 77.6747L178.341 72.3511L172.362 75.904C168.921 73.57 165.03 71.9818 160.938 71.2415L159.214 64.4116H151.682L149.958 71.3105C147.622 71.753 145.348 72.4749 143.185 73.4606L137.799 68.7982L131.63 73.1214L134.171 79.7846C132.513 81.4778 131.062 83.3612 129.848 85.3957L122.753 84.6656L120.183 91.7024L126.076 95.7267C125.799 97.3796 125.659 99.0525 125.656 100.728C125.656 101.441 125.691 102.143 125.737 102.844L119.562 106.294L121.477 113.549L128.468 113.463C129.498 115.644 130.788 117.694 132.308 119.568L129.29 125.84L135.039 130.681L140.633 126.657C142.754 127.877 145.017 128.832 147.371 129.502L148.521 136.246L155.994 136.901L158.271 130.52C160.734 130.301 163.159 129.776 165.492 128.956L170.229 133.768L176.748 130.003L174.96 123.518C176.848 121.909 178.532 120.075 179.974 118.056L186.608 119.298L189.793 112.474L184.619 108.179C185.222 105.777 185.527 103.309 185.527 100.832ZM174.368 100.7C174.368 104.419 173.265 108.055 171.199 111.147C169.133 114.24 166.196 116.65 162.76 118.073C159.323 119.497 155.542 119.869 151.894 119.144C148.247 118.418 144.896 116.627 142.266 113.997C139.636 111.367 137.845 108.016 137.119 104.368C136.394 100.721 136.766 96.9394 138.189 93.5032C139.613 90.0671 142.023 87.1301 145.116 85.0637C148.208 82.9974 151.844 81.8945 155.563 81.8945C158.033 81.8938 160.479 82.3797 162.76 83.3244C165.042 84.2692 167.116 85.6544 168.862 87.4007C170.608 89.1471 171.994 91.2205 172.938 93.5024C173.883 95.7842 174.369 98.2299 174.368 100.7Z" fill="white" stroke="#263238" stroke-width="0.364038" stroke-linecap="round" stroke-linejoin="round"/>
<path d="M177.39 118.648C177.46 119.136 177.35 119.633 177.08 120.045C176.614 120.976 175.838 121.287 176.304 121.77C176.774 122.152 177.297 122.466 177.856 122.701C177.856 122.701 178.166 125.806 179.581 127.203C180.995 128.6 184.237 126.892 184.237 126.892L185.79 129.686L189.515 127.513C189.515 127.513 188.584 126.582 187.497 123.322C186.411 120.062 184.703 117.734 181.443 117.424C178.184 117.113 177.39 118.648 177.39 118.648Z" fill="white" stroke="#263238" stroke-width="0.336024" stroke-miterlimit="10"/>
<path d="M168.538 133.55L167.607 131.066C167.141 129.824 166.054 129.341 164.813 129.341C163.571 129.341 162.95 128.1 162.329 128.255C161.708 128.41 162.639 129.341 163.105 129.807C163.429 130.115 163.795 130.377 164.192 130.583C162.883 130.482 161.586 130.275 160.311 129.962C158.586 129.497 158.914 130.117 160.156 131.204C161.398 132.291 163.26 133.377 163.881 133.377C164.618 133.466 165.346 133.622 166.054 133.843L166.894 135.395L168.538 133.55Z" fill="white" stroke="#263238" stroke-width="0.336024" stroke-miterlimit="10"/>
<path d="M185.447 113.284L182.859 112.709C181.56 112.428 180.945 111.416 180.773 110.185C180.6 108.955 179.278 108.518 179.341 107.886C179.404 107.253 180.491 108.035 180.991 108.461C181.34 108.739 181.65 109.064 181.911 109.427C181.631 108.146 181.246 106.89 180.761 105.672C180.054 104.045 180.715 104.27 181.968 105.345C183.222 106.42 184.555 108.11 184.647 108.719C184.767 109.203 184.991 109.654 185.303 110.042L186.338 111.335L185.447 113.284Z" fill="white" stroke="#263238" stroke-width="0.336024" stroke-miterlimit="10"/>
<path d="M166.987 147.054L166.056 133.86C166.421 133.628 166.833 133.48 167.263 133.426C167.692 133.372 168.128 133.415 168.539 133.55L172.564 144.881C172.564 144.881 169.471 149.227 166.987 147.054Z" fill="white" stroke="#263238" stroke-width="0.336024" stroke-miterlimit="10"/>
<path d="M178.634 157.765C178.634 157.765 172.884 155.747 172.419 158.075C171.953 160.404 179.254 163.203 181.738 163.048C184.222 162.893 181.893 159.012 178.634 157.765Z" fill="white" stroke="#263238" stroke-width="0.336024" stroke-miterlimit="10"/>
<path d="M188.74 153.108C188.74 153.108 179.582 147.359 177.098 146.123C174.615 144.887 171.815 145.192 170.728 147.675C169.642 150.159 180.502 160.254 182.997 163.669C185.492 167.084 191.534 168.015 194.639 168.015C197.743 168.015 203.176 164.6 203.797 161.651C204.418 158.702 204.108 148.762 203.331 146.129C202.555 143.496 200.693 141.782 198.519 144.266C196.346 146.75 190.896 153.263 188.74 153.108Z" fill="#263238"/>
<path d="M188.132 153.372C188.132 153.372 185.188 160.507 185.527 162.887" stroke="white" stroke-width="0.168012" stroke-miterlimit="10"/>
<path d="M201.043 152.355C201.043 152.355 203.532 155.298 203.642 158.242" stroke="white" stroke-width="0.168012" stroke-miterlimit="10"/>
<path d="M189.654 126.72C189.654 126.72 186.239 128.582 184.842 130.135C183.445 131.687 169.32 144.26 167.917 145.036C166.514 145.812 166.365 148.917 168.848 149.227C171.332 149.538 183.445 143.018 183.445 143.018C183.445 143.018 182.358 145.812 183.445 146.744C184.532 147.675 187.326 148.468 187.636 149.693C187.947 150.918 187.481 153.418 189.033 154.66C190.585 155.902 195.397 156.385 198.347 154.039C201.296 151.694 201.141 146.123 200.52 142.397C199.899 138.672 200.985 125.012 200.209 121.908C199.433 118.803 185.463 111.353 185.463 111.353L184.842 113.681C184.842 113.681 194.156 120.511 194.311 121.155C194.466 121.799 189.654 126.72 189.654 126.72Z" fill="white" stroke="#263238" stroke-width="0.336024" stroke-miterlimit="10"/>
<path d="M183.445 143.018L189.091 141.161" stroke="#263238" stroke-width="0.336024" stroke-miterlimit="10" stroke-linecap="round"/>
<path d="M184.061 142.639L189.091 144.266" stroke="#263238" stroke-width="0.336024" stroke-miterlimit="10" stroke-linecap="round"/>
<path d="M182.359 111.197C181.564 110.617 180.599 110.317 179.616 110.345C178.632 110.373 177.686 110.727 176.926 111.353C173.977 113.526 175.839 116.785 176.615 117.717L177.392 118.648C177.392 118.648 179.72 122.839 182.048 124.547C184.377 126.254 189.654 126.72 189.654 126.72C189.654 126.72 191.672 128.738 191.379 134.481C191.086 140.224 189.051 143.329 192.621 147.986C196.191 152.642 202.538 154.367 205.642 149.538C208.747 144.709 209.523 139.764 205.798 134.792C202.072 129.819 195.863 127.651 194.156 126.875C192.448 126.099 191.827 124.857 191.827 124.236C191.827 123.615 194.621 116.475 191.827 112.439C189.033 108.403 184.842 109.795 182.359 111.197Z" fill="#263238"/>
<path d="M181.679 111.933C181.679 111.933 179.414 111.14 178.96 114.308C178.506 117.475 180.495 122.96 185.077 124.84" stroke="white" stroke-width="0.168012" stroke-miterlimit="10" stroke-linecap="round"/>
<path d="M180.656 116.688C181.581 118.98 182.962 121.062 184.715 122.805C186.514 124.465 188.757 125.566 191.171 125.972" stroke="white" stroke-width="0.168012" stroke-miterlimit="10" stroke-linecap="round"/>
<path d="M192.438 128.353C192.438 128.353 196.623 132.992 195.042 139.109C193.461 145.226 197.077 151.447 201.722 150.998C206.367 150.55 206.362 144.099 206.362 144.099" stroke="white" stroke-width="0.168012" stroke-miterlimit="10" stroke-linecap="round"/>
<path d="M191.644 127.444C191.644 127.444 194.133 127.559 197.87 132.653C201.607 137.747 199.342 142.277 199.796 146.129C200.25 149.981 203.533 149.296 204.326 147.71" stroke="white" stroke-width="0.168012" stroke-miterlimit="10" stroke-linecap="round"/>
<path d="M178.306 30.6416C175.265 26.9105 170.01 26.1804 166.107 23.5243C163.494 21.7398 160.998 19.7908 158.633 17.689H158.455C157.242 16.3904 155.617 15.5515 153.856 15.3146C149.831 14.9754 145.87 16.2805 146.221 20.8337C145.991 20.9832 145.767 21.1384 145.537 21.3167C145.161 21.3683 144.793 21.4708 144.444 21.6214C141.633 22.8057 141.415 28.6352 143.513 31.3028C144.628 32.717 146.813 33.9128 148.819 34.5797V34.643C148.819 34.643 148.992 35.2179 154.827 35.7928C160.663 36.3677 162.37 38.6673 162.106 41.4671C162.005 42.5111 162.13 43.5644 162.471 44.5562C162.812 45.5479 163.362 46.455 164.083 47.2162C164.79 48.2108 165.94 48.9926 167.786 49.4468C178.462 52.0339 184.717 38.4891 178.306 30.6416Z" fill="#263238"/>
<path d="M148.716 22.6561C151.474 25.6522 154.983 27.8555 158.88 29.0376C165.055 30.7623 171.821 28.6811 175.851 31.5499C179.881 34.4187 179.939 37.3737 179.56 39.0237" stroke="white" stroke-width="0.168012" stroke-miterlimit="10" stroke-linecap="round"/>
<path d="M147.664 20.7245C149.415 19.9076 151.389 19.705 153.269 20.1496C156.368 20.897 158.484 24.8351 163.94 27.0485C169.396 29.2619 172.374 27.6234 175.064 29.1239" stroke="white" stroke-width="0.168012" stroke-miterlimit="10" stroke-linecap="round"/>
<path d="M147.63 23.438C146.818 24.0122 146.154 24.7728 145.696 25.656C145.238 26.5393 144.998 27.5194 144.997 28.5144C144.997 31.9121 147.578 32.3835 147.578 32.3835" stroke="white" stroke-width="0.168012" stroke-miterlimit="10" stroke-linecap="round"/>
<path d="M146.773 22.9091C146.773 22.9091 142.467 25.3294 142.783 27.9625C142.842 28.6907 143.095 29.3899 143.516 29.9873C143.936 30.5848 144.509 31.0588 145.175 31.3602" stroke="white" stroke-width="0.168012" stroke-miterlimit="10" stroke-linecap="round"/>
<path d="M150.225 44.3013C150.225 44.3013 146.603 47.4748 145.706 51.3554C144.809 55.2361 143.981 69.3787 145.332 70.6665C146.683 71.9543 148.241 71.3392 149.196 70.2583C150.15 69.1775 154.91 54.0403 154.91 54.0403L156.273 54.3909C156.273 54.3909 161.723 66.6364 162.298 68.0392C162.873 69.442 165.109 71.7129 167.34 70.4366C169.57 69.1603 167.914 59.5133 166.765 55.9374C165.615 52.3615 162.597 43.5022 160.205 42.5594C157.813 41.6165 151.403 42.4272 150.225 44.3013Z" fill="#263238"/>
<path d="M149.647 45.7099C149.647 45.7099 152.574 50.1137 156.196 49.3663C159.818 48.619 160.841 44.3474 160.697 43.4333C160.553 42.5192 149.647 45.7099 149.647 45.7099Z" fill="white" stroke="#263238" stroke-width="0.336024" stroke-miterlimit="10"/>
<path d="M152.522 30.4749C152.522 30.4749 144.347 33.2344 142.806 35.3443C141.265 37.4542 139.087 52.373 138.782 52.9767C138.477 53.5803 134.183 68.0794 134.183 68.0794L136.586 67.8955C136.586 67.8955 143.703 53.5228 143.985 52.9134C144.266 52.304 146.405 43.1918 146.405 43.1918C146.405 43.1918 147.377 45.8478 148.923 46.1698C150.47 46.4917 154.672 45.8363 157.587 45.3879C160.502 44.9395 161.422 44.813 162.502 43.3182C163.583 41.8235 163.428 39.6216 163.428 39.6216L168.2 49.9124L164.969 66.4927L167.36 67.4298C167.36 67.4298 172.328 52.4535 172.494 51.114C172.661 49.7744 169.102 40.0528 166.745 35.741C164.388 31.4292 163.871 31.5154 161.64 30.5668C159.409 29.6182 152.522 30.4749 152.522 30.4749Z" fill="white" stroke="#263238" stroke-width="0.336024" stroke-miterlimit="10"/>
<path d="M151.89 34.6889C151.89 34.6889 152.355 38.9144 154.109 39.3916C155.862 39.8688 155.23 34.5452 155.23 34.5452L151.89 34.6889Z" fill="white" stroke="#263238" stroke-width="0.336024" stroke-miterlimit="10"/>
<path d="M150.644 26.3298C150.024 27.5125 149.097 28.5057 147.959 29.2044C148.376 30.7534 149.074 32.2129 150.017 33.5104C152.593 36.8506 153.927 37.0173 155.249 35.879C156.364 34.9132 157.307 31.9582 157.307 29.4113C151.598 27.8246 150.644 26.3298 150.644 26.3298Z" fill="white" stroke="#263238" stroke-width="0.336024" stroke-miterlimit="10"/>
<path d="M149.222 30.1127C149.412 29.8906 149.659 29.7238 149.936 29.6297C150.213 29.5357 150.511 29.5178 150.797 29.578C151.843 29.762 152.01 31.136 152.269 31.9869C152.527 32.8378 152.631 34.4648 153.781 33.0907" stroke="#263238" stroke-width="0.168012" stroke-linecap="round" stroke-linejoin="round"/>
<path d="M153.195 29.4629C153.195 29.4629 154.161 28.0717 155.748 29.4629" stroke="#263238" stroke-width="0.168012" stroke-linecap="round" stroke-linejoin="round"/>
<path d="M152.717 34.5164C152.717 34.5164 153.867 35.0913 154.591 34.1427" stroke="#263238" stroke-width="0.168012" stroke-linecap="round" stroke-linejoin="round"/>
<path d="M150.159 30.952C150.159 30.952 150.734 31.5844 151.401 30.7623" stroke="#263238" stroke-width="0.168012" stroke-linecap="round" stroke-linejoin="round"/>
<path d="M154.006 30.5382C154.121 30.6394 154.255 30.7166 154.4 30.7653C154.545 30.8141 154.698 30.8334 154.85 30.8222C155.003 30.8109 155.152 30.7694 155.288 30.6999C155.425 30.6304 155.546 30.5344 155.644 30.4175" stroke="#263238" stroke-width="0.168012" stroke-linecap="round" stroke-linejoin="round"/>
<path d="M134.252 68.0794C133.521 68.9477 132.917 69.9155 132.458 70.9539C132.079 72.1325 130.774 74.5816 131.688 74.4379C132.602 74.2941 133.821 71.3046 133.821 71.3046C134.716 71.0609 135.543 70.6121 136.235 69.9938C136.469 69.6989 136.628 69.3527 136.701 68.9838C136.774 68.6149 136.758 68.234 136.655 67.8724L134.252 68.0794Z" fill="white" stroke="#263238" stroke-width="0.336024" stroke-miterlimit="10"/>
<path d="M165.039 66.4928C165.039 66.4928 163.315 68.4475 163.188 69.0224C163.062 69.5973 162.97 72.4201 162.97 72.4201C162.97 72.4201 163.234 72.9375 163.878 72.2764C164.058 72.131 164.203 71.947 164.303 71.7381C164.402 71.5291 164.454 71.3005 164.453 71.0691C164.453 71.0691 164.217 73.1617 164.51 73.8631C164.804 74.5645 166.31 73.3974 166.741 72.5868C167.172 71.7762 167.442 67.4127 167.442 67.4127L165.039 66.4928Z" fill="white" stroke="#263238" stroke-width="0.336024" stroke-miterlimit="10"/>
<path d="M38.6047 120.953C38.6047 120.953 44.1928 122.35 42.1749 123.282C40.157 124.213 36.2764 124.368 34.1262 123.747C31.9761 123.126 31.6426 120.798 33.3501 120.488C35.0576 120.177 38.6047 120.953 38.6047 120.953Z" fill="white" stroke="#263238" stroke-width="0.336024" stroke-linecap="round" stroke-linejoin="round"/>
<path d="M21.3751 138.959L15.4766 140.356L16.0975 143.771L17.4945 144.082C17.4945 144.082 17.0288 148.106 17.6497 149.831C18.2706 151.556 18.7363 154.643 19.9493 154.177C21.1624 153.711 20.415 147.192 20.8807 146.416C21.5919 145.481 22.37 144.599 23.209 143.777L21.6568 139.586L21.3751 138.959Z" fill="white" stroke="#263238" stroke-width="0.336024" stroke-linecap="round" stroke-linejoin="round"/>
<path d="M17.6094 139.994C17.6094 139.994 18.3165 151.872 19.978 154.171" stroke="#263238" stroke-width="0.336024" stroke-linecap="round" stroke-linejoin="round"/>
<path d="M32.3967 122.04C32.3967 122.04 43.4177 124.834 48.5401 127.317C53.6625 129.801 56.4623 133.526 53.3578 136.32C50.2533 139.114 36.8982 141.909 33.0176 142.995C29.137 144.082 22.6176 145.295 22.6176 145.295L21.0596 138.43L35.0355 135.516L25.1012 131.635C25.1012 131.635 21.531 130.393 23.2385 126.668C24.9459 122.942 32.3967 122.04 32.3967 122.04Z" fill="#263238"/>
<path d="M35.0352 135.544C35.0352 135.544 43.5725 137.097 46.8322 137.097" stroke="white" stroke-width="0.168012" stroke-miterlimit="10" stroke-linecap="round"/>
<path d="M34.7236 120.643L38.449 122.195C40.3366 120.317 42.5444 118.79 44.9685 117.688C48.8491 115.963 53.3563 114.583 52.5802 110.082C51.8041 105.58 48.2282 104.959 44.658 104.959H38.449L34.7236 120.643Z" fill="#263238"/>
<path d="M50.8564 81.693C50.8564 81.693 54.0414 82.4058 54.3058 82.0437C54.5703 81.6815 57.7553 80.3994 58.3819 80.1005C59.0085 79.8015 59.365 79.0944 58.6809 78.9507C57.9967 78.8069 54.9095 79.7498 54.9095 79.7498L56.8871 76.9615C56.8871 76.9615 59.8997 75.3747 59.3822 74.7768C58.8648 74.1789 57.3988 74.7768 56.6227 74.7768C55.8466 74.7768 53.11 74.9896 52.1269 75.9956C51.1438 77.0017 48.9189 79.5946 48.9189 79.5946L50.8564 81.693Z" fill="white" stroke="#263238" stroke-width="0.336024" stroke-linecap="round" stroke-linejoin="round"/>
<path d="M44.7392 88.4539L51.8048 82.3484L49.304 80.5144L38.6337 85.0159C35.4028 85.8955 31.6889 87.0396 30.6885 87.8904C28.8258 89.4427 28.8258 94.4099 28.8258 94.8756C28.8258 95.3412 26.0433 99.837 22.1512 103.562C18.2591 107.288 12.0616 110.237 10.5093 111.611C8.9571 112.985 10.5093 123.259 15.0109 127.915C18.0025 130.893 21.4637 133.358 25.2557 135.211C25.2557 135.211 35.5005 122.172 36.7538 119.844C38.0071 117.515 38.306 117.044 38.306 117.044C38.306 117.044 42.1867 110.369 41.8762 108.351C41.5658 106.333 41.4105 97.7961 41.4105 95.9334C41.4105 94.0707 44.2046 90.0348 44.6702 88.6378C44.6817 88.5918 44.7105 88.5229 44.7392 88.4539Z" fill="white" stroke="#263238" stroke-width="0.336024" stroke-linecap="round" stroke-linejoin="round"/>
<path d="M28.8262 94.8699C28.8262 94.8699 32.3733 90.1154 35.3744 88.5459" stroke="#263238" stroke-width="0.336024" stroke-miterlimit="10" stroke-linecap="round"/>
<path d="M54.9084 85.8668C55.1619 87.0395 55.2144 88.2467 55.0636 89.4369C54.7532 90.834 56.3054 91.4549 55.5293 92.0758C54.7532 92.6967 53.977 93.4728 53.977 93.4728L52.2523 96.8877C51.7867 97.8191 50.5276 99.0609 49.4525 98.9056C48.3775 98.7504 45.8824 96.8877 44.951 96.8877C44.0197 96.8877 41.6913 98.1295 41.6913 98.1295C41.6913 98.1295 41.3809 93.4728 41.3809 91.7653C41.3809 90.0578 43.3988 89.5922 43.3988 89.5922C43.3988 89.5922 44.7958 86.6429 46.6585 85.2459C48.5212 83.8489 53.3562 83.6936 54.9084 85.8668Z" fill="white" stroke="#263238" stroke-width="0.336024" stroke-linecap="round" stroke-linejoin="round"/>
<path d="M46.2109 94.7146C46.2109 94.7146 47.1423 95.8012 47.7632 95.8012H48.3841C48.583 96.4953 48.8427 97.1706 49.1602 97.8191" stroke="#263238" stroke-width="0.336024" stroke-linecap="round" stroke-linejoin="round"/>
<path d="M54.9088 88.8276C54.6075 89.0449 54.3552 89.3229 54.168 89.6437C53.9808 89.9646 53.8631 90.3211 53.8223 90.6903" stroke="#263238" stroke-width="0.336024" stroke-linecap="round" stroke-linejoin="round"/>
<path d="M46.2109 94.7146C46.2109 94.7146 43.8825 93.7833 42.1865 90.3683C40.4906 86.9534 39.5477 82.6071 43.7388 79.3474C47.9298 76.0877 51.661 77.7951 53.5122 78.416C55.3634 79.0369 58.3241 80.5892 57.2376 83.8489C56.151 87.1086 51.1838 87.4191 51.339 88.1952C51.4943 88.9713 53.0638 90.4948 52.1152 90.834C51.1666 91.1732 50.2467 91.7654 50.2467 92.231C50.2467 92.6967 50.0972 93.9557 49.6258 93.9557C49.1544 93.9557 47.7631 90.8513 46.6765 91.7826C45.59 92.7139 46.2109 94.7146 46.2109 94.7146Z" fill="#263238"/>
<path d="M42.1744 90.3684L43.2897 97.6639L45.6181 102.786H40.8061C39.99 100.28 39.3181 97.729 38.7939 95.1458C38.6135 94.1759 38.7122 93.1747 39.0786 92.2587C39.445 91.3427 40.064 90.5496 40.8636 89.9717L42.1744 90.3684Z" fill="white" stroke="#263238" stroke-width="0.336024" stroke-linecap="round" stroke-linejoin="round"/>
<path d="M65.4639 115.67C65.4639 115.67 66.8609 112.721 67.3266 112.721C67.7922 112.721 70.7415 110.996 71.3509 110.703C71.9603 110.409 72.7479 110.547 72.4375 111.168C72.127 111.789 69.4882 113.652 69.4882 113.652L72.9031 113.807C72.9031 113.807 76.0076 112.41 76.1629 113.186C76.3181 113.962 74.9211 114.738 74.4381 115.359C73.9552 115.98 72.1385 118.004 70.7128 118.153C69.287 118.303 65.9008 118.47 65.9008 118.47L65.4639 115.67Z" fill="white" stroke="#263238" stroke-width="0.336024" stroke-linecap="round" stroke-linejoin="round"/>
<path d="M33.0176 111.789C33.0176 111.789 48.2296 126.231 49.9371 126.386C51.6445 126.541 66.7071 119.556 66.7071 119.556L65.4653 114.894L50.4085 118.343C50.4085 118.343 38.4504 102.97 37.3639 102.97C36.2773 102.97 34.4146 104.522 34.4146 104.522" fill="white"/>
<path d="M33.0176 111.789C33.0176 111.789 48.2296 126.231 49.9371 126.386C51.6445 126.541 66.7071 119.556 66.7071 119.556L65.4653 114.894L50.4085 118.343C50.4085 118.343 38.4504 102.97 37.3639 102.97C36.2773 102.97 34.4146 104.522 34.4146 104.522" stroke="#263238" stroke-width="0.336024" stroke-linecap="round" stroke-linejoin="round"/>
<path d="M33.1719 124.989C33.1719 124.989 24.0137 130.738 21.8406 131.509C19.6674 132.279 18.5693 132.75 18.5693 132.75C18.5693 132.75 20.0468 134.607 20.869 135.01C22.7834 135.97 25.2555 135.234 25.2555 135.234L33.1719 124.989Z" fill="white" stroke="#263238" stroke-width="0.336024" stroke-linecap="round" stroke-linejoin="round"/>
</svg>
