<svg width="558" height="486" viewBox="0 0 558 486" fill="none" xmlns="http://www.w3.org/2000/svg">
<path d="M12.3457 387.243H518.213" stroke="#263238" stroke-miterlimit="10"/>
<path d="M12.3457 291.466H518.213" stroke="#263238" stroke-miterlimit="10"/>
<path d="M12.3457 195.69H518.213" stroke="#263238" stroke-miterlimit="10"/>
<path d="M12.3457 99.9131H518.213" stroke="#263238" stroke-miterlimit="10"/>
<path d="M127.363 45.5298V387.469" stroke="#263238" stroke-miterlimit="10"/>
<path d="M431.423 45.5298V387.469" stroke="#263238" stroke-miterlimit="10"/>
<path d="M138.66 172.282L134.895 176.248" stroke="#263238" stroke-miterlimit="10"/>
<path d="M202.782 104.657L143.19 167.5" stroke="#263238" stroke-miterlimit="10"/>
<path d="M206.497 114.886L173.023 149.289" stroke="#263238" stroke-miterlimit="10"/>
<path d="M444.438 172.282L440.673 176.248" stroke="#263238" stroke-miterlimit="10"/>
<path d="M508.549 104.657L448.97 167.5" stroke="#263238" stroke-miterlimit="10"/>
<path d="M512.276 114.886L478.803 149.289" stroke="#263238" stroke-miterlimit="10"/>
<path d="M4.76529 365.693L1 369.659" stroke="#263238" stroke-miterlimit="10"/>
<path d="M68.8754 298.056L9.2959 360.911" stroke="#263238" stroke-miterlimit="10"/>
<path d="M72.6032 308.284L39.1172 342.699" stroke="#263238" stroke-miterlimit="10"/>
<path d="M54.0398 90.4623L50.2871 94.4284" stroke="#263238" stroke-miterlimit="10"/>
<path d="M118.163 22.8251L58.584 85.6678" stroke="#263238" stroke-miterlimit="10"/>
<path d="M121.879 33.0541L88.4053 67.4563" stroke="#263238" stroke-miterlimit="10"/>
<path d="M332.672 90.4623L328.919 94.4284" stroke="#263238" stroke-miterlimit="10"/>
<path d="M396.795 22.8251L337.216 85.6678" stroke="#263238" stroke-miterlimit="10"/>
<path d="M400.511 33.0541L367.037 67.4563" stroke="#263238" stroke-miterlimit="10"/>
<path d="M246.522 271.774L242.757 275.74" stroke="#263238" stroke-miterlimit="10"/>
<path d="M310.632 204.149L251.053 266.992" stroke="#263238" stroke-miterlimit="10"/>
<path d="M314.36 214.378L280.887 248.78" stroke="#263238" stroke-miterlimit="10"/>
<path d="M503.416 458.018C503.416 458.018 472.339 391.799 479.092 389.891C485.844 387.983 500.002 398.526 500.002 398.526C500.002 398.526 458.458 287.199 469.214 278.564C479.97 269.929 500.052 314.121 500.052 314.121C500.052 314.121 478.602 245.931 481.125 219.988C483.648 194.046 510.896 219.035 510.896 219.035C510.896 219.035 489.07 125.944 509.34 121.137C529.609 116.33 528.932 227.657 528.932 227.657C528.932 227.657 535.584 147.996 543.704 170.073C551.825 192.15 534.755 266.038 534.755 266.038C534.755 266.038 545.888 241.087 552.076 264.118C558.263 287.149 539.776 380.239 539.776 380.239C539.776 380.239 555.49 364.889 556.958 384.08C558.427 403.27 524.426 462.775 524.426 462.775L505.185 464.733L503.416 458.018Z" fill="#F8B84A"/>
<path opacity="0.6" d="M503.416 458.018C503.416 458.018 472.339 391.799 479.092 389.891C485.844 387.983 500.002 398.526 500.002 398.526C500.002 398.526 458.458 287.199 469.214 278.564C479.97 269.929 500.052 314.121 500.052 314.121C500.052 314.121 478.602 245.931 481.125 219.988C483.648 194.046 510.896 219.035 510.896 219.035C510.896 219.035 489.07 125.944 509.34 121.137C529.609 116.33 528.932 227.657 528.932 227.657C528.932 227.657 535.584 147.996 543.704 170.073C551.825 192.15 534.755 266.038 534.755 266.038C534.755 266.038 545.888 241.087 552.076 264.118C558.263 287.149 539.776 380.239 539.776 380.239C539.776 380.239 555.49 364.889 556.958 384.08C558.427 403.27 524.426 462.775 524.426 462.775L505.185 464.733L503.416 458.018Z" fill="white"/>
<path d="M510.055 460.967C510.055 460.967 484.15 414.905 488.945 406.258C493.739 397.61 508.135 417.779 508.135 417.779C508.135 417.779 475.502 336.198 480.31 328.529C485.117 320.861 500.466 354.447 500.466 354.447C500.466 354.447 494.705 242.166 504.294 245.994C513.883 249.822 514.812 303.515 514.812 303.515C514.812 303.515 509.064 175.884 517.699 179.725C526.334 183.565 525.38 325.592 525.38 325.592C525.38 325.592 542.65 270.883 545.524 295.834C548.399 320.785 523.46 387.971 523.46 387.971C523.46 387.971 547.445 335.181 550.369 363.07C553.293 390.958 531.128 442.668 531.128 442.668C531.128 442.668 539.764 421.557 539.764 433.066C539.764 444.576 533.049 458.984 533.049 458.984" stroke="#263238" stroke-linecap="round" stroke-linejoin="round"/>
<path d="M438.778 318.188L473.732 394.472L451.743 400.673L425.812 368.391L438.778 318.188Z" fill="#F8B84A"/>
<g opacity="0.1">
<path opacity="0.1" d="M432.463 342.612L430.982 348.372L460.013 398.338L464.18 397.171L432.463 342.612Z" fill="black"/>
<path opacity="0.1" d="M451.906 400.635L456.098 399.455L429.088 355.69L427.645 361.3L451.906 400.635Z" fill="black"/>
<path opacity="0.1" d="M436.054 328.718L434.522 334.667L467.858 396.129L471.975 394.962L436.054 328.718Z" fill="black"/>
</g>
<path d="M438.778 318.188L473.732 394.472L451.743 400.673L425.812 368.391L438.778 318.188Z" stroke="#263238" stroke-linecap="round" stroke-linejoin="round"/>
<path d="M369.258 296.939L323.735 317.911L348.009 416.399L340.278 457.83H426.641L418.094 412.809L439.054 318.188L391.322 298.595L369.258 296.939Z" fill="#F8B84A"/>
<g opacity="0.1">
<path opacity="0.1" d="M369.673 457.83L371.417 418.595C371.436 418.412 371.436 418.227 371.417 418.043L353.532 304.193L348.261 306.615L365.832 418.633L364.088 457.83H369.673Z" fill="black"/>
<path opacity="0.1" d="M380.141 409.207C380.141 409.207 380.141 409.107 380.141 409.057L365.958 298.457L360.649 300.967L374.581 409.747L378.171 457.892H383.768L380.141 409.207Z" fill="black"/>
<path opacity="0.1" d="M353.884 457.83L358.904 419.537C358.948 419.254 358.948 418.966 358.904 418.683L339.764 310.556L334.53 312.966L353.357 419.235L348.336 457.83H353.884Z" fill="black"/>
<path opacity="0.1" d="M437.072 317.372L431.813 315.213L412.622 414.453C412.566 414.777 412.566 415.109 412.622 415.432L419.525 457.83H425.186L418.17 415.031L418.333 414.215L418.057 412.809L422.262 393.87L437.072 317.372Z" fill="black"/>
<path opacity="0.1" d="M386.767 308.209L381.194 308.373L385.826 457.83H391.398L386.767 308.209Z" fill="black"/>
<path opacity="0.1" d="M406.335 414.303L424.872 312.364L419.601 310.193L400.774 413.788C400.712 414.108 400.712 414.436 400.774 414.755L408.129 457.83H413.79L406.335 414.303Z" fill="black"/>
<path opacity="0.1" d="M396.206 410.839L410.301 306.377L404.967 304.193L390.633 410.437C390.603 410.662 390.603 410.89 390.633 411.115L395.829 457.83H401.44L396.206 410.839Z" fill="black"/>
</g>
<path d="M369.258 296.939L323.735 317.911L348.009 416.399L340.278 457.83H426.641L418.094 412.809L439.054 318.188L391.322 298.595L369.258 296.939Z" stroke="#263238" stroke-linecap="round" stroke-linejoin="round"/>
<path d="M323.735 317.911L287.877 395.564L310.77 400.396L336.7 368.115L323.735 317.911Z" fill="#F8B84A"/>
<g opacity="0.1">
<path opacity="0.1" d="M333.161 354.409L308.185 399.857L310.77 400.396L316.744 392.953L334.68 360.321L333.161 354.409Z" fill="black"/>
<path opacity="0.1" d="M330.915 345.724L329.283 339.398L301.407 398.426L305.612 399.317L330.915 345.724Z" fill="black"/>
<path opacity="0.1" d="M292.308 396.493L296.512 397.384L327.35 331.906L325.706 325.555L292.308 396.493Z" fill="black"/>
</g>
<path d="M322.794 330.839L335.446 364.789L322.744 345.348" stroke="#263238" stroke-miterlimit="10"/>
<path d="M323.735 317.911L287.877 395.564L310.77 400.396L336.7 368.115L323.735 317.911Z" stroke="#263238" stroke-linecap="round" stroke-linejoin="round"/>
<path d="M312.415 388.812L357.661 440.409L348.875 450.337L291.856 404.927C291.856 404.927 284.037 401.162 288.731 393.506" fill="#F8B84A"/>
<g opacity="0.1">
<path opacity="0.1" d="M352.916 443.998L357.158 440.371L334.34 413.813L312.414 388.812L306.515 389.979L352.916 443.998Z" fill="black"/>
<path opacity="0.1" d="M343.879 446.383L347.657 449.395L351.209 446.27L302.411 390.795L296.085 392.037L343.879 446.383Z" fill="black"/>
</g>
<path d="M312.415 388.812L357.661 440.409L348.875 450.337L291.856 404.927C291.856 404.927 284.037 401.162 288.731 393.506" stroke="#263238" stroke-linecap="round" stroke-linejoin="round"/>
<path d="M350.394 438.463C351.649 437.761 373.475 432.539 373.776 435.213C374.077 437.886 380.579 440.836 383.541 440.836C386.503 440.836 389.465 438.463 390.055 442.015C390.645 445.567 387.394 445.869 384.733 446.157C382.072 446.446 372.885 443.496 372.885 443.496C372.885 443.496 364.3 450.6 360.748 452.37C357.196 454.14 350.707 453.625 348.323 451.78C345.938 449.935 342.712 442.605 350.394 438.463Z" fill="white" stroke="#263238" stroke-linecap="round" stroke-linejoin="round"/>
<path d="M370.538 434.911C370.538 434.911 378.822 432.539 380.579 433.43C382.336 434.322 383.252 452.081 383.252 452.081C383.252 452.081 382.361 453.851 380.579 452.081C378.797 450.312 372.885 437.02 372.885 437.02" fill="white"/>
<path d="M370.538 434.911C370.538 434.911 378.822 432.539 380.579 433.43C382.336 434.322 383.252 452.081 383.252 452.081C383.252 452.081 382.361 453.851 380.579 452.081C378.797 450.312 372.885 437.02 372.885 437.02" stroke="#263238" stroke-linecap="round" stroke-linejoin="round"/>
<path d="M366.384 435.501C366.384 435.501 374.969 433.43 376.751 436.681C378.533 439.932 382.964 454.441 379.412 455.043C375.86 455.646 374.68 450.889 374.68 450.889L369.057 440.534L365.204 439.944" fill="white"/>
<path d="M366.384 435.501C366.384 435.501 374.969 433.43 376.751 436.681C378.533 439.932 382.964 454.441 379.412 455.043C375.86 455.646 374.68 450.889 374.68 450.889L369.057 440.534L365.204 439.944" stroke="#263238" stroke-linecap="round" stroke-linejoin="round"/>
<path d="M363.434 438.162C363.434 438.162 367.575 436.393 369.646 437.874C371.717 439.355 381.193 454.441 379.411 455.043C377.629 455.646 373.487 455.332 372.897 454.152C372.307 452.972 364.613 442.856 364.613 442.856" fill="white"/>
<path d="M363.434 438.162C363.434 438.162 367.575 436.393 369.646 437.874C371.717 439.355 381.193 454.441 379.411 455.043C377.629 455.646 373.487 455.332 372.897 454.152C372.307 452.972 364.613 442.856 364.613 442.856" stroke="#263238" stroke-linecap="round" stroke-linejoin="round"/>
<path d="M360.435 443.195C360.435 443.195 364.275 439.643 366.346 440.836C368.417 442.028 377.002 453.261 375.232 454.441C373.462 455.621 372.27 454.441 370.5 452.081C369.231 450.49 367.734 449.094 366.057 447.939L362.505 449.119" fill="white"/>
<path d="M360.435 443.195C360.435 443.195 364.275 439.643 366.346 440.836C368.417 442.028 377.002 453.261 375.232 454.441C373.462 455.621 372.27 454.441 370.5 452.081C369.231 450.49 367.734 449.094 366.057 447.939L362.505 449.119" stroke="#263238" stroke-linecap="round" stroke-linejoin="round"/>
<path d="M447.89 390.469L432.829 441.714L443.723 449.32L468.336 409.759C468.336 409.759 478.452 398.338 472.101 391.912" fill="#F8B84A"/>
<g opacity="0.1">
<path opacity="0.1" d="M444.061 448.705L444.25 448.391L465.097 391.498L459.273 391.146L439.129 446.145L441.388 447.714L444.061 448.705Z" fill="black"/>
<path opacity="0.1" d="M432.854 441.752L437.585 445.065L457.039 391.172L456.5 390.983L451.291 390.669L432.854 441.752Z" fill="black"/>
<path opacity="0.1" d="M473.82 394.911C473.486 393.778 472.874 392.747 472.038 391.912L469.05 391.736L453.312 433.895L468.272 409.822L473.82 394.911Z" fill="black"/>
</g>
<path d="M447.89 390.469L432.829 441.714L443.723 449.32L468.336 409.759C468.336 409.759 478.452 398.338 472.101 391.912" stroke="#263238" stroke-linecap="round" stroke-linejoin="round"/>
<path d="M440.41 438.463C439.155 437.761 417.316 432.539 417.027 435.213C416.739 437.886 410.212 440.836 407.263 440.836C404.313 440.836 401.339 438.463 400.749 442.015C400.159 445.567 403.41 445.869 406.07 446.157C408.731 446.446 417.919 443.496 417.919 443.496C417.919 443.496 426.503 450.6 430.055 452.37C433.607 454.14 440.096 453.625 442.481 451.78C444.866 449.935 448.104 442.605 440.41 438.463Z" fill="white" stroke="#263238" stroke-linecap="round" stroke-linejoin="round"/>
<path d="M420.278 434.911C420.278 434.911 411.994 432.539 410.237 433.43C408.48 434.322 407.576 452.081 407.576 452.081C407.576 452.081 408.467 453.851 410.237 452.081C412.007 450.312 417.943 437.02 417.943 437.02" fill="white"/>
<path d="M420.278 434.911C420.278 434.911 411.994 432.539 410.237 433.43C408.48 434.322 407.576 452.081 407.576 452.081C407.576 452.081 408.467 453.851 410.237 452.081C412.007 450.312 417.943 437.02 417.943 437.02" stroke="#263238" stroke-linecap="round" stroke-linejoin="round"/>
<path d="M424.445 435.501C424.445 435.501 415.872 433.43 414.09 436.681C412.308 439.932 407.815 454.441 411.429 455.043C415.044 455.646 416.161 450.889 416.161 450.889L421.784 440.534L425.637 439.944" fill="white"/>
<path d="M424.445 435.501C424.445 435.501 415.872 433.43 414.09 436.681C412.308 439.932 407.815 454.441 411.429 455.043C415.044 455.646 416.161 450.889 416.161 450.889L421.784 440.534L425.637 439.944" stroke="#263238" stroke-linecap="round" stroke-linejoin="round"/>
<path d="M427.381 438.162C427.381 438.162 423.239 436.393 421.168 437.874C419.097 439.355 409.621 454.441 411.404 455.043C413.186 455.646 417.315 455.332 417.918 454.152C418.52 452.972 426.201 442.856 426.201 442.856" fill="white"/>
<path d="M427.381 438.162C427.381 438.162 423.239 436.393 421.168 437.874C419.097 439.355 409.621 454.441 411.404 455.043C413.186 455.646 417.315 455.332 417.918 454.152C418.52 452.972 426.201 442.856 426.201 442.856" stroke="#263238" stroke-linecap="round" stroke-linejoin="round"/>
<path d="M430.343 443.195C430.343 443.195 426.503 439.631 424.444 440.886C422.386 442.141 413.788 453.311 415.571 454.491C417.353 455.671 418.533 454.491 420.302 452.132C421.572 450.54 423.069 449.145 424.745 447.99L428.297 449.17" fill="white"/>
<path d="M430.343 443.195C430.343 443.195 426.503 439.631 424.444 440.886C422.386 442.141 413.788 453.311 415.571 454.491C417.353 455.671 418.533 454.491 420.302 452.132C421.572 450.54 423.069 449.145 424.745 447.99L428.297 449.17" stroke="#263238" stroke-linecap="round" stroke-linejoin="round"/>
<path d="M372.559 291.692C372.559 291.692 365.392 293.901 362.355 298.319C359.318 302.737 362.907 336.939 362.907 336.939L385.813 324.25L409.81 339.424C409.81 339.424 407.601 304.394 405.668 299.424C403.736 294.454 391.599 288.668 387.457 289.22C383.315 289.772 372.559 291.692 372.559 291.692Z" fill="#F8B84A" stroke="#263238" stroke-linecap="round" stroke-linejoin="round"/>
<path d="M369.258 272.665V304.394L384.432 345.222L397.397 303.566V272.389L369.258 272.665Z" fill="white" stroke="#263238" stroke-linecap="round" stroke-linejoin="round"/>
<path d="M369.22 284.061C373.503 287.067 378.609 288.675 383.842 288.668C388.624 288.672 393.31 287.323 397.359 284.777V272.389L369.22 272.703V284.061Z" fill="#263238" stroke="#263238" stroke-linecap="round" stroke-linejoin="round"/>
<path d="M383.88 281.488C377.101 281.488 370.6 278.796 365.806 274.005C361.012 269.213 358.317 262.713 358.313 255.935L353.808 219.989C353.808 212 356.981 204.338 362.63 198.689C368.279 193.04 375.941 189.866 383.93 189.866C391.919 189.866 399.581 193.04 405.23 198.689C410.879 204.338 414.052 212 414.052 219.989L409.383 255.884C409.39 259.24 408.736 262.564 407.457 265.667C406.179 268.77 404.303 271.591 401.934 273.968C399.566 276.346 396.753 278.234 393.655 279.524C390.557 280.814 387.236 281.482 383.88 281.488Z" fill="white" stroke="#263238" stroke-linecap="round" stroke-linejoin="round"/>
<path d="M390.444 246.095C390.444 246.095 396.958 240.635 404.74 246.521" stroke="#263238" stroke-linecap="round" stroke-linejoin="round"/>
<path d="M378.671 245.467C376.737 244.235 374.433 243.716 372.157 243.999" stroke="#263238" stroke-linecap="round" stroke-linejoin="round"/>
<path d="M392.967 233.067C392.967 233.067 399.907 229.703 404.112 236.217" stroke="#263238" stroke-linecap="round" stroke-linejoin="round"/>
<path d="M381.771 260.604C381.771 260.604 384.721 262.913 387.244 260.604" stroke="#263238" stroke-linecap="round" stroke-linejoin="round"/>
<path d="M378.885 265.649C378.885 265.649 384.985 269.414 388.549 265.649" stroke="#263238" stroke-linecap="round" stroke-linejoin="round"/>
<path d="M396.732 216.223C396.732 216.223 371.53 239.493 364.501 256.449C357.473 273.405 363.773 291.115 367.652 296.211C371.53 301.306 373.927 302.022 373.927 302.022C373.927 302.022 360.598 307.117 351.875 293.788C343.152 280.459 345.323 265.423 347.997 255.006C350.67 244.588 349.93 214.039 355.992 203.86C362.054 193.682 370.777 186.164 385.323 187.858C399.87 189.552 407.614 197.07 412.22 206.521C416.826 215.972 414.642 231.975 416.098 239.003C417.554 246.032 423.855 267.117 425.311 279.719C426.767 292.32 409.584 301.294 406.873 302.511C405.031 303.286 403.06 303.712 401.062 303.766C401.062 303.766 406.873 274.686 408.091 257.955C409.308 241.225 409.384 231.284 409.384 231.284C409.384 231.284 397.95 216.951 396.732 216.223Z" fill="#263238"/>
<path d="M393.781 199.907C393.781 199.907 390.807 208.103 369.407 231.586C348.008 255.069 342.197 277.472 348.698 299.361" stroke="#707070" stroke-miterlimit="10"/>
<path d="M388.498 191.724C388.498 191.724 376.725 201.476 362.141 216.085C353.177 225.129 345.522 235.382 339.398 246.547" stroke="#707070" stroke-miterlimit="10"/>
<path d="M399.053 201.878C399.053 201.878 407.989 218.119 412.859 227.871C417.729 237.623 423.427 292.433 406.37 311.962" stroke="#707070" stroke-miterlimit="10"/>
<path d="M392.967 188.473L396.732 216.223" stroke="#707070" stroke-miterlimit="10"/>
<path d="M396.732 216.223C396.732 216.223 371.53 239.493 364.501 256.449C357.473 273.405 363.773 291.115 367.652 296.211C371.53 301.306 373.927 302.022 373.927 302.022C373.927 302.022 360.598 307.117 351.875 293.788C343.152 280.459 345.323 265.423 347.997 255.006C350.67 244.588 349.93 214.039 355.992 203.86C362.054 193.682 370.777 186.164 385.323 187.858C399.87 189.552 407.614 197.07 412.22 206.521C416.826 215.972 414.642 231.975 416.098 239.003C417.554 246.032 423.855 267.117 425.311 279.719C426.767 292.32 409.584 301.294 406.873 302.511C405.031 303.286 403.06 303.712 401.062 303.766C401.062 303.766 406.873 274.686 408.091 257.955C409.308 241.225 409.384 231.284 409.384 231.284C409.384 231.284 397.95 216.951 396.732 216.223Z" stroke="#263238" stroke-linecap="round" stroke-linejoin="round"/>
<path d="M351.323 232.464H347.608C345.556 232.464 343.893 234.128 343.893 236.179V251.052C343.893 253.104 345.556 254.767 347.608 254.767H351.323C353.375 254.767 355.038 253.104 355.038 251.052V236.179C355.038 234.128 353.375 232.464 351.323 232.464Z" fill="white" stroke="#263238" stroke-linecap="round" stroke-linejoin="round"/>
<path d="M419.437 232.464H415.722C413.67 232.464 412.007 234.128 412.007 236.179V251.052C412.007 253.104 413.67 254.767 415.722 254.767H419.437C421.489 254.767 423.152 253.104 423.152 251.052V236.179C423.152 234.128 421.489 232.464 419.437 232.464Z" fill="white" stroke="#263238" stroke-linecap="round" stroke-linejoin="round"/>
<path d="M418.545 232.464V220.34C418.545 210.956 414.818 201.957 408.183 195.322C401.547 188.686 392.548 184.959 383.164 184.959C373.779 184.959 364.779 188.686 358.142 195.321C351.504 201.956 347.774 210.955 347.771 220.34V232.464" stroke="#263238" stroke-width="2" stroke-linejoin="round"/>
<path d="M417.579 254.654C417.579 254.654 416.01 266.791 401.162 271.736" stroke="#263238" stroke-linecap="round" stroke-linejoin="round"/>
<path d="M400.597 271.209C401.225 273.029 399.455 275.288 396.631 276.229C393.807 277.171 391.034 276.531 390.356 274.711C389.678 272.891 391.498 270.632 394.309 269.69C397.121 268.749 400.008 269.389 400.597 271.209Z" stroke="#263238" stroke-linecap="round" stroke-linejoin="round"/>
<path d="M146.566 286.86L94.7051 311.573L109.666 458.131H213.048L227.67 309.138L178.935 286.509L146.566 286.86Z" fill="#F8B84A" stroke="#263238" stroke-linecap="round" stroke-linejoin="round"/>
<path d="M167.351 331.579C168.321 331.579 169.108 330.792 169.108 329.822C169.108 328.851 168.321 328.065 167.351 328.065C166.38 328.065 165.594 328.851 165.594 329.822C165.594 330.792 166.38 331.579 167.351 331.579Z" fill="#263238"/>
<path d="M169.108 340.365C169.108 340.712 169.005 341.052 168.812 341.341C168.619 341.63 168.344 341.855 168.023 341.988C167.702 342.121 167.349 342.156 167.008 342.088C166.667 342.02 166.354 341.853 166.108 341.607C165.863 341.362 165.695 341.048 165.628 340.708C165.56 340.367 165.595 340.013 165.728 339.692C165.86 339.371 166.086 339.097 166.375 338.904C166.664 338.711 167.003 338.608 167.351 338.608C167.817 338.608 168.264 338.793 168.593 339.122C168.923 339.452 169.108 339.899 169.108 340.365Z" fill="#263238"/>
<path d="M185.336 294.34L171.166 310.142L165.116 325.492L158.602 309.916L144.896 294.34V266.678H185.336V294.34Z" fill="white" stroke="#263238" stroke-linecap="round" stroke-linejoin="round"/>
<path d="M144.896 278.978C147.564 282.22 150.918 284.831 154.716 286.622C158.514 288.412 162.662 289.338 166.861 289.332C173.638 289.341 180.193 286.918 185.336 282.505V266.678H144.896V278.978Z" fill="#263238" stroke="#263238" stroke-linecap="round" stroke-linejoin="round"/>
<path d="M169.71 189.263H164.012C149.857 189.263 138.383 200.738 138.383 214.893V255.922C138.383 270.076 149.857 281.551 164.012 281.551H169.71C183.865 281.551 195.339 270.076 195.339 255.922V214.893C195.339 200.738 183.865 189.263 169.71 189.263Z" fill="white" stroke="#263238" stroke-linecap="round" stroke-linejoin="round"/>
<path d="M172.32 230.18L171.479 250.349C171.463 251.223 171.178 252.071 170.664 252.778C170.15 253.485 169.431 254.017 168.605 254.303C167.086 254.767 165.354 254.303 164.413 250.876" stroke="#263238" stroke-linecap="round" stroke-linejoin="round"/>
<path d="M155.854 258.306H178.445C178.445 258.306 174.492 266.916 166.823 266.916C159.154 266.916 155.854 258.306 155.854 258.306Z" fill="#263238" stroke="#263238" stroke-linecap="round" stroke-linejoin="round"/>
<path d="M157.46 261.331H176.487C177.211 260.386 177.841 259.373 178.37 258.306H155.854C156.282 259.368 156.821 260.382 157.46 261.331Z" fill="white" stroke="#263238" stroke-linecap="round" stroke-linejoin="round"/>
<path d="M155.591 239.254C156.492 239.254 157.222 237.534 157.222 235.413C157.222 233.292 156.492 231.573 155.591 231.573C154.689 231.573 153.959 233.292 153.959 235.413C153.959 237.534 154.689 239.254 155.591 239.254Z" fill="#263238"/>
<path d="M179.989 239.254C180.89 239.254 181.621 237.534 181.621 235.413C181.621 233.292 180.89 231.573 179.989 231.573C179.088 231.573 178.357 233.292 178.357 235.413C178.357 237.534 179.088 239.254 179.989 239.254Z" fill="#263238"/>
<path d="M174.881 225.297C174.881 225.297 180.453 221.808 186.742 227.393" stroke="#263238" stroke-linecap="round" stroke-linejoin="round"/>
<path d="M166.861 189.263C159.308 189.263 152.065 192.264 146.724 197.604C141.383 202.945 138.383 210.189 138.383 217.742V243.684H138.621H140.943V232.991C140.943 232.991 152.565 232.991 166.284 225.561C180.002 218.131 183.466 206.006 183.466 206.006C183.466 206.006 186.491 220.653 189.741 223.44L193.005 226.226V243.898H195.327V217.742C195.327 210.191 192.328 202.949 186.99 197.609C181.652 192.269 174.412 189.267 166.861 189.263Z" fill="#263238" stroke="#263238" stroke-linecap="round" stroke-linejoin="round"/>
<path d="M133.049 229.954H138.383V251.102H133.049C131.69 251.102 130.388 250.563 129.428 249.602C128.467 248.642 127.928 247.34 127.928 245.981V235.05C127.934 233.696 128.477 232.4 129.436 231.445C130.396 230.49 131.695 229.954 133.049 229.954Z" fill="white" stroke="#263238" stroke-linecap="round" stroke-linejoin="round"/>
<path d="M200.334 251.102H195V229.954H200.334C201.007 229.954 201.673 230.086 202.294 230.344C202.915 230.601 203.48 230.978 203.955 231.454C204.431 231.929 204.808 232.494 205.065 233.115C205.323 233.736 205.455 234.402 205.455 235.075V246.007C205.448 247.36 204.906 248.656 203.946 249.611C202.987 250.566 201.688 251.102 200.334 251.102Z" fill="white" stroke="#263238" stroke-linecap="round" stroke-linejoin="round"/>
<path d="M133.739 229.954V216.461C133.739 207.707 137.217 199.311 143.407 193.121C149.598 186.93 157.994 183.452 166.748 183.452V183.452C175.502 183.456 183.896 186.935 190.086 193.124C196.275 199.314 199.754 207.708 199.757 216.461V229.954" stroke="#263238" stroke-width="2" stroke-linejoin="round"/>
<path d="M199.782 251.102C199.782 251.102 198.151 263.653 182.813 268.774" stroke="#263238" stroke-linecap="round" stroke-linejoin="round"/>
<path d="M182.211 268.222C182.864 270.104 181.031 272.439 178.119 273.456C175.207 274.472 172.321 273.757 171.668 271.874C171.015 269.992 172.848 267.657 175.76 266.64C178.672 265.624 181.596 266.339 182.211 268.222Z" stroke="#263238" stroke-linecap="round" stroke-linejoin="round"/>
<path d="M94.7055 311.573L50.8398 404.387L68.9384 420.176L101.659 379.11L94.7055 311.573Z" fill="#F8B84A" stroke="#263238" stroke-linecap="round" stroke-linejoin="round"/>
<path d="M91.103 340.026L101.759 375.972L89.1074 355.325" stroke="#263238" stroke-miterlimit="10"/>
<path d="M227.671 309.138L269.441 402.429L243.686 413.575L220.705 376.675L227.671 309.138Z" fill="#F8B84A" stroke="#263238" stroke-linecap="round" stroke-linejoin="round"/>
<path d="M74.5109 402.078L112.101 437.233L101.659 449.42L47.0117 415.52L53.2872 398.815" fill="#F8B84A"/>
<path d="M74.5109 402.078L112.101 437.233L101.659 449.42L47.0117 415.52L53.2872 398.815" stroke="#263238" stroke-linecap="round" stroke-linejoin="round"/>
<path d="M105.838 435.15C107.369 434.321 132.985 428.184 133.337 431.322C133.688 434.459 141.344 437.936 144.821 437.936C148.298 437.936 151.787 435.15 152.477 439.329C153.167 443.509 149.352 443.848 146.202 444.199C143.051 444.55 132.283 441.061 132.283 441.061C132.283 441.061 122.242 449.42 118.012 451.516C113.782 453.612 106.177 452.897 103.39 450.813C100.604 448.73 96.7884 440.019 105.838 435.15Z" fill="white" stroke="#263238" stroke-linecap="round" stroke-linejoin="round"/>
<path d="M129.497 430.97C129.497 430.97 139.249 428.184 141.333 429.238C143.416 430.293 144.47 451.165 144.47 451.165C144.47 451.165 143.416 453.248 141.333 451.165C139.249 449.081 132.296 433.355 132.296 433.355" fill="white"/>
<path d="M129.497 430.97C129.497 430.97 139.249 428.184 141.333 429.238C143.416 430.293 144.47 451.165 144.47 451.165C144.47 451.165 143.416 453.248 141.333 451.165C139.249 449.081 132.296 433.355 132.296 433.355" stroke="#263238" stroke-linecap="round" stroke-linejoin="round"/>
<path d="M124.639 431.673C124.639 431.673 134.68 429.238 136.814 433.066C138.947 436.894 144.131 453.951 139.951 454.641C135.772 455.332 134.379 449.772 134.379 449.772L127.764 437.585L123.246 436.894" fill="white"/>
<path d="M124.639 431.673C124.639 431.673 134.68 429.238 136.814 433.066C138.947 436.894 144.131 453.951 139.951 454.641C135.772 455.332 134.379 449.772 134.379 449.772L127.764 437.585L123.246 436.894" stroke="#263238" stroke-linecap="round" stroke-linejoin="round"/>
<path d="M121.15 434.798C121.15 434.798 126.033 432.715 128.468 434.46C130.902 436.204 142.048 453.951 139.952 454.692C137.856 455.432 132.986 455.043 132.296 453.65C131.605 452.257 122.544 440.421 122.544 440.421" fill="white"/>
<path d="M121.15 434.798C121.15 434.798 126.033 432.715 128.468 434.46C130.902 436.204 142.048 453.951 139.952 454.692C137.856 455.432 132.986 455.043 132.296 453.65C131.605 452.257 122.544 440.421 122.544 440.421" stroke="#263238" stroke-linecap="round" stroke-linejoin="round"/>
<path d="M117.674 440.722C117.674 440.722 122.205 436.543 124.64 437.936C127.075 439.329 137.191 452.558 135.082 453.951C132.973 455.344 131.593 453.951 129.509 451.165C128.018 449.29 126.259 447.645 124.288 446.283L120.109 447.676" fill="white"/>
<path d="M117.674 440.722C117.674 440.722 122.205 436.543 124.64 437.936C127.075 439.329 137.191 452.558 135.082 453.951C132.973 455.344 131.593 453.951 129.509 451.165C128.018 449.29 126.259 447.645 124.288 446.283L120.109 447.676" stroke="#263238" stroke-linecap="round" stroke-linejoin="round"/>
<path d="M237.373 393.192L215.333 439.706L229.516 447.199L271.197 403.032L259.236 389.791" fill="#F8B84A"/>
<path d="M237.373 393.192L215.333 439.706L229.516 447.199L271.197 403.032L259.236 389.791" stroke="#263238" stroke-linecap="round" stroke-linejoin="round"/>
<path d="M226.365 435.15C224.834 434.321 199.205 428.184 198.866 431.322C198.527 434.459 190.858 437.936 187.369 437.936C183.88 437.936 180.416 435.15 179.713 439.329C179.01 443.509 182.851 443.848 185.989 444.199C189.126 444.55 199.908 441.061 199.908 441.061C199.908 441.061 209.948 449.42 214.178 451.516C218.408 453.612 226.014 452.897 228.8 450.813C231.586 448.73 235.414 440.019 226.365 435.15Z" fill="white" stroke="#263238" stroke-linecap="round" stroke-linejoin="round"/>
<path d="M202.694 430.97C202.694 430.97 192.942 428.184 190.858 429.238C188.775 430.293 187.721 451.165 187.721 451.165C187.721 451.165 188.762 453.248 190.858 451.165C192.954 449.081 199.908 433.355 199.908 433.355" fill="white"/>
<path d="M202.694 430.97C202.694 430.97 192.942 428.184 190.858 429.238C188.775 430.293 187.721 451.165 187.721 451.165C187.721 451.165 188.762 453.248 190.858 451.165C192.954 449.081 199.908 433.355 199.908 433.355" stroke="#263238" stroke-linecap="round" stroke-linejoin="round"/>
<path d="M207.564 431.673C207.564 431.673 197.523 429.238 195.377 433.066C193.23 436.894 188.072 453.951 192.251 454.692C196.431 455.432 197.812 449.822 197.812 449.822L204.426 437.635L208.957 436.945" fill="white"/>
<path d="M207.564 431.673C207.564 431.673 197.523 429.238 195.377 433.066C193.23 436.894 188.072 453.951 192.251 454.692C196.431 455.432 197.812 449.822 197.812 449.822L204.426 437.635L208.957 436.945" stroke="#263238" stroke-linecap="round" stroke-linejoin="round"/>
<path d="M211.078 434.798C211.078 434.798 206.208 432.715 203.773 434.46C201.338 436.204 190.155 453.951 192.251 454.692C194.347 455.432 199.205 455.043 199.908 453.65C200.61 452.257 209.647 440.421 209.647 440.421" fill="white"/>
<path d="M211.078 434.798C211.078 434.798 206.208 432.715 203.773 434.46C201.338 436.204 190.155 453.951 192.251 454.692C194.347 455.432 199.205 455.043 199.908 453.65C200.61 452.257 209.647 440.421 209.647 440.421" stroke="#263238" stroke-linecap="round" stroke-linejoin="round"/>
<path d="M214.529 440.722C214.529 440.722 209.998 436.543 207.564 437.936C205.129 439.329 195.013 452.558 197.121 453.951C199.23 455.344 200.598 453.951 202.694 451.165C204.185 449.29 205.944 447.645 207.915 446.283L212.094 447.676" fill="white"/>
<path d="M214.529 440.722C214.529 440.722 209.998 436.543 207.564 437.936C205.129 439.329 195.013 452.558 197.121 453.951C199.23 455.344 200.598 453.951 202.694 451.165C204.185 449.29 205.944 447.645 207.915 446.283L212.094 447.676" stroke="#263238" stroke-linecap="round" stroke-linejoin="round"/>
<path d="M292.233 136.16H210.652C206.869 136.16 203.241 137.662 200.565 140.336C197.889 143.009 196.384 146.636 196.381 150.418V174.265C196.371 176.143 196.732 178.005 197.443 179.744C198.154 181.482 199.202 183.063 200.525 184.396C201.849 185.729 203.422 186.787 205.156 187.51C206.889 188.234 208.748 188.608 210.626 188.611H220.667L206.974 206.521L237.762 188.611H292.233C294.107 188.606 295.962 188.232 297.691 187.51C299.421 186.789 300.991 185.733 302.313 184.405C303.634 183.076 304.681 181.5 305.394 179.767C306.106 178.033 306.471 176.177 306.466 174.303V150.456C306.472 146.673 304.977 143.043 302.308 140.362C299.639 137.682 296.016 136.17 292.233 136.16Z" fill="white" stroke="#263238" stroke-miterlimit="10"/>
<path d="M240.234 164.024C240.237 164.682 240.044 165.326 239.68 165.875C239.316 166.424 238.797 166.852 238.19 167.105C237.582 167.359 236.913 167.427 236.267 167.3C235.621 167.173 235.027 166.857 234.561 166.393C234.094 165.928 233.776 165.335 233.647 164.69C233.518 164.044 233.583 163.375 233.834 162.766C234.085 162.158 234.512 161.638 235.059 161.272C235.606 160.906 236.25 160.71 236.908 160.71C237.788 160.71 238.632 161.059 239.255 161.68C239.879 162.301 240.231 163.144 240.234 164.024Z" fill="#263238"/>
<path d="M254.743 164.023C254.745 164.682 254.552 165.327 254.188 165.876C253.823 166.425 253.304 166.853 252.695 167.106C252.087 167.36 251.417 167.427 250.771 167.299C250.125 167.171 249.531 166.854 249.065 166.388C248.599 165.922 248.282 165.328 248.154 164.682C248.026 164.035 248.093 163.366 248.346 162.757C248.6 162.149 249.028 161.63 249.577 161.265C250.126 160.901 250.77 160.708 251.429 160.71C252.308 160.71 253.151 161.059 253.772 161.68C254.394 162.302 254.743 163.145 254.743 164.023Z" fill="#263238"/>
<path d="M269.252 164.024C269.252 164.679 269.058 165.32 268.693 165.865C268.329 166.409 267.812 166.834 267.206 167.085C266.601 167.336 265.935 167.401 265.292 167.273C264.649 167.146 264.059 166.83 263.595 166.367C263.132 165.903 262.817 165.313 262.689 164.67C262.561 164.027 262.626 163.361 262.877 162.756C263.128 162.15 263.553 161.633 264.098 161.269C264.643 160.905 265.283 160.71 265.938 160.71C266.817 160.71 267.66 161.059 268.281 161.681C268.903 162.302 269.252 163.145 269.252 164.024Z" fill="#263238"/>
<path d="M458.898 454.353H306.855V460.49H458.898V454.353Z" fill="white" stroke="#263238" stroke-linecap="round" stroke-linejoin="round"/>
<path d="M482.255 454.353H349.729V460.49H482.255V454.353Z" fill="white" stroke="#263238" stroke-linecap="round" stroke-linejoin="round"/>
<path d="M484.829 443.446H358.039L371.707 346.64H498.497L484.829 443.446Z" fill="white" stroke="#263238" stroke-linecap="round" stroke-linejoin="round"/>
<path d="M490.074 443.446H363.284L376.952 346.64H503.742L490.074 443.446Z" fill="#263238" stroke="#263238" stroke-linecap="round" stroke-linejoin="round"/>
<path d="M451.217 398.451L463.943 460.478H431.223L418.509 398.451H451.217ZM429.027 416.863C429.089 417.115 429.234 417.339 429.439 417.498C429.644 417.658 429.896 417.743 430.156 417.742L448.694 417.566C448.868 417.563 449.039 417.522 449.194 417.444C449.349 417.366 449.485 417.254 449.591 417.117C449.697 416.979 449.771 416.82 449.807 416.65C449.843 416.48 449.84 416.304 449.798 416.135L448.129 409.182C448.067 408.928 447.923 408.703 447.718 408.541C447.513 408.38 447.26 408.292 447 408.291L428.462 408.466C428.288 408.469 428.117 408.511 427.961 408.589C427.805 408.666 427.669 408.778 427.562 408.915C427.455 409.052 427.38 409.212 427.342 409.382C427.304 409.551 427.305 409.728 427.345 409.897L429.027 416.863Z" fill="white" stroke="#263238" stroke-linecap="round" stroke-linejoin="round"/>
<path d="M234.009 454.353H81.9668V460.49H234.009V454.353Z" fill="white" stroke="#263238" stroke-linecap="round" stroke-linejoin="round"/>
<path d="M257.367 454.353H124.841V460.49H257.367V454.353Z" fill="white" stroke="#263238" stroke-linecap="round" stroke-linejoin="round"/>
<path d="M259.94 443.446H133.15L146.818 346.64H273.608L259.94 443.446Z" fill="white" stroke="#263238" stroke-linecap="round" stroke-linejoin="round"/>
<path d="M265.186 443.446H138.396L152.064 346.64H278.854L265.186 443.446Z" fill="#263238" stroke="#263238" stroke-linecap="round" stroke-linejoin="round"/>
<path d="M226.341 398.451L239.055 460.478H206.334L193.62 398.451H226.341ZM204.138 416.863C204.202 417.114 204.348 417.337 204.552 417.496C204.757 417.655 205.008 417.741 205.267 417.742L223.805 417.566C223.979 417.563 224.15 417.521 224.306 417.443C224.462 417.366 224.598 417.254 224.705 417.117C224.812 416.98 224.887 416.821 224.925 416.651C224.963 416.481 224.962 416.305 224.922 416.135L223.24 409.182C223.181 408.927 223.037 408.701 222.831 408.539C222.626 408.377 222.372 408.289 222.111 408.291L203.573 408.466C203.399 408.469 203.228 408.511 203.073 408.588C202.918 408.666 202.782 408.778 202.676 408.915C202.57 409.053 202.496 409.213 202.46 409.383C202.424 409.553 202.427 409.728 202.469 409.897L204.138 416.863Z" fill="white" stroke="#263238" stroke-linecap="round" stroke-linejoin="round"/>
<path d="M544.621 460.478H3.77441V466.552H544.621V460.478Z" fill="#263238" stroke="#263238" stroke-linecap="round" stroke-linejoin="round"/>
</svg>
