<svg width="16" height="16" viewBox="0 0 16 16" fill="none" xmlns="http://www.w3.org/2000/svg">
<path d="M13 3H3C2.60231 3.00045 2.22105 3.15864 1.93984 3.43984C1.65864 3.72105 1.50045 4.10231 1.5 4.5V11.5C1.50045 11.8977 1.65864 12.279 1.93984 12.5602C2.22105 12.8414 2.60231 12.9995 3 13H13C13.3977 12.9995 13.779 12.8414 14.0602 12.5602C14.3414 12.279 14.4995 11.8977 14.5 11.5V4.5C14.4995 4.10231 14.3414 3.72105 14.0602 3.43984C13.779 3.15864 13.3977 3.00045 13 3ZM9.47003 7.80048C9.40068 8.13915 9.21652 8.44349 8.94867 8.66205C8.68083 8.88062 8.34573 8.99999 8.00003 9C7.65432 9 7.31922 8.88064 7.05137 8.6621C6.78351 8.44355 6.59933 8.13921 6.52997 7.80054C6.48357 7.57488 6.36086 7.3721 6.18249 7.2263C6.00412 7.0805 5.78097 7.00058 5.5506 7H2.5V6H13.5V7H10.4494C10.219 7.00058 9.9959 7.08049 9.81753 7.22628C9.63916 7.37206 9.51645 7.57483 9.47003 7.80048ZM3 4H13C13.1326 4.00015 13.2597 4.05288 13.3534 4.14661C13.4471 4.24035 13.4998 4.36744 13.5 4.5V5H2.5V4.5C2.50015 4.36744 2.55288 4.24035 2.64661 4.14661C2.74035 4.05288 2.86744 4.00015 3 4Z" fill="white"/>
</svg>
