<svg width="231" height="231" viewBox="0 0 231 231" fill="none" xmlns="http://www.w3.org/2000/svg">
<circle opacity="0.1" cx="118.509" cy="112.509" r="89.4753" fill="#B6B6B6"/>
<path d="M55.7434 35.6153C54.0313 33.4487 54.3933 30.2939 56.6383 28.6859C67.7087 20.7567 80.2169 15.0254 93.484 11.8222C106.751 8.61901 120.497 8.01177 133.965 10.0163C136.697 10.4228 138.458 13.0649 137.923 15.774L121.183 100.569C120.713 102.949 118.332 104.401 115.974 104.971V104.971V104.971C113.615 105.54 110.834 105.335 109.329 103.431L55.7434 35.6153Z" fill="#B5179E"/>
<g filter="url(#filter0_d_5_31)">
<path d="M25.4823 58.515C23.2039 56.9549 22.6122 53.8351 24.2771 51.632C32.5277 40.7142 42.7968 31.4799 54.5263 24.4308C56.8932 23.0084 59.9328 23.9268 61.2432 26.3575L103.609 104.95C104.25 106.139 103.779 107.603 102.775 108.506V108.506C101.771 109.409 100.265 109.722 99.1512 108.959L25.4823 58.515Z" fill="#FFC300"/>
</g>
<path d="M10.7414 131.346C8.05544 131.988 5.34603 130.331 4.8296 127.619C0.118649 102.873 4.20936 77.2498 16.3909 55.2011C17.7263 52.784 20.8167 52.0537 23.1695 53.4994L106.056 104.433C106.814 104.899 107.013 105.899 106.873 106.778V106.778C106.733 107.657 106.232 108.545 105.367 108.752L10.7414 131.346Z" fill="#007965"/>
<path d="M116.248 216.531C116.409 219.288 114.303 221.665 111.542 221.699C86.0012 222.012 61.0983 213.341 41.237 197.112C21.3758 180.883 7.91596 158.207 3.13398 133.116C2.617 130.404 4.52667 127.867 7.26011 127.475L89.0006 115.749C91.7341 115.357 94.2031 117.315 95.3967 119.805C96.4304 121.962 97.9317 123.885 99.8149 125.424C101.698 126.963 103.882 128.05 106.202 128.634C108.88 129.307 111.29 131.336 111.451 134.093L116.248 216.531Z" fill="#00B597"/>
<path d="M43.8078 200.095C42.0546 202.228 42.3565 205.389 44.5674 207.044C63.5847 221.275 86.7418 228.996 110.584 228.971C134.426 228.947 157.567 221.179 176.555 206.909C178.763 205.25 179.058 202.088 177.3 199.958L114.336 123.655C112.333 121.228 108.614 121.232 106.616 123.663L43.8078 200.095Z" fill="#03045E"/>
<path d="M175.182 205.376C176.678 207.697 179.78 208.376 182.031 206.777C201.985 192.61 216.741 172.211 223.922 148.719C231.103 125.226 230.275 100.063 221.652 77.161C220.679 74.5766 217.729 73.405 215.191 74.4933L123.207 113.939C120.363 115.158 119.298 118.641 120.974 121.242L175.182 205.376Z" fill="#0077B6"/>
<path d="M219.183 75.8665C221.777 74.922 223.126 72.0475 222.067 69.4973C213.233 48.2286 198.045 30.1538 178.522 17.7851C159 5.41641 136.169 -0.596416 113.166 0.501343C110.407 0.63297 108.384 3.07998 108.639 5.82966L117.912 106.054C118.214 109.317 121.521 111.412 124.601 110.292L219.183 75.8665Z" fill="#00B4D8"/>
<g filter="url(#filter1_d_5_31)">
<circle cx="113.411" cy="115.911" r="63.9109" fill="white"/>
</g>
<defs>
<filter id="filter0_d_5_31" x="16.325" y="2.7572" width="124.577" height="129.632" filterUnits="userSpaceOnUse" color-interpolation-filters="sRGB">
<feFlood flood-opacity="0" result="BackgroundImageFix"/>
<feColorMatrix in="SourceAlpha" type="matrix" values="0 0 0 0 0 0 0 0 0 0 0 0 0 0 0 0 0 0 127 0" result="hardAlpha"/>
<feOffset dx="15" dy="1"/>
<feGaussianBlur stdDeviation="11"/>
<feComposite in2="hardAlpha" operator="out"/>
<feColorMatrix type="matrix" values="0 0 0 0 0 0 0 0 0 0 0 0 0 0 0 0 0 0 0.15 0"/>
<feBlend mode="normal" in2="BackgroundImageFix" result="effect1_dropShadow_5_31"/>
<feBlend mode="normal" in="SourceGraphic" in2="effect1_dropShadow_5_31" result="shape"/>
</filter>
<filter id="filter1_d_5_31" x="36.5" y="39" width="153.822" height="153.822" filterUnits="userSpaceOnUse" color-interpolation-filters="sRGB">
<feFlood flood-opacity="0" result="BackgroundImageFix"/>
<feColorMatrix in="SourceAlpha" type="matrix" values="0 0 0 0 0 0 0 0 0 0 0 0 0 0 0 0 0 0 127 0" result="hardAlpha"/>
<feMorphology radius="1" operator="dilate" in="SourceAlpha" result="effect1_dropShadow_5_31"/>
<feOffset/>
<feGaussianBlur stdDeviation="6"/>
<feComposite in2="hardAlpha" operator="out"/>
<feColorMatrix type="matrix" values="0 0 0 0 0 0 0 0 0 0 0 0 0 0 0 0 0 0 0.08 0"/>
<feBlend mode="normal" in2="BackgroundImageFix" result="effect1_dropShadow_5_31"/>
<feBlend mode="normal" in="SourceGraphic" in2="effect1_dropShadow_5_31" result="shape"/>
</filter>
</defs>
</svg>
