<svg width="288" height="287" viewBox="0 0 288 287" fill="none" xmlns="http://www.w3.org/2000/svg">
<circle opacity="0.1" cx="144.009" cy="143.509" r="89.4753" fill="#B6B6B6"/>
<path d="M112.312 72.0677C111.168 69.5545 112.274 66.5769 114.842 65.562C126.468 60.9677 138.879 58.6281 151.411 58.6858C163.942 58.7434 176.331 61.1972 187.915 65.8984C190.474 66.9368 191.552 69.9245 190.385 72.4271L156.668 144.717C155.717 146.756 153.251 147.535 151.002 147.524V147.524V147.524C148.752 147.514 146.294 146.712 145.362 144.665L112.312 72.0677Z" fill="#B5179E"/>
<g filter="url(#filter0_d_3_2)">
<path d="M84.3907 80.646C82.4791 78.6532 82.5369 75.4775 84.6243 73.6697C92.3866 66.9475 101.155 61.4832 110.609 57.4761C113.152 56.3985 116.028 57.7457 116.975 60.3397L145.053 137.259C145.423 138.274 144.886 139.38 143.969 139.952V139.952C143.053 140.523 141.822 140.518 141.075 139.739L84.3907 80.646Z" fill="#FFC300"/>
</g>
<path d="M60.2359 157.62C57.5499 158.261 54.8394 156.605 54.3355 153.89C51.6407 139.371 52.2492 124.408 56.1431 110.119C60.0369 95.8304 67.1039 82.6277 76.7924 71.483C78.6041 69.399 81.78 69.3472 83.7692 71.2626L146.923 132.072C147.666 132.788 147.627 133.98 147.356 134.976V134.976V134.976C147.085 135.972 146.513 137.019 145.509 137.259L60.2359 157.62Z" fill="#007965"/>
<path d="M147.69 229.388C147.851 232.145 145.745 234.523 142.983 234.543C120.129 234.709 97.8686 226.899 80.0897 212.371C62.3107 197.844 50.2211 177.586 45.8298 155.157C45.2993 152.447 47.2102 149.909 49.9436 149.517L127.984 138.322C130.718 137.93 133.172 139.989 134.892 142.149C135.307 142.67 135.779 143.15 136.302 143.577C136.826 144.005 137.39 144.372 137.983 144.675C140.443 145.93 142.949 147.925 143.11 150.682L147.69 229.388Z" fill="#00B597"/>
<path d="M84.7825 215.56C83.0293 217.694 83.3306 220.856 85.5505 222.498C102.459 235.009 122.979 241.792 144.101 241.77C165.223 241.748 185.729 234.924 202.612 222.378C204.828 220.731 205.123 217.569 203.366 215.439L147.865 148.18C145.862 145.754 142.143 145.757 140.145 148.188L84.7825 215.56Z" fill="#03045E"/>
<path d="M198.191 227.603C199.687 229.924 202.789 230.603 205.037 228.999C223.81 215.598 237.693 196.355 244.463 174.208C251.233 152.061 250.482 128.345 242.409 106.738C241.443 104.151 238.491 102.98 235.953 104.068L149.438 141.168C146.595 142.388 145.53 145.871 147.206 148.472L198.191 227.603Z" fill="#0077B6"/>
<path d="M244.683 106.867C247.278 105.922 248.626 103.048 247.567 100.498C238.734 79.2291 223.545 61.1543 204.023 48.7855C184.5 36.4168 161.67 30.404 138.666 31.5018C135.908 31.6334 133.884 34.0804 134.139 36.8301L143.412 137.054C143.714 140.317 147.021 142.413 150.101 141.292L244.683 106.867Z" fill="#00B4D8"/>
<g filter="url(#filter1_d_3_2)">
<circle cx="144.009" cy="143.509" r="63.9109" fill="white"/>
</g>
<defs>
<filter id="filter0_d_3_2" x="76.0059" y="36.1029" width="106.165" height="127.252" filterUnits="userSpaceOnUse" color-interpolation-filters="sRGB">
<feFlood flood-opacity="0" result="BackgroundImageFix"/>
<feColorMatrix in="SourceAlpha" type="matrix" values="0 0 0 0 0 0 0 0 0 0 0 0 0 0 0 0 0 0 127 0" result="hardAlpha"/>
<feOffset dx="15" dy="1"/>
<feGaussianBlur stdDeviation="11"/>
<feComposite in2="hardAlpha" operator="out"/>
<feColorMatrix type="matrix" values="0 0 0 0 0 0 0 0 0 0 0 0 0 0 0 0 0 0 0.15 0"/>
<feBlend mode="normal" in2="BackgroundImageFix" result="effect1_dropShadow_3_2"/>
<feBlend mode="normal" in="SourceGraphic" in2="effect1_dropShadow_3_2" result="shape"/>
</filter>
<filter id="filter1_d_3_2" x="67.0982" y="66.5981" width="153.822" height="153.822" filterUnits="userSpaceOnUse" color-interpolation-filters="sRGB">
<feFlood flood-opacity="0" result="BackgroundImageFix"/>
<feColorMatrix in="SourceAlpha" type="matrix" values="0 0 0 0 0 0 0 0 0 0 0 0 0 0 0 0 0 0 127 0" result="hardAlpha"/>
<feMorphology radius="1" operator="dilate" in="SourceAlpha" result="effect1_dropShadow_3_2"/>
<feOffset/>
<feGaussianBlur stdDeviation="6"/>
<feComposite in2="hardAlpha" operator="out"/>
<feColorMatrix type="matrix" values="0 0 0 0 0 0 0 0 0 0 0 0 0 0 0 0 0 0 0.08 0"/>
<feBlend mode="normal" in2="BackgroundImageFix" result="effect1_dropShadow_3_2"/>
<feBlend mode="normal" in="SourceGraphic" in2="effect1_dropShadow_3_2" result="shape"/>
</filter>
</defs>
</svg>
