<svg width="34" height="34" viewBox="0 0 34 34" fill="none" xmlns="http://www.w3.org/2000/svg">
<path fill-rule="evenodd" clip-rule="evenodd" d="M19.5769 17L26.4828 23.906C26.7646 24.1877 26.9291 24.4559 27.0138 24.7351C27.0984 25.0143 27.0984 25.2998 27.0138 25.579C26.9291 25.8582 26.7646 26.1264 26.4828 26.4081L26.4091 26.4818C26.1273 26.7636 25.8591 26.9282 25.5799 27.0128C25.3008 27.0974 25.0152 27.0974 24.7361 27.0128C24.4569 26.9282 24.1887 26.7636 23.9069 26.4818L17.001 19.5759L10.0951 26.4818C9.81337 26.7636 9.54516 26.9282 9.26598 27.0128C8.9868 27.0974 8.70128 27.0974 8.42209 27.0128C8.14291 26.9282 7.8747 26.7636 7.59297 26.4818L7.51922 26.4081C7.23748 26.1264 7.07289 25.8582 6.98827 25.579C6.90365 25.2998 6.90365 25.0143 6.98827 24.7351C7.07289 24.4559 7.23748 24.1877 7.51922 23.906L14.4251 17L7.51922 10.0941C7.23748 9.8124 7.07289 9.54419 6.98827 9.265C6.90365 8.98582 6.90365 8.7003 6.98827 8.42112C7.07289 8.14193 7.23748 7.87373 7.51922 7.59199L7.59297 7.51824C7.8747 7.23651 8.14291 7.07191 8.42209 6.98729C8.70128 6.90267 8.9868 6.90267 9.26598 6.98729C9.54516 7.07191 9.81337 7.23651 10.0951 7.51824L17.001 14.4242L23.9069 7.51824C24.1887 7.23651 24.4569 7.07191 24.7361 6.98729C25.0152 6.90267 25.3008 6.90267 25.5799 6.98729C25.8591 7.07191 26.1273 7.23651 26.4091 7.51824L26.4828 7.59199C26.7646 7.87373 26.9291 8.14193 27.0138 8.42112C27.0984 8.7003 27.0984 8.98582 27.0138 9.265C26.9291 9.54419 26.7646 9.8124 26.4828 10.0941L19.5769 17Z" fill="white"/>
</svg>
