<svg width="24" height="24" viewBox="0 0 24 24" fill="none" xmlns="http://www.w3.org/2000/svg">
<rect width="24" height="24" rx="12" fill="#121F3E"/>
<path fill-rule="evenodd" clip-rule="evenodd" d="M13.5147 12.0001L17.577 16.0624C17.7427 16.2281 17.8395 16.3859 17.8893 16.5501C17.9391 16.7143 17.9391 16.8823 17.8893 17.0465C17.8395 17.2107 17.7427 17.3685 17.577 17.5342L17.5336 17.5776C17.3679 17.7433 17.2101 17.8401 17.0459 17.8899C16.8816 17.9397 16.7137 17.9397 16.5495 17.8899C16.3852 17.8401 16.2275 17.7433 16.0617 17.5776L11.9994 13.5153L7.93715 17.5776C7.77142 17.7433 7.61365 17.8401 7.44943 17.8899C7.2852 17.9397 7.11725 17.9397 6.95302 17.8899C6.7888 17.8401 6.63103 17.7433 6.4653 17.5776L6.42192 17.5342C6.25619 17.3685 6.15937 17.2107 6.1096 17.0465C6.05982 16.8823 6.05982 16.7143 6.1096 16.5501C6.15937 16.3859 6.25619 16.2281 6.42192 16.0624L10.4842 12.0001L6.42192 7.93776C6.25619 7.77203 6.15937 7.61426 6.1096 7.45004C6.05982 7.28581 6.05982 7.11786 6.1096 6.95363C6.15937 6.78941 6.25619 6.63164 6.42192 6.46591L6.4653 6.42253C6.63103 6.2568 6.7888 6.15998 6.95302 6.11021C7.11725 6.06043 7.2852 6.06043 7.44943 6.11021C7.61365 6.15998 7.77142 6.2568 7.93715 6.42253L11.9994 10.4848L16.0617 6.42253C16.2275 6.2568 16.3852 6.15998 16.5495 6.11021C16.7137 6.06043 16.8816 6.06043 17.0459 6.11021C17.2101 6.15998 17.3679 6.2568 17.5336 6.42253L17.577 6.46591C17.7427 6.63164 17.8395 6.78941 17.8893 6.95363C17.9391 7.11786 17.9391 7.28581 17.8893 7.45004C17.8395 7.61426 17.7427 7.77203 17.577 7.93776L13.5147 12.0001Z" fill="white"/>
</svg>
