<svg width="109" height="99" viewBox="0 0 109 99" fill="none" xmlns="http://www.w3.org/2000/svg">
<path d="M54.4933 63.3229C54.1397 63.3229 53.8083 63.2566 53.5542 63.113L32.4628 51.6669C32.1866 51.5232 32.043 51.3023 32.043 51.0703C32.043 50.7941 32.2529 50.5289 32.6064 50.33L53.4105 39.0386C54.0514 38.6961 54.9794 38.6629 55.5429 38.9612L76.6343 50.4074C76.9105 50.551 77.0541 50.772 77.0541 51.004C77.0541 51.2802 76.8442 51.5453 76.4906 51.7442L55.6865 63.0357C55.344 63.2235 54.9021 63.3229 54.4933 63.3229ZM53.7199 62.8478C54.1729 63.0909 55.0015 63.0578 55.5208 62.7705L76.3249 51.4791C76.579 51.3465 76.7226 51.1697 76.7226 51.004C76.7226 50.8493 76.579 50.7388 76.4685 50.6725L55.3772 39.2264C54.9242 38.9833 54.0956 39.0165 53.5763 39.3037L32.7722 50.5952C32.5181 50.7278 32.3744 50.9045 32.3744 51.0703C32.3744 51.2249 32.5181 51.3354 32.6285 51.4017L53.7199 62.8478Z" fill="#8283BF"/>
<path opacity="0.5" d="M29.7448 64.6377C29.6895 64.6377 29.6343 64.6156 29.6011 64.5604C29.5569 64.483 29.579 64.3947 29.6564 64.3505L42.9807 57.1248C43.0581 57.0806 43.1575 57.1027 43.2017 57.1801C43.2459 57.2574 43.2238 57.3458 43.1465 57.39L29.8221 64.6156C29.8 64.6267 29.7669 64.6377 29.7448 64.6377Z" fill="url(#paint0_linear_2_13695)"/>
<path opacity="0.5" d="M79.3299 64.5936C79.2967 64.5936 79.2746 64.5825 79.2525 64.5715L66.0055 57.379C65.9282 57.3348 65.9061 57.2464 65.9503 57.1691C65.9945 57.0917 66.0939 57.0696 66.1712 57.1138L79.4182 64.3063C79.4956 64.3505 79.5177 64.4389 79.4735 64.5163C79.4403 64.5715 79.3851 64.5936 79.3299 64.5936Z" fill="url(#paint1_linear_2_13695)"/>
<path opacity="0.5" d="M54.4934 88.7453C53.952 88.7453 53.4217 88.6127 52.9356 88.3586C47.5108 85.3976 29.4246 75.5756 28.9937 75.3878C28.9054 75.3657 28.8612 75.2773 28.8943 75.2C28.9164 75.1226 29.0158 75.0784 29.1042 75.1005C29.3804 75.1779 52.8693 87.9608 53.1124 88.0934C53.9631 88.5575 55.0348 88.5575 55.8966 88.0934L79.7832 75.0784C79.8605 75.0342 79.96 75.0563 80.0041 75.1337C80.0483 75.211 80.0262 75.2994 79.9489 75.3436L56.0512 88.3586C55.5762 88.6127 55.0348 88.7453 54.4934 88.7453Z" fill="url(#paint2_linear_2_13695)"/>
<path d="M76.8879 42.6626V45.0932L54.4929 57.2465L32.0978 45.0932V42.6626H76.8879Z" fill="url(#paint3_linear_2_13695)"/>
<path d="M54.4929 54.8157L32.0978 42.6625L54.4929 30.5093L76.8879 42.6625L54.4929 54.8157Z" fill="#BEBDDF"/>
<path d="M54.4929 54.5284L32.3629 42.5188L32.0978 42.6624L54.4929 54.8157L76.8879 42.6624L76.6228 42.5188L54.4929 54.5284Z" fill="white"/>
<path d="M54.4936 52.0093L37.2692 42.6624L54.4936 33.3154L71.718 42.6624L54.4936 52.0093Z" fill="#1A134B"/>
<path opacity="0.5" d="M54.4936 52.0093L37.2692 42.6624L54.4936 33.3154L71.718 42.6624L54.4936 52.0093Z" fill="url(#paint4_linear_2_13695)"/>
<path opacity="0.5" d="M54.4933 30.9622L71.7177 40.3091V42.6624L54.4933 33.3155V30.9622Z" fill="url(#paint5_linear_2_13695)"/>
<path opacity="0.5" d="M54.4936 33.3155L37.2692 42.6624V40.3091L54.4936 30.9622V33.3155Z" fill="url(#paint6_linear_2_13695)"/>
<path opacity="0.5" d="M54.4936 49.656L37.2692 40.3091L54.4936 30.9622L71.718 40.3091L54.4936 49.656Z" fill="url(#paint7_linear_2_13695)"/>
<path opacity="0.5" d="M54.4937 44.0434L47.6105 40.3091L54.4937 36.5747L61.3768 40.3091L54.4937 44.0434Z" fill="#00B597"/>
<path opacity="0.5" d="M54.4937 36.9172L61.0564 40.4748L61.3768 40.3091L54.4937 36.5747L47.6105 40.3091L47.9309 40.4748L54.4937 36.9172Z" fill="#00B597"/>
<path opacity="0.5" d="M54.4933 49.656V52.0093L71.7177 42.6624V40.3091L54.4933 49.656Z" fill="url(#paint8_linear_2_13695)"/>
<path opacity="0.5" d="M37.2692 40.3091V42.6624L54.4936 52.0093V49.656L37.2692 40.3091Z" fill="url(#paint9_linear_2_13695)"/>
<path opacity="0.8" d="M54.4936 49.4019L37.5122 40.1765L37.2692 40.3091L54.4936 49.656L71.718 40.3091L71.486 40.1765L54.4936 49.4019Z" fill="#00B597"/>
<g opacity="0.11">
<path opacity="0.11" d="M21.3704 59.931C20.4644 59.4449 19.3596 59.4449 18.4536 59.931L1.08558 69.3442C0.809366 69.4879 0.809366 69.8635 1.08558 70.0071L18.5973 79.5088C19.3928 79.9396 20.3761 79.9396 21.1715 79.5088L38.7164 70.0071C38.9926 69.8635 38.9926 69.4879 38.7164 69.3442L21.3704 59.931Z" fill="url(#paint10_linear_2_13695)"/>
</g>
<g opacity="0.11">
<path opacity="0.11" d="M21.3704 57.18C20.4644 56.6939 19.3596 56.6939 18.4536 57.18L1.08558 66.5933C0.809366 66.7369 0.809366 67.1125 1.08558 67.2562L18.5973 76.7578C19.3928 77.1887 20.3761 77.1887 21.1715 76.7578L38.7164 67.2562C38.9926 67.1125 38.9926 66.7369 38.7164 66.5933L21.3704 57.18Z" fill="url(#paint11_linear_2_13695)"/>
</g>
<g opacity="0.11">
<path opacity="0.11" d="M21.3704 54.4288C20.4644 53.9427 19.3596 53.9427 18.4536 54.4288L1.08558 63.842C0.809366 63.9857 0.809366 64.3613 1.08558 64.5049L18.5973 74.0065C19.3928 74.4374 20.3761 74.4374 21.1715 74.0065L38.7164 64.5049C38.9926 64.3613 38.9926 63.9857 38.7164 63.842L21.3704 54.4288Z" fill="url(#paint12_linear_2_13695)"/>
</g>
<g opacity="0.11">
<path opacity="0.11" d="M21.3704 51.6778C20.4644 51.1917 19.3596 51.1917 18.4536 51.6778L1.08558 61.0911C0.809366 61.2347 0.809366 61.6103 1.08558 61.754L18.5973 71.2556C19.3928 71.6865 20.3761 71.6865 21.1715 71.2556L38.7164 61.754C38.9926 61.6103 38.9926 61.2347 38.7164 61.0911L21.3704 51.6778Z" fill="url(#paint13_linear_2_13695)"/>
</g>
<path opacity="0.5" d="M38.7052 61.0911L21.3592 51.6778C20.4532 51.1917 19.3484 51.1917 18.4424 51.6778L1.08541 61.0911C0.941779 61.1573 0.875488 61.2899 0.875488 61.4225V66.9577C0.875488 67.0903 0.941779 67.2229 1.08541 67.2892L18.5971 76.7908C19.3926 77.2217 20.3759 77.2217 21.1714 76.7908L38.7162 67.2892C38.8488 67.2119 38.9261 67.0903 38.9261 66.9577V61.4225C38.9151 61.301 38.8488 61.1684 38.7052 61.0911Z" fill="url(#paint14_linear_2_13695)"/>
<g opacity="0.11">
<path opacity="0.11" d="M21.3704 51.6778C20.4644 51.1917 19.3596 51.1917 18.4536 51.6778L1.08558 61.0911C0.809366 61.2347 0.809366 61.6103 1.08558 61.754L18.5973 71.2556C19.3928 71.6865 20.3761 71.6865 21.1715 71.2556L38.7164 61.754C38.9926 61.6103 38.9926 61.2347 38.7164 61.0911L21.3704 51.6778Z" fill="url(#paint15_linear_2_13695)"/>
</g>
<g opacity="0.5">
<path opacity="0.5" d="M20.5197 57.0695C20.133 56.8596 19.669 56.8596 19.2823 57.0695L11.5042 61.279C11.3827 61.3453 11.3827 61.511 11.5042 61.5773L19.3154 65.8199C19.669 66.0077 20.1109 66.0077 20.4645 65.8199L28.2867 61.5773C28.4083 61.511 28.4083 61.3453 28.2867 61.279L20.5197 57.0695Z" fill="#00B597"/>
</g>
<path d="M11.5038 61.5551L19.2819 57.3456C19.6686 57.1357 20.1326 57.1357 20.5193 57.3456L28.2863 61.5661C28.2974 61.5661 28.2974 61.5772 28.3084 61.5882C28.4079 61.5109 28.4079 61.3672 28.2863 61.312L20.5193 57.0915C20.1326 56.8816 19.6686 56.8816 19.2819 57.0915L11.5038 61.301C11.3933 61.3672 11.3823 61.5109 11.4817 61.5772C11.4928 61.5661 11.4928 61.5551 11.5038 61.5551Z" fill="#00B597"/>
<path d="M38.7051 61.3782L21.1602 70.8799C20.3647 71.3107 19.3814 71.3107 18.586 70.8799L1.08531 61.3782C1.01902 61.3451 0.963776 61.2899 0.930631 61.2346C0.831196 61.4114 0.875389 61.6434 1.08531 61.7539L18.597 71.2555C19.3925 71.6864 20.3758 71.6864 21.1713 71.2555L38.7161 61.7539C38.926 61.6434 38.9702 61.4003 38.8708 61.2346C38.8266 61.3009 38.7714 61.3451 38.7051 61.3782Z" fill="url(#paint16_linear_2_13695)"/>
<g opacity="0.11">
<path opacity="0.11" d="M90.5662 59.9312C89.6602 59.4451 88.5554 59.4451 87.6494 59.9312L70.2814 69.3334C70.0052 69.4771 70.0052 69.8527 70.2814 69.9963L87.7931 79.4979C88.5886 79.9288 89.5719 79.9288 90.3673 79.4979L107.912 69.9963C108.188 69.8527 108.188 69.4771 107.912 69.3334L90.5662 59.9312Z" fill="url(#paint17_linear_2_13695)"/>
</g>
<g opacity="0.11">
<path opacity="0.11" d="M90.5662 57.18C89.6602 56.6939 88.5554 56.6939 87.6494 57.18L70.2814 66.5822C70.0052 66.7258 70.0052 67.1015 70.2814 67.2451L87.7931 76.7467C88.5886 77.1776 89.5719 77.1776 90.3673 76.7467L107.912 67.2451C108.188 67.1015 108.188 66.7258 107.912 66.5822L90.5662 57.18Z" fill="url(#paint18_linear_2_13695)"/>
</g>
<g opacity="0.11">
<path opacity="0.11" d="M90.5662 54.429C89.6602 53.9429 88.5554 53.9429 87.6494 54.429L70.2814 63.8312C70.0052 63.9749 70.0052 64.3505 70.2814 64.4941L87.7931 73.9957C88.5886 74.4266 89.5719 74.4266 90.3673 73.9957L107.912 64.4941C108.188 64.3505 108.188 63.9749 107.912 63.8312L90.5662 54.429Z" fill="url(#paint19_linear_2_13695)"/>
</g>
<g opacity="0.11">
<path opacity="0.11" d="M90.5662 51.6781C89.6602 51.1919 88.5554 51.1919 87.6494 51.6781L70.2814 61.0802C70.0052 61.2239 70.0052 61.5995 70.2814 61.7432L87.7931 71.2448C88.5886 71.6757 89.5719 71.6757 90.3673 71.2448L107.912 61.7432C108.188 61.5995 108.188 61.2239 107.912 61.0802L90.5662 51.6781Z" fill="url(#paint20_linear_2_13695)"/>
</g>
<path opacity="0.5" d="M107.912 61.0913L90.5665 51.6781C89.6606 51.1919 88.5557 51.1919 87.6498 51.6781L70.2817 61.0802C70.1491 61.1576 70.0718 61.2791 70.0718 61.4117V66.9469C70.0718 67.0795 70.1381 67.2121 70.2817 67.2784L87.7934 76.78C88.5889 77.2109 89.5722 77.2109 90.3677 76.78L107.912 67.2784C108.045 67.2011 108.122 67.0795 108.122 66.9469V61.4117C108.111 61.3012 108.045 61.1686 107.912 61.0913Z" fill="url(#paint21_linear_2_13695)"/>
<g opacity="0.11">
<path opacity="0.11" d="M90.5662 51.6781C89.6602 51.1919 88.5554 51.1919 87.6494 51.6781L70.2814 61.0802C70.0052 61.2239 70.0052 61.5995 70.2814 61.7432L87.7931 71.2448C88.5886 71.6757 89.5719 71.6757 90.3673 71.2448L107.912 61.7432C108.188 61.5995 108.188 61.2239 107.912 61.0802L90.5662 51.6781Z" fill="url(#paint22_linear_2_13695)"/>
</g>
<g opacity="0.5">
<path opacity="0.5" d="M89.716 57.0698C89.3293 56.8599 88.8653 56.8599 88.4786 57.0698L80.7005 61.2792C80.579 61.3455 80.579 61.5112 80.7005 61.5775L88.5117 65.8201C88.8653 66.0079 89.3072 66.0079 89.6608 65.8201L97.483 61.5775C97.6046 61.5112 97.6046 61.3455 97.483 61.2792L89.716 57.0698Z" fill="#00B597"/>
</g>
<path d="M80.7001 61.5553L88.4782 57.3459C88.8649 57.136 89.3289 57.136 89.7156 57.3459L97.4826 61.5664C97.4937 61.5664 97.4937 61.5774 97.5047 61.5885C97.6042 61.5111 97.6042 61.3675 97.4826 61.3122L89.7156 57.0918C89.3289 56.8818 88.8649 56.8818 88.4782 57.0918L80.7001 61.3012C80.5896 61.3675 80.5786 61.5111 80.678 61.5774C80.6891 61.5664 80.6891 61.5553 80.7001 61.5553Z" fill="#00B597"/>
<path d="M107.912 61.3785L90.3676 70.8801C89.5721 71.311 88.5888 71.311 87.7933 70.8801L70.2816 61.3785C70.2153 61.3453 70.1601 61.2901 70.1269 61.2349C70.0275 61.4116 70.0717 61.6437 70.2816 61.7541L87.7933 71.2558C88.5888 71.6866 89.5721 71.6866 90.3676 71.2558L107.912 61.7541C108.122 61.6437 108.167 61.4006 108.067 61.2349C108.023 61.3012 107.979 61.3453 107.912 61.3785Z" fill="url(#paint23_linear_2_13695)"/>
<path opacity="0.502" d="M103.405 38.3758V28.598C103.162 25.2613 101.758 22.0905 99.4051 19.1847V28.9626C101.758 31.8683 103.162 35.0392 103.405 38.3758ZM98.2008 27.5815V17.8037C97.3722 16.9198 96.4552 16.0691 95.4498 15.2515V25.0293C96.4552 25.858 97.3722 26.7087 98.2008 27.5815ZM93.7373 23.7256V13.9478C92.6435 13.1634 91.4724 12.4121 90.2239 11.705V21.4828C91.4724 22.2009 92.6546 22.9412 93.7373 23.7256ZM87.8706 23.118V7.55078C97.4606 12.3347 103.438 19.1626 103.438 26.7308V42.2869C103.438 34.7298 97.4606 27.8909 87.8706 23.118Z" fill="#00B597"/>
<path opacity="0.502" d="M70.3481 15.6491V12.8428C69.6189 12.7103 68.8786 12.5887 68.1274 12.4783V15.2845C68.8786 15.395 69.6189 15.5166 70.3481 15.6491ZM66.3596 12.2131V9.7272C65.5973 9.62777 64.8349 9.53938 64.0615 9.46204V11.9479C64.8349 12.0363 65.5973 12.1247 66.3596 12.2131ZM74.1819 13.6273V10.2354C73.4748 10.0697 72.7677 9.91503 72.0495 9.7714V13.1633C72.7677 13.3069 73.4858 13.4616 74.1819 13.6273ZM62.2275 11.7822V6.77729C61.4431 6.711 60.6586 6.65575 59.8632 6.62261V11.6275C60.6697 11.6717 61.4541 11.727 62.2275 11.7822ZM53.665 11.506V6.50108C52.8585 6.51212 52.063 6.53422 51.2675 6.56737V11.5723C52.063 11.5391 52.8585 11.517 53.665 11.506ZM49.4114 11.6607V5.36309C48.627 5.40729 47.8425 5.47358 47.0802 5.53987V11.8374C47.8425 11.7712 48.627 11.7159 49.4114 11.6607ZM57.9849 11.5391V4.34664C57.2668 4.32454 56.5486 4.30245 55.8195 4.30245C55.7311 4.30245 55.6427 4.30245 55.5653 4.30245V11.506C55.6537 11.506 55.7421 11.506 55.8195 11.506C56.5486 11.506 57.2778 11.517 57.9849 11.5391ZM45.2572 12.0142V3.00979C44.4949 3.09817 43.7325 3.18656 42.9812 3.286V12.2904C43.7436 12.191 44.4949 12.1026 45.2572 12.0142ZM38.1089 2.2364C43.622 1.13156 49.5992 0.557043 55.8305 0.612285C64.1499 0.689624 71.939 1.8939 78.7228 3.9489V19.505C71.9501 17.45 64.1499 16.2458 55.8305 16.1684C49.5992 16.1132 43.622 16.6877 38.1089 17.7925V2.2364Z" fill="#00B597"/>
<path opacity="0.502" d="M9.94632 23.3499V20.2122C8.95197 21.549 8.16753 22.9522 7.59302 24.3885V33.6691C8.16753 32.2328 8.95197 30.8297 9.94632 29.4928V26.3551C10.2336 25.9684 10.5319 25.5817 10.8523 25.206V26.8964C11.46 26.1783 12.1229 25.4822 12.841 24.7972V23.1068C15.9677 20.1569 20.1219 17.5605 25.0495 15.4724V12.4562C24.1766 12.8318 23.3259 13.2185 22.4973 13.6163C22.0885 13.8151 21.6797 14.0251 21.282 14.235C18.1221 15.8812 15.3711 17.7705 13.1393 19.8255C13.0399 19.9139 12.9515 20.0022 12.8631 20.0906V18.4002C12.145 19.0852 11.482 19.7813 10.8744 20.4994V22.1898C10.5429 22.5765 10.2336 22.9632 9.94632 23.3499ZM6.95221 23.2505C8.83044 15.6602 16.7521 9.11958 27.9662 5.04272V20.6099C16.7521 24.6757 8.83044 31.2164 6.95221 38.8066V23.2505Z" fill="#00B597"/>
<path opacity="0.7529" d="M12.852 20.1015C12.9404 20.0131 13.0398 19.9247 13.1282 19.8363V22.8525C14.7965 21.3168 16.7521 19.8695 18.9618 18.5547C19.702 18.1128 20.4754 17.6708 21.2819 17.262V14.2458C21.6797 14.0359 22.0885 13.837 22.4973 13.6271V16.6433C23.3259 16.2456 24.1766 15.8589 25.0494 15.4833V12.467V15.4833C20.1219 17.5714 15.9677 20.1567 12.841 23.1177V20.1015H12.852ZM9.94629 23.3497C10.2335 22.963 10.5319 22.5763 10.8523 22.2007V25.2169C10.5319 25.5925 10.2335 25.9792 9.94629 26.3659V23.3497Z" fill="#00B597"/>
<path opacity="0.8784" d="M22.4971 13.6271C23.3257 13.2294 24.1764 12.8427 25.0492 12.467V15.4833C24.1764 15.8589 23.3257 16.2456 22.4971 16.6433V13.6271Z" fill="#00B597"/>
<path opacity="0.8784" d="M13.128 19.8364C14.7963 18.3007 16.7519 16.8533 18.9615 15.5386V18.5548C16.7629 19.8695 14.8073 21.3058 13.128 22.8526V19.8364Z" fill="#00B597"/>
<path opacity="0.9725" d="M18.962 15.5388C19.7023 15.0968 20.4757 14.6549 21.2822 14.2461V17.2623C20.4867 17.6821 19.7133 18.113 18.962 18.555V15.5388Z" fill="#00B597"/>
<path opacity="0.7529" d="M7.5932 24.3884C8.16772 22.9522 8.95215 21.549 9.94651 20.2122V23.3499C8.95215 24.6868 8.16772 26.0899 7.5932 27.5262V30.5424C8.16772 29.1061 8.95215 27.703 9.94651 26.3661V29.5039C8.95215 30.8407 8.16772 32.2439 7.5932 33.6801V24.3884Z" fill="#00B597"/>
<path opacity="0.8784" d="M7.5932 27.5261C8.16772 26.0899 8.95215 24.6867 9.94651 23.3499V26.3661C8.95215 27.7029 8.16772 29.1061 7.5932 30.5424V27.5261Z" fill="#00B597"/>
<path opacity="0.7529" d="M10.8633 25.2059C11.471 24.4877 12.1339 23.7917 12.8521 23.1067V24.7971C12.1339 25.4821 11.471 26.1781 10.8633 26.8963V25.2059ZM10.8633 20.5103C11.471 19.7922 12.1339 19.0961 12.8521 18.4111V20.1015C12.1339 20.7865 11.471 21.4826 10.8633 22.2007V20.5103Z" fill="#00B597"/>
<path opacity="0.8784" d="M10.8633 22.2008C11.471 21.4826 12.1339 20.7866 12.8521 20.1016V23.1178C12.1339 23.8028 11.471 24.4988 10.8633 25.217V22.2008Z" fill="#00B597"/>
<path opacity="0.7529" d="M99.4053 19.1736C101.759 22.0793 103.162 25.2612 103.405 28.5868V38.3646C103.162 35.028 101.759 31.8571 99.4053 28.9514V19.1736Z" fill="#00B597"/>
<path d="M95.4497 15.2515C96.4551 16.069 97.3721 16.9198 98.2008 17.8036V27.5815C97.3721 26.6976 96.4551 25.8469 95.4497 25.0293V15.2515Z" fill="#00B597"/>
<path opacity="0.7529" d="M90.2349 11.7048C91.4833 12.4119 92.6545 13.1632 93.7483 13.9477V23.7255C92.6545 22.941 91.4833 22.1898 90.2349 21.4827V11.7048Z" fill="#00B597"/>
<path opacity="0.7529" d="M72.0492 9.77148C72.7673 9.91511 73.4744 10.0698 74.1815 10.2355V13.6274C73.4744 13.4616 72.7673 13.307 72.0492 13.1633V9.77148Z" fill="#00B597"/>
<path opacity="0.7529" d="M68.1274 12.467C68.8787 12.5775 69.6079 12.6991 70.3481 12.8316V15.6379C69.6189 15.5053 68.8787 15.3838 68.1274 15.2733V12.467Z" fill="#00B597"/>
<path opacity="0.7529" d="M64.061 9.46191C64.8344 9.53925 65.5968 9.62764 66.3591 9.72708V12.213C65.5968 12.1135 64.8344 12.0251 64.061 11.9478V9.46191Z" fill="#00B597"/>
<path opacity="0.7529" d="M59.874 6.62256C60.6694 6.66675 61.4539 6.72199 62.2383 6.77724V11.7822C61.4539 11.7159 60.6694 11.6606 59.874 11.6275V6.62256Z" fill="#00B597"/>
<path opacity="0.7529" d="M55.5654 4.2915C55.6538 4.2915 55.7422 4.2915 55.8195 4.2915C56.5487 4.30255 57.2669 4.3136 57.985 4.3357V11.5392C57.2669 11.5171 56.5487 11.4951 55.8195 11.4951C55.7312 11.4951 55.6428 11.4951 55.5654 11.4951V4.2915Z" fill="#00B597"/>
<path d="M51.2676 6.56727C52.0631 6.53412 52.8586 6.51202 53.6651 6.50098V11.5059C52.8586 11.5169 52.0631 11.539 51.2676 11.5722V6.56727Z" fill="#00B597"/>
<path opacity="0.7529" d="M47.0796 5.53981C47.853 5.47352 48.6264 5.41828 49.4108 5.36304V11.6606C48.6264 11.7048 47.8419 11.7711 47.0796 11.8374V5.53981Z" fill="#00B597"/>
<path d="M42.9922 3.28598C43.7435 3.18654 44.4948 3.0871 45.2682 3.00977V12.0142C44.5058 12.1026 43.7435 12.191 42.9922 12.2904V3.28598Z" fill="#00B597"/>
<g opacity="0.11">
<path opacity="0.11" d="M53.0336 80.1603C53.8843 79.6962 54.9229 79.6962 55.7736 80.1603L72.1031 88.999C72.3572 89.1426 72.3572 89.4851 72.1031 89.6287L55.641 98.5669C54.8897 98.9757 53.9727 98.9757 53.2214 98.5669L36.7262 89.6398C36.4721 89.4962 36.4721 89.1537 36.7262 89.01L53.0336 80.1603Z" fill="url(#paint24_linear_2_13695)"/>
</g>
<g opacity="0.11">
<path opacity="0.11" d="M53.0336 77.5751C53.8843 77.111 54.9229 77.111 55.7736 77.5751L72.1031 86.4138C72.3572 86.5574 72.3572 86.8999 72.1031 87.0435L55.641 95.9817C54.8897 96.3905 53.9727 96.3905 53.2214 95.9817L36.7262 87.0546C36.4721 86.911 36.4721 86.5685 36.7262 86.4248L53.0336 77.5751Z" fill="url(#paint25_linear_2_13695)"/>
</g>
<g opacity="0.11">
<path opacity="0.11" d="M53.0337 74.9896C53.8844 74.5256 54.923 74.5256 55.7737 74.9896L72.1032 83.8283C72.3573 83.972 72.3573 84.3145 72.1032 84.4581L55.6411 93.3962C54.8898 93.805 53.9728 93.805 53.2215 93.3962L36.7373 84.4691C36.4832 84.3255 36.4832 83.983 36.7373 83.8394L53.0337 74.9896Z" fill="url(#paint26_linear_2_13695)"/>
</g>
<g opacity="0.11">
<path opacity="0.11" d="M53.0336 72.4044C53.8843 71.9404 54.9229 71.9404 55.7736 72.4044L72.1031 81.2431C72.3572 81.3868 72.3572 81.7293 72.1031 81.8729L55.641 90.811C54.8897 91.2198 53.9727 91.2198 53.2214 90.811L36.7262 81.8839C36.4721 81.7403 36.4721 81.3978 36.7262 81.2542L53.0336 72.4044Z" fill="url(#paint27_linear_2_13695)"/>
</g>
<path opacity="0.11" d="M36.7373 81.2542L53.0447 72.4044C53.8954 71.9404 54.934 71.9404 55.7847 72.4044L72.1142 81.2431C72.2468 81.3094 72.302 81.431 72.302 81.5525V89.3084C72.302 89.43 72.2358 89.5515 72.1142 89.6178L55.6521 98.556C54.9008 98.9647 53.9838 98.9647 53.2325 98.556L36.7373 89.6289C36.6047 89.5626 36.5495 89.441 36.5495 89.3195V81.5635C36.5384 81.442 36.6047 81.3205 36.7373 81.2542Z" fill="url(#paint28_linear_2_13695)"/>
<g opacity="0.11">
<path opacity="0.11" d="M52.7461 66.0628C53.7736 65.5103 55.0441 65.4993 56.0716 66.0628L75.8703 76.7907C76.1797 76.9565 76.1797 77.3873 75.8703 77.5531L55.9059 88.3915C54.9999 88.8887 53.884 88.8887 52.9781 88.3915L32.9805 77.5641C32.6711 77.3984 32.6711 76.9675 32.9805 76.8018L52.7461 66.0628Z" fill="url(#paint29_linear_2_13695)"/>
</g>
<g opacity="0.11">
<path opacity="0.11" d="M52.7461 62.9248C53.7736 62.3724 55.0441 62.3613 56.0716 62.9248L75.8703 73.6528C76.1797 73.8185 76.1797 74.2494 75.8703 74.4151L55.9059 85.2426C54.9999 85.7397 53.884 85.7397 52.9781 85.2426L32.9805 74.4151C32.6711 74.2494 32.6711 73.8185 32.9805 73.6528L52.7461 62.9248Z" fill="url(#paint30_linear_2_13695)"/>
</g>
<g opacity="0.11">
<path opacity="0.11" d="M52.7461 59.7871C53.7736 59.2347 55.0441 59.2237 56.0716 59.7871L75.8703 70.5151C76.1797 70.6808 76.1797 71.1117 75.8703 71.2774L55.9059 82.1159C54.9999 82.6131 53.884 82.6131 52.9781 82.1159L32.9805 71.2885C32.6711 71.1228 32.6711 70.6919 32.9805 70.5261L52.7461 59.7871Z" fill="url(#paint31_linear_2_13695)"/>
</g>
<g opacity="0.11">
<path opacity="0.11" d="M52.7461 56.6494C53.7736 56.097 55.0441 56.086 56.0716 56.6494L75.8703 67.3774C76.1797 67.5431 76.1797 67.974 75.8703 68.1397L55.9059 78.9782C54.9999 79.4754 53.884 79.4754 52.9781 78.9782L32.9805 68.1508C32.6711 67.9851 32.6711 67.5542 32.9805 67.3885L52.7461 56.6494Z" fill="url(#paint32_linear_2_13695)"/>
</g>
<path opacity="0.5" d="M32.97 67.3774L52.7466 56.6494C53.7741 56.097 55.0447 56.086 56.0722 56.6494L75.8709 67.3774C76.0256 67.4658 76.1029 67.6094 76.1029 67.7531V77.1663C76.1029 77.3099 76.0256 77.4646 75.8709 77.5419L55.9064 88.3804C55.0005 88.8776 53.8846 88.8776 52.9786 88.3804L32.981 77.553C32.8264 77.4646 32.749 77.321 32.749 77.1773V67.7641C32.738 67.6094 32.8153 67.4658 32.97 67.3774Z" fill="url(#paint33_linear_2_13695)"/>
<g opacity="0.11">
<path opacity="0.11" d="M52.7461 56.6494C53.7736 56.097 55.0441 56.086 56.0716 56.6494L75.8703 67.3774C76.1797 67.5431 76.1797 67.974 75.8703 68.1397L55.9059 78.9782C54.9999 79.4754 53.884 79.4754 52.9781 78.9782L32.9805 68.1508C32.6711 67.9851 32.6711 67.5542 32.9805 67.3885L52.7461 56.6494Z" fill="url(#paint34_linear_2_13695)"/>
</g>
<path d="M32.9698 67.709L52.9674 78.5364C53.8734 79.0336 54.9893 79.0336 55.8952 78.5364L75.8597 67.698C75.937 67.6538 75.9923 67.5985 76.0364 67.5322C76.158 67.7311 76.1027 68.0073 75.8597 68.1288L55.8952 78.9673C54.9893 79.4645 53.8734 79.4645 52.9674 78.9673L32.9698 68.1399C32.7378 68.0073 32.6826 67.7421 32.7931 67.5433C32.8373 67.6096 32.8925 67.6648 32.9698 67.709Z" fill="url(#paint35_linear_2_13695)"/>
<path opacity="0.2" d="M54.4262 73.7084C60.4487 73.7084 65.3309 71.057 65.3309 67.7864C65.3309 64.5158 60.4487 61.8645 54.4262 61.8645C48.4037 61.8645 43.5214 64.5158 43.5214 67.7864C43.5214 71.057 48.4037 73.7084 54.4262 73.7084Z" fill="#211C58"/>
<path d="M58.5703 62.7705C58.5703 62.7705 58.8354 63.0357 59.1116 63.334C59.3879 63.6433 60.1612 64.0632 60.4816 64.251C60.802 64.4388 62.2936 65.4995 62.6029 66.5491C62.9123 67.5987 61.8516 67.7312 60.7579 67.5545C59.6641 67.3777 58.6587 66.4275 58.3604 66.085C58.062 65.7425 57.0345 64.9691 55.6977 64.3173C54.3608 63.6654 55.1674 62.7926 55.1674 62.7926L58.5703 62.7705Z" fill="#211B58"/>
<path d="M48.6595 65.864C48.6595 65.864 48.4385 66.3391 48.3722 66.9357C48.3059 67.5434 48.2175 68.8471 48.1844 69.2338C48.1512 69.6205 48.1402 70.5485 48.8583 71.4545C49.5765 72.3494 49.9411 72.703 50.9023 72.3494C51.8524 71.9959 51.8304 70.4933 51.6646 69.7199C51.4989 68.9465 51.3442 67.2119 51.3553 67.0351C51.3774 66.8584 51.3 66.7368 51.3 66.7368L48.6595 65.864Z" fill="#211B58"/>
<path d="M61.8615 45.0267C61.8615 45.0267 61.6626 51.9209 59.9501 55.5779C59.9501 55.5779 58.7238 58.804 58.5691 62.6378C58.5691 62.6378 58.8563 63.3007 58.4476 63.8311C58.0498 64.3724 55.5418 64.8585 55.122 63.0908C54.7021 61.3231 54.8679 58.0306 55.3209 56.6496C55.7738 55.2686 55.1551 51.479 55.1551 51.479C55.1551 51.479 54.4701 51.8877 53.5752 54.6167C52.6803 57.3456 52.0174 58.3842 51.708 59.1355C51.3987 59.8868 51.1114 64.505 51.3103 66.7589C51.3103 66.7589 49.2774 67.0351 48.6918 66.1181C48.1063 65.2011 47.9074 60.4834 48.0621 58.9698C48.2057 57.4672 48.8797 52.639 48.7913 51.1475C48.7029 49.656 48.3714 48.4406 48.736 46.9491C49.1006 45.4576 59.8176 42.1431 59.8176 42.1431L61.8615 45.0267Z" fill="#282567"/>
<path d="M48.7804 51.1584C48.692 49.6669 48.3606 48.4516 48.7252 46.9601C48.8577 46.3966 50.4597 45.579 52.4043 44.7835C55.6856 44.5073 59.8509 44.1759 60.1381 44.2201C60.3923 44.2532 61.0773 44.4963 61.6407 44.7062L61.8727 45.0266C61.8727 45.0266 61.8617 45.4464 61.8175 46.1314C61.0552 46.3413 59.5747 46.1204 59.5747 46.1204C59.3648 46.6065 58.0831 48.319 56.5032 49.0703C54.9122 49.8105 50.2609 49.5564 49.9957 49.8437C49.7306 50.1309 49.6753 53.8984 49.7085 54.3846C49.7416 54.8707 49.2665 57.8869 48.8356 60.5606C48.4048 63.1901 49.0566 66.3831 49.0787 66.4826C48.924 66.3942 48.8025 66.2837 48.7031 66.1401C48.1175 65.223 47.9186 60.5054 48.0733 58.9917C48.1948 57.4781 48.8688 52.661 48.7804 51.1584Z" fill="#211B58"/>
<path d="M58.2716 22.4769C58.2716 22.4769 60.647 22.9852 61.4535 23.1619C61.5861 23.1951 61.6966 23.2835 61.7408 23.3939C61.9728 23.9464 62.5473 25.6478 62.1164 28.1448C61.575 31.2052 61.7518 33.2712 61.7518 33.2712L62.8567 38.6518C62.8567 38.6518 64.2377 43.7782 64.1162 43.9219C63.9946 44.0655 60.9342 46.2531 59.973 45.9437C59.0118 45.6343 59.3322 45.1261 59.3322 45.1261C59.3322 45.1261 58.5588 48.8384 55.1228 48.8052C51.6867 48.7721 48.8804 48.7831 48.2949 47.4794C47.7093 46.1757 48.4496 40.6847 49.0572 38.5081C49.6649 36.3316 51.1012 32.0006 51.1012 32.0006L46.0742 26.7637L50.372 23.6812C50.372 23.6812 51.3995 21.8914 51.8193 21.6593C52.2392 21.4273 52.4601 21.6262 52.4601 21.6262L58.2716 22.4769Z" fill="#47419A"/>
<path d="M59.9059 44.7726C59.9059 44.9604 60.0163 45.2366 60.6351 45.4355C61.298 45.6454 62.9331 44.7174 64.0048 44.0103C63.4745 44.4301 60.8339 46.231 59.9611 45.9548C59.7733 45.8885 59.6296 45.8222 59.5302 45.7559C59.7291 45.3471 59.8506 44.9825 59.9059 44.7726Z" fill="url(#paint36_linear_2_13695)"/>
<path d="M48.3163 47.0487C48.9351 48.4298 51.896 48.4187 55.5199 48.4518C56.4369 48.4629 57.1772 48.2088 57.7738 47.8442C57.144 48.4077 56.2822 48.8275 55.1222 48.8164C51.6861 48.7833 48.8798 48.7943 48.2942 47.4906C48.1064 47.0598 48.0512 46.1759 48.0954 45.1152C48.0843 45.977 48.1396 46.6841 48.3163 47.0487Z" fill="url(#paint37_linear_2_13695)"/>
<path d="M51.908 21.6263C51.908 21.6263 51.0242 22.6207 52.2947 23.9796C53.0681 24.8082 54.416 26.5981 55.554 28.4653C56.2611 29.6253 56.924 30.2441 57.2996 31.2384C57.2996 31.2384 57.3549 30.0562 57.3991 28.2222C57.4433 26.4987 57.4764 24.6978 57.388 24.2448C57.2223 23.3057 52.8803 21.1733 51.908 21.6263Z" fill="#F1F6FC"/>
<path d="M55.2002 24.6312C55.2002 24.6312 55.6532 24.8964 55.8079 24.8743C55.9626 24.8522 56.4598 24.3992 56.4598 24.3992C56.4598 24.3992 57.7082 24.3771 57.8408 23.8799C57.9734 23.3828 58.0618 22.8745 58.1944 22.6094C58.3159 22.3442 58.8573 21.0957 58.8573 20.5875C58.8573 20.0793 58.8462 19.1733 59.0782 18.6872C59.3102 18.2011 59.6306 13.395 54.681 13.5276C49.7313 13.6602 51.2781 18.4883 51.2781 18.4883C51.2781 18.4883 50.9135 18.632 51.1344 19.2507C51.3554 19.8694 51.3996 19.9357 51.5101 20.245C51.6206 20.5544 51.6758 20.7532 51.9852 20.9963L52.0625 21.5708C52.0625 21.5708 51.8305 22.4436 52.4381 23.2944C53.0679 24.1451 55.2002 24.6312 55.2002 24.6312Z" fill="#FCD1C6"/>
<path d="M61.5862 23.217C61.5862 23.217 62.1165 23.2944 63.818 27.3381C64.7682 29.592 66.2486 31.9342 66.558 33.6136C66.8674 35.2929 66.7016 37.0828 66.3481 37.2154C66.0056 37.3369 59.8627 39.5024 57.9403 40.1763C57.8298 40.2095 57.7193 40.1542 57.6972 40.0437L57.1669 37.2595L60.9786 35.8785C60.9786 35.8785 61.7078 35.0388 62.3928 34.7295C62.3928 34.7295 61.6304 33.4037 61.6746 33.0391C61.7188 32.6745 61.6083 28.9401 62.0503 27.4154C62.5032 25.8797 61.5862 23.217 61.5862 23.217Z" fill="#282567"/>
<path d="M59.3535 33.912C59.3535 33.912 59.8838 33.5805 60.0053 33.5363C60.1379 33.4921 60.8339 33.2601 60.9665 33.2049C61.066 33.1607 61.4747 33.1938 61.6847 33.2159C61.762 33.227 61.8283 33.2601 61.8614 33.3264C62.0272 33.6137 62.4801 34.4313 62.4249 34.7517C62.4249 34.7517 61.1543 35.503 61.0107 35.8455L60.8118 35.8896C60.8118 35.8676 59.9611 34.155 59.3535 33.912Z" fill="#FCD1C6"/>
<path d="M49.0462 38.5192C49.1898 37.9999 49.3887 37.3481 49.5986 36.6631L57.3214 39.7787C57.3214 39.7787 55.0123 42.4524 50.9576 42.2757C49.8527 42.2315 49.0462 41.8558 48.4496 41.5354C48.6264 40.3422 48.8473 39.2484 49.0462 38.5192Z" fill="#282567"/>
<path d="M46.063 26.7747C46.063 26.7747 48.0959 27.0398 49.7421 29.4926C51.3883 31.9453 52.5815 34.7847 52.5815 34.7847L52.6368 35.1051C52.7804 35.9338 53.7306 36.4199 54.5481 36.0774C56.2827 35.3482 58.857 34.2434 59.3431 33.9119C59.3431 33.9119 60.8789 34.7074 61.2987 36.5967C61.6302 38.0993 61.5528 38.1103 61.5528 38.1103C61.5528 38.1103 54.6918 41.1155 52.0512 41.0934C49.3996 41.0602 46.0409 32.8734 45.6763 31.183C45.3117 29.4926 44.9029 27.2608 46.063 26.7747Z" fill="#282567"/>
<path d="M46.063 26.7747C46.063 26.7747 48.0959 27.0398 49.7421 29.4926C51.3883 31.9453 52.5815 34.7847 52.5815 34.7847L52.6368 35.1051C52.7804 35.9338 53.7306 36.4199 54.5481 36.0774C56.2827 35.3482 58.857 34.2434 59.3431 33.9119C59.3431 33.9119 60.8789 34.7074 61.2987 36.5967C61.6302 38.0993 61.5528 38.1103 61.5528 38.1103C61.5528 38.1103 54.6918 41.1155 52.0512 41.0934C49.3996 41.0602 46.0409 32.8734 45.6763 31.183C45.3117 29.4926 44.9029 27.2608 46.063 26.7747Z" fill="#4B4A9F"/>
<path d="M53.5762 36.4531C53.5762 36.4531 52.7144 37.2154 52.3388 36.7956C51.9631 36.3758 52.0736 36.3316 52.0736 36.3316C52.0736 36.3316 51.3002 36.3205 51.2008 35.8675C51.1014 35.4035 50.7257 35.6466 50.7036 35.1383C50.6815 34.6301 51.3334 34.7295 51.3334 34.7295L53.5762 36.4531Z" fill="#47419A"/>
<path d="M54.6255 36.0444C54.6255 36.0444 54.3824 35.8344 54.0841 35.5914C53.7748 35.3483 53.2776 34.3429 53.2002 34.2435C53.1119 34.1551 52.0844 33.4038 51.5872 33.3928C51.09 33.3817 51.4546 33.901 51.5761 33.9783C51.6866 34.0557 52.1727 34.2766 52.1727 34.2766C52.1727 34.2766 52.6699 34.6744 52.7362 34.7296C52.7915 34.7848 51.3441 34.6412 51.1121 34.7738C50.8801 34.9064 50.9353 35.2599 51.1011 35.3483C51.2668 35.4478 51.3883 35.4367 51.3883 35.4367C51.3883 35.4367 51.2226 35.8455 51.6645 36.0333C52.0954 36.2211 52.1948 36.1217 52.1948 36.1217C52.1948 36.1217 52.228 36.8288 52.9461 36.6852L54.6255 36.0444Z" fill="#FCD1C6"/>
<path d="M59.1878 16.2235C59.1878 16.2235 59.8287 18.157 58.1382 17.6046C56.4368 17.0522 54.9011 16.1352 54.3707 16.4887C53.962 16.7539 53.9841 17.5714 54.0172 17.9471C54.0282 18.0797 53.9951 18.2012 53.9178 18.3117L53.4095 18.9967C53.3543 19.074 53.3211 19.1624 53.3101 19.2618L53.277 19.7369C53.2659 19.8585 53.1665 19.9579 53.0339 19.9579L52.9234 19.9689C52.7908 19.98 52.6803 19.8916 52.6582 19.7701L52.5257 19.063C52.5257 19.063 52.1279 18.1128 51.2772 18.4885C51.2772 18.4885 50.7137 17.7703 50.9016 16.2456C51.0894 14.721 51.8186 13.13 55.0005 12.8759C58.1824 12.6218 59.1878 16.2235 59.1878 16.2235Z" fill="#AB8483"/>
<path d="M54.3163 26.3329L54.7914 25.9904C54.7914 25.9904 55.2333 26.3329 55.399 26.6975C55.5758 27.0621 55.399 28.2222 55.399 28.2222L55.5427 28.4542L55.7194 28.1449L55.8741 26.7749C55.8741 26.7749 55.7084 25.7584 55.6973 25.7363C55.6863 25.7142 54.7803 25.8247 54.7803 25.8247C54.7803 25.8247 54.471 26.0457 54.3163 26.3329Z" fill="#C4CBD5"/>
<path d="M56.6147 24.9629C56.6147 24.9629 57.1229 24.996 57.3549 25.1728C57.3549 25.1728 56.8246 25.1949 56.7362 25.206C56.6478 25.217 56.6147 24.9629 56.6147 24.9629Z" fill="#C4CBD5"/>
<path d="M55.6417 25.0732L54.791 25.8245C54.791 25.8245 55.5422 26.1449 55.7522 26.7747C55.7522 26.7747 56.6802 26.9404 56.7686 26.62C56.857 26.2996 56.7686 25.5041 56.8791 25.1506C56.9785 24.8081 55.6417 25.0732 55.6417 25.0732Z" fill="#282567"/>
<path d="M56.7253 26.6091C56.7253 26.6091 56.8799 27.272 57.0567 27.5371C57.2335 27.8134 57.4103 28.1117 57.4103 28.1117L57.3882 31.9676C57.3882 31.9676 55.8745 29.0397 55.5541 28.4542C55.5541 28.4542 55.6094 27.051 55.742 26.7748C55.8856 26.5096 56.7253 26.6091 56.7253 26.6091Z" fill="#282567"/>
<path d="M52.67 20.908C53.6643 23.5927 56.4485 24.3882 56.4485 24.3882C56.4485 24.3882 55.9514 24.8412 55.7967 24.8633C55.642 24.8854 55.189 24.6202 55.189 24.6202C55.189 24.6202 53.0567 24.1341 52.449 23.2834C51.8303 22.4326 52.0734 21.5598 52.0734 21.5598L51.996 20.9853C52.438 21.14 52.67 20.908 52.67 20.908Z" fill="#E2B1A6"/>
<path d="M50.4052 24.0569C50.4052 24.0569 50.7918 25.3274 50.8471 25.3716C50.9023 25.4158 51.8304 25.3164 51.8304 25.3164L51.3774 26.1229C51.3774 26.1229 56.073 30.8516 57.0452 33.4038C57.0452 33.4038 54.8245 30.1777 50.9134 26.3218L51.4658 25.5374L50.5046 25.7141L50.4052 24.0569Z" fill="#282567"/>
<path d="M58.1169 22.9409L58.3711 23.2061L58.0838 23.4602L58.9566 24.2004C58.9566 24.2004 59.2218 29.3711 58.1611 32.8071C58.1611 32.8071 59.5974 29.6583 59.277 24.0679L58.3379 23.4712L58.6473 23.184L58.1169 22.9409Z" fill="#282567"/>
<path d="M55.1563 51.5011C55.1563 51.5011 55.1452 51.5121 55.1231 51.5232L56.3384 50.3079C55.775 51.0481 56.4268 54.4621 56.4931 55.2354C56.5594 56.0199 55.8413 57.6219 55.5761 59.5112C55.3109 61.4004 55.8523 64.0852 55.8634 64.0962C55.5209 63.9084 55.2446 63.588 55.1231 63.1019C54.7033 61.3342 54.869 58.0417 55.322 56.6607C55.775 55.2796 55.1563 51.5011 55.1563 51.5011Z" fill="#211B58"/>
<path d="M52.0516 41.0824C49.4 41.0492 46.0413 32.8624 45.6767 31.172C45.6104 30.8847 45.5552 30.5974 45.4999 30.2881C45.511 30.3102 46.196 32.0779 46.8589 33.6468C47.5218 35.2267 51.0683 40.0107 52.8692 40.32C54.5044 40.5962 60.3711 38.022 61.498 37.5137C61.5974 38.0882 61.5532 38.0993 61.5532 38.0993C61.5532 38.0993 54.7032 41.1155 52.0516 41.0824Z" fill="url(#paint38_linear_2_13695)"/>
<path d="M52.913 19.958C52.7805 19.969 52.67 19.8806 52.6479 19.7591L52.5153 19.052C52.5153 19.052 52.1176 18.1018 51.2668 18.4775C51.2668 18.4775 50.7365 17.8035 50.8801 16.3562C51.8193 17.682 53.9074 18.2897 53.9074 18.2897L53.3992 18.9747C53.3439 19.052 53.3108 19.1404 53.2997 19.2398L53.2666 19.7149C53.2555 19.8364 53.1561 19.9359 53.0235 19.9359L52.913 19.958Z" fill="#946E6D"/>
<path opacity="0.502" d="M21.9116 59.1025V56.4729C22.4751 56.7602 23.0496 57.0254 23.6241 57.3016V59.9311C23.0386 59.6549 22.464 59.3787 21.9116 59.1025ZM16.3985 55.81V50.9598C16.8625 51.2912 17.3486 51.6116 17.8348 51.9321V56.7823C17.3486 56.4619 16.8625 56.1415 16.3985 55.81ZM19.028 57.5115V51.7995C19.5473 52.1088 20.0665 52.4071 20.6079 52.7054V58.4175C20.0665 58.1191 19.5362 57.8208 19.028 57.5115ZM11.9791 52.0646V45.7229C12.3327 46.0875 12.7083 46.452 13.095 46.8166V53.1584C12.7083 52.7938 12.3437 52.4292 11.9791 52.0646ZM14.0452 53.9871V47.115C14.454 47.4685 14.8848 47.811 15.3268 48.1535V55.0256C14.8848 54.6831 14.465 54.3406 14.0452 53.9871ZM8.78613 47.9104V40.4638C9.0292 40.8726 9.28331 41.2704 9.54847 41.6571V49.1037C9.27226 48.717 9.01815 48.3192 8.78613 47.9104ZM10.2224 50.0317V40.3423C10.5207 40.729 10.8411 41.1157 11.1726 41.4913V51.1808C10.8411 50.8051 10.5207 50.4184 10.2224 50.0317ZM7.68129 45.7118V34.7739C7.85807 35.1937 8.04589 35.6025 8.25581 36.0113V46.9492C8.04589 46.5515 7.85807 46.1316 7.68129 45.7118ZM27.1596 48.1425C16.0891 43.9441 8.43258 37.3261 6.83057 29.7358V45.292C8.43258 52.8822 16.0891 59.5112 27.1596 63.6986V48.1425Z" fill="#00B597"/>
<path opacity="0.502" d="M59.631 65.4333V61.92C61.5314 61.8205 63.4096 61.6658 65.2436 61.4559V64.9693C63.4096 65.1792 61.5424 65.3339 59.631 65.4333ZM50.6819 65.4444V59.0474C51.8198 59.1026 52.9799 59.1358 54.14 59.1468C54.9355 59.1579 55.731 59.1468 56.5154 59.1358V65.5328C55.731 65.5438 54.9355 65.5438 54.14 65.5438C52.9689 65.5328 51.8198 65.4996 50.6819 65.4444ZM42.042 64.6047V54.8269C43.8429 55.092 45.699 55.313 47.5773 55.4677V65.2455C45.699 65.0908 43.8539 64.8699 42.042 64.6047ZM68.1935 64.5605V54.2303C69.9834 53.9541 71.7401 53.6337 73.4415 53.247V63.5883C71.7401 63.9639 69.9834 64.2954 68.1935 64.5605ZM77.8609 49.7888C70.801 51.8328 62.7135 52.9597 54.14 52.8713C48.1628 52.8161 42.4619 52.1753 37.2139 51.0594V66.6155C42.4619 67.7314 48.1739 68.3722 54.14 68.4275C62.7135 68.5048 70.801 67.3779 77.8609 65.3449V49.7888Z" fill="#00B597"/>
<path opacity="0.502" d="M89.7487 54.2413V51.2251C97.4715 46.9383 102.499 41.2152 103.327 34.8624V37.8786C102.499 44.2314 97.4715 49.9545 89.7487 54.2413ZM103.438 42.762V27.1948C103.195 34.8072 96.9302 41.6019 87.1523 46.2864V61.8426C96.9302 57.1691 103.184 50.3743 103.438 42.762Z" fill="#00B597"/>
<path opacity="0.7529" d="M103.327 34.8623C102.509 41.2262 97.4714 46.9382 89.7485 51.225V54.2412C97.4714 49.9544 102.498 44.2313 103.327 37.8785V34.8623Z" fill="#00B597"/>
<path d="M47.588 55.4677C45.6987 55.313 43.8536 55.1031 42.0527 54.8269V64.6047C43.8536 64.8699 45.7097 65.0909 47.588 65.2455V55.4677Z" fill="#00B597"/>
<path d="M65.2434 61.4448C63.4094 61.6547 61.5312 61.8205 59.6309 61.9089V65.4222C61.5312 65.3228 63.4094 65.1681 65.2434 64.9582V61.4448Z" fill="#00B597"/>
<path d="M73.4413 53.2581C71.7399 53.6337 69.9942 53.9652 68.1934 54.2414V64.5716C69.9832 64.2954 71.7399 63.975 73.4413 63.5883V53.2581Z" fill="#00B597"/>
<path opacity="0.7529" d="M56.5045 59.1358C55.7201 59.1468 54.9246 59.1468 54.1291 59.1468C52.969 59.1358 51.8089 59.1026 50.671 59.0474V65.4444C51.8089 65.4996 52.969 65.5328 54.1291 65.5438C54.9246 65.5549 55.7201 65.5438 56.5045 65.5328V59.1358Z" fill="#00B597"/>
<path d="M8.25567 36.0113C8.04575 35.6026 7.85793 35.1827 7.68115 34.7739V45.7118C7.85793 46.1317 8.04575 46.5405 8.25567 46.9492V36.0113Z" fill="#00B597"/>
<path d="M9.54847 41.6571C9.27226 41.2594 9.01815 40.8616 8.78613 40.4639V47.9105C9.0292 48.3193 9.28331 48.717 9.54847 49.1037V41.6571Z" fill="#00B597"/>
<path opacity="0.7529" d="M11.1723 41.4913C10.8409 41.1157 10.5205 40.729 10.2222 40.3423V50.0317C10.5205 50.4184 10.8409 50.8051 11.1723 51.1808V41.4913Z" fill="#00B597"/>
<path d="M13.1061 46.8167C12.7194 46.4631 12.3438 46.0985 11.9902 45.7229V52.0647C12.3438 52.4293 12.7194 52.7939 13.1061 53.1585V46.8167Z" fill="#00B597"/>
<path opacity="0.7529" d="M15.3265 48.1535C14.8846 47.811 14.4537 47.4685 14.0449 47.115V53.9871C14.4537 54.3406 14.8846 54.6831 15.3265 55.0256V48.1535Z" fill="#00B597"/>
<path opacity="0.7529" d="M17.8347 51.9322C17.3376 51.6118 16.8625 51.2914 16.3984 50.96V55.8102C16.8625 56.1417 17.3486 56.4621 17.8347 56.7825V51.9322Z" fill="#00B597"/>
<path opacity="0.7529" d="M20.6082 52.7055C20.0669 52.4072 19.5365 52.1089 19.0283 51.7996V57.5116C19.5476 57.8209 20.0669 58.1192 20.6082 58.4175V52.7055Z" fill="#00B597"/>
<path opacity="0.7529" d="M23.6241 57.2905C23.0386 57.0254 22.464 56.7492 21.9116 56.4619V59.0914C22.4751 59.3787 23.0496 59.6439 23.6241 59.9201V57.2905Z" fill="#00B597"/>
<defs>
<linearGradient id="paint0_linear_2_13695" x1="29.5772" y1="60.8658" x2="43.2255" y2="60.8658" gradientUnits="userSpaceOnUse">
<stop stop-color="#5A64AD"/>
<stop offset="0.1833" stop-color="#5F7FB6"/>
<stop offset="0.3665" stop-color="#6399BF"/>
<stop offset="0.5432" stop-color="#67ADC6"/>
<stop offset="0.7114" stop-color="#6BBCCA"/>
<stop offset="0.8676" stop-color="#6DC5CC"/>
<stop offset="1" stop-color="#6DCACE"/>
</linearGradient>
<linearGradient id="paint1_linear_2_13695" x1="65.9192" y1="60.8454" x2="79.4924" y2="60.8454" gradientUnits="userSpaceOnUse">
<stop stop-color="#6DCACE"/>
<stop offset="0.1324" stop-color="#6DC5CC"/>
<stop offset="0.2886" stop-color="#6BBCCA"/>
<stop offset="0.4568" stop-color="#67ADC6"/>
<stop offset="0.6335" stop-color="#6399BF"/>
<stop offset="0.8167" stop-color="#5F7FB6"/>
<stop offset="1" stop-color="#5A64AD"/>
</linearGradient>
<linearGradient id="paint2_linear_2_13695" x1="28.8857" y1="81.8983" x2="80.0192" y2="81.8983" gradientUnits="userSpaceOnUse">
<stop stop-color="#5A64AD"/>
<stop offset="0.1833" stop-color="#5F7FB6"/>
<stop offset="0.3665" stop-color="#6399BF"/>
<stop offset="0.5432" stop-color="#67ADC6"/>
<stop offset="0.7114" stop-color="#6BBCCA"/>
<stop offset="0.8676" stop-color="#6DC5CC"/>
<stop offset="1" stop-color="#6DCACE"/>
</linearGradient>
<linearGradient id="paint3_linear_2_13695" x1="21.0261" y1="49.956" x2="78.4223" y2="49.956" gradientUnits="userSpaceOnUse">
<stop stop-color="#5A64AD"/>
<stop offset="0.1412" stop-color="#5F67B0"/>
<stop offset="0.3479" stop-color="#6E73B6"/>
<stop offset="0.5946" stop-color="#8587C1"/>
<stop offset="0.8701" stop-color="#A9A8D4"/>
<stop offset="1" stop-color="#BEBDDF"/>
</linearGradient>
<linearGradient id="paint4_linear_2_13695" x1="37.27" y1="42.6642" x2="71.7208" y2="42.6642" gradientUnits="userSpaceOnUse">
<stop stop-color="#6DCACE"/>
<stop offset="0.1324" stop-color="#6DC5CC"/>
<stop offset="0.2886" stop-color="#6BBCCA"/>
<stop offset="0.4568" stop-color="#67ADC6"/>
<stop offset="0.6335" stop-color="#6399BF"/>
<stop offset="0.8167" stop-color="#5F7FB6"/>
<stop offset="1" stop-color="#5A64AD"/>
</linearGradient>
<linearGradient id="paint5_linear_2_13695" x1="54.4949" y1="36.8107" x2="71.7205" y2="36.8107" gradientUnits="userSpaceOnUse">
<stop stop-color="#6DCACE"/>
<stop offset="0.1324" stop-color="#6DC5CC"/>
<stop offset="0.2886" stop-color="#6BBCCA"/>
<stop offset="0.4568" stop-color="#67ADC6"/>
<stop offset="0.6335" stop-color="#6399BF"/>
<stop offset="0.8167" stop-color="#5F7FB6"/>
<stop offset="1" stop-color="#5A64AD"/>
</linearGradient>
<linearGradient id="paint6_linear_2_13695" x1="37.27" y1="36.8105" x2="54.4957" y2="36.8105" gradientUnits="userSpaceOnUse">
<stop stop-color="#6DCACE"/>
<stop offset="0.1324" stop-color="#6DC5CC"/>
<stop offset="0.2886" stop-color="#6BBCCA"/>
<stop offset="0.4568" stop-color="#67ADC6"/>
<stop offset="0.6335" stop-color="#6399BF"/>
<stop offset="0.8167" stop-color="#5F7FB6"/>
<stop offset="1" stop-color="#5A64AD"/>
</linearGradient>
<linearGradient id="paint7_linear_2_13695" x1="37.27" y1="40.3067" x2="71.7208" y2="40.3067" gradientUnits="userSpaceOnUse">
<stop stop-color="#6DCACE"/>
<stop offset="0.1324" stop-color="#6DC5CC"/>
<stop offset="0.2886" stop-color="#6BBCCA"/>
<stop offset="0.4568" stop-color="#67ADC6"/>
<stop offset="0.6335" stop-color="#6399BF"/>
<stop offset="0.8167" stop-color="#5F7FB6"/>
<stop offset="1" stop-color="#5A64AD"/>
</linearGradient>
<linearGradient id="paint8_linear_2_13695" x1="54.4954" y1="46.1603" x2="71.7205" y2="46.1603" gradientUnits="userSpaceOnUse">
<stop stop-color="#6DCACE"/>
<stop offset="0.1324" stop-color="#6DC5CC"/>
<stop offset="0.2886" stop-color="#6BBCCA"/>
<stop offset="0.4568" stop-color="#67ADC6"/>
<stop offset="0.6335" stop-color="#6399BF"/>
<stop offset="0.8167" stop-color="#5F7FB6"/>
<stop offset="1" stop-color="#5A64AD"/>
</linearGradient>
<linearGradient id="paint9_linear_2_13695" x1="37.27" y1="46.1601" x2="54.4957" y2="46.1601" gradientUnits="userSpaceOnUse">
<stop stop-color="#6DCACE"/>
<stop offset="0.1324" stop-color="#6DC5CC"/>
<stop offset="0.2886" stop-color="#6BBCCA"/>
<stop offset="0.4568" stop-color="#67ADC6"/>
<stop offset="0.6335" stop-color="#6399BF"/>
<stop offset="0.8167" stop-color="#5F7FB6"/>
<stop offset="1" stop-color="#5A64AD"/>
</linearGradient>
<linearGradient id="paint10_linear_2_13695" x1="0.875663" y1="69.703" x2="38.9146" y2="69.703" gradientUnits="userSpaceOnUse">
<stop stop-color="#5A64AD"/>
<stop offset="0.1833" stop-color="#5F7FB6"/>
<stop offset="0.3665" stop-color="#6399BF"/>
<stop offset="0.5432" stop-color="#67ADC6"/>
<stop offset="0.7114" stop-color="#6BBCCA"/>
<stop offset="0.8676" stop-color="#6DC5CC"/>
<stop offset="1" stop-color="#6DCACE"/>
</linearGradient>
<linearGradient id="paint11_linear_2_13695" x1="0.875663" y1="66.9521" x2="38.9146" y2="66.9521" gradientUnits="userSpaceOnUse">
<stop stop-color="#5A64AD"/>
<stop offset="0.1833" stop-color="#5F7FB6"/>
<stop offset="0.3665" stop-color="#6399BF"/>
<stop offset="0.5432" stop-color="#67ADC6"/>
<stop offset="0.7114" stop-color="#6BBCCA"/>
<stop offset="0.8676" stop-color="#6DC5CC"/>
<stop offset="1" stop-color="#6DCACE"/>
</linearGradient>
<linearGradient id="paint12_linear_2_13695" x1="0.875663" y1="64.2009" x2="38.9146" y2="64.2009" gradientUnits="userSpaceOnUse">
<stop stop-color="#5A64AD"/>
<stop offset="0.1833" stop-color="#5F7FB6"/>
<stop offset="0.3665" stop-color="#6399BF"/>
<stop offset="0.5432" stop-color="#67ADC6"/>
<stop offset="0.7114" stop-color="#6BBCCA"/>
<stop offset="0.8676" stop-color="#6DC5CC"/>
<stop offset="1" stop-color="#6DCACE"/>
</linearGradient>
<linearGradient id="paint13_linear_2_13695" x1="0.875663" y1="61.45" x2="38.9146" y2="61.45" gradientUnits="userSpaceOnUse">
<stop stop-color="#5A64AD"/>
<stop offset="0.1833" stop-color="#5F7FB6"/>
<stop offset="0.3665" stop-color="#6399BF"/>
<stop offset="0.5432" stop-color="#67ADC6"/>
<stop offset="0.7114" stop-color="#6BBCCA"/>
<stop offset="0.8676" stop-color="#6DC5CC"/>
<stop offset="1" stop-color="#6DCACE"/>
</linearGradient>
<linearGradient id="paint14_linear_2_13695" x1="0.875488" y1="64.2155" x2="38.9144" y2="64.2155" gradientUnits="userSpaceOnUse">
<stop stop-color="#5A64AD"/>
<stop offset="0.1833" stop-color="#5F7FB6"/>
<stop offset="0.3665" stop-color="#6399BF"/>
<stop offset="0.5432" stop-color="#67ADC6"/>
<stop offset="0.7114" stop-color="#6BBCCA"/>
<stop offset="0.8676" stop-color="#6DC5CC"/>
<stop offset="1" stop-color="#6DCACE"/>
</linearGradient>
<linearGradient id="paint15_linear_2_13695" x1="0.875663" y1="61.45" x2="38.9146" y2="61.45" gradientUnits="userSpaceOnUse">
<stop stop-color="#5A64AD"/>
<stop offset="0.1833" stop-color="#5F7FB6"/>
<stop offset="0.3665" stop-color="#6399BF"/>
<stop offset="0.5432" stop-color="#67ADC6"/>
<stop offset="0.7114" stop-color="#6BBCCA"/>
<stop offset="0.8676" stop-color="#6DC5CC"/>
<stop offset="1" stop-color="#6DCACE"/>
</linearGradient>
<linearGradient id="paint16_linear_2_13695" x1="0.875612" y1="66.4081" x2="38.9141" y2="66.4081" gradientUnits="userSpaceOnUse">
<stop stop-color="#5A64AD"/>
<stop offset="0.1833" stop-color="#5F7FB6"/>
<stop offset="0.3665" stop-color="#6399BF"/>
<stop offset="0.5432" stop-color="#67ADC6"/>
<stop offset="0.7114" stop-color="#6BBCCA"/>
<stop offset="0.8676" stop-color="#6DC5CC"/>
<stop offset="1" stop-color="#6DCACE"/>
</linearGradient>
<linearGradient id="paint17_linear_2_13695" x1="70.0758" y1="69.7032" x2="108.115" y2="69.7032" gradientUnits="userSpaceOnUse">
<stop stop-color="#5A64AD"/>
<stop offset="0.1833" stop-color="#5F7FB6"/>
<stop offset="0.3665" stop-color="#6399BF"/>
<stop offset="0.5432" stop-color="#67ADC6"/>
<stop offset="0.7114" stop-color="#6BBCCA"/>
<stop offset="0.8676" stop-color="#6DC5CC"/>
<stop offset="1" stop-color="#6DCACE"/>
</linearGradient>
<linearGradient id="paint18_linear_2_13695" x1="70.0758" y1="66.9521" x2="108.115" y2="66.9521" gradientUnits="userSpaceOnUse">
<stop stop-color="#5A64AD"/>
<stop offset="0.1833" stop-color="#5F7FB6"/>
<stop offset="0.3665" stop-color="#6399BF"/>
<stop offset="0.5432" stop-color="#67ADC6"/>
<stop offset="0.7114" stop-color="#6BBCCA"/>
<stop offset="0.8676" stop-color="#6DC5CC"/>
<stop offset="1" stop-color="#6DCACE"/>
</linearGradient>
<linearGradient id="paint19_linear_2_13695" x1="70.0758" y1="64.2011" x2="108.115" y2="64.2011" gradientUnits="userSpaceOnUse">
<stop stop-color="#5A64AD"/>
<stop offset="0.1833" stop-color="#5F7FB6"/>
<stop offset="0.3665" stop-color="#6399BF"/>
<stop offset="0.5432" stop-color="#67ADC6"/>
<stop offset="0.7114" stop-color="#6BBCCA"/>
<stop offset="0.8676" stop-color="#6DC5CC"/>
<stop offset="1" stop-color="#6DCACE"/>
</linearGradient>
<linearGradient id="paint20_linear_2_13695" x1="70.0758" y1="61.4503" x2="108.115" y2="61.4503" gradientUnits="userSpaceOnUse">
<stop stop-color="#5A64AD"/>
<stop offset="0.1833" stop-color="#5F7FB6"/>
<stop offset="0.3665" stop-color="#6399BF"/>
<stop offset="0.5432" stop-color="#67ADC6"/>
<stop offset="0.7114" stop-color="#6BBCCA"/>
<stop offset="0.8676" stop-color="#6DC5CC"/>
<stop offset="1" stop-color="#6DCACE"/>
</linearGradient>
<linearGradient id="paint21_linear_2_13695" x1="70.0761" y1="64.2158" x2="108.115" y2="64.2158" gradientUnits="userSpaceOnUse">
<stop stop-color="#5A64AD"/>
<stop offset="0.1833" stop-color="#5F7FB6"/>
<stop offset="0.3665" stop-color="#6399BF"/>
<stop offset="0.5432" stop-color="#67ADC6"/>
<stop offset="0.7114" stop-color="#6BBCCA"/>
<stop offset="0.8676" stop-color="#6DC5CC"/>
<stop offset="1" stop-color="#6DCACE"/>
</linearGradient>
<linearGradient id="paint22_linear_2_13695" x1="70.0758" y1="61.4503" x2="108.115" y2="61.4503" gradientUnits="userSpaceOnUse">
<stop stop-color="#5A64AD"/>
<stop offset="0.1833" stop-color="#5F7FB6"/>
<stop offset="0.3665" stop-color="#6399BF"/>
<stop offset="0.5432" stop-color="#67ADC6"/>
<stop offset="0.7114" stop-color="#6BBCCA"/>
<stop offset="0.8676" stop-color="#6DC5CC"/>
<stop offset="1" stop-color="#6DCACE"/>
</linearGradient>
<linearGradient id="paint23_linear_2_13695" x1="70.0763" y1="66.4084" x2="108.115" y2="66.4084" gradientUnits="userSpaceOnUse">
<stop stop-color="#5A64AD"/>
<stop offset="0.1833" stop-color="#5F7FB6"/>
<stop offset="0.3665" stop-color="#6399BF"/>
<stop offset="0.5432" stop-color="#67ADC6"/>
<stop offset="0.7114" stop-color="#6BBCCA"/>
<stop offset="0.8676" stop-color="#6DC5CC"/>
<stop offset="1" stop-color="#6DCACE"/>
</linearGradient>
<linearGradient id="paint24_linear_2_13695" x1="72.3019" y1="89.3424" x2="36.5392" y2="89.3424" gradientUnits="userSpaceOnUse">
<stop stop-color="#5A64AD"/>
<stop offset="0.1833" stop-color="#5F7FB6"/>
<stop offset="0.3665" stop-color="#6399BF"/>
<stop offset="0.5432" stop-color="#67ADC6"/>
<stop offset="0.7114" stop-color="#6BBCCA"/>
<stop offset="0.8676" stop-color="#6DC5CC"/>
<stop offset="1" stop-color="#6DCACE"/>
</linearGradient>
<linearGradient id="paint25_linear_2_13695" x1="72.3019" y1="86.7561" x2="36.5392" y2="86.7561" gradientUnits="userSpaceOnUse">
<stop stop-color="#5A64AD"/>
<stop offset="0.1833" stop-color="#5F7FB6"/>
<stop offset="0.3665" stop-color="#6399BF"/>
<stop offset="0.5432" stop-color="#67ADC6"/>
<stop offset="0.7114" stop-color="#6BBCCA"/>
<stop offset="0.8676" stop-color="#6DC5CC"/>
<stop offset="1" stop-color="#6DCACE"/>
</linearGradient>
<linearGradient id="paint26_linear_2_13695" x1="72.302" y1="84.1695" x2="36.5393" y2="84.1695" gradientUnits="userSpaceOnUse">
<stop stop-color="#5A64AD"/>
<stop offset="0.1833" stop-color="#5F7FB6"/>
<stop offset="0.3665" stop-color="#6399BF"/>
<stop offset="0.5432" stop-color="#67ADC6"/>
<stop offset="0.7114" stop-color="#6BBCCA"/>
<stop offset="0.8676" stop-color="#6DC5CC"/>
<stop offset="1" stop-color="#6DCACE"/>
</linearGradient>
<linearGradient id="paint27_linear_2_13695" x1="72.3019" y1="81.5833" x2="36.5392" y2="81.5833" gradientUnits="userSpaceOnUse">
<stop stop-color="#5A64AD"/>
<stop offset="0.1833" stop-color="#5F7FB6"/>
<stop offset="0.3665" stop-color="#6399BF"/>
<stop offset="0.5432" stop-color="#67ADC6"/>
<stop offset="0.7114" stop-color="#6BBCCA"/>
<stop offset="0.8676" stop-color="#6DC5CC"/>
<stop offset="1" stop-color="#6DCACE"/>
</linearGradient>
<linearGradient id="paint28_linear_2_13695" x1="72.3019" y1="85.4628" x2="36.5393" y2="85.4628" gradientUnits="userSpaceOnUse">
<stop stop-color="#5A64AD"/>
<stop offset="0.1833" stop-color="#5F7FB6"/>
<stop offset="0.3665" stop-color="#6399BF"/>
<stop offset="0.5432" stop-color="#67ADC6"/>
<stop offset="0.7114" stop-color="#6BBCCA"/>
<stop offset="0.8676" stop-color="#6DC5CC"/>
<stop offset="1" stop-color="#6DCACE"/>
</linearGradient>
<linearGradient id="paint29_linear_2_13695" x1="76.1027" y1="77.1934" x2="32.7378" y2="77.1934" gradientUnits="userSpaceOnUse">
<stop stop-color="#5A64AD"/>
<stop offset="0.1833" stop-color="#5F7FB6"/>
<stop offset="0.3665" stop-color="#6399BF"/>
<stop offset="0.5432" stop-color="#67ADC6"/>
<stop offset="0.7114" stop-color="#6BBCCA"/>
<stop offset="0.8676" stop-color="#6DC5CC"/>
<stop offset="1" stop-color="#6DCACE"/>
</linearGradient>
<linearGradient id="paint30_linear_2_13695" x1="76.1027" y1="74.0572" x2="32.7378" y2="74.0572" gradientUnits="userSpaceOnUse">
<stop stop-color="#5A64AD"/>
<stop offset="0.1833" stop-color="#5F7FB6"/>
<stop offset="0.3665" stop-color="#6399BF"/>
<stop offset="0.5432" stop-color="#67ADC6"/>
<stop offset="0.7114" stop-color="#6BBCCA"/>
<stop offset="0.8676" stop-color="#6DC5CC"/>
<stop offset="1" stop-color="#6DCACE"/>
</linearGradient>
<linearGradient id="paint31_linear_2_13695" x1="76.1027" y1="70.921" x2="32.7378" y2="70.921" gradientUnits="userSpaceOnUse">
<stop stop-color="#5A64AD"/>
<stop offset="0.1833" stop-color="#5F7FB6"/>
<stop offset="0.3665" stop-color="#6399BF"/>
<stop offset="0.5432" stop-color="#67ADC6"/>
<stop offset="0.7114" stop-color="#6BBCCA"/>
<stop offset="0.8676" stop-color="#6DC5CC"/>
<stop offset="1" stop-color="#6DCACE"/>
</linearGradient>
<linearGradient id="paint32_linear_2_13695" x1="76.1027" y1="67.785" x2="32.7378" y2="67.785" gradientUnits="userSpaceOnUse">
<stop stop-color="#5A64AD"/>
<stop offset="0.1833" stop-color="#5F7FB6"/>
<stop offset="0.3665" stop-color="#6399BF"/>
<stop offset="0.5432" stop-color="#67ADC6"/>
<stop offset="0.7114" stop-color="#6BBCCA"/>
<stop offset="0.8676" stop-color="#6DC5CC"/>
<stop offset="1" stop-color="#6DCACE"/>
</linearGradient>
<linearGradient id="paint33_linear_2_13695" x1="76.1032" y1="72.4892" x2="32.7383" y2="72.4892" gradientUnits="userSpaceOnUse">
<stop stop-color="#5A64AD"/>
<stop offset="0.1833" stop-color="#5F7FB6"/>
<stop offset="0.3665" stop-color="#6399BF"/>
<stop offset="0.5432" stop-color="#67ADC6"/>
<stop offset="0.7114" stop-color="#6BBCCA"/>
<stop offset="0.8676" stop-color="#6DC5CC"/>
<stop offset="1" stop-color="#6DCACE"/>
</linearGradient>
<linearGradient id="paint34_linear_2_13695" x1="76.1027" y1="67.785" x2="32.7378" y2="67.785" gradientUnits="userSpaceOnUse">
<stop stop-color="#5A64AD"/>
<stop offset="0.1833" stop-color="#5F7FB6"/>
<stop offset="0.3665" stop-color="#6399BF"/>
<stop offset="0.5432" stop-color="#67ADC6"/>
<stop offset="0.7114" stop-color="#6BBCCA"/>
<stop offset="0.8676" stop-color="#6DC5CC"/>
<stop offset="1" stop-color="#6DCACE"/>
</linearGradient>
<linearGradient id="paint35_linear_2_13695" x1="76.1026" y1="73.4375" x2="32.7387" y2="73.4375" gradientUnits="userSpaceOnUse">
<stop stop-color="#5A64AD"/>
<stop offset="0.1833" stop-color="#5F7FB6"/>
<stop offset="0.3665" stop-color="#6399BF"/>
<stop offset="0.5432" stop-color="#67ADC6"/>
<stop offset="0.7114" stop-color="#6BBCCA"/>
<stop offset="0.8676" stop-color="#6DC5CC"/>
<stop offset="1" stop-color="#6DCACE"/>
</linearGradient>
<linearGradient id="paint36_linear_2_13695" x1="64.0623" y1="44.8893" x2="59.5008" y2="45.1538" gradientUnits="userSpaceOnUse">
<stop stop-color="#5A64AD"/>
<stop offset="0.1833" stop-color="#5F7FB6"/>
<stop offset="0.3665" stop-color="#6399BF"/>
<stop offset="0.5432" stop-color="#67ADC6"/>
<stop offset="0.7114" stop-color="#6BBCCA"/>
<stop offset="0.8676" stop-color="#6DC5CC"/>
<stop offset="1" stop-color="#6DCACE"/>
</linearGradient>
<linearGradient id="paint37_linear_2_13695" x1="57.6974" y1="46.6198" x2="48.1348" y2="47.1744" gradientUnits="userSpaceOnUse">
<stop stop-color="#5A64AD"/>
<stop offset="0.1833" stop-color="#5F7FB6"/>
<stop offset="0.3665" stop-color="#6399BF"/>
<stop offset="0.5432" stop-color="#67ADC6"/>
<stop offset="0.7114" stop-color="#6BBCCA"/>
<stop offset="0.8676" stop-color="#6DC5CC"/>
<stop offset="1" stop-color="#6DCACE"/>
</linearGradient>
<linearGradient id="paint38_linear_2_13695" x1="61.3924" y1="34.9653" x2="45.8206" y2="35.8685" gradientUnits="userSpaceOnUse">
<stop stop-color="#5A64AD"/>
<stop offset="0.1833" stop-color="#5F7FB6"/>
<stop offset="0.3665" stop-color="#6399BF"/>
<stop offset="0.5432" stop-color="#67ADC6"/>
<stop offset="0.7114" stop-color="#6BBCCA"/>
<stop offset="0.8676" stop-color="#6DC5CC"/>
<stop offset="1" stop-color="#6DCACE"/>
</linearGradient>
</defs>
</svg>
