<svg width="88" height="99" viewBox="0 0 88 99" fill="none" xmlns="http://www.w3.org/2000/svg">
<path d="M84.1368 20.2139C85.003 20.4348 85.8516 20.6735 86.6825 20.9122V27.0642C85.8516 26.8255 85.003 26.5869 84.1368 26.3659V20.2139Z" fill="#00B597"/>
<path opacity="0.5" d="M78.2412 20.4702C79.1605 20.647 80.0709 20.8326 80.9725 21.0359V25.6057C80.0798 25.4113 79.1693 25.2168 78.2412 25.04V20.4702Z" fill="#00B597"/>
<path d="M71.9835 15.4673C72.9558 15.591 73.9192 15.7324 74.8739 15.8827V24.4567C73.9192 24.3064 72.9558 24.165 71.9835 24.0412V15.4673Z" fill="#00B597"/>
<path opacity="0.5" d="M65.3891 10.0576C66.4056 10.1283 67.4221 10.2167 68.4209 10.314V23.6257C67.4221 23.5284 66.4056 23.44 65.3891 23.3693V10.0576Z" fill="#00B597"/>
<path opacity="0.5" d="M58.5298 12.9214C59.5905 12.9391 60.6423 12.9656 61.6853 13.0098V23.1659C60.6423 23.1217 59.5905 23.0952 58.5298 23.0775V12.9214Z" fill="#00B597"/>
<path d="M51.5913 2.2881C52.6255 2.24391 53.6685 2.21739 54.7204 2.19971V23.0777C53.6685 23.0954 52.6255 23.1219 51.5913 23.1661V2.2881Z" fill="#00B597"/>
<path d="M44.8911 6.58396C45.8899 6.48673 46.8888 6.39835 47.9052 6.32764V23.3606C46.8888 23.4313 45.8811 23.5197 44.8911 23.6169V6.58396Z" fill="#00B597"/>
<path d="M38.4653 1.02408C39.4111 0.873817 40.3746 0.741229 41.3469 0.608643V24.0234C40.3746 24.1472 39.4111 24.2886 38.4653 24.4389V1.02408Z" fill="#00B597"/>
<g opacity="0.5">
<g opacity="0.11">
<path opacity="0.11" d="M53.598 74.6187C52.5903 74.0353 51.3528 74.0353 50.3452 74.6187L30.9433 85.8002C30.634 85.9769 30.634 86.4189 30.9433 86.5957L50.5131 97.8921C51.4059 98.4047 52.4931 98.4047 53.3858 97.8921L72.9821 86.6045C73.2915 86.4277 73.2915 85.9858 72.9821 85.809L53.598 74.6187Z" fill="url(#paint0_linear_2_13851)"/>
</g>
<g opacity="0.11">
<path opacity="0.11" d="M53.598 71.3482C52.5903 70.7648 51.3528 70.7648 50.3452 71.3482L30.9433 82.5297C30.634 82.7064 30.634 83.1484 30.9433 83.3252L50.5131 94.6216C51.4059 95.1342 52.4931 95.1342 53.3858 94.6216L72.9821 83.334C73.2915 83.1572 73.2915 82.7153 72.9821 82.5385L53.598 71.3482Z" fill="url(#paint1_linear_2_13851)"/>
</g>
<g opacity="0.11">
<path opacity="0.11" d="M53.598 68.0867C52.5903 67.5033 51.3528 67.5033 50.3452 68.0867L30.9433 79.2682C30.634 79.445 30.634 79.8869 30.9433 80.0637L50.5131 91.3601C51.4059 91.8727 52.4931 91.8727 53.3858 91.3601L72.9821 80.0725C73.2915 79.8958 73.2915 79.4538 72.9821 79.277L53.598 68.0867Z" fill="url(#paint2_linear_2_13851)"/>
</g>
<g opacity="0.11">
<path opacity="0.11" d="M53.598 64.816C52.5903 64.2326 51.3528 64.2326 50.3452 64.816L30.9433 75.9974C30.634 76.1742 30.634 76.6162 30.9433 76.7929L50.5131 88.0893C51.4059 88.602 52.4931 88.602 53.3858 88.0893L72.9821 76.8018C73.2915 76.625 73.2915 76.1831 72.9821 76.0063L53.598 64.816Z" fill="url(#paint3_linear_2_13851)"/>
</g>
<path opacity="0.11" d="M72.973 75.9975L53.5977 64.8072C52.5901 64.2238 51.3526 64.2238 50.3449 64.8072L30.9431 75.9886C30.7928 76.077 30.7133 76.2273 30.7133 76.3864V86.189C30.7133 86.3392 30.7928 86.4983 30.9431 86.5867L50.5129 97.8831C51.4056 98.3958 52.4928 98.3958 53.3856 97.8831L72.9819 86.5956C73.1322 86.5072 73.2117 86.3569 73.2117 86.1978V76.3952C73.194 76.245 73.1233 76.0859 72.973 75.9975Z" fill="url(#paint4_linear_2_13851)"/>
</g>
<g opacity="0.11">
<path opacity="0.11" d="M53.598 61.0945C52.5903 60.5111 51.3528 60.5111 50.3452 61.0945L30.9433 72.276C30.634 72.4528 30.634 72.8947 30.9433 73.0715L50.5131 84.3679C51.4059 84.8806 52.4931 84.8806 53.3858 84.3679L72.9821 73.0803C73.2915 72.9036 73.2915 72.4616 72.9821 72.2848L53.598 61.0945Z" fill="url(#paint5_linear_2_13851)"/>
</g>
<g opacity="0.11">
<path opacity="0.11" d="M53.598 57.8243C52.5903 57.2409 51.3528 57.2409 50.3452 57.8243L30.9433 69.0057C30.634 69.1825 30.634 69.6245 30.9433 69.8012L50.5131 81.0976C51.4059 81.6103 52.4931 81.6103 53.3858 81.0976L72.9821 69.8101C73.2915 69.6333 73.2915 69.1913 72.9821 69.0146L53.598 57.8243Z" fill="url(#paint6_linear_2_13851)"/>
</g>
<g opacity="0.11">
<path opacity="0.11" d="M53.598 54.5625C52.5903 53.9792 51.3528 53.9792 50.3452 54.5625L30.9433 65.744C30.634 65.9208 30.634 66.3627 30.9433 66.5395L50.5131 77.8359C51.4059 78.3486 52.4931 78.3486 53.3858 77.8359L72.9821 66.5484C73.2915 66.3716 73.2915 65.9296 72.9821 65.7529L53.598 54.5625Z" fill="url(#paint7_linear_2_13851)"/>
</g>
<g opacity="0.11">
<path opacity="0.11" d="M53.598 51.292C52.5903 50.7086 51.3528 50.7086 50.3452 51.292L30.9433 62.4735C30.634 62.6503 30.634 63.0922 30.9433 63.269L50.5131 74.5654C51.4059 75.0781 52.4931 75.0781 53.3858 74.5654L72.9821 63.2779C73.2915 63.1011 73.2915 62.6591 72.9821 62.4823L53.598 51.292Z" fill="url(#paint8_linear_2_13851)"/>
</g>
<path opacity="0.11" d="M72.973 62.4736L53.5977 51.2832C52.5901 50.6999 51.3526 50.6999 50.3449 51.2832L30.9431 62.4647C30.7928 62.5531 30.7133 62.7034 30.7133 62.8625V72.665C30.7133 72.8153 30.7928 72.9744 30.9431 73.0628L50.5129 84.3592C51.4056 84.8718 52.4928 84.8718 53.3856 84.3592L72.9819 73.0716C73.1322 72.9833 73.2117 72.833 73.2117 72.6739V62.8713C73.194 62.721 73.1233 62.5619 72.973 62.4736Z" fill="url(#paint9_linear_2_13851)"/>
<g opacity="0.11">
<path opacity="0.11" d="M53.5971 47.5708C52.5894 46.9875 51.352 46.9875 50.3443 47.5708L30.9425 58.7523C30.6331 58.9291 30.6331 59.371 30.9425 59.5478L50.5122 70.8442C51.405 71.3569 52.4922 71.3569 53.385 70.8442L72.9813 59.5567C73.2906 59.3799 73.2906 58.9379 72.9813 58.7612L53.5971 47.5708Z" fill="url(#paint10_linear_2_13851)"/>
</g>
<g opacity="0.11">
<path opacity="0.11" d="M53.5971 44.3091C52.5894 43.7257 51.352 43.7257 50.3443 44.3091L30.9425 55.4906C30.6331 55.6674 30.6331 56.1093 30.9425 56.2861L50.5122 67.5825C51.405 68.0952 52.4922 68.0952 53.385 67.5825L72.9813 56.2949C73.2906 56.1182 73.2906 55.6762 72.9813 55.4994L53.5971 44.3091Z" fill="url(#paint11_linear_2_13851)"/>
</g>
<g opacity="0.11">
<path opacity="0.11" d="M53.5971 41.0386C52.5894 40.4552 51.352 40.4552 50.3443 41.0386L30.9425 52.2201C30.6331 52.3969 30.6331 52.8388 30.9425 53.0156L50.5122 64.312C51.405 64.8247 52.4922 64.8247 53.385 64.312L72.9813 53.0244C73.2906 52.8477 73.2906 52.4057 72.9813 52.2289L53.5971 41.0386Z" fill="url(#paint12_linear_2_13851)"/>
</g>
<g opacity="0.11">
<path opacity="0.11" d="M53.5971 37.7681C52.5894 37.1847 51.352 37.1847 50.3443 37.7681L30.9425 48.9496C30.6331 49.1264 30.6331 49.5683 30.9425 49.7451L50.5122 61.0415C51.405 61.5541 52.4922 61.5541 53.385 61.0415L72.9813 49.7539C73.2906 49.5771 73.2906 49.1352 72.9813 48.9584L53.5971 37.7681Z" fill="url(#paint13_linear_2_13851)"/>
</g>
<path opacity="0.5" d="M72.9727 48.9496L53.5973 37.7593C52.5897 37.1759 51.3522 37.1759 50.3445 37.7593L30.9427 48.9408C30.7924 49.0292 30.7129 49.1794 30.7129 49.3386V59.1411C30.7129 59.2914 30.7924 59.4505 30.9427 59.5389L50.5125 70.8353C51.4052 71.3479 52.4924 71.3479 53.3852 70.8353L72.9815 59.5477C73.1318 59.4593 73.2113 59.3091 73.2113 59.15V49.3474C73.1936 49.1971 73.1229 49.038 72.9727 48.9496Z" fill="url(#paint14_linear_2_13851)"/>
<g opacity="0.11">
<path opacity="0.11" d="M53.5971 37.7681C52.5894 37.1847 51.352 37.1847 50.3443 37.7681L30.9425 48.9496C30.6331 49.1264 30.6331 49.5683 30.9425 49.7451L50.5122 61.0415C51.405 61.5541 52.4922 61.5541 53.385 61.0415L72.9813 49.7539C73.2906 49.5771 73.2906 49.1352 72.9813 48.9584L53.5971 37.7681Z" fill="url(#paint15_linear_2_13851)"/>
</g>
<path d="M72.9729 49.2945L53.3766 60.582C52.4838 61.0947 51.3966 61.0947 50.5038 60.582L30.9341 49.2856C30.8545 49.2414 30.8015 49.1795 30.7661 49.1177C30.6512 49.321 30.7042 49.6038 30.9341 49.7364L50.5038 61.0328C51.3966 61.5455 52.4838 61.5455 53.3766 61.0328L72.9729 49.7453C73.2027 49.6127 73.2557 49.3298 73.1408 49.1265C73.0966 49.1884 73.0436 49.2503 72.9729 49.2945Z" fill="url(#paint16_linear_2_13851)"/>
<path d="M32.9858 52.7506L33.472 53.0246V52.7064L32.9858 52.4236V52.7506Z" fill="#00B597"/>
<path d="M32.9858 54.9338L33.472 55.2166V53.3251L32.9858 53.0422V54.9338Z" fill="#00B597"/>
<path d="M32.9858 55.9769L33.472 56.2597V55.5084L32.9858 55.2344V55.9769Z" fill="#00B597"/>
<path d="M32.9858 57.0641L33.472 57.3469V56.5956L32.9858 56.3127V57.0641Z" fill="#00B597"/>
<path d="M32.27 53.3783L32.7473 53.6611V52.9098L32.27 52.627V53.3783Z" fill="#00B597"/>
<path d="M32.27 54.8188L32.7473 55.0928V53.9879L32.27 53.7139V54.8188Z" fill="#00B597"/>
<path d="M32.27 56.136L32.7473 56.41V55.473L32.27 55.1902V56.136Z" fill="#00B597"/>
<path d="M32.9858 58.1512L33.472 58.4252V57.6739L32.9858 57.3999V58.1512Z" fill="#00B597"/>
<path d="M32.27 52.3351L32.7473 52.6091V52.2909L32.27 52.0081V52.3351Z" fill="#00B597"/>
<path d="M32.623 58.991L33.4716 59.4772V59.1678L32.623 58.6816V58.991Z" fill="#00B597"/>
<path opacity="0.2" d="M51.9541 55.3847C57.7096 55.3847 62.3754 52.6937 62.3754 49.3741C62.3754 46.0545 57.7096 43.3635 51.9541 43.3635C46.1985 43.3635 41.5328 46.0545 41.5328 49.3741C41.5328 52.6937 46.1985 55.3847 51.9541 55.3847Z" fill="#211C58"/>
<path d="M52.0073 44.4153L52.025 44.5125L52.0515 44.4506C52.0515 44.4506 52.1929 44.9368 52.0692 45.1754C51.9455 45.4141 51.7687 45.7146 51.5123 46.0593C51.256 46.3952 50.8406 47.1024 50.7345 47.2349C50.6284 47.3675 50.0008 47.8979 49.2142 47.9774C48.4275 48.057 48.2242 47.6062 48.2949 47.3675C48.3568 47.12 48.7811 46.4748 49.2407 45.9533C49.7003 45.4229 50.0539 44.7512 50.0539 44.7512L52.0073 44.4153Z" fill="#211B58"/>
<path d="M49.6387 42.285C49.6387 42.285 49.6652 42.7888 49.6121 43.001C49.5591 43.2043 48.4012 43.275 47.9946 43.328C47.588 43.3811 46.872 43.6728 46.6422 43.7877C46.4212 43.8937 44.9186 44.0528 44.733 43.5048C44.5473 42.9479 45.4843 42.4883 46.1207 42.3381C46.7571 42.1878 47.7913 41.8784 47.7913 41.8784L49.6387 42.285Z" fill="#211B58"/>
<path d="M53.6512 32.2882C53.6512 32.2882 53.6954 33.7025 53.2181 35.6559C52.7496 37.6093 52.8027 38.9794 52.8027 38.9794C52.8027 38.9794 53.2977 41.1892 52.8645 42.7007C52.4314 44.2122 52.0602 44.6276 52.0602 44.6276C52.0602 44.6276 51.194 45.7767 50.0537 44.7513C50.0537 44.7513 50.6901 42.683 50.7697 41.0301C50.7697 41.0301 50.204 39.8191 50.0095 38.7407C50.0095 38.7407 49.8504 40.4555 49.7532 41.1538C49.7532 41.1538 49.8504 42.1703 49.5764 42.5858C49.3024 43.0012 48.0826 43.1161 47.6848 42.4001C47.2959 41.6842 48.0119 42.0377 47.7909 38.7407C47.7909 38.7407 46.6595 37.3353 46.5004 34.7455C46.3413 32.1556 46.3501 31.1303 46.5004 30.6264C46.6507 30.1226 49.1433 28.3018 49.1433 28.3018L50.5575 30.1049L53.6512 32.2882Z" fill="#282567"/>
<path d="M49.9477 39.3681C49.8769 39.1295 49.8151 38.882 49.7709 38.6433C49.7709 38.6433 49.6118 40.3581 49.5145 41.0564C49.5145 41.0564 49.6118 42.0729 49.3378 42.4883C49.161 42.7535 48.5953 42.8949 48.1091 42.7712C48.6306 43.0187 49.3731 42.8772 49.5764 42.5679C49.8504 42.1524 49.7532 41.1359 49.7532 41.1359C49.8062 40.7293 49.8946 39.9338 49.9477 39.3681Z" fill="url(#paint17_linear_2_13851)"/>
<path d="M53.6513 32.288L50.5664 30.0959L49.1522 28.2927C49.1522 28.2927 49.1168 28.3192 49.0461 28.3723L50.3278 30.0075L53.4126 32.1996C53.4126 32.1996 53.4568 33.6139 52.9795 35.5673C52.511 37.5208 52.5641 38.8908 52.5641 38.8908C52.5641 38.8908 53.0591 41.1006 52.6259 42.6121C52.1928 44.1236 51.8216 44.539 51.8216 44.539C51.8216 44.539 51.2912 45.2373 50.5134 45.0517C51.415 45.4671 52.0602 44.6186 52.0602 44.6186C52.0602 44.6186 52.4315 44.1943 52.8646 42.6916C53.2977 41.1801 52.8027 38.9704 52.8027 38.9704C52.8027 38.9704 52.7497 37.6003 53.2182 35.6469C53.6866 33.7023 53.6513 32.288 53.6513 32.288Z" fill="url(#paint18_linear_2_13851)"/>
<path d="M48.0828 35.1784C47.6762 34.6923 47.4464 33.1631 47.4464 33.1631C47.4464 33.1631 48.0828 34.4448 48.5336 34.8248C48.9932 35.1961 49.3821 35.9474 49.4617 36.4336C49.5412 36.9197 50.0009 38.7317 50.0009 38.7317C50.0009 38.7317 49.8418 40.4465 49.7445 41.1448C49.7445 41.1448 49.8418 42.1613 49.5678 42.5767C49.5147 42.6563 49.4175 42.727 49.3026 42.7889C49.3026 42.7712 49.3733 40.5172 49.3026 39.5626C49.2407 38.5991 48.4894 35.6646 48.0828 35.1784Z" fill="#211B58"/>
<path d="M57.408 21.8579C57.408 21.8579 58.4864 23.9616 58.5925 24.1296C58.6986 24.2887 60.7227 26.8608 60.9172 28.3458C60.9172 28.3458 61.0674 28.9204 60.378 29.433C59.6797 29.9457 56.1794 32.1643 55.9584 32.1997C55.7375 32.235 54.4735 31.6163 54.4204 30.2285C54.4204 30.2285 57.1694 28.9469 57.7616 28.3105C57.7616 28.3105 56.6921 26.5161 56.1706 25.9858C56.038 25.8532 55.9584 25.6145 55.9231 25.3228C55.7551 24.1472 56.2148 22.9628 57.0987 22.1584L57.408 21.8579Z" fill="#4B4A9F"/>
<path d="M49.3467 16.9256C49.3467 16.9256 47.6761 17.5444 47.1104 17.3322C46.5447 17.1201 45.1393 16.9433 44.1846 16.4041C43.2212 15.865 39.0314 14.7866 38.4127 14.7512C38.4127 14.7512 38.4039 14.7777 38.5011 14.8219C38.6072 14.8661 39.0314 14.9015 39.1552 15.3876C39.2701 15.8738 39.0138 16.466 38.943 16.5014C38.8723 16.5456 38.8281 16.3688 38.4304 16.1832C38.0326 15.9975 37.7851 16.0064 37.7851 16.0064L37.6349 16.2008L37.5465 16.3423C37.5465 16.3423 37.7409 16.9345 38.2801 16.9698C38.8193 17.014 42.2665 18.4548 42.4875 18.5167C42.7085 18.5786 45.5989 19.8337 46.1469 20.0282C46.6861 20.2226 47.1104 20.4701 47.1104 20.4701C47.1104 20.4701 48.7986 19.3387 48.8605 19.3387C48.8959 19.3387 49.3467 16.9256 49.3467 16.9256Z" fill="#282567"/>
<path d="M34.2583 14.0443C34.329 14.0619 35.2041 14.3536 35.2041 14.3536C35.2041 14.3536 34.8593 14.5304 34.824 14.6895C34.7886 14.8486 34.8947 15.7325 34.93 15.7856C34.9654 15.8386 35.1422 15.9624 35.1952 15.9889C35.2483 16.0242 35.3808 16.3248 35.5134 16.2894C35.6372 16.254 35.6725 16.0949 35.6725 16.0949C35.6725 16.0949 35.7698 16.0419 35.7963 16.0242C35.8228 16.0065 36.4504 16.0596 36.6537 16.1922C36.857 16.3248 37.3343 16.3955 37.5199 16.3336C37.7144 16.2717 37.9972 16.1303 38.0591 16.0949C38.0591 16.0949 38.2712 16.1303 38.395 16.1922C38.5187 16.254 38.89 16.5104 38.9518 16.5281C39.0049 16.5457 39.7916 15.0254 38.395 14.7337C38.395 14.7337 37.8204 14.6807 37.5641 14.5658C37.3166 14.442 36.6095 13.9028 36.3531 13.894C36.0968 13.8852 35.8228 13.9736 35.8228 13.9736C35.8228 13.9736 34.2494 13.5228 34.1168 13.6642C34.0019 13.8056 34.1964 14.0266 34.2583 14.0443ZM35.3985 15.0873C35.5841 15.0961 35.7167 14.8928 35.7167 14.8928C35.8405 14.9724 35.9554 14.8751 35.9554 14.8751C35.9554 14.9017 36.1675 14.9459 36.1675 14.9459C36.1675 14.9459 36.2648 15.0254 36.3885 15.1138C36.5122 15.2022 36.3443 15.4674 36.3443 15.4674C36.2294 15.4762 36.088 15.4143 35.9731 15.3613C35.8582 15.3083 35.7521 15.3083 35.6725 15.2817C35.6018 15.2552 35.3985 15.0873 35.3985 15.0873Z" fill="#FCD1C6"/>
<path d="M46.5093 30.6264C46.6595 30.1226 49.1522 28.3018 49.1522 28.3018L49.8505 29.1945L50.4515 31.5369L53.6424 32.5269C53.6424 32.5269 53.4745 34.1267 50.8758 33.9411C48.2683 33.7555 47.9677 31.7402 47.9677 31.7402C47.9677 31.7402 47.676 32.4031 46.3944 32.5799C46.3679 31.5104 46.412 30.9535 46.5093 30.6264Z" fill="#211B58"/>
<path d="M54.2437 18.2338L54.6857 19.3652C54.6857 19.3652 56.807 21.1949 57.4081 21.8579C57.4081 21.8579 56.3651 23.8643 56.1706 25.9769C56.1706 25.9769 55.1983 26.7636 54.9066 27.126C54.6149 27.4884 53.8725 29.1678 53.6338 29.7247C53.3951 30.2815 54.0581 31.9433 54.0581 31.9433C54.0581 31.9433 53.1565 33.605 51.7069 33.552C50.2573 33.499 49.2673 32.6151 49.0905 31.0417C48.9049 29.4683 48.9579 29.2385 48.9579 29.2385C48.9579 29.2385 48.3038 31.1654 47.3227 31.1654C46.3327 31.1654 44.7682 29.486 44.7682 29.486C44.7682 29.486 43.7075 28.5226 43.8047 28.0894C43.9019 27.6563 46.2973 23.8997 46.4211 23.281C46.5537 22.6622 47.084 20.4525 47.084 20.4525L49.338 16.908L50.7169 16.9698L54.2437 18.2338Z" fill="#47419A"/>
<path d="M51.6455 33.1633C50.2578 33.1102 49.3032 32.2882 49.0645 30.8474C49.0734 30.9181 49.0822 30.98 49.091 31.0507C49.2767 32.6241 50.2666 33.508 51.7074 33.561C53.157 33.614 54.0586 31.9523 54.0586 31.9523C54.0586 31.9523 54.0144 31.8285 53.9437 31.6429C53.7316 31.9788 52.8919 33.2074 51.6455 33.1633Z" fill="url(#paint19_linear_2_13851)"/>
<path d="M54.2436 18.2339C54.2436 18.2339 54.2525 18.9057 53.9873 19.5774C53.7221 20.2404 52.8559 24.0058 50.8848 25.2875L50.1246 25.7648V23.3694C50.1246 23.3694 50.1423 21.8933 50.4782 20.9652C50.814 20.0282 50.8052 18.8968 50.8052 18.8968C50.8052 18.8968 51.3532 18.7466 51.3621 18.7554C51.3532 18.7642 54.2436 18.2339 54.2436 18.2339Z" fill="#F1F6FC"/>
<path d="M51.8127 19.9841C51.8127 19.9841 51.4591 20.1255 51.3089 19.8957C51.1586 19.6659 50.9995 19.2062 51.0437 18.9941C51.0437 18.9941 50.1156 19.0383 49.93 18.5521C49.7444 18.066 49.9477 17.9334 49.9742 17.7831C50.0007 17.6329 50.0272 17.2351 50.1598 16.9434L50.1775 16.8197C50.1775 16.8197 49.9918 16.6606 50.0714 16.4838C50.1598 16.3159 50.6636 15.7855 50.7167 15.6883C50.7697 15.5999 50.7078 14.937 50.9023 14.6099C51.0967 14.2829 51.4857 13.8232 51.4857 13.8232C51.4857 13.8232 53.4745 12.2764 55.0301 13.8232C56.5947 15.3701 54.2346 18.2251 54.2346 18.2251C54.2346 18.2251 54.049 19.1444 53.5894 19.5156C53.1386 19.8868 51.8127 19.9841 51.8127 19.9841Z" fill="#FCD1C6"/>
<path d="M53.2618 16.2098C53.2618 16.1567 53.2706 16.0949 53.2883 16.0418C53.3502 15.8739 53.4474 15.4142 52.9701 15.0695C52.369 14.6364 51.3172 14.2475 51.3525 13.8144C51.3879 13.3813 53.0408 12.3029 54.2694 12.8774C55.4981 13.452 56.6472 14.9104 55.8074 16.4484C54.9677 17.9864 54.2341 18.2428 54.2341 18.2428C54.2341 18.2428 53.9866 18.1897 54.2076 17.9334C54.4285 17.6771 54.8351 17.0318 54.4993 16.8285C54.1634 16.6252 53.58 17.0672 53.5004 17.1644C53.4739 17.1998 53.4386 17.2528 53.412 17.297C53.3679 17.3677 53.2795 17.4031 53.1999 17.3589L53.1734 17.3412C53.0938 17.3058 53.0585 17.2174 53.085 17.1379L53.2353 16.7401C53.2529 16.6782 53.2706 16.6164 53.2706 16.5545L53.2618 16.2098Z" fill="#AB8483"/>
<path d="M51.866 20.4172C51.866 20.4172 52.3079 20.7355 52.5642 21.3365C52.5642 21.3365 52.0958 20.8504 51.8218 20.7531C51.8218 20.7531 51.3002 21.0006 51.3002 21.1597C51.3002 21.3188 51.2472 22.3 51.1323 22.8215C51.0086 23.343 51.0262 25.1904 51.0262 25.1904L50.6992 25.4113L50.5401 24.5981L50.602 22.8745L50.9113 21.3011C50.9113 21.3011 50.9644 20.7089 50.9909 20.6736C51.0086 20.6382 51.866 20.4172 51.866 20.4172Z" fill="#C4CBD5"/>
<path d="M51.8656 20.4171C51.8656 20.4171 51.3618 19.8779 51.1055 19.8691C50.8491 19.8602 50.7165 19.9928 50.7077 20.0282C50.6989 20.0635 50.4602 20.9032 50.4602 20.9032C50.4602 20.9032 49.9829 22.3705 50.0359 24.0765C50.089 25.7824 50.1243 25.7736 50.1243 25.7736L50.7519 25.3758C50.7519 25.3758 50.584 24.156 50.9198 22.7418C51.2646 21.3275 50.964 21.1154 51.1231 20.9651C51.2911 20.806 51.9452 20.585 51.8656 20.4171Z" fill="#282567"/>
<path d="M54.898 27.1259C54.6063 27.4883 53.8815 29.1678 53.6428 29.7246C53.6075 29.813 53.5721 29.9368 53.5809 30.0694C53.5191 30.1047 53.4837 30.1312 53.4837 30.1312L53.1655 29.8219C53.1655 29.8219 53.4484 28.7965 53.908 27.5237C54.3676 26.2509 56.162 25.968 56.162 25.968C56.162 25.968 55.1985 26.7635 54.898 27.1259Z" fill="#282567"/>
<path d="M54.4113 30.2638C54.4113 30.2638 53.8986 29.5125 53.7306 29.4153C53.7306 29.4153 53.766 29.6274 53.4743 29.76C53.1826 29.8926 51.6534 30.4848 51.6004 30.5555C51.5474 30.6262 51.6004 30.7058 51.7065 30.7323C51.7065 30.7323 51.3883 30.8384 51.2557 30.8384C51.1231 30.8384 50.9552 30.9975 51.0347 31.1389C51.1231 31.2803 51.1938 31.2715 51.1938 31.2715C51.1938 31.2715 51.1585 31.4306 51.2468 31.4659C51.3441 31.5013 51.5739 31.5101 51.5739 31.5101C51.5739 31.5101 51.5297 31.6693 51.6534 31.7311C51.7772 31.793 52.4048 31.8637 52.4048 31.8637C52.4048 31.8637 52.8909 31.8107 53.0323 31.8107C53.1738 31.8107 53.8014 31.9609 54.0754 31.9256C54.3405 31.8902 55.2333 31.572 55.3217 31.519C55.4101 31.4571 54.4113 30.2638 54.4113 30.2638Z" fill="#FCD1C6"/>
<path d="M54.7827 19.7278L54.7209 20.7354L54.1728 20.9034L54.5352 21.2039C54.5352 21.2039 53.0591 24.5628 51.1675 25.6235C51.1675 25.6235 52.9707 24.9871 54.6678 21.2304C54.6678 21.2304 54.491 21.0183 54.438 20.9564L54.8181 20.7885L54.7827 19.7278Z" fill="#282567"/>
<path d="M49.9566 19.6216C49.9566 19.6216 49.2848 23.0512 49.8594 25.6322C49.8594 25.6322 49.1699 24.3859 49.7975 19.6216H49.9566Z" fill="#282567"/>
<path d="M34.8599 14.6099C34.9572 14.4773 35.2047 14.3447 35.2047 14.3447C35.2047 14.3447 35.9206 14.6364 36.0444 14.6895C36.0444 14.6983 35.3107 14.6187 34.8599 14.6099Z" fill="#E2B1A6"/>
<path d="M38.9613 16.5366C38.9348 16.5278 38.8199 16.4571 38.6961 16.3775C39.1735 15.7411 38.652 14.8218 38.6431 14.813C39.695 15.2196 39.0144 16.5543 38.9613 16.5366Z" fill="#E2B1A6"/>
<path d="M55.3134 31.5015C55.2427 31.5368 54.7389 31.7224 54.3765 31.8285C54.3765 31.8285 54.1378 30.9004 54.1908 30.591C54.2439 30.2816 54.3765 30.2109 54.3765 30.2109C54.3941 30.2375 54.4118 30.264 54.4118 30.264C54.4118 30.264 55.4106 31.4573 55.3134 31.5015Z" fill="#E2B1A6"/>
<path d="M54.4114 30.2197C54.4114 30.2197 54.2523 30.7589 54.6147 31.1744C54.9771 31.5898 55.0213 31.6428 55.0213 31.6428H55.4367C55.4367 31.6428 55.6489 30.9887 55.6224 30.9711C55.587 30.9534 54.4114 30.2197 54.4114 30.2197Z" fill="#4B4A9F"/>
<path d="M50.5398 20.6206C50.5398 20.6206 50.142 22.9718 50.2304 23.838C50.3188 24.7043 50.2834 25.6324 50.2834 25.6324L50.1597 25.7385L50.1243 25.765C50.1243 25.765 50.0801 25.7827 50.0359 24.0679C49.9829 22.3619 50.4602 20.8946 50.4602 20.8946C50.4602 20.8946 50.4956 20.7797 50.5398 20.6206Z" fill="#282567"/>
<path d="M50.4077 45.0077C50.2927 44.9458 50.169 44.8574 50.0452 44.7513C50.0452 44.7513 50.6817 42.683 50.7612 41.0301C50.7612 41.0301 50.1955 39.8191 50.0011 38.7407C50.0541 38.9529 50.7082 40.1196 51.0087 41.3041C51.3092 42.4885 50.4077 45.0077 50.4077 45.0077Z" fill="#211B58"/>
<path d="M53.3237 17.8538C53.3149 17.9156 53.1381 18.7465 52.8022 19.1443C52.4486 19.5509 52.1835 19.9398 52.1835 19.9398C51.9625 19.9663 51.8122 19.9751 51.8122 19.9751C51.8122 19.9751 51.4587 20.1166 51.3084 19.8868C51.1581 19.6569 50.999 19.1973 51.0432 18.9852C51.0432 18.9852 52.2984 18.8526 52.7845 18.5255C53.2353 18.225 53.3149 17.898 53.3237 17.8538Z" fill="#E2B1A6"/>
<path d="M53.775 29.4242C53.775 29.4242 53.7043 29.5657 53.6955 29.5745C53.6867 29.5833 53.669 29.4684 53.669 29.4684C53.669 29.4684 53.722 29.3535 53.7308 29.3535L53.775 29.4242Z" fill="#1C2B3A"/>
<path d="M50.1248 25.7649C50.1248 25.7649 49.2498 28.5669 48.9581 29.2475L48.9758 29.9193C48.9758 29.9193 50.0895 26.4367 50.1248 25.7649Z" fill="#282567"/>
<path d="M49.2758 26.7636C49.2228 26.9227 49.3112 27.0995 49.4614 27.1437C49.6117 27.1879 49.7796 27.0906 49.8238 26.9315C49.8769 26.7724 49.7885 26.5957 49.6382 26.5515C49.488 26.5073 49.3289 26.6045 49.2758 26.7636Z" fill="#282567"/>
<path d="M48.8339 27.9747C48.7809 28.1338 48.8693 28.3106 49.0195 28.3547C49.1698 28.3989 49.3378 28.3017 49.3819 28.1426C49.435 27.9835 49.3466 27.8067 49.1963 27.7625C49.0461 27.7183 48.887 27.8067 48.8339 27.9747Z" fill="#282567"/>
<path d="M53.2445 16.7312C53.2622 16.6693 53.2799 16.6074 53.2799 16.5456L53.271 16.2097C53.271 16.1566 53.2799 16.0948 53.2975 16.0417C53.3152 15.9887 53.3329 15.918 53.3417 15.8296C53.3417 15.8296 54.7118 16.8196 55.5692 16.8638C54.8444 18.0305 54.2433 18.2338 54.2433 18.2338C54.2433 18.2338 53.9958 18.1808 54.2168 17.9245C54.4378 17.6681 54.8444 17.0229 54.5085 16.8196C54.1726 16.6163 53.5892 17.0582 53.5097 17.1555C53.4832 17.1908 53.4478 17.2439 53.4213 17.2881C53.3771 17.3588 53.2887 17.3941 53.2091 17.3499L53.1826 17.3322C53.1031 17.2969 53.0677 17.2085 53.0942 17.1289L53.2445 16.7312Z" fill="#946E6D"/>
<path d="M55.8256 53.3606C55.8256 53.3606 55.2069 53.5109 54.6146 53.5374C54.0136 53.5639 52.396 53.8821 52.4314 54.492C52.4756 55.1019 53.3241 55.977 54.3848 56.1007C55.4455 56.2333 56.8156 55.9239 57.5139 55.9416C58.2122 55.9593 58.6806 55.2522 58.4155 54.5715C58.1326 53.9086 55.8256 53.3606 55.8256 53.3606Z" fill="#211B58"/>
<path d="M59.4052 51.7341C59.4052 51.7341 59.635 52.0965 59.5201 52.3263C59.4052 52.5473 59.1135 53.113 58.1412 52.565C57.1777 52.0258 55.3039 51.2568 55.3039 51.2568C55.3039 51.2568 54.2343 50.6911 54.2962 50.0193C54.3581 49.3475 55.3392 49.4536 55.3392 49.4536L59.4052 51.7341Z" fill="#211B58"/>
<path d="M53.1027 42.2057C53.1027 42.2057 53.5181 46.5722 54.3932 48.2251C55.286 49.9045 55.5334 52.9894 55.7191 53.5728C55.9047 54.165 56.4792 55.0135 57.3897 55.1903C58.3001 55.3671 58.4503 54.7484 58.4062 54.3771C58.362 54.0059 58.1056 53.4048 58.1056 53.0071C58.1056 52.6093 58.194 52.4148 58.2117 52.2381C58.2117 52.2381 59.2547 52.5474 59.4138 51.7342C59.4138 51.7342 59.3254 51.4956 59.3166 51.3807C59.2989 51.2569 59.405 48.34 59.4315 47.9864C59.458 47.6329 59.2635 45.7236 58.9807 44.7867C58.6978 43.8497 58.7862 41.8698 58.7862 41.8698L55.8163 41.4543L53.1027 42.2057Z" fill="#282567"/>
<path d="M58.9721 44.7777C58.6892 43.8408 58.7776 41.8608 58.7776 41.8608L58.5213 41.8254C58.5125 42.0995 58.4506 43.8408 58.7069 44.6981C58.9986 45.6351 59.1842 47.5443 59.1577 47.8979C59.1312 48.2515 59.0251 51.1684 59.0428 51.2921C59.0605 51.4159 59.14 51.6457 59.14 51.6457C58.9809 52.45 57.9379 52.1495 57.9379 52.1495C57.9202 52.3351 57.8319 52.5208 57.8319 52.9185C57.8319 53.3163 58.0882 53.9173 58.1324 54.2886C58.1766 54.6598 58.0263 55.2786 57.1159 55.1018C57.0894 55.0929 57.0628 55.0841 57.0363 55.0753C57.1512 55.1195 57.2661 55.1636 57.3899 55.1902C58.3003 55.3669 58.4506 54.7482 58.4064 54.377C58.3622 54.0057 58.1059 53.4047 58.1059 53.0069C58.1059 52.6091 58.1943 52.3793 58.2119 52.1937C58.2119 52.1937 59.2549 52.5384 59.4141 51.7252C59.4141 51.7252 59.3257 51.4866 59.3168 51.3717C59.2991 51.2479 59.4052 48.331 59.4317 47.9775C59.4494 47.6327 59.2549 45.7235 58.9721 44.7777Z" fill="url(#paint20_linear_2_13851)"/>
<path d="M57.8938 42.179C57.8938 42.179 57.8849 42.8597 57.5932 43.4342C57.5932 43.4342 57.6021 45.75 57.3634 46.9256C57.3634 46.9256 57.7435 49.2857 57.991 50.0282C58.2385 50.7795 58.2031 52.2379 58.2031 52.2379C58.2031 52.2379 58.3181 52.2821 58.4948 52.291C58.6628 52.2998 58.6805 49.4094 58.4153 48.8968C58.159 48.3929 57.9557 46.139 58.0529 45.4495C58.1501 44.7689 58.1148 42.8154 58.2473 42.4707C58.3799 42.126 58.0882 41.9492 58.0882 41.9492L57.8938 42.179Z" fill="#211B58"/>
<path d="M55.401 26.4368C55.401 26.4368 54.5348 27.0643 54.579 28.1339L55.2154 27.9925C55.2242 28.0013 55.0297 26.808 55.401 26.4368Z" fill="#211B58"/>
<path d="M55.7367 43.1336C57.7079 43.1954 58.7686 42.3204 58.7686 42.3204C58.7686 42.0464 58.7774 41.8607 58.7774 41.8607L55.8075 41.4453L53.1027 42.2055C53.1027 42.2055 53.1822 43.0629 53.3502 44.1677C53.8363 44.2208 54.3048 43.0363 54.3048 43.0363L55.6572 43.1247C55.6572 43.1159 53.7656 43.0717 55.7367 43.1336Z" fill="#211B58"/>
<path d="M53.483 42.2676C53.483 42.2676 57.7611 44.0089 59.8295 40.7031C59.8913 40.6058 59.9179 40.4909 59.909 40.376L59.8825 39.607C59.8825 39.5098 59.8913 39.4126 59.9267 39.3242C59.9886 39.1297 60.0062 38.9176 59.9709 38.7054C59.8118 37.8392 59.3787 35.4968 59.2726 34.8516C59.1488 34.0561 59.5731 30.8828 60.2803 29.5039C60.9785 28.1515 59.1842 25.102 59.1842 25.102C59.1842 25.102 58.7423 24.3861 57.8849 24.6336C57.8849 24.6336 58.7069 25.2081 58.2561 25.818C57.8053 26.4279 56.4529 26.9141 56.4529 26.9141C56.4529 26.9141 53.9515 28.2134 53.0941 29.7868C53.0941 29.7868 52.8024 30.6088 52.7759 31.643C52.7493 32.6948 52.8642 35.214 52.82 35.5587C52.7759 35.9123 52.6433 38.3077 52.6609 38.4226C52.6609 38.5375 53.483 42.2676 53.483 42.2676Z" fill="#47419A"/>
<path d="M58.2739 25.0665C58.3446 24.8897 58.3181 24.7306 58.2562 24.5803C58.1413 24.5803 58.0087 24.5803 57.8673 24.6245C57.8761 24.6245 58.1325 24.8013 58.2739 25.0665Z" fill="url(#paint21_linear_2_13851)"/>
<path d="M54.7736 42.6299C54.7736 42.6299 57.2928 35.8326 57.169 33.3576C57.0541 30.9534 53.492 38.2368 53.492 38.2368L53.4743 42.2763C53.4831 42.2674 54.2875 42.568 54.7736 42.6299Z" fill="#282567"/>
<path d="M59.8473 38.6521C59.8208 38.7405 59.8031 38.8378 59.8031 38.935L59.8296 39.704C59.8296 39.8189 59.8031 39.9338 59.7501 40.031C57.6905 43.3192 53.4301 41.5867 53.4301 41.5867C53.4301 41.5867 52.8467 38.9085 52.6611 38.0422C52.6523 38.2544 52.6434 38.4046 52.6523 38.4223C52.6699 38.5372 53.4831 42.2673 53.4831 42.2673C53.4831 42.2673 57.7613 44.0086 59.8296 40.7028C59.8915 40.6056 59.918 40.4907 59.9092 40.3758L59.8826 39.6068C59.8826 39.5095 59.8915 39.4123 59.9268 39.3239C59.9887 39.1294 60.0064 38.9173 59.971 38.7052C59.9534 38.6168 59.9357 38.5019 59.9092 38.387C59.9003 38.4754 59.8826 38.5726 59.8473 38.6521Z" fill="url(#paint22_linear_2_13851)"/>
<path d="M60.2093 28.9027C59.5022 30.2727 59.0779 33.4283 59.2017 34.215C59.2105 34.2857 59.2282 34.3829 59.2459 34.4978C59.2459 33.3576 59.6436 30.7324 60.2712 29.5126C60.4657 29.1325 60.4657 28.611 60.3596 28.0718C60.3684 28.3723 60.3331 28.664 60.2093 28.9027Z" fill="url(#paint23_linear_2_13851)"/>
<path d="M53.4211 34.5951C53.5095 34.0382 53.5625 33.4814 53.5714 32.9245C53.5802 31.961 53.8542 30.3523 55.6043 30.6352C58.0793 31.0329 57.0186 34.4979 56.7446 35.0989C56.4706 35.7088 55.3922 38.4489 55.3303 38.608C55.2773 38.7583 53.5625 42.179 52.9526 43.0011C52.8996 43.0806 52.8023 43.0895 52.7316 43.0276C52.4841 42.8155 51.9273 42.3116 51.8566 41.9934C51.7593 41.5868 52.1217 40.1019 52.1217 40.1019C52.1217 40.1019 53.0852 36.3983 53.1648 36.2215C53.2266 36.0977 53.2708 35.4878 53.4211 34.5951Z" fill="#4B4A9F"/>
<path d="M55.4447 26.5162C55.4447 26.5162 55.2503 26.0654 54.7906 26.0212C54.3399 25.977 54.0835 25.8532 54.0305 25.6765C53.9863 25.5085 53.9863 25.3052 53.8714 25.0577C53.7653 24.8102 53.6681 24.1915 53.6681 24.1826C53.6681 24.165 53.3234 24.0677 53.3057 23.9086C53.288 23.7584 53.4648 23.2192 53.4471 23.175C53.4294 23.1308 53.2438 22.8038 53.2703 22.5474C53.2968 22.2911 53.3322 21.9198 53.4648 21.6016C53.6062 21.2834 54.5608 19.3653 57.0623 20.3553C59.5903 21.3541 57.6722 23.4755 57.9197 24.8544C57.9197 24.8544 58.1407 25.1461 57.7341 25.6323C57.3275 26.1273 56.1342 26.2333 55.4447 26.5162Z" fill="#FCD1C6"/>
<path d="M57.743 25.6322C58.1585 25.1372 57.9286 24.8543 57.9286 24.8543C57.8933 24.6599 57.9021 24.4566 57.9375 24.2444L56.9475 24.43C56.9475 24.43 55.4891 23.1307 55.5863 23.829C55.6924 24.5273 55.3388 24.651 55.3388 24.651L55.6393 25.0311C55.7189 25.1283 55.6747 25.2432 55.604 25.3493C55.1885 26.0653 54.172 25.8531 54.172 25.8531C54.2958 25.9327 54.5079 25.9946 54.7908 26.0211C55.2416 26.0653 55.4449 26.5161 55.4449 26.5161C56.1343 26.2332 57.3276 26.1272 57.743 25.6322Z" fill="#E2B1A6"/>
<path d="M53.3677 20.868C53.3677 20.868 53.1909 21.3807 53.4738 21.6016C53.7566 21.8138 54.013 22.0259 54.013 22.0259V22.68C54.013 22.7772 54.0395 22.8656 54.0925 22.9452L54.4461 23.4932C54.5168 23.5993 54.5521 23.723 54.5521 23.8556V24.1208C54.5521 24.2003 54.614 24.2622 54.6847 24.271L54.782 24.2799C54.8615 24.2887 54.9411 24.2269 54.9499 24.1473L54.9853 23.7761C54.9853 23.7761 55.1709 23.4755 55.5863 23.8291L55.9576 23.9794C56.0636 24.0236 56.1432 24.1031 56.1785 24.2092C56.2846 24.492 56.5056 25.0577 56.6647 25.1461C56.8857 25.2699 57.7519 24.8279 57.8668 24.6246C57.9817 24.4301 58.2734 23.1043 58.459 22.4767C58.6358 21.8491 58.5297 20.3023 56.6735 19.9134C54.8173 19.5245 53.624 20.3111 53.3677 20.868Z" fill="#AB8483"/>
<path d="M57.876 24.6246C57.9909 24.4302 58.2826 23.1043 58.4682 22.4768C58.4682 22.4768 57.7434 22.9541 56.8153 23.0955C55.8784 23.2369 54.0222 22.1851 54.0222 22.1851V22.6624C54.0222 22.7596 54.0487 22.848 54.1017 22.9275L54.4553 23.4756C54.526 23.5816 54.5614 23.7054 54.5614 23.838V24.1031C54.5614 24.1827 54.6232 24.2446 54.6939 24.2534L54.7912 24.2623C54.8707 24.2711 54.9503 24.2092 54.9591 24.1297L54.9945 23.7584C54.9945 23.7584 55.1801 23.4579 55.5955 23.8115L56.1259 24.0324C56.1259 24.0324 56.4529 25.0136 56.6739 25.1373C56.8949 25.2699 57.7611 24.8279 57.876 24.6246Z" fill="#946E6D"/>
<path d="M57.9111 24.6865C57.9111 24.6865 58.6359 25.1285 58.2735 25.7649C57.9111 26.4013 55.2858 27.5327 55.1533 27.7007C55.1533 27.7007 55.0472 26.7549 55.4007 26.4278C55.4007 26.4278 57.4161 26.0389 57.7254 25.5262C58.0348 25.0224 57.9111 24.6865 57.9111 24.6865Z" fill="#F1F6FC"/>
<path d="M57.911 24.6865C57.911 24.6865 58.0348 25.0136 57.7254 25.5262C57.4867 25.9152 56.2846 26.2334 55.7101 26.3659C55.7101 26.3659 55.9222 26.4897 56.2846 27.0996C57.089 26.6842 58.0701 26.145 58.2823 25.7649C58.6358 25.1373 57.911 24.6865 57.911 24.6865Z" fill="#C4CBD5"/>
<path d="M58.4064 26.7195C58.4064 26.7195 57.2397 27.3912 56.6651 27.6918C56.0906 27.9923 55.4718 28.3989 55.4718 28.3989L55.2509 28.1779L54.9857 28.7525C54.9857 28.7525 54.0841 29.2917 53.6687 29.7425C53.2444 30.1933 52.9262 30.7855 52.882 30.9181C52.882 30.9181 54.0046 29.4508 54.8885 29.0088L55.1271 28.8851L55.2597 28.4254L55.4807 28.6552C55.4718 28.6641 58.044 27.1172 58.4064 26.7195Z" fill="#282567"/>
<path d="M55.3834 46.5721C55.3481 46.466 55.2951 46.3776 55.2243 46.3157L50.407 42.2763C50.2833 42.1702 50.1595 42.2498 50.133 42.4619L49.5673 47.1643C49.5408 47.3853 49.6292 47.6505 49.7529 47.7565L53.7924 51.2568L53.651 52.618L54.8619 52.0612C54.915 52.0258 54.9592 51.9463 54.968 51.8314L55.4188 46.9168C55.4453 46.8019 55.4188 46.6781 55.3834 46.5721Z" fill="url(#paint24_linear_2_13851)"/>
<path d="M49.0992 42.7447L50.2395 42.2498L50.2748 42.2321C50.319 42.2232 50.3632 42.2321 50.4074 42.2763L55.2247 46.3157C55.2866 46.3688 55.3485 46.466 55.3838 46.5632L55.2159 46.6428L54.2348 47.1201L50.0185 43.5138L49.0992 42.7447Z" fill="#47419A"/>
<path d="M48.5773 48.2867L53.5007 52.5737C53.6332 52.6886 53.7658 52.6002 53.7835 52.3704L54.2608 47.4293C54.2785 47.2084 54.1901 46.9432 54.0575 46.8371L49.2579 42.7711C49.1341 42.6651 49.0104 42.7446 48.9839 42.9568L48.3917 47.6857C48.3651 47.9067 48.4535 48.1718 48.5773 48.2867Z" fill="#282567"/>
<path d="M54.4021 52.0876L54.8618 47.1554C54.8794 46.9433 54.791 46.6693 54.6585 46.5632L49.85 42.5149C49.8146 42.4795 49.7704 42.4707 49.7351 42.4707C49.7793 42.453 49.8323 42.4619 49.8853 42.5061L54.6938 46.5544C54.8264 46.6693 54.9148 46.9345 54.8971 47.1466L54.4375 52.0788C54.4198 52.2379 54.3579 52.3351 54.2784 52.3351C54.3403 52.3086 54.3844 52.2202 54.4021 52.0876Z" fill="#211B58"/>
<path d="M52.6353 44.8308L52.8828 44.7071C52.9359 44.6806 52.9978 44.6717 53.0419 44.6806L53.0596 44.6894C53.0861 44.6982 53.095 44.7248 53.095 44.7601L53.0861 44.8043L52.379 45.1579L52.3879 45.1137C52.3879 45.0783 52.4144 45.0341 52.4409 44.9988L52.4674 44.9723C52.5204 44.9015 52.5823 44.8573 52.6353 44.8308Z" fill="#211B58"/>
<path d="M52.7238 45.4407L52.3879 45.149L53.0862 44.6982L53.422 44.9723L52.7238 45.4407Z" fill="#211B58"/>
<path d="M52.9801 45.1138L53.2276 44.99C53.2806 44.9635 53.3425 44.9547 53.3867 44.9635L53.4044 44.9724C53.4309 44.9812 53.4397 45.0077 53.4397 45.0431L53.4309 45.0873L52.7237 45.4408L52.7326 45.3966C52.7326 45.3613 52.7591 45.3171 52.7856 45.2817L52.8121 45.2552C52.8652 45.1933 52.9182 45.1403 52.9801 45.1138Z" fill="url(#paint25_linear_2_13851)"/>
<path d="M53.1306 45.2375L53.1483 45.0254L53.1306 45.0431L53.1041 45.2464L53.1306 45.2375Z" fill="#732419"/>
<path d="M53.1482 45.0252L52.8034 44.7512L52.7858 44.7601L53.1305 45.0429L53.1482 45.0252Z" fill="#732419"/>
<path d="M51.105 43.5403L51.3525 43.4165C51.4056 43.39 51.4674 43.3812 51.5116 43.39H51.5293C51.5558 43.3989 51.5647 43.4254 51.5647 43.4607L51.5558 43.5049L50.8487 43.8585L50.8576 43.8143C50.8576 43.779 50.8841 43.7348 50.9106 43.6994L50.9371 43.6729C50.9901 43.6198 51.052 43.5757 51.105 43.5403Z" fill="#211B58"/>
<path d="M51.1939 44.1414L50.858 43.8585L51.5563 43.4077L51.8922 43.6906L51.1939 44.1414Z" fill="#211B58"/>
<path d="M51.441 43.8233L51.6885 43.6995C51.7415 43.673 51.8034 43.6642 51.8476 43.673H51.8653C51.8918 43.6818 51.9006 43.7084 51.9006 43.7437L51.8918 43.7879L51.1846 44.1415L51.1935 44.0973C51.1935 44.0619 51.22 44.0177 51.2465 43.9824L51.273 43.9559C51.3261 43.9028 51.3879 43.8586 51.441 43.8233Z" fill="url(#paint26_linear_2_13851)"/>
<path d="M51.5915 43.9469L51.618 43.7437L51.5915 43.7525L51.5738 43.9558L51.5915 43.9469Z" fill="#732419"/>
<path d="M51.6174 43.7435L51.2727 43.4607L51.2462 43.4695L51.5909 43.7524L51.6174 43.7435Z" fill="#732419"/>
<path d="M53.2802 44.0441L53.1918 44.9192L52.962 44.7247L53.0504 43.8762C53.0593 43.7524 53.0062 43.5933 52.9178 43.5138L51.9367 42.6917C51.8483 42.621 51.7687 42.6564 51.7511 42.7801L51.6538 43.6198L51.4329 43.4342L51.5301 42.568C51.5566 42.294 51.7422 42.2056 51.9367 42.3735L52.9797 43.2486C53.1742 43.4165 53.3156 43.7701 53.2802 44.0441Z" fill="#47419A"/>
<path d="M51.5919 42.6387L51.9986 42.5945L53.1653 43.6817L53.2183 44.3535L53.1918 44.9192L52.9267 45.0518V44.3535L52.909 43.8762L52.6703 43.5314C52.6703 43.5314 52.2284 43.1779 52.2284 43.169C52.2195 43.1514 51.5919 42.6387 51.5919 42.6387Z" fill="#47419A"/>
<path d="M51.3976 43.7613L51.6628 43.6376L51.7335 43.01L51.486 43.0277L51.4065 43.0454L51.3976 43.7613Z" fill="#47419A"/>
<path d="M51.4064 42.4532L51.6893 42.3118L51.6185 42.462L51.5213 42.4974L51.4064 42.4532Z" fill="#47419A"/>
<path d="M53.0238 44.1768L52.9354 45.0519L52.7056 44.8574L52.794 44C52.8029 43.8763 52.7498 43.7172 52.6614 43.6376L51.6803 42.8156C51.5919 42.7449 51.5124 42.7802 51.4947 42.904L51.3974 43.7525L51.1765 43.5669L51.2737 42.7007C51.3002 42.4267 51.4858 42.3383 51.6803 42.4974L52.7233 43.3724C52.9178 43.5404 53.0504 43.9028 53.0238 44.1768Z" fill="#211B58"/>
<path d="M51.9271 41.958C51.9271 41.958 51.7591 42.8154 51.8122 43.0275C51.8564 43.2397 52.2718 43.6551 52.5193 43.7347C52.7668 43.8142 52.6696 43.5137 52.7226 43.3281C52.7756 43.1425 52.7668 42.7359 52.7668 42.7359L51.9271 41.958Z" fill="#FCD1C6"/>
<path d="M52.7581 42.7537L51.9272 41.967C51.9272 41.967 51.8919 42.1438 51.8565 42.356C51.8565 42.356 52.1659 42.9924 52.7316 43.2487C52.7669 43.0366 52.7581 42.7537 52.7581 42.7537Z" fill="#E2B1A6"/>
<path d="M51.8654 42.0289C51.8654 42.0289 52.1571 42.957 52.8995 43.0366L52.6521 42.0289C52.6521 42.0289 52.0245 41.8521 52.0068 41.8521C51.9891 41.8433 51.8654 42.0289 51.8654 42.0289Z" fill="#4B4A9F"/>
<path d="M56.6824 31.1743C57.3718 33.2603 55.6482 36.5131 55.4007 37.4589C55.1532 38.4135 52.5368 42.8508 52.5368 42.8508C52.5192 42.8773 52.5103 42.895 52.5103 42.895C52.5633 42.9392 52.6341 42.9834 52.6783 43.0099C52.749 43.0364 52.7136 43.0364 52.7932 43.0541C52.8462 43.0629 52.9081 43.0452 52.9434 42.9922C53.5533 42.1702 55.2681 38.7406 55.3212 38.5992C55.3742 38.4401 56.4614 35.6999 56.7354 35.09C56.9652 34.6127 57.69 32.2704 56.6824 31.1743Z" fill="url(#paint27_linear_2_13851)"/>
<path d="M28.7862 51.2834C28.6094 51.2834 28.4326 51.2481 28.3 51.1685L17.3572 44.8486C17.2158 44.769 17.1362 44.6541 17.1362 44.5215C17.1362 44.3713 17.2423 44.221 17.4279 44.1149L28.2205 37.8833C28.5475 37.6889 29.0337 37.6712 29.3253 37.8392L40.2682 44.1591C40.4096 44.2387 40.4891 44.3536 40.4891 44.4862C40.4891 44.6364 40.3831 44.7867 40.1974 44.8928L29.4049 51.1243C29.2193 51.2304 28.9983 51.2834 28.7862 51.2834ZM28.3796 51.0271C28.6094 51.1597 29.0425 51.142 29.3165 50.9829L40.1091 44.7513C40.2416 44.6806 40.3124 44.5834 40.3124 44.495C40.3124 44.4066 40.2416 44.3447 40.1798 44.3094L29.237 37.9894C29.0071 37.8568 28.574 37.8745 28.3 38.0336L17.5163 44.2652C17.3837 44.3359 17.313 44.4331 17.313 44.5215C17.313 44.6099 17.3837 44.6718 17.4456 44.7071L28.3796 51.0271Z" fill="#8283BF"/>
<path d="M40.4006 39.8809V41.2244L28.7861 47.9333L17.1626 41.2244V39.8809H40.4006Z" fill="url(#paint28_linear_2_13851)"/>
<path d="M28.786 46.5898L17.1626 39.881L28.786 33.1809L40.4006 39.881L28.786 46.5898Z" fill="#BEBDDF"/>
<path d="M28.7861 46.4396L17.3041 39.8103L17.1626 39.881L28.7861 46.5899L40.4006 39.881L40.2681 39.8103L28.7861 46.4396Z" fill="white"/>
<path d="M28.7859 45.043L19.8496 39.8898L28.7859 34.7278L37.7223 39.8898L28.7859 45.043Z" fill="#1A134B"/>
<path opacity="0.5" d="M28.7858 45.043L19.8495 39.8898L28.7858 34.7278L37.7222 39.8898L28.7858 45.043Z" fill="url(#paint29_linear_2_13851)"/>
<path opacity="0.5" d="M28.7859 33.4285L37.7223 38.5817V39.8899L28.7859 34.7278V33.4285Z" fill="url(#paint30_linear_2_13851)"/>
<path opacity="0.5" d="M28.7857 34.7278L19.8494 39.8899V38.5817L28.7857 33.4285V34.7278Z" fill="url(#paint31_linear_2_13851)"/>
<path opacity="0.5" d="M28.7857 43.7437L19.8494 38.5817L28.7857 33.4285L37.7221 38.5817L28.7857 43.7437Z" fill="url(#paint32_linear_2_13851)"/>
<path opacity="0.5" d="M28.7861 40.6501L25.2151 38.5817L28.7861 36.5222L32.3571 38.5817L28.7861 40.6501Z" fill="#00B597"/>
<path opacity="0.5" d="M28.7861 36.7167L32.1892 38.679L32.3571 38.5817L28.7861 36.5222L25.2151 38.5817L25.3742 38.679L28.7861 36.7167Z" fill="#00B597"/>
<path opacity="0.5" d="M28.7859 43.7438V45.0432L37.7223 39.89V38.5818L28.7859 43.7438Z" fill="url(#paint33_linear_2_13851)"/>
<path opacity="0.5" d="M19.8495 38.5815V39.8897L28.7858 45.0429V43.7436L19.8495 38.5815Z" fill="url(#paint34_linear_2_13851)"/>
<path opacity="0.8" d="M28.7859 43.6023L19.9733 38.511L19.8496 38.5817L28.7859 43.7437L37.7223 38.5817L37.5985 38.511L28.7859 43.6023Z" fill="#00B597"/>
<path d="M28.7862 81.7607C28.6094 81.7607 28.4326 81.7254 28.3 81.6458L17.3572 75.3259C17.2158 75.2463 17.1362 75.1314 17.1362 74.9988C17.1362 74.8486 17.2423 74.6983 17.4279 74.5922L28.2205 68.3607C28.5475 68.1662 29.0337 68.1485 29.3253 68.3165L40.2682 74.6364C40.4096 74.716 40.4891 74.8309 40.4891 74.9635C40.4891 75.1137 40.3831 75.264 40.1974 75.3701L29.4049 81.6016C29.2193 81.7077 28.9983 81.7607 28.7862 81.7607ZM28.3796 81.4956C28.6094 81.6282 29.0425 81.6105 29.3165 81.4514L40.1091 75.2198C40.2416 75.1491 40.3124 75.0519 40.3124 74.9635C40.3124 74.8751 40.2416 74.8132 40.1798 74.7778L29.237 68.4579C29.0071 68.3253 28.574 68.343 28.3 68.5021L17.5075 74.7336C17.3749 74.8044 17.3042 74.9016 17.3042 74.99C17.3042 75.0784 17.3749 75.1402 17.4367 75.1756L28.3796 81.4956Z" fill="#8283BF"/>
<path d="M40.4006 70.3582V71.7017L28.7861 78.4106L17.1626 71.7017V70.3582H40.4006Z" fill="url(#paint35_linear_2_13851)"/>
<path d="M28.786 77.0669L17.1626 70.3581L28.786 63.6492L40.4006 70.3581L28.786 77.0669Z" fill="#BEBDDF"/>
<path d="M28.7861 76.9079L17.3041 70.2786L17.1626 70.3581L28.7861 77.067L40.4006 70.3581L40.2681 70.2786L28.7861 76.9079Z" fill="white"/>
<path d="M28.7859 75.5201L19.8496 70.358L28.7859 65.2048L37.7223 70.358L28.7859 75.5201Z" fill="#1A134B"/>
<path opacity="0.5" d="M28.7858 75.5201L19.8495 70.358L28.7858 65.2048L37.7222 70.358L28.7858 75.5201Z" fill="url(#paint36_linear_2_13851)"/>
<path opacity="0.5" d="M28.7859 63.8967L37.7223 69.0588V70.3581L28.7859 65.2049V63.8967Z" fill="url(#paint37_linear_2_13851)"/>
<path opacity="0.5" d="M28.7857 65.2049L19.8494 70.3581V69.0588L28.7857 63.8967V65.2049Z" fill="url(#paint38_linear_2_13851)"/>
<path opacity="0.5" d="M28.7857 74.2208L19.8494 69.0588L28.7857 63.8967L37.7221 69.0588L28.7857 74.2208Z" fill="url(#paint39_linear_2_13851)"/>
<path opacity="0.5" d="M28.7861 71.1183L25.2151 69.0588L28.7861 66.9993L32.3571 69.0588L28.7861 71.1183Z" fill="#00B597"/>
<path opacity="0.5" d="M28.7861 67.1849L32.1892 69.156L32.3571 69.0588L28.7861 66.9993L25.2151 69.0588L25.3742 69.156L28.7861 67.1849Z" fill="#00B597"/>
<path opacity="0.5" d="M28.7859 74.2206V75.52L37.7223 70.3579V69.0586L28.7859 74.2206Z" fill="url(#paint40_linear_2_13851)"/>
<path opacity="0.5" d="M19.8495 69.0588V70.3582L28.7858 75.5202V74.2209L19.8495 69.0588Z" fill="url(#paint41_linear_2_13851)"/>
<path opacity="0.8" d="M28.7859 74.0794L19.9733 68.988L19.8496 69.0588L28.7859 74.2208L37.7223 69.0588L37.5985 68.988L28.7859 74.0794Z" fill="#00B597"/>
<path d="M75.3511 51.2834C75.1744 51.2834 74.9976 51.2481 74.865 51.1685L63.9222 44.8486C63.7808 44.769 63.7012 44.6541 63.7012 44.5215C63.7012 44.3713 63.8073 44.221 63.9929 44.1149L74.7854 37.8833C75.1125 37.6889 75.5986 37.6712 75.8903 37.8392L86.8331 44.1591C86.9746 44.2387 87.0541 44.3536 87.0541 44.4862C87.0541 44.6364 86.9481 44.7867 86.7624 44.8928L75.9699 51.1243C75.7931 51.2304 75.5633 51.2834 75.3511 51.2834ZM74.9534 51.0271C75.1832 51.1597 75.6163 51.142 75.8903 50.9829L86.6829 44.7513C86.8155 44.6806 86.8862 44.5834 86.8862 44.495C86.8862 44.4066 86.8155 44.3447 86.7536 44.3094L75.8108 37.9894C75.581 37.8568 75.1478 37.8745 74.8738 38.0336L64.0813 44.2652C63.9487 44.3359 63.878 44.4331 63.878 44.5215C63.878 44.6099 63.9487 44.6718 64.0106 44.7071L74.9534 51.0271Z" fill="#8283BF"/>
<path d="M86.9748 39.8809V41.2244L75.3514 47.9333L63.7368 41.2244V39.8809H86.9748Z" fill="url(#paint42_linear_2_13851)"/>
<path d="M75.3514 46.5898L63.7368 39.881L75.3514 33.1809L86.9748 39.881L75.3514 46.5898Z" fill="#BEBDDF"/>
<path d="M75.3514 46.4396L63.8694 39.8103L63.7368 39.881L75.3514 46.5899L86.9748 39.881L86.8334 39.8103L75.3514 46.4396Z" fill="white"/>
<path d="M75.3514 45.0428L66.415 39.8896L75.3514 34.7275L84.2877 39.8896L75.3514 45.0428Z" fill="#1A134B"/>
<path opacity="0.5" d="M75.3514 45.0428L66.415 39.8896L75.3514 34.7275L84.2877 39.8896L75.3514 45.0428Z" fill="url(#paint43_linear_2_13851)"/>
<path opacity="0.5" d="M75.3515 33.4282L84.2879 38.5814V39.8896L75.3515 34.7276V33.4282Z" fill="url(#paint44_linear_2_13851)"/>
<path opacity="0.5" d="M75.3514 34.7276L66.415 39.8896V38.5814L75.3514 33.4282V34.7276Z" fill="url(#paint45_linear_2_13851)"/>
<path opacity="0.5" d="M75.3514 43.7435L66.415 38.5814L75.3514 33.4282L84.2877 38.5814L75.3514 43.7435Z" fill="url(#paint46_linear_2_13851)"/>
<path opacity="0.5" d="M75.3517 40.6498L71.7807 38.5815L75.3517 36.522L78.9227 38.5815L75.3517 40.6498Z" fill="#00B597"/>
<path opacity="0.5" d="M75.3517 36.7164L78.7636 38.6787L78.9227 38.5815L75.3517 36.522L71.7807 38.5815L71.9487 38.6787L75.3517 36.7164Z" fill="#00B597"/>
<path opacity="0.5" d="M75.3515 43.7436V45.0429L84.2879 39.8897V38.5815L75.3515 43.7436Z" fill="url(#paint47_linear_2_13851)"/>
<path opacity="0.5" d="M66.415 38.5815V39.8897L75.3514 45.0429V43.7436L66.415 38.5815Z" fill="url(#paint48_linear_2_13851)"/>
<path opacity="0.8" d="M75.3514 43.6021L66.5388 38.5107L66.415 38.5815L75.3514 43.7435L84.2877 38.5815L84.1639 38.5107L75.3514 43.6021Z" fill="#00B597"/>
<path d="M75.351 81.7607C75.1742 81.7607 74.9974 81.7254 74.8649 81.6458L63.922 75.3259C63.7806 75.2463 63.7011 75.1314 63.7011 74.9988C63.7011 74.8486 63.8071 74.6983 63.9928 74.5922L74.7853 68.3607C75.1123 68.1662 75.5985 68.1485 75.8902 68.3165L86.833 74.6364C86.9744 74.716 87.054 74.8309 87.054 74.9635C87.054 75.1137 86.9479 75.264 86.7623 75.3701L75.9697 81.6016C75.793 81.7077 75.5631 81.7607 75.351 81.7607ZM74.9532 81.4956C75.1831 81.6282 75.6162 81.6105 75.8902 81.4514L86.6827 75.2198C86.8153 75.1491 86.886 75.0519 86.886 74.9635C86.886 74.8751 86.8153 74.8132 86.7535 74.7778L75.8106 68.4579C75.5808 68.3253 75.1477 68.343 74.8737 68.5021L64.0811 74.7336C63.9486 74.8044 63.8778 74.9016 63.8778 74.99C63.8778 75.0784 63.9486 75.1402 64.0104 75.1756L74.9532 81.4956Z" fill="#8283BF"/>
<path d="M86.9747 70.3579V71.7015L75.3513 78.4103L63.7367 71.7015V70.3579H86.9747Z" fill="url(#paint49_linear_2_13851)"/>
<path d="M75.3513 77.0669L63.7367 70.3581L75.3513 63.6492L86.9747 70.3581L75.3513 77.0669Z" fill="#BEBDDF"/>
<path d="M75.3513 76.9079L63.8693 70.2786L63.7367 70.3581L75.3513 77.067L86.9747 70.3581L86.8333 70.2786L75.3513 76.9079Z" fill="white"/>
<path d="M75.3513 75.5201L66.4149 70.358L75.3513 65.2048L84.2876 70.358L75.3513 75.5201Z" fill="#1A134B"/>
<path opacity="0.5" d="M75.3513 75.5201L66.4149 70.358L75.3513 65.2048L84.2876 70.358L75.3513 75.5201Z" fill="url(#paint50_linear_2_13851)"/>
<path opacity="0.5" d="M75.3515 63.8967L84.2878 69.0588V70.3581L75.3515 65.2049V63.8967Z" fill="url(#paint51_linear_2_13851)"/>
<path opacity="0.5" d="M75.3513 65.2049L66.4149 70.3581V69.0588L75.3513 63.8967V65.2049Z" fill="url(#paint52_linear_2_13851)"/>
<path opacity="0.5" d="M75.3513 74.2208L66.4149 69.0588L75.3513 63.8967L84.2876 69.0588L75.3513 74.2208Z" fill="url(#paint53_linear_2_13851)"/>
<path opacity="0.5" d="M75.3517 71.1183L71.7807 69.0588L75.3517 66.9993L78.9226 69.0588L75.3517 71.1183Z" fill="#00B597"/>
<path opacity="0.5" d="M75.3517 67.1849L78.7635 69.156L78.9226 69.0588L75.3517 66.9993L71.7807 69.0588L71.9486 69.156L75.3517 67.1849Z" fill="#00B597"/>
<path opacity="0.5" d="M75.3515 74.2206V75.52L84.2878 70.3579V69.0586L75.3515 74.2206Z" fill="url(#paint54_linear_2_13851)"/>
<path opacity="0.5" d="M66.4149 69.0588V70.3582L75.3513 75.5202V74.2209L66.4149 69.0588Z" fill="url(#paint55_linear_2_13851)"/>
<path opacity="0.8" d="M75.3513 74.0794L66.5387 68.988L66.4149 69.0588L75.3513 74.2208L84.2876 69.0588L84.1639 68.988L75.3513 74.0794Z" fill="#00B597"/>
<g opacity="0.5">
<g opacity="0.5">
<path opacity="0.502" d="M19.0447 6.27456C27.0707 3.86149 31.8526 12.9569 27.159 21.7253C23.1814 29.1679 13.4761 34.542 10.9393 26.7283C9.44548 22.1319 10.683 10.8621 18.2757 6.61045C16.2251 7.67115 14.7313 9.16496 13.2551 11.6134C16.0571 15.0606 16.2869 15.3435 18.7 18.119C21.5639 11.3571 21.7937 10.8002 23.9151 6.23037C22.2622 5.64699 20.8037 5.66467 19.0447 6.27456ZM18.479 6.50438C18.4172 6.5309 18.3553 6.55742 18.2934 6.59277C18.3553 6.56625 18.4172 6.5309 18.479 6.50438ZM18.8856 6.33644C18.9298 6.31876 18.974 6.30108 19.0182 6.2834C18.9829 6.30108 18.9298 6.31876 18.8856 6.33644ZM18.7 6.41599C18.6381 6.44251 18.5763 6.46902 18.5144 6.49554C18.5763 6.46902 18.6381 6.44251 18.7 6.41599ZM18.7 6.41599C18.7531 6.39831 18.8061 6.3718 18.8503 6.35412C18.7973 6.3718 18.7531 6.38948 18.7 6.41599Z" fill="#00B597"/>
<path opacity="0.5" d="M5.46826 14.9015C5.93673 14.4065 6.44056 13.9292 6.97091 13.4519V36.8667C6.43172 37.344 5.93673 37.8302 5.46826 38.3163V14.9015Z" fill="#00B597"/>
<path opacity="0.5" d="M3.06396 26.1804C3.39101 25.6589 3.76225 25.1374 4.16001 24.6335V39.8103C3.76225 40.323 3.39101 40.8356 3.06396 41.3571V26.1804Z" fill="#00B597"/>
<path opacity="0.502" d="M0.916016 43.8231L0.942533 43.8762L0.96905 42.3381L0.916016 42.2586V43.8231ZM0.916016 48.3576V24.9428C0.916016 24.7925 0.916016 24.6422 0.924855 24.492C0.96905 23.4224 1.15467 22.3706 1.47288 21.3364V44.7512C1.14583 45.7854 0.960211 46.8373 0.924855 47.9068C0.916016 48.0571 0.916016 48.2073 0.916016 48.3576Z" fill="#00B597"/>
<path opacity="0.5" d="M0.916016 43.8231L0.933694 43.8849L0.96905 42.3469L0.916016 42.2585V43.8231Z" fill="#00B597"/>
<path opacity="0.5" d="M18.3019 6.59287C18.2931 6.59287 18.2842 6.60171 18.2754 6.60171C18.2842 6.60171 18.2931 6.59287 18.3019 6.59287ZM19.0267 6.2835C19.0356 6.2835 19.0444 6.27466 19.0444 6.27466C19.0356 6.27466 19.0267 6.2835 19.0267 6.2835ZM18.5052 6.49564C18.4964 6.49564 18.4875 6.50448 18.4787 6.50448C18.4875 6.50448 18.4964 6.49564 18.5052 6.49564ZM18.8499 6.34537C18.8499 6.34537 18.8588 6.34537 18.8499 6.34537C18.8588 6.34537 18.8588 6.34537 18.8588 6.34537C18.8588 6.34537 18.8588 6.34537 18.8676 6.34537C18.8676 6.34537 18.8676 6.34537 18.8765 6.34537C18.8765 6.34537 18.8765 6.34537 18.8853 6.34537C18.8853 6.34537 18.8853 6.34537 18.8941 6.34537C18.8941 6.34537 18.8941 6.34537 18.903 6.34537C18.903 6.34537 18.903 6.34537 18.9118 6.34537C18.8764 6.33653 18.8676 6.34537 18.8499 6.34537Z" fill="#00B597"/>
<path opacity="0.5" d="M18.7003 6.41612C21.3166 5.32891 23.1994 5.98301 23.9153 6.2305C20.9189 12.8245 20.6095 13.5139 18.7003 18.1191C15.748 14.6895 15.2972 14.1592 13.2554 11.6135C13.8299 10.6501 15.5889 7.72431 18.7003 6.41612Z" fill="#00B597"/>
</g>
<g opacity="0.5">
<path opacity="0.502" d="M37.2718 64.0027C34.8676 64.7187 33.3207 63.2514 32.755 62.8183C28.3355 59.0705 24.4639 54.5095 20.0267 50.7794C18.7185 49.6745 17.9142 50.1341 17.4545 50.2579C9.18112 53.5372 9.18112 53.5372 7.85525 51.5396C5.4245 47.2349 5.34495 46.8902 4.21354 44.2031C3.95721 43.5932 3.08214 42.6562 2.69321 42.7093C0.837002 43.2308 1.0845 43.6109 0.907715 43.8407V42.2762C3.09981 41.4364 3.32079 41.3304 4.21354 43.3722C8.29721 52.0434 9.02202 51.8489 9.9678 51.6279C18.6743 48.1453 18.5683 48.4017 20.7869 50.7087C24.623 54.704 32.3661 62.4824 34.7527 63.1011C35.4863 63.1983 36.6531 63.0923 37.3425 62.9155C45.7485 60.1047 49.0809 58.328 57.3012 54.7923L58.0349 55.9856C54.9942 57.3115 45.7927 60.9355 37.3248 63.5961L37.2718 64.0027ZM63.5416 73.434V50.0192C60.9606 50.1607 58.3177 50.2314 55.6395 50.2048C25.2153 49.9662 0.916554 38.6875 0.916554 24.9338V48.3486C0.916554 62.1111 25.2153 73.381 55.6395 73.6196C58.3177 73.6462 60.9518 73.5843 63.5416 73.434Z" fill="#00B597"/>
<path opacity="0.5" d="M37.2718 64.0027C35.1062 64.5595 33.0556 65.081 20.3184 51.3716C18.7097 49.754 18.7097 49.754 10.4274 53.051C9.49049 53.2808 8.06739 53.6255 4.15167 44.2914C2.94071 41.5336 0.925393 43.8053 0.907715 43.8318V42.2673C1.58833 41.8784 1.64136 41.8518 2.6667 41.5602C2.85232 41.5071 3.05562 41.516 3.2324 41.6044C3.50641 41.7458 3.78926 42.0728 4.26658 43.0982C6.52055 47.8978 6.52055 47.8978 8.14694 50.523C9.10157 51.9461 9.10157 51.9461 16.8711 48.8613C17.4015 48.7198 18.5064 48.4193 20.1681 49.7452C24.844 53.4753 28.6537 58.1423 33.2765 61.9431C35.009 63.1718 36.052 63.9231 57.3101 54.7658L58.0437 55.9591C55.0031 57.2938 45.7397 61.3332 37.2718 64.0027Z" fill="#00B597"/>
</g>
</g>
<defs>
<linearGradient id="paint0_linear_2_13851" x1="30.7042" y1="86.2277" x2="73.1984" y2="86.2277" gradientUnits="userSpaceOnUse">
<stop stop-color="#5A64AD"/>
<stop offset="0.1833" stop-color="#5F7FB6"/>
<stop offset="0.3665" stop-color="#6399BF"/>
<stop offset="0.5432" stop-color="#67ADC6"/>
<stop offset="0.7114" stop-color="#6BBCCA"/>
<stop offset="0.8676" stop-color="#6DC5CC"/>
<stop offset="1" stop-color="#6DCACE"/>
</linearGradient>
<linearGradient id="paint1_linear_2_13851" x1="30.7042" y1="82.9587" x2="73.1984" y2="82.9587" gradientUnits="userSpaceOnUse">
<stop stop-color="#5A64AD"/>
<stop offset="0.1833" stop-color="#5F7FB6"/>
<stop offset="0.3665" stop-color="#6399BF"/>
<stop offset="0.5432" stop-color="#67ADC6"/>
<stop offset="0.7114" stop-color="#6BBCCA"/>
<stop offset="0.8676" stop-color="#6DC5CC"/>
<stop offset="1" stop-color="#6DCACE"/>
</linearGradient>
<linearGradient id="paint2_linear_2_13851" x1="30.7042" y1="79.69" x2="73.1984" y2="79.69" gradientUnits="userSpaceOnUse">
<stop stop-color="#5A64AD"/>
<stop offset="0.1833" stop-color="#5F7FB6"/>
<stop offset="0.3665" stop-color="#6399BF"/>
<stop offset="0.5432" stop-color="#67ADC6"/>
<stop offset="0.7114" stop-color="#6BBCCA"/>
<stop offset="0.8676" stop-color="#6DC5CC"/>
<stop offset="1" stop-color="#6DCACE"/>
</linearGradient>
<linearGradient id="paint3_linear_2_13851" x1="30.7042" y1="76.4207" x2="73.1984" y2="76.4207" gradientUnits="userSpaceOnUse">
<stop stop-color="#5A64AD"/>
<stop offset="0.1833" stop-color="#5F7FB6"/>
<stop offset="0.3665" stop-color="#6399BF"/>
<stop offset="0.5432" stop-color="#67ADC6"/>
<stop offset="0.7114" stop-color="#6BBCCA"/>
<stop offset="0.8676" stop-color="#6DC5CC"/>
<stop offset="1" stop-color="#6DCACE"/>
</linearGradient>
<linearGradient id="paint4_linear_2_13851" x1="30.7039" y1="81.3242" x2="73.1981" y2="81.3242" gradientUnits="userSpaceOnUse">
<stop stop-color="#5A64AD"/>
<stop offset="0.1833" stop-color="#5F7FB6"/>
<stop offset="0.3665" stop-color="#6399BF"/>
<stop offset="0.5432" stop-color="#67ADC6"/>
<stop offset="0.7114" stop-color="#6BBCCA"/>
<stop offset="0.8676" stop-color="#6DC5CC"/>
<stop offset="1" stop-color="#6DCACE"/>
</linearGradient>
<linearGradient id="paint5_linear_2_13851" x1="30.7042" y1="72.7043" x2="73.1984" y2="72.7043" gradientUnits="userSpaceOnUse">
<stop stop-color="#5A64AD"/>
<stop offset="0.1833" stop-color="#5F7FB6"/>
<stop offset="0.3665" stop-color="#6399BF"/>
<stop offset="0.5432" stop-color="#67ADC6"/>
<stop offset="0.7114" stop-color="#6BBCCA"/>
<stop offset="0.8676" stop-color="#6DC5CC"/>
<stop offset="1" stop-color="#6DCACE"/>
</linearGradient>
<linearGradient id="paint6_linear_2_13851" x1="30.7042" y1="69.4356" x2="73.1984" y2="69.4356" gradientUnits="userSpaceOnUse">
<stop stop-color="#5A64AD"/>
<stop offset="0.1833" stop-color="#5F7FB6"/>
<stop offset="0.3665" stop-color="#6399BF"/>
<stop offset="0.5432" stop-color="#67ADC6"/>
<stop offset="0.7114" stop-color="#6BBCCA"/>
<stop offset="0.8676" stop-color="#6DC5CC"/>
<stop offset="1" stop-color="#6DCACE"/>
</linearGradient>
<linearGradient id="paint7_linear_2_13851" x1="30.7042" y1="66.1666" x2="73.1984" y2="66.1666" gradientUnits="userSpaceOnUse">
<stop stop-color="#5A64AD"/>
<stop offset="0.1833" stop-color="#5F7FB6"/>
<stop offset="0.3665" stop-color="#6399BF"/>
<stop offset="0.5432" stop-color="#67ADC6"/>
<stop offset="0.7114" stop-color="#6BBCCA"/>
<stop offset="0.8676" stop-color="#6DC5CC"/>
<stop offset="1" stop-color="#6DCACE"/>
</linearGradient>
<linearGradient id="paint8_linear_2_13851" x1="30.7042" y1="62.8976" x2="73.1984" y2="62.8976" gradientUnits="userSpaceOnUse">
<stop stop-color="#5A64AD"/>
<stop offset="0.1833" stop-color="#5F7FB6"/>
<stop offset="0.3665" stop-color="#6399BF"/>
<stop offset="0.5432" stop-color="#67ADC6"/>
<stop offset="0.7114" stop-color="#6BBCCA"/>
<stop offset="0.8676" stop-color="#6DC5CC"/>
<stop offset="1" stop-color="#6DCACE"/>
</linearGradient>
<linearGradient id="paint9_linear_2_13851" x1="30.7039" y1="67.8011" x2="73.1981" y2="67.8011" gradientUnits="userSpaceOnUse">
<stop stop-color="#5A64AD"/>
<stop offset="0.1833" stop-color="#5F7FB6"/>
<stop offset="0.3665" stop-color="#6399BF"/>
<stop offset="0.5432" stop-color="#67ADC6"/>
<stop offset="0.7114" stop-color="#6BBCCA"/>
<stop offset="0.8676" stop-color="#6DC5CC"/>
<stop offset="1" stop-color="#6DCACE"/>
</linearGradient>
<linearGradient id="paint10_linear_2_13851" x1="30.7033" y1="59.1814" x2="73.1975" y2="59.1814" gradientUnits="userSpaceOnUse">
<stop stop-color="#5A64AD"/>
<stop offset="0.1833" stop-color="#5F7FB6"/>
<stop offset="0.3665" stop-color="#6399BF"/>
<stop offset="0.5432" stop-color="#67ADC6"/>
<stop offset="0.7114" stop-color="#6BBCCA"/>
<stop offset="0.8676" stop-color="#6DC5CC"/>
<stop offset="1" stop-color="#6DCACE"/>
</linearGradient>
<linearGradient id="paint11_linear_2_13851" x1="30.7033" y1="55.9124" x2="73.1975" y2="55.9124" gradientUnits="userSpaceOnUse">
<stop stop-color="#5A64AD"/>
<stop offset="0.1833" stop-color="#5F7FB6"/>
<stop offset="0.3665" stop-color="#6399BF"/>
<stop offset="0.5432" stop-color="#67ADC6"/>
<stop offset="0.7114" stop-color="#6BBCCA"/>
<stop offset="0.8676" stop-color="#6DC5CC"/>
<stop offset="1" stop-color="#6DCACE"/>
</linearGradient>
<linearGradient id="paint12_linear_2_13851" x1="30.7033" y1="52.6434" x2="73.1975" y2="52.6434" gradientUnits="userSpaceOnUse">
<stop stop-color="#5A64AD"/>
<stop offset="0.1833" stop-color="#5F7FB6"/>
<stop offset="0.3665" stop-color="#6399BF"/>
<stop offset="0.5432" stop-color="#67ADC6"/>
<stop offset="0.7114" stop-color="#6BBCCA"/>
<stop offset="0.8676" stop-color="#6DC5CC"/>
<stop offset="1" stop-color="#6DCACE"/>
</linearGradient>
<linearGradient id="paint13_linear_2_13851" x1="30.7033" y1="49.3745" x2="73.1975" y2="49.3745" gradientUnits="userSpaceOnUse">
<stop stop-color="#5A64AD"/>
<stop offset="0.1833" stop-color="#5F7FB6"/>
<stop offset="0.3665" stop-color="#6399BF"/>
<stop offset="0.5432" stop-color="#67ADC6"/>
<stop offset="0.7114" stop-color="#6BBCCA"/>
<stop offset="0.8676" stop-color="#6DC5CC"/>
<stop offset="1" stop-color="#6DCACE"/>
</linearGradient>
<linearGradient id="paint14_linear_2_13851" x1="30.7035" y1="54.2779" x2="73.1977" y2="54.2779" gradientUnits="userSpaceOnUse">
<stop stop-color="#5A64AD"/>
<stop offset="0.1833" stop-color="#5F7FB6"/>
<stop offset="0.3665" stop-color="#6399BF"/>
<stop offset="0.5432" stop-color="#67ADC6"/>
<stop offset="0.7114" stop-color="#6BBCCA"/>
<stop offset="0.8676" stop-color="#6DC5CC"/>
<stop offset="1" stop-color="#6DCACE"/>
</linearGradient>
<linearGradient id="paint15_linear_2_13851" x1="30.7033" y1="49.3745" x2="73.1975" y2="49.3745" gradientUnits="userSpaceOnUse">
<stop stop-color="#5A64AD"/>
<stop offset="0.1833" stop-color="#5F7FB6"/>
<stop offset="0.3665" stop-color="#6399BF"/>
<stop offset="0.5432" stop-color="#67ADC6"/>
<stop offset="0.7114" stop-color="#6BBCCA"/>
<stop offset="0.8676" stop-color="#6DC5CC"/>
<stop offset="1" stop-color="#6DCACE"/>
</linearGradient>
<linearGradient id="paint16_linear_2_13851" x1="30.704" y1="55.2663" x2="73.1976" y2="55.2663" gradientUnits="userSpaceOnUse">
<stop stop-color="#5A64AD"/>
<stop offset="0.1833" stop-color="#5F7FB6"/>
<stop offset="0.3665" stop-color="#6399BF"/>
<stop offset="0.5432" stop-color="#67ADC6"/>
<stop offset="0.7114" stop-color="#6BBCCA"/>
<stop offset="0.8676" stop-color="#6DC5CC"/>
<stop offset="1" stop-color="#6DCACE"/>
</linearGradient>
<linearGradient id="paint17_linear_2_13851" x1="48.107" y1="40.7801" x2="49.9467" y2="40.7801" gradientUnits="userSpaceOnUse">
<stop stop-color="#5A64AD"/>
<stop offset="0.1833" stop-color="#5F7FB6"/>
<stop offset="0.3665" stop-color="#6399BF"/>
<stop offset="0.5432" stop-color="#67ADC6"/>
<stop offset="0.7114" stop-color="#6BBCCA"/>
<stop offset="0.8676" stop-color="#6DC5CC"/>
<stop offset="1" stop-color="#6DCACE"/>
</linearGradient>
<linearGradient id="paint18_linear_2_13851" x1="49.0432" y1="36.7373" x2="53.6497" y2="36.7373" gradientUnits="userSpaceOnUse">
<stop stop-color="#5A64AD"/>
<stop offset="0.1833" stop-color="#5F7FB6"/>
<stop offset="0.3665" stop-color="#6399BF"/>
<stop offset="0.5432" stop-color="#67ADC6"/>
<stop offset="0.7114" stop-color="#6BBCCA"/>
<stop offset="0.8676" stop-color="#6DC5CC"/>
<stop offset="1" stop-color="#6DCACE"/>
</linearGradient>
<linearGradient id="paint19_linear_2_13851" x1="49.0645" y1="32.2004" x2="54.0564" y2="32.2004" gradientUnits="userSpaceOnUse">
<stop stop-color="#5A64AD"/>
<stop offset="0.1833" stop-color="#5F7FB6"/>
<stop offset="0.3665" stop-color="#6399BF"/>
<stop offset="0.5432" stop-color="#67ADC6"/>
<stop offset="0.7114" stop-color="#6BBCCA"/>
<stop offset="0.8676" stop-color="#6DC5CC"/>
<stop offset="1" stop-color="#6DCACE"/>
</linearGradient>
<linearGradient id="paint20_linear_2_13851" x1="56.471" y1="48.6703" x2="59.4862" y2="48.4061" gradientUnits="userSpaceOnUse">
<stop stop-color="#5A64AD"/>
<stop offset="0.1833" stop-color="#5F7FB6"/>
<stop offset="0.3665" stop-color="#6399BF"/>
<stop offset="0.5432" stop-color="#67ADC6"/>
<stop offset="0.7114" stop-color="#6BBCCA"/>
<stop offset="0.8676" stop-color="#6DC5CC"/>
<stop offset="1" stop-color="#6DCACE"/>
</linearGradient>
<linearGradient id="paint21_linear_2_13851" x1="57.8953" y1="24.8529" x2="58.3197" y2="24.8157" gradientUnits="userSpaceOnUse">
<stop stop-color="#5A64AD"/>
<stop offset="0.1833" stop-color="#5F7FB6"/>
<stop offset="0.3665" stop-color="#6399BF"/>
<stop offset="0.5432" stop-color="#67ADC6"/>
<stop offset="0.7114" stop-color="#6BBCCA"/>
<stop offset="0.8676" stop-color="#6DC5CC"/>
<stop offset="1" stop-color="#6DCACE"/>
</linearGradient>
<linearGradient id="paint22_linear_2_13851" x1="52.8346" y1="40.5277" x2="60.0743" y2="39.8933" gradientUnits="userSpaceOnUse">
<stop stop-color="#5A64AD"/>
<stop offset="0.1833" stop-color="#5F7FB6"/>
<stop offset="0.3665" stop-color="#6399BF"/>
<stop offset="0.5432" stop-color="#67ADC6"/>
<stop offset="0.7114" stop-color="#6BBCCA"/>
<stop offset="0.8676" stop-color="#6DC5CC"/>
<stop offset="1" stop-color="#6DCACE"/>
</linearGradient>
<linearGradient id="paint23_linear_2_13851" x1="58.9486" y1="31.3487" x2="60.6603" y2="31.1987" gradientUnits="userSpaceOnUse">
<stop stop-color="#5A64AD"/>
<stop offset="0.1833" stop-color="#5F7FB6"/>
<stop offset="0.3665" stop-color="#6399BF"/>
<stop offset="0.5432" stop-color="#67ADC6"/>
<stop offset="0.7114" stop-color="#6BBCCA"/>
<stop offset="0.8676" stop-color="#6DC5CC"/>
<stop offset="1" stop-color="#6DCACE"/>
</linearGradient>
<linearGradient id="paint24_linear_2_13851" x1="49.6033" y1="47.6324" x2="55.4602" y2="47.1192" gradientUnits="userSpaceOnUse">
<stop stop-color="#5A64AD"/>
<stop offset="0.1833" stop-color="#5F7FB6"/>
<stop offset="0.3665" stop-color="#6399BF"/>
<stop offset="0.5432" stop-color="#67ADC6"/>
<stop offset="0.7114" stop-color="#6BBCCA"/>
<stop offset="0.8676" stop-color="#6DC5CC"/>
<stop offset="1" stop-color="#6DCACE"/>
</linearGradient>
<linearGradient id="paint25_linear_2_13851" x1="52.7078" y1="45.2265" x2="53.4531" y2="45.1612" gradientUnits="userSpaceOnUse">
<stop stop-color="#5A64AD"/>
<stop offset="0.1833" stop-color="#5F7FB6"/>
<stop offset="0.3665" stop-color="#6399BF"/>
<stop offset="0.5432" stop-color="#67ADC6"/>
<stop offset="0.7114" stop-color="#6BBCCA"/>
<stop offset="0.8676" stop-color="#6DC5CC"/>
<stop offset="1" stop-color="#6DCACE"/>
</linearGradient>
<linearGradient id="paint26_linear_2_13851" x1="51.1728" y1="43.9361" x2="51.9165" y2="43.8709" gradientUnits="userSpaceOnUse">
<stop stop-color="#5A64AD"/>
<stop offset="0.1833" stop-color="#5F7FB6"/>
<stop offset="0.3665" stop-color="#6399BF"/>
<stop offset="0.5432" stop-color="#67ADC6"/>
<stop offset="0.7114" stop-color="#6BBCCA"/>
<stop offset="0.8676" stop-color="#6DC5CC"/>
<stop offset="1" stop-color="#6DCACE"/>
</linearGradient>
<linearGradient id="paint27_linear_2_13851" x1="52.0332" y1="37.3604" x2="57.5734" y2="36.8749" gradientUnits="userSpaceOnUse">
<stop stop-color="#5A64AD"/>
<stop offset="0.1833" stop-color="#5F7FB6"/>
<stop offset="0.3665" stop-color="#6399BF"/>
<stop offset="0.5432" stop-color="#67ADC6"/>
<stop offset="0.7114" stop-color="#6BBCCA"/>
<stop offset="0.8676" stop-color="#6DC5CC"/>
<stop offset="1" stop-color="#6DCACE"/>
</linearGradient>
<linearGradient id="paint28_linear_2_13851" x1="11.4211" y1="43.9102" x2="41.1966" y2="43.9102" gradientUnits="userSpaceOnUse">
<stop stop-color="#5A64AD"/>
<stop offset="0.1412" stop-color="#5F67B0"/>
<stop offset="0.3479" stop-color="#6E73B6"/>
<stop offset="0.5946" stop-color="#8587C1"/>
<stop offset="0.8701" stop-color="#A9A8D4"/>
<stop offset="1" stop-color="#BEBDDF"/>
</linearGradient>
<linearGradient id="paint29_linear_2_13851" x1="19.8475" y1="39.8868" x2="37.7195" y2="39.8868" gradientUnits="userSpaceOnUse">
<stop stop-color="#6DCACE"/>
<stop offset="0.1324" stop-color="#6DC5CC"/>
<stop offset="0.2886" stop-color="#6BBCCA"/>
<stop offset="0.4568" stop-color="#67ADC6"/>
<stop offset="0.6335" stop-color="#6399BF"/>
<stop offset="0.8167" stop-color="#5F7FB6"/>
<stop offset="1" stop-color="#5A64AD"/>
</linearGradient>
<linearGradient id="paint30_linear_2_13851" x1="28.7834" y1="36.6568" x2="37.7196" y2="36.6568" gradientUnits="userSpaceOnUse">
<stop stop-color="#6DCACE"/>
<stop offset="0.1324" stop-color="#6DC5CC"/>
<stop offset="0.2886" stop-color="#6BBCCA"/>
<stop offset="0.4568" stop-color="#67ADC6"/>
<stop offset="0.6335" stop-color="#6399BF"/>
<stop offset="0.8167" stop-color="#5F7FB6"/>
<stop offset="1" stop-color="#5A64AD"/>
</linearGradient>
<linearGradient id="paint31_linear_2_13851" x1="19.8474" y1="36.6567" x2="28.7835" y2="36.6567" gradientUnits="userSpaceOnUse">
<stop stop-color="#6DCACE"/>
<stop offset="0.1324" stop-color="#6DC5CC"/>
<stop offset="0.2886" stop-color="#6BBCCA"/>
<stop offset="0.4568" stop-color="#67ADC6"/>
<stop offset="0.6335" stop-color="#6399BF"/>
<stop offset="0.8167" stop-color="#5F7FB6"/>
<stop offset="1" stop-color="#5A64AD"/>
</linearGradient>
<linearGradient id="paint32_linear_2_13851" x1="19.8474" y1="38.5858" x2="37.7194" y2="38.5858" gradientUnits="userSpaceOnUse">
<stop stop-color="#6DCACE"/>
<stop offset="0.1324" stop-color="#6DC5CC"/>
<stop offset="0.2886" stop-color="#6BBCCA"/>
<stop offset="0.4568" stop-color="#67ADC6"/>
<stop offset="0.6335" stop-color="#6399BF"/>
<stop offset="0.8167" stop-color="#5F7FB6"/>
<stop offset="1" stop-color="#5A64AD"/>
</linearGradient>
<linearGradient id="paint33_linear_2_13851" x1="28.7836" y1="41.8161" x2="37.7196" y2="41.8161" gradientUnits="userSpaceOnUse">
<stop stop-color="#6DCACE"/>
<stop offset="0.1324" stop-color="#6DC5CC"/>
<stop offset="0.2886" stop-color="#6BBCCA"/>
<stop offset="0.4568" stop-color="#67ADC6"/>
<stop offset="0.6335" stop-color="#6399BF"/>
<stop offset="0.8167" stop-color="#5F7FB6"/>
<stop offset="1" stop-color="#5A64AD"/>
</linearGradient>
<linearGradient id="paint34_linear_2_13851" x1="19.8475" y1="41.8158" x2="28.7835" y2="41.8158" gradientUnits="userSpaceOnUse">
<stop stop-color="#6DCACE"/>
<stop offset="0.1324" stop-color="#6DC5CC"/>
<stop offset="0.2886" stop-color="#6BBCCA"/>
<stop offset="0.4568" stop-color="#67ADC6"/>
<stop offset="0.6335" stop-color="#6399BF"/>
<stop offset="0.8167" stop-color="#5F7FB6"/>
<stop offset="1" stop-color="#5A64AD"/>
</linearGradient>
<linearGradient id="paint35_linear_2_13851" x1="11.4211" y1="74.384" x2="41.1966" y2="74.384" gradientUnits="userSpaceOnUse">
<stop stop-color="#5A64AD"/>
<stop offset="0.1412" stop-color="#5F67B0"/>
<stop offset="0.3479" stop-color="#6E73B6"/>
<stop offset="0.5946" stop-color="#8587C1"/>
<stop offset="0.8701" stop-color="#A9A8D4"/>
<stop offset="1" stop-color="#BEBDDF"/>
</linearGradient>
<linearGradient id="paint36_linear_2_13851" x1="19.8475" y1="70.3603" x2="37.7195" y2="70.3603" gradientUnits="userSpaceOnUse">
<stop stop-color="#6DCACE"/>
<stop offset="0.1324" stop-color="#6DC5CC"/>
<stop offset="0.2886" stop-color="#6BBCCA"/>
<stop offset="0.4568" stop-color="#67ADC6"/>
<stop offset="0.6335" stop-color="#6399BF"/>
<stop offset="0.8167" stop-color="#5F7FB6"/>
<stop offset="1" stop-color="#5A64AD"/>
</linearGradient>
<linearGradient id="paint37_linear_2_13851" x1="28.7834" y1="67.1303" x2="37.7196" y2="67.1303" gradientUnits="userSpaceOnUse">
<stop stop-color="#6DCACE"/>
<stop offset="0.1324" stop-color="#6DC5CC"/>
<stop offset="0.2886" stop-color="#6BBCCA"/>
<stop offset="0.4568" stop-color="#67ADC6"/>
<stop offset="0.6335" stop-color="#6399BF"/>
<stop offset="0.8167" stop-color="#5F7FB6"/>
<stop offset="1" stop-color="#5A64AD"/>
</linearGradient>
<linearGradient id="paint38_linear_2_13851" x1="19.8474" y1="67.1303" x2="28.7835" y2="67.1303" gradientUnits="userSpaceOnUse">
<stop stop-color="#6DCACE"/>
<stop offset="0.1324" stop-color="#6DC5CC"/>
<stop offset="0.2886" stop-color="#6BBCCA"/>
<stop offset="0.4568" stop-color="#67ADC6"/>
<stop offset="0.6335" stop-color="#6399BF"/>
<stop offset="0.8167" stop-color="#5F7FB6"/>
<stop offset="1" stop-color="#5A64AD"/>
</linearGradient>
<linearGradient id="paint39_linear_2_13851" x1="19.8474" y1="69.0595" x2="37.7194" y2="69.0595" gradientUnits="userSpaceOnUse">
<stop stop-color="#6DCACE"/>
<stop offset="0.1324" stop-color="#6DC5CC"/>
<stop offset="0.2886" stop-color="#6BBCCA"/>
<stop offset="0.4568" stop-color="#67ADC6"/>
<stop offset="0.6335" stop-color="#6399BF"/>
<stop offset="0.8167" stop-color="#5F7FB6"/>
<stop offset="1" stop-color="#5A64AD"/>
</linearGradient>
<linearGradient id="paint40_linear_2_13851" x1="28.7836" y1="72.2894" x2="37.7196" y2="72.2894" gradientUnits="userSpaceOnUse">
<stop stop-color="#6DCACE"/>
<stop offset="0.1324" stop-color="#6DC5CC"/>
<stop offset="0.2886" stop-color="#6BBCCA"/>
<stop offset="0.4568" stop-color="#67ADC6"/>
<stop offset="0.6335" stop-color="#6399BF"/>
<stop offset="0.8167" stop-color="#5F7FB6"/>
<stop offset="1" stop-color="#5A64AD"/>
</linearGradient>
<linearGradient id="paint41_linear_2_13851" x1="19.8475" y1="72.2895" x2="28.7835" y2="72.2895" gradientUnits="userSpaceOnUse">
<stop stop-color="#6DCACE"/>
<stop offset="0.1324" stop-color="#6DC5CC"/>
<stop offset="0.2886" stop-color="#6BBCCA"/>
<stop offset="0.4568" stop-color="#67ADC6"/>
<stop offset="0.6335" stop-color="#6399BF"/>
<stop offset="0.8167" stop-color="#5F7FB6"/>
<stop offset="1" stop-color="#5A64AD"/>
</linearGradient>
<linearGradient id="paint42_linear_2_13851" x1="57.9912" y1="43.9102" x2="87.7666" y2="43.9102" gradientUnits="userSpaceOnUse">
<stop stop-color="#5A64AD"/>
<stop offset="0.1412" stop-color="#5F67B0"/>
<stop offset="0.3479" stop-color="#6E73B6"/>
<stop offset="0.5946" stop-color="#8587C1"/>
<stop offset="0.8701" stop-color="#A9A8D4"/>
<stop offset="1" stop-color="#BEBDDF"/>
</linearGradient>
<linearGradient id="paint43_linear_2_13851" x1="66.4177" y1="39.8866" x2="84.2897" y2="39.8866" gradientUnits="userSpaceOnUse">
<stop stop-color="#6DCACE"/>
<stop offset="0.1324" stop-color="#6DC5CC"/>
<stop offset="0.2886" stop-color="#6BBCCA"/>
<stop offset="0.4568" stop-color="#67ADC6"/>
<stop offset="0.6335" stop-color="#6399BF"/>
<stop offset="0.8167" stop-color="#5F7FB6"/>
<stop offset="1" stop-color="#5A64AD"/>
</linearGradient>
<linearGradient id="paint44_linear_2_13851" x1="75.3537" y1="36.6565" x2="84.2899" y2="36.6565" gradientUnits="userSpaceOnUse">
<stop stop-color="#6DCACE"/>
<stop offset="0.1324" stop-color="#6DC5CC"/>
<stop offset="0.2886" stop-color="#6BBCCA"/>
<stop offset="0.4568" stop-color="#67ADC6"/>
<stop offset="0.6335" stop-color="#6399BF"/>
<stop offset="0.8167" stop-color="#5F7FB6"/>
<stop offset="1" stop-color="#5A64AD"/>
</linearGradient>
<linearGradient id="paint45_linear_2_13851" x1="66.4177" y1="36.6564" x2="75.3537" y2="36.6564" gradientUnits="userSpaceOnUse">
<stop stop-color="#6DCACE"/>
<stop offset="0.1324" stop-color="#6DC5CC"/>
<stop offset="0.2886" stop-color="#6BBCCA"/>
<stop offset="0.4568" stop-color="#67ADC6"/>
<stop offset="0.6335" stop-color="#6399BF"/>
<stop offset="0.8167" stop-color="#5F7FB6"/>
<stop offset="1" stop-color="#5A64AD"/>
</linearGradient>
<linearGradient id="paint46_linear_2_13851" x1="66.4177" y1="38.5856" x2="84.2897" y2="38.5856" gradientUnits="userSpaceOnUse">
<stop stop-color="#6DCACE"/>
<stop offset="0.1324" stop-color="#6DC5CC"/>
<stop offset="0.2886" stop-color="#6BBCCA"/>
<stop offset="0.4568" stop-color="#67ADC6"/>
<stop offset="0.6335" stop-color="#6399BF"/>
<stop offset="0.8167" stop-color="#5F7FB6"/>
<stop offset="1" stop-color="#5A64AD"/>
</linearGradient>
<linearGradient id="paint47_linear_2_13851" x1="75.3539" y1="41.8159" x2="84.2899" y2="41.8159" gradientUnits="userSpaceOnUse">
<stop stop-color="#6DCACE"/>
<stop offset="0.1324" stop-color="#6DC5CC"/>
<stop offset="0.2886" stop-color="#6BBCCA"/>
<stop offset="0.4568" stop-color="#67ADC6"/>
<stop offset="0.6335" stop-color="#6399BF"/>
<stop offset="0.8167" stop-color="#5F7FB6"/>
<stop offset="1" stop-color="#5A64AD"/>
</linearGradient>
<linearGradient id="paint48_linear_2_13851" x1="66.4177" y1="41.8158" x2="75.3537" y2="41.8158" gradientUnits="userSpaceOnUse">
<stop stop-color="#6DCACE"/>
<stop offset="0.1324" stop-color="#6DC5CC"/>
<stop offset="0.2886" stop-color="#6BBCCA"/>
<stop offset="0.4568" stop-color="#67ADC6"/>
<stop offset="0.6335" stop-color="#6399BF"/>
<stop offset="0.8167" stop-color="#5F7FB6"/>
<stop offset="1" stop-color="#5A64AD"/>
</linearGradient>
<linearGradient id="paint49_linear_2_13851" x1="57.9911" y1="74.3838" x2="87.7665" y2="74.3838" gradientUnits="userSpaceOnUse">
<stop stop-color="#5A64AD"/>
<stop offset="0.1412" stop-color="#5F67B0"/>
<stop offset="0.3479" stop-color="#6E73B6"/>
<stop offset="0.5946" stop-color="#8587C1"/>
<stop offset="0.8701" stop-color="#A9A8D4"/>
<stop offset="1" stop-color="#BEBDDF"/>
</linearGradient>
<linearGradient id="paint50_linear_2_13851" x1="66.4176" y1="70.3603" x2="84.2896" y2="70.3603" gradientUnits="userSpaceOnUse">
<stop stop-color="#6DCACE"/>
<stop offset="0.1324" stop-color="#6DC5CC"/>
<stop offset="0.2886" stop-color="#6BBCCA"/>
<stop offset="0.4568" stop-color="#67ADC6"/>
<stop offset="0.6335" stop-color="#6399BF"/>
<stop offset="0.8167" stop-color="#5F7FB6"/>
<stop offset="1" stop-color="#5A64AD"/>
</linearGradient>
<linearGradient id="paint51_linear_2_13851" x1="75.3536" y1="67.1303" x2="84.2898" y2="67.1303" gradientUnits="userSpaceOnUse">
<stop stop-color="#6DCACE"/>
<stop offset="0.1324" stop-color="#6DC5CC"/>
<stop offset="0.2886" stop-color="#6BBCCA"/>
<stop offset="0.4568" stop-color="#67ADC6"/>
<stop offset="0.6335" stop-color="#6399BF"/>
<stop offset="0.8167" stop-color="#5F7FB6"/>
<stop offset="1" stop-color="#5A64AD"/>
</linearGradient>
<linearGradient id="paint52_linear_2_13851" x1="66.4176" y1="67.1303" x2="75.3537" y2="67.1303" gradientUnits="userSpaceOnUse">
<stop stop-color="#6DCACE"/>
<stop offset="0.1324" stop-color="#6DC5CC"/>
<stop offset="0.2886" stop-color="#6BBCCA"/>
<stop offset="0.4568" stop-color="#67ADC6"/>
<stop offset="0.6335" stop-color="#6399BF"/>
<stop offset="0.8167" stop-color="#5F7FB6"/>
<stop offset="1" stop-color="#5A64AD"/>
</linearGradient>
<linearGradient id="paint53_linear_2_13851" x1="66.4176" y1="69.0595" x2="84.2896" y2="69.0595" gradientUnits="userSpaceOnUse">
<stop stop-color="#6DCACE"/>
<stop offset="0.1324" stop-color="#6DC5CC"/>
<stop offset="0.2886" stop-color="#6BBCCA"/>
<stop offset="0.4568" stop-color="#67ADC6"/>
<stop offset="0.6335" stop-color="#6399BF"/>
<stop offset="0.8167" stop-color="#5F7FB6"/>
<stop offset="1" stop-color="#5A64AD"/>
</linearGradient>
<linearGradient id="paint54_linear_2_13851" x1="75.3538" y1="72.2894" x2="84.2898" y2="72.2894" gradientUnits="userSpaceOnUse">
<stop stop-color="#6DCACE"/>
<stop offset="0.1324" stop-color="#6DC5CC"/>
<stop offset="0.2886" stop-color="#6BBCCA"/>
<stop offset="0.4568" stop-color="#67ADC6"/>
<stop offset="0.6335" stop-color="#6399BF"/>
<stop offset="0.8167" stop-color="#5F7FB6"/>
<stop offset="1" stop-color="#5A64AD"/>
</linearGradient>
<linearGradient id="paint55_linear_2_13851" x1="66.4176" y1="72.2895" x2="75.3537" y2="72.2895" gradientUnits="userSpaceOnUse">
<stop stop-color="#6DCACE"/>
<stop offset="0.1324" stop-color="#6DC5CC"/>
<stop offset="0.2886" stop-color="#6BBCCA"/>
<stop offset="0.4568" stop-color="#67ADC6"/>
<stop offset="0.6335" stop-color="#6399BF"/>
<stop offset="0.8167" stop-color="#5F7FB6"/>
<stop offset="1" stop-color="#5A64AD"/>
</linearGradient>
</defs>
</svg>
