<svg width="105" height="99" viewBox="0 0 105 99" fill="none" xmlns="http://www.w3.org/2000/svg">
<path opacity="0.4" d="M100.261 82.8818C100.806 82.8818 101.247 82.4404 101.247 81.8959C101.247 81.3513 100.806 80.9099 100.261 80.9099C99.7168 80.9099 99.2754 81.3513 99.2754 81.8959C99.2754 82.4404 99.7168 82.8818 100.261 82.8818Z" fill="#273675"/>
<path opacity="0.4" d="M20.2474 32.8564C20.548 32.8564 20.7917 32.6127 20.7917 32.3121C20.7917 32.0115 20.548 31.7678 20.2474 31.7678C19.9468 31.7678 19.7031 32.0115 19.7031 32.3121C19.7031 32.6127 19.9468 32.8564 20.2474 32.8564Z" fill="#273675"/>
<path opacity="0.4" d="M26.6245 26.3865C27.827 26.3865 28.8017 25.4117 28.8017 24.2092C28.8017 23.0068 27.827 22.032 26.6245 22.032C25.4221 22.032 24.4473 23.0068 24.4473 24.2092C24.4473 25.4117 25.4221 26.3865 26.6245 26.3865Z" fill="#273675"/>
<path opacity="0.8" d="M27.5282 24.2092C27.5282 24.7124 27.1277 25.113 26.6245 25.113C26.1212 25.113 25.7207 24.7124 25.7207 24.2092C25.7207 23.706 26.1212 23.3054 26.6245 23.3054C27.1277 23.3054 27.5282 23.7162 27.5282 24.2092Z" fill="#273675"/>
<path d="M31.4213 39.9633L26.502 24.1064L26.6457 24.127L66.8425 29.7549L66.822 29.9296L26.7587 24.3221L31.5959 39.912L31.4213 39.9633Z" fill="#273675"/>
<path opacity="0.4" d="M19.1588 20.9844C19.1588 21.6006 18.6658 22.0936 18.0496 22.0936C17.4334 22.0936 16.9404 21.6006 16.9404 20.9844C16.9404 20.3682 17.4334 19.8752 18.0496 19.8752C18.6555 19.8752 19.1588 20.3785 19.1588 20.9844Z" fill="#07A7D3"/>
<path opacity="0.8" d="M18.5838 20.9845C18.5838 21.2823 18.3373 21.5288 18.0395 21.5288C17.7417 21.5288 17.4952 21.2823 17.4952 20.9845C17.4952 20.6867 17.7417 20.4402 18.0395 20.4402C18.3476 20.4402 18.5838 20.6867 18.5838 20.9845Z" fill="#07A7D3"/>
<path opacity="0.4" d="M60.4746 65.8745C60.4746 66.2031 60.2075 66.4804 59.8686 66.4804C59.5297 66.4804 59.2627 66.2134 59.2627 65.8745C59.2627 65.5356 59.5297 65.2686 59.8686 65.2686C60.2075 65.2686 60.4746 65.5458 60.4746 65.8745Z" fill="#07A7D3"/>
<path opacity="0.4" d="M55.2881 33.0311C55.4753 33.0311 55.627 32.8794 55.627 32.6922C55.627 32.505 55.4753 32.3533 55.2881 32.3533C55.101 32.3533 54.9492 32.505 54.9492 32.6922C54.9492 32.8794 55.101 33.0311 55.2881 33.0311Z" fill="#07A7D3"/>
<path d="M16.3239 55.9643C15.6358 55.9643 14.958 55.8102 14.4342 55.5124L1.75078 48.1899C1.22701 47.8818 0.939453 47.4709 0.939453 47.0293C0.939453 46.5877 1.22701 46.1769 1.75078 45.8688L14.3624 38.5361C15.3996 37.9301 17.0942 37.9404 18.1314 38.5361L30.8149 45.8586C31.3387 46.1667 31.6262 46.5774 31.6262 47.0191C31.6262 47.4607 31.3387 47.8715 30.8149 48.1796L18.2033 55.5124C17.6898 55.8102 17.012 55.9643 16.3239 55.9643ZM16.2623 38.3204C15.6256 38.3204 14.9786 38.4641 14.4959 38.7414L1.88429 46.0742C1.43241 46.331 1.18593 46.6699 1.18593 47.0293C1.18593 47.3888 1.43241 47.7174 1.88429 47.9844L14.5678 55.307C15.5434 55.8718 17.125 55.8718 18.1006 55.307L30.7122 47.9742C31.1641 47.7174 31.4106 47.3785 31.4106 47.0191C31.4106 46.6596 31.1641 46.331 30.7122 46.064L18.0287 38.7414C17.5358 38.4641 16.899 38.3204 16.2623 38.3204Z" fill="#07A7D3"/>
<path d="M31.5858 43.0137V36.9339L23.9039 37.9609L18.1527 34.6436C17.1462 34.0582 15.503 34.0582 14.4965 34.6436L13.6031 35.2085L1.125 36.8722V43.024V43.0342V43.0651C1.13527 43.4348 1.38175 43.8045 1.87471 44.0818L14.5582 51.4043C15.5646 51.9897 17.2078 51.9897 18.2143 51.4043L30.8259 44.0715C31.3188 43.7942 31.5653 43.4245 31.5756 43.0548H31.5858V43.0137Z" fill="url(#paint0_linear_2_14101)"/>
<path d="M30.8359 35.835L18.1524 28.5125C17.146 27.9271 15.5028 27.9271 14.4963 28.5125L1.88473 35.8453C0.878268 36.4307 0.878268 37.3755 1.88473 37.9507L14.5682 45.2732C15.5746 45.8586 17.2178 45.8586 18.2243 45.2732L30.8359 37.9404C31.8423 37.3653 31.8423 36.4204 30.8359 35.835Z" fill="url(#paint1_radial_2_14101)"/>
<path d="M30.8359 37.581L18.2244 44.9137C17.2179 45.4991 15.5747 45.4991 14.5683 44.9137L1.8848 37.5912C1.46373 37.3447 1.21725 37.0366 1.14536 36.7183C1.05293 37.1599 1.28914 37.622 1.8848 37.961L14.5683 45.2835C15.5747 45.8689 17.2179 45.8689 18.2244 45.2835L30.8359 37.9507C31.4213 37.6118 31.6678 37.1496 31.5754 36.708C31.4932 37.0264 31.257 37.3345 30.8359 37.581Z" fill="white"/>
<path d="M19.9189 46.9061L19.3232 47.2553V46.5569L19.9189 46.2078V46.9061Z" fill="white"/>
<path d="M21.1821 46.1769L20.5762 46.5261V45.8277L21.1821 45.4888V46.1769Z" fill="white"/>
<path d="M22.435 45.4581L21.8291 45.797V45.1089L22.435 44.7598V45.4581Z" fill="white"/>
<path d="M21.4077 47.4503L20.8018 47.7995V47.1011L21.4077 46.7622V47.4503Z" fill="white"/>
<path d="M22.5068 46.8136L21.9111 47.1628V46.4644L22.5068 46.1152V46.8136Z" fill="white"/>
<path d="M26.4609 43.1266L25.8652 43.4758V42.7774L26.4609 42.4385V43.1266Z" fill="white"/>
<path d="M29.9219 41.1344L29.3262 41.4733V40.7852L29.9219 40.436V41.1344Z" fill="white"/>
<path d="M23.6884 44.7289L23.0928 45.078V44.3797L23.6884 44.0305V44.7289Z" fill="white"/>
<path opacity="0.4" d="M15.6358 42.192L7.10141 37.2624C6.75223 37.0673 6.79331 36.7079 7.19384 36.4819L15.5331 31.6653C15.9336 31.4291 16.5395 31.4085 16.8887 31.6139L25.4231 36.5435C25.7723 36.7387 25.7312 37.0981 25.3307 37.3241L16.9914 42.1407C16.5909 42.3666 15.985 42.3872 15.6358 42.192Z" fill="#10113C"/>
<path d="M12.2772 47.5223L5.23193 43.4553C5.06761 43.3629 4.92383 43.0959 4.92383 42.8699V42.3462C4.92383 42.1202 5.05734 42.0175 5.23193 42.1202L12.2772 46.1871C12.4415 46.2796 12.5853 46.5466 12.5853 46.7725V47.2963C12.5853 47.512 12.4517 47.6147 12.2772 47.5223Z" fill="white"/>
<path d="M31.5858 31.6138V25.534L23.9039 26.561L18.1527 23.2437C17.1462 22.6583 15.503 22.6583 14.4965 23.2437L13.6031 23.8086L1.125 25.4723V31.6241V31.6343V31.6651C1.13527 32.0349 1.38175 32.4046 1.87471 32.6819L14.5582 40.0044C15.5646 40.5898 17.2078 40.5898 18.2143 40.0044L30.8259 32.6716C31.3188 32.3943 31.5653 32.0246 31.5756 31.6549H31.5858V31.6138Z" fill="url(#paint2_linear_2_14101)"/>
<path d="M30.8359 24.4249L18.1524 17.1024C17.146 16.517 15.5028 16.517 14.4963 17.1024L1.88473 24.4351C0.878268 25.0205 0.878268 25.9654 1.88473 26.5405L14.5682 33.863C15.5746 34.4484 17.2178 34.4484 18.2243 33.863L30.8359 26.5302C31.8423 25.9551 31.8423 25.0103 30.8359 24.4249Z" fill="url(#paint3_radial_2_14101)"/>
<path opacity="0.4" d="M24.7873 24.8666L17.3929 20.6045C16.8075 20.2656 15.8524 20.2656 15.267 20.6045L7.91365 24.8769C7.32826 25.2158 7.32826 25.7704 7.91365 26.1093L15.3081 30.3713C15.8934 30.7102 16.8486 30.7102 17.4339 30.3713L24.7873 26.099C25.3829 25.7601 25.3829 25.2158 24.7873 24.8666Z" fill="#10113C"/>
<path d="M30.8359 26.1708L18.2244 33.5036C17.2179 34.089 15.5747 34.089 14.5683 33.5036L1.8848 26.1811C1.46373 25.9346 1.21725 25.6265 1.14536 25.3081C1.05293 25.7497 1.28914 26.2119 1.8848 26.5508L14.5683 33.8733C15.5747 34.4587 17.2179 34.4587 18.2244 33.8733L30.8359 26.5405C31.4213 26.2016 31.6678 25.7395 31.5754 25.2979C31.4932 25.6162 31.257 25.9243 30.8359 26.1708Z" fill="white"/>
<path d="M19.9189 35.4959L19.3232 35.8451V35.1468L19.9189 34.8079V35.4959Z" fill="white"/>
<path d="M21.1821 34.7669L20.5762 35.1161V34.428L21.1821 34.0789V34.7669Z" fill="white"/>
<path d="M22.435 34.048L21.8291 34.3972V33.6988L22.435 33.3496V34.048Z" fill="white"/>
<path d="M21.4077 36.0404L20.8018 36.3896V35.7015L21.4077 35.3523V36.0404Z" fill="white"/>
<path d="M22.5068 35.4034L21.9111 35.7526V35.0542L22.5068 34.7153V35.4034Z" fill="white"/>
<path d="M26.4609 31.7166L25.8652 32.0658V31.3777L26.4609 31.0286V31.7166Z" fill="white"/>
<path d="M29.9219 29.7242L29.3262 30.0734V29.3751L29.9219 29.0259V29.7242Z" fill="white"/>
<path d="M23.6884 33.3187L23.0928 33.6679V32.9695L23.6884 32.6306V33.3187Z" fill="white"/>
<path d="M31.5858 20.2039V14.124L23.9039 15.151L18.1527 11.8338C17.1462 11.2484 15.503 11.2484 14.4965 11.8338L13.6031 12.3987L1.125 14.0624V20.2141V20.2244V20.2552C1.13527 20.6249 1.38175 20.9947 1.87471 21.272L14.5582 28.5945C15.5646 29.1799 17.2078 29.1799 18.2143 28.5945L30.8259 21.2617C31.3188 20.9844 31.5653 20.6147 31.5756 20.245H31.5858V20.2039Z" fill="url(#paint4_linear_2_14101)"/>
<path d="M30.8359 13.0252L18.1524 5.70271C17.146 5.11732 15.5028 5.11732 14.4963 5.70271L1.88473 13.0355C0.878268 13.6209 0.878268 14.5657 1.88473 15.1409L14.5682 22.4634C15.5746 23.0488 17.2178 23.0488 18.2243 22.4634L30.8359 15.1306C31.8423 14.5452 31.8423 13.6004 30.8359 13.0252Z" fill="url(#paint5_radial_2_14101)"/>
<path d="M30.8359 14.7609L18.2244 22.0937C17.2179 22.6791 15.5747 22.6791 14.5683 22.0937L1.8848 14.7711C1.46373 14.5247 1.21725 14.2166 1.14536 13.8982C1.05293 14.3398 1.28914 14.802 1.8848 15.1409L14.5683 22.4634C15.5747 23.0488 17.2179 23.0488 18.2244 22.4634L30.8359 15.1306C31.4213 14.7917 31.6678 14.3295 31.5754 13.8879C31.4932 14.2063 31.257 14.5144 30.8359 14.7609Z" fill="white"/>
<path d="M19.9189 24.0861L19.3232 24.4352V23.7472L19.9189 23.3979V24.0861Z" fill="white"/>
<path d="M21.1821 23.3671L20.5762 23.706V23.0179L21.1821 22.6687V23.3671Z" fill="white"/>
<path d="M22.435 22.638L21.8291 22.9872V22.2888L22.435 21.95V22.638Z" fill="white"/>
<path d="M21.4077 24.6408L20.8018 24.9797V24.2916L21.4077 23.9424V24.6408Z" fill="white"/>
<path d="M22.5068 23.9935L21.9111 24.3427V23.6546L22.5068 23.3054V23.9935Z" fill="white"/>
<path d="M26.4609 20.317L25.8652 20.6559V19.9678L26.4609 19.6187V20.317Z" fill="white"/>
<path d="M29.9219 18.3143L29.3262 18.6635V17.9651L29.9219 17.6262V18.3143Z" fill="white"/>
<path d="M23.6884 21.9088L23.0928 22.258V21.5699L23.6884 21.2207V21.9088Z" fill="white"/>
<path d="M12.2766 36.3689L5.24169 32.302C5.07737 32.2096 4.93359 31.9425 4.93359 31.7166V31.1928C4.93359 30.9669 5.0671 30.8642 5.24169 30.9669L12.2869 35.0338C12.4512 35.1262 12.595 35.3933 12.595 35.6192V36.143C12.5848 36.3586 12.4512 36.4613 12.2766 36.3689Z" fill="white"/>
<path d="M12.2772 24.887L5.23193 20.8201C5.06761 20.7277 4.92383 20.4606 4.92383 20.2347V19.7109C4.92383 19.485 5.05734 19.3823 5.23193 19.485L12.2772 23.5519C12.4415 23.6443 12.5853 23.9113 12.5853 24.1373V24.6611C12.5853 24.8767 12.4517 24.9794 12.2772 24.887Z" fill="white"/>
<path d="M60.7814 90.6458C60.0215 90.6458 59.2923 90.4917 58.748 90.1836L15.0799 64.9708C14.5356 64.6627 14.248 64.2211 14.248 63.7486C14.248 63.1735 14.6691 62.6087 15.4086 62.1773L35.8356 50.3874C37.2118 49.5966 39.2966 49.5144 40.4879 50.2025L84.156 75.4154C84.7003 75.7235 84.9878 76.1651 84.9878 76.6375C84.9878 77.2126 84.5668 77.7775 83.8273 78.2088L63.4003 89.9988C62.6609 90.4199 61.6955 90.6458 60.7814 90.6458ZM58.8404 90.0091C59.9804 90.6663 61.983 90.5842 63.3079 89.8242L83.7349 78.0342C84.4127 77.644 84.803 77.1305 84.803 76.6272C84.803 76.2164 84.536 75.8365 84.0636 75.5694L40.3955 50.3566C39.2555 49.6993 37.2529 49.7815 35.928 50.5414L15.501 62.3314C14.8232 62.7216 14.4329 63.2351 14.4329 63.7384C14.4329 64.1492 14.6999 64.5189 15.1723 64.7962L58.8404 90.0091Z" fill="#273675"/>
<path d="M64.5911 30.7614C64.5603 30.4944 64.3857 30.2376 64.0571 30.0528L63.8414 29.9295C63.0506 29.4674 61.6539 29.529 60.7399 30.063L54.2697 33.8013C53.7871 34.0786 53.5303 34.4381 53.5098 34.7873V35.9169C53.5098 36.2045 53.6844 36.4921 54.0438 36.6975L54.2595 36.8207C55.0503 37.2828 56.447 37.2212 57.361 36.6872L63.8311 32.9489C64.3035 32.6716 64.5603 32.3327 64.5911 32.0041V30.7614Z" fill="url(#paint6_radial_2_14101)"/>
<path d="M54.2592 35.7115L54.0435 35.5883C53.2527 35.1261 53.3452 34.3251 54.2695 33.8013L60.7396 30.063C61.6536 29.529 63.0503 29.4776 63.8411 29.9295L64.0568 30.0527C64.8476 30.5149 64.7552 31.3159 63.8309 31.8397L57.3607 35.578C56.4364 36.112 55.05 36.1737 54.2592 35.7115Z" fill="url(#paint7_radial_2_14101)"/>
<path d="M67.9591 40.9287L54.3925 48.7545C53.7249 49.1447 53.1806 48.7339 53.1806 47.8302C53.1806 46.9367 53.7249 45.8891 54.3925 45.5092L69.931 36.5435V37.1597C69.931 38.6077 69.0478 40.292 67.9591 40.9287Z" fill="#525252"/>
<path d="M68.9547 7.51026C68.4823 7.25351 67.8764 7.2946 67.2191 7.67459L66.8186 7.91081C65.3191 8.77349 64.1073 11.0945 64.1073 13.0971V39.9122L67.712 37.8273V38.6797L63.3884 42.2024L53.5703 48.7854L67.3731 56.5906L75.3016 50.48L79.8204 46.6185L82.6344 15.2333L68.9547 7.51026Z" fill="url(#paint8_radial_2_14101)"/>
<path d="M58.8505 51.7738C58.8505 51.7738 58.4808 50.7982 59.2099 50.0793C59.9391 49.3501 63.7493 47.748 64.0266 47.5734C64.3038 47.3988 65.6698 46.3923 65.6698 46.3923L66.0908 45.4578C66.0908 45.4578 58.3472 46.2075 58.2445 46.3307C58.1418 46.454 54.6192 49.6068 54.7219 49.7506C54.8246 49.8841 57.1457 50.449 57.1457 50.449L57.5975 51.0652L58.8505 51.7738Z" fill="#2D2E2D"/>
<path d="M80.9609 15.4283L80.5604 15.6644C79.061 16.5271 77.8491 18.8482 77.8491 20.8508V47.6658L68.1542 53.263C67.4867 53.6532 66.9424 54.6905 66.9424 55.584C66.9424 56.4775 67.4867 56.8883 68.1542 56.5083L81.7209 48.6825C82.8096 48.0561 83.6928 46.3615 83.6928 44.9134V44.2972V17.4823C83.6722 15.4899 82.4604 14.5656 80.9609 15.4283Z" fill="url(#paint9_radial_2_14101)"/>
<path d="M55.184 57.5867C55.184 57.5867 53.1813 58.8704 52.5138 59.6201C51.836 60.3801 50.5009 61.9206 51.0554 62.66C51.61 63.3995 53.4689 63.8103 55.4613 61.972C57.4639 60.1336 56.8888 60.0207 58.5936 59.1066C60.2985 58.1926 60.7606 57.2067 60.5552 56.6315C60.3498 56.0667 59.5077 55.0602 59.0558 55.2759C58.5936 55.4916 55.184 57.5867 55.184 57.5867Z" fill="#151C46"/>
<path d="M64.8985 62.9682C64.8985 62.9682 64.1796 64.5498 63.8098 65.0736C63.4401 65.5974 61.6429 68.6167 62.5877 69.3151C63.5223 70.0135 64.9909 69.4178 66.3876 67.8978C67.7946 66.3779 68.4108 64.9195 68.76 64.3033C69.1092 63.6974 69.9718 62.0747 69.561 61.1299C69.1502 60.1953 69.0578 60.031 69.0578 60.031L64.8985 62.9682Z" fill="#151C46"/>
<path d="M57.6491 40.4974C57.6491 40.4974 51.713 46.3513 50.7373 49.2988C50.7373 49.2988 50.3265 50.8907 51.4768 52.1334C52.627 53.376 55.061 57.4532 55.061 57.4532C55.061 57.4532 56.8788 59.651 59.2306 57.8948C59.2306 57.8948 60.2884 56.2003 59.6414 55.0706C58.9841 53.9409 57.2485 50.3361 57.2485 50.3361C57.2485 50.3361 61.0587 47.7172 62.9381 47.06C64.8175 46.4027 65.824 45.8892 65.824 45.8892C65.824 45.8892 65.4851 47.6659 64.1089 49.3913C62.7327 51.1166 60.4322 53.8998 61.2025 55.8306C61.9727 57.7613 62.4143 58.3672 63.1332 59.4764C63.8521 60.5856 64.53 62.9169 65.1462 63.1531C65.7624 63.3996 68.5969 63.6768 69.059 61.8282C69.5212 59.9796 68.0936 56.3851 67.4466 55.1733C67.4466 55.1733 75.1286 46.3103 75.8578 45.3449C76.5767 44.359 60.0214 38.9878 57.6491 40.4974Z" fill="url(#paint10_radial_2_14101)"/>
<path opacity="0.4" d="M59.6309 55.0705C58.9736 53.9408 57.238 50.336 57.238 50.336C57.238 50.336 61.0481 47.7171 62.9275 47.0599C64.807 46.4026 65.8134 45.8891 65.8134 45.8891C66.1729 45.3961 67.3436 43.4859 67.8572 41.9762C63.5232 40.7027 58.8298 39.7476 57.6385 40.4973C58.0596 41.5346 60.2676 41.5243 60.2676 41.5243C60.2676 41.5243 61.0892 43.527 61.6335 43.7837C62.1778 44.0405 63.4924 43.7632 63.4924 43.7632C63.4924 43.7632 63.2767 44.0919 62.3524 44.7697C61.4179 45.4475 55.5742 50.2333 55.5742 50.2333C55.5742 50.2333 55.9029 50.4182 57.4639 53.2321C59.0147 56.0461 59.2201 57.8947 59.2201 57.8947C59.2201 57.8947 60.2882 56.1899 59.6309 55.0705Z" fill="#10113C"/>
<path opacity="0.4" d="M72.7561 43.5989C69.3259 43.2703 65.3308 43.2395 66.2243 45.047C67.7546 48.1075 70.8253 48.241 70.8253 48.241C70.8048 49.3604 66.0908 54.7932 66.0908 54.7932C66.0908 54.7932 66.0908 54.7933 67.1897 56.9294C68.2886 59.0656 68.1448 62.9476 68.1448 62.9476C68.5659 62.7217 68.9048 62.3622 69.0383 61.8179C69.5005 59.9693 68.0729 56.3748 67.4259 55.163C67.4259 55.163 75.1079 46.3 75.8371 45.3346C76.063 45.047 74.7587 44.3692 72.7561 43.5989Z" fill="#10113C"/>
<path d="M51.6416 24.8766L52.5556 24.168C52.5556 24.168 57.475 21.4362 59.1182 20.553C60.0014 20.0703 60.9257 19.2179 61.583 18.5298C62.2197 17.8622 63.1132 17.4925 64.0375 17.4823L72.6643 17.4412C72.6643 17.4412 73.6708 19.0536 74.0097 19.3719C74.2562 19.6081 76.5977 21.5697 78.282 23.1821C79.2063 24.0756 79.8841 25.195 80.2333 26.4377C81.1987 29.8268 81.1781 36.6461 81.3219 41.5243C81.3219 41.5243 80.7263 41.7606 79.2474 42.0687C77.7788 42.387 77.9636 42.1816 77.9636 42.1816C77.9636 42.1816 75.7659 47.1318 72.7773 47.6145C69.7887 48.0971 65.7731 46.7004 65.0542 42.007C65.0542 42.007 59.2311 41.1341 57.6598 40.4871C57.516 40.4254 57.4647 40.2508 57.5571 40.1173C58.2658 39.1828 60.8846 35.5677 61.1311 33.2056C61.4187 30.4738 61.3262 26.5199 61.1106 25.4415C61.1106 25.4415 56.7253 27.095 55.3183 27.3928C55.3183 27.3928 49.9779 33.2672 47.739 34.8591C47.739 34.8591 48.499 33.6575 46.9688 32.8462L51.6416 24.8766Z" fill="url(#paint11_radial_2_14101)"/>
<path opacity="0.4" d="M79.2463 42.0687C79.4722 42.0173 79.6674 41.9762 79.8522 41.9352L79.5441 41.3292L71.4514 40.4768L66.7272 40.7233L65.1045 42.2638C65.1969 42.767 65.3304 43.2292 65.4845 43.6502C65.4948 43.6502 67.4974 43.9378 68.4217 43.7427C69.3563 43.5476 76.5556 44.6054 76.5761 44.6054C77.3874 43.4346 77.9009 42.346 77.9625 42.2022C77.9523 42.233 78.0344 42.3254 79.2463 42.0687Z" fill="#10113C"/>
<path d="M68.3194 39.2445C68.3091 39.2136 68.2886 39.1931 68.2578 39.1931C67.8675 39.1828 65.3411 39.1109 64.386 38.7823C63.3487 38.4228 62.2498 38.4947 62.1985 38.5461C62.1471 38.6077 60.4115 39.3369 60.3088 39.6347C60.2164 39.9017 60.052 40.8158 60.278 41.1547C60.5039 41.4936 60.6169 41.7195 60.6169 41.7195L60.8018 41.7401C60.8018 41.7401 61.038 42.2022 61.1612 42.3563C61.2228 42.4282 61.2639 42.5103 61.305 42.5925C61.418 42.8287 61.6028 43.219 61.685 43.2292C61.7979 43.2395 62.332 43.3524 62.4655 43.3114C62.5785 43.2806 62.6812 42.9416 62.6298 42.7979C62.6195 42.7568 62.6401 42.7157 62.6812 42.7157C62.9276 42.6746 63.5952 42.5925 64.5195 42.6746C65.6492 42.7773 67.2308 42.0379 67.3848 41.9763C67.3951 41.9763 67.3951 41.966 67.4054 41.966L68.9972 41.8222C69.0383 41.8222 69.0691 41.7709 69.0588 41.7298L68.3194 39.2445Z" fill="#FCD1C6"/>
<path d="M66.4083 22.5146C66.4083 22.5146 65.0629 27.4955 66.4905 32.61C66.4905 32.61 71.6871 22.9151 72.2519 21.3438C72.8168 19.7725 73.0222 18.6531 72.4984 18.0882C71.9746 17.5234 67.2813 20.4401 67.2813 20.4401L66.4083 22.5146Z" fill="#F1F6FC"/>
<path d="M67.744 30.3197C67.744 30.3197 68.7299 27.2901 68.5656 26.3144C68.391 25.3388 68.1445 24.6404 68.1445 24.6404L69.038 23.8188L69.4283 24.6301C69.4283 24.6301 71.3899 23.1923 71.5234 22.9253C71.5234 22.9253 69.9418 24.0139 69.4488 24.1782C69.4488 24.1782 69.2126 23.788 68.9045 23.6545C68.5964 23.5209 67.8159 24.5788 67.8159 24.5788L67.6721 26.4171L66.8916 30.6997L67.1586 31.3364L67.744 30.3197Z" fill="#C4CBD5"/>
<path d="M68.9051 23.6547C68.9051 23.6547 68.0219 22.1039 66.882 22.5764C66.882 22.5764 66.6971 24.4866 66.8511 24.6612C66.5944 25.0001 65.9577 25.9141 65.8447 26.9308C65.5263 29.7756 66.4917 32.6101 66.4917 32.6101L67.2619 31.1621C67.2619 31.1621 67.4571 29.4162 67.9603 27.547C68.3403 26.1606 68.1452 25.0617 68.0219 24.579C68.3506 24.312 68.9051 23.6547 68.9051 23.6547Z" fill="url(#paint12_radial_2_14101)"/>
<path d="M63.9848 14.5758C63.9848 14.5758 63.7486 15.7877 63.8308 16.0137C63.9129 16.2396 64.221 16.3936 64.1491 16.8661C64.0772 17.3385 64.3443 18.7455 64.4881 19.2179C64.4881 19.2179 64.3853 19.7211 64.5291 19.8752C64.6729 20.0292 64.8475 20.0292 64.981 20.2654C65.1145 20.5016 65.1556 21.7238 65.6486 22.1346C66.1415 22.5454 66.7885 22.6275 67.1172 22.5351C67.4458 22.4427 67.795 22.1962 67.795 22.1962L68.5447 22.5043C68.5447 22.5043 72.4062 21.4054 72.283 18.6941V18.4066C72.283 18.4066 72.5603 18.0266 72.6322 17.7698C72.7143 17.5131 73.3511 16.3936 73.0327 15.9007C73.0327 15.9007 74.5321 9.99542 69.9106 9.63597C65.2891 9.29706 64.601 12.5321 63.9848 14.5758Z" fill="#FCD1C6"/>
<path d="M72.2834 18.7045V18.6737C72.0883 18.5608 71.9034 18.4889 71.7493 18.5094C71.2256 18.6018 71.3386 17.5029 71.3386 17.5029C71.3386 17.5029 71.2359 17.6981 70.9688 19.105C70.7018 20.5018 67.7851 22.2066 67.7851 22.2066L68.5348 22.5147C68.5451 22.5147 72.4066 21.4158 72.2834 18.7045Z" fill="#E2B1A6"/>
<path d="M64.0065 12.0187C63.5546 12.9738 63.3389 14.1343 64.2838 14.9046C64.2838 14.9046 65.0746 15.1202 66.5842 14.4219C67.601 13.9495 68.6177 14.1548 69.1723 14.35C69.429 14.4321 69.5934 14.6786 69.5934 14.9457L69.5728 15.7878C69.5626 16.0035 69.6961 16.2089 69.9015 16.291L70.5998 16.5889L70.7436 17.4105C70.7847 17.6467 71.0312 17.8007 71.2674 17.7185L71.442 17.6569C71.442 17.6569 71.5447 15.8391 73.0441 15.9316C73.0441 15.9316 74.2559 13.3025 73.0133 10.8993C71.7706 8.49609 68.3507 8.67068 67.6215 8.9377C66.6664 9.29715 66.7999 9.2458 66.2453 9.58471C65.28 10.1598 64.4892 10.9917 64.0065 12.0187Z" fill="url(#paint13_radial_2_14101)"/>
<path opacity="0.4" d="M76.2893 30.5562C76.2893 30.5562 75.5909 35.7117 75.3034 37.17L73.0439 38.3614L77.0595 38.1149L76.2893 30.5562Z" fill="#10113C"/>
<path opacity="0.4" d="M74.0287 20.4399C74.0287 20.4399 72.8374 24.5479 72.5807 25.3387L71.6153 25.236L71.7899 26.5403L66.6035 33.3699L72.3547 26.7662L72.1288 25.6058L73.0017 25.6982L74.0287 20.4399Z" fill="#10113C"/>
<path d="M68.9466 42.767C68.9466 42.767 81.096 42.3665 81.4144 42.1508C81.7225 41.9248 81.7841 38.8028 81.7533 36.9953C81.7328 35.7218 81.743 30.7511 80.6647 27.2593C81.5171 30.217 81.0652 40.6616 80.6852 41.1957C80.295 41.7297 68.7412 42.0378 68.7412 42.0378C68.8439 42.4589 68.9466 42.767 68.9466 42.767Z" fill="#273649"/>
<path d="M45.0577 33.0413C45.0577 33.0413 45.0166 33.3494 44.4825 33.6472C43.9588 33.9451 42.6031 34.6126 42.3875 34.8077C42.1718 35.0029 41.1961 35.8553 41.1653 35.9683C41.1345 36.0812 40.847 37.0466 40.847 37.1082C40.847 37.1698 40.9394 37.6115 40.9394 37.6115L40.6416 39.039C40.6416 39.039 40.2616 39.5936 40.6724 39.7476C41.0832 39.9017 41.3194 39.4703 41.3297 39.3984C41.3297 39.3984 41.9561 39.1006 42.4183 38.7411C42.8804 38.3817 44.7188 36.9028 45.0371 36.9953C45.3452 37.0877 45.0577 37.6217 44.9139 37.7141C44.7598 37.8066 43.7842 38.7617 44.195 39.4292C44.6058 40.0968 44.8728 39.0492 45.1398 38.8438C45.4068 38.6282 45.9922 37.7963 46.3517 37.6936C46.7111 37.5909 47.3581 36.2558 47.4506 35.6601C47.5327 35.0645 47.9641 34.6742 48.1181 34.4791C48.2722 34.284 47.7895 32.8051 47.7895 32.8051L45.9614 32.2402L45.3247 32.6613L45.0577 33.0413Z" fill="#FCD1C6"/>
<path d="M79.7594 25.2055C79.3794 24.5996 79.2048 25.0514 78.6913 25.5444C78.0032 26.212 77.1302 27.2595 76.6784 28.574C75.867 30.967 76.1546 36.9544 76.4319 37.817C76.4319 37.817 68.8218 39.0597 68.298 39.0392C67.7743 39.0186 68.9553 42.7672 68.9553 42.7672C68.9553 42.7672 81.1047 42.3667 81.4231 42.151C81.7312 41.9251 81.7928 38.803 81.762 36.9955C81.7209 35.4344 81.7517 28.3481 79.7594 25.2055Z" fill="#344659"/>
<path d="M68.9456 42.7672C68.9456 42.7672 81.0951 42.3667 81.4134 42.151C81.7215 41.9251 81.7831 38.803 81.7523 36.9955C81.7318 35.722 81.7421 30.7513 80.6637 27.2595C81.5161 30.2173 81.0642 40.6619 80.6843 41.1959C80.294 41.73 68.7402 42.0381 68.7402 42.0381C68.8429 42.4591 68.9456 42.7672 68.9456 42.7672Z" fill="#273649"/>
<path d="M83.1682 41.4321C83.1374 41.1651 82.9628 40.9083 82.6342 40.7235L82.4185 40.6002C81.6277 40.138 80.231 40.1997 79.3169 40.7337L72.8468 44.472C72.3641 44.7493 72.1074 45.1087 72.0869 45.4579V46.5876C72.0869 46.8752 72.2614 47.1627 72.6209 47.3681L72.8366 47.4914C73.6274 47.9535 75.0241 47.8919 75.9381 47.3579L82.4082 43.6196C82.8806 43.3423 83.1374 43.0034 83.1682 42.6747V41.4321Z" fill="url(#paint14_radial_2_14101)"/>
<path d="M72.8266 46.3719L72.6109 46.2487C71.8201 45.7865 71.9126 44.9855 72.8369 44.4617L79.307 40.7234C80.221 40.1894 81.6177 40.138 82.4085 40.5899L82.6242 40.7131C83.415 41.1753 83.3225 41.9763 82.3982 42.5001L75.9281 46.2384C75.0141 46.7724 73.6276 46.8341 72.8266 46.3719Z" fill="url(#paint15_radial_2_14101)"/>
<path d="M17.5942 38.8133V61.8592C17.5942 62.2906 17.7277 62.6192 17.9434 62.7527C18.1693 62.8862 18.5083 62.8349 18.8882 62.609L37.138 52.0719C38.0932 51.5173 38.8942 50.1309 38.8942 49.0217V25.9758H39.8082V49.0217C39.8082 50.4595 38.8326 52.1438 37.5899 52.8627L19.3504 63.3895C18.9601 63.6154 18.5801 63.7284 18.231 63.7284C18.1488 63.7284 18.0666 63.7181 17.9845 63.7078L18.0975 63.8003L17.6661 63.6257C17.6045 63.6051 17.5429 63.5743 17.4813 63.5333C16.9575 63.2354 16.6699 62.6295 16.6699 61.849V38.8031H17.5942V38.8133Z" fill="url(#paint16_radial_2_14101)"/>
<path d="M18.7236 63.9337C19.0728 63.9337 19.4528 63.8207 19.843 63.5948L38.0826 53.068C39.3252 52.3491 40.3009 50.6649 40.3009 49.227V26.1812H39.3868V49.227C39.3868 50.3259 38.5858 51.7227 37.6307 52.2772L19.3809 62.804C19.0009 63.0197 18.662 63.071 18.436 62.9478C18.2101 62.8143 18.0869 62.4959 18.0869 62.0543V39.0084H17.1728V62.0543C17.1728 62.8348 17.4604 63.4407 17.9842 63.7385C18.1998 63.8721 18.4566 63.9337 18.7236 63.9337Z" fill="url(#paint17_radial_2_14101)"/>
<path d="M17.8105 48.385L59.5684 72.4887C59.5684 72.879 59.5684 73.3 59.5684 73.7006L17.8105 49.5969V48.385Z" fill="#0DAADB"/>
<path d="M17.4101 48.6006L59.5685 72.9405C59.5685 73.3513 59.5685 73.7621 59.5685 74.1524L17.4101 49.8124V48.6006Z" fill="url(#paint18_radial_2_14101)"/>
<path d="M59.8257 63.2662V86.3121C59.8257 86.7434 59.9592 87.0721 60.1748 87.2056C60.4008 87.3391 60.7397 87.2878 61.1197 87.0618L79.3592 76.5351C80.3143 75.9805 81.1154 74.594 81.1154 73.4849V50.439H82.0294V73.4849C82.0294 74.9227 81.0538 76.6069 79.8111 77.3258L61.5818 87.8526C61.1916 88.0785 60.8116 88.1915 60.4624 88.1915C60.3802 88.1915 60.2981 88.1812 60.2159 88.171L60.3289 88.2634L59.8976 88.0888C59.8359 88.0683 59.7743 88.0375 59.7127 87.9964C59.1889 87.6986 58.9014 87.0926 58.9014 86.3121V63.2662H59.8257Z" fill="url(#paint19_radial_2_14101)"/>
<path d="M60.9458 88.3868C61.295 88.3868 61.6749 88.2738 62.0652 88.0479L80.3047 77.5211C81.5474 76.8022 82.5231 75.118 82.5231 73.6802V50.6343H81.609V73.6802C81.609 74.7791 80.808 76.1758 79.8529 76.7304L61.6133 87.2571C61.2333 87.4728 60.8944 87.5241 60.6685 87.4009C60.4425 87.2674 60.3193 86.949 60.3193 86.5074V63.4615H59.4053V86.5074C59.4053 87.2879 59.6928 87.8939 60.2166 88.1917C60.422 88.3252 60.6788 88.3868 60.9458 88.3868Z" fill="url(#paint20_radial_2_14101)"/>
<path d="M10.5284 37.7143L37.7747 22.0012L90.8501 54.3825L63.5627 70.1162L10.5284 37.7143Z" fill="#0DAADB"/>
<path d="M91.1476 53.674C91.1476 53.0167 90.7471 52.267 90.2644 51.9794L38.3598 22.0424C37.8668 21.7548 37.4766 22.0629 37.4766 22.7099C37.4766 23.3672 37.8771 24.1169 38.3598 24.4045L88.652 53.4172L61.6932 68.966L63.5726 70.1163L90.8498 54.3826H90.8395C91.0244 54.2696 91.1476 54.0232 91.1476 53.674Z" fill="url(#paint21_radial_2_14101)"/>
<path d="M11.0729 40.1381L62.9775 70.0752C63.4704 70.3628 63.8607 70.0547 63.8607 69.4076C63.8607 68.7504 63.4602 68.0007 62.9775 67.7131L11.0729 37.776C10.5799 37.4884 10.1896 37.7966 10.1896 38.4436C10.1794 39.1009 10.5799 39.8608 11.0729 40.1381Z" fill="url(#paint22_radial_2_14101)"/>
<path d="M63.3255 68.0211C63.2125 67.8978 63.0995 67.7849 62.966 67.713L11.0614 37.7759C10.856 37.6629 10.6711 37.6424 10.5273 37.7143L37.7737 22.0012H37.7839C37.938 21.9087 38.1434 21.919 38.3591 22.0423L90.2637 51.9793C90.3869 52.0512 90.5102 52.1539 90.6231 52.2874L63.3255 68.0211Z" fill="url(#paint23_radial_2_14101)"/>
<path d="M11.2164 37.314L62.9465 67.1483C63.0697 67.2202 63.2648 67.2818 63.3778 67.4154L90.2031 51.9487L90.2544 51.9795C90.3777 52.0514 90.5009 52.1541 90.6139 52.2876L63.3265 68.0213C63.2135 67.898 63.1005 67.7851 62.967 67.7132L11.0624 37.7761C10.857 37.6631 10.6721 37.6426 10.5284 37.7145L11.2164 37.314Z" fill="white"/>
<path opacity="0.4" d="M74.3572 42.8083L68.3287 43.4758L67.7947 42.9623C67.7947 42.9623 65.0423 43.3834 64.3029 43.1369C63.5635 42.8904 62.3311 43.0342 62.3311 43.0342V42.0483L66.7574 41.4526L70.9681 41.7094L73.9464 42.5618L74.3572 42.8083Z" fill="#10113C"/>
<path d="M68.3185 39.2445C68.3082 39.2136 68.2877 39.1931 68.2569 39.1931C67.8666 39.1828 65.3402 39.1109 64.3851 38.7823C63.3478 38.4228 62.2489 38.4947 62.1976 38.5461C62.1462 38.6077 60.4106 39.3369 60.3079 39.6347C60.2155 39.9017 60.0511 40.8158 60.2771 41.1547C60.503 41.4936 60.616 41.7195 60.616 41.7195L60.8008 41.7401C60.8008 41.7401 61.0371 42.2022 61.1603 42.3563C61.2219 42.4282 61.263 42.5103 61.3041 42.5925C61.417 42.8287 61.6019 43.219 61.6841 43.2292C61.797 43.2395 62.3311 43.3524 62.4646 43.3114C62.5776 43.2806 62.6803 42.9416 62.6289 42.7979C62.6186 42.7568 62.6392 42.7157 62.6803 42.7157C62.9267 42.6746 63.5943 42.5925 64.5186 42.6746C65.6483 42.7773 67.2299 42.0379 67.3839 41.9763C67.3942 41.9763 67.3942 41.966 67.4045 41.966L68.9963 41.8222C69.0374 41.8222 69.0682 41.7709 69.0579 41.7298L68.3185 39.2445Z" fill="#FCD1C6"/>
<path d="M79.7594 25.2055C79.3794 24.5996 79.2048 25.0514 78.6913 25.5444C78.0032 26.212 77.1302 27.2595 76.6784 28.574C75.867 30.967 76.1546 36.9544 76.4319 37.817C76.4319 37.817 68.8218 39.0597 68.298 39.0392C67.7743 39.0186 68.9553 42.7672 68.9553 42.7672C68.9553 42.7672 81.1047 42.3667 81.4231 42.151C81.7312 41.9251 81.7928 38.803 81.762 36.9955C81.7209 35.4344 81.7517 28.3481 79.7594 25.2055Z" fill="url(#paint24_radial_2_14101)"/>
<path opacity="0.4" d="M47.1529 36.5435C47.1529 36.5435 51.4971 33.1441 52.1235 32.8155C52.75 32.4869 54.3521 31.275 54.3521 31.275L52.6268 30.2788L49.0836 32.4047L45.9821 35.4754L41.2168 38.8543V39.6348C41.2168 39.6348 45.1502 37.9505 45.5918 37.6527C46.0437 37.3856 47.1529 36.5435 47.1529 36.5435Z" fill="#10113C"/>
<path opacity="0.63" d="M44.5644 39.6142C44.5644 39.6142 45.4887 38.7823 46.0844 38.5153C46.68 38.2483 47.6351 37.5088 47.7481 36.944C47.8611 36.3791 48.8573 35.1365 48.8573 35.1365L47.2757 36.0505L44.9855 37.3753L41.165 39.5937C41.165 39.5937 41.4013 39.8607 41.8839 39.6964C42.3666 39.532 43.2704 38.9569 43.6915 38.9055C44.1125 38.8542 44.8109 38.7207 44.8109 38.7207L44.5644 39.6142Z" fill="#2D2E2D"/>
<path d="M45.0567 33.0413C45.0567 33.0413 45.0156 33.3494 44.4816 33.6472C43.9578 33.9451 42.6022 34.6126 42.3865 34.8077C42.1708 35.0029 41.1952 35.8553 41.1644 35.9683C41.1335 36.0812 40.846 37.0466 40.846 37.1082C40.846 37.1698 40.9384 37.6115 40.9384 37.6115L40.6406 39.039C40.6406 39.039 40.2606 39.5936 40.6714 39.7476C41.0822 39.9017 41.3184 39.4703 41.3287 39.3984C41.3287 39.3984 41.9551 39.1006 42.4173 38.7411C42.8794 38.3817 44.7178 36.9028 45.0361 36.9953C45.3442 37.0877 45.0567 37.6217 44.9129 37.7141C44.7589 37.8066 43.7832 38.7617 44.194 39.4292C44.6048 40.0968 44.8718 39.0492 45.1388 38.8438C45.4059 38.6282 45.9913 37.7963 46.3507 37.6936C46.7102 37.5909 47.3572 36.2558 47.4496 35.6601C47.5318 35.0645 47.9631 34.6742 48.1171 34.4791C48.2712 34.284 47.7885 32.8051 47.7885 32.8051L45.9604 32.2402L45.3237 32.6613L45.0567 33.0413Z" fill="#FCD1C6"/>
<path d="M61.5507 23.0178C61.5507 23.0178 61.4789 20.2962 61.9513 18.2114C61.828 18.3141 61.7048 18.4168 61.5918 18.5298C60.9345 19.2179 60.0102 20.0703 59.127 20.553C57.4941 21.4362 52.5645 24.168 52.5645 24.168L51.6505 24.8766C48.7646 27.1361 45.5398 32.0657 45.0674 33.0413C45.2933 32.7435 45.8787 32.2402 46.9879 32.8359C48.5181 33.6472 47.7889 34.8797 47.7889 34.8797C50.0175 33.2775 55.3271 27.3825 55.3271 27.3825C56.6417 27.1052 60.5751 25.6366 61.0681 25.4518C61.3762 24.6404 61.561 23.8188 61.5507 23.0178Z" fill="url(#paint25_linear_2_14101)"/>
<path opacity="0.4" d="M68.4739 56.1693L56.5402 52.3899L65.1978 47.3884C65.3416 47.3063 65.321 47.1625 65.1567 47.0598L48.0058 37.1595C47.8415 37.0671 47.5847 37.0568 47.441 37.139L38.352 42.3869C38.2082 42.4691 38.2288 42.6129 38.3931 42.7156L55.544 52.6159C55.6775 52.698 55.8624 52.7083 56.0061 52.6775H55.9959L68.3302 56.5801C68.4431 56.6109 68.5561 56.5596 68.5972 56.4466C68.6485 56.3336 68.5869 56.2001 68.4739 56.1693Z" fill="#10113C"/>
<path d="M37.7052 41.5653L38.5473 42.0069L46.9687 37.1492C47.1125 37.0671 47.359 37.0773 47.5233 37.1697L63.9758 46.6593C64.1196 46.5771 64.7461 46.2792 64.7461 46.2792L64.438 47.0803C64.4277 47.1111 64.3969 47.1522 64.3558 47.1728L55.4826 52.2975C55.3388 52.3796 55.0923 52.3694 54.928 52.277L38.1365 42.5923C38.0646 42.5512 38.0338 42.5102 38.0133 42.4588L37.7052 41.5653Z" fill="url(#paint26_linear_2_14101)"/>
<path d="M37.8381 41.7092L54.989 51.6095C55.1533 51.7019 55.41 51.7122 55.5538 51.6301L64.6428 46.3821C64.7866 46.2999 64.766 46.1561 64.6017 46.0534L47.4508 36.1531C47.2865 36.0607 47.0297 36.0505 46.8859 36.1326L37.797 41.3806C37.6532 41.4627 37.6635 41.6168 37.8381 41.7092Z" fill="url(#paint27_radial_2_14101)"/>
<path d="M43.1271 40.518L55.3587 47.5735L55.8516 47.2962L43.6201 40.2305L43.1271 40.518Z" fill="#282567"/>
<path opacity="0.4" d="M42.3459 40.9697L56.4158 49.083L56.8985 48.8057L42.8388 40.6821L42.3459 40.9697Z" fill="#10113C"/>
<path opacity="0.4" d="M41.5666 41.4218L55.6365 49.5351L56.1192 49.2476L42.0492 41.1343L41.5666 41.4218Z" fill="#10113C"/>
<path d="M40.7853 41.8632L54.8552 49.9868L55.3379 49.6992L41.268 41.5859L40.7853 41.8632Z" fill="#282567"/>
<path opacity="0.4" d="M58.4906 47.4296L44.811 39.5422L44.3283 39.8195L57.9052 47.6658L58.3982 47.9431L58.8809 47.6658L58.4906 47.4296Z" fill="#10113C"/>
<path opacity="0.4" d="M54.7735 47.2346L57.1972 48.6313L57.6902 48.354L55.2459 46.947L54.7735 47.2346Z" fill="#10113C"/>
<path d="M37.7253 41.3395L39.6458 29.9192L39.4917 29.8576L39.728 29.7241C39.769 29.6933 39.8409 29.6933 39.9025 29.7344L57.2178 39.7271C57.341 39.799 57.4437 39.9838 57.4129 40.1173L55.4719 51.63C55.4616 51.6917 55.4308 51.7327 55.3897 51.743L55.1638 51.8765L55.1227 51.6609H55.133L37.9102 41.7195C37.8075 41.6579 37.7048 41.473 37.7253 41.3395Z" fill="url(#paint28_radial_2_14101)"/>
<path d="M57.1367 40.0353L57.3934 39.9224C57.4242 39.984 57.4345 40.0558 57.4242 40.1175L55.4832 51.6302C55.4729 51.6918 55.4421 51.7329 55.401 51.7431L55.1751 51.8766L55.134 51.661H55.1443L54.374 51.2091L57.1367 40.0353Z" fill="url(#paint29_radial_2_14101)"/>
<path d="M37.6843 41.8735L54.9996 51.8662C55.1228 51.9381 55.2152 51.897 55.246 51.7738L57.1871 40.2611C57.2076 40.1276 57.1152 39.9427 56.9919 39.8708L39.6767 29.8781C39.5535 29.8063 39.461 29.8473 39.4302 29.9706L37.4892 41.4832C37.4687 41.6168 37.5611 41.8016 37.6843 41.8735Z" fill="url(#paint30_radial_2_14101)"/>
<path opacity="0.5" d="M73.0333 15.9112C73.0333 15.9112 73.7728 14.3091 73.5057 12.4604C73.4236 13.1075 73.1566 13.3129 73.1566 13.3129L69.8496 16.2604C69.8599 16.2706 69.8702 16.2809 69.8907 16.2809L70.5891 16.5787L70.7328 17.4003C70.7739 17.6365 71.0204 17.7906 71.2566 17.7084L71.4312 17.6468C71.4209 17.6366 71.5339 15.8188 73.0333 15.9112Z" fill="#351030"/>
<path opacity="0.4" d="M28.2482 39.6142C27.0261 39.6142 25.8142 39.3472 24.8899 38.8132C23.9759 38.2894 23.4727 37.5808 23.4727 36.8208C23.4727 36.0608 23.9759 35.3624 24.8899 34.8284C26.7385 33.7603 29.7579 33.7603 31.6065 34.8284C32.5205 35.3522 33.0238 36.0608 33.0238 36.8208C33.0238 37.5808 32.5205 38.2791 31.6065 38.8132C30.6822 39.3472 29.4703 39.6142 28.2482 39.6142ZM28.2482 34.1917C27.0569 34.1917 25.8758 34.4484 24.9721 34.9722C24.1094 35.4652 23.637 36.1224 23.637 36.8208C23.637 37.5089 24.1094 38.1662 24.9721 38.6694C26.7796 39.7169 29.7168 39.7169 31.5243 38.6694C32.387 38.1764 32.8594 37.5191 32.8594 36.8208C32.8594 36.1327 32.387 35.4754 31.5243 34.9722C30.6206 34.4587 29.4395 34.1917 28.2482 34.1917Z" fill="#273675"/>
<path d="M28.2477 36.9131C27.0256 36.9131 25.8137 36.646 24.8792 36.112C23.9651 35.5882 23.4619 34.8796 23.4619 34.1196C23.4619 33.3596 23.9651 32.651 24.8792 32.1272C26.738 31.0592 29.7574 31.0592 31.606 32.1272C32.5201 32.651 33.0233 33.3596 33.0233 34.1196C33.0233 34.8796 32.5201 35.5882 31.606 36.112C30.6817 36.646 29.4699 36.9131 28.2477 36.9131ZM28.2477 31.4905C27.0667 31.4905 25.8754 31.7473 24.9716 32.271C24.1089 32.764 23.6365 33.4213 23.6365 34.1094C23.6365 34.7975 24.1089 35.4547 24.9716 35.9477C26.7791 36.9849 29.7163 36.9952 31.5239 35.9477C32.3865 35.4547 32.859 34.7975 32.859 34.1094C32.859 33.4213 32.3865 32.764 31.5239 32.271C30.6201 31.7473 29.4391 31.4905 28.2477 31.4905Z" fill="#07A7D3"/>
<path d="M33.7012 19.0535H22.8047L23.8214 30.8537C23.8214 31.511 24.2528 32.1683 25.1257 32.6612C26.8613 33.6574 29.6651 33.6574 31.4007 32.6612C32.2634 32.158 32.705 31.5007 32.705 30.8537L33.7012 19.0535Z" fill="#07A7D3"/>
<path opacity="0.2" d="M33.7012 19.0535H22.8047L22.969 20.9945C23.2155 21.3129 23.5544 21.621 23.9755 21.8982C26.0603 23.2847 29.4905 23.5415 31.8423 22.5555L31.4828 31.1823C31.4623 31.5623 31.3391 31.9218 31.0926 32.2093C30.7434 32.6201 30.0553 33.1131 28.751 33.3904C29.7164 33.3288 30.651 33.0823 31.3904 32.6612C32.2531 32.158 32.6947 31.5007 32.6947 30.8537L33.506 21.3847L33.7012 19.0535Z" fill="#10113C"/>
<path opacity="0.4" d="M28.2483 22.1961C31.2601 22.1961 33.7017 20.7891 33.7017 19.0535C33.7017 17.3179 31.2601 15.9109 28.2483 15.9109C25.2365 15.9109 22.7949 17.3179 22.7949 19.0535C22.7949 20.7891 25.2365 22.1961 28.2483 22.1961Z" fill="#10113C"/>
<path opacity="0.4" d="M28.2481 20.6557C30.8402 20.6557 32.9415 19.4418 32.9415 17.9444C32.9415 16.447 30.8402 15.2332 28.2481 15.2332C25.656 15.2332 23.5547 16.447 23.5547 17.9444C23.5547 19.4418 25.656 20.6557 28.2481 20.6557Z" fill="#10113C"/>
<path d="M34.0192 18.9097C34.0192 18.8994 34.0192 18.8892 34.0192 18.8892L33.9165 17.8313V17.8416C33.8652 17.0406 33.3209 16.2498 32.263 15.6438C30.055 14.3704 26.4605 14.3704 24.2524 15.6438C23.1638 16.2703 22.6195 17.0816 22.599 17.9032L22.4963 18.8481C22.4963 18.8686 22.486 18.8994 22.486 18.92V18.9405C22.4244 19.834 22.9892 20.748 24.1703 21.4259C26.4297 22.7301 30.0858 22.7301 32.3452 21.4259C33.5263 20.7275 34.0911 19.8134 34.0192 18.9097Z" fill="url(#paint31_linear_2_14101)"/>
<path d="M31.5649 19.9163C29.7266 20.9741 26.7586 20.9741 24.9305 19.9163C23.0922 18.8585 23.0922 17.1434 24.9305 16.0856C26.7688 15.0278 29.7369 15.0278 31.5649 16.0856C33.4033 17.1434 33.4033 18.8585 31.5649 19.9163Z" fill="url(#paint32_radial_2_14101)"/>
<path opacity="0.4" d="M25.4849 16.4346C27.3232 15.3768 30.2913 15.3768 32.1193 16.4346C32.1399 16.4449 32.1604 16.4654 32.1809 16.4757C32.0064 16.3216 31.801 16.1676 31.5545 16.0341C29.7161 14.9763 26.7481 14.9763 24.9201 16.0341C23.1125 17.0816 23.092 18.7659 24.8584 19.8237C23.6877 18.7659 23.893 17.3486 25.4849 16.4346Z" fill="#10113C"/>
<path d="M24.9302 16.4962C26.7685 15.4384 29.7366 15.4384 31.5646 16.4962C32.376 16.9687 32.8278 17.5643 32.9203 18.1805C33.0332 17.4103 32.5814 16.6195 31.5646 16.0238C29.7263 14.966 26.7583 14.966 24.9302 16.0238C23.9135 16.6092 23.4616 17.4103 23.5746 18.1805C23.667 17.5643 24.1189 16.9687 24.9302 16.4962Z" fill="url(#paint33_linear_2_14101)"/>
<path d="M32.2941 15.6644C30.0861 14.3601 26.4813 14.3293 24.2527 15.5925C22.0241 16.8558 22.0036 18.9303 24.2116 20.2346C26.4197 21.5389 30.0245 21.5697 32.2531 20.3065C34.4816 19.0433 34.5022 16.9584 32.2941 15.6644ZM31.565 19.8649C30.9488 20.2141 30.2093 20.4502 29.4288 20.5735L29.3466 20.2962C29.3158 20.1832 29.2029 20.1011 29.0899 20.1011H27.4056C27.2824 20.1011 27.1797 20.1832 27.1489 20.2962L27.0667 20.5735C26.2862 20.4605 25.5467 20.2243 24.9305 19.8649C23.0922 18.8071 23.0922 17.092 24.9305 16.0342C26.7689 14.9763 29.7369 14.9763 31.565 16.0342C33.4033 17.092 33.4033 18.8071 31.565 19.8649Z" fill="url(#paint34_linear_2_14101)"/>
<path d="M28.7405 20.7069H27.7546C27.6827 20.7069 27.6211 20.6453 27.6211 20.5734C27.6211 20.5015 27.6827 20.4399 27.7546 20.4399H28.7405C28.8124 20.4399 28.874 20.5015 28.874 20.5734C28.8843 20.6556 28.8227 20.7069 28.7405 20.7069Z" fill="#A59036"/>
<path d="M28.7508 20.4399H27.7443C27.6724 20.4399 27.6211 20.5016 27.6211 20.5632V20.5837C27.6211 20.594 27.6211 20.6042 27.6314 20.6145C27.6416 20.5632 27.693 20.5221 27.7546 20.5221H28.7611C28.8227 20.5221 28.8638 20.5632 28.8843 20.6145C28.8843 20.6042 28.8946 20.594 28.8946 20.5837V20.5632C28.8843 20.5016 28.8227 20.4399 28.7508 20.4399Z" fill="#F48489"/>
<path opacity="0.5" d="M28.6164 20.6146C28.6164 20.6146 32.3855 19.3514 30.8553 15.0277C29.3353 10.704 26.357 9.3792 27.5586 5.91821C27.5586 5.91821 25.6792 8.72194 27.4353 12.5116C29.1915 16.3012 29.5715 15.8699 29.551 17.6774C29.5304 19.8341 27.7845 20.6146 27.7845 20.6146H28.6164Z" fill="white"/>
<path opacity="0.5" d="M28.9554 6.0004C28.9554 6.0004 28.5446 3.31992 31.071 0.608643C31.071 0.608643 28.8424 5.57931 29.5716 8.03384C29.5716 8.03384 28.9862 6.47282 28.9554 6.0004Z" fill="white"/>
<path d="M89.6315 98.2766C88.9434 98.2766 88.2655 98.1225 87.7418 97.8247L75.0583 90.5022C74.5345 90.1941 74.247 89.7833 74.247 89.3417C74.247 88.9001 74.5345 88.4893 75.0583 88.1812L87.6699 80.8484C88.7071 80.2527 90.4017 80.2527 91.439 80.8484L104.122 88.1709C104.646 88.479 104.934 88.8898 104.934 89.3314C104.934 89.773 104.646 90.1838 104.122 90.4919L91.5109 97.8247C90.9974 98.1328 90.3093 98.2766 89.6315 98.2766ZM89.5596 80.6327C88.9228 80.6327 88.2758 80.7765 87.7931 81.0538L75.1816 88.3865C74.7297 88.6433 74.4832 88.9822 74.4832 89.3417C74.4832 89.7011 74.7297 90.0298 75.1816 90.2968L87.865 97.6193C88.8407 98.1841 90.4222 98.1841 91.3979 97.6193L104.009 90.2865C104.461 90.0297 104.708 89.6908 104.708 89.3314C104.708 88.9719 104.461 88.6433 104.009 88.3763L91.326 81.0538C90.8433 80.7765 90.2066 80.6327 89.5596 80.6327Z" fill="#07A7D3"/>
<path d="M104.893 85.3362V79.2564L97.2114 80.2834L91.4602 76.9661C90.4537 76.3808 88.8105 76.3808 87.8041 76.9661L86.9106 77.531L74.4325 79.1947V85.3465V85.3568V85.3876C74.4428 85.7573 74.6893 86.127 75.1822 86.4043L87.8657 93.7268C88.8722 94.3122 90.5154 94.3122 91.5218 93.7268L104.133 86.394C104.626 86.1167 104.873 85.747 104.883 85.3773H104.893V85.3362Z" fill="url(#paint35_linear_2_14101)"/>
<path d="M104.133 78.1473L91.4492 70.8248C90.4427 70.2394 88.7995 70.2394 87.7931 70.8248L75.1815 78.1576C74.1751 78.7429 74.1751 79.6878 75.1815 80.2629L87.865 87.5854C88.8714 88.1708 90.5146 88.1708 91.5211 87.5854L104.133 80.2526C105.139 79.6775 105.139 78.7327 104.133 78.1473Z" fill="url(#paint36_radial_2_14101)"/>
<path d="M104.133 79.8932L91.5212 87.226C90.5147 87.8114 88.8715 87.8114 87.8651 87.226L75.1816 79.9035C74.7605 79.657 74.5141 79.3489 74.4422 79.0305C74.3497 79.4722 74.586 79.9343 75.1816 80.2732L87.8651 87.5957C88.8715 88.1811 90.5147 88.1811 91.5212 87.5957L104.133 80.263C104.718 79.924 104.965 79.4619 104.872 79.0203C104.8 79.3386 104.554 79.6467 104.133 79.8932Z" fill="white"/>
<path d="M93.226 89.2184L92.62 89.5676V88.8692L93.226 88.5303V89.2184Z" fill="white"/>
<path d="M94.4783 88.4994L93.8826 88.8383V88.1502L94.4783 87.801V88.4994Z" fill="white"/>
<path d="M95.7322 87.7704L95.1365 88.1196V87.4212L95.7322 87.072V87.7704Z" fill="white"/>
<path d="M94.7049 89.7628L94.1092 90.112V89.4239L94.7049 89.0747V89.7628Z" fill="white"/>
<path d="M95.8142 89.1261L95.2186 89.4753V88.7872L95.8142 88.438V89.1261Z" fill="white"/>
<path d="M99.7679 85.439L99.1619 85.7882V85.1002L99.7679 84.751V85.439Z" fill="white"/>
<path d="M103.23 83.4466L102.624 83.7959V83.0975L103.23 82.7483V83.4466Z" fill="white"/>
<path d="M96.9954 87.0411L96.3894 87.3903V86.7022L96.9954 86.353V87.0411Z" fill="white"/>
<path opacity="0.4" d="M88.9433 84.5043L80.4089 79.5747C80.0598 79.3796 80.1008 79.0201 80.5014 78.7942L88.8406 73.9775C89.2411 73.7413 89.8471 73.7208 90.1963 73.9262L98.7306 78.8558C99.0798 79.0612 99.0387 79.4104 98.6382 79.6363L90.299 84.4529C89.8882 84.6789 89.2822 84.6994 88.9433 84.5043Z" fill="#10113C"/>
<path d="M85.5847 89.8345L78.5394 85.7676C78.3751 85.6751 78.2314 85.4081 78.2314 85.1822V84.6584C78.2314 84.4325 78.3649 84.3298 78.5394 84.4325L85.5847 88.4994C85.749 88.5918 85.8928 88.8589 85.8928 89.0848V89.6085C85.8825 89.8345 85.749 89.9372 85.5847 89.8345Z" fill="white"/>
<path d="M104.893 73.926V67.8462L97.2114 68.8732L91.4602 65.556C90.4537 64.9706 88.8105 64.9706 87.8041 65.556L86.9106 66.1208L74.4325 67.7846V73.9363V73.9466V73.9774C74.4428 74.3471 74.6893 74.7168 75.1822 74.9941L87.8657 82.3166C88.8722 82.902 90.5154 82.902 91.5218 82.3166L104.133 74.9838C104.626 74.7066 104.873 74.3368 104.883 73.9671H104.893V73.926Z" fill="url(#paint37_linear_2_14101)"/>
<path d="M104.133 66.7474L91.4492 59.4249C90.4427 58.8395 88.7995 58.8395 87.7931 59.4249L75.1815 66.7577C74.1751 67.343 74.1751 68.2879 75.1815 68.863L87.865 76.1855C88.8714 76.7709 90.5146 76.7709 91.5211 76.1855L104.133 68.8527C105.139 68.2674 105.139 67.3225 104.133 66.7474Z" fill="url(#paint38_radial_2_14101)"/>
<path opacity="0.4" d="M98.0948 67.1891L90.7004 62.927C90.115 62.5881 89.1599 62.5881 88.5745 62.927L81.2212 67.1994C80.6358 67.5383 80.6358 68.0928 81.2212 68.4317L88.6156 72.6938C89.201 73.0327 90.1561 73.0327 90.7415 72.6938L98.0948 68.4215C98.6802 68.0723 98.6802 67.528 98.0948 67.1891Z" fill="#10113C"/>
<path d="M104.133 68.4828L91.5212 75.8156C90.5147 76.401 88.8715 76.401 87.8651 75.8156L75.1816 68.4931C74.7605 68.2466 74.5141 67.9385 74.4422 67.6201C74.3497 68.0618 74.586 68.5239 75.1816 68.8628L87.8651 76.1853C88.8715 76.7707 90.5147 76.7707 91.5212 76.1853L104.133 68.8525C104.718 68.5136 104.965 68.0515 104.872 67.6099C104.8 67.9282 104.554 68.2363 104.133 68.4828Z" fill="white"/>
<path d="M93.226 77.8079L92.62 78.1571V77.469L93.226 77.1199V77.8079Z" fill="white"/>
<path d="M94.4783 77.089L93.8826 77.4382V76.7398L94.4783 76.3906V77.089Z" fill="white"/>
<path d="M95.7322 76.3599L95.1365 76.7091V76.0108L95.7322 75.6719V76.3599Z" fill="white"/>
<path d="M94.7049 78.3624L94.1092 78.7013V78.0132L94.7049 77.6641V78.3624Z" fill="white"/>
<path d="M95.8142 77.7257L95.2186 78.0646V77.3766L95.8142 77.0273V77.7257Z" fill="white"/>
<path d="M99.7679 74.039L99.1619 74.3779V73.6898L99.7679 73.3406V74.039Z" fill="white"/>
<path d="M103.23 72.0362L102.624 72.3854V71.6871L103.23 71.3481V72.0362Z" fill="white"/>
<path d="M96.9954 75.641L96.3894 75.9799V75.2918L96.9954 74.9426V75.641Z" fill="white"/>
<path d="M104.893 62.5162V56.4363L97.2114 57.4633L91.4602 54.1461C90.4537 53.5607 88.8105 53.5607 87.8041 54.1461L86.9106 54.7109L74.4325 56.3747V62.5264V62.5367V62.5675C74.4428 62.9372 74.6893 63.3069 75.1822 63.5842L87.8657 70.9067C88.8722 71.4921 90.5154 71.4921 91.5218 70.9067L104.133 63.574C104.626 63.2967 104.873 62.9269 104.883 62.5572H104.893V62.5162Z" fill="url(#paint39_linear_2_14101)"/>
<path d="M104.133 55.3375L91.4492 48.015C90.4427 47.4296 88.7995 47.4296 87.7931 48.015L75.1815 55.3478C74.1751 55.9332 74.1751 56.878 75.1815 57.4531L87.865 64.7756C88.8714 65.361 90.5146 65.361 91.5211 64.7756L104.133 57.4429C105.139 56.8677 105.139 55.9229 104.133 55.3375Z" fill="url(#paint40_radial_2_14101)"/>
<path d="M104.133 57.0732L91.5212 64.406C90.5147 64.9913 88.8715 64.9913 87.8651 64.406L75.1816 57.0834C74.7605 56.837 74.5141 56.5288 74.4422 56.2105C74.3497 56.6521 74.586 57.1142 75.1816 57.4531L87.8651 64.7757C88.8715 65.361 90.5147 65.361 91.5212 64.7757L104.133 57.4429C104.718 57.104 104.965 56.6418 104.872 56.2002C104.8 56.5288 104.554 56.8369 104.133 57.0732Z" fill="white"/>
<path d="M93.226 66.4086L92.62 66.7475V66.0594L93.226 65.7102V66.4086Z" fill="white"/>
<path d="M94.4783 65.6793L93.8826 66.0285V65.3301L94.4783 64.9912V65.6793Z" fill="white"/>
<path d="M95.7322 64.9503L95.1365 65.2995V64.6114L95.7322 64.2622V64.9503Z" fill="white"/>
<path d="M94.7049 66.9527L94.1092 67.3019V66.6036L94.7049 66.2544V66.9527Z" fill="white"/>
<path d="M95.8142 66.316L95.2186 66.6652V65.9669L95.8142 65.6177V66.316Z" fill="white"/>
<path d="M99.7679 62.6293L99.1619 62.9784V62.2801L99.7679 61.9309V62.6293Z" fill="white"/>
<path d="M103.23 60.6265L102.624 60.9758V60.2877L103.23 59.9385V60.6265Z" fill="white"/>
<path d="M96.9954 64.2313L96.3894 64.5805V63.8821L96.9954 63.533V64.2313Z" fill="white"/>
<path d="M85.5847 78.6812L78.5394 74.6143C78.3751 74.5219 78.2314 74.2548 78.2314 74.0289V73.5051C78.2314 73.2792 78.3649 73.1765 78.5394 73.2792L85.5847 77.3461C85.749 77.4385 85.8928 77.7055 85.8928 77.9315V78.4553C85.8825 78.6812 85.749 78.7839 85.5847 78.6812Z" fill="white"/>
<path d="M85.5847 67.5281L78.5394 63.4612C78.3751 63.3687 78.2314 63.1017 78.2314 62.8758V62.352C78.2314 62.1261 78.3649 62.0234 78.5394 62.1261L85.5847 66.193C85.749 66.2854 85.8928 66.5525 85.8928 66.7784V67.3021C85.8825 67.5281 85.749 67.6308 85.5847 67.5281Z" fill="white"/>
<defs>
<linearGradient id="paint0_linear_2_14101" x1="-0.709018" y1="43.0233" x2="20.7743" y2="43.0233" gradientUnits="userSpaceOnUse">
<stop stop-color="#2AC3EA"/>
<stop offset="0.0365" stop-color="#2DB9E1"/>
<stop offset="0.396" stop-color="#2C7BAA"/>
<stop offset="0.6868" stop-color="#29568C"/>
<stop offset="0.8947" stop-color="#273F7B"/>
<stop offset="1" stop-color="#273675"/>
</linearGradient>
<radialGradient id="paint1_radial_2_14101" cx="0" cy="0" r="1" gradientUnits="userSpaceOnUse" gradientTransform="translate(-4.51862 26.9139) scale(47.9765)">
<stop stop-color="#2AC3EA"/>
<stop offset="0.0976" stop-color="#2DB7DF"/>
<stop offset="0.2819" stop-color="#2D9DC8"/>
<stop offset="0.5336" stop-color="#2C79A8"/>
<stop offset="0.8397" stop-color="#284E86"/>
<stop offset="1" stop-color="#273675"/>
</radialGradient>
<linearGradient id="paint2_linear_2_14101" x1="-0.709018" y1="31.6157" x2="20.7743" y2="31.6157" gradientUnits="userSpaceOnUse">
<stop stop-color="#2AC3EA"/>
<stop offset="0.0365" stop-color="#2DB9E1"/>
<stop offset="0.396" stop-color="#2C7BAA"/>
<stop offset="0.6868" stop-color="#29568C"/>
<stop offset="0.8947" stop-color="#273F7B"/>
<stop offset="1" stop-color="#273675"/>
</linearGradient>
<radialGradient id="paint3_radial_2_14101" cx="0" cy="0" r="1" gradientUnits="userSpaceOnUse" gradientTransform="translate(-4.51862 15.5064) scale(47.9765)">
<stop stop-color="#2AC3EA"/>
<stop offset="0.0976" stop-color="#2DB7DF"/>
<stop offset="0.2819" stop-color="#2D9DC8"/>
<stop offset="0.5336" stop-color="#2C79A8"/>
<stop offset="0.8397" stop-color="#284E86"/>
<stop offset="1" stop-color="#273675"/>
</radialGradient>
<linearGradient id="paint4_linear_2_14101" x1="-0.709018" y1="20.2084" x2="20.7743" y2="20.2084" gradientUnits="userSpaceOnUse">
<stop stop-color="#2AC3EA"/>
<stop offset="0.0365" stop-color="#2DB9E1"/>
<stop offset="0.396" stop-color="#2C7BAA"/>
<stop offset="0.6868" stop-color="#29568C"/>
<stop offset="0.8947" stop-color="#273F7B"/>
<stop offset="1" stop-color="#273675"/>
</linearGradient>
<radialGradient id="paint5_radial_2_14101" cx="0" cy="0" r="1" gradientUnits="userSpaceOnUse" gradientTransform="translate(-4.51862 4.09905) scale(47.9765)">
<stop stop-color="#2AC3EA"/>
<stop offset="0.0976" stop-color="#2DB7DF"/>
<stop offset="0.2819" stop-color="#2D9DC8"/>
<stop offset="0.5336" stop-color="#2C79A8"/>
<stop offset="0.8397" stop-color="#284E86"/>
<stop offset="1" stop-color="#273675"/>
</radialGradient>
<radialGradient id="paint6_radial_2_14101" cx="0" cy="0" r="1" gradientUnits="userSpaceOnUse" gradientTransform="translate(51.2347 27.3828) scale(8.55307)">
<stop stop-color="#2AC3EA"/>
<stop offset="0.1087" stop-color="#2CBEE5"/>
<stop offset="0.2359" stop-color="#29B4DD"/>
<stop offset="0.3725" stop-color="#24A4CF"/>
<stop offset="0.5156" stop-color="#1E8FBD"/>
<stop offset="0.6624" stop-color="#1777A8"/>
<stop offset="0.754" stop-color="#11689B"/>
<stop offset="0.8564" stop-color="#1D5183"/>
<stop offset="1" stop-color="#232E63"/>
</radialGradient>
<radialGradient id="paint7_radial_2_14101" cx="0" cy="0" r="1" gradientUnits="userSpaceOnUse" gradientTransform="translate(53.522 30.6543) scale(18.7413)">
<stop stop-color="#2AC3EA"/>
<stop offset="0.1526" stop-color="#2DA2CC"/>
<stop offset="0.462" stop-color="#2C71A1"/>
<stop offset="0.7162" stop-color="#285188"/>
<stop offset="0.902" stop-color="#273D7A"/>
<stop offset="1" stop-color="#273675"/>
</radialGradient>
<radialGradient id="paint8_radial_2_14101" cx="0" cy="0" r="1" gradientUnits="userSpaceOnUse" gradientTransform="translate(59.9532 13.0541) scale(35.4518)">
<stop stop-color="#2AC3EA"/>
<stop offset="0.1526" stop-color="#2DA2CC"/>
<stop offset="0.462" stop-color="#2C71A1"/>
<stop offset="0.7162" stop-color="#285188"/>
<stop offset="0.902" stop-color="#273D7A"/>
<stop offset="1" stop-color="#273675"/>
</radialGradient>
<radialGradient id="paint9_radial_2_14101" cx="0" cy="0" r="1" gradientUnits="userSpaceOnUse" gradientTransform="translate(19.9979 2.60698) scale(86.8116)">
<stop stop-color="#2AC3EA"/>
<stop offset="0.1526" stop-color="#2DA2CC"/>
<stop offset="0.462" stop-color="#2C71A1"/>
<stop offset="0.7162" stop-color="#285188"/>
<stop offset="0.902" stop-color="#273D7A"/>
<stop offset="1" stop-color="#273675"/>
</radialGradient>
<radialGradient id="paint10_radial_2_14101" cx="0" cy="0" r="1" gradientUnits="userSpaceOnUse" gradientTransform="translate(39.0084 51.8391) scale(26.6198)">
<stop stop-color="#2AC3EA"/>
<stop offset="0.1097" stop-color="#2DBDE4"/>
<stop offset="0.2383" stop-color="#2EB1D8"/>
<stop offset="0.3764" stop-color="#2EA0C7"/>
<stop offset="0.5212" stop-color="#2D89B1"/>
<stop offset="0.6712" stop-color="#2C6F99"/>
<stop offset="0.8257" stop-color="#27537F"/>
<stop offset="0.9809" stop-color="#233266"/>
<stop offset="1" stop-color="#232E63"/>
</radialGradient>
<radialGradient id="paint11_radial_2_14101" cx="0" cy="0" r="1" gradientUnits="userSpaceOnUse" gradientTransform="translate(61.9373 16.7013) scale(21.4464)">
<stop stop-color="#2AC3EA"/>
<stop offset="0.278" stop-color="#2C8FBB"/>
<stop offset="0.6309" stop-color="#295E92"/>
<stop offset="0.8799" stop-color="#27417D"/>
<stop offset="1" stop-color="#273675"/>
</radialGradient>
<radialGradient id="paint12_radial_2_14101" cx="0" cy="0" r="1" gradientUnits="userSpaceOnUse" gradientTransform="translate(44.0926 26.0349) scale(28.2758)">
<stop stop-color="#1F9E95"/>
<stop offset="1" stop-color="#E2B1A6"/>
</radialGradient>
<radialGradient id="paint13_radial_2_14101" cx="0" cy="0" r="1" gradientUnits="userSpaceOnUse" gradientTransform="translate(63.0461 10.1253) scale(8.41761)">
<stop stop-color="#715953"/>
<stop offset="1" stop-color="#E0B1A6"/>
</radialGradient>
<radialGradient id="paint14_radial_2_14101" cx="0" cy="0" r="1" gradientUnits="userSpaceOnUse" gradientTransform="translate(64.1064 33.7721) scale(13.9517)">
<stop stop-color="#2AC3EA"/>
<stop offset="0.1087" stop-color="#2CBEE5"/>
<stop offset="0.2359" stop-color="#29B4DD"/>
<stop offset="0.3725" stop-color="#24A4CF"/>
<stop offset="0.5156" stop-color="#1E8FBD"/>
<stop offset="0.6624" stop-color="#1777A8"/>
<stop offset="0.754" stop-color="#11689B"/>
<stop offset="0.8564" stop-color="#1D5183"/>
<stop offset="1" stop-color="#232E63"/>
</radialGradient>
<radialGradient id="paint15_radial_2_14101" cx="0" cy="0" r="1" gradientUnits="userSpaceOnUse" gradientTransform="translate(71.2908 41.0068) scale(12.3629)">
<stop stop-color="#2AC3EA"/>
<stop offset="0.1526" stop-color="#2DA2CC"/>
<stop offset="0.462" stop-color="#2C71A1"/>
<stop offset="0.7162" stop-color="#285188"/>
<stop offset="0.902" stop-color="#273D7A"/>
<stop offset="1" stop-color="#273675"/>
</radialGradient>
<radialGradient id="paint16_radial_2_14101" cx="0" cy="0" r="1" gradientUnits="userSpaceOnUse" gradientTransform="translate(20.0717 53.1417) rotate(180) scale(44.2118)">
<stop stop-color="#2AC3EA"/>
<stop offset="0.0709" stop-color="#2ABBE4"/>
<stop offset="0.1894" stop-color="#20AADA"/>
<stop offset="0.3294" stop-color="#1093CA"/>
<stop offset="0.3873" stop-color="#1386C2"/>
<stop offset="0.4457" stop-color="#1578B8"/>
<stop offset="1" stop-color="#232B62"/>
</radialGradient>
<radialGradient id="paint17_radial_2_14101" cx="0" cy="0" r="1" gradientUnits="userSpaceOnUse" gradientTransform="translate(19.7868 73.4092) scale(33.8159)">
<stop stop-color="#2AC3EA"/>
<stop offset="0.0709" stop-color="#2ABBE4"/>
<stop offset="0.1894" stop-color="#20AADA"/>
<stop offset="0.3294" stop-color="#1093CA"/>
<stop offset="0.3873" stop-color="#1386C2"/>
<stop offset="0.4457" stop-color="#1578B8"/>
<stop offset="1" stop-color="#232B62"/>
</radialGradient>
<radialGradient id="paint18_radial_2_14101" cx="0" cy="0" r="1" gradientUnits="userSpaceOnUse" gradientTransform="translate(20.7374 77.1883) rotate(180) scale(45.2456)">
<stop stop-color="#2AC3EA"/>
<stop offset="0.0709" stop-color="#2ABBE4"/>
<stop offset="0.1894" stop-color="#20AADA"/>
<stop offset="0.3294" stop-color="#1093CA"/>
<stop offset="0.3873" stop-color="#1386C2"/>
<stop offset="0.4457" stop-color="#1578B8"/>
<stop offset="1" stop-color="#232B62"/>
</radialGradient>
<radialGradient id="paint19_radial_2_14101" cx="0" cy="0" r="1" gradientUnits="userSpaceOnUse" gradientTransform="translate(58.0175 80.4797) rotate(180) scale(37.8395)">
<stop stop-color="#2AC3EA"/>
<stop offset="0.0709" stop-color="#2ABBE4"/>
<stop offset="0.1894" stop-color="#20AADA"/>
<stop offset="0.3294" stop-color="#1093CA"/>
<stop offset="0.3873" stop-color="#1386C2"/>
<stop offset="0.4457" stop-color="#1578B8"/>
<stop offset="1" stop-color="#232B62"/>
</radialGradient>
<radialGradient id="paint20_radial_2_14101" cx="0" cy="0" r="1" gradientUnits="userSpaceOnUse" gradientTransform="translate(23.6408 77.2612) scale(68.0835)">
<stop stop-color="#2AC3EA"/>
<stop offset="0.0709" stop-color="#2ABBE4"/>
<stop offset="0.1894" stop-color="#20AADA"/>
<stop offset="0.3294" stop-color="#1093CA"/>
<stop offset="0.3873" stop-color="#1386C2"/>
<stop offset="0.4457" stop-color="#1578B8"/>
<stop offset="1" stop-color="#232B62"/>
</radialGradient>
<radialGradient id="paint21_radial_2_14101" cx="0" cy="0" r="1" gradientUnits="userSpaceOnUse" gradientTransform="translate(-6.26144 74.4273) scale(98.1449)">
<stop stop-color="#2AC3EA"/>
<stop offset="0.0709" stop-color="#2ABBE4"/>
<stop offset="0.1894" stop-color="#20AADA"/>
<stop offset="0.3294" stop-color="#1093CA"/>
<stop offset="0.3873" stop-color="#1386C2"/>
<stop offset="0.4457" stop-color="#1578B8"/>
<stop offset="0.9578" stop-color="#233167"/>
<stop offset="1" stop-color="#232B62"/>
</radialGradient>
<radialGradient id="paint22_radial_2_14101" cx="0" cy="0" r="1" gradientUnits="userSpaceOnUse" gradientTransform="translate(2.85245 38.4598) rotate(180) scale(77.7547)">
<stop stop-color="#2AC3EA"/>
<stop offset="0.066" stop-color="#2BBBE4"/>
<stop offset="0.1762" stop-color="#24AADA"/>
<stop offset="0.3162" stop-color="#1B91C9"/>
<stop offset="0.4457" stop-color="#1578B8"/>
<stop offset="1" stop-color="#232B62"/>
</radialGradient>
<radialGradient id="paint23_radial_2_14101" cx="0" cy="0" r="1" gradientUnits="userSpaceOnUse" gradientTransform="translate(-19.8167 60.5497) rotate(180) scale(131.34)">
<stop stop-color="#2AC3EA"/>
<stop offset="0.1174" stop-color="#2BC0E7"/>
<stop offset="0.2085" stop-color="#2AB9E3"/>
<stop offset="0.2908" stop-color="#25AEDC"/>
<stop offset="0.3678" stop-color="#1FA0D3"/>
<stop offset="0.4412" stop-color="#1A8EC7"/>
<stop offset="0.5109" stop-color="#1579B9"/>
<stop offset="0.515" stop-color="#1578B8"/>
<stop offset="1" stop-color="#273675"/>
</radialGradient>
<radialGradient id="paint24_radial_2_14101" cx="0" cy="0" r="1" gradientUnits="userSpaceOnUse" gradientTransform="translate(29.5001 5.1305) scale(52.4814)">
<stop stop-color="#2AC3EA"/>
<stop offset="0.1087" stop-color="#2CBEE5"/>
<stop offset="0.2359" stop-color="#29B4DD"/>
<stop offset="0.3725" stop-color="#24A4CF"/>
<stop offset="0.5156" stop-color="#1E8FBD"/>
<stop offset="0.6624" stop-color="#1777A8"/>
<stop offset="0.754" stop-color="#11689B"/>
<stop offset="0.8564" stop-color="#1D5183"/>
<stop offset="1" stop-color="#232E63"/>
</radialGradient>
<linearGradient id="paint25_linear_2_14101" x1="62.9064" y1="14.3922" x2="47.0383" y2="38.2292" gradientUnits="userSpaceOnUse">
<stop stop-color="#2AC3EA"/>
<stop offset="0.278" stop-color="#2C8FBB"/>
<stop offset="0.6309" stop-color="#295E92"/>
<stop offset="0.8799" stop-color="#27417D"/>
<stop offset="1" stop-color="#273675"/>
</linearGradient>
<linearGradient id="paint26_linear_2_14101" x1="64.737" y1="44.7208" x2="37.706" y2="44.7208" gradientUnits="userSpaceOnUse">
<stop stop-color="#00B597"/>
<stop offset="1" stop-color="#5AC2B0"/>
</linearGradient>
<radialGradient id="paint27_radial_2_14101" cx="0" cy="0" r="1" gradientUnits="userSpaceOnUse" gradientTransform="translate(52.2278 45.072) rotate(180) scale(11.0403)">
<stop stop-color="#00B597"/>
<stop offset="1" stop-color="#5AC2B0"/>
</radialGradient>
<radialGradient id="paint28_radial_2_14101" cx="0" cy="0" r="1" gradientUnits="userSpaceOnUse" gradientTransform="translate(38.1088 28.0338) rotate(180) scale(26.1265)">
<stop stop-color="#5AC2B0"/>
<stop offset="1" stop-color="#00B597"/>
</radialGradient>
<radialGradient id="paint29_radial_2_14101" cx="0" cy="0" r="1" gradientUnits="userSpaceOnUse" gradientTransform="translate(68.3472 49.6295) rotate(180) scale(4.36178)">
<stop stop-color="#5AC2B0"/>
<stop offset="1" stop-color="#00B597"/>
</radialGradient>
<radialGradient id="paint30_radial_2_14101" cx="0" cy="0" r="1" gradientUnits="userSpaceOnUse" gradientTransform="translate(32.2405 35.5645) scale(22.6727)">
<stop stop-color="#5AC2B0"/>
<stop offset="1" stop-color="#00B597"/>
</radialGradient>
<linearGradient id="paint31_linear_2_14101" x1="32.0432" y1="19.5553" x2="20.8821" y2="16.5585" gradientUnits="userSpaceOnUse">
<stop stop-color="#006E59"/>
<stop offset="1" stop-color="#36BBA1"/>
</linearGradient>
<radialGradient id="paint32_radial_2_14101" cx="0" cy="0" r="1" gradientUnits="userSpaceOnUse" gradientTransform="translate(31.9439 20.0996) scale(8.31419)">
<stop stop-color="#36BBA1"/>
<stop offset="1" stop-color="#006E59"/>
</radialGradient>
<linearGradient id="paint33_linear_2_14101" x1="23.7933" y1="16.7085" x2="35.6308" y2="16.7085" gradientUnits="userSpaceOnUse">
<stop stop-color="#00B597"/>
<stop offset="1" stop-color="#36BBA1"/>
</linearGradient>
<linearGradient id="paint34_linear_2_14101" x1="33.4869" y1="18.7544" x2="22.2457" y2="17.0195" gradientUnits="userSpaceOnUse">
<stop stop-color="#006E59"/>
<stop offset="1" stop-color="#36BBA1"/>
</linearGradient>
<linearGradient id="paint35_linear_2_14101" x1="72.5934" y1="85.3393" x2="94.0767" y2="85.3393" gradientUnits="userSpaceOnUse">
<stop stop-color="#2AC3EA"/>
<stop offset="0.0365" stop-color="#2DB9E1"/>
<stop offset="0.396" stop-color="#2C7BAA"/>
<stop offset="0.6868" stop-color="#29568C"/>
<stop offset="0.8947" stop-color="#273F7B"/>
<stop offset="1" stop-color="#273675"/>
</linearGradient>
<radialGradient id="paint36_radial_2_14101" cx="0" cy="0" r="1" gradientUnits="userSpaceOnUse" gradientTransform="translate(68.7832 69.2299) scale(47.9765)">
<stop stop-color="#2AC3EA"/>
<stop offset="0.0976" stop-color="#2DB7DF"/>
<stop offset="0.2819" stop-color="#2D9DC8"/>
<stop offset="0.5336" stop-color="#2C79A8"/>
<stop offset="0.8397" stop-color="#284E86"/>
<stop offset="1" stop-color="#273675"/>
</radialGradient>
<linearGradient id="paint37_linear_2_14101" x1="72.5934" y1="73.9317" x2="94.0767" y2="73.9317" gradientUnits="userSpaceOnUse">
<stop stop-color="#2AC3EA"/>
<stop offset="0.0365" stop-color="#2DB9E1"/>
<stop offset="0.396" stop-color="#2C7BAA"/>
<stop offset="0.6868" stop-color="#29568C"/>
<stop offset="0.8947" stop-color="#273F7B"/>
<stop offset="1" stop-color="#273675"/>
</linearGradient>
<radialGradient id="paint38_radial_2_14101" cx="0" cy="0" r="1" gradientUnits="userSpaceOnUse" gradientTransform="translate(68.7832 57.8222) scale(47.9765)">
<stop stop-color="#2AC3EA"/>
<stop offset="0.0976" stop-color="#2DB7DF"/>
<stop offset="0.2819" stop-color="#2D9DC8"/>
<stop offset="0.5336" stop-color="#2C79A8"/>
<stop offset="0.8397" stop-color="#284E86"/>
<stop offset="1" stop-color="#273675"/>
</radialGradient>
<linearGradient id="paint39_linear_2_14101" x1="72.5934" y1="62.5243" x2="94.0767" y2="62.5243" gradientUnits="userSpaceOnUse">
<stop stop-color="#2AC3EA"/>
<stop offset="0.0365" stop-color="#2DB9E1"/>
<stop offset="0.396" stop-color="#2C7BAA"/>
<stop offset="0.6868" stop-color="#29568C"/>
<stop offset="0.8947" stop-color="#273F7B"/>
<stop offset="1" stop-color="#273675"/>
</linearGradient>
<radialGradient id="paint40_radial_2_14101" cx="0" cy="0" r="1" gradientUnits="userSpaceOnUse" gradientTransform="translate(68.7832 46.415) scale(47.9765)">
<stop stop-color="#2AC3EA"/>
<stop offset="0.0976" stop-color="#2DB7DF"/>
<stop offset="0.2819" stop-color="#2D9DC8"/>
<stop offset="0.5336" stop-color="#2C79A8"/>
<stop offset="0.8397" stop-color="#284E86"/>
<stop offset="1" stop-color="#273675"/>
</radialGradient>
</defs>
</svg>
