<svg width="151" height="98" viewBox="0 0 151 98" fill="none" xmlns="http://www.w3.org/2000/svg">
<g clip-path="url(#clip0_384_12618)">
<g opacity="0.3">
<path opacity="0.3" d="M150.211 79.1767V77.3823L149.714 77.106C149.574 77.9551 148.577 78.5118 147.744 78.628L142.068 81.9484L139.589 82.8415L131.683 78.7601L131.867 78.656C131.19 78.3396 130.825 77.6186 130.461 76.9578L129.928 77.2742L129.612 77.3623V79.2047C129.612 79.5572 129.844 79.9097 130.309 80.174L138.231 84.7481C139.16 85.2848 140.666 85.2848 141.596 84.7481L149.518 80.174C149.975 79.9097 150.207 79.5652 150.215 79.2208C150.211 79.2047 150.211 79.1927 150.211 79.1767Z" fill="url(#paint0_linear_384_12618)"/>
<path opacity="0.3" d="M147.744 78.6279L142.068 81.9482L139.914 82.7253V85.1525C140.522 85.1525 141.131 85.0203 141.596 84.7519L149.518 80.1779C149.975 79.9136 150.207 79.5691 150.215 79.2246C150.215 79.2086 150.215 79.1926 150.215 79.1766V77.3822L149.763 77.1299H149.715C149.554 77.963 148.569 78.5117 147.744 78.6279Z" fill="#0F054C"/>
<g opacity="0.3">
<path opacity="0.3" d="M138.227 82.9255L130.305 78.3515C129.376 77.8148 129.376 76.9456 130.305 76.4089L138.227 71.8349C139.157 71.2982 140.663 71.2982 141.592 71.8349L149.514 76.4089C150.443 76.9456 150.443 77.8148 149.514 78.3515L141.592 82.9255C140.667 83.4622 139.157 83.4622 138.227 82.9255Z" fill="url(#paint1_linear_384_12618)"/>
</g>
<g opacity="0.3">
<path opacity="0.3" d="M138.227 82.9255L130.305 78.3515C129.376 77.8148 129.376 76.9456 130.305 76.4089L138.227 71.8349C139.157 71.2982 140.663 71.2982 141.592 71.8349L149.514 76.4089C150.443 76.9456 150.443 77.8148 149.514 78.3515L141.592 82.9255C140.667 83.4622 139.157 83.4622 138.227 82.9255Z" fill="#0F054C"/>
</g>
</g>
<path d="M139.91 77.1458C139.369 77.1458 138.828 77.0257 138.416 76.7894L130.493 72.2153C130.081 71.979 129.856 71.6586 129.856 71.3141C129.856 70.9697 130.085 70.6493 130.493 70.413L138.416 65.8389C139.237 65.3623 140.579 65.3623 141.404 65.8389L149.326 70.413C149.739 70.6493 149.963 70.9697 149.963 71.3141C149.963 71.6586 149.735 71.979 149.326 72.2153L141.404 76.7894C140.991 77.0257 140.45 77.1458 139.91 77.1458ZM139.91 65.6146C139.393 65.6146 138.88 65.7268 138.488 65.9551L130.565 70.5291C130.197 70.7414 129.997 71.0178 129.997 71.3101C129.997 71.6025 130.197 71.8789 130.565 72.0912L138.488 76.6652C139.273 77.1178 140.551 77.1178 141.336 76.6652L149.258 72.0912C149.623 71.8789 149.827 71.6025 149.827 71.3101C149.827 71.0178 149.627 70.7414 149.258 70.5291L141.336 65.9551C140.943 65.7308 140.426 65.6146 139.91 65.6146Z" fill="#42E8E0"/>
<path opacity="0.4" d="M150.211 69.5558V66.8442L149.715 66.5679C149.575 67.417 148.577 67.9737 147.744 68.0899L142.069 71.4103L139.589 72.3034L131.683 68.2221L131.867 68.1179C131.19 67.8015 130.826 67.0805 130.461 66.4197L129.929 66.7361L129.612 66.8242V69.5839C129.612 69.9363 129.845 70.2888 130.309 70.5531L138.232 75.1272C139.161 75.6639 140.667 75.6639 141.596 75.1272L149.519 70.5531C149.975 70.2888 150.207 69.9443 150.215 69.5999C150.211 69.5879 150.211 69.5718 150.211 69.5558Z" fill="#42E8E0"/>
<path d="M150.211 67.1447V65.3503L149.715 65.074C149.575 65.9231 148.577 66.4798 147.744 66.596L142.069 69.9164L139.589 70.8096L131.683 66.7282L131.867 66.624C131.19 66.3076 130.826 65.5867 130.461 64.9258L129.929 65.2422L129.612 65.3303V67.1727C129.612 67.5252 129.845 67.8777 130.309 68.142L138.232 72.7161C139.161 73.2528 140.667 73.2528 141.596 72.7161L149.519 68.142C149.975 67.8777 150.207 67.5332 150.215 67.1888C150.211 67.1768 150.211 67.1607 150.211 67.1447Z" fill="url(#paint2_linear_384_12618)"/>
<path opacity="0.3" d="M147.744 66.5959L142.068 69.9163L139.914 70.6933V73.1205C140.522 73.1205 141.131 72.9883 141.596 72.72L149.518 68.1459C149.975 67.8816 150.207 67.5371 150.215 67.1927C150.215 67.1766 150.215 67.1606 150.215 67.1446V65.3502L149.763 65.0979H149.715C149.554 65.931 148.569 66.4797 147.744 66.5959Z" fill="#0F054C"/>
<path d="M138.227 70.8935L130.305 66.3195C129.376 65.7828 129.376 64.9137 130.305 64.377L138.227 59.8029C139.157 59.2662 140.663 59.2662 141.592 59.8029L149.514 64.377C150.443 64.9137 150.443 65.7828 149.514 66.3195L141.592 70.8935C140.667 71.4303 139.157 71.4303 138.227 70.8935Z" fill="url(#paint3_linear_384_12618)"/>
<path d="M149.514 66.3196L141.592 70.8937C140.663 71.4304 139.157 71.4304 138.227 70.8937L130.305 66.3196C129.888 66.0793 129.66 65.7749 129.616 65.4585C129.56 65.847 129.792 66.2435 130.305 66.5399L138.227 71.1139C139.157 71.6507 140.663 71.6507 141.592 71.1139L149.514 66.5399C150.027 66.2435 150.255 65.843 150.203 65.4585C150.159 65.7749 149.931 66.0833 149.514 66.3196Z" fill="white"/>
<g opacity="0.3">
<path opacity="0.3" d="M34.8511 89.6467V87.8523L34.3545 87.5759C34.2143 88.425 33.217 88.9818 32.3839 89.0979L26.7084 92.4183L24.2291 93.3115L16.3227 89.2301L16.5069 89.126C15.83 88.8096 15.4656 88.0886 15.1011 87.4277L14.5684 87.7441L14.252 87.8323V89.6747C14.252 90.0272 14.4843 90.3796 14.9489 90.644L22.8713 95.218C23.8006 95.7547 25.3065 95.7547 26.2358 95.218L34.1582 90.644C34.6148 90.3796 34.8471 90.0352 34.8551 89.6907C34.8511 89.6787 34.8511 89.6627 34.8511 89.6467Z" fill="url(#paint4_linear_384_12618)"/>
<path opacity="0.3" d="M32.384 89.0978L26.7086 92.4182L24.5537 93.1952V95.6224C25.1625 95.6224 25.7713 95.4903 26.2359 95.2219L34.1584 90.6479C34.615 90.3835 34.8473 90.0391 34.8553 89.6946C34.8553 89.6786 34.8553 89.6626 34.8553 89.6466V87.8522L34.4027 87.5999H34.3506C34.1944 88.433 33.2091 88.9817 32.384 89.0978Z" fill="#0F054C"/>
<g opacity="0.3">
<path opacity="0.3" d="M22.8674 93.3955L14.945 88.8215C14.0157 88.2848 14.0157 87.4156 14.945 86.8789L22.8674 82.3049C23.7966 81.7682 25.3026 81.7682 26.2319 82.3049L34.1543 86.8789C35.0835 87.4156 35.0835 88.2848 34.1543 88.8215L26.2319 93.3955C25.3026 93.9322 23.7966 93.9322 22.8674 93.3955Z" fill="url(#paint5_linear_384_12618)"/>
</g>
<g opacity="0.3">
<path opacity="0.3" d="M22.8674 93.3955L14.945 88.8215C14.0157 88.2848 14.0157 87.4156 14.945 86.8789L22.8674 82.3049C23.7966 81.7682 25.3026 81.7682 26.2319 82.3049L34.1543 86.8789C35.0835 87.4156 35.0835 88.2848 34.1543 88.8215L26.2319 93.3955C25.3026 93.9322 23.7966 93.9322 22.8674 93.3955Z" fill="#0F054C"/>
</g>
</g>
<path opacity="0.4" d="M24.5496 94.8572C19.7192 94.8572 14.8848 93.7958 11.208 91.673C7.63125 89.6063 5.66064 86.8587 5.66064 83.9308C5.66064 81.003 7.63125 78.2553 11.208 76.1886C18.5657 71.943 30.5335 71.943 37.8912 76.1886C41.4679 78.2553 43.4385 81.003 43.4385 83.9308C43.4385 86.8587 41.4679 89.6063 37.8912 91.673L37.8551 91.613L37.8912 91.673C34.2143 93.7958 29.3799 94.8572 24.5496 94.8572ZM24.5496 73.1366C19.7432 73.1366 14.9369 74.194 11.2761 76.3048C7.74339 78.3434 5.80083 81.051 5.80083 83.9268C5.80083 86.8026 7.7474 89.5102 11.2761 91.5489C18.5937 95.7745 30.5014 95.7745 37.8191 91.5489C41.3517 89.5102 43.2943 86.8026 43.2943 83.9268C43.2943 81.051 41.3477 78.3434 37.8191 76.3048C34.1623 74.194 29.3559 73.1366 24.5496 73.1366Z" fill="#42E8E0"/>
<path opacity="0.2" d="M24.5496 97.7853C18.4175 97.7853 12.2854 96.4395 7.61922 93.7439C3.08524 91.1245 0.585938 87.6399 0.585938 83.931C0.585938 80.2221 3.08524 76.7335 7.61922 74.118C16.9555 68.7269 32.1436 68.7269 41.4799 74.118C46.0139 76.7375 48.5132 80.2221 48.5132 83.931C48.5132 87.6399 46.0139 91.1285 41.4799 93.7439C36.8137 96.4395 30.6817 97.7853 24.5496 97.7853ZM24.5496 70.2089C18.4415 70.2089 12.3374 71.5507 7.68731 74.2342C3.19738 76.8256 0.722117 80.2702 0.722117 83.927C0.722117 87.5878 3.19338 91.0284 7.68731 93.6198C16.9836 98.9869 32.1115 98.9869 41.4078 93.6198C45.8977 91.0284 48.373 87.5838 48.373 83.927C48.373 80.2662 45.9017 76.8256 41.4078 74.2342C36.7617 71.5507 30.6536 70.2089 24.5496 70.2089Z" fill="#42E8E0"/>
<path d="M24.5498 92.5502C20.7407 92.5502 16.9357 91.7131 14.0359 90.0389C11.2122 88.4088 9.66211 86.2379 9.66211 83.9269C9.66211 81.6158 11.2162 79.4449 14.0359 77.8148C19.8315 74.4664 29.268 74.4664 35.0636 77.8148C37.8834 79.4489 39.4374 81.6198 39.4374 83.9309C39.4374 86.2419 37.8834 88.4128 35.0636 90.0429C32.1638 91.7131 28.3588 92.5502 24.5498 92.5502ZM24.5498 75.4436C20.7688 75.4436 16.9838 76.2768 14.104 77.9389C11.3283 79.5411 9.79829 81.6679 9.79829 83.9309C9.79829 86.1898 11.3283 88.3166 14.104 89.9228C19.8636 93.2472 29.2359 93.2472 34.9955 89.9228C37.7712 88.3207 39.3012 86.1938 39.3012 83.9309C39.3012 81.6719 37.7712 79.5451 34.9955 77.9389C32.1157 76.2768 28.3307 75.4436 24.5498 75.4436Z" fill="#42E8E0"/>
<path d="M24.5494 86.7425C24.0086 86.7425 23.4679 86.6223 23.0554 86.386L15.1329 81.812C14.7204 81.5757 14.4961 81.2553 14.4961 80.9108C14.4961 80.5664 14.7244 80.2459 15.1329 80.0096L23.0554 75.4356C23.8805 74.959 25.2182 74.959 26.0433 75.4356L33.9658 80.0096C34.3783 80.2459 34.6026 80.5664 34.6026 80.9108C34.6026 81.2553 34.3743 81.5757 33.9658 81.812L26.0433 86.386C25.6308 86.6223 25.0901 86.7425 24.5494 86.7425ZM24.5494 75.2113C24.0327 75.2113 23.516 75.3234 23.1235 75.5517L15.201 80.1258C14.8365 80.3381 14.6323 80.6144 14.6323 80.9068C14.6323 81.1992 14.8325 81.4756 15.201 81.6878L23.1235 86.2619C23.9085 86.7145 25.1862 86.7145 25.9712 86.2619L33.8977 81.6918C34.2662 81.4796 34.4664 81.2032 34.4664 80.9108C34.4664 80.6184 34.2662 80.3421 33.8977 80.1298L25.9752 75.5558C25.5787 75.3274 25.066 75.2113 24.5494 75.2113Z" fill="#42E8E0"/>
<path opacity="0.4" d="M34.8511 79.1527V76.4412L34.3545 76.1648C34.2143 77.0139 33.217 77.5707 32.3839 77.6868L26.7084 81.0072L24.2291 81.9004L16.3227 77.819L16.5069 77.7148C15.83 77.3984 15.4656 76.6775 15.1011 76.0166L14.5684 76.333L14.252 76.4211V79.1808C14.252 79.5332 14.4843 79.8857 14.9489 80.15L22.8713 84.7241C23.8006 85.2608 25.3065 85.2608 26.2358 84.7241L34.1582 80.15C34.6148 79.8857 34.8471 79.5413 34.8551 79.1968C34.8511 79.1848 34.8511 79.1688 34.8511 79.1527Z" fill="#42E8E0"/>
<path d="M34.8507 76.7414V74.947L34.3541 74.6707C34.2139 75.5198 33.2166 76.0765 32.3835 76.1927L26.708 79.513L24.2287 80.4062L16.3183 76.3248L16.5025 76.2207C15.8256 75.9043 15.4612 75.1833 15.0967 74.5225L14.564 74.8389L14.2476 74.927V76.7694C14.2476 77.1219 14.4799 77.4744 14.9445 77.7387L22.8669 82.3127C23.7962 82.8494 25.3021 82.8494 26.2314 82.3127L34.1538 77.7387C34.6104 77.4744 34.8427 77.1299 34.8507 76.7854C34.8507 76.7734 34.8507 76.7574 34.8507 76.7414Z" fill="url(#paint6_linear_384_12618)"/>
<path opacity="0.3" d="M32.3836 76.1928L26.7081 79.5132L24.5532 80.2902V82.7174C25.162 82.7174 25.7708 82.5852 26.2354 82.3169L34.1579 77.7428C34.6145 77.4785 34.8468 77.134 34.8548 76.7896C34.8548 76.7736 34.8548 76.7575 34.8548 76.7415V74.9472L34.4022 74.6948H34.3501C34.1939 75.5279 33.2086 76.0766 32.3836 76.1928Z" fill="#0F054C"/>
<path d="M22.8669 80.4944L14.9445 75.9203C14.0153 75.3836 14.0153 74.5145 14.9445 73.9778L22.8669 69.4038C23.7962 68.867 25.3021 68.867 26.2314 69.4038L34.1538 73.9778C35.0831 74.5145 35.0831 75.3836 34.1538 75.9203L26.2314 80.4944C25.3021 81.0271 23.7962 81.0271 22.8669 80.4944Z" fill="url(#paint7_linear_384_12618)"/>
<path d="M24.5493 79.6613C24.0606 79.6613 23.572 79.5531 23.1995 79.3409L17.0113 75.7681C16.6388 75.5519 16.4346 75.2635 16.4346 74.9471C16.4346 74.6346 16.6388 74.3423 17.0113 74.13L23.1995 70.5573C23.9445 70.1287 25.1541 70.1287 25.8991 70.5573L32.0872 74.13C32.4597 74.3463 32.664 74.6346 32.664 74.9471C32.664 75.2595 32.4597 75.5519 32.0872 75.7641L25.8991 79.3368C25.5266 79.5531 25.0379 79.6613 24.5493 79.6613ZM23.2676 79.2207C23.9725 79.6292 25.122 79.6292 25.827 79.2207L32.0151 75.648C32.3436 75.4597 32.5238 75.2114 32.5238 74.9511C32.5238 74.6907 32.3436 74.4424 32.0151 74.2541L25.827 70.6814C25.122 70.2729 23.9725 70.2729 23.2676 70.6814L17.0794 74.2541C16.751 74.4424 16.5708 74.6907 16.5708 74.9511C16.5708 75.2114 16.751 75.4597 17.0794 75.652L23.2676 79.2207Z" fill="#5351AF"/>
<path d="M34.154 75.9163L26.2315 80.4903C25.3023 81.0271 23.7963 81.0271 22.8671 80.4903L14.9447 75.9163C14.5281 75.676 14.2998 75.3716 14.2557 75.0552C14.1997 75.4437 14.432 75.8402 14.9447 76.1366L22.8671 80.7106C23.7963 81.2473 25.3023 81.2473 26.2315 80.7106L34.154 76.1366C34.6667 75.8402 34.895 75.4397 34.8429 75.0552C34.7989 75.3716 34.5705 75.68 34.154 75.9163Z" fill="white"/>
<g opacity="0.3">
<path opacity="0.3" d="M49.4986 44.4748V42.6804L49.0019 42.4041C48.8617 43.2532 47.8644 43.8099 47.0313 43.9261L41.3558 47.2464L38.8766 48.1396L30.9701 44.0582L31.1544 43.9541C30.4775 43.6377 30.113 42.9167 29.7485 42.2559L29.2158 42.5723L28.8994 42.6604V44.5028C28.8994 44.8553 29.1317 45.2078 29.5963 45.4721L37.5188 50.0461C38.448 50.5828 39.954 50.5828 40.8832 50.0461L48.8057 45.4721C49.2623 45.2078 49.4946 44.8633 49.5026 44.5188C49.4986 44.5028 49.4946 44.4908 49.4986 44.4748Z" fill="url(#paint8_linear_384_12618)"/>
<path opacity="0.3" d="M47.0315 43.9219L41.356 47.2423L39.2012 48.0194V50.4506C39.81 50.4506 40.4188 50.3184 40.8834 50.05L48.8058 45.476C49.2624 45.2117 49.4947 44.8672 49.5028 44.5227C49.5028 44.5067 49.5028 44.4907 49.5028 44.4747V42.6803L49.0502 42.428H49.0021C48.8419 43.2611 47.8566 43.8098 47.0315 43.9219Z" fill="#0F054C"/>
<g opacity="0.3">
<path opacity="0.3" d="M37.5149 48.2236L29.5924 43.6496C28.6632 43.1129 28.6632 42.2437 29.5924 41.707L37.5149 37.133C38.4441 36.5963 39.9501 36.5963 40.8793 37.133L48.8018 41.707C49.731 42.2437 49.731 43.1129 48.8018 43.6496L40.8793 48.2236C39.9501 48.7603 38.4401 48.7603 37.5149 48.2236Z" fill="url(#paint9_linear_384_12618)"/>
</g>
<g opacity="0.3">
<path opacity="0.3" d="M37.5149 48.2236L29.5924 43.6496C28.6632 43.1129 28.6632 42.2437 29.5924 41.707L37.5149 37.133C38.4441 36.5963 39.9501 36.5963 40.8793 37.133L48.8018 41.707C49.731 42.2437 49.731 43.1129 48.8018 43.6496L40.8793 48.2236C39.9501 48.7603 38.4401 48.7603 37.5149 48.2236Z" fill="#0F054C"/>
</g>
</g>
<path d="M39.1968 42.4561C38.6561 42.4561 38.1154 42.336 37.7028 42.0997L29.7804 37.5256C29.3678 37.2893 29.1436 36.9689 29.1436 36.6244C29.1436 36.28 29.3719 35.9596 29.7804 35.7233L37.7028 31.1492C38.5279 30.6726 39.8657 30.6726 40.6908 31.1492L48.6132 35.7233C49.0258 35.9596 49.2501 36.28 49.2501 36.6244C49.2501 36.9689 49.0218 37.2893 48.6132 37.5256L40.6908 42.0997C40.2782 42.34 39.7375 42.4561 39.1968 42.4561ZM37.7709 41.9795C38.556 42.4321 39.8337 42.4321 40.6187 41.9795L48.5411 37.4055C48.9096 37.1932 49.1099 36.9168 49.1099 36.6244C49.1099 36.3321 48.9096 36.0557 48.5411 35.8434L40.6187 31.2694C39.8337 30.8168 38.556 30.8168 37.7709 31.2694L29.8485 35.8434C29.48 36.0557 29.2797 36.3321 29.2797 36.6244C29.2797 36.9168 29.48 37.1932 29.8485 37.4055L37.7709 41.9795Z" fill="#42E8E0"/>
<path opacity="0.4" d="M49.4982 34.8703V32.1587L49.0016 31.8823C48.8614 32.7314 47.8641 33.2882 47.031 33.4043L41.3555 36.7247L38.8762 37.6179L30.9658 33.5365L31.15 33.4324C30.4731 33.116 30.1086 32.395 29.7441 31.7341L29.2114 32.0505L28.895 32.1387V34.8983C28.895 35.2508 29.1273 35.6032 29.5919 35.8676L37.5144 40.4456C38.4436 40.9823 39.9496 40.9823 40.8788 40.4456L48.8013 35.8716C49.2579 35.6072 49.4902 35.2628 49.4982 34.9183C49.4982 34.8983 49.4942 34.8863 49.4982 34.8703Z" fill="#42E8E0"/>
<path d="M49.4982 32.4592V30.6648L49.0016 30.3884C48.8614 31.2376 47.8641 31.7943 47.031 31.9104L41.3555 35.2308L38.8762 36.124L30.9658 32.0426L31.15 31.9385C30.4731 31.6221 30.1086 30.9011 29.7441 30.2402L29.2114 30.5567L28.895 30.6448V32.4872C28.895 32.8397 29.1273 33.1921 29.5919 33.4565L37.5144 38.0305C38.4436 38.5672 39.9496 38.5672 40.8788 38.0305L48.8013 33.4565C49.2579 33.1921 49.4902 32.8477 49.4982 32.5032C49.4982 32.4872 49.4942 32.4752 49.4982 32.4592Z" fill="url(#paint10_linear_384_12618)"/>
<path opacity="0.3" d="M47.031 31.9063L41.3555 35.2267L39.2007 36.0037V38.4349C39.8095 38.4349 40.4183 38.3028 40.8829 38.0344L48.8054 33.4604C49.262 33.196 49.4943 32.8516 49.5023 32.5071C49.5023 32.4911 49.5023 32.4751 49.5023 32.4591V30.6647L49.0497 30.4124H49.0016C48.8414 31.2455 47.8561 31.7942 47.031 31.9063Z" fill="#0F054C"/>
<path d="M37.5144 36.208L29.5919 31.634C28.6627 31.0973 28.6627 30.2281 29.5919 29.6914L37.5144 25.1174C38.4436 24.5807 39.9496 24.5807 40.8788 25.1174L48.8013 29.6914C49.7305 30.2281 49.7305 31.0973 48.8013 31.634L40.8788 36.208C39.9496 36.7447 38.4396 36.7447 37.5144 36.208Z" fill="url(#paint11_linear_384_12618)"/>
<path d="M39.1967 35.3788C38.7081 35.3788 38.2194 35.2707 37.847 35.0584L31.6588 31.4857C31.2863 31.2694 31.082 30.981 31.082 30.6646C31.082 30.3522 31.2863 30.0598 31.6588 29.8475L37.847 26.2748C38.5919 25.8462 39.8015 25.8462 40.5465 26.2748L46.7347 29.8475C47.1072 30.0638 47.3114 30.3522 47.3114 30.6646C47.3114 30.977 47.1072 31.2694 46.7347 31.4817L40.5465 35.0544C40.174 35.2707 39.6854 35.3788 39.1967 35.3788ZM39.1967 26.0865C38.7321 26.0865 38.2715 26.1867 37.9191 26.3909L31.7309 29.9637C31.4025 30.1519 31.2222 30.4002 31.2222 30.6606C31.2222 30.9209 31.4025 31.1693 31.7309 31.3615L37.9191 34.9342C38.624 35.3428 39.7735 35.3428 40.4784 34.9342L46.6666 31.3615C46.995 31.1733 47.1753 30.9249 47.1753 30.6646C47.1753 30.4042 46.995 30.1559 46.6666 29.9677L40.4784 26.395C40.122 26.1867 39.6614 26.0865 39.1967 26.0865Z" fill="#5351AF"/>
<path d="M48.8015 31.6341L40.879 36.2081C39.9498 36.7448 38.4438 36.7448 37.5146 36.2081L29.5921 31.6341C29.1756 31.3938 28.9473 31.0894 28.9032 30.7729C28.8471 31.1615 29.0794 31.558 29.5921 31.8544L37.5146 36.4324C38.4438 36.9691 39.9498 36.9691 40.879 36.4324L48.8015 31.8584C49.3141 31.562 49.5424 31.1615 49.4904 30.777C49.4463 31.0894 49.214 31.3938 48.8015 31.6341Z" fill="white"/>
<path d="M87.1282 97.565C86.7597 97.565 86.3712 97.4769 86.0708 97.3006L37.4987 69.2596C37.1943 69.0834 37.0181 68.8431 37.0181 68.6028C37.0181 68.3985 37.1422 68.2102 37.3705 68.0821L66.3528 51.348C66.8334 51.0716 67.6785 51.1037 68.2313 51.4241L116.799 79.4651C117.104 79.6413 117.28 79.8816 117.28 80.122C117.28 80.3262 117.156 80.5145 116.928 80.6426L87.9453 97.3767C87.729 97.5009 87.4366 97.565 87.1282 97.565ZM37.5828 69.1154L86.1509 97.1564C86.6596 97.4488 87.4286 97.4849 87.8652 97.2325L116.847 80.4985C117.02 80.3983 117.116 80.2621 117.116 80.118C117.116 79.9377 116.972 79.7495 116.715 79.6013L68.1471 51.5603C67.6385 51.2679 66.8695 51.2358 66.4329 51.4842L37.4506 68.2182C37.2784 68.3184 37.1823 68.4546 37.1823 68.5987C37.1863 68.783 37.3305 68.9712 37.5828 69.1154Z" fill="#42E8E0"/>
<path d="M117.2 75.2714L114.524 74.8869L68.1911 48.1356C67.6584 47.8272 66.8533 47.7952 66.3967 48.0595L38.8003 63.9925L37.1021 63.7482V66.0032H37.1061C37.1101 66.2034 37.2543 66.4157 37.5386 66.5839L86.1067 94.6249C86.6394 94.9333 87.4445 94.9654 87.9011 94.701L116.883 77.967C117.096 77.8428 117.192 77.6786 117.188 77.5104H117.192V75.2714H117.2Z" fill="url(#paint12_linear_384_12618)"/>
<path d="M37.5428 64.345L86.1109 92.386C86.6436 92.6944 87.4487 92.7264 87.9053 92.4621L116.887 75.728C117.348 75.4636 117.292 74.999 116.759 74.6906L68.1912 46.6456C67.6585 46.3372 66.8535 46.3052 66.3969 46.5695L37.4146 63.3076C36.954 63.572 37.0101 64.0366 37.5428 64.345Z" fill="url(#paint13_linear_384_12618)"/>
<path opacity="0.3" d="M41.748 64.8938L85.1613 89.9588C85.6379 90.2312 86.3549 90.2632 86.7674 90.0269L112.674 75.0712C113.086 74.8349 113.034 74.4183 112.557 74.146L69.1442 49.0809C68.6675 48.8085 67.9506 48.7765 67.538 49.0128L41.6319 63.9685C41.2193 64.2048 41.2714 64.6174 41.748 64.8938Z" fill="#24126A"/>
<path d="M116.892 75.4836L87.9093 92.2177C87.4487 92.4821 86.6436 92.45 86.1149 92.1416L37.5428 64.1006C37.3105 63.9644 37.1744 63.8002 37.1263 63.636C37.0542 63.8723 37.1944 64.1407 37.5428 64.3449L86.1109 92.3859C86.6436 92.6943 87.4487 92.7264 87.9053 92.462L116.888 75.7279C117.148 75.5798 117.236 75.3675 117.176 75.1552C117.14 75.2753 117.048 75.3915 116.892 75.4836Z" fill="white"/>
<path d="M68.1028 37.9061L74.2429 1.47806L73.7503 1.26979L74.4912 0.845227V0.849232C74.6354 0.753105 74.8397 0.761116 75.064 0.889285L124.133 29.2187C124.537 29.451 124.842 30.0478 124.77 30.4643L118.581 67.1808C118.549 67.373 118.453 67.4972 118.321 67.5533L117.596 67.9738L117.472 67.2969L117.512 67.3089L68.7397 39.1518C68.3391 38.9195 68.0347 38.3227 68.1028 37.9061Z" fill="url(#paint14_linear_384_12618)"/>
<path d="M123.856 30.2161L124.661 29.8596C124.753 30.0679 124.797 30.2842 124.765 30.4684L118.577 67.1849C118.545 67.3771 118.449 67.5013 118.317 67.5574L117.592 67.9779L117.468 67.301L117.508 67.313L115.041 65.8872L123.856 30.2161Z" fill="url(#paint15_linear_384_12618)"/>
<path d="M67.9706 39.5924L117.039 67.9218C117.42 68.1421 117.744 68.0139 117.808 67.6214L123.997 30.905C124.069 30.4884 123.764 29.8916 123.36 29.6593L74.291 1.32993C73.9105 1.10963 73.586 1.2378 73.5219 1.63032L67.3338 38.3468C67.2657 38.7633 67.5701 39.3601 67.9706 39.5924Z" fill="#24126A"/>
<g opacity="0.51">
<path opacity="0.51" d="M74.1267 2.01465L123.428 30.4642L117.2 67.2728L67.9346 38.8432L74.1267 2.01465Z" fill="#453C9E"/>
</g>
<path d="M37.126 56.9753L39.8055 58.3731L66.6569 42.8687C67.1055 42.6083 67.8906 42.6404 68.4113 42.9408L114.72 69.68C115.165 69.4317 117.184 68.4624 117.184 68.4624L116.202 70.0565L116.198 70.0525C116.158 70.1647 116.07 70.2728 115.926 70.3569L87.6446 86.6825C87.196 86.9428 86.411 86.9108 85.8903 86.6104L38.5038 59.2503C38.2915 59.1261 38.1593 58.9779 38.1073 58.8257L38.1033 58.8297L37.126 56.9753Z" fill="url(#paint16_linear_384_12618)"/>
<path d="M37.5428 57.4159L86.1109 85.4569C86.6436 85.7653 87.4487 85.7974 87.9053 85.533L116.887 68.7989C117.348 68.5346 117.292 68.07 116.759 67.7616L68.1912 39.7206C67.6585 39.4122 66.8535 39.3801 66.3969 39.6445L37.4146 56.3785C36.954 56.6429 37.0101 57.1075 37.5428 57.4159Z" fill="url(#paint17_linear_384_12618)"/>
<path d="M37.5428 57.4159L86.1109 85.4569C86.6436 85.7653 87.4487 85.7974 87.9053 85.533L116.887 68.7989C117.348 68.5346 117.292 68.07 116.759 67.7616L68.1912 39.7206C67.6585 39.4122 66.8535 39.3801 66.3969 39.6445L37.4146 56.3785C36.954 56.6429 37.0101 57.1075 37.5428 57.4159Z" fill="#24126A"/>
<path opacity="0.51" d="M37.5428 57.4159L86.1109 85.4569C86.6436 85.7653 87.4487 85.7974 87.9053 85.533L116.887 68.7989C117.348 68.5346 117.292 68.07 116.759 67.7616L68.1912 39.7206C67.6585 39.4122 66.8535 39.3801 66.3969 39.6445L37.4146 56.3785C36.954 56.6429 37.0101 57.1075 37.5428 57.4159Z" fill="#453C9E"/>
<g opacity="0.3">
<path opacity="0.5" d="M37.5428 56.3825L86.1109 84.4235C86.6436 84.7319 87.4487 84.7639 87.9053 84.4996L116.887 67.7655C117.348 67.5011 117.292 67.0365 116.759 66.7281L68.1912 38.6871C67.6585 38.3787 66.8535 38.3467 66.3969 38.611L37.4146 55.3451C36.954 55.6135 37.0101 56.0781 37.5428 56.3825Z" fill="url(#paint18_radial_384_12618)"/>
<g opacity="0.3">
<g opacity="0.3">
<g opacity="0.3">
<g opacity="0.3">
<path opacity="0.3" d="M96.7728 85.525V82.3648L95.8996 81.8802C95.6513 83.3702 93.897 84.3515 92.431 84.5557L82.4418 90.3954L78.0841 91.9695L64.1697 84.788L64.4901 84.6038C63.3006 84.0471 62.6597 82.7774 62.0189 81.6199L61.0816 82.1766L60.5249 82.3328V85.5731C60.5249 86.1939 60.9334 86.8107 61.7505 87.2833L75.6889 95.33C77.3191 96.2712 79.9786 96.2712 81.6087 95.33L95.5471 87.2833C96.3482 86.8187 96.7567 86.2139 96.7728 85.6051C96.7728 85.5771 96.7728 85.5491 96.7728 85.525Z" fill="url(#paint19_linear_384_12618)"/>
<path opacity="0.3" d="M92.4311 84.5556L82.4419 90.3953L78.6489 91.7652V96.0348C79.7223 96.0348 80.7918 95.7985 81.6088 95.3299L95.5472 87.2832C96.3483 86.8186 96.7568 86.2138 96.7729 85.605C96.7729 85.577 96.7729 85.549 96.7729 85.5249V82.3647L95.9758 81.9202H95.8917C95.6193 83.3901 93.885 84.3554 92.4311 84.5556Z" fill="#0F054C"/>
<path opacity="0.3" d="M64.49 84.6077L77.6994 76.9816C78.2201 76.6812 79.0733 76.6812 79.5939 76.9816L92.5711 84.4755L92.4269 84.5596C93.8928 84.3553 95.6471 83.374 95.8955 81.8841L81.3282 73.7814L77.0906 72.6599L73.6381 74.6866L62.0107 81.6197C62.6636 82.7813 63.3004 84.0509 64.49 84.6077Z" fill="url(#paint20_linear_384_12618)"/>
<path opacity="0.3" d="M78.6486 73.0685L77.0946 72.656L73.642 74.6827L62.0146 81.6158C62.6595 82.7734 63.3003 84.047 64.4859 84.5998L77.6953 76.9737C77.9557 76.8215 78.3001 76.7454 78.6446 76.7494V73.0685H78.6486Z" fill="#0F054C"/>
<g opacity="0.3">
<path opacity="0.3" d="M75.6889 92.1217L61.7505 84.0751C60.1164 83.1338 60.1164 81.5998 61.7505 80.6586L75.6889 72.6119C77.3191 71.6707 79.9786 71.6707 81.6087 72.6119L95.5471 80.6586C97.1773 81.5998 97.1773 83.1338 95.5471 84.0751L81.6087 92.1217C79.9786 93.0669 77.3231 93.0669 75.6889 92.1217ZM79.5981 73.7695C79.0774 73.4691 78.2243 73.4691 77.7036 73.7695L63.7652 81.8161C63.2445 82.1165 63.2445 82.6091 63.7652 82.9095L77.7036 90.9562C78.2243 91.2565 79.0774 91.2565 79.5981 90.9562L93.5365 82.9095C94.0571 82.6091 94.0571 82.1165 93.5365 81.8161L79.5981 73.7695Z" fill="#5351AF"/>
</g>
<g opacity="0.3">
<path opacity="0.3" d="M93.5364 81.82L79.598 73.7734C79.0773 73.473 78.2241 73.473 77.7035 73.7734L63.7651 81.82C63.4166 82.0203 63.3005 82.3046 63.4166 82.565C63.4767 82.4368 63.5888 82.3167 63.7651 82.2125L77.7035 74.1659C78.2241 73.8655 79.0773 73.8655 79.598 74.1659L93.5364 82.2125C93.7086 82.3127 93.8247 82.4328 93.8848 82.561C94.001 82.3046 93.8848 82.0203 93.5364 81.82Z" fill="white"/>
<path opacity="0.3" d="M95.5469 84.075L81.6085 92.1217C79.9783 93.0629 77.3188 93.0629 75.6887 92.1217L61.7503 84.075C61.0213 83.6545 60.6168 83.1138 60.5407 82.561C60.4446 83.2419 60.8491 83.9469 61.7503 84.4675L75.6887 92.5142C77.3188 93.4554 79.9783 93.4554 81.6085 92.5142L95.5469 84.4675C96.4481 83.9469 96.8526 83.2459 96.7565 82.561C96.6804 83.1138 96.2759 83.6545 95.5469 84.075Z" fill="white"/>
</g>
<g opacity="0.3">
<path opacity="0.3" d="M76.0813 91.8975L62.1429 83.8509C60.7291 83.0338 60.7291 81.7041 62.1429 80.887L76.0813 72.8403C77.4952 72.0233 79.7982 72.0233 81.2121 72.8403L95.1505 80.887C96.5643 81.7041 96.5643 83.0338 95.1505 83.8509L81.2121 91.8975C79.8022 92.7146 77.4992 92.7146 76.0813 91.8975ZM79.9905 73.5453C79.2495 73.1167 78.0479 73.1167 77.3069 73.5453L63.3685 81.5919C62.6276 82.0205 62.6276 82.7134 63.3685 83.1419L77.3069 91.1886C78.0479 91.6171 79.2495 91.6171 79.9905 91.1886L93.9289 83.1419C94.6698 82.7134 94.6698 82.0205 93.9289 81.5919L79.9905 73.5453Z" fill="url(#paint21_linear_384_12618)"/>
</g>
</g>
<path opacity="0.4" d="M79.5979 73.7695C79.0772 73.4691 78.2241 73.4691 77.7034 73.7695L63.765 81.8161C63.2443 82.1165 63.2443 82.6092 63.765 82.9095L77.7034 90.9562C78.2241 91.2566 79.0772 91.2566 79.5979 90.9562L93.5363 82.9095C94.057 82.6092 94.057 82.1165 93.5363 81.8161L79.5979 73.7695Z" fill="#42E8E0"/>
</g>
<g opacity="0.3">
<path opacity="0.4" d="M96.7728 82.7095V77.9352L95.8996 77.4505C95.6513 78.9405 93.897 79.9218 92.431 80.1261L82.4418 85.9658L78.0841 87.5399L64.1697 80.3584L64.4901 80.1741C63.3006 79.6174 62.6597 78.3477 62.0189 77.1902L61.0816 77.7469L60.5249 77.9031V82.7575C60.5249 83.3784 60.9334 83.9952 61.7505 84.4678L75.6889 92.5144C77.3191 93.4557 79.9786 93.4557 81.6087 92.5144L95.5471 84.4678C96.3482 84.0032 96.7567 83.3984 96.7728 82.7896C96.7728 82.7615 96.7728 82.7375 96.7728 82.7095Z" fill="#42E8E0"/>
<g opacity="0.3">
<g opacity="0.3">
<path opacity="0.3" d="M96.7728 78.4679V75.3077L95.8996 74.8231C95.6513 76.3131 93.897 77.2943 92.431 77.4986L82.4418 83.3383L78.0841 84.9124L64.1697 77.7309L64.4901 77.5467C63.3006 76.9899 62.6597 75.7203 62.0189 74.5627L61.0816 75.1195L60.5249 75.2757V78.516C60.5249 79.1368 60.9334 79.7536 61.7505 80.2262L75.6889 88.2728C77.3191 89.2141 79.9786 89.2141 81.6087 88.2728L95.5471 80.2262C96.3482 79.7616 96.7567 79.1568 96.7728 78.548C96.7728 78.52 96.7728 78.4919 96.7728 78.4679Z" fill="url(#paint22_linear_384_12618)"/>
<path opacity="0.3" d="M92.4311 77.4985L82.4419 83.3382L78.6489 84.708V88.9777C79.7223 88.9777 80.7918 88.7413 81.6088 88.2727L95.5472 80.2261C96.3483 79.7615 96.7568 79.1567 96.7729 78.5479C96.7729 78.5199 96.7729 78.4918 96.7729 78.4678V75.3076L95.9758 74.863H95.8917C95.6193 76.329 93.885 77.2983 92.4311 77.4985Z" fill="#0F054C"/>
<path opacity="0.3" d="M64.49 77.5466L77.6994 69.9206C78.2201 69.6202 79.0733 69.6202 79.5939 69.9206L92.5711 77.4145L92.4269 77.4986C93.8928 77.2943 95.6471 76.313 95.8955 74.823L81.3282 66.7204L77.0906 65.5989L73.6381 67.6255L62.0107 74.5587C62.6636 75.7202 63.3004 76.9939 64.49 77.5466Z" fill="url(#paint23_linear_384_12618)"/>
<path opacity="0.3" d="M78.6486 66.0114L77.0946 65.5989L73.642 67.6256L62.0146 74.5587C62.6595 75.7162 63.3003 76.9899 64.4859 77.5426L77.6953 69.9166C77.9557 69.7644 78.3001 69.6883 78.6446 69.6923V66.0114H78.6486Z" fill="#0F054C"/>
<g opacity="0.3">
<path opacity="0.3" d="M75.6889 85.0645L61.7505 77.0179C60.1164 76.0767 60.1164 74.5427 61.7505 73.6014L75.6889 65.5548C77.3191 64.6136 79.9786 64.6136 81.6087 65.5548L95.5471 73.6014C97.1773 74.5427 97.1773 76.0767 95.5471 77.0179L81.6087 85.0645C79.9786 86.0058 77.3231 86.0058 75.6889 85.0645ZM79.5981 66.7123C79.0774 66.4119 78.2243 66.4119 77.7036 66.7123L63.7652 74.759C63.2445 75.0593 63.2445 75.552 63.7652 75.8524L77.7036 83.899C78.2243 84.1994 79.0774 84.1994 79.5981 83.899L93.5365 75.8524C94.0571 75.552 94.0571 75.0593 93.5365 74.759L79.5981 66.7123Z" fill="#5351AF"/>
</g>
<g opacity="0.3">
<path opacity="0.3" d="M93.5364 74.759L79.598 66.7124C79.0773 66.412 78.2241 66.412 77.7035 66.7124L63.7651 74.759C63.4166 74.9592 63.3005 75.2436 63.4166 75.504C63.4767 75.3758 63.5888 75.2556 63.7651 75.1515L77.7035 67.1049C78.2241 66.8045 79.0773 66.8045 79.598 67.1049L93.5364 75.1515C93.7086 75.2516 93.8247 75.3718 93.8848 75.4999C94.001 75.2476 93.8848 74.9632 93.5364 74.759Z" fill="white"/>
<path opacity="0.3" d="M95.5469 77.0179L81.6085 85.0645C79.9783 86.0058 77.3188 86.0058 75.6887 85.0645L61.7503 77.0179C61.0213 76.5973 60.6168 76.0566 60.5407 75.5039C60.4446 76.1848 60.8491 76.8897 61.7503 77.4104L75.6887 85.457C77.3188 86.3983 79.9783 86.3983 81.6085 85.457L95.5469 77.4104C96.4481 76.8897 96.8526 76.1888 96.7565 75.5039C96.6804 76.0566 96.2759 76.5973 95.5469 77.0179Z" fill="white"/>
</g>
<g opacity="0.3">
<path opacity="0.3" d="M76.0813 84.8362L62.1429 76.7896C60.7291 75.9725 60.7291 74.6428 62.1429 73.8257L76.0813 65.7791C77.4952 64.962 79.7982 64.962 81.2121 65.7791L95.1505 73.8257C96.5643 74.6428 96.5643 75.9725 95.1505 76.7896L81.2121 84.8362C79.8022 85.6533 77.4992 85.6533 76.0813 84.8362ZM79.9905 66.484C79.2495 66.0554 78.0479 66.0554 77.3069 66.484L63.3685 74.5306C62.6276 74.9592 62.6276 75.6521 63.3685 76.0807L77.3069 84.1273C78.0479 84.5558 79.2495 84.5558 79.9905 84.1273L93.9289 76.0807C94.6698 75.6521 94.6698 74.9592 93.9289 74.5306L79.9905 66.484Z" fill="url(#paint24_linear_384_12618)"/>
</g>
</g>
<path opacity="0.4" d="M79.5979 66.7124C79.0772 66.412 78.2241 66.412 77.7034 66.7124L63.765 74.759C63.2443 75.0594 63.2443 75.552 63.765 75.8524L77.7034 83.899C78.2241 84.1994 79.0772 84.1994 79.5979 83.899L93.5363 75.8524C94.057 75.552 94.057 75.0594 93.5363 74.759L79.5979 66.7124Z" fill="#42E8E0"/>
</g>
</g>
<g opacity="0.3">
<path opacity="0.4" d="M96.7728 75.6521V70.8778L95.8996 70.3932C95.6513 71.8831 93.897 72.8644 92.431 73.0687L82.4418 78.9084L78.0841 80.4825L64.1697 73.301L64.4901 73.1168C63.3006 72.56 62.6597 71.2903 62.0189 70.1328L61.0816 70.6895L60.5249 70.8458V75.7002C60.5249 76.321 60.9334 76.9378 61.7505 77.4104L75.6889 85.457C77.3191 86.3983 79.9786 86.3983 81.6087 85.457L95.5471 77.4104C96.3482 76.9458 96.7567 76.341 96.7728 75.7322C96.7728 75.7042 96.7728 75.6761 96.7728 75.6521Z" fill="#42E8E0"/>
<g opacity="0.3">
<g opacity="0.3">
<path opacity="0.3" d="M96.7728 71.4064V68.2462L95.8996 67.7616C95.6513 69.2515 93.897 70.2328 92.431 70.4371L82.4418 76.2768L78.0841 77.8509L64.1697 70.6694L64.4901 70.4852C63.3006 69.9284 62.6597 68.6587 62.0189 67.5012L61.0816 68.058L60.5249 68.2142V71.4544C60.5249 72.0753 60.9334 72.6921 61.7505 73.1647L75.6889 81.2113C77.3191 82.1526 79.9786 82.1526 81.6087 81.2113L95.5471 73.1647C96.3482 72.7001 96.7567 72.0953 96.7728 71.4865C96.7728 71.4624 96.7728 71.4344 96.7728 71.4064Z" fill="url(#paint25_linear_384_12618)"/>
<path opacity="0.3" d="M92.4311 70.4411L82.4419 76.2809L78.6489 77.6507V81.9203C79.7223 81.9203 80.7918 81.684 81.6088 81.2154L95.5472 73.1687C96.3483 72.7041 96.7568 72.0993 96.7729 71.4905C96.7729 71.4625 96.7729 71.4345 96.7729 71.4104V68.2503L95.9758 67.8057H95.8917C95.6193 69.2716 93.885 70.2369 92.4311 70.4411Z" fill="#0F054C"/>
<path opacity="0.3" d="M64.4899 70.4893L77.6993 62.8632C78.22 62.5628 79.0732 62.5628 79.5938 62.8632L92.571 70.3571L92.4268 70.4412C93.8927 70.2369 95.647 69.2556 95.8954 67.7657L81.3321 59.663L77.0946 58.5415L73.642 60.5682L62.0146 67.5013C62.6635 68.6629 63.3003 69.9325 64.4899 70.4893Z" fill="url(#paint26_linear_384_12618)"/>
<path opacity="0.3" d="M78.6486 58.954L77.0946 58.5415L73.642 60.5682L62.0146 67.5013C62.6595 68.6589 63.3003 69.9325 64.4859 70.4853L77.6953 62.8592C77.9557 62.707 78.3001 62.6309 78.6446 62.6349V58.954H78.6486Z" fill="#0F054C"/>
<g opacity="0.3">
<path opacity="0.3" d="M75.6889 78.0072L61.7505 69.9606C60.1164 69.0193 60.1164 67.4853 61.7505 66.5441L75.6889 58.4974C77.3191 57.5562 79.9786 57.5562 81.6087 58.4974L95.5471 66.5441C97.1773 67.4853 97.1773 69.0193 95.5471 69.9606L81.6087 78.0072C79.9786 78.9484 77.3231 78.9484 75.6889 78.0072ZM79.5981 59.655C79.0774 59.3546 78.2243 59.3546 77.7036 59.655L63.7652 67.7016C63.2445 68.002 63.2445 68.4946 63.7652 68.795L77.7036 76.8416C78.2243 77.142 79.0774 77.142 79.5981 76.8416L93.5365 68.795C94.0571 68.4946 94.0571 68.002 93.5365 67.7016L79.5981 59.655Z" fill="#5351AF"/>
</g>
<g opacity="0.3">
<path opacity="0.3" d="M93.5364 67.7016L79.598 59.655C79.0773 59.3546 78.2241 59.3546 77.7035 59.655L63.7651 67.7016C63.4166 67.9019 63.3005 68.1862 63.4166 68.4466C63.4767 68.3184 63.5888 68.1983 63.7651 68.0941L77.7035 60.0475C78.2241 59.7471 79.0773 59.7471 79.598 60.0475L93.5364 68.0941C93.7086 68.1943 93.8247 68.3144 93.8848 68.4426C94.001 68.1903 93.8848 67.9019 93.5364 67.7016Z" fill="white"/>
<path opacity="0.3" d="M95.5469 69.9605L81.6085 78.0071C79.9783 78.9484 77.3188 78.9484 75.6887 78.0071L61.7503 69.9605C61.0213 69.54 60.6168 68.9993 60.5407 68.4465C60.4446 69.1274 60.8491 69.8324 61.7503 70.3531L75.6887 78.3997C77.3188 79.3409 79.9783 79.3409 81.6085 78.3997L95.5469 70.3531C96.4481 69.8324 96.8526 69.1314 96.7565 68.4465C96.6804 68.9993 96.2759 69.536 95.5469 69.9605Z" fill="white"/>
</g>
<g opacity="0.3">
<path opacity="0.3" d="M76.0813 77.7788L62.1429 69.7322C60.7291 68.9151 60.7291 67.5854 62.1429 66.7683L76.0813 58.7217C77.4952 57.9046 79.7982 57.9046 81.2121 58.7217L95.1505 66.7683C96.5643 67.5854 96.5643 68.9151 95.1505 69.7322L81.2121 77.7788C79.8022 78.5959 77.4992 78.5959 76.0813 77.7788ZM79.9905 59.4266C79.2495 58.9981 78.0479 58.9981 77.3069 59.4266L63.3685 67.4732C62.6276 67.9018 62.6276 68.5947 63.3685 69.0233L77.3069 77.0699C78.0479 77.4985 79.2495 77.4985 79.9905 77.0699L93.9289 69.0233C94.6698 68.5947 94.6698 67.9018 93.9289 67.4732L79.9905 59.4266Z" fill="url(#paint27_linear_384_12618)"/>
</g>
</g>
<path opacity="0.4" d="M79.5979 59.655C79.0772 59.3546 78.2241 59.3546 77.7034 59.655L63.765 67.7016C63.2443 68.002 63.2443 68.4947 63.765 68.795L77.7034 76.8417C78.2241 77.1421 79.0772 77.1421 79.5979 76.8417L93.5363 68.795C94.057 68.4947 94.057 68.002 93.5363 67.7016L79.5979 59.655Z" fill="#42E8E0"/>
</g>
</g>
<g opacity="0.3">
<path opacity="0.4" d="M96.7728 68.5906V63.8163L95.8996 63.3316C95.6513 64.8216 93.897 65.8029 92.431 66.0072L82.4418 71.8469L78.0841 73.421L64.1697 66.2395L64.4901 66.0552C63.3006 65.4985 62.6597 64.2288 62.0189 63.0713L61.0816 63.628L60.5249 63.7842V68.6386C60.5249 69.2595 60.9334 69.8763 61.7505 70.3489L75.6889 78.3955C77.3191 79.3368 79.9786 79.3368 81.6087 78.3955L95.5471 70.3489C96.3482 69.8843 96.7567 69.2795 96.7728 68.6707C96.7728 68.6467 96.7728 68.6186 96.7728 68.5906Z" fill="#42E8E0"/>
<g opacity="0.3">
<g opacity="0.3">
<path opacity="0.3" d="M96.7728 64.349V61.1888L95.8996 60.7042C95.6513 62.1942 93.897 63.1755 92.431 63.3797L82.4418 69.2194L78.0841 70.7935L64.1697 63.612L64.4901 63.4278C63.3006 62.871 62.6597 61.6014 62.0189 60.4438L61.0816 61.0006L60.5249 61.1568V64.3971C60.5249 65.0179 60.9334 65.6347 61.7505 66.1073L75.6889 74.1539C77.3191 75.0952 79.9786 75.0952 81.6087 74.1539L95.5471 66.1073C96.3482 65.6427 96.7567 65.0379 96.7728 64.4291C96.7728 64.4051 96.7728 64.377 96.7728 64.349Z" fill="url(#paint28_linear_384_12618)"/>
<path opacity="0.3" d="M92.4311 63.3838L82.4419 69.2235L78.6489 70.5933V74.8629C79.7223 74.8629 80.7918 74.6266 81.6088 74.158L95.5472 66.1114C96.3483 65.6468 96.7568 65.042 96.7729 64.4332C96.7729 64.4051 96.7729 64.3771 96.7729 64.353V61.1929L95.9758 60.7483H95.8917C95.6193 62.2142 93.885 63.1795 92.4311 63.3838Z" fill="#0F054C"/>
<path opacity="0.3" d="M64.49 63.4319L77.6994 55.8058C78.2201 55.5054 79.0733 55.5054 79.5939 55.8058L92.5711 63.2997L92.4269 63.3838C93.8928 63.1796 95.6471 62.1983 95.8955 60.7083L81.3282 52.6056L77.0906 51.4841L73.6381 53.5108L62.0107 60.444C62.6636 61.6055 63.3004 62.8752 64.49 63.4319Z" fill="url(#paint29_linear_384_12618)"/>
<path opacity="0.3" d="M78.6486 51.8967L77.0946 51.4841L73.642 53.5108L62.0146 60.444C62.6595 61.6015 63.3003 62.8752 64.4859 63.4279L77.6953 55.8018C77.9557 55.6496 78.3001 55.5735 78.6446 55.5775V51.8967H78.6486Z" fill="#0F054C"/>
<g opacity="0.3">
<path opacity="0.3" d="M75.6889 70.9498L61.7505 62.9032C60.1164 61.9619 60.1164 60.4279 61.7505 59.4867L75.6889 51.4401C77.3191 50.4988 79.9786 50.4988 81.6087 51.4401L95.5471 59.4867C97.1773 60.4279 97.1773 61.9619 95.5471 62.9032L81.6087 70.9498C79.9786 71.891 77.3231 71.891 75.6889 70.9498ZM79.5981 52.5976C79.0774 52.2972 78.2243 52.2972 77.7036 52.5976L63.7652 60.6442C63.2445 60.9446 63.2445 61.4372 63.7652 61.7376L77.7036 69.7843C78.2243 70.0847 79.0774 70.0847 79.5981 69.7843L93.5365 61.7376C94.0571 61.4372 94.0571 60.9446 93.5365 60.6442L79.5981 52.5976Z" fill="url(#paint30_linear_384_12618)"/>
</g>
<g opacity="0.3">
<path opacity="0.3" d="M93.5364 60.6442L79.598 52.5976C79.0773 52.2972 78.2241 52.2972 77.7035 52.5976L63.7651 60.6442C63.4166 60.8445 63.3005 61.1289 63.4166 61.3892C63.4767 61.261 63.5888 61.1409 63.7651 61.0367L77.7035 52.9901C78.2241 52.6897 79.0773 52.6897 79.598 52.9901L93.5364 61.0367C93.7086 61.1369 93.8247 61.257 93.8848 61.3852C94.001 61.1329 93.8848 60.8445 93.5364 60.6442Z" fill="white"/>
<path opacity="0.3" d="M95.5469 62.8993L81.6085 70.9459C79.9783 71.8871 77.3188 71.8871 75.6887 70.9459L61.7503 62.8993C61.0213 62.4787 60.6168 61.938 60.5407 61.3853C60.4446 62.0662 60.8491 62.7711 61.7503 63.2918L75.6887 71.3384C77.3188 72.2796 79.9783 72.2796 81.6085 71.3384L95.5469 63.2918C96.4481 62.7711 96.8526 62.0702 96.7565 61.3853C96.6804 61.942 96.2759 62.4787 95.5469 62.8993Z" fill="white"/>
</g>
<g opacity="0.3">
<path opacity="0.3" d="M76.0813 70.7215L62.1429 62.6749C60.7291 61.8578 60.7291 60.528 62.1429 59.7109L76.0813 51.6643C77.4952 50.8472 79.7982 50.8472 81.2121 51.6643L95.1505 59.7109C96.5643 60.528 96.5643 61.8578 95.1505 62.6749L81.2121 70.7215C79.8022 71.5386 77.4992 71.5386 76.0813 70.7215ZM79.9905 52.3693C79.2495 51.9407 78.0479 51.9407 77.3069 52.3693L63.3685 60.4159C62.6276 60.8444 62.6276 61.5374 63.3685 61.9659L77.3069 70.0125C78.0479 70.4411 79.2495 70.4411 79.9905 70.0125L93.9289 61.9659C94.6698 61.5374 94.6698 60.8444 93.9289 60.4159L79.9905 52.3693Z" fill="url(#paint31_linear_384_12618)"/>
</g>
</g>
<path opacity="0.4" d="M79.5979 52.5976C79.0772 52.2972 78.2241 52.2972 77.7034 52.5976L63.765 60.6442C63.2443 60.9446 63.2443 61.4373 63.765 61.7377L77.7034 69.7843C78.2241 70.0847 79.0772 70.0847 79.5979 69.7843L93.5363 61.7377C94.057 61.4373 94.057 60.9446 93.5363 60.6442L79.5979 52.5976Z" fill="#42E8E0"/>
</g>
</g>
</g>
</g>
</g>
<path opacity="0.8" d="M87.124 84.796C86.7515 84.796 86.363 84.7038 86.0506 84.5236L37.4825 56.4826C37.1661 56.2983 36.9858 56.05 36.9858 55.7977C36.9858 55.5814 37.118 55.3851 37.3543 55.249L66.3366 38.5149C66.8372 38.2265 67.6743 38.2585 68.2471 38.591L116.815 66.632C117.132 66.8162 117.312 67.0646 117.312 67.3169C117.312 67.5332 117.18 67.7294 116.943 67.8656L87.9611 84.5997C87.7368 84.7319 87.4364 84.796 87.124 84.796ZM37.5987 56.2823L86.1668 84.3233C86.6674 84.6117 87.4204 84.6438 87.849 84.3994L116.831 67.6653C116.947 67.5973 117.084 67.4851 117.084 67.3129C117.084 67.1447 116.943 66.9644 116.699 66.8242L68.135 38.7872C67.6343 38.4989 66.8813 38.4668 66.4527 38.7111L37.4705 55.4452C37.3543 55.5133 37.2181 55.6255 37.2181 55.7977C37.2181 55.9659 37.3543 56.1421 37.5987 56.2823Z" fill="url(#paint32_linear_384_12618)"/>
<path d="M37.5426 57.1996L86.1107 85.2406C86.6434 85.549 87.4484 85.5811 87.905 85.3167L116.887 68.5827C117.047 68.4905 117.144 68.3704 117.18 68.2422C117.232 68.4465 117.14 68.6547 116.887 68.7989L87.905 85.533C87.4444 85.7974 86.6394 85.7653 86.1107 85.4569L37.5426 57.4159C37.1981 57.2157 37.0579 56.9513 37.122 56.719C37.1621 56.8872 37.3022 57.0594 37.5426 57.1996Z" fill="white"/>
<g opacity="0.15">
<g opacity="0.15">
<g opacity="0.15">
<path opacity="0.15" d="M67.9106 39.3559L70.5902 40.7537L97.4416 25.2493C97.8902 24.9889 98.6752 25.021 99.1959 25.3214L145.505 52.0607C145.95 51.8123 147.968 50.8391 147.968 50.8391L146.987 52.4332L146.983 52.4291C146.943 52.5413 146.855 52.6494 146.711 52.7335L118.429 69.0591C117.981 69.3194 117.196 69.2874 116.675 68.987L69.2845 41.6269C69.0722 41.5027 68.94 41.3545 68.8879 41.2023L68.8839 41.2063L67.9106 39.3559Z" fill="url(#paint33_linear_384_12618)"/>
<path opacity="0.15" d="M68.3273 39.7965L116.895 67.8375C117.428 68.1459 118.233 68.178 118.69 67.9136L147.672 51.1796C148.133 50.9152 148.077 50.4506 147.544 50.1422L98.9758 22.1012C98.4431 21.7928 97.638 21.7607 97.1814 22.0251L68.1951 38.7592C67.7345 39.0275 67.7946 39.4881 68.3273 39.7965Z" fill="url(#paint34_linear_384_12618)"/>
<path opacity="0.15" d="M68.3273 39.7965L116.895 67.8375C117.428 68.1459 118.233 68.178 118.69 67.9136L147.672 51.1796C148.133 50.9152 148.077 50.4506 147.544 50.1422L98.9758 22.1012C98.4431 21.7928 97.638 21.7607 97.1814 22.0251L68.1951 38.7592C67.7345 39.0275 67.7946 39.4881 68.3273 39.7965Z" fill="#24126A"/>
<path opacity="0.51" d="M68.3273 39.7965L116.895 67.8375C117.428 68.1459 118.233 68.178 118.69 67.9136L147.672 51.1796C148.133 50.9152 148.077 50.4506 147.544 50.1422L98.9758 22.1012C98.4431 21.7928 97.638 21.7607 97.1814 22.0251L68.1951 38.7592C67.7345 39.0275 67.7946 39.4881 68.3273 39.7965Z" fill="#453C9E"/>
<path opacity="0.15" d="M147.544 50.1421L98.976 22.1011C98.6356 21.9048 98.1789 21.8207 97.7744 21.8568C98.0748 21.8808 98.3752 21.9609 98.6155 22.1011L147.184 50.1421C147.716 50.4505 147.772 50.9151 147.312 51.1795L118.33 67.9136C118.165 68.0097 117.957 68.0617 117.733 68.0818C118.085 68.1098 118.438 68.0577 118.686 67.9136L147.668 51.1795C148.137 50.9151 148.077 50.4505 147.544 50.1421Z" fill="white"/>
</g>
</g>
<path opacity="0.4" d="M104.118 55.6734L90.18 47.6268C88.7662 46.8097 88.7662 45.4799 90.18 44.6628L104.118 36.6162C105.532 35.7991 107.835 35.7991 109.249 36.6162L123.188 44.6628C124.601 45.4799 124.601 46.8097 123.188 47.6268L109.249 55.6734C107.839 56.4904 105.536 56.4904 104.118 55.6734Z" fill="#24126A"/>
<g opacity="0.15">
<g opacity="0.15">
<g opacity="0.15">
<g opacity="0.15">
<path opacity="0.15" d="M124.778 43.8739V40.7137L123.904 40.2291C123.656 41.7191 121.902 42.7004 120.436 42.9046L110.447 48.7443L106.089 50.3184L92.1746 43.1369L92.495 42.9527C91.3054 42.396 90.6646 41.1263 90.0238 39.9688L89.0865 40.5255L88.5298 40.6817V43.922C88.5298 44.5428 88.9383 45.1596 89.7554 45.6322L103.694 53.6788C105.324 54.6201 107.983 54.6201 109.614 53.6788L123.552 45.6322C124.353 45.1676 124.762 44.5628 124.778 43.954C124.778 43.93 124.778 43.9019 124.778 43.8739Z" fill="url(#paint35_linear_384_12618)"/>
<path opacity="0.3" d="M120.436 42.9087L110.447 48.7484L106.654 50.1182V54.3878C107.727 54.3878 108.797 54.1515 109.614 53.6829L123.552 45.6363C124.353 45.1717 124.762 44.5669 124.778 43.9581C124.778 43.93 124.778 43.902 124.778 43.878H124.782V40.7178L123.985 40.2732H123.901C123.624 41.7391 121.89 42.7044 120.436 42.9087Z" fill="#0F054C"/>
<path opacity="0.15" d="M92.4952 42.9568L105.705 35.3307C106.225 35.0303 107.078 35.0303 107.599 35.3307L120.576 42.8246L120.432 42.9087C121.898 42.7045 123.652 41.7232 123.901 40.2332L109.333 32.1305L105.096 31.009L101.643 33.0357L90.0239 39.9729C90.6688 41.1304 91.3096 42.4041 92.4952 42.9568Z" fill="url(#paint36_linear_384_12618)"/>
<path opacity="0.3" d="M106.654 31.4216L105.1 31.009L101.647 33.0357L90.0239 39.9729C90.6688 41.1304 91.3096 42.4041 92.4952 42.9568L105.705 35.3307C105.965 35.1785 106.309 35.1064 106.654 35.1064V31.4216Z" fill="#0F054C"/>
<g opacity="0.15">
<path opacity="0.15" d="M103.694 50.4747L89.7554 42.4281C88.1212 41.4869 88.1212 39.9528 89.7554 39.0116L103.694 30.965C105.324 30.0237 107.983 30.0237 109.614 30.965L123.552 39.0116C125.182 39.9528 125.186 41.4869 123.552 42.4281L109.614 50.4747C107.983 51.416 105.328 51.416 103.694 50.4747ZM107.603 32.1225C107.082 31.8221 106.229 31.8221 105.708 32.1225L91.7701 40.1691C91.2494 40.4695 91.2494 40.9622 91.7701 41.2626L105.708 49.3092C106.229 49.6096 107.082 49.6096 107.603 49.3092L121.541 41.2626C122.062 40.9622 122.062 40.4695 121.541 40.1691L107.603 32.1225Z" fill="#5351AF"/>
</g>
<g opacity="0.15">
<path opacity="0.15" d="M121.542 40.1691L107.603 32.1225C107.083 31.8221 106.23 31.8221 105.709 32.1225L91.7704 40.1691C91.422 40.3694 91.3058 40.6538 91.422 40.9141C91.4821 40.7859 91.5942 40.6658 91.7704 40.5657L105.709 32.519C106.23 32.2186 107.083 32.2186 107.603 32.519L121.542 40.5657C121.714 40.6658 121.83 40.7859 121.89 40.9141C122.006 40.6578 121.89 40.3734 121.542 40.1691Z" fill="white"/>
<path opacity="0.15" d="M123.556 42.4281L109.618 50.4747C107.988 51.4159 105.328 51.4159 103.698 50.4747L89.7596 42.4281C89.0306 42.0075 88.6261 41.4668 88.55 40.9141C88.4539 41.595 88.8584 42.2999 89.7596 42.8206L103.698 50.8672C105.328 51.8084 107.988 51.8084 109.618 50.8672L123.556 42.8206C124.457 42.2999 124.862 41.599 124.766 40.9141C124.686 41.4668 124.285 42.0035 123.556 42.4281Z" fill="white"/>
</g>
<g opacity="0.15">
<path opacity="0.15" d="M104.09 50.2464L90.1517 42.1998C88.7378 41.3827 88.7378 40.0529 90.1517 39.2358L104.09 31.1892C105.504 30.3721 107.807 30.3721 109.221 31.1892L123.159 39.2358C124.573 40.0529 124.573 41.3827 123.159 42.1998L109.221 50.2464C107.807 51.0635 105.504 51.0635 104.09 50.2464ZM107.995 31.8942C107.254 31.4656 106.053 31.4656 105.312 31.8942L91.3733 39.9408C90.6323 40.3693 90.6323 41.0623 91.3733 41.4908L105.312 49.5374C106.053 49.966 107.254 49.966 107.995 49.5374L121.934 41.4908C122.675 41.0623 122.675 40.3693 121.934 39.9408L107.995 31.8942Z" fill="url(#paint37_linear_384_12618)"/>
</g>
</g>
<path opacity="0.4" d="M107.603 32.1225C107.082 31.8221 106.229 31.8221 105.708 32.1225L91.7699 40.1691C91.2492 40.4695 91.2492 40.9622 91.7699 41.2626L105.708 49.3092C106.229 49.6096 107.082 49.6096 107.603 49.3092L121.541 41.2626C122.062 40.9622 122.062 40.4695 121.541 40.1691L107.603 32.1225Z" fill="#42E8E0"/>
</g>
<g opacity="0.15">
<path opacity="0.4" d="M124.778 41.0623V36.288L123.904 35.8033C123.656 37.2933 121.902 38.2746 120.436 38.4788L110.447 44.3186L106.089 45.8926L92.1746 38.7112L92.495 38.5269C91.3054 37.9702 90.6646 36.7005 90.0238 35.543L89.0865 36.0997L88.5298 36.2559V41.1103C88.5298 41.7311 88.9383 42.3479 89.7554 42.8206L103.694 50.8672C105.324 51.8084 107.983 51.8084 109.614 50.8672L123.552 42.8206C124.353 42.356 124.762 41.7512 124.778 41.1424C124.778 41.1143 124.778 41.0863 124.778 41.0623Z" fill="#42E8E0"/>
<g opacity="0.15">
<g opacity="0.15">
<path opacity="0.15" d="M124.778 36.8165V33.6564L123.904 33.1717C123.656 34.6617 121.902 35.643 120.436 35.8473L110.447 41.687L106.089 43.261L92.1746 36.0796L92.495 35.8953C91.3054 35.3386 90.6646 34.0689 90.0238 32.9114L89.0865 33.4681L88.5298 33.6283V36.8686C88.5298 37.4894 88.9383 38.1062 89.7554 38.5789L103.694 46.6255C105.324 47.5667 107.983 47.5667 109.614 46.6255L123.552 38.5789C124.353 38.1142 124.762 37.5094 124.778 36.9006C124.778 36.8726 124.778 36.8446 124.778 36.8165Z" fill="url(#paint38_linear_384_12618)"/>
<path opacity="0.3" d="M120.436 35.8513L110.447 41.691L106.654 43.0608V47.3304C107.727 47.3304 108.797 47.0941 109.614 46.6255L123.552 38.5789C124.353 38.1143 124.762 37.5095 124.778 36.9007C124.778 36.8726 124.778 36.8446 124.778 36.8206H124.782V33.6604L123.985 33.2158H123.901C123.624 34.6818 121.89 35.647 120.436 35.8513Z" fill="#0F054C"/>
<path opacity="0.15" d="M92.4952 35.8994L105.705 28.2734C106.225 27.973 107.078 27.973 107.599 28.2734L120.576 35.7673L120.432 35.8514C121.898 35.6471 123.652 34.6658 123.901 33.1758L109.333 25.0731L105.096 23.9517L101.643 25.9783L90.0239 32.9155C90.6688 34.073 91.3096 35.3427 92.4952 35.8994Z" fill="url(#paint39_linear_384_12618)"/>
<path opacity="0.3" d="M106.654 24.3642L105.1 23.9517L101.647 25.9783L90.0239 32.9155C90.6688 34.073 91.3096 35.3467 92.4952 35.8994L105.705 28.2734C105.965 28.1212 106.309 28.0491 106.654 28.0491V24.3642Z" fill="#0F054C"/>
<g opacity="0.15">
<path opacity="0.15" d="M103.694 43.4173L89.7554 35.3707C88.1212 34.4295 88.1212 32.8955 89.7554 31.9542L103.694 23.9076C105.324 22.9663 107.983 22.9663 109.614 23.9076L123.552 31.9542C125.182 32.8955 125.186 34.4295 123.552 35.3707L109.614 43.4173C107.983 44.3586 105.328 44.3586 103.694 43.4173ZM107.603 25.0651C107.082 24.7647 106.229 24.7647 105.708 25.0651L91.7701 33.1117C91.2494 33.4121 91.2494 33.9048 91.7701 34.2052L105.708 42.2518C106.229 42.5522 107.082 42.5522 107.603 42.2518L121.541 34.2052C122.062 33.9048 122.062 33.4121 121.541 33.1117L107.603 25.0651Z" fill="#5351AF"/>
</g>
<g opacity="0.15">
<path opacity="0.15" d="M121.542 33.1118L107.603 25.0651C107.083 24.7647 106.23 24.7647 105.709 25.0651L91.7704 33.1118C91.422 33.312 91.3058 33.5964 91.422 33.8567C91.4821 33.7286 91.5942 33.6084 91.7704 33.5083L105.709 25.4617C106.23 25.1613 107.083 25.1613 107.603 25.4617L121.542 33.5083C121.714 33.6084 121.83 33.7286 121.89 33.8567C122.006 33.6004 121.89 33.312 121.542 33.1118Z" fill="white"/>
<path opacity="0.15" d="M123.556 35.3668L109.618 43.4134C107.988 44.3546 105.328 44.3546 103.698 43.4134L89.7596 35.3668C89.0306 34.9462 88.6261 34.4055 88.55 33.8528C88.4539 34.5337 88.8584 35.2386 89.7596 35.7593L103.698 43.8059C105.328 44.7472 107.988 44.7472 109.618 43.8059L123.556 35.7593C124.457 35.2386 124.862 34.5377 124.766 33.8528C124.686 34.4095 124.285 34.9462 123.556 35.3668Z" fill="white"/>
</g>
<g opacity="0.15">
<path opacity="0.15" d="M104.09 43.189L90.1517 35.1424C88.7378 34.3253 88.7378 32.9955 90.1517 32.1785L104.09 24.1319C105.504 23.3148 107.807 23.3148 109.221 24.1319L123.159 32.1785C124.573 32.9955 124.573 34.3253 123.159 35.1424L109.221 43.189C107.807 44.0061 105.504 44.0061 104.09 43.189ZM107.995 24.8368C107.254 24.4082 106.053 24.4082 105.312 24.8368L91.3733 32.8834C90.6323 33.312 90.6323 34.0049 91.3733 34.4334L105.312 42.4801C106.053 42.9086 107.254 42.9086 107.995 42.4801L121.934 34.4334C122.675 34.0049 122.675 33.312 121.934 32.8834L107.995 24.8368Z" fill="url(#paint40_linear_384_12618)"/>
</g>
</g>
<path opacity="0.4" d="M107.603 25.0651C107.082 24.7647 106.229 24.7647 105.708 25.0651L91.7699 33.1118C91.2492 33.4122 91.2492 33.9048 91.7699 34.2052L105.708 42.2518C106.229 42.5522 107.082 42.5522 107.603 42.2518L121.541 34.2052C122.062 33.9048 122.062 33.4122 121.541 33.1118L107.603 25.0651Z" fill="#42E8E0"/>
</g>
</g>
<g opacity="0.15">
<path opacity="0.4" d="M124.778 34.0009V29.2266L123.904 28.7419C123.656 30.2319 121.902 31.2132 120.436 31.4175L110.447 37.2572L106.089 38.8353L92.1746 31.6538L92.495 31.4695C91.3054 30.9128 90.6646 29.6431 90.0238 28.4856L89.0865 29.0423L88.5298 29.1985V34.0529C88.5298 34.6738 88.9383 35.2906 89.7554 35.7632L103.694 43.8098C105.324 44.7511 107.983 44.7511 109.614 43.8098L123.552 35.7632C124.353 35.2986 124.762 34.6938 124.778 34.085C124.778 34.0569 124.778 34.0289 124.778 34.0009Z" fill="#42E8E0"/>
<g opacity="0.15">
<g opacity="0.15">
<path opacity="0.15" d="M124.778 29.7594V26.5992L123.904 26.1146C123.656 27.6046 121.902 28.5859 120.436 28.7901L110.447 34.6298L106.089 36.2039L92.1746 29.0224L92.495 28.8382C91.3054 28.2815 90.6646 27.0118 90.0238 25.8542L89.0865 26.411L88.5298 26.5672V29.8075C88.5298 30.4283 88.9383 31.0451 89.7554 31.5177L103.694 39.5643C105.324 40.5056 107.983 40.5056 109.614 39.5643L123.552 31.5177C124.353 31.0531 124.762 30.4483 124.778 29.8395C124.778 29.8115 124.778 29.7874 124.778 29.7594Z" fill="url(#paint41_linear_384_12618)"/>
<path opacity="0.3" d="M120.436 28.79L110.447 34.6297L106.654 35.9995V40.2692C107.727 40.2692 108.797 40.0329 109.614 39.5642L123.552 31.5176C124.353 31.053 124.762 30.4482 124.778 29.8394C124.778 29.8114 124.778 29.7833 124.778 29.7593H124.782V26.5991L123.985 26.1545H123.901C123.624 27.6245 121.89 28.5898 120.436 28.79Z" fill="#0F054C"/>
<path opacity="0.15" d="M92.4952 28.8421L105.705 21.216C106.225 20.9156 107.078 20.9156 107.599 21.216L120.576 28.7099L120.432 28.794C121.898 28.5897 123.652 27.6084 123.901 26.1185L109.333 18.0158L105.096 16.8943L101.643 18.921L90.0239 25.8541C90.6688 27.0156 91.3096 28.2853 92.4952 28.8421Z" fill="url(#paint42_linear_384_12618)"/>
<path opacity="0.3" d="M106.654 17.3029L105.1 16.8904L101.647 18.9171L90.0239 25.8542C90.6688 27.0117 91.3096 28.2854 92.4952 28.8381L105.705 21.2121C105.965 21.0599 106.309 20.9878 106.654 20.9878V17.3029Z" fill="#0F054C"/>
<g opacity="0.15">
<path opacity="0.15" d="M103.694 36.3561L89.7554 28.3094C88.1212 27.3682 88.1212 25.8342 89.7554 24.8929L103.694 16.8463C105.324 15.9051 107.983 15.9051 109.614 16.8463L123.552 24.8929C125.182 25.8342 125.186 27.3682 123.552 28.3094L109.614 36.3561C107.983 37.3013 105.328 37.3013 103.694 36.3561ZM107.603 18.0038C107.082 17.7034 106.229 17.7034 105.708 18.0038L91.7701 26.0505C91.2494 26.3509 91.2494 26.8435 91.7701 27.1439L105.708 35.1905C106.229 35.4909 107.082 35.4909 107.603 35.1905L121.541 27.1439C122.062 26.8435 122.062 26.3509 121.541 26.0505L107.603 18.0038Z" fill="#5351AF"/>
</g>
<g opacity="0.15">
<path opacity="0.15" d="M121.542 26.0544L107.603 18.0078C107.083 17.7074 106.23 17.7074 105.709 18.0078L91.7704 26.0544C91.422 26.2547 91.3058 26.539 91.422 26.7994C91.4821 26.6712 91.5942 26.551 91.7704 26.4509L105.709 18.4043C106.23 18.1039 107.083 18.1039 107.603 18.4043L121.542 26.4509C121.714 26.551 121.83 26.6712 121.89 26.7994C122.006 26.539 121.89 26.2547 121.542 26.0544Z" fill="white"/>
<path opacity="0.15" d="M123.556 28.3094L109.618 36.356C107.988 37.2973 105.328 37.2973 103.698 36.356L89.7596 28.3094C89.0306 27.8889 88.6261 27.3481 88.55 26.7954C88.4539 27.4763 88.8584 28.1812 89.7596 28.7019L103.698 36.7485C105.328 37.6898 107.988 37.6898 109.618 36.7485L123.556 28.7019C124.457 28.1812 124.862 27.4803 124.766 26.7954C124.686 27.3481 124.285 27.8889 123.556 28.3094Z" fill="white"/>
</g>
<g opacity="0.15">
<path opacity="0.15" d="M104.09 36.1319L90.1517 28.0853C88.7378 27.2682 88.7378 25.9384 90.1517 25.1213L104.09 17.0747C105.504 16.2576 107.807 16.2576 109.221 17.0747L123.159 25.1213C124.573 25.9384 124.573 27.2682 123.159 28.0853L109.221 36.1319C107.807 36.949 105.504 36.949 104.09 36.1319ZM107.995 17.7797C107.254 17.3511 106.053 17.3511 105.312 17.7797L91.3733 25.8263C90.6323 26.2548 90.6323 26.9478 91.3733 27.3763L105.312 35.4229C106.053 35.8515 107.254 35.8515 107.995 35.4229L121.934 27.3763C122.675 26.9478 122.675 26.2548 121.934 25.8263L107.995 17.7797Z" fill="url(#paint43_linear_384_12618)"/>
</g>
</g>
<path opacity="0.4" d="M107.603 18.0039C107.082 17.7035 106.229 17.7035 105.708 18.0039L91.7699 26.0505C91.2492 26.3509 91.2492 26.8435 91.7699 27.1439L105.708 35.1905C106.229 35.4909 107.082 35.4909 107.603 35.1905L121.541 27.1439C122.062 26.8435 122.062 26.3509 121.541 26.0505L107.603 18.0039Z" fill="#42E8E0"/>
</g>
</g>
<g opacity="0.15">
<path opacity="0.4" d="M124.778 26.9436V22.1693L123.904 21.6847C123.656 23.1746 121.902 24.1559 120.436 24.3602L110.447 30.1999L106.089 31.774L92.1746 24.5925L92.495 24.4083C91.3054 23.8515 90.6646 22.5818 90.0238 21.4243L89.0865 21.9811L88.5298 22.1373V26.9917C88.5298 27.6125 88.9383 28.2293 89.7554 28.7019L103.694 36.7485C105.324 37.6898 107.983 37.6898 109.614 36.7485L123.552 28.7019C124.353 28.2373 124.762 27.6325 124.778 27.0237C124.778 26.9957 124.778 26.9716 124.778 26.9436Z" fill="#42E8E0"/>
<g opacity="0.15">
<g opacity="0.15">
<path opacity="0.15" d="M124.778 22.702V19.5419L123.904 19.0572C123.656 20.5472 121.902 21.5285 120.436 21.7327L110.447 27.5725L106.089 29.1465L92.1746 21.9651L92.495 21.7808C91.3054 21.2241 90.6646 19.9544 90.0238 18.7969L89.0865 19.3536L88.5298 19.5098V22.7501C88.5298 23.3669 88.9383 23.9877 89.7554 24.4603L103.694 32.507C105.324 33.4482 107.983 33.4482 109.614 32.507L123.552 24.4603C124.353 23.9957 124.762 23.3909 124.778 22.7821C124.778 22.7541 124.778 22.7261 124.778 22.702Z" fill="url(#paint44_linear_384_12618)"/>
<path opacity="0.3" d="M120.436 21.7326L110.447 27.5724L106.654 28.9422V33.2118C107.727 33.2118 108.797 32.9755 109.614 32.5069L123.552 24.4602C124.353 23.9956 124.762 23.3908 124.778 22.782C124.778 22.754 124.778 22.726 124.778 22.7019H124.782V19.5418L123.985 19.0972H123.901C123.624 20.5671 121.89 21.5324 120.436 21.7326Z" fill="#0F054C"/>
<path opacity="0.15" d="M92.4952 21.7808L105.705 14.1547C106.225 13.8543 107.078 13.8543 107.599 14.1547L120.576 21.6486L120.432 21.7327C121.898 21.5284 123.652 20.5471 123.901 19.0572L109.333 10.9545L105.096 9.83301L101.643 11.8597L90.0239 18.7968C90.6688 19.9584 91.3096 21.228 92.4952 21.7808Z" fill="url(#paint45_linear_384_12618)"/>
<path opacity="0.3" d="M106.654 10.2456L105.1 9.83301L101.647 11.8597L90.0239 18.7968C90.6688 19.9544 91.3096 21.228 92.4952 21.7808L105.705 14.1547C105.965 14.0025 106.309 13.9264 106.654 13.9304V10.2456Z" fill="#0F054C"/>
<g opacity="0.15">
<path opacity="0.15" d="M103.694 29.2987L89.7554 21.2521C88.1212 20.3108 88.1212 18.7768 89.7554 17.8356L103.694 9.78894C105.324 8.8477 107.983 8.8477 109.614 9.78894L123.552 17.8356C125.182 18.7768 125.186 20.3108 123.552 21.2521L109.614 29.2987C107.983 30.2439 105.328 30.2439 103.694 29.2987ZM107.603 10.9465C107.082 10.6461 106.229 10.6461 105.708 10.9465L91.7701 18.9931C91.2494 19.2935 91.2494 19.7861 91.7701 20.0865L105.708 28.1331C106.229 28.4335 107.082 28.4335 107.603 28.1331L121.541 20.0865C122.062 19.7861 122.062 19.2935 121.541 18.9931L107.603 10.9465Z" fill="url(#paint46_linear_384_12618)"/>
</g>
<g opacity="0.15">
<path opacity="0.15" d="M121.542 18.997L107.603 10.9504C107.083 10.65 106.23 10.65 105.709 10.9504L91.7704 18.997C91.422 19.1973 91.3058 19.4817 91.422 19.742C91.4821 19.6138 91.5942 19.4937 91.7704 19.3895L105.709 11.3429C106.23 11.0425 107.083 11.0425 107.603 11.3429L121.542 19.3895C121.714 19.4897 121.83 19.6098 121.89 19.742C122.006 19.4817 121.89 19.1973 121.542 18.997Z" fill="white"/>
<path opacity="0.15" d="M123.556 21.252L109.618 29.2987C107.988 30.2399 105.328 30.2399 103.698 29.2987L89.7596 21.252C89.0306 20.8315 88.6261 20.2908 88.55 19.738C88.4539 20.4189 88.8584 21.1239 89.7596 21.6446L103.698 29.6912C105.328 30.6324 107.988 30.6324 109.618 29.6912L123.556 21.6446C124.457 21.1239 124.862 20.4229 124.766 19.738C124.686 20.2908 124.285 20.8315 123.556 21.252Z" fill="white"/>
</g>
<g opacity="0.15">
<path opacity="0.15" d="M104.09 29.0703L90.1517 21.0237C88.7378 20.2067 88.7378 18.8769 90.1517 18.0598L104.09 10.0132C105.504 9.19612 107.807 9.19612 109.221 10.0132L123.159 18.0598C124.573 18.8769 124.573 20.2067 123.159 21.0237L109.221 29.0703C107.807 29.8874 105.504 29.8874 104.09 29.0703ZM107.995 10.7221C107.254 10.2936 106.053 10.2936 105.312 10.7221L91.3733 18.7688C90.6323 19.1973 90.6323 19.8902 91.3733 20.3188L105.312 28.3654C106.053 28.794 107.254 28.794 107.995 28.3654L121.934 20.3188C122.675 19.8902 122.675 19.1973 121.934 18.7688L107.995 10.7221Z" fill="url(#paint47_linear_384_12618)"/>
</g>
</g>
<path opacity="0.4" d="M107.603 10.9465C107.082 10.6461 106.229 10.6461 105.708 10.9465L91.7699 18.9931C91.2492 19.2935 91.2492 19.7862 91.7699 20.0865L105.708 28.1332C106.229 28.4336 107.082 28.4336 107.603 28.1332L121.541 20.0865C122.062 19.7862 122.062 19.2935 121.541 18.9931L107.603 10.9465Z" fill="#42E8E0"/>
</g>
</g>
</g>
</g>
</g>
<path d="M115.101 32.2506C114.985 32.2506 114.861 32.2145 114.741 32.1464C114.376 31.9382 114.152 31.4615 114.236 31.085C114.276 30.9048 114.384 30.7686 114.536 30.7005C114.705 30.6284 114.913 30.6484 115.109 30.7606C115.474 30.9689 115.698 31.4455 115.614 31.822C115.574 32.0022 115.466 32.1384 115.313 32.2065C115.249 32.2386 115.177 32.2506 115.101 32.2506ZM114.753 30.8247C114.701 30.8247 114.652 30.8327 114.604 30.8527C114.5 30.8968 114.428 30.9929 114.396 31.1211C114.324 31.4295 114.516 31.826 114.821 32.0022C114.969 32.0864 115.121 32.1064 115.245 32.0543C115.349 32.0102 115.421 31.9141 115.454 31.786C115.526 31.4775 115.333 31.081 115.029 30.9048C114.937 30.8527 114.841 30.8247 114.753 30.8247Z" fill="#42E8E0"/>
<path d="M117.063 33.3841C116.947 33.3841 116.823 33.3481 116.703 33.28C116.339 33.0717 116.114 32.5951 116.198 32.2186C116.238 32.0383 116.347 31.9022 116.499 31.8341C116.667 31.762 116.875 31.782 117.071 31.8941C117.436 32.1024 117.66 32.5791 117.576 32.9555C117.536 33.1358 117.428 33.272 117.276 33.3401C117.212 33.3721 117.14 33.3841 117.063 33.3841ZM116.715 31.9582C116.663 31.9582 116.615 31.9662 116.567 31.9863C116.463 32.0303 116.391 32.1265 116.359 32.2546C116.286 32.563 116.479 32.9596 116.783 33.1358C116.931 33.2199 117.083 33.2399 117.208 33.1879C117.312 33.1438 117.384 33.0477 117.416 32.9195C117.488 32.6111 117.296 32.2146 116.991 32.0383C116.899 31.9863 116.803 31.9582 116.715 31.9582Z" fill="#42E8E0"/>
<path d="M119.463 34.0729C119.383 34.4174 119.046 34.5375 118.71 34.3413C118.373 34.149 118.165 33.7124 118.245 33.368C118.325 33.0235 118.662 32.9034 118.998 33.0996C119.335 33.2959 119.543 33.7325 119.463 34.0729Z" fill="#42E8E0"/>
<path d="M81.817 12.4125L80.7676 11.8037L80.8477 11.3191L81.9011 11.9239L81.817 12.4125Z" fill="#42E8E0"/>
<path d="M83.3428 13.2936L82.2935 12.6848L82.3776 12.2002L83.427 12.805L83.3428 13.2936Z" fill="#42E8E0"/>
<path d="M80.307 11.5392L78.0039 10.2095L78.088 9.72485L80.3871 11.0546L80.307 11.5392Z" fill="#42E8E0"/>
<path opacity="0.8" d="M75.9973 71.2342L61.5823 62.9112C60.1204 62.0661 60.1204 60.6923 61.5823 59.8472L75.9973 51.5242C77.4592 50.6791 79.8424 50.6791 81.3043 51.5242L95.7193 59.8472C97.1813 60.6923 97.1813 62.0661 95.7193 62.9112L81.3043 71.2342C79.8384 72.0793 77.4592 72.0793 75.9973 71.2342Z" fill="#24126A"/>
<path d="M96.7728 59.4425V56.2823L95.8996 55.7977C95.6513 57.2877 93.897 58.269 92.431 58.4732L82.4418 64.3129L78.0841 65.887L64.1697 58.7055L64.4901 58.5213C63.3006 57.9646 62.6597 56.6949 62.0189 55.5374L61.0816 56.0941L60.5249 56.2503V59.4906C60.5249 60.1114 60.9334 60.7282 61.7505 61.2008L75.6889 69.2474C77.3191 70.1887 79.9786 70.1887 81.6087 69.2474L95.5471 61.2008C96.3482 60.7362 96.7567 60.1314 96.7728 59.5226C96.7728 59.4946 96.7728 59.4705 96.7728 59.4425Z" fill="url(#paint48_linear_384_12618)"/>
<path opacity="0.3" d="M92.4311 58.4773L82.4419 64.317L78.6489 65.6868V69.9564C79.7223 69.9564 80.7918 69.7201 81.6088 69.2515L95.5472 61.2049C96.3483 60.7403 96.7568 60.1355 96.7729 59.5267C96.7729 59.4986 96.7729 59.4706 96.7729 59.4466V56.2864L95.9758 55.8418H95.8917C95.6193 57.3077 93.885 58.273 92.4311 58.4773Z" fill="#0F054C"/>
<path d="M64.49 58.5254L77.6994 50.8993C78.2201 50.5989 79.0733 50.5989 79.5939 50.8993L92.5711 58.3932L92.4269 58.4773C93.8928 58.2731 95.6471 57.2918 95.8955 55.8018L81.3282 47.6991L77.0906 46.5776L73.6381 48.6043L62.0107 55.5375C62.6636 56.699 63.3004 57.9687 64.49 58.5254Z" fill="url(#paint49_linear_384_12618)"/>
<path opacity="0.3" d="M78.6486 46.9863L77.0946 46.5737L73.642 48.6004L62.0146 55.5336C62.6595 56.6911 63.3003 57.9648 64.4859 58.5175L77.6953 50.8914C77.9557 50.7392 78.3001 50.6631 78.6446 50.6671V46.9863H78.6486Z" fill="#0F054C"/>
<path d="M75.6889 66.0433L61.7505 57.9967C60.1164 57.0555 60.1164 55.5214 61.7505 54.5802L75.6889 46.5336C77.3191 45.5923 79.9786 45.5923 81.6087 46.5336L95.5471 54.5802C97.1773 55.5214 97.1773 57.0555 95.5471 57.9967L81.6087 66.0433C79.9786 66.9846 77.3231 66.9846 75.6889 66.0433ZM79.5981 47.6911C79.0774 47.3907 78.2243 47.3907 77.7036 47.6911L63.7652 55.7377C63.2445 56.0381 63.2445 56.5308 63.7652 56.8312L77.7036 64.8778C78.2243 65.1782 79.0774 65.1782 79.5981 64.8778L93.5365 56.8312C94.0571 56.5308 94.0571 56.0381 93.5365 55.7377L79.5981 47.6911Z" fill="#5351AF"/>
<path d="M93.5364 55.7377L79.598 47.6911C79.0773 47.3907 78.2241 47.3907 77.7035 47.6911L63.7651 55.7377C63.4166 55.938 63.3005 56.2224 63.4166 56.4827C63.4767 56.3545 63.5888 56.2344 63.7651 56.1302L77.7035 48.0836C78.2241 47.7832 79.0773 47.7832 79.598 48.0836L93.5364 56.1302C93.7086 56.2304 93.8247 56.3505 93.8848 56.4787C94.001 56.2224 93.8848 55.938 93.5364 55.7377Z" fill="white"/>
<path d="M95.5469 57.9928L81.6085 66.0394C79.9783 66.9806 77.3188 66.9806 75.6887 66.0394L61.7503 57.9928C61.0213 57.5722 60.6168 57.0315 60.5407 56.4788C60.4446 57.1597 60.8491 57.8646 61.7503 58.3853L75.6887 66.4319C77.3188 67.3731 79.9783 67.3731 81.6085 66.4319L95.5469 58.3853C96.4481 57.8646 96.8526 57.1637 96.7565 56.4788C96.6804 57.0315 96.2759 57.5722 95.5469 57.9928Z" fill="white"/>
<path d="M76.0813 65.815L62.1429 57.7684C60.7291 56.9513 60.7291 55.6215 62.1429 54.8044L76.0813 46.7578C77.4952 45.9408 79.7982 45.9408 81.2121 46.7578L95.1505 54.8044C96.5643 55.6215 96.5643 56.9513 95.1505 57.7684L81.2121 65.815C79.8022 66.632 77.4992 66.632 76.0813 65.815ZM79.9905 47.4628C79.2495 47.0342 78.0479 47.0342 77.3069 47.4628L63.3685 55.5094C62.6276 55.9379 62.6276 56.6309 63.3685 57.0594L77.3069 65.106C78.0479 65.5346 79.2495 65.5346 79.9905 65.106L93.9289 57.0594C94.6698 56.6309 94.6698 55.9379 93.9289 55.5094L79.9905 47.4628Z" fill="url(#paint50_linear_384_12618)"/>
<path opacity="0.4" d="M79.5979 47.6911C79.0772 47.3907 78.2241 47.3907 77.7034 47.6911L63.765 55.7377C63.2443 56.0381 63.2443 56.5308 63.765 56.8312L77.7034 64.8778C78.2241 65.1782 79.0772 65.1782 79.5979 64.8778L93.5363 56.8312C94.057 56.5308 94.057 56.0381 93.5363 55.7377L79.5979 47.6911Z" fill="#42E8E0"/>
<path opacity="0.4" d="M96.7728 56.6267V51.8524L95.8996 51.3678C95.6513 52.8577 93.897 53.839 92.431 54.0433L82.4418 59.883L78.0841 61.4571L64.1697 54.2756L64.4901 54.0914C63.3006 53.5346 62.6597 52.2649 62.0189 51.1074L61.0816 51.6642L60.5249 51.8204V56.6748C60.5249 57.2956 60.9334 57.9124 61.7505 58.385L75.6889 66.4316C77.3191 67.3729 79.9786 67.3729 81.6087 66.4316L95.5471 58.385C96.3482 57.9204 96.7567 57.3156 96.7728 56.7068C96.7728 56.6828 96.7728 56.6547 96.7728 56.6267Z" fill="#42E8E0"/>
<path d="M96.7728 52.385V49.2249L95.8996 48.7402C95.6513 50.2302 93.897 51.2115 92.431 51.4158L82.4418 57.2595L78.0841 58.8335L64.1697 51.6521L64.4901 51.4678C63.3006 50.9111 62.6597 49.6414 62.0189 48.4839L61.0816 49.0406L60.5249 49.1968V52.4371C60.5249 53.0579 60.9334 53.6747 61.7505 54.1474L75.6889 62.194C77.3191 63.1352 79.9786 63.1352 81.6087 62.194L95.5471 54.1474C96.3482 53.6827 96.7567 53.0779 96.7728 52.4691C96.7728 52.4371 96.7728 52.4091 96.7728 52.385Z" fill="url(#paint51_linear_384_12618)"/>
<path opacity="0.3" d="M92.4311 51.4159L82.4419 57.2596L78.6489 58.6294V62.899C79.7223 62.899 80.7918 62.6627 81.6088 62.1941L95.5472 54.1475C96.3483 53.6829 96.7568 53.0781 96.7729 52.4693C96.7729 52.4412 96.7729 52.4132 96.7729 52.3892V49.229L95.9758 48.7844H95.8917C95.6193 50.2504 93.885 51.2156 92.4311 51.4159Z" fill="#0F054C"/>
<path d="M64.4899 51.4679L77.6993 43.8418C78.22 43.5414 79.0732 43.5414 79.5938 43.8418L92.571 51.3357L92.4268 51.4198C93.8927 51.2155 95.647 50.2343 95.8954 48.7443L81.3321 40.6376L77.0946 39.5161L73.642 41.5428L62.0146 48.4759C62.6635 49.6415 63.3003 50.9111 64.4899 51.4679Z" fill="url(#paint52_linear_384_12618)"/>
<path opacity="0.3" d="M78.6486 39.9287L77.0946 39.5161L73.642 41.5428L62.0146 48.4759C62.6595 49.6335 63.3003 50.9071 64.4859 51.4599L77.6953 43.8338C77.9557 43.6816 78.3001 43.6055 78.6446 43.6095V39.9287H78.6486Z" fill="#0F054C"/>
<path d="M75.6889 58.9818L61.7505 50.9352C60.1164 49.9939 60.1164 48.4599 61.7505 47.5187L75.6889 39.472C77.3191 38.5308 79.9786 38.5308 81.6087 39.472L95.5471 47.5187C97.1773 48.4599 97.1773 49.9939 95.5471 50.9352L81.6087 58.9818C79.9786 59.927 77.3231 59.927 75.6889 58.9818ZM79.5981 40.6296C79.0774 40.3292 78.2243 40.3292 77.7036 40.6296L63.7652 48.6762C63.2445 48.9766 63.2445 49.4692 63.7652 49.7696L77.7036 57.8162C78.2243 58.1166 79.0774 58.1166 79.5981 57.8162L93.5365 49.7696C94.0571 49.4692 94.0571 48.9766 93.5365 48.6762L79.5981 40.6296Z" fill="#5351AF"/>
<path d="M93.5364 48.6801L79.598 40.6335C79.0773 40.3331 78.2241 40.3331 77.7035 40.6335L63.7651 48.6801C63.4166 48.8804 63.3005 49.1688 63.4166 49.4251C63.4767 49.2969 63.5888 49.1768 63.7651 49.0726L77.7035 41.026C78.2241 40.7256 79.0773 40.7256 79.598 41.026L93.5364 49.0726C93.7086 49.1728 93.8247 49.2929 93.8848 49.4211C94.001 49.1648 93.8848 48.8804 93.5364 48.6801Z" fill="white"/>
<path d="M95.5469 50.9351L81.6085 58.9818C79.9783 59.923 77.3188 59.923 75.6887 58.9818L61.7503 50.9351C61.0213 50.5146 60.6168 49.9739 60.5407 49.4211C60.4446 50.102 60.8491 50.807 61.7503 51.3277L75.6887 59.3743C77.3188 60.3155 79.9783 60.3155 81.6085 59.3743L95.5469 51.3277C96.4481 50.807 96.8526 50.106 96.7565 49.4211C96.6804 49.9739 96.2759 50.5146 95.5469 50.9351Z" fill="white"/>
<path d="M76.0813 58.7576L62.1429 50.711C60.7291 49.8939 60.7291 48.5642 62.1429 47.7471L76.0813 39.7005C77.4952 38.8834 79.7982 38.8834 81.2121 39.7005L95.1505 47.7471C96.5643 48.5642 96.5643 49.8939 95.1505 50.711L81.2121 58.7576C79.8022 59.5747 77.4992 59.5747 76.0813 58.7576ZM79.9905 40.4054C79.2495 39.9768 78.0479 39.9768 77.3069 40.4054L63.3685 48.452C62.6276 48.8806 62.6276 49.5735 63.3685 50.002L77.3069 58.0487C78.0479 58.4772 79.2495 58.4772 79.9905 58.0487L93.9289 50.002C94.6698 49.5735 94.6698 48.8806 93.9289 48.452L79.9905 40.4054Z" fill="url(#paint53_linear_384_12618)"/>
<path opacity="0.4" d="M79.5979 40.6296C79.0772 40.3292 78.2241 40.3292 77.7034 40.6296L63.765 48.6762C63.2443 48.9766 63.2443 49.4693 63.765 49.7697L77.7034 57.8163C78.2241 58.1167 79.0772 58.1167 79.5979 57.8163L93.5363 49.7697C94.057 49.4693 94.057 48.9766 93.5363 48.6762L79.5979 40.6296Z" fill="#42E8E0"/>
<path opacity="0.4" d="M96.7728 49.5696V44.7953L95.8996 44.3106C95.6513 45.8006 93.897 46.7819 92.431 46.9862L82.4418 52.8259L78.0841 54.3999L64.1697 47.2185L64.4901 47.0342C63.3006 46.4775 62.6597 45.2078 62.0189 44.0503L61.0816 44.607L60.5249 44.7632V49.6176C60.5249 50.2385 60.9334 50.8553 61.7505 51.3279L75.6889 59.3745C77.3191 60.3158 79.9786 60.3158 81.6087 59.3745L95.5471 51.3279C96.3482 50.8633 96.7567 50.2585 96.7728 49.6497C96.7728 49.6216 96.7728 49.5976 96.7728 49.5696Z" fill="#42E8E0"/>
<path d="M96.7728 45.328V42.1678L95.8996 41.6832C95.6513 43.1732 93.897 44.1545 92.431 44.3587L82.4418 50.1984L78.0841 51.7725L64.1697 44.591L64.4901 44.4068C63.3006 43.8501 62.6597 42.5804 62.0189 41.4229L61.0816 41.9796L60.5249 42.1358V45.3761C60.5249 45.9969 60.9334 46.6137 61.7505 47.0863L75.6889 55.1329C77.3191 56.0742 79.9786 56.0742 81.6087 55.1329L95.5471 47.0863C96.3482 46.6217 96.7567 46.0169 96.7728 45.4081C96.7728 45.3801 96.7728 45.352 96.7728 45.328Z" fill="url(#paint54_linear_384_12618)"/>
<path opacity="0.3" d="M92.4311 44.3586L82.4419 50.1983L78.6489 51.5681V55.8378C79.7223 55.8378 80.7918 55.6015 81.6088 55.1328L95.5472 47.0862C96.3483 46.6216 96.7568 46.0168 96.7729 45.408C96.7729 45.38 96.7729 45.3519 96.7729 45.3279V42.1677L95.9758 41.7231H95.8917C95.6193 43.1891 93.885 44.1584 92.4311 44.3586Z" fill="#0F054C"/>
<path d="M64.4899 44.4067L77.6993 36.7807C78.22 36.4803 79.0732 36.4803 79.5938 36.7807L92.571 44.2746L92.4268 44.3587C93.8927 44.1544 95.647 43.1731 95.8954 41.6832L81.3321 33.5805L77.0946 32.459L73.642 34.4857L62.0146 41.4188C62.6635 42.5803 63.3003 43.854 64.4899 44.4067Z" fill="url(#paint55_linear_384_12618)"/>
<path opacity="0.3" d="M78.6486 32.8715L77.0946 32.459L73.642 34.4857L62.0146 41.4188C62.6595 42.5763 63.3003 43.85 64.4859 44.4027L77.6953 36.7767C77.9557 36.6245 78.3001 36.5484 78.6446 36.5524V32.8715H78.6486Z" fill="#0F054C"/>
<path d="M75.6889 51.9247L61.7505 43.878C60.1164 42.9368 60.1164 41.4028 61.7505 40.4615L75.6889 32.4149C77.3191 31.4737 79.9786 31.4737 81.6087 32.4149L95.5471 40.4615C97.1773 41.4028 97.1773 42.9368 95.5471 43.878L81.6087 51.9247C79.9786 52.8659 77.3231 52.8659 75.6889 51.9247ZM79.5981 33.5724C79.0774 33.272 78.2243 33.272 77.7036 33.5724L63.7652 41.6191C63.2445 41.9195 63.2445 42.4121 63.7652 42.7125L77.7036 50.7591C78.2243 51.0595 79.0774 51.0595 79.5981 50.7591L93.5365 42.7125C94.0571 42.4121 94.0571 41.9195 93.5365 41.6191L79.5981 33.5724Z" fill="#5351AF"/>
<path d="M93.5364 41.6191L79.598 33.5725C79.0773 33.2721 78.2241 33.2721 77.7035 33.5725L63.7651 41.6191C63.4166 41.8193 63.3005 42.1077 63.4166 42.3641C63.4767 42.2359 63.5888 42.1157 63.7651 42.0116L77.7035 33.965C78.2241 33.6646 79.0773 33.6646 79.598 33.965L93.5364 42.0116C93.7086 42.1117 93.8247 42.2319 93.8848 42.3601C94.001 42.1077 93.8848 41.8234 93.5364 41.6191Z" fill="white"/>
<path d="M95.5469 43.878L81.6085 51.9246C79.9783 52.8659 77.3188 52.8659 75.6887 51.9246L61.7503 43.878C61.0213 43.4575 60.6168 42.9167 60.5407 42.364C60.4446 43.0449 60.8491 43.7498 61.7503 44.2705L75.6887 52.3172C77.3188 53.2584 79.9783 53.2584 81.6085 52.3172L95.5469 44.2705C96.4481 43.7498 96.8526 43.0489 96.7565 42.364C96.6804 42.9167 96.2759 43.4575 95.5469 43.878Z" fill="white"/>
<path d="M76.0813 51.6963L62.1429 43.6497C60.7291 42.8326 60.7291 41.5029 62.1429 40.6858L76.0813 32.6392C77.4952 31.8221 79.7982 31.8221 81.2121 32.6392L95.1505 40.6858C96.5643 41.5029 96.5643 42.8326 95.1505 43.6497L81.2121 51.6963C79.8022 52.5134 77.4992 52.5134 76.0813 51.6963ZM79.9905 33.3441C79.2495 32.9155 78.0479 32.9155 77.3069 33.3441L63.3685 41.3907C62.6276 41.8193 62.6276 42.5122 63.3685 42.9408L77.3069 50.9874C78.0479 51.416 79.2495 51.416 79.9905 50.9874L93.9289 42.9408C94.6698 42.5122 94.6698 41.8193 93.9289 41.3907L79.9905 33.3441Z" fill="url(#paint56_linear_384_12618)"/>
<path opacity="0.4" d="M79.5979 33.5725C79.0772 33.2721 78.2241 33.2721 77.7034 33.5725L63.765 41.6191C63.2443 41.9195 63.2443 42.4121 63.765 42.7125L77.7034 50.7591C78.2241 51.0595 79.0772 51.0595 79.5979 50.7591L93.5363 42.7125C94.057 42.4121 94.057 41.9195 93.5363 41.6191L79.5979 33.5725Z" fill="#42E8E0"/>
<path opacity="0.4" d="M96.7728 42.5122V37.7379L95.8996 37.2533C95.6513 38.7432 93.897 39.7245 92.431 39.9288L82.4418 45.7685L78.0841 47.3426L64.1697 40.1611L64.4901 39.9769C63.3006 39.4201 62.6597 38.1504 62.0189 36.9929L61.0816 37.5497L60.5249 37.7059V42.5603C60.5249 43.1811 60.9334 43.7979 61.7505 44.2705L75.6889 52.3171C77.3191 53.2584 79.9786 53.2584 81.6087 52.3171L95.5471 44.2705C96.3482 43.8059 96.7567 43.2011 96.7728 42.5923C96.7728 42.5643 96.7728 42.5362 96.7728 42.5122Z" fill="#42E8E0"/>
<path d="M96.7728 38.2666V35.1105L95.8996 34.6258C95.6513 36.1158 93.897 37.0971 92.431 37.3014L82.4418 43.1411L78.0841 44.7151L64.1697 37.5337L64.4901 37.3494C63.3006 36.7927 62.6597 35.523 62.0189 34.3655L61.0816 34.9222L60.5249 35.0784V38.3187C60.5249 38.9395 60.9334 39.5563 61.7505 40.029L75.6889 48.0756C77.3191 49.0168 79.9786 49.0168 81.6087 48.0756L95.5471 40.029C96.3482 39.5643 96.7567 38.9595 96.7728 38.3507C96.7728 38.3227 96.7728 38.2947 96.7728 38.2666Z" fill="url(#paint57_linear_384_12618)"/>
<path opacity="0.3" d="M92.4311 37.3012L82.4419 43.141L78.6489 44.5108V48.7804C79.7223 48.7804 80.7918 48.5441 81.6088 48.0755L95.5472 40.0289C96.3483 39.5642 96.7568 38.9594 96.7729 38.3506C96.7729 38.3226 96.7729 38.2946 96.7729 38.2705V35.1104L95.9758 34.6658H95.8917C95.6193 36.1317 93.885 37.097 92.4311 37.3012Z" fill="#0F054C"/>
<path d="M64.4899 37.3494L77.6993 29.7233C78.22 29.4229 79.0732 29.4229 79.5938 29.7233L92.571 37.2172L92.4268 37.3013C93.8927 37.097 95.647 36.1157 95.8954 34.6258L81.3321 26.5231L77.0946 25.4016L73.642 27.4283L62.0146 34.3614C62.6635 35.523 63.3003 36.7926 64.4899 37.3494Z" fill="url(#paint58_linear_384_12618)"/>
<path opacity="0.3" d="M78.6486 25.8142L77.0946 25.4016L73.642 27.4283L62.0146 34.3614C62.6595 35.519 63.3003 36.7926 64.4859 37.3454L77.6953 29.7193C77.9557 29.5671 78.3001 29.491 78.6446 29.495V25.8142H78.6486Z" fill="#0F054C"/>
<path d="M75.6889 44.8673L61.7505 36.8207C60.1164 35.8794 60.1164 34.3454 61.7505 33.4042L75.6889 25.3575C77.3191 24.4163 79.9786 24.4163 81.6087 25.3575L95.5471 33.4042C97.1773 34.3454 97.1773 35.8794 95.5471 36.8207L81.6087 44.8673C79.9786 45.8085 77.3231 45.8085 75.6889 44.8673ZM79.5981 26.5151C79.0774 26.2147 78.2243 26.2147 77.7036 26.5151L63.7652 34.5617C63.2445 34.8621 63.2445 35.3547 63.7652 35.6551L77.7036 43.7018C78.2243 44.0021 79.0774 44.0021 79.5981 43.7018L93.5365 35.6551C94.0571 35.3547 94.0571 34.8621 93.5365 34.5617L79.5981 26.5151Z" fill="url(#paint59_linear_384_12618)"/>
<path d="M93.5364 34.5617L79.598 26.5151C79.0773 26.2147 78.2241 26.2147 77.7035 26.5151L63.7651 34.5617C63.4166 34.762 63.3005 35.0504 63.4166 35.3067C63.4767 35.1785 63.5888 35.0584 63.7651 34.9542L77.7035 26.9076C78.2241 26.6072 79.0773 26.6072 79.598 26.9076L93.5364 34.9542C93.7086 35.0544 93.8247 35.1745 93.8848 35.3027C94.001 35.0504 93.8848 34.766 93.5364 34.5617Z" fill="white"/>
<path d="M95.5469 36.8206L81.6085 44.8673C79.9783 45.8085 77.3188 45.8085 75.6887 44.8673L61.7503 36.8206C61.0213 36.4001 60.6168 35.8594 60.5407 35.3066C60.4446 35.9875 60.8491 36.6925 61.7503 37.2132L75.6887 45.2598C77.3188 46.201 79.9783 46.201 81.6085 45.2598L95.5469 37.2132C96.4481 36.6925 96.8526 35.9915 96.7565 35.3066C96.6804 35.8594 96.2759 36.3961 95.5469 36.8206Z" fill="white"/>
<path d="M76.0813 44.6389L62.1429 36.5923C60.7291 35.7753 60.7291 34.4455 62.1429 33.6284L76.0813 25.5818C77.4952 24.7647 79.7982 24.7647 81.2121 25.5818L95.1545 33.6284C96.5684 34.4455 96.5684 35.7753 95.1545 36.5923L81.2161 44.6389C79.8022 45.456 77.4992 45.456 76.0813 44.6389ZM79.9905 26.2867C79.2495 25.8582 78.0479 25.8582 77.3069 26.2867L63.3685 34.3334C62.6276 34.7619 62.6276 35.4548 63.3685 35.8834L77.3069 43.93C78.0479 44.3586 79.2495 44.3586 79.9905 43.93L93.9289 35.8834C94.6699 35.4548 94.6699 34.7619 93.9289 34.3334L79.9905 26.2867Z" fill="url(#paint60_linear_384_12618)"/>
<path opacity="0.4" d="M79.5979 26.5151C79.0772 26.2147 78.2241 26.2147 77.7034 26.5151L63.765 34.5617C63.2443 34.8621 63.2443 35.3548 63.765 35.6552L77.7034 43.7018C78.2241 44.0022 79.0772 44.0022 79.5979 43.7018L93.5363 35.6552C94.057 35.3548 94.057 34.8621 93.5363 34.5617L79.5979 26.5151Z" fill="#42E8E0"/>
</g>
<defs>
<linearGradient id="paint0_linear_384_12618" x1="131.659" y1="73.8139" x2="148.004" y2="83.2509" gradientUnits="userSpaceOnUse">
<stop stop-color="#BCBEFF"/>
<stop offset="0.2271" stop-color="#AAADF8"/>
<stop offset="0.6802" stop-color="#7C83E5"/>
<stop offset="1" stop-color="#5761D7"/>
</linearGradient>
<linearGradient id="paint1_linear_384_12618" x1="129.609" y1="77.3809" x2="150.211" y2="77.3809" gradientUnits="userSpaceOnUse">
<stop stop-color="#E9E9FD"/>
<stop offset="0.3601" stop-color="#D3D2F9"/>
<stop offset="0.7062" stop-color="#C5C4F7"/>
<stop offset="1" stop-color="#C0BFF6"/>
</linearGradient>
<linearGradient id="paint2_linear_384_12618" x1="131.659" y1="61.7826" x2="148.005" y2="71.2196" gradientUnits="userSpaceOnUse">
<stop stop-color="#BCBEFF"/>
<stop offset="0.2271" stop-color="#AAADF8"/>
<stop offset="0.6802" stop-color="#7C83E5"/>
<stop offset="1" stop-color="#5761D7"/>
</linearGradient>
<linearGradient id="paint3_linear_384_12618" x1="129.609" y1="65.3496" x2="150.211" y2="65.3496" gradientUnits="userSpaceOnUse">
<stop stop-color="#E9E9FD"/>
<stop offset="0.3601" stop-color="#D3D2F9"/>
<stop offset="0.7062" stop-color="#C5C4F7"/>
<stop offset="1" stop-color="#C0BFF6"/>
</linearGradient>
<linearGradient id="paint4_linear_384_12618" x1="16.2983" y1="84.2843" x2="32.6437" y2="93.7214" gradientUnits="userSpaceOnUse">
<stop stop-color="#BCBEFF"/>
<stop offset="0.2271" stop-color="#AAADF8"/>
<stop offset="0.6802" stop-color="#7C83E5"/>
<stop offset="1" stop-color="#5761D7"/>
</linearGradient>
<linearGradient id="paint5_linear_384_12618" x1="14.2488" y1="87.8514" x2="34.8502" y2="87.8514" gradientUnits="userSpaceOnUse">
<stop stop-color="#E9E9FD"/>
<stop offset="0.3601" stop-color="#D3D2F9"/>
<stop offset="0.7062" stop-color="#C5C4F7"/>
<stop offset="1" stop-color="#C0BFF6"/>
</linearGradient>
<linearGradient id="paint6_linear_384_12618" x1="16.2978" y1="71.3797" x2="32.6433" y2="80.8168" gradientUnits="userSpaceOnUse">
<stop stop-color="#BCBEFF"/>
<stop offset="0.2271" stop-color="#AAADF8"/>
<stop offset="0.6802" stop-color="#7C83E5"/>
<stop offset="1" stop-color="#5761D7"/>
</linearGradient>
<linearGradient id="paint7_linear_384_12618" x1="14.2483" y1="74.9469" x2="34.8497" y2="74.9469" gradientUnits="userSpaceOnUse">
<stop stop-color="#E9E9FD"/>
<stop offset="0.3601" stop-color="#D3D2F9"/>
<stop offset="0.7062" stop-color="#C5C4F7"/>
<stop offset="1" stop-color="#C0BFF6"/>
</linearGradient>
<linearGradient id="paint8_linear_384_12618" x1="30.9451" y1="39.1116" x2="47.2906" y2="48.5487" gradientUnits="userSpaceOnUse">
<stop stop-color="#BCBEFF"/>
<stop offset="0.2271" stop-color="#AAADF8"/>
<stop offset="0.6802" stop-color="#7C83E5"/>
<stop offset="1" stop-color="#5761D7"/>
</linearGradient>
<linearGradient id="paint9_linear_384_12618" x1="28.8957" y1="42.6787" x2="49.4971" y2="42.6787" gradientUnits="userSpaceOnUse">
<stop stop-color="#E9E9FD"/>
<stop offset="0.3601" stop-color="#D3D2F9"/>
<stop offset="0.7062" stop-color="#C5C4F7"/>
<stop offset="1" stop-color="#C0BFF6"/>
</linearGradient>
<linearGradient id="paint10_linear_384_12618" x1="30.9447" y1="27.096" x2="47.2902" y2="36.5331" gradientUnits="userSpaceOnUse">
<stop stop-color="#BCBEFF"/>
<stop offset="0.2271" stop-color="#AAADF8"/>
<stop offset="0.6802" stop-color="#7C83E5"/>
<stop offset="1" stop-color="#5761D7"/>
</linearGradient>
<linearGradient id="paint11_linear_384_12618" x1="28.8952" y1="30.6631" x2="49.4966" y2="30.6631" gradientUnits="userSpaceOnUse">
<stop stop-color="#E9E9FD"/>
<stop offset="0.3601" stop-color="#D3D2F9"/>
<stop offset="0.7062" stop-color="#C5C4F7"/>
<stop offset="1" stop-color="#C0BFF6"/>
</linearGradient>
<linearGradient id="paint12_linear_384_12618" x1="115.697" y1="71.381" x2="35.5979" y2="71.381" gradientUnits="userSpaceOnUse">
<stop stop-color="#5761D7"/>
<stop offset="0.1779" stop-color="#5C66D9"/>
<stop offset="0.3876" stop-color="#6A73DF"/>
<stop offset="0.6134" stop-color="#8289E8"/>
<stop offset="0.849" stop-color="#A3A7F5"/>
<stop offset="1" stop-color="#BCBEFF"/>
</linearGradient>
<linearGradient id="paint13_linear_384_12618" x1="90.285" y1="69.5163" x2="10.1858" y2="69.5163" gradientUnits="userSpaceOnUse">
<stop stop-color="#C0BFF6"/>
<stop offset="0.2938" stop-color="#C5C4F7"/>
<stop offset="0.6399" stop-color="#D3D2F9"/>
<stop offset="1" stop-color="#E9E9FD"/>
</linearGradient>
<linearGradient id="paint14_linear_384_12618" x1="124.778" y1="34.38" x2="68.0942" y2="34.38" gradientUnits="userSpaceOnUse">
<stop stop-color="#C0BFF6"/>
<stop offset="0.2938" stop-color="#C5C4F7"/>
<stop offset="0.6399" stop-color="#D3D2F9"/>
<stop offset="1" stop-color="#E9E9FD"/>
</linearGradient>
<linearGradient id="paint15_linear_384_12618" x1="124.778" y1="48.917" x2="115.045" y2="48.917" gradientUnits="userSpaceOnUse">
<stop stop-color="#5761D7"/>
<stop offset="0.1779" stop-color="#5C66D9"/>
<stop offset="0.3876" stop-color="#6A73DF"/>
<stop offset="0.6134" stop-color="#8289E8"/>
<stop offset="0.849" stop-color="#A3A7F5"/>
<stop offset="1" stop-color="#BCBEFF"/>
</linearGradient>
<linearGradient id="paint16_linear_384_12618" x1="117.184" y1="64.7777" x2="37.1275" y2="64.7777" gradientUnits="userSpaceOnUse">
<stop stop-color="#5761D7"/>
<stop offset="0.1779" stop-color="#5C66D9"/>
<stop offset="0.3876" stop-color="#6A73DF"/>
<stop offset="0.6134" stop-color="#8289E8"/>
<stop offset="0.849" stop-color="#A3A7F5"/>
<stop offset="1" stop-color="#BCBEFF"/>
</linearGradient>
<linearGradient id="paint17_linear_384_12618" x1="90.285" y1="62.5887" x2="10.1858" y2="62.5887" gradientUnits="userSpaceOnUse">
<stop stop-color="#C0BFF6"/>
<stop offset="0.2938" stop-color="#C5C4F7"/>
<stop offset="0.6399" stop-color="#D3D2F9"/>
<stop offset="1" stop-color="#E9E9FD"/>
</linearGradient>
<radialGradient id="paint18_radial_384_12618" cx="0" cy="0" r="1" gradientUnits="userSpaceOnUse" gradientTransform="translate(78.1529 59.3535) scale(50.7089)">
<stop stop-color="#42E8E0"/>
<stop offset="0.1055" stop-color="#37B6BF"/>
<stop offset="0.2197" stop-color="#2C87A1"/>
<stop offset="0.338" stop-color="#235F87"/>
<stop offset="0.4587" stop-color="#1C3F72"/>
<stop offset="0.5824" stop-color="#162561"/>
<stop offset="0.7105" stop-color="#121355"/>
<stop offset="0.8458" stop-color="#10084E"/>
<stop offset="1" stop-color="#0F054C"/>
</radialGradient>
<linearGradient id="paint19_linear_384_12618" x1="64.1315" y1="76.0897" x2="92.8906" y2="92.6938" gradientUnits="userSpaceOnUse">
<stop stop-color="#BCBEFF"/>
<stop offset="0.2271" stop-color="#AAADF8"/>
<stop offset="0.6802" stop-color="#7C83E5"/>
<stop offset="1" stop-color="#5761D7"/>
</linearGradient>
<linearGradient id="paint20_linear_384_12618" x1="65.8574" y1="74.9714" x2="91.5048" y2="89.7789" gradientUnits="userSpaceOnUse">
<stop offset="0.2421" stop-color="#5761D7"/>
<stop offset="0.3923" stop-color="#7A82E5"/>
<stop offset="0.5463" stop-color="#979CF0"/>
<stop offset="0.7" stop-color="#ACAFF8"/>
<stop offset="0.8519" stop-color="#B8BAFD"/>
<stop offset="1" stop-color="#BCBEFF"/>
</linearGradient>
<linearGradient id="paint21_linear_384_12618" x1="61.0818" y1="82.366" x2="96.216" y2="82.366" gradientUnits="userSpaceOnUse">
<stop stop-color="#E9E9FD"/>
<stop offset="0.3601" stop-color="#D3D2F9"/>
<stop offset="0.7062" stop-color="#C5C4F7"/>
<stop offset="1" stop-color="#C0BFF6"/>
</linearGradient>
<linearGradient id="paint22_linear_384_12618" x1="64.1315" y1="69.0316" x2="92.8906" y2="85.6357" gradientUnits="userSpaceOnUse">
<stop stop-color="#BCBEFF"/>
<stop offset="0.2271" stop-color="#AAADF8"/>
<stop offset="0.6802" stop-color="#7C83E5"/>
<stop offset="1" stop-color="#5761D7"/>
</linearGradient>
<linearGradient id="paint23_linear_384_12618" x1="65.8574" y1="67.9134" x2="91.5048" y2="82.721" gradientUnits="userSpaceOnUse">
<stop offset="0.2421" stop-color="#5761D7"/>
<stop offset="0.3923" stop-color="#7A82E5"/>
<stop offset="0.5463" stop-color="#979CF0"/>
<stop offset="0.7" stop-color="#ACAFF8"/>
<stop offset="0.8519" stop-color="#B8BAFD"/>
<stop offset="1" stop-color="#BCBEFF"/>
</linearGradient>
<linearGradient id="paint24_linear_384_12618" x1="61.0818" y1="75.3078" x2="96.216" y2="75.3078" gradientUnits="userSpaceOnUse">
<stop stop-color="#E9E9FD"/>
<stop offset="0.3601" stop-color="#D3D2F9"/>
<stop offset="0.7062" stop-color="#C5C4F7"/>
<stop offset="1" stop-color="#C0BFF6"/>
</linearGradient>
<linearGradient id="paint25_linear_384_12618" x1="64.1315" y1="61.9732" x2="92.8906" y2="78.5773" gradientUnits="userSpaceOnUse">
<stop stop-color="#BCBEFF"/>
<stop offset="0.2271" stop-color="#AAADF8"/>
<stop offset="0.6802" stop-color="#7C83E5"/>
<stop offset="1" stop-color="#5761D7"/>
</linearGradient>
<linearGradient id="paint26_linear_384_12618" x1="65.8573" y1="60.8552" x2="91.5047" y2="75.6627" gradientUnits="userSpaceOnUse">
<stop offset="0.2421" stop-color="#5761D7"/>
<stop offset="0.3923" stop-color="#7A82E5"/>
<stop offset="0.5463" stop-color="#979CF0"/>
<stop offset="0.7" stop-color="#ACAFF8"/>
<stop offset="0.8519" stop-color="#B8BAFD"/>
<stop offset="1" stop-color="#BCBEFF"/>
</linearGradient>
<linearGradient id="paint27_linear_384_12618" x1="61.0818" y1="68.2495" x2="96.216" y2="68.2495" gradientUnits="userSpaceOnUse">
<stop stop-color="#E9E9FD"/>
<stop offset="0.3601" stop-color="#D3D2F9"/>
<stop offset="0.7062" stop-color="#C5C4F7"/>
<stop offset="1" stop-color="#C0BFF6"/>
</linearGradient>
<linearGradient id="paint28_linear_384_12618" x1="64.1315" y1="54.915" x2="92.8906" y2="71.519" gradientUnits="userSpaceOnUse">
<stop stop-color="#BCBEFF"/>
<stop offset="0.2271" stop-color="#AAADF8"/>
<stop offset="0.6802" stop-color="#7C83E5"/>
<stop offset="1" stop-color="#5761D7"/>
</linearGradient>
<linearGradient id="paint29_linear_384_12618" x1="65.8574" y1="53.7969" x2="91.5048" y2="68.6044" gradientUnits="userSpaceOnUse">
<stop offset="0.2421" stop-color="#5761D7"/>
<stop offset="0.3923" stop-color="#7A82E5"/>
<stop offset="0.5463" stop-color="#979CF0"/>
<stop offset="0.7" stop-color="#ACAFF8"/>
<stop offset="0.8519" stop-color="#B8BAFD"/>
<stop offset="1" stop-color="#BCBEFF"/>
</linearGradient>
<linearGradient id="paint30_linear_384_12618" x1="60.5254" y1="61.1913" x2="96.7726" y2="61.1913" gradientUnits="userSpaceOnUse">
<stop stop-color="#E9E9FD"/>
<stop offset="0.3601" stop-color="#D3D2F9"/>
<stop offset="0.7062" stop-color="#C5C4F7"/>
<stop offset="1" stop-color="#C0BFF6"/>
</linearGradient>
<linearGradient id="paint31_linear_384_12618" x1="61.0818" y1="61.1913" x2="96.216" y2="61.1913" gradientUnits="userSpaceOnUse">
<stop stop-color="#E9E9FD"/>
<stop offset="0.3601" stop-color="#D3D2F9"/>
<stop offset="0.7062" stop-color="#C5C4F7"/>
<stop offset="1" stop-color="#C0BFF6"/>
</linearGradient>
<linearGradient id="paint32_linear_384_12618" x1="36.9872" y1="61.5564" x2="117.316" y2="61.5564" gradientUnits="userSpaceOnUse">
<stop stop-color="#42E8E0"/>
<stop offset="0.1055" stop-color="#37B6BF"/>
<stop offset="0.2197" stop-color="#2C87A1"/>
<stop offset="0.338" stop-color="#235F87"/>
<stop offset="0.4587" stop-color="#1C3F72"/>
<stop offset="0.5824" stop-color="#162561"/>
<stop offset="0.7105" stop-color="#121355"/>
<stop offset="0.8458" stop-color="#10084E"/>
<stop offset="1" stop-color="#0F054C"/>
</linearGradient>
<linearGradient id="paint33_linear_384_12618" x1="147.968" y1="47.1587" x2="67.9118" y2="47.1587" gradientUnits="userSpaceOnUse">
<stop stop-color="#5761D7"/>
<stop offset="0.1779" stop-color="#5C66D9"/>
<stop offset="0.3876" stop-color="#6A73DF"/>
<stop offset="0.6134" stop-color="#8289E8"/>
<stop offset="0.849" stop-color="#A3A7F5"/>
<stop offset="1" stop-color="#BCBEFF"/>
</linearGradient>
<linearGradient id="paint34_linear_384_12618" x1="121.069" y1="44.9698" x2="40.97" y2="44.9698" gradientUnits="userSpaceOnUse">
<stop stop-color="#C0BFF6"/>
<stop offset="0.2938" stop-color="#C5C4F7"/>
<stop offset="0.6399" stop-color="#D3D2F9"/>
<stop offset="1" stop-color="#E9E9FD"/>
</linearGradient>
<linearGradient id="paint35_linear_384_12618" x1="92.1369" y1="34.4411" x2="120.896" y2="51.0451" gradientUnits="userSpaceOnUse">
<stop stop-color="#BCBEFF"/>
<stop offset="0.2271" stop-color="#AAADF8"/>
<stop offset="0.6802" stop-color="#7C83E5"/>
<stop offset="1" stop-color="#5761D7"/>
</linearGradient>
<linearGradient id="paint36_linear_384_12618" x1="93.863" y1="33.323" x2="119.51" y2="48.1306" gradientUnits="userSpaceOnUse">
<stop offset="0.2421" stop-color="#5761D7"/>
<stop offset="0.3923" stop-color="#7A82E5"/>
<stop offset="0.5463" stop-color="#979CF0"/>
<stop offset="0.7" stop-color="#ACAFF8"/>
<stop offset="0.8519" stop-color="#B8BAFD"/>
<stop offset="1" stop-color="#BCBEFF"/>
</linearGradient>
<linearGradient id="paint37_linear_384_12618" x1="89.0871" y1="40.7174" x2="124.221" y2="40.7174" gradientUnits="userSpaceOnUse">
<stop stop-color="#E9E9FD"/>
<stop offset="0.3601" stop-color="#D3D2F9"/>
<stop offset="0.7062" stop-color="#C5C4F7"/>
<stop offset="1" stop-color="#C0BFF6"/>
</linearGradient>
<linearGradient id="paint38_linear_384_12618" x1="92.1369" y1="27.3828" x2="120.896" y2="43.9868" gradientUnits="userSpaceOnUse">
<stop stop-color="#BCBEFF"/>
<stop offset="0.2271" stop-color="#AAADF8"/>
<stop offset="0.6802" stop-color="#7C83E5"/>
<stop offset="1" stop-color="#5761D7"/>
</linearGradient>
<linearGradient id="paint39_linear_384_12618" x1="93.863" y1="26.2647" x2="119.51" y2="41.0723" gradientUnits="userSpaceOnUse">
<stop offset="0.2421" stop-color="#5761D7"/>
<stop offset="0.3923" stop-color="#7A82E5"/>
<stop offset="0.5463" stop-color="#979CF0"/>
<stop offset="0.7" stop-color="#ACAFF8"/>
<stop offset="0.8519" stop-color="#B8BAFD"/>
<stop offset="1" stop-color="#BCBEFF"/>
</linearGradient>
<linearGradient id="paint40_linear_384_12618" x1="89.0871" y1="33.6591" x2="124.221" y2="33.6591" gradientUnits="userSpaceOnUse">
<stop stop-color="#E9E9FD"/>
<stop offset="0.3601" stop-color="#D3D2F9"/>
<stop offset="0.7062" stop-color="#C5C4F7"/>
<stop offset="1" stop-color="#C0BFF6"/>
</linearGradient>
<linearGradient id="paint41_linear_384_12618" x1="92.1369" y1="20.3248" x2="120.896" y2="36.9288" gradientUnits="userSpaceOnUse">
<stop stop-color="#BCBEFF"/>
<stop offset="0.2271" stop-color="#AAADF8"/>
<stop offset="0.6802" stop-color="#7C83E5"/>
<stop offset="1" stop-color="#5761D7"/>
</linearGradient>
<linearGradient id="paint42_linear_384_12618" x1="93.863" y1="19.2064" x2="119.51" y2="34.014" gradientUnits="userSpaceOnUse">
<stop offset="0.2421" stop-color="#5761D7"/>
<stop offset="0.3923" stop-color="#7A82E5"/>
<stop offset="0.5463" stop-color="#979CF0"/>
<stop offset="0.7" stop-color="#ACAFF8"/>
<stop offset="0.8519" stop-color="#B8BAFD"/>
<stop offset="1" stop-color="#BCBEFF"/>
</linearGradient>
<linearGradient id="paint43_linear_384_12618" x1="89.0871" y1="26.6011" x2="124.221" y2="26.6011" gradientUnits="userSpaceOnUse">
<stop stop-color="#E9E9FD"/>
<stop offset="0.3601" stop-color="#D3D2F9"/>
<stop offset="0.7062" stop-color="#C5C4F7"/>
<stop offset="1" stop-color="#C0BFF6"/>
</linearGradient>
<linearGradient id="paint44_linear_384_12618" x1="92.1369" y1="13.2665" x2="120.896" y2="29.8705" gradientUnits="userSpaceOnUse">
<stop stop-color="#BCBEFF"/>
<stop offset="0.2271" stop-color="#AAADF8"/>
<stop offset="0.6802" stop-color="#7C83E5"/>
<stop offset="1" stop-color="#5761D7"/>
</linearGradient>
<linearGradient id="paint45_linear_384_12618" x1="93.863" y1="12.1482" x2="119.51" y2="26.9558" gradientUnits="userSpaceOnUse">
<stop offset="0.2421" stop-color="#5761D7"/>
<stop offset="0.3923" stop-color="#7A82E5"/>
<stop offset="0.5463" stop-color="#979CF0"/>
<stop offset="0.7" stop-color="#ACAFF8"/>
<stop offset="0.8519" stop-color="#B8BAFD"/>
<stop offset="1" stop-color="#BCBEFF"/>
</linearGradient>
<linearGradient id="paint46_linear_384_12618" x1="88.5307" y1="19.5427" x2="124.778" y2="19.5427" gradientUnits="userSpaceOnUse">
<stop stop-color="#E9E9FD"/>
<stop offset="0.3601" stop-color="#D3D2F9"/>
<stop offset="0.7062" stop-color="#C5C4F7"/>
<stop offset="1" stop-color="#C0BFF6"/>
</linearGradient>
<linearGradient id="paint47_linear_384_12618" x1="89.0871" y1="19.5427" x2="124.221" y2="19.5427" gradientUnits="userSpaceOnUse">
<stop stop-color="#E9E9FD"/>
<stop offset="0.3601" stop-color="#D3D2F9"/>
<stop offset="0.7062" stop-color="#C5C4F7"/>
<stop offset="1" stop-color="#C0BFF6"/>
</linearGradient>
<linearGradient id="paint48_linear_384_12618" x1="64.1315" y1="50.0082" x2="92.8906" y2="66.6122" gradientUnits="userSpaceOnUse">
<stop stop-color="#BCBEFF"/>
<stop offset="0.2271" stop-color="#AAADF8"/>
<stop offset="0.6802" stop-color="#7C83E5"/>
<stop offset="1" stop-color="#5761D7"/>
</linearGradient>
<linearGradient id="paint49_linear_384_12618" x1="65.8574" y1="48.8901" x2="91.5048" y2="63.6976" gradientUnits="userSpaceOnUse">
<stop offset="0.2421" stop-color="#5761D7"/>
<stop offset="0.3923" stop-color="#7A82E5"/>
<stop offset="0.5463" stop-color="#979CF0"/>
<stop offset="0.7" stop-color="#ACAFF8"/>
<stop offset="0.8519" stop-color="#B8BAFD"/>
<stop offset="1" stop-color="#BCBEFF"/>
</linearGradient>
<linearGradient id="paint50_linear_384_12618" x1="61.0818" y1="56.2845" x2="96.216" y2="56.2845" gradientUnits="userSpaceOnUse">
<stop stop-color="#E9E9FD"/>
<stop offset="0.3601" stop-color="#D3D2F9"/>
<stop offset="0.7062" stop-color="#C5C4F7"/>
<stop offset="1" stop-color="#C0BFF6"/>
</linearGradient>
<linearGradient id="paint51_linear_384_12618" x1="64.1315" y1="42.9498" x2="92.8906" y2="59.5538" gradientUnits="userSpaceOnUse">
<stop stop-color="#BCBEFF"/>
<stop offset="0.2271" stop-color="#AAADF8"/>
<stop offset="0.6802" stop-color="#7C83E5"/>
<stop offset="1" stop-color="#5761D7"/>
</linearGradient>
<linearGradient id="paint52_linear_384_12618" x1="65.8573" y1="41.8316" x2="91.5047" y2="56.6392" gradientUnits="userSpaceOnUse">
<stop offset="0.2421" stop-color="#5761D7"/>
<stop offset="0.3923" stop-color="#7A82E5"/>
<stop offset="0.5463" stop-color="#979CF0"/>
<stop offset="0.7" stop-color="#ACAFF8"/>
<stop offset="0.8519" stop-color="#B8BAFD"/>
<stop offset="1" stop-color="#BCBEFF"/>
</linearGradient>
<linearGradient id="paint53_linear_384_12618" x1="61.0818" y1="49.2262" x2="96.216" y2="49.2262" gradientUnits="userSpaceOnUse">
<stop stop-color="#E9E9FD"/>
<stop offset="0.3601" stop-color="#D3D2F9"/>
<stop offset="0.7062" stop-color="#C5C4F7"/>
<stop offset="1" stop-color="#C0BFF6"/>
</linearGradient>
<linearGradient id="paint54_linear_384_12618" x1="64.1315" y1="35.8918" x2="92.8906" y2="52.4959" gradientUnits="userSpaceOnUse">
<stop stop-color="#BCBEFF"/>
<stop offset="0.2271" stop-color="#AAADF8"/>
<stop offset="0.6802" stop-color="#7C83E5"/>
<stop offset="1" stop-color="#5761D7"/>
</linearGradient>
<linearGradient id="paint55_linear_384_12618" x1="65.8573" y1="34.7736" x2="91.5047" y2="49.5811" gradientUnits="userSpaceOnUse">
<stop offset="0.2421" stop-color="#5761D7"/>
<stop offset="0.3923" stop-color="#7A82E5"/>
<stop offset="0.5463" stop-color="#979CF0"/>
<stop offset="0.7" stop-color="#ACAFF8"/>
<stop offset="0.8519" stop-color="#B8BAFD"/>
<stop offset="1" stop-color="#BCBEFF"/>
</linearGradient>
<linearGradient id="paint56_linear_384_12618" x1="61.0818" y1="42.168" x2="96.216" y2="42.168" gradientUnits="userSpaceOnUse">
<stop stop-color="#E9E9FD"/>
<stop offset="0.3601" stop-color="#D3D2F9"/>
<stop offset="0.7062" stop-color="#C5C4F7"/>
<stop offset="1" stop-color="#C0BFF6"/>
</linearGradient>
<linearGradient id="paint57_linear_384_12618" x1="64.1315" y1="28.8335" x2="92.8906" y2="45.4376" gradientUnits="userSpaceOnUse">
<stop stop-color="#BCBEFF"/>
<stop offset="0.2271" stop-color="#AAADF8"/>
<stop offset="0.6802" stop-color="#7C83E5"/>
<stop offset="1" stop-color="#5761D7"/>
</linearGradient>
<linearGradient id="paint58_linear_384_12618" x1="65.8573" y1="27.7153" x2="91.5047" y2="42.5228" gradientUnits="userSpaceOnUse">
<stop offset="0.2421" stop-color="#5761D7"/>
<stop offset="0.3923" stop-color="#7A82E5"/>
<stop offset="0.5463" stop-color="#979CF0"/>
<stop offset="0.7" stop-color="#ACAFF8"/>
<stop offset="0.8519" stop-color="#B8BAFD"/>
<stop offset="1" stop-color="#BCBEFF"/>
</linearGradient>
<linearGradient id="paint59_linear_384_12618" x1="60.5254" y1="35.1097" x2="96.7726" y2="35.1097" gradientUnits="userSpaceOnUse">
<stop stop-color="#E9E9FD"/>
<stop offset="0.3601" stop-color="#D3D2F9"/>
<stop offset="0.7062" stop-color="#C5C4F7"/>
<stop offset="1" stop-color="#C0BFF6"/>
</linearGradient>
<linearGradient id="paint60_linear_384_12618" x1="61.0818" y1="35.1097" x2="96.2161" y2="35.1097" gradientUnits="userSpaceOnUse">
<stop stop-color="#E9E9FD"/>
<stop offset="0.3601" stop-color="#D3D2F9"/>
<stop offset="0.7062" stop-color="#C5C4F7"/>
<stop offset="1" stop-color="#C0BFF6"/>
</linearGradient>
<clipPath id="clip0_384_12618">
<rect width="149.625" height="97" fill="white" transform="translate(0.585938 0.785156)"/>
</clipPath>
</defs>
</svg>
