<svg width="169" height="99" viewBox="0 0 169 99" fill="none" xmlns="http://www.w3.org/2000/svg">
<path d="M40.5285 63.6613C40.5056 63.6613 40.4942 63.6613 40.4713 63.6498L0.99024 40.8525C0.944531 40.8182 0.921678 40.7611 0.955959 40.704C0.990241 40.6583 1.04738 40.6354 1.10451 40.6697L40.5285 63.4327L90.6826 34.4761C90.7169 34.4533 90.7512 34.4533 90.7854 34.4761L124.21 53.7653L146.253 41.0353C146.299 41.0011 146.367 41.0239 146.402 41.0696C146.436 41.1153 146.413 41.1839 146.367 41.2182L124.267 53.9824C124.233 54.0053 124.199 54.0053 124.164 53.9824L90.7397 34.6932L40.5856 63.6498C40.5628 63.6613 40.5399 63.6613 40.5285 63.6613Z" fill="#6DCACE"/>
<path d="M168.547 78.4824C168.524 78.4824 168.513 78.4824 168.49 78.471L139.671 61.8329L121.81 72.1517C121.776 72.1746 121.741 72.1746 121.707 72.1517L51.6353 31.6879C51.601 31.665 51.5781 31.6307 51.5781 31.5965C51.5781 31.5622 51.601 31.5279 51.6353 31.505L87.4711 10.8217C87.5168 10.7989 87.5853 10.8103 87.6196 10.856C87.6539 10.9017 87.631 10.9703 87.5853 11.0046L51.8867 31.5965L121.753 71.9346L139.614 61.6158C139.648 61.5929 139.682 61.5929 139.716 61.6158L168.593 78.2881C168.639 78.3224 168.662 78.3795 168.627 78.4367C168.616 78.471 168.582 78.4824 168.547 78.4824Z" fill="#6DCACE"/>
<path d="M103.629 92.4123C103.606 92.4123 103.595 92.4123 103.572 92.4009L82.1802 80.048C82.1459 80.0252 82.123 79.9909 82.123 79.9566C82.123 79.9223 82.1459 79.888 82.1802 79.8652L108.783 64.507C108.828 64.4727 108.897 64.4956 108.931 64.5413C108.966 64.587 108.943 64.6555 108.897 64.6898L82.443 79.9566L103.675 92.218C103.721 92.2523 103.743 92.3094 103.709 92.3666C103.698 92.4009 103.663 92.4123 103.629 92.4123Z" fill="#6DCACE"/>
<path d="M134.917 98.5828C134.894 98.5828 134.883 98.5828 134.86 98.5714L19.2852 31.8478C19.2395 31.8135 19.2166 31.7564 19.2509 31.6992C19.2852 31.6535 19.3423 31.6307 19.3994 31.6649L134.974 98.3885C135.02 98.4228 135.043 98.48 135.009 98.5371C134.986 98.5714 134.952 98.5828 134.917 98.5828Z" fill="#6DCACE"/>
<path d="M65.0632 70.1519C65.0404 70.1519 65.029 70.1519 65.0061 70.1405L34.6782 52.6225C34.6439 52.5997 34.6211 52.5654 34.6211 52.5311C34.6211 52.4968 34.6439 52.4625 34.6782 52.4397L61.2808 37.0815C61.3265 37.0586 61.3951 37.0701 61.4294 37.1158C61.4637 37.1615 61.4408 37.23 61.3951 37.2643L34.9411 52.5311L65.0632 69.9233L137.318 28.2025C137.363 28.1683 137.432 28.1911 137.466 28.2368C137.5 28.2825 137.478 28.3511 137.432 28.3854L65.1204 70.1291C65.0975 70.1519 65.0861 70.1519 65.0632 70.1519Z" fill="#6DCACE"/>
<path opacity="0.3" d="M45.1217 32.2137L35.957 26.9229L45.1217 21.6321L54.2977 26.9229L45.1217 32.2137Z" fill="#6DCACE"/>
<path opacity="0.5" d="M45.1217 26.1116L35.957 20.8208L45.1217 15.53L54.2977 20.8208L45.1217 26.1116Z" fill="#6DCACE"/>
<path opacity="0.7" d="M45.1217 21.232L35.957 15.9297L45.1217 10.6389L54.2977 15.9297L45.1217 21.232Z" fill="#6DCACE"/>
<path d="M45.1221 21.4835C45.0764 21.4835 45.0307 21.4721 44.9964 21.4492L35.8318 16.1584C35.7518 16.1127 35.7061 16.0213 35.7061 15.9298C35.7061 15.8384 35.7518 15.747 35.8318 15.7013L44.9964 10.4105C45.0764 10.3648 45.1792 10.3648 45.2592 10.4105L54.4239 15.7013C54.5039 15.747 54.5496 15.8384 54.5496 15.9298C54.5496 16.0213 54.5039 16.1127 54.4239 16.1584L45.2592 21.4492C45.2135 21.4721 45.1678 21.4835 45.1221 21.4835ZM36.4717 15.9298L45.1221 20.9235L53.7725 15.9298L45.1221 10.9361L36.4717 15.9298Z" fill="#6DCACE"/>
<path opacity="0.7" d="M118.063 91.5437L108.898 86.2529L118.063 80.9507L127.228 86.2529L118.063 91.5437Z" fill="#6DCACE"/>
<path d="M118.062 91.8065C118.017 91.8065 117.971 91.795 117.937 91.7722L108.772 86.4814C108.692 86.4357 108.646 86.3443 108.646 86.2528C108.646 86.1614 108.692 86.07 108.772 86.0243L117.937 80.7335C118.017 80.6878 118.12 80.6878 118.2 80.7335L127.364 86.0243C127.444 86.07 127.49 86.1614 127.49 86.2528C127.49 86.3443 127.444 86.4357 127.364 86.4814L118.2 91.7722C118.154 91.795 118.108 91.8065 118.062 91.8065ZM109.412 86.2528L118.062 91.2465L126.713 86.2528L118.062 81.2591L109.412 86.2528Z" fill="#6DCACE"/>
<path opacity="0.7" d="M138.334 86.5043L133.523 83.7275L138.334 80.9507L143.145 83.7275L138.334 86.5043Z" fill="#6DCACE"/>
<path opacity="0.5" d="M138.334 83.7275L133.523 80.9507L138.334 78.1738L143.145 80.9507L138.334 83.7275Z" fill="#6DCACE"/>
<path opacity="0.3" d="M138.334 80.9506L133.523 78.1738L138.334 75.397L143.145 78.1738L138.334 80.9506Z" fill="#6DCACE"/>
<path d="M138.335 86.767C138.289 86.767 138.243 86.7556 138.209 86.7328L133.398 83.9559C133.318 83.9102 133.272 83.8188 133.272 83.7274C133.272 83.636 133.318 83.5445 133.398 83.4988L138.209 80.722C138.289 80.6763 138.392 80.6763 138.472 80.722L143.283 83.4988C143.363 83.5445 143.408 83.636 143.408 83.7274C143.408 83.8188 143.363 83.9102 143.283 83.9559L138.472 86.7328C138.426 86.7556 138.38 86.767 138.335 86.767ZM134.05 83.7274L138.335 86.2071L142.62 83.7274L138.335 81.2477L134.05 83.7274Z" fill="#6DCACE"/>
<path opacity="0.7" d="M33.054 69.5576L28.2432 66.7807L33.054 64.0039L37.8649 66.7807L33.054 69.5576Z" fill="#6DCACE"/>
<path d="M33.0545 69.8205C33.0087 69.8205 32.963 69.8091 32.9288 69.7862L28.1179 67.0094C28.0379 66.9637 27.9922 66.8723 27.9922 66.7809C27.9922 66.6894 28.0379 66.598 28.1179 66.5523L32.9288 63.7755C33.0087 63.7298 33.1116 63.7298 33.1916 63.7755L38.0024 66.5523C38.0824 66.598 38.1281 66.6894 38.1281 66.7809C38.1281 66.8723 38.0824 66.9637 38.0024 67.0094L33.1916 69.7862C33.1459 69.8091 33.1002 69.8205 33.0545 69.8205ZM28.7578 66.7809L33.043 69.2606L37.3282 66.7809L33.043 64.3012L28.7578 66.7809Z" fill="#6DCACE"/>
<path opacity="0.1" d="M74.0781 7.88495C74.0781 3.31406 77.2892 1.46281 81.243 3.74826C85.1968 6.03371 88.4078 11.5988 88.4078 16.1697C88.4078 20.7406 85.1968 22.5918 81.243 20.3063C77.2892 18.0095 74.0781 12.4558 74.0781 7.88495Z" fill="url(#paint0_linear_2_15155)"/>
<path opacity="0.3" d="M70.9238 9.69034C70.9238 5.11945 74.1349 3.26824 78.0887 5.55369C82.0425 7.83913 85.2536 13.4042 85.2536 17.9751C85.2536 22.546 82.0425 24.3972 78.0887 22.1117C74.1349 19.8149 70.9238 14.2612 70.9238 9.69034Z" fill="url(#paint1_linear_2_15155)"/>
<path opacity="0.48" d="M67.7704 11.496C67.7704 6.92511 70.9815 5.07391 74.9353 7.35935C78.8891 9.6448 82.1002 15.2099 82.1002 19.7808C82.1002 24.3516 78.8891 26.2029 74.9353 23.9174C70.9815 21.632 67.7704 16.0669 67.7704 11.496Z" fill="url(#paint2_linear_2_15155)"/>
<path d="M67.747 38.4184C67.1299 38.0641 67.1299 37.4927 67.747 37.1385C68.3641 36.7842 69.3582 36.7842 69.9639 37.1385C70.5809 37.4927 70.5809 38.0641 69.9639 38.4184C69.3582 38.7726 68.3641 38.7726 67.747 38.4184Z" fill="url(#paint3_linear_2_15155)"/>
<path d="M67.7468 38.3383C68.3639 38.6926 69.3581 38.6926 69.9637 38.3383C70.2494 38.1669 70.4094 37.9498 70.4208 37.7327C70.4436 37.9726 70.2837 38.224 69.9637 38.4069C69.3466 38.7611 68.3525 38.7611 67.7468 38.4069C67.4269 38.224 67.2783 37.9726 67.2897 37.7327C67.3126 37.9498 67.4611 38.1669 67.7468 38.3383Z" fill="white"/>
<path d="M67.747 41.4581C67.1299 41.1039 67.1299 40.5325 67.747 40.1783C68.3641 39.824 69.3582 39.824 69.9639 40.1783C70.5809 40.5325 70.5809 41.1039 69.9639 41.4581C69.3582 41.8124 68.3641 41.8124 67.747 41.4581Z" fill="url(#paint4_linear_2_15155)"/>
<path d="M67.747 44.5548C67.1299 44.2006 67.1299 43.6292 67.747 43.275C68.3641 42.9207 69.3582 42.9207 69.9639 43.275C70.5809 43.6292 70.5809 44.2006 69.9639 44.5548C69.3582 44.909 68.3641 44.909 67.747 44.5548Z" fill="url(#paint5_linear_2_15155)"/>
<path d="M70.4208 37.7784V36.1901C70.4208 36.4186 70.2722 36.6586 69.9637 36.83C69.3466 37.1842 68.3525 37.1842 67.7468 36.83C67.4497 36.6586 67.3012 36.43 67.2897 36.2129V29.5051H70.4208V49.2514C70.4208 50.1199 69.7237 50.8169 68.8553 50.8169C67.9868 50.8169 67.2897 50.1199 67.2897 49.2514V43.892C67.2783 44.132 67.4269 44.372 67.7468 44.5548C68.3639 44.9091 69.3581 44.9091 69.9637 44.5548C70.2722 44.3834 70.4208 44.1434 70.4208 43.9149V42.3265C70.4208 42.555 70.2722 42.795 69.9637 42.9664C69.3466 43.3207 68.3525 43.3207 67.7468 42.9664C67.4497 42.795 67.3012 42.5664 67.2897 42.3493V40.7952C67.2783 41.0352 67.4269 41.2752 67.7468 41.458C68.3639 41.8122 69.3581 41.8122 69.9637 41.458C70.2722 41.2866 70.4208 41.0466 70.4208 40.8181V39.2297C70.4208 39.4583 70.2722 39.6982 69.9637 39.8696C69.3466 40.2239 68.3525 40.2239 67.7468 39.8696C67.4497 39.6982 67.3012 39.4697 67.2897 39.2526V37.7442C67.2783 37.9841 67.4269 38.2241 67.7468 38.407C68.3639 38.7612 69.3581 38.7612 69.9637 38.407C70.2722 38.2355 70.4208 38.007 70.4208 37.7784Z" fill="url(#paint6_linear_2_15155)"/>
<path d="M67.7468 41.3781C68.3639 41.7323 69.3581 41.7323 69.9637 41.3781C70.2494 41.2067 70.4094 40.9896 70.4208 40.7725C70.4436 41.0124 70.2837 41.2638 69.9637 41.4467C69.3466 41.8009 68.3525 41.8009 67.7468 41.4467C67.4269 41.2638 67.2783 41.0124 67.2897 40.7725C67.3126 41.001 67.4611 41.2181 67.7468 41.3781Z" fill="white"/>
<path d="M67.7468 44.4863C68.3639 44.8405 69.3581 44.8405 69.9637 44.4863C70.2494 44.3148 70.4094 44.0977 70.4208 43.8806C70.4436 44.1206 70.2837 44.372 69.9637 44.5548C69.3466 44.9091 68.3525 44.9091 67.7468 44.5548C67.4269 44.372 67.2783 44.1206 67.2897 43.8806C67.3126 44.0977 67.4611 44.3148 67.7468 44.4863Z" fill="white"/>
<path opacity="0.48" d="M67.7468 36.8301C68.3639 37.1844 69.3581 37.1844 69.9637 36.8301C70.2722 36.6587 70.4208 36.4187 70.4208 36.1902V37.7786C70.4208 38.0071 70.2722 38.2357 69.9637 38.4185C69.3466 38.7728 68.3525 38.7728 67.7468 38.4185C67.4269 38.2357 67.2783 37.9957 67.2897 37.7557V36.213C67.3012 36.4301 67.4497 36.6587 67.7468 36.8301Z" fill="url(#paint7_linear_2_15155)"/>
<path opacity="0.48" d="M67.7468 39.8811C68.3639 40.2354 69.3581 40.2354 69.9637 39.8811C70.2722 39.7097 70.4208 39.4698 70.4208 39.2412V40.8296C70.4208 41.0581 70.2722 41.2867 69.9637 41.4695C69.3466 41.8237 68.3525 41.8237 67.7468 41.4695C67.4269 41.2867 67.2783 41.0467 67.2897 40.8067V39.2641C67.3012 39.4812 67.4497 39.6983 67.7468 39.8811Z" fill="url(#paint8_linear_2_15155)"/>
<path opacity="0.48" d="M67.7468 42.9778C68.3639 43.3321 69.3581 43.3321 69.9637 42.9778C70.2722 42.8064 70.4208 42.5664 70.4208 42.3379V43.9263C70.4208 44.1548 70.2722 44.3833 69.9637 44.5662C69.3466 44.9204 68.3525 44.9204 67.7468 44.5662C67.4269 44.3833 67.2783 44.1434 67.2897 43.9034V42.3607C67.3012 42.5778 67.4497 42.8064 67.7468 42.9778Z" fill="url(#paint9_linear_2_15155)"/>
<path d="M74.5234 27.0712C74.592 27.0255 74.672 26.9912 74.7405 26.9455L75.5062 22.6032L74.5463 16.8439L71.8723 13.9299L69.1184 11.2559L64.7303 9.43899L64.616 9.39328C64.4103 9.49612 64.2161 9.62184 64.0332 9.77039C62.9362 9.63327 61.8392 9.49612 60.7422 9.35899C60.925 8.90191 61.1421 8.49055 61.405 8.13631L60.8793 7.93059L62.8448 6.79931C62.8676 6.78788 62.8905 6.77644 62.9134 6.75359L62.9819 6.7079C64.6732 5.79372 66.97 5.9651 69.4954 7.42779C74.672 10.4217 78.8772 17.6894 78.8772 23.6773C78.8772 26.6484 77.8373 28.7396 76.169 29.7223L76.1575 29.7338C76.1347 29.7452 76.1232 29.7566 76.1004 29.7681L74.0206 30.9565L74.1235 30.3508C73.8607 30.3737 73.5978 30.3737 73.3236 30.3508C73.9064 29.3452 74.6948 28.2139 74.5234 27.0712Z" fill="url(#paint10_linear_2_15155)"/>
<path d="M60.1363 13.0843C60.1363 13.0044 60.1363 12.9244 60.1363 12.8444C60.1363 11.4845 60.3535 10.319 60.7534 9.34766C61.8504 9.48478 62.9474 9.62189 64.0445 9.75902C62.9931 10.5932 62.3532 12.0787 62.3532 14.1128C62.3532 18.6837 65.5643 24.2487 69.5181 26.5342C71.4722 27.6655 73.2434 27.7798 74.5346 27.0599C74.7061 28.2026 73.9176 29.3339 73.3462 30.3509C72.4777 30.2937 71.5407 30.0538 70.5465 29.6081L70.8551 29.951C70.8551 29.951 66.9584 28.6025 66.8784 28.5111C66.7984 28.4197 62.2504 23.8374 62.2504 23.8374L59.2793 17.4381L60.1363 13.0843Z" fill="url(#paint11_linear_2_15155)"/>
<path opacity="0.5" d="M61.0625 15.0727C61.0625 10.5018 64.2736 8.65057 68.2274 10.936C72.1812 13.2215 75.3923 18.7865 75.3923 23.3574C75.3923 27.9283 72.1812 29.7795 68.2274 27.4941C64.2736 25.1972 61.0625 19.6436 61.0625 15.0727Z" fill="url(#paint12_linear_2_15155)"/>
<path opacity="0.48" d="M61.6905 14.7299C61.6905 10.159 64.9015 8.30779 68.8553 10.5932C72.8092 12.8787 76.0202 18.4437 76.0202 23.0146C76.0202 27.5855 72.8092 29.4367 68.8553 27.1513C64.9015 24.8658 61.6905 19.3008 61.6905 14.7299Z" fill="url(#paint13_linear_2_15155)"/>
<path d="M58.0684 14.0327C58.0684 20.0091 62.2736 27.2883 67.4501 30.2822C72.6267 33.2762 76.8319 30.8536 76.8319 24.8657C76.8319 18.8779 72.6267 11.6101 67.4501 8.61621C62.2736 5.62227 58.0684 8.05626 58.0684 14.0327ZM60.2852 15.3126C60.2852 10.7417 63.4963 8.89045 67.4501 11.1759C71.4039 13.4613 74.615 19.0264 74.615 23.5973C74.615 28.1682 71.4039 30.0194 67.4501 27.734C63.4963 25.4371 60.2852 19.8835 60.2852 15.3126Z" fill="#BEBDDF"/>
<path d="M58.0684 14.0327C58.0684 20.0091 62.2736 27.2883 67.4501 30.2822C72.6267 33.2762 76.8319 30.8536 76.8319 24.8657C76.8319 18.8779 72.6267 11.6101 67.4501 8.61621C62.2736 5.62227 58.0684 8.05626 58.0684 14.0327ZM60.2852 15.3126C60.2852 10.7417 63.4963 8.89045 67.4501 11.1759C71.4039 13.4613 74.615 19.0264 74.615 23.5973C74.615 28.1682 71.4039 30.0194 67.4501 27.734C63.4963 25.4371 60.2852 19.8835 60.2852 15.3126Z" fill="#BEBDDF"/>
<path d="M76.6823 25.0258C76.6823 19.0379 72.4771 11.7702 67.3006 8.77629C64.1124 6.9365 61.3013 7.15361 59.5986 8.98197C61.2784 7.00506 64.1581 6.7308 67.4377 8.61629C72.6143 11.6102 76.8195 18.8779 76.8195 24.8658C76.8195 27.1627 76.2024 28.9339 75.1397 30.0766C76.1224 28.9339 76.6823 27.2198 76.6823 25.0258Z" fill="white"/>
<path d="M67.3123 27.8826C63.3585 25.5972 60.1475 20.0321 60.1475 15.4612C60.1475 13.69 60.6274 12.3301 61.4502 11.4617C60.7188 12.3416 60.2846 13.6443 60.2846 15.3012C60.2846 19.8721 63.4956 25.4372 67.4495 27.7226C69.872 29.1282 72.0204 28.9682 73.3116 27.5855C72.0318 29.1168 69.8263 29.3453 67.3123 27.8826Z" fill="white"/>
<path d="M95.079 82.8247C94.4848 82.8247 93.8906 82.6761 93.3535 82.3676L53.9752 59.6388C53.781 59.5246 53.6553 59.3189 53.6553 59.0903C53.6553 58.8618 53.7695 58.6561 53.9752 58.5418L78.4409 44.4178C78.4752 44.3949 78.5095 44.3949 78.5438 44.4178L119.59 68.1178C119.785 68.2321 119.91 68.4378 119.91 68.6664C119.91 68.8949 119.796 69.1006 119.59 69.2148L96.7931 82.379C96.2674 82.6647 95.6732 82.8247 95.079 82.8247ZM78.4981 44.612L54.0895 58.7018C53.9524 58.7818 53.8724 58.9189 53.8724 59.0789C53.8724 59.2389 53.9524 59.376 54.0895 59.456L93.4678 82.1848C94.4619 82.7676 95.7075 82.7676 96.7131 82.1848L119.51 69.0206C119.648 68.9406 119.728 68.8035 119.728 68.6435C119.728 68.4835 119.648 68.3464 119.51 68.2664L78.4981 44.612Z" fill="#6DCACE"/>
<path d="M79.7791 34.076L85.2642 1.53128L84.8185 1.34844L85.4813 0.971318C85.607 0.891327 85.7898 0.891326 85.9955 1.0056L129.83 26.3169C130.196 26.5226 130.459 27.0597 130.402 27.4254L124.871 60.233C124.837 60.4044 124.757 60.5186 124.642 60.5643L123.991 60.9414L123.877 60.3358L123.911 60.3472L80.3391 35.1845C79.9848 34.9902 79.7106 34.4531 79.7791 34.076Z" fill="url(#paint14_linear_2_15155)"/>
<path d="M129.59 27.2081L130.31 26.8882C130.39 27.071 130.435 27.2653 130.401 27.4253L124.87 60.2329C124.836 60.4043 124.756 60.5185 124.642 60.5642L123.991 60.9414L123.876 60.3357L123.911 60.3471L121.705 59.0787L129.59 27.2081Z" fill="url(#paint15_linear_2_15155)"/>
<path d="M79.6531 35.5845L123.488 60.8958C123.831 61.0901 124.117 60.9758 124.174 60.633L129.704 27.8254C129.773 27.4483 129.499 26.9227 129.133 26.717L85.2982 1.40567C84.9554 1.21141 84.6697 1.3257 84.6126 1.66851L79.0818 34.4761C79.0246 34.8418 79.2989 35.3788 79.6531 35.5845Z" fill="#282567"/>
<g opacity="0.51">
<path opacity="0.51" d="M85.8807 3.49683L128.139 27.894L122.894 58.7932L80.6699 34.4075L85.8807 3.49683Z" fill="#47419A"/>
</g>
<path d="M52.1016 51.1138L54.4899 52.3594L78.4756 38.5096C78.8756 38.281 79.5726 38.3039 80.0411 38.5781L121.419 62.4725C121.819 62.2554 123.625 61.3869 123.625 61.3869L122.745 63.6723C122.71 63.7752 122.63 63.8666 122.505 63.9466L97.2391 78.5392C96.8392 78.7677 96.1421 78.7449 95.6736 78.4706L53.3357 54.0278C53.1414 53.9135 53.0272 53.7878 52.9815 53.6507L52.1016 51.1138Z" fill="url(#paint16_linear_2_15155)"/>
<path d="M52.4664 51.5139L95.8556 76.5624C96.3355 76.8366 97.044 76.8709 97.4554 76.6309L123.35 61.6841C123.761 61.4441 123.704 61.0328 123.235 60.7585L79.846 35.71C79.3661 35.4357 78.6576 35.4015 78.2462 35.6414L52.3521 50.5883C51.9407 50.8168 51.9979 51.2396 52.4664 51.5139Z" fill="url(#paint17_linear_2_15155)"/>
<path d="M108.951 71.1459V70.666C108.951 70.6203 108.928 70.5974 108.894 70.6203L107.214 71.5916C107.18 71.6145 107.157 71.6601 107.157 71.7059V72.1858C107.157 72.2315 107.18 72.2544 107.214 72.2315L108.894 71.2602C108.928 71.2488 108.951 71.1916 108.951 71.1459Z" fill="#2E469D"/>
<path d="M106.437 72.5971V72.1172C106.437 72.0715 106.414 72.0486 106.38 72.0715L104.7 73.0428C104.665 73.0656 104.643 73.1114 104.643 73.1571V73.637C104.643 73.6827 104.665 73.7056 104.7 73.6827L106.38 72.7114C106.414 72.6885 106.437 72.6428 106.437 72.5971Z" fill="#2E469D"/>
<path d="M116.608 60.2785L80.5436 39.4581C80.3036 39.3209 80.0065 39.3209 79.7665 39.4581L66.9223 46.8858C66.7394 46.9886 66.7394 47.2629 66.9223 47.3657L102.964 68.1747C103.204 68.3118 103.501 68.3118 103.741 68.1747L116.596 60.7584C116.791 60.6556 116.791 60.3928 116.608 60.2785Z" fill="#B0B0D8"/>
<path d="M116.608 60.7584L116.482 60.8384L80.5553 40.098C80.3153 39.9609 80.0182 39.9609 79.7782 40.098L67.0711 47.4571L66.934 47.3657C66.7512 47.2629 66.7512 46.9886 66.934 46.8858L79.7782 39.4581C80.0182 39.3209 80.3153 39.3209 80.5553 39.4581L116.62 60.2785C116.791 60.3928 116.791 60.6556 116.608 60.7584Z" fill="#9397CB"/>
<path d="M78.8066 41.3436L110.129 59.4329L111.523 58.6216L80.2008 40.5437L78.8066 41.3436Z" fill="#282567"/>
<path d="M75.3906 43.309L104.77 60.2784L106.164 59.4785L76.7847 42.509L75.3906 43.309Z" fill="#282567"/>
<path d="M73.1621 44.6004L107.764 64.5752L109.158 63.7639L74.5563 43.7891L73.1621 44.6004Z" fill="#282567"/>
<path d="M70.9453 45.8802L105.536 65.855L106.93 65.0551L72.3394 45.0803L70.9453 45.8802Z" fill="#282567"/>
<path d="M68.7168 47.1714L103.307 67.1348L104.701 66.3349L70.1109 46.3601L68.7168 47.1714Z" fill="#282567"/>
<path d="M112.026 60.5187L113.42 61.33L114.803 60.5187L113.42 59.7188L112.026 60.5187Z" fill="#282567"/>
<path d="M107.113 61.6271L110.004 63.2954L111.398 62.4955L108.507 60.8271L107.113 61.6271Z" fill="#282567"/>
<path d="M79.1597 65.3179L69.4352 59.7071C69.0581 59.49 69.0581 59.1357 69.4352 58.9072L76.0858 55.0676C76.4629 54.8505 77.08 54.8505 77.4571 55.0676L87.1817 60.6784C87.5588 60.8955 87.5588 61.2498 87.1817 61.4783L80.531 65.3179C80.1539 65.535 79.5368 65.535 79.1597 65.3179Z" fill="url(#paint18_linear_2_15155)"/>
<path d="M87.1822 61.0098L77.4576 55.3991C77.0805 55.1819 76.4634 55.1819 76.0864 55.3991L69.4357 59.2386C69.3214 59.3072 69.2414 59.3872 69.1957 59.4786C69.0929 59.2843 69.1729 59.0672 69.4357 58.9186L76.0864 55.0791C76.4634 54.862 77.0805 54.862 77.4576 55.0791L87.1822 60.6899C87.445 60.8384 87.525 61.0555 87.4222 61.2498C87.3765 61.1584 87.3079 61.0784 87.1822 61.0098Z" fill="#9397CB"/>
<g opacity="0.11">
<g opacity="0.11">
<path opacity="0.11" d="M79.813 35.653L123.202 60.7015C123.682 60.9758 124.391 61.0101 124.802 60.7701L150.696 45.8233C151.108 45.5833 151.05 45.1719 150.582 44.8976L107.193 19.8492C106.713 19.5749 106.004 19.5406 105.593 19.7806L79.6987 34.7274C79.2874 34.956 79.3331 35.3788 79.813 35.653Z" fill="url(#paint19_linear_2_15155)"/>
<path opacity="0.11" d="M123.339 40.144L113.615 34.5332C113.238 34.3161 113.238 33.9619 113.615 33.7334L120.266 29.8938C120.643 29.6767 121.26 29.6767 121.637 29.8938L131.361 35.5046C131.738 35.7217 131.738 36.0759 131.361 36.3045L124.711 40.144C124.334 40.3611 123.717 40.3611 123.339 40.144Z" fill="url(#paint20_linear_2_15155)"/>
<path opacity="0.11" d="M131.361 35.8358L121.636 30.225C121.259 30.0079 120.642 30.0079 120.265 30.225L113.614 34.0645C113.5 34.1331 113.42 34.2131 113.374 34.3045C113.272 34.1103 113.352 33.8931 113.614 33.7446L120.265 29.905C120.642 29.6879 121.259 29.6879 121.636 29.905L131.361 35.5158C131.624 35.6644 131.704 35.8815 131.601 36.0757C131.555 35.9843 131.475 35.9043 131.361 35.8358Z" fill="#9397CB"/>
<g opacity="0.11">
<path opacity="0.11" d="M135.634 48.9086L99.5699 28.0882C99.3299 27.9511 99.0328 27.9511 98.7929 28.0882L85.9487 35.5159C85.7658 35.6187 85.7658 35.893 85.9487 35.9958L121.99 56.8048C122.23 56.942 122.527 56.942 122.767 56.8048L135.623 49.3885C135.817 49.2857 135.817 49.0229 135.634 48.9086Z" fill="#B0B0D8"/>
<path opacity="0.11" d="M135.634 49.3886L135.508 49.4686L99.5809 28.7282C99.341 28.591 99.0439 28.591 98.8039 28.7282L86.0968 36.0873L85.9711 36.0073C85.7883 35.9045 85.7883 35.6302 85.9711 35.5274L98.8153 28.0997C99.0553 27.9625 99.3524 27.9625 99.5924 28.0997L135.657 48.9201C135.817 49.0229 135.817 49.2857 135.634 49.3886Z" fill="#9397CB"/>
<g opacity="0.11">
<path opacity="0.11" d="M89.3197 35.0132L120.733 53.1596L119.488 53.8681L88.0741 35.7331L89.3197 35.0132Z" fill="#282567"/>
<path opacity="0.11" d="M92.6225 33.1047L122.482 50.3484L121.236 51.0683L91.3769 33.8247L92.6225 33.1047Z" fill="#282567"/>
<path opacity="0.11" d="M124.711 51.6282L127.499 53.2394L126.265 53.9593L123.476 52.3481L124.711 51.6282Z" fill="#282567"/>
<path opacity="0.11" d="M122.252 54.0278L124.195 55.1592L122.949 55.8676L121.007 54.7478L122.252 54.0278Z" fill="#282567"/>
<path opacity="0.11" d="M94.7025 31.9048L129.578 52.051L128.333 52.7595L93.4569 32.6247L94.7025 31.9048Z" fill="#282567"/>
<path opacity="0.11" d="M96.7709 30.7163L131.647 50.8511L130.413 51.571L95.5253 31.4248L96.7709 30.7163Z" fill="#282567"/>
<path opacity="0.11" d="M98.8499 29.5166L133.726 49.6514L132.48 50.3713L97.6044 30.2365L98.8499 29.5166Z" fill="#282567"/>
</g>
</g>
</g>
</g>
<path opacity="0.42" d="M99.9025 58.4276L109.25 52.6683L88.2353 40.5439L78.3165 47.206L99.9025 58.4276Z" fill="url(#paint21_radial_2_15155)"/>
<path opacity="0.42" d="M109.251 52.6683L111.399 39.1499L91.6758 27.8369V42.498L109.251 52.6683Z" fill="url(#paint22_radial_2_15155)"/>
<path d="M89.6055 21.2661L91.6966 20.0662C91.7195 20.0434 91.7652 20.0434 91.7995 20.0662L117.945 35.1616C118.025 35.2073 118.105 35.3444 118.105 35.4587V40.3953C118.105 40.4524 118.094 40.4867 118.059 40.5096C118.059 40.5096 118.059 40.5096 118.048 40.5096L115.945 41.7208L115.934 39.3325L91.8109 25.4027C91.7309 25.357 91.6509 25.2199 91.6509 25.1056V23.4144L89.6055 21.2661Z" fill="url(#paint23_linear_2_15155)"/>
<path d="M89.6971 26.6255L115.843 41.7208C115.923 41.7665 116.003 41.7208 116.003 41.6066V36.67C116.003 36.5557 115.934 36.4186 115.843 36.3729L89.6971 21.2775C89.6171 21.2318 89.5371 21.2775 89.5371 21.3918V26.3283C89.5485 26.4426 89.6171 26.5683 89.6971 26.6255Z" fill="url(#paint24_linear_2_15155)"/>
<path opacity="0.6" d="M93.3082 25.6199L113.671 37.5956C113.043 38.1327 112.449 38.7612 111.9 39.4354L91.377 27.5968C91.9712 26.854 92.6225 26.1912 93.3082 25.6199Z" fill="#282567"/>
<path d="M90.4398 25.1399L115.1 39.3783C115.157 39.4126 115.203 39.3783 115.203 39.2983V38.0527C115.203 37.9727 115.157 37.8813 115.1 37.8471L90.4398 23.6087C90.3826 23.5744 90.3369 23.6087 90.3369 23.6887V24.9343C90.3369 25.0142 90.3826 25.1057 90.4398 25.1399Z" fill="#282567"/>
<path d="M90.4398 23.6201L90.9426 23.9058V24.58C90.9426 24.66 90.9883 24.7514 91.0454 24.7857L115.203 38.7269V39.2983C115.203 39.3783 115.157 39.4126 115.1 39.3783L90.4398 25.1399C90.3826 25.1057 90.3369 25.0143 90.3369 24.9343V23.6887C90.3369 23.6201 90.3826 23.5859 90.4398 23.6201Z" fill="#47419A"/>
<path opacity="0.96" d="M76.59 78.5507L56.0781 66.7007C58.7292 65.1695 60.9576 61.8327 61.6318 58.633C61.906 57.3418 62.7059 56.2105 63.8486 55.5477L79.344 46.6002C83.6635 44.109 86.4631 39.6181 86.7488 34.6473C87.0002 30.4421 90.177 26.3168 92.6338 24.8884L113.146 36.7271C110.712 38.1326 108.038 42.0521 107.741 46.1774C107.375 51.1482 104.667 55.662 100.347 58.1531L84.3491 67.3863C83.2064 68.0491 82.4065 69.169 82.1322 70.4717C81.4694 73.6713 79.2411 77.0195 76.59 78.5507Z" fill="url(#paint25_linear_2_15155)"/>
<g opacity="0.32">
<path opacity="0.32" d="M99.1123 39.801L101.763 41.3437V41.0466L99.1123 39.5039V39.801Z" fill="#4E5AA8"/>
<path opacity="0.32" d="M97.7402 39.0125L98.7001 39.5724V39.2753L97.7402 38.7268V39.0125Z" fill="#4E5AA8"/>
<path opacity="0.32" d="M96.6895 38.407L97.3408 38.7841V38.487L96.6895 38.1099V38.407Z" fill="#4E5AA8"/>
<path opacity="0.32" d="M100.312 41.1838L101.764 42.018V41.7209L100.312 40.8867V41.1838Z" fill="#4E5AA8"/>
<path opacity="0.32" d="M98.1406 39.9153L99.9118 40.9438V40.6466L98.1406 39.6296V39.9153Z" fill="#4E5AA8"/>
<path opacity="0.32" d="M97.0781 39.3096L97.7295 39.6867V39.3895L97.0781 39.0125V39.3096Z" fill="#4E5AA8"/>
<path opacity="0.32" d="M96.0723 38.7268L96.7236 39.1039V38.8068L96.0723 38.4297V38.7268Z" fill="#4E5AA8"/>
<path opacity="0.32" d="M100.713 42.0864L101.764 42.6921V42.3949L100.713 41.7893V42.0864Z" fill="#4E5AA8"/>
<path opacity="0.32" d="M99.957 41.6409L100.311 41.858V41.5609L99.957 41.3552V41.6409Z" fill="#4E5AA8"/>
<path opacity="0.32" d="M98.8945 41.0351L99.5459 41.4122V41.1151L98.8945 40.738V41.0351Z" fill="#4E5AA8"/>
<path opacity="0.32" d="M97.9004 41.1379L101.763 43.3662V43.0691L97.9004 40.8408V41.1379Z" fill="#4E5AA8"/>
<path opacity="0.32" d="M96.5303 40.3496L97.4902 40.8981V40.601L96.5303 40.0525V40.3496Z" fill="#4E5AA8"/>
<path opacity="0.32" d="M100.713 43.4349L101.764 44.0405V43.7548L100.713 43.1492V43.4349Z" fill="#4E5AA8"/>
<path opacity="0.32" d="M98.2549 42.0178L100.312 43.2062V42.9091L98.2549 41.7207V42.0178Z" fill="#4E5AA8"/>
<path opacity="0.32" d="M97.2041 41.4124L97.8555 41.7894V41.4923L97.2041 41.1152V41.4124Z" fill="#4E5AA8"/>
<path opacity="0.32" d="M99.627 43.4807L101.764 44.7263V44.4292L99.627 43.1836V43.4807Z" fill="#4E5AA8"/>
<path opacity="0.32" d="M97.6611 42.3494L99.2152 43.2522V42.9551L97.6611 42.0637V42.3494Z" fill="#4E5AA8"/>
<path opacity="0.32" d="M96.21 41.5151L97.2613 42.1208V41.8237L96.21 41.218V41.5151Z" fill="#4E5AA8"/>
<path opacity="0.32" d="M101.043 44.9775L101.763 45.4003V45.1032L101.043 44.6804V44.9775Z" fill="#4E5AA8"/>
<path opacity="0.32" d="M99.6719 44.1892L100.632 44.7491V44.452L99.6719 43.8921V44.1892Z" fill="#4E5AA8"/>
<path opacity="0.32" d="M97.7295 43.0691L99.2722 43.9604V43.6633L97.7295 42.772V43.0691Z" fill="#4E5AA8"/>
<path opacity="0.32" d="M99.5459 44.7947L101.763 46.0745V45.7774L99.5459 44.4976V44.7947Z" fill="#4E5AA8"/>
<path opacity="0.32" d="M97.0664 43.355L99.1347 44.5549V44.2692L97.0664 43.0693V43.355Z" fill="#4E5AA8"/>
<path opacity="0.32" d="M96.004 42.7492L96.6553 43.1264V42.8292L96.004 42.4521V42.7492Z" fill="#4E5AA8"/>
<path opacity="0.32" d="M94.9863 42.1665L95.6377 42.5436V42.2465L94.9863 41.8694V42.1665Z" fill="#4E5AA8"/>
<path opacity="0.32" d="M100.438 45.9832L101.763 46.7488V46.4517L100.438 45.686V45.9832Z" fill="#4E5AA8"/>
<path opacity="0.32" d="M93.7184 36.6929L91.8672 35.6301V35.333L93.7184 36.3957V36.6929Z" fill="#4E5AA8"/>
<path opacity="0.32" d="M93.3185 37.1384L91.8672 36.3042V36.0071L93.3185 36.8413V37.1384Z" fill="#4E5AA8"/>
<path opacity="0.32" d="M92.9186 37.5842L91.8672 36.9785V36.6814L92.9186 37.287V37.5842Z" fill="#4E5AA8"/>
<path opacity="0.32" d="M93.3985 38.5327L91.8672 37.6528V37.3557L93.3985 38.2356V38.5327Z" fill="#4E5AA8"/>
<path opacity="0.32" d="M92.9186 38.944L91.8672 38.3384V38.0413L92.9186 38.6469V38.944Z" fill="#4E5AA8"/>
<path opacity="0.32" d="M93.2042 39.7781L91.8672 39.0125V38.7153L93.2042 39.481V39.7781Z" fill="#4E5AA8"/>
<path opacity="0.32" d="M92.5986 40.1096L91.8672 39.6868V39.3896L92.5986 39.8125V40.1096Z" fill="#4E5AA8"/>
<path opacity="0.32" d="M93.2728 41.1724L91.8672 40.3611V40.064L93.2728 40.8753V41.1724Z" fill="#4E5AA8"/>
<path opacity="0.32" d="M93.2042 41.8123L91.8672 41.0352V40.7495L93.2042 41.5152V41.8123Z" fill="#4E5AA8"/>
<path opacity="0.32" d="M99.4668 45.4233L100.027 45.7547V45.4576L99.4668 45.1262V45.4233Z" fill="#4E5AA8"/>
<path opacity="0.32" d="M97.787 44.4519L99.0555 45.1947V44.8975L97.787 44.1548V44.4519Z" fill="#4E5AA8"/>
</g>
<path opacity="0.8" d="M92.6574 24.8884L113.169 36.7271C113.009 36.8185 112.838 36.9213 112.678 37.0356L92.166 25.197C92.326 25.0941 92.486 24.9913 92.6574 24.8884Z" fill="#47419A"/>
<path d="M73.0031 35.116H79.5509V49.0915C79.5509 49.5714 79.231 50.0628 78.591 50.4285C77.3112 51.1712 75.2428 51.1712 73.963 50.4285C73.3231 50.0628 73.0031 49.5714 73.0031 49.0915V35.116Z" fill="url(#paint26_linear_2_15155)"/>
<path d="M73.0031 35.116H79.5509V49.0915C79.5509 49.5714 79.231 50.0628 78.591 50.4285C77.3112 51.1712 75.2428 51.1712 73.963 50.4285C73.3231 50.0628 73.0031 49.5714 73.0031 49.0915V35.116Z" fill="url(#paint27_linear_2_15155)"/>
<path d="M73.9631 36.453C75.243 37.1958 77.3113 37.1958 78.5912 36.453C79.871 35.7102 79.871 34.5218 78.5912 33.779C77.3113 33.0362 75.243 33.0362 73.9631 33.779C72.6947 34.5218 72.6947 35.7217 73.9631 36.453Z" fill="url(#paint28_linear_2_15155)"/>
<path opacity="0.3" d="M74.7861 35.9844C75.6088 36.4644 76.9458 36.4644 77.7686 35.9844C78.5913 35.5045 78.5913 34.7388 77.7686 34.2589C76.9458 33.7789 75.6088 33.7789 74.7861 34.2589C73.9633 34.7274 73.9633 35.5045 74.7861 35.9844Z" fill="url(#paint29_linear_2_15155)"/>
<path opacity="0.5" d="M73.9628 36.3158C75.2427 37.0585 77.311 37.0585 78.5909 36.3158C79.1965 35.9615 79.5165 35.5045 79.5393 35.0474C79.5736 35.5502 79.2537 36.0644 78.5909 36.4529C77.311 37.1957 75.2427 37.1957 73.9628 36.4529C73.2886 36.0644 72.9801 35.5502 73.0144 35.0474C73.0487 35.5045 73.3572 35.9615 73.9628 36.3158Z" fill="white"/>
<path d="M73.003 32.0879H79.5508V33.3677C79.5508 33.8477 79.2309 34.3391 78.5909 34.7047C77.3111 35.4475 75.2428 35.4475 73.9629 34.7047C73.323 34.3391 73.003 33.8477 73.003 33.3677V32.0879Z" fill="url(#paint30_linear_2_15155)"/>
<path d="M73.003 32.0879H79.5508V33.3677C79.5508 33.8477 79.2309 34.3391 78.5909 34.7047C77.3111 35.4475 75.2428 35.4475 73.9629 34.7047C73.323 34.3391 73.003 33.8477 73.003 33.3677V32.0879Z" fill="url(#paint31_linear_2_15155)"/>
<path d="M73.963 33.4134C75.2429 34.1562 77.3112 34.1562 78.5911 33.4134C79.8709 32.6706 79.8709 31.4822 78.5911 30.7395C77.3112 29.9967 75.2429 29.9967 73.963 30.7395C72.6946 31.4822 72.6946 32.6821 73.963 33.4134Z" fill="url(#paint32_linear_2_15155)"/>
<path opacity="0.5" d="M73.9627 33.2763C75.2426 34.019 77.3109 34.019 78.5908 33.2763C79.1964 32.922 79.5164 32.4649 79.5392 32.0078C79.5735 32.5106 79.2536 33.0248 78.5908 33.4134C77.3109 34.1561 75.2426 34.1561 73.9627 33.4134C73.2885 33.0248 72.98 32.5106 73.0143 32.0078C73.0486 32.4763 73.3571 32.922 73.9627 33.2763Z" fill="white"/>
<path d="M78.4198 42.8979H84.9676V52.2111C84.9676 52.6911 84.6476 53.1825 84.0077 53.5481C82.7279 54.2909 80.6595 54.2909 79.3797 53.5481C78.7398 53.1825 78.4198 52.6911 78.4198 52.2111V42.8979Z" fill="url(#paint33_linear_2_15155)"/>
<path d="M78.4198 42.8979H84.9676V52.2111C84.9676 52.6911 84.6476 53.1825 84.0077 53.5481C82.7279 54.2909 80.6595 54.2909 79.3797 53.5481C78.7398 53.1825 78.4198 52.6911 78.4198 52.2111V42.8979Z" fill="url(#paint34_linear_2_15155)"/>
<path d="M81.688 44.7834C83.493 44.7834 84.9562 43.9393 84.9562 42.8979C84.9562 41.8566 83.493 41.0125 81.688 41.0125C79.8831 41.0125 78.4199 41.8566 78.4199 42.8979C78.4199 43.9393 79.8831 44.7834 81.688 44.7834Z" fill="url(#paint35_linear_2_15155)"/>
<path opacity="0.5" d="M79.3797 44.0863C80.6595 44.8291 82.7279 44.8291 84.0077 44.0863C84.6133 43.7321 84.9333 43.275 84.9562 42.8179C84.9904 43.3207 84.6705 43.8349 84.0077 44.2234C82.7279 44.9662 80.6595 44.9662 79.3797 44.2234C78.7055 43.8349 78.3969 43.3207 78.4312 42.8179C78.4541 43.2864 78.774 43.7435 79.3797 44.0863Z" fill="white"/>
<path d="M83.8242 41.241H90.372V55.3307C90.372 55.8107 90.0521 56.3021 89.4121 56.6677C88.1323 57.4105 86.064 57.4105 84.7841 56.6677C84.1442 56.3021 83.8242 55.8107 83.8242 55.3307V41.241Z" fill="url(#paint36_linear_2_15155)"/>
<path d="M83.8242 41.241H90.372V55.3307C90.372 55.8107 90.0521 56.3021 89.4121 56.6677C88.1323 57.4105 86.064 57.4105 84.7841 56.6677C84.1442 56.3021 83.8242 55.8107 83.8242 55.3307V41.241Z" fill="url(#paint37_linear_2_15155)"/>
<path d="M87.1031 43.1265C88.9081 43.1265 90.3713 42.2823 90.3713 41.241C90.3713 40.1997 88.9081 39.3555 87.1031 39.3555C85.2982 39.3555 83.835 40.1997 83.835 41.241C83.835 42.2823 85.2982 43.1265 87.1031 43.1265Z" fill="url(#paint38_linear_2_15155)"/>
<path opacity="0.5" d="M84.785 42.4408C86.0649 43.1836 88.1332 43.1836 89.413 42.4408C90.0187 42.0866 90.3386 41.6295 90.3615 41.1724C90.3958 41.6752 90.0758 42.1894 89.413 42.5779C88.1332 43.3207 86.0649 43.3207 84.785 42.5779C84.1108 42.1894 83.8023 41.6752 83.8366 41.1724C83.8594 41.6295 84.1794 42.0866 84.785 42.4408Z" fill="white"/>
<path d="M89.2411 46.9089H95.7889V58.4619C95.7889 58.9418 95.469 59.4332 94.829 59.7989C93.5492 60.5416 91.4809 60.5416 90.201 59.7989C89.5611 59.4332 89.2411 58.9418 89.2411 58.4619V46.9089Z" fill="url(#paint39_linear_2_15155)"/>
<path d="M89.2411 46.9089H95.7889V58.4619C95.7889 58.9418 95.469 59.4332 94.829 59.7989C93.5492 60.5416 91.4809 60.5416 90.201 59.7989C89.5611 59.4332 89.2411 58.9418 89.2411 58.4619V46.9089Z" fill="url(#paint40_linear_2_15155)"/>
<path d="M90.201 48.2459C91.4809 48.9887 93.5492 48.9887 94.829 48.2459C96.1089 47.5032 96.1089 46.3147 94.829 45.572C93.5492 44.8292 91.4809 44.8292 90.201 45.572C88.9212 46.3033 88.9212 47.5032 90.201 48.2459Z" fill="url(#paint41_linear_2_15155)"/>
<path opacity="0.5" d="M90.2019 48.0975C91.4818 48.8403 93.5501 48.8403 94.8299 48.0975C95.4356 47.7433 95.7555 47.2862 95.7784 46.8291C95.8127 47.3319 95.4927 47.8461 94.8299 48.2347C93.5501 48.9774 91.4818 48.9774 90.2019 48.2347C89.5277 47.8461 89.2192 47.3319 89.2535 46.8291C89.2763 47.2976 89.5848 47.7547 90.2019 48.0975Z" fill="white"/>
<path d="M94.6466 52.874H101.194V61.5701C101.194 62.0501 100.874 62.5415 100.234 62.9071C98.9546 63.6499 96.8863 63.6499 95.6065 62.9071C94.9665 62.5415 94.6466 62.0501 94.6466 61.5701V52.874Z" fill="url(#paint42_linear_2_15155)"/>
<path d="M94.6466 52.874H101.194V61.5701C101.194 62.0501 100.874 62.5415 100.234 62.9071C98.9546 63.6499 96.8863 63.6499 95.6065 62.9071C94.9665 62.5415 94.6466 62.0501 94.6466 61.5701V52.874Z" fill="url(#paint43_linear_2_15155)"/>
<path d="M97.9147 54.7595C99.7196 54.7595 101.183 53.9153 101.183 52.874C101.183 51.8327 99.7196 50.9885 97.9147 50.9885C96.1097 50.9885 94.6465 51.8327 94.6465 52.874C94.6465 53.9153 96.1097 54.7595 97.9147 54.7595Z" fill="url(#paint44_linear_2_15155)"/>
<path opacity="0.5" d="M95.6073 54.0624C96.8871 54.8051 98.9555 54.8051 100.235 54.0624C100.841 53.7081 101.161 53.251 101.184 52.7939C101.218 53.2967 100.898 53.811 100.235 54.1995C98.9555 54.9423 96.8871 54.9423 95.6073 54.1995C94.9331 53.811 94.6245 53.2967 94.6588 52.7939C94.6817 53.2625 95.0016 53.7195 95.6073 54.0624Z" fill="white"/>
<path d="M124.119 29.4138L124.748 29.8138L124.828 29.3567L124.199 28.9453L124.119 29.4138Z" fill="#6DCACE"/>
<path d="M123.615 32.5792L124.244 32.9792L124.678 30.248L124.049 29.8367L123.615 32.5792Z" fill="#6DCACE"/>
<path d="M123.376 34.0876L124.004 34.4875L124.176 33.4019L123.547 33.002L123.376 34.0876Z" fill="#6DCACE"/>
<path d="M123.125 35.653L123.754 36.0529L123.925 34.9673L123.296 34.5674L123.125 35.653Z" fill="#6DCACE"/>
<path d="M122.93 30.328L123.57 30.728L123.741 29.6424L123.113 29.2424L122.93 30.328Z" fill="#6DCACE"/>
<path d="M122.599 32.3962L123.239 32.7962L123.49 31.2078L122.862 30.8079L122.599 32.3962Z" fill="#6DCACE"/>
<path d="M122.302 34.3047L122.93 34.7046L123.147 33.3448L122.519 32.9448L122.302 34.3047Z" fill="#6DCACE"/>
<path d="M122.873 37.2186L123.502 37.6186L123.673 36.533L123.044 36.1331L122.873 37.2186Z" fill="#6DCACE"/>
<path d="M123.182 28.8196L123.81 29.2196L123.89 28.751L123.25 28.3511L123.182 28.8196Z" fill="#6DCACE"/>
<path d="M122.151 38.4298L123.26 39.1383L123.328 38.6812L122.22 37.9841L122.151 38.4298Z" fill="#6DCACE"/>
<defs>
<linearGradient id="paint0_linear_2_15155" x1="88.4209" y1="12.019" x2="74.0827" y2="12.019" gradientUnits="userSpaceOnUse">
<stop stop-color="#6DCACE"/>
<stop offset="0.1324" stop-color="#6DC5CC"/>
<stop offset="0.2886" stop-color="#6BBCCA"/>
<stop offset="0.4568" stop-color="#67ADC6"/>
<stop offset="0.6335" stop-color="#6399BF"/>
<stop offset="0.8167" stop-color="#5F7FB6"/>
<stop offset="1" stop-color="#5A64AD"/>
</linearGradient>
<linearGradient id="paint1_linear_2_15155" x1="85.2641" y1="13.8273" x2="70.9259" y2="13.8273" gradientUnits="userSpaceOnUse">
<stop stop-color="#6DCACE"/>
<stop offset="0.1324" stop-color="#6DC5CC"/>
<stop offset="0.2886" stop-color="#6BBCCA"/>
<stop offset="0.4568" stop-color="#67ADC6"/>
<stop offset="0.6335" stop-color="#6399BF"/>
<stop offset="0.8167" stop-color="#5F7FB6"/>
<stop offset="1" stop-color="#5A64AD"/>
</linearGradient>
<linearGradient id="paint2_linear_2_15155" x1="82.1076" y1="15.6359" x2="67.77" y2="15.6359" gradientUnits="userSpaceOnUse">
<stop stop-color="#6DCACE"/>
<stop offset="0.1324" stop-color="#6DC5CC"/>
<stop offset="0.2886" stop-color="#6BBCCA"/>
<stop offset="0.4568" stop-color="#67ADC6"/>
<stop offset="0.6335" stop-color="#6399BF"/>
<stop offset="0.8167" stop-color="#5F7FB6"/>
<stop offset="1" stop-color="#5A64AD"/>
</linearGradient>
<linearGradient id="paint3_linear_2_15155" x1="69.9663" y1="37.133" x2="68.857" y2="39.0542" gradientUnits="userSpaceOnUse">
<stop stop-color="#5A64AD"/>
<stop offset="0.1412" stop-color="#5F67B0"/>
<stop offset="0.3479" stop-color="#6E73B6"/>
<stop offset="0.5946" stop-color="#8587C1"/>
<stop offset="0.8701" stop-color="#A9A8D4"/>
<stop offset="1" stop-color="#BEBDDF"/>
</linearGradient>
<linearGradient id="paint4_linear_2_15155" x1="69.9663" y1="40.1795" x2="68.857" y2="42.1007" gradientUnits="userSpaceOnUse">
<stop stop-color="#5A64AD"/>
<stop offset="0.1412" stop-color="#5F67B0"/>
<stop offset="0.3479" stop-color="#6E73B6"/>
<stop offset="0.5946" stop-color="#8587C1"/>
<stop offset="0.8701" stop-color="#A9A8D4"/>
<stop offset="1" stop-color="#BEBDDF"/>
</linearGradient>
<linearGradient id="paint5_linear_2_15155" x1="69.9664" y1="43.2793" x2="68.857" y2="45.2008" gradientUnits="userSpaceOnUse">
<stop stop-color="#5A64AD"/>
<stop offset="0.1412" stop-color="#5F67B0"/>
<stop offset="0.3479" stop-color="#6E73B6"/>
<stop offset="0.5946" stop-color="#8587C1"/>
<stop offset="0.8701" stop-color="#A9A8D4"/>
<stop offset="1" stop-color="#BEBDDF"/>
</linearGradient>
<linearGradient id="paint6_linear_2_15155" x1="74.6306" y1="40.1624" x2="66.0574" y2="40.1624" gradientUnits="userSpaceOnUse">
<stop stop-color="#5A64AD"/>
<stop offset="0.1412" stop-color="#5F67B0"/>
<stop offset="0.3479" stop-color="#6E73B6"/>
<stop offset="0.5946" stop-color="#8587C1"/>
<stop offset="0.8701" stop-color="#A9A8D4"/>
<stop offset="1" stop-color="#BEBDDF"/>
</linearGradient>
<linearGradient id="paint7_linear_2_15155" x1="70.4251" y1="37.434" x2="67.2888" y2="37.434" gradientUnits="userSpaceOnUse">
<stop stop-color="#6DCACE"/>
<stop offset="0.1324" stop-color="#6DC5CC"/>
<stop offset="0.2886" stop-color="#6BBCCA"/>
<stop offset="0.4568" stop-color="#67ADC6"/>
<stop offset="0.6335" stop-color="#6399BF"/>
<stop offset="0.8167" stop-color="#5F7FB6"/>
<stop offset="1" stop-color="#5A64AD"/>
</linearGradient>
<linearGradient id="paint8_linear_2_15155" x1="70.4251" y1="40.4805" x2="67.2888" y2="40.4805" gradientUnits="userSpaceOnUse">
<stop stop-color="#6DCACE"/>
<stop offset="0.1324" stop-color="#6DC5CC"/>
<stop offset="0.2886" stop-color="#6BBCCA"/>
<stop offset="0.4568" stop-color="#67ADC6"/>
<stop offset="0.6335" stop-color="#6399BF"/>
<stop offset="0.8167" stop-color="#5F7FB6"/>
<stop offset="1" stop-color="#5A64AD"/>
</linearGradient>
<linearGradient id="paint9_linear_2_15155" x1="70.4251" y1="43.5802" x2="67.2888" y2="43.5802" gradientUnits="userSpaceOnUse">
<stop stop-color="#6DCACE"/>
<stop offset="0.1324" stop-color="#6DC5CC"/>
<stop offset="0.2886" stop-color="#6BBCCA"/>
<stop offset="0.4568" stop-color="#67ADC6"/>
<stop offset="0.6335" stop-color="#6399BF"/>
<stop offset="0.8167" stop-color="#5F7FB6"/>
<stop offset="1" stop-color="#5A64AD"/>
</linearGradient>
<linearGradient id="paint10_linear_2_15155" x1="80.1163" y1="24.0314" x2="59.8496" y2="12.2824" gradientUnits="userSpaceOnUse">
<stop stop-color="#5A64AD"/>
<stop offset="0.1412" stop-color="#5F67B0"/>
<stop offset="0.3479" stop-color="#6E73B6"/>
<stop offset="0.5946" stop-color="#8587C1"/>
<stop offset="0.8701" stop-color="#A9A8D4"/>
<stop offset="1" stop-color="#BEBDDF"/>
</linearGradient>
<linearGradient id="paint11_linear_2_15155" x1="57.8932" y1="13.6129" x2="76.1394" y2="26.9721" gradientUnits="userSpaceOnUse">
<stop stop-color="#5A64AD"/>
<stop offset="0.1412" stop-color="#5F67B0"/>
<stop offset="0.3479" stop-color="#6E73B6"/>
<stop offset="0.5946" stop-color="#8587C1"/>
<stop offset="0.8701" stop-color="#A9A8D4"/>
<stop offset="1" stop-color="#BEBDDF"/>
</linearGradient>
<linearGradient id="paint12_linear_2_15155" x1="75.4029" y1="19.2106" x2="61.0653" y2="19.2106" gradientUnits="userSpaceOnUse">
<stop stop-color="#6DCACE"/>
<stop offset="0.1324" stop-color="#6DC5CC"/>
<stop offset="0.2886" stop-color="#6BBCCA"/>
<stop offset="0.4568" stop-color="#67ADC6"/>
<stop offset="0.6335" stop-color="#6399BF"/>
<stop offset="0.8167" stop-color="#5F7FB6"/>
<stop offset="1" stop-color="#5A64AD"/>
</linearGradient>
<linearGradient id="paint13_linear_2_15155" x1="76.0262" y1="18.872" x2="61.6879" y2="18.872" gradientUnits="userSpaceOnUse">
<stop stop-color="#6DCACE"/>
<stop offset="0.1324" stop-color="#6DC5CC"/>
<stop offset="0.2886" stop-color="#6BBCCA"/>
<stop offset="0.4568" stop-color="#67ADC6"/>
<stop offset="0.6335" stop-color="#6399BF"/>
<stop offset="0.8167" stop-color="#5F7FB6"/>
<stop offset="1" stop-color="#5A64AD"/>
</linearGradient>
<linearGradient id="paint14_linear_2_15155" x1="130.412" y1="30.9295" x2="79.7667" y2="30.9295" gradientUnits="userSpaceOnUse">
<stop stop-color="#C2BEDF"/>
<stop offset="0.3027" stop-color="#C6C3E2"/>
<stop offset="0.6588" stop-color="#D4D2E9"/>
<stop offset="1" stop-color="#E8E8F4"/>
</linearGradient>
<linearGradient id="paint15_linear_2_15155" x1="130.411" y1="43.9176" x2="121.715" y2="43.9176" gradientUnits="userSpaceOnUse">
<stop stop-color="#5A64AD"/>
<stop offset="0.1564" stop-color="#5E66AF"/>
<stop offset="0.3409" stop-color="#686EB4"/>
<stop offset="0.5395" stop-color="#7A7DBC"/>
<stop offset="0.7481" stop-color="#9393C8"/>
<stop offset="0.9625" stop-color="#B6B5DB"/>
<stop offset="1" stop-color="#BEBDDF"/>
</linearGradient>
<linearGradient id="paint16_linear_2_15155" x1="123.626" y1="58.5176" x2="52.0984" y2="58.5176" gradientUnits="userSpaceOnUse">
<stop stop-color="#5A64AD"/>
<stop offset="0.1564" stop-color="#5E66AF"/>
<stop offset="0.3409" stop-color="#686EB4"/>
<stop offset="0.5395" stop-color="#7A7DBC"/>
<stop offset="0.7481" stop-color="#9393C8"/>
<stop offset="0.9625" stop-color="#B6B5DB"/>
<stop offset="1" stop-color="#BEBDDF"/>
</linearGradient>
<linearGradient id="paint17_linear_2_15155" x1="99.5914" y1="56.1327" x2="28.0261" y2="56.1327" gradientUnits="userSpaceOnUse">
<stop stop-color="#C2BEDF"/>
<stop offset="0.3027" stop-color="#C6C3E2"/>
<stop offset="0.6588" stop-color="#D4D2E9"/>
<stop offset="1" stop-color="#E8E8F4"/>
</linearGradient>
<linearGradient id="paint18_linear_2_15155" x1="87.471" y1="60.1953" x2="69.1529" y2="60.1953" gradientUnits="userSpaceOnUse">
<stop stop-color="#C2BEDF"/>
<stop offset="0.3027" stop-color="#C6C3E2"/>
<stop offset="0.6588" stop-color="#D4D2E9"/>
<stop offset="1" stop-color="#E8E8F4"/>
</linearGradient>
<linearGradient id="paint19_linear_2_15155" x1="126.935" y1="40.2707" x2="55.3696" y2="40.2707" gradientUnits="userSpaceOnUse">
<stop stop-color="#C2BEDF"/>
<stop offset="0.3027" stop-color="#C6C3E2"/>
<stop offset="0.6588" stop-color="#D4D2E9"/>
<stop offset="1" stop-color="#E8E8F4"/>
</linearGradient>
<linearGradient id="paint20_linear_2_15155" x1="131.645" y1="35.0174" x2="113.327" y2="35.0174" gradientUnits="userSpaceOnUse">
<stop stop-color="#C2BEDF"/>
<stop offset="0.3027" stop-color="#C6C3E2"/>
<stop offset="0.6588" stop-color="#D4D2E9"/>
<stop offset="1" stop-color="#E8E8F4"/>
</linearGradient>
<radialGradient id="paint21_radial_2_15155" cx="0" cy="0" r="1" gradientUnits="userSpaceOnUse" gradientTransform="translate(102.781 49.4827) rotate(180) scale(20.5162)">
<stop stop-color="#2F2E7A"/>
<stop offset="1" stop-color="#211C58"/>
</radialGradient>
<radialGradient id="paint22_radial_2_15155" cx="0" cy="0" r="1" gradientUnits="userSpaceOnUse" gradientTransform="translate(107.269 40.2533) rotate(180) scale(15.704)">
<stop stop-color="#2F2E7A"/>
<stop offset="1" stop-color="#211C58"/>
</radialGradient>
<linearGradient id="paint23_linear_2_15155" x1="112.921" y1="44.7868" x2="99.0875" y2="19.8776" gradientUnits="userSpaceOnUse">
<stop stop-color="#5A64AD"/>
<stop offset="0.035" stop-color="#5E66AF"/>
<stop offset="0.0763" stop-color="#686EB4"/>
<stop offset="0.1207" stop-color="#7A7DBC"/>
<stop offset="0.1673" stop-color="#9393C8"/>
<stop offset="0.2153" stop-color="#B6B5DB"/>
<stop offset="0.2237" stop-color="#BEBDDF"/>
</linearGradient>
<linearGradient id="paint24_linear_2_15155" x1="95.9269" y1="44.8751" x2="105.134" y2="26.8754" gradientUnits="userSpaceOnUse">
<stop stop-color="#C2BEDF"/>
<stop offset="0.3027" stop-color="#C6C3E2"/>
<stop offset="0.6588" stop-color="#D4D2E9"/>
<stop offset="1" stop-color="#E8E8F4"/>
</linearGradient>
<linearGradient id="paint25_linear_2_15155" x1="71.0401" y1="77.2303" x2="100.303" y2="25.3779" gradientUnits="userSpaceOnUse">
<stop stop-color="#C2BEDF"/>
<stop offset="0.079" stop-color="#C4C1E1"/>
<stop offset="0.1355" stop-color="#CDCAE6"/>
<stop offset="0.1849" stop-color="#DCDAEE"/>
<stop offset="0.2117" stop-color="#E8E8F4"/>
<stop offset="0.2537" stop-color="#D9D7EC"/>
<stop offset="0.3127" stop-color="#CCC9E5"/>
<stop offset="0.3858" stop-color="#C4C1E0"/>
<stop offset="0.5143" stop-color="#C2BEDF"/>
<stop offset="0.6266" stop-color="#D1CFE8"/>
<stop offset="0.755" stop-color="#E8E8F4"/>
<stop offset="1" stop-color="#C2BEDF"/>
</linearGradient>
<linearGradient id="paint26_linear_2_15155" x1="79.5518" y1="43.0508" x2="73.046" y2="43.0508" gradientUnits="userSpaceOnUse">
<stop stop-color="#C2BEDF"/>
<stop offset="0.5095" stop-color="#D3D1E9"/>
<stop offset="1" stop-color="#E8E8F4"/>
</linearGradient>
<linearGradient id="paint27_linear_2_15155" x1="86.8429" y1="43.0508" x2="74.2704" y2="43.0508" gradientUnits="userSpaceOnUse">
<stop stop-color="#5A64AD"/>
<stop offset="0.1564" stop-color="#5E66AF"/>
<stop offset="0.3409" stop-color="#686EB4"/>
<stop offset="0.5395" stop-color="#7A7DBC"/>
<stop offset="0.7481" stop-color="#9393C8"/>
<stop offset="0.9625" stop-color="#B6B5DB"/>
<stop offset="1" stop-color="#BEBDDF"/>
</linearGradient>
<linearGradient id="paint28_linear_2_15155" x1="78.5938" y1="33.7833" x2="76.2803" y2="37.7902" gradientUnits="userSpaceOnUse">
<stop stop-color="#C2BEDF"/>
<stop offset="0.3027" stop-color="#C6C3E2"/>
<stop offset="0.6588" stop-color="#D4D2E9"/>
<stop offset="1" stop-color="#E8E8F4"/>
</linearGradient>
<linearGradient id="paint29_linear_2_15155" x1="77.7742" y1="34.2565" x2="76.2806" y2="36.8433" gradientUnits="userSpaceOnUse">
<stop stop-color="#5A64AD"/>
<stop offset="0.1564" stop-color="#5E66AF"/>
<stop offset="0.3409" stop-color="#686EB4"/>
<stop offset="0.5395" stop-color="#7A7DBC"/>
<stop offset="0.7481" stop-color="#9393C8"/>
<stop offset="0.9625" stop-color="#B6B5DB"/>
<stop offset="1" stop-color="#BEBDDF"/>
</linearGradient>
<linearGradient id="paint30_linear_2_15155" x1="79.5517" y1="33.6653" x2="73.0459" y2="33.6653" gradientUnits="userSpaceOnUse">
<stop stop-color="#C2BEDF"/>
<stop offset="0.5095" stop-color="#D3D1E9"/>
<stop offset="1" stop-color="#E8E8F4"/>
</linearGradient>
<linearGradient id="paint31_linear_2_15155" x1="86.8428" y1="33.6653" x2="74.2703" y2="33.6653" gradientUnits="userSpaceOnUse">
<stop stop-color="#5A64AD"/>
<stop offset="0.1564" stop-color="#5E66AF"/>
<stop offset="0.3409" stop-color="#686EB4"/>
<stop offset="0.5395" stop-color="#7A7DBC"/>
<stop offset="0.7481" stop-color="#9393C8"/>
<stop offset="0.9625" stop-color="#B6B5DB"/>
<stop offset="1" stop-color="#BEBDDF"/>
</linearGradient>
<linearGradient id="paint32_linear_2_15155" x1="78.5937" y1="30.7469" x2="76.2802" y2="34.7538" gradientUnits="userSpaceOnUse">
<stop stop-color="#C2BEDF"/>
<stop offset="0.3027" stop-color="#C6C3E2"/>
<stop offset="0.6588" stop-color="#D4D2E9"/>
<stop offset="1" stop-color="#E8E8F4"/>
</linearGradient>
<linearGradient id="paint33_linear_2_15155" x1="84.9619" y1="48.4996" x2="78.4559" y2="48.4996" gradientUnits="userSpaceOnUse">
<stop stop-color="#C2BEDF"/>
<stop offset="0.5095" stop-color="#D3D1E9"/>
<stop offset="1" stop-color="#E8E8F4"/>
</linearGradient>
<linearGradient id="paint34_linear_2_15155" x1="92.2528" y1="48.4996" x2="79.6803" y2="48.4996" gradientUnits="userSpaceOnUse">
<stop stop-color="#5A64AD"/>
<stop offset="0.1564" stop-color="#5E66AF"/>
<stop offset="0.3409" stop-color="#686EB4"/>
<stop offset="0.5395" stop-color="#7A7DBC"/>
<stop offset="0.7481" stop-color="#9393C8"/>
<stop offset="0.9625" stop-color="#B6B5DB"/>
<stop offset="1" stop-color="#BEBDDF"/>
</linearGradient>
<linearGradient id="paint35_linear_2_15155" x1="84.0037" y1="41.5608" x2="81.6903" y2="45.5677" gradientUnits="userSpaceOnUse">
<stop stop-color="#C2BEDF"/>
<stop offset="0.3027" stop-color="#C6C3E2"/>
<stop offset="0.6588" stop-color="#D4D2E9"/>
<stop offset="1" stop-color="#E8E8F4"/>
</linearGradient>
<linearGradient id="paint36_linear_2_15155" x1="90.371" y1="49.2336" x2="83.865" y2="49.2336" gradientUnits="userSpaceOnUse">
<stop stop-color="#C2BEDF"/>
<stop offset="0.5095" stop-color="#D3D1E9"/>
<stop offset="1" stop-color="#E8E8F4"/>
</linearGradient>
<linearGradient id="paint37_linear_2_15155" x1="97.662" y1="49.2336" x2="85.0898" y2="49.2336" gradientUnits="userSpaceOnUse">
<stop stop-color="#5A64AD"/>
<stop offset="0.1564" stop-color="#5E66AF"/>
<stop offset="0.3409" stop-color="#686EB4"/>
<stop offset="0.5395" stop-color="#7A7DBC"/>
<stop offset="0.7481" stop-color="#9393C8"/>
<stop offset="0.9625" stop-color="#B6B5DB"/>
<stop offset="1" stop-color="#BEBDDF"/>
</linearGradient>
<linearGradient id="paint38_linear_2_15155" x1="89.4121" y1="39.9094" x2="87.0987" y2="43.9163" gradientUnits="userSpaceOnUse">
<stop stop-color="#C2BEDF"/>
<stop offset="0.3027" stop-color="#C6C3E2"/>
<stop offset="0.6588" stop-color="#D4D2E9"/>
<stop offset="1" stop-color="#E8E8F4"/>
</linearGradient>
<linearGradient id="paint39_linear_2_15155" x1="95.7811" y1="53.6233" x2="89.2753" y2="53.6233" gradientUnits="userSpaceOnUse">
<stop stop-color="#C2BEDF"/>
<stop offset="0.5095" stop-color="#D3D1E9"/>
<stop offset="1" stop-color="#E8E8F4"/>
</linearGradient>
<linearGradient id="paint40_linear_2_15155" x1="103.072" y1="53.6233" x2="90.4999" y2="53.6233" gradientUnits="userSpaceOnUse">
<stop stop-color="#5A64AD"/>
<stop offset="0.1564" stop-color="#5E66AF"/>
<stop offset="0.3409" stop-color="#686EB4"/>
<stop offset="0.5395" stop-color="#7A7DBC"/>
<stop offset="0.7481" stop-color="#9393C8"/>
<stop offset="0.9625" stop-color="#B6B5DB"/>
<stop offset="1" stop-color="#BEBDDF"/>
</linearGradient>
<linearGradient id="paint41_linear_2_15155" x1="94.8231" y1="45.569" x2="92.5095" y2="49.576" gradientUnits="userSpaceOnUse">
<stop stop-color="#C2BEDF"/>
<stop offset="0.3027" stop-color="#C6C3E2"/>
<stop offset="0.6588" stop-color="#D4D2E9"/>
<stop offset="1" stop-color="#E8E8F4"/>
</linearGradient>
<linearGradient id="paint42_linear_2_15155" x1="101.191" y1="58.1667" x2="94.6857" y2="58.1667" gradientUnits="userSpaceOnUse">
<stop stop-color="#C2BEDF"/>
<stop offset="0.5095" stop-color="#D3D1E9"/>
<stop offset="1" stop-color="#E8E8F4"/>
</linearGradient>
<linearGradient id="paint43_linear_2_15155" x1="108.483" y1="58.1667" x2="95.9102" y2="58.1667" gradientUnits="userSpaceOnUse">
<stop stop-color="#5A64AD"/>
<stop offset="0.1564" stop-color="#5E66AF"/>
<stop offset="0.3409" stop-color="#686EB4"/>
<stop offset="0.5395" stop-color="#7A7DBC"/>
<stop offset="0.7481" stop-color="#9393C8"/>
<stop offset="0.9625" stop-color="#B6B5DB"/>
<stop offset="1" stop-color="#BEBDDF"/>
</linearGradient>
<linearGradient id="paint44_linear_2_15155" x1="100.233" y1="51.5359" x2="97.9199" y2="55.5428" gradientUnits="userSpaceOnUse">
<stop stop-color="#C2BEDF"/>
<stop offset="0.3027" stop-color="#C6C3E2"/>
<stop offset="0.6588" stop-color="#D4D2E9"/>
<stop offset="1" stop-color="#E8E8F4"/>
</linearGradient>
</defs>
</svg>
