<svg width="25" height="25" viewBox="0 0 25 25" fill="none" xmlns="http://www.w3.org/2000/svg">
<path d="M6.26058 2.0835C4.25016 2.0835 2.61475 3.71891 2.61475 5.72933C2.61475 7.37516 3.71891 8.75329 5.21891 9.20537V16.6637C5.21787 16.8502 5.24704 18.5189 6.44183 19.7168C7.17933 20.4585 8.16683 20.8335 9.37516 20.8335V22.9168L13.5418 19.7918L9.37516 16.6668V18.7502C7.4762 18.7502 7.3085 17.1522 7.30225 16.6668V9.20537C8.80225 8.75329 9.90641 7.37516 9.90641 5.72933C9.90641 3.71891 8.26996 2.0835 6.26058 2.0835ZM6.26058 7.29183C5.39912 7.29183 4.69808 6.59079 4.69808 5.72933C4.69808 4.86787 5.39912 4.16683 6.26058 4.16683C7.12204 4.16683 7.82308 4.86787 7.82308 5.72933C7.82308 6.59079 7.12204 7.29183 6.26058 7.29183ZM19.8022 15.795V8.33037C19.797 6.65745 18.6804 4.16683 15.6252 4.16683V2.0835L11.4585 5.2085L15.6252 8.3335V6.25016C17.5304 6.25016 17.7095 7.85329 17.7189 8.3335V15.795C16.2189 16.247 15.1147 17.6252 15.1147 19.271C15.1147 21.2814 16.7502 22.9168 18.7606 22.9168C20.771 22.9168 22.4064 21.2814 22.4064 19.271C22.4064 17.6252 21.3022 16.247 19.8022 15.795ZM18.7606 20.8335C17.8991 20.8335 17.1981 20.1325 17.1981 19.271C17.1981 18.4095 17.8991 17.7085 18.7606 17.7085C19.622 17.7085 20.3231 18.4095 20.3231 19.271C20.3231 20.1325 19.622 20.8335 18.7606 20.8335Z" fill="#4C5857"/>
</svg>
