<svg width="143" height="171" viewBox="0 0 143 171" fill="none" xmlns="http://www.w3.org/2000/svg">
<g filter="url(#filter0_d_115_10626)">
<path d="M69.8915 94.7705C70.8068 94.294 71.8962 94.2903 72.8148 94.7604L115.622 116.669C117.935 117.853 117.935 121.158 115.622 122.342L72.8148 144.251C71.8962 144.721 70.8068 144.717 69.8915 144.24L27.804 122.332C25.5168 121.142 25.5168 117.869 27.804 116.679L69.8915 94.7705Z" fill="black" fill-opacity="0.01"/>
</g>
<path d="M16 41.115C16 35.397 19.0639 30.1173 24.0286 27.2804L63.8637 4.51743C68.7624 1.7182 74.7761 1.7182 79.6747 4.51744L119.51 27.2804C124.475 30.1173 127.538 35.397 127.538 41.115V86.3575C127.538 92.0755 124.475 97.3552 119.51 100.192L79.6747 122.955C74.7761 125.754 68.7624 125.754 63.8637 122.955L24.0286 100.192C19.0639 97.3552 16 92.0755 16 86.3575V41.115Z" fill="#C1A1C7"/>
<path d="M21.3115 43.7106C21.3115 38.0247 24.3413 32.7696 29.262 29.9208L63.7859 9.93333C68.7243 7.07426 74.8145 7.07426 79.7529 9.93333L114.277 29.9208C119.197 32.7696 122.227 38.0247 122.227 43.7106V83.7618C122.227 89.4477 119.197 94.7028 114.277 97.5516L79.7529 117.539C74.8145 120.398 68.7243 120.398 63.7859 117.539L29.262 97.5516C24.3413 94.7027 21.3115 89.4477 21.3115 83.7618V43.7106Z" fill="url(#paint0_linear_115_10626)"/>
<path d="M71.769 68.7379C71.769 62.6063 75.2875 57.0186 80.817 54.3687L114.62 38.1693C118.146 36.4797 122.227 39.0495 122.227 42.959V83.762C122.227 89.4479 119.197 94.7029 114.276 97.5518L79.7416 117.546C76.2007 119.596 71.769 117.041 71.769 112.949L71.769 92.9488L71.769 68.7379Z" fill="#3B0057"/>
<path d="M21.3115 42.971C21.3115 39.0584 25.3984 36.4888 28.9246 38.1843L62.7404 54.4446C68.2596 57.0985 71.7694 62.6806 71.7694 68.8047V110.841C71.7694 110.841 71.8129 114.678 72.7068 115.97C73.4729 117.077 74.7046 117.842 75.8186 118.081C77.4278 118.427 79.0797 117.898 79.0797 117.898C74.56 120.534 68.9738 120.542 64.4458 117.921L29.262 97.5514C24.3413 94.7026 21.3115 89.4475 21.3115 83.7617V42.971Z" fill="url(#paint1_linear_115_10626)"/>
<defs>
<filter id="filter0_d_115_10626" x="0.593874" y="68.9159" width="142.257" height="101.179" filterUnits="userSpaceOnUse" color-interpolation-filters="sRGB">
<feFlood flood-opacity="0" result="BackgroundImageFix"/>
<feColorMatrix in="SourceAlpha" type="matrix" values="0 0 0 0 0 0 0 0 0 0 0 0 0 0 0 0 0 0 127 0" result="hardAlpha"/>
<feOffset/>
<feGaussianBlur stdDeviation="12.7473"/>
<feColorMatrix type="matrix" values="0 0 0 0 0.156863 0 0 0 0 0.160784 0 0 0 0 0.239216 0 0 0 0.4 0"/>
<feBlend mode="normal" in2="BackgroundImageFix" result="effect1_dropShadow_115_10626"/>
<feBlend mode="normal" in="SourceGraphic" in2="effect1_dropShadow_115_10626" result="shape"/>
</filter>
<linearGradient id="paint0_linear_115_10626" x1="29.3848" y1="-16.8902" x2="172.275" y2="134.281" gradientUnits="userSpaceOnUse">
<stop stop-color="#AA2886"/>
<stop offset="1" stop-color="#00181B" stop-opacity="0.99"/>
</linearGradient>
<linearGradient id="paint1_linear_115_10626" x1="25.933" y1="22.0376" x2="125.514" y2="107.745" gradientUnits="userSpaceOnUse">
<stop stop-color="#AA2886"/>
<stop offset="1" stop-color="#2D065F" stop-opacity="0.99"/>
</linearGradient>
</defs>
</svg>
