<svg width="144" height="171" viewBox="0 0 144 171" fill="none" xmlns="http://www.w3.org/2000/svg">
<g filter="url(#filter0_d_107_9903)">
<path d="M70.1224 94.7705C71.0378 94.294 72.1272 94.2903 73.0458 94.7604L115.853 116.669C118.166 117.853 118.166 121.158 115.853 122.342L73.0458 144.251C72.1272 144.721 71.0378 144.717 70.1224 144.24L28.0349 122.332C25.7478 121.142 25.7478 117.869 28.0349 116.679L70.1224 94.7705Z" fill="black" fill-opacity="0.01"/>
</g>
<path d="M16.231 41.115C16.231 35.397 19.2949 30.1173 24.2595 27.2804L64.0947 4.51743C68.9933 1.7182 75.007 1.7182 79.9057 4.51744L119.741 27.2804C124.706 30.1173 127.769 35.397 127.769 41.115V86.3575C127.769 92.0755 124.706 97.3552 119.741 100.192L79.9057 122.955C75.007 125.754 68.9933 125.754 64.0947 122.955L24.2595 100.192C19.2949 97.3552 16.231 92.0755 16.231 86.3575V41.115Z" fill="#A1C5C7"/>
<path d="M21.5425 43.7106C21.5425 38.0247 24.5723 32.7696 29.493 29.9208L64.0168 9.93333C68.9552 7.07426 75.0455 7.07426 79.9839 9.93333L114.508 29.9208C119.428 32.7696 122.458 38.0247 122.458 43.7106V83.7618C122.458 89.4477 119.428 94.7028 114.508 97.5516L79.9839 117.539C75.0455 120.398 68.9552 120.398 64.0168 117.539L29.493 97.5516C24.5723 94.7027 21.5425 89.4477 21.5425 83.7618V43.7106Z" fill="url(#paint0_linear_107_9903)"/>
<path d="M72 68.7379C72 62.6063 75.5184 57.0186 81.0479 54.3687L114.851 38.1693C118.377 36.4797 122.458 39.0495 122.458 42.959V83.762C122.458 89.4479 119.428 94.7029 114.507 97.5518L79.9725 117.546C76.4316 119.596 72 117.041 72 112.949L72 92.9488L72 68.7379Z" fill="#005057"/>
<path d="M21.5425 42.971C21.5425 39.0584 25.6294 36.4888 29.1555 38.1843L62.9714 54.4446C68.4905 57.0985 72.0004 62.6806 72.0004 68.8047V110.841C72.0004 110.841 72.0438 114.678 72.9378 115.97C73.7039 117.077 74.9355 117.842 76.0495 118.081C77.6587 118.427 79.3107 117.898 79.3107 117.898C74.7909 120.534 69.2048 120.542 64.6768 117.921L29.493 97.5514C24.5723 94.7026 21.5425 89.4475 21.5425 83.7617V42.971Z" fill="url(#paint1_linear_107_9903)"/>
<defs>
<filter id="filter0_d_107_9903" x="0.824831" y="68.9159" width="142.257" height="101.179" filterUnits="userSpaceOnUse" color-interpolation-filters="sRGB">
<feFlood flood-opacity="0" result="BackgroundImageFix"/>
<feColorMatrix in="SourceAlpha" type="matrix" values="0 0 0 0 0 0 0 0 0 0 0 0 0 0 0 0 0 0 127 0" result="hardAlpha"/>
<feOffset/>
<feGaussianBlur stdDeviation="12.7473"/>
<feColorMatrix type="matrix" values="0 0 0 0 0.156863 0 0 0 0 0.160784 0 0 0 0 0.239216 0 0 0 0.4 0"/>
<feBlend mode="normal" in2="BackgroundImageFix" result="effect1_dropShadow_107_9903"/>
<feBlend mode="normal" in="SourceGraphic" in2="effect1_dropShadow_107_9903" result="shape"/>
</filter>
<linearGradient id="paint0_linear_107_9903" x1="29.6157" y1="-16.8902" x2="172.506" y2="134.281" gradientUnits="userSpaceOnUse">
<stop stop-color="#289FAA"/>
<stop offset="1" stop-color="#00181B" stop-opacity="0.99"/>
</linearGradient>
<linearGradient id="paint1_linear_107_9903" x1="26.1639" y1="22.0376" x2="125.745" y2="107.745" gradientUnits="userSpaceOnUse">
<stop stop-color="#0E98A5"/>
<stop offset="1" stop-color="#06575F" stop-opacity="0.99"/>
</linearGradient>
</defs>
</svg>
