<svg width="144" height="171" viewBox="0 0 144 171" fill="none" xmlns="http://www.w3.org/2000/svg">
<g filter="url(#filter0_d_107_9913)">
<path d="M70.1222 94.7705C71.0375 94.294 72.1269 94.2903 73.0455 94.7604L115.852 116.669C118.166 117.853 118.166 121.158 115.852 122.342L73.0455 144.251C72.1269 144.721 71.0375 144.717 70.1222 144.24L28.0347 122.332C25.7475 121.142 25.7475 117.869 28.0347 116.679L70.1222 94.7705Z" fill="black" fill-opacity="0.01"/>
</g>
<path d="M16.2307 41.115C16.2307 35.397 19.2946 30.1173 24.2593 27.2804L64.0944 4.51743C68.9931 1.7182 75.0068 1.7182 79.9055 4.51744L119.741 27.2804C124.705 30.1173 127.769 35.397 127.769 41.115V86.3575C127.769 92.0755 124.705 97.3552 119.741 100.192L79.9054 122.955C75.0068 125.754 68.9931 125.754 64.0944 122.955L24.2593 100.192C19.2946 97.3552 16.2307 92.0755 16.2307 86.3575V41.115Z" fill="#959FE8"/>
<path d="M21.5422 43.7106C21.5422 38.0247 24.572 32.7696 29.4928 29.9208L64.0166 9.93333C68.955 7.07426 75.0453 7.07426 79.9837 9.93333L114.507 29.9208C119.428 32.7696 122.458 38.0247 122.458 43.7106V83.7618C122.458 89.4477 119.428 94.7028 114.507 97.5516L79.9837 117.539C75.0452 120.398 68.955 120.398 64.0166 117.539L29.4928 97.5516C24.572 94.7028 21.5422 89.4477 21.5422 83.7618V43.7106Z" fill="url(#paint0_linear_107_9913)"/>
<path d="M72 68.7379C72 62.6063 75.5184 57.0186 81.0479 54.3687L114.851 38.1693C118.377 36.4797 122.458 39.0495 122.458 42.959V83.762C122.458 89.4479 119.428 94.7029 114.507 97.5518L79.9725 117.546C76.4316 119.596 72 117.041 72 112.949L72 92.9488L72 68.7379Z" fill="url(#paint1_linear_107_9913)"/>
<path d="M21.5422 42.9711C21.5422 39.0585 25.6291 36.4889 29.1553 38.1844L62.9711 54.4447C68.4903 57.0985 72.0001 62.6807 72.0001 68.8048V110.841C72.0001 110.841 72.0436 114.678 72.9375 115.97C73.7036 117.077 74.9353 117.842 76.0493 118.081C77.6585 118.427 79.3104 117.898 79.3104 117.898C74.7907 120.534 69.2045 120.543 64.6765 117.921L29.4928 97.5515C24.572 94.7027 21.5422 89.4476 21.5422 83.7618V42.9711Z" fill="url(#paint2_linear_107_9913)"/>
<defs>
<filter id="filter0_d_107_9913" x="0.824831" y="68.9159" width="142.257" height="101.179" filterUnits="userSpaceOnUse" color-interpolation-filters="sRGB">
<feFlood flood-opacity="0" result="BackgroundImageFix"/>
<feColorMatrix in="SourceAlpha" type="matrix" values="0 0 0 0 0 0 0 0 0 0 0 0 0 0 0 0 0 0 127 0" result="hardAlpha"/>
<feOffset/>
<feGaussianBlur stdDeviation="12.7473"/>
<feColorMatrix type="matrix" values="0 0 0 0 0.156863 0 0 0 0 0.160784 0 0 0 0 0.239216 0 0 0 0.4 0"/>
<feBlend mode="normal" in2="BackgroundImageFix" result="effect1_dropShadow_107_9913"/>
<feBlend mode="normal" in="SourceGraphic" in2="effect1_dropShadow_107_9913" result="shape"/>
</filter>
<linearGradient id="paint0_linear_107_9913" x1="29.6155" y1="-16.8902" x2="172.506" y2="134.281" gradientUnits="userSpaceOnUse">
<stop stop-color="#8C76DB"/>
<stop offset="0.580472" stop-color="#5BBDFB"/>
</linearGradient>
<linearGradient id="paint1_linear_107_9913" x1="76.0366" y1="17.8728" x2="177.149" y2="89.1879" gradientUnits="userSpaceOnUse">
<stop stop-color="#674EC0"/>
<stop offset="1" stop-color="#1C6898"/>
</linearGradient>
<linearGradient id="paint2_linear_107_9913" x1="26.1637" y1="17.8726" x2="131.094" y2="102.602" gradientUnits="userSpaceOnUse">
<stop stop-color="#674EC0"/>
<stop offset="1" stop-color="#3BA6E9"/>
</linearGradient>
</defs>
</svg>
