<svg width="852" height="748" viewBox="0 0 852 748" fill="none" xmlns="http://www.w3.org/2000/svg">
<path d="M740.606 428.5C740.606 604.679 597.784 747.5 421.605 747.5C-163.567 692.096 55.4985 618.393 96.558 471.068C103.942 444.572 90.8501 418.096 72.2897 397.796C-217.526 80.8211 446.314 0 617.106 0C1059.61 0 740.606 252.321 740.606 428.5Z" fill="#F8B84A"/>
<g opacity="0.3">
<path opacity="0.3" d="M169.283 108.871H148.812V129.342H169.283V108.871Z" stroke="black" stroke-miterlimit="10" stroke-linecap="round"/>
<path opacity="0.3" d="M169.283 143.74H148.812V164.212H169.283V143.74Z" stroke="black" stroke-miterlimit="10" stroke-linecap="round"/>
<path opacity="0.3" d="M176.857 119.482H207.951" stroke="black" stroke-miterlimit="10" stroke-linecap="round"/>
<path opacity="0.3" d="M176.857 153.601H207.951" stroke="black" stroke-miterlimit="10" stroke-linecap="round"/>
<path opacity="0.3" d="M153.361 114.932L156.387 120.994L170.034 100.523" stroke="black" stroke-miterlimit="10" stroke-linecap="round"/>
</g>
<g opacity="0.3">
<path opacity="0.3" d="M471.803 517.159H451.332V537.63H471.803V517.159Z" stroke="black" stroke-miterlimit="10" stroke-linecap="round"/>
<path opacity="0.3" d="M471.803 552.029H451.332V572.5H471.803V552.029Z" stroke="black" stroke-miterlimit="10" stroke-linecap="round"/>
<path opacity="0.3" d="M479.378 527.77H510.472" stroke="black" stroke-miterlimit="10" stroke-linecap="round"/>
<path opacity="0.3" d="M479.378 561.889H510.472" stroke="black" stroke-miterlimit="10" stroke-linecap="round"/>
<path opacity="0.3" d="M455.881 523.221L458.906 529.283L472.554 508.812" stroke="black" stroke-miterlimit="10" stroke-linecap="round"/>
</g>
<g opacity="0.3">
<path opacity="0.3" d="M540.415 97.873H519.943V118.344H540.415V97.873Z" stroke="black" stroke-miterlimit="10" stroke-linecap="round"/>
<path opacity="0.3" d="M540.415 132.754H519.943V153.225H540.415V132.754Z" stroke="black" stroke-miterlimit="10" stroke-linecap="round"/>
<path opacity="0.3" d="M548.001 108.484H579.083" stroke="black" stroke-miterlimit="10" stroke-linecap="round"/>
<path opacity="0.3" d="M548.001 142.603H579.083" stroke="black" stroke-miterlimit="10" stroke-linecap="round"/>
<path opacity="0.3" d="M524.492 103.935L527.529 110.008L541.176 89.5366" stroke="black" stroke-miterlimit="10" stroke-linecap="round"/>
</g>
<path d="M657.012 549.22H673.935" stroke="#263238" stroke-linecap="round" stroke-linejoin="round"/>
<path d="M150.324 549.22H649.13" stroke="#263238" stroke-linecap="round" stroke-linejoin="round"/>
<path d="M212.318 472.896C219.635 472.896 225.567 457.34 225.567 438.152C225.567 418.963 219.635 403.407 212.318 403.407C205 403.407 199.068 418.963 199.068 438.152C199.068 457.34 205 472.896 212.318 472.896Z" fill="#009C8E" stroke="#263238" stroke-miterlimit="10"/>
<path d="M253.484 416.752C257.625 403.72 256.382 391.694 250.707 389.89C245.032 388.087 237.075 397.189 232.933 410.221C228.792 423.253 230.035 435.279 235.71 437.082C241.385 438.886 249.342 429.783 253.484 416.752Z" fill="#009C8E" stroke="#263238" stroke-miterlimit="10"/>
<path d="M156.283 495.312C142.795 493.037 132.673 486.418 133.674 480.527C134.675 474.636 146.4 471.747 159.832 474.033C173.263 476.319 183.442 482.927 182.452 488.818C181.463 494.709 169.76 497.586 156.283 495.312Z" fill="#009C8E" stroke="#263238" stroke-miterlimit="10"/>
<path d="M265.936 463.206C277.198 452.039 282.15 438.774 276.997 433.578C271.845 428.382 258.539 433.223 247.277 444.391C236.016 455.558 231.064 468.823 236.216 474.019C241.369 479.215 254.675 474.374 265.936 463.206Z" fill="#009C8E" stroke="#263238" stroke-miterlimit="10"/>
<path d="M188.343 432.556C199.227 448.353 202.479 465.014 195.599 469.768C188.718 474.522 174.297 465.549 163.413 449.752C152.53 433.955 149.277 417.305 156.157 412.551C163.038 407.797 177.459 416.759 188.343 432.556Z" fill="#009C8E" stroke="#263238" stroke-miterlimit="10"/>
<path d="M213.25 471.156L214.274 518.922" stroke="#263238" stroke-miterlimit="10" stroke-linecap="round"/>
<path d="M212.011 425.232L213.25 471.156" stroke="#263238" stroke-miterlimit="10" stroke-linecap="round"/>
<path d="M212.102 417.737L212.011 421.251" stroke="#263238" stroke-miterlimit="10" stroke-linecap="round"/>
<path d="M195.543 467.494C203.139 483.189 207.587 500.221 208.633 517.626" stroke="#263238" stroke-miterlimit="10" stroke-linecap="round"/>
<path d="M172.797 432.693C181.889 443.233 189.538 454.936 195.543 467.494" stroke="#263238" stroke-miterlimit="10" stroke-linecap="round"/>
<path d="M165.632 425.118C165.632 425.118 167.008 426.369 169.26 428.769" stroke="#263238" stroke-miterlimit="10" stroke-linecap="round"/>
<path d="M237.054 472.407C227.761 485.431 220.519 499.803 215.582 515.021" stroke="#263238" stroke-miterlimit="10" stroke-linecap="round"/>
<path d="M252.293 454.893C246.68 460.244 241.578 466.108 237.054 472.407" stroke="#263238" stroke-miterlimit="10" stroke-linecap="round"/>
<path d="M268.602 442.473C264.462 444.806 260.574 447.562 257.002 450.696" stroke="#263238" stroke-miterlimit="10" stroke-linecap="round"/>
<path d="M236.497 433.83C229.15 456.917 219.301 491.047 214.706 520.662" stroke="#263238" stroke-miterlimit="10" stroke-linecap="round"/>
<path d="M240.967 420.125C239.659 424.026 238.135 428.644 236.497 433.773" stroke="#263238" stroke-miterlimit="10" stroke-linecap="round"/>
<path d="M245.538 406.876C245.538 406.876 244.264 410.413 242.194 416.475" stroke="#263238" stroke-miterlimit="10" stroke-linecap="round"/>
<path d="M181.815 485.622C190.982 489.091 199.933 495.801 204.288 508.505" stroke="#263238" stroke-miterlimit="10" stroke-linecap="round"/>
<path d="M164.881 482.176C170.665 482.454 176.374 483.604 181.815 485.588" stroke="#263238" stroke-miterlimit="10" stroke-linecap="round"/>
<path d="M153.906 482.449C153.906 482.449 155.544 482.21 158.228 482.108" stroke="#263238" stroke-miterlimit="10" stroke-linecap="round"/>
<path d="M271.661 495.312C285.15 493.037 295.272 486.418 294.271 480.527C293.27 474.636 281.544 471.747 268.113 474.033C254.682 476.319 244.503 482.927 245.492 488.818C246.482 494.709 258.184 497.586 271.661 495.312Z" fill="#009C8E" stroke="#263238" stroke-miterlimit="10"/>
<path d="M246.425 485.509C237.156 488.92 228.057 495.665 223.679 508.505" stroke="#263238" stroke-miterlimit="10" stroke-linecap="round"/>
<path d="M264.486 482.108C258.324 482.29 252.229 483.441 246.426 485.52" stroke="#263238" stroke-miterlimit="10" stroke-linecap="round"/>
<path d="M274.039 482.449C274.039 482.449 272.97 482.29 271.116 482.176" stroke="#263238" stroke-miterlimit="10" stroke-linecap="round"/>
<path d="M246.232 549.095C250.294 540.565 252.43 531.247 252.487 521.8C252.5 516.129 251.656 510.489 249.985 505.07H179.473C177.802 510.489 176.958 516.129 176.971 521.8C177.027 531.248 179.166 540.568 183.237 549.095H246.232Z" fill="#263238"/>
<path d="M177.619 512.849C177.414 514.134 177.266 515.431 177.152 516.75H252.271C252.157 515.431 251.998 514.134 251.793 512.849H177.619Z" fill="#7A7A7A"/>
<path d="M251.464 532.82C251.702 531.524 251.907 530.227 252.066 528.919H177.357C177.505 530.227 177.71 531.524 177.949 532.82H251.464Z" fill="#7A7A7A"/>
<path d="M186.046 521.97C186.046 522.573 185.867 523.163 185.532 523.665C185.196 524.166 184.72 524.557 184.162 524.787C183.604 525.017 182.991 525.077 182.399 524.959C181.808 524.84 181.265 524.549 180.839 524.121C180.413 523.694 180.124 523.15 180.007 522.558C179.891 521.966 179.953 521.353 180.185 520.796C180.418 520.239 180.81 519.764 181.313 519.43C181.816 519.097 182.406 518.92 183.01 518.922C183.816 518.925 184.588 519.248 185.157 519.819C185.727 520.39 186.046 521.164 186.046 521.97Z" fill="#8C8C8C"/>
<path d="M201.241 521.97C201.239 522.57 201.059 523.156 200.724 523.654C200.389 524.152 199.914 524.539 199.359 524.767C198.804 524.995 198.193 525.054 197.605 524.936C197.017 524.817 196.477 524.527 196.053 524.102C195.63 523.677 195.342 523.136 195.225 522.547C195.109 521.958 195.17 521.348 195.4 520.794C195.63 520.24 196.02 519.766 196.519 519.433C197.018 519.1 197.604 518.922 198.205 518.922C198.604 518.922 199 519.001 199.369 519.154C199.738 519.308 200.074 519.532 200.356 519.816C200.638 520.099 200.861 520.435 201.013 520.805C201.165 521.174 201.243 521.57 201.241 521.97V521.97Z" fill="#8C8C8C"/>
<path d="M216.446 521.97C216.446 522.573 216.266 523.163 215.931 523.665C215.596 524.166 215.119 524.557 214.561 524.787C214.004 525.017 213.39 525.077 212.799 524.959C212.207 524.84 211.664 524.549 211.238 524.121C210.813 523.694 210.523 523.15 210.407 522.558C210.29 521.966 210.352 521.353 210.585 520.796C210.817 520.239 211.21 519.764 211.712 519.43C212.215 519.097 212.806 518.92 213.409 518.922C214.215 518.925 214.988 519.248 215.557 519.819C216.126 520.39 216.446 521.164 216.446 521.97Z" fill="#8C8C8C"/>
<path d="M231.641 521.97C231.638 522.57 231.458 523.156 231.123 523.654C230.788 524.152 230.313 524.539 229.758 524.767C229.203 524.995 228.593 525.054 228.005 524.936C227.416 524.817 226.876 524.527 226.453 524.102C226.029 523.677 225.741 523.136 225.625 522.547C225.509 521.958 225.569 521.348 225.8 520.794C226.03 520.24 226.419 519.766 226.918 519.433C227.417 519.1 228.004 518.922 228.604 518.922C229.004 518.922 229.399 519.001 229.769 519.154C230.138 519.308 230.473 519.532 230.755 519.816C231.037 520.099 231.261 520.435 231.413 520.805C231.565 521.174 231.642 521.57 231.641 521.97V521.97Z" fill="#8C8C8C"/>
<path d="M246.846 521.97C246.846 522.573 246.667 523.163 246.331 523.665C245.996 524.166 245.519 524.557 244.962 524.787C244.404 525.017 243.791 525.077 243.199 524.959C242.608 524.84 242.065 524.549 241.639 524.121C241.213 523.694 240.924 523.15 240.807 522.558C240.691 521.966 240.753 521.353 240.985 520.796C241.218 520.239 241.61 519.764 242.113 519.43C242.616 519.097 243.206 518.92 243.809 518.922C244.616 518.925 245.388 519.248 245.957 519.819C246.526 520.39 246.846 521.164 246.846 521.97Z" fill="#8C8C8C"/>
<path d="M654.646 134.79H388.2V511.552H654.646V134.79Z" fill="#263238"/>
<path d="M648.061 128.205H381.615V504.968H648.061V128.205Z" fill="white" stroke="#263238" stroke-linecap="round" stroke-linejoin="round"/>
<path d="M634.982 165.599H392.841V233.848H634.982V165.599Z" fill="white" stroke="#263238" stroke-linecap="round" stroke-linejoin="round"/>
<path d="M472.304 151.576H392.841V165.599H472.304V151.576Z" fill="white" stroke="#263238" stroke-linecap="round" stroke-linejoin="round"/>
<path d="M634.971 151.576H555.508V165.599H634.971V151.576Z" fill="white" stroke="#263238" stroke-linecap="round" stroke-linejoin="round"/>
<path d="M392.841 188.038H634.982" stroke="#263238" stroke-linecap="round" stroke-linejoin="round"/>
<path d="M392.841 209.544H634.982" stroke="#263238" stroke-linecap="round" stroke-linejoin="round"/>
<path d="M634.982 254.865H392.841V323.114H634.982V254.865Z" fill="white" stroke="#263238" stroke-linecap="round" stroke-linejoin="round"/>
<path d="M392.841 277.304H634.982" stroke="#263238" stroke-linecap="round" stroke-linejoin="round"/>
<path d="M392.841 298.81H634.982" stroke="#263238" stroke-linecap="round" stroke-linejoin="round"/>
<path d="M396.787 171.081H426.232" stroke="#263238" stroke-linecap="round" stroke-linejoin="round"/>
<path d="M546.955 171.081H576.4" stroke="#263238" stroke-linecap="round" stroke-linejoin="round"/>
<path d="M396.787 155.113H426.232" stroke="#263238" stroke-linecap="round" stroke-linejoin="round"/>
<path d="M556.748 155.113H586.193" stroke="#263238" stroke-linecap="round" stroke-linejoin="round"/>
<path d="M396.787 192.359H426.232" stroke="#263238" stroke-linecap="round" stroke-linejoin="round"/>
<path d="M396.787 215.765H426.232" stroke="#263238" stroke-linecap="round" stroke-linejoin="round"/>
<path d="M487.726 215.765H517.159" stroke="#263238" stroke-linecap="round" stroke-linejoin="round"/>
<path d="M482.982 152.634H541.86" stroke="#263238" stroke-linecap="round" stroke-linejoin="round"/>
<path d="M482.982 158.661H541.86" stroke="#263238" stroke-linecap="round" stroke-linejoin="round"/>
<path d="M477.046 228.491H490.398" stroke="#263238" stroke-linecap="round" stroke-linejoin="round"/>
<path d="M493.73 228.491H507.082" stroke="#263238" stroke-linecap="round" stroke-linejoin="round"/>
<path d="M510.414 228.491H523.766" stroke="#263238" stroke-linecap="round" stroke-linejoin="round"/>
<path d="M634.982 337.455H392.841V405.704H634.982V337.455Z" fill="white" stroke="#263238" stroke-linecap="round" stroke-linejoin="round"/>
<path d="M398.152 355.015C398.152 355.015 402.701 343.756 399.949 346.451C397.197 349.147 394.99 358.621 401.746 356.369C408.501 354.117 413.005 344.2 411.208 348.26C409.411 352.32 410.31 355.459 415.757 352.309C421.205 349.158 422.058 349.158 422.513 350.955C422.968 352.752 424.31 352.309 429.268 350.512C434.227 348.715 433.817 351.865 433.817 353.207C433.817 354.549 440.129 354.117 442.381 353.207C444.633 352.297 446.43 349.613 446.93 352.763C447.431 355.914 451.878 355.914 451.878 355.914H464.035" stroke="#009C8E" stroke-linecap="round" stroke-linejoin="round"/>
<path d="M392.841 359.894H634.982" stroke="#263238" stroke-linecap="round" stroke-linejoin="round"/>
<path d="M392.841 381.4H634.982" stroke="#263238" stroke-linecap="round" stroke-linejoin="round"/>
<path d="M396.787 342.937H426.232" stroke="#263238" stroke-linecap="round" stroke-linejoin="round"/>
<path d="M546.955 342.937H576.4" stroke="#263238" stroke-linecap="round" stroke-linejoin="round"/>
<path d="M396.787 364.216H426.232" stroke="#263238" stroke-linecap="round" stroke-linejoin="round"/>
<path d="M396.787 387.621H426.232" stroke="#263238" stroke-linecap="round" stroke-linejoin="round"/>
<path d="M487.726 387.621H517.159" stroke="#263238" stroke-linecap="round" stroke-linejoin="round"/>
<path d="M477.046 400.348H490.398" stroke="#263238" stroke-linecap="round" stroke-linejoin="round"/>
<path d="M493.73 400.348H507.082" stroke="#263238" stroke-linecap="round" stroke-linejoin="round"/>
<path d="M510.414 400.348H523.766" stroke="#263238" stroke-linecap="round" stroke-linejoin="round"/>
<path d="M398.629 261.859H467.867" stroke="#263238" stroke-linecap="round" stroke-linejoin="round"/>
<path d="M398.629 284.378H441.175" stroke="#263238" stroke-linecap="round" stroke-linejoin="round"/>
<path d="M506.24 284.378H548.786" stroke="#263238" stroke-linecap="round" stroke-linejoin="round"/>
<path d="M572.988 312.753H615.534" stroke="#263238" stroke-linecap="round" stroke-linejoin="round"/>
<path d="M563.811 284.378H606.357" stroke="#263238" stroke-linecap="round" stroke-linejoin="round"/>
<path d="M565.471 307.738H555.463V317.746H565.471V307.738Z" stroke="#263238" stroke-linecap="round" stroke-linejoin="round"/>
<path d="M503.738 312.753H546.284" stroke="#263238" stroke-linecap="round" stroke-linejoin="round"/>
<path d="M496.232 307.738H486.224V317.746H496.232V307.738Z" stroke="#263238" stroke-linecap="round" stroke-linejoin="round"/>
<path d="M434.5 312.753H477.046" stroke="#263238" stroke-linecap="round" stroke-linejoin="round"/>
<path d="M426.983 307.738H416.975V317.746H426.983V307.738Z" stroke="#263238" stroke-linecap="round" stroke-linejoin="round"/>
<path d="M605.98 418.692H633.878" stroke="#263238" stroke-linecap="round" stroke-linejoin="round"/>
<path d="M495.254 418.692H602.387" stroke="#263238" stroke-linecap="round" stroke-linejoin="round"/>
<path d="M426.232 418.692H492.025" stroke="#263238" stroke-linecap="round" stroke-linejoin="round"/>
<path d="M394.456 418.692H423.707" stroke="#263238" stroke-linecap="round" stroke-linejoin="round"/>
<path d="M572.908 425.164H633.879" stroke="#263238" stroke-linecap="round" stroke-linejoin="round"/>
<path d="M456.427 425.164H570.031" stroke="#263238" stroke-linecap="round" stroke-linejoin="round"/>
<path d="M394.456 425.164H452.833" stroke="#263238" stroke-linecap="round" stroke-linejoin="round"/>
<path d="M588.729 431.635H633.879" stroke="#263238" stroke-linecap="round" stroke-linejoin="round"/>
<path d="M491.66 431.635H586.215" stroke="#263238" stroke-linecap="round" stroke-linejoin="round"/>
<path d="M436.297 431.635H486.622" stroke="#263238" stroke-linecap="round" stroke-linejoin="round"/>
<path d="M394.456 431.635H433.056" stroke="#263238" stroke-linecap="round" stroke-linejoin="round"/>
<path d="M613.532 438.106H633.878" stroke="#263238" stroke-linecap="round" stroke-linejoin="round"/>
<path d="M409.684 438.106H609.938" stroke="#263238" stroke-linecap="round" stroke-linejoin="round"/>
<path d="M394.456 438.106H406.818" stroke="#263238" stroke-linecap="round" stroke-linejoin="round"/>
<path d="M618.207 444.577H633.879" stroke="#263238" stroke-linecap="round" stroke-linejoin="round"/>
<path d="M568.234 444.577H614.977" stroke="#263238" stroke-linecap="round" stroke-linejoin="round"/>
<path d="M491.66 444.577H565.721" stroke="#263238" stroke-linecap="round" stroke-linejoin="round"/>
<path d="M420.113 444.577H488.783" stroke="#263238" stroke-linecap="round" stroke-linejoin="round"/>
<path d="M394.456 444.577H416.156" stroke="#263238" stroke-linecap="round" stroke-linejoin="round"/>
<path d="M605.628 451.048H633.878" stroke="#263238" stroke-linecap="round" stroke-linejoin="round"/>
<path d="M515.031 451.048H601.67" stroke="#263238" stroke-linecap="round" stroke-linejoin="round"/>
<path d="M456.427 451.048H510.357" stroke="#263238" stroke-linecap="round" stroke-linejoin="round"/>
<path d="M394.456 451.048H452.833" stroke="#263238" stroke-linecap="round" stroke-linejoin="round"/>
<path d="M564.276 457.531H633.879" stroke="#263238" stroke-linecap="round" stroke-linejoin="round"/>
<path d="M426.232 457.531H559.25" stroke="#263238" stroke-linecap="round" stroke-linejoin="round"/>
<path d="M394.456 457.531H422.274" stroke="#263238" stroke-linecap="round" stroke-linejoin="round"/>
<path d="M396.958 477.092H426.994" stroke="#263238" stroke-linecap="round" stroke-linejoin="round"/>
<path d="M545.454 477.092H575.49" stroke="#263238" stroke-linecap="round" stroke-linejoin="round"/>
<path d="M434.5 477.092H535.446" stroke="#263238" stroke-linecap="round" stroke-linejoin="round"/>
<path d="M583.826 477.092H633.048" stroke="#263238" stroke-linecap="round" stroke-linejoin="round"/>
<path d="M400.711 274.506C400.711 274.506 405.351 275.575 406.397 270.219C407.444 264.862 403.179 267.717 403.179 270.571C403.179 273.426 404.612 276.258 410.003 272.004C415.393 267.751 413.926 268.433 417.145 271.64C420.363 274.847 417.497 275.575 423.969 273.073C430.44 270.571 430.792 271.64 430.394 273.79C429.996 275.939 428.609 274.859 434.682 272.721C440.755 270.583 443.61 268.786 442.893 271.583C442.177 274.381 439.675 275.155 444.315 271.947C448.955 268.74 451.821 258.379 447.886 266.261C443.951 274.142 442.529 273.085 448.25 271.947C453.97 270.81 455.745 266.943 455.745 269.798C455.745 272.653 451.104 274.449 455.745 272.664C460.385 270.878 462.17 269.093 462.17 270.878C462.17 272.664 457.883 275.871 463.956 273.016C470.029 270.162 471.815 266.943 471.815 269.445C471.815 271.947 470.734 271.231 471.815 271.947C472.895 272.664 470.734 270.514 473.953 271.583C477.171 272.653 475.738 274.802 480.378 273.016C485.019 271.231 484.666 268.729 487.202 271.231C489.738 273.733 487.202 277.304 494.026 274.085C500.85 270.867 502.59 272.664 504.739 273.016C506.511 273.288 508.304 273.406 510.096 273.369C511.518 273.369 511.165 271.947 514.736 273.369C516.856 274.406 519.202 274.899 521.56 274.802H525.631" stroke="#009C8E" stroke-linecap="round" stroke-linejoin="round"/>
<path d="M547.444 274.859C549.154 274.119 550.821 273.284 552.437 272.357C555.656 270.571 563.867 264.509 564.219 268.433C564.572 272.357 555.292 277.361 556.372 273.073C557.453 268.786 563.867 270.935 568.507 272.721C573.147 274.506 574.194 272.357 579.937 272.357C585.68 272.357 584.93 274.142 587.784 274.859C590.639 275.575 589.57 274.859 594.608 272.721C599.646 270.582 596.03 260.21 592.822 267.364C589.615 274.518 588.535 277.361 596.03 273.79C603.524 270.219 601.386 274.506 602.455 274.506C603.524 274.506 601.739 274.859 606.026 273.073C610.314 271.288 604.957 273.79 608.176 274.506C611.394 275.223 613.169 271.64 616.023 270.571C618.878 269.502 619.242 272.721 619.242 272.721H622.096" stroke="#009C8E" stroke-linecap="round" stroke-linejoin="round"/>
<path d="M398.562 205.916C398.562 205.916 400.347 205.199 403.202 200.923C406.056 196.647 401.416 195.237 400.347 199.854C399.278 204.472 396.776 209.851 404.635 205.916C412.493 201.981 409.627 194.543 407.137 200.229C404.646 205.916 405.351 211.659 412.823 207.372C420.295 203.084 421.034 200.548 422.104 202.731C423.173 204.915 419.249 205.586 425.675 205.939C432.1 206.291 433.169 204.153 436.024 203.084C438.879 202.015 440.312 203.084 440.312 203.084C441.123 203.329 441.966 203.451 442.814 203.448C444.235 203.448 446.021 202.311 446.737 203.448C447.454 204.585 439.595 205.939 448.887 204.517C458.178 203.095 460.26 197.011 461.022 201.662C461.784 206.314 454.596 210.226 454.596 205.939C454.596 201.651 458.884 197.375 465.662 201.298C472.44 205.222 472.088 206.303 475.659 206.985C479.23 207.667 484.939 203.778 484.939 203.778C484.939 203.778 484.586 204.13 486.725 205.199C488.863 206.268 488.158 206.28 492.081 205.199C496.005 204.119 492.798 204.847 498.154 204.13C503.511 203.414 506.002 203.778 503.841 205.563C501.68 207.349 495.63 204.847 503.488 203.425C511.347 202.004 512.405 204.494 512.405 205.563C512.405 206.632 514.554 206.985 516.34 206.28C518.084 205.737 519.879 205.375 521.696 205.199" stroke="#009C8E" stroke-linecap="round" stroke-linejoin="round"/>
<path d="M407.842 184.887C410.713 184.41 413.543 183.706 416.303 182.783C418.657 181.953 420.852 180.861 421.774 179.53C424.264 175.959 416.77 177.028 412.129 181.68C407.489 186.331 414.984 186.673 424.64 183.465C434.295 180.258 433.92 172.036 427.494 178.109C421.069 184.182 423.571 185.604 433.567 183.465C443.564 181.327 456.052 178.814 452.128 182.328C448.204 185.842 447.135 184.114 453.914 182.692C460.692 181.271 464.979 178.052 463.91 180.543C462.841 183.033 459.987 186.229 465.343 183.761C470.7 181.293 469.984 183.761 469.984 183.761C479.616 182.692 484.973 170.546 478.195 174.833C471.417 179.121 471.371 184.83 477.478 184.478C483.586 184.125 489.261 178.405 486.406 181.259C483.551 184.114 478.911 186.263 488.897 183.761C498.882 181.259 502.112 175.902 501.407 179.474C500.702 183.045 500.338 182.692 503.909 182.692C507.48 182.692 513.906 177.688 511.768 181.259C509.63 184.83 508.549 185.183 511.768 184.478C514.986 183.773 519.615 181.259 521.048 181.259C522.481 181.259 518.193 185.183 522.47 184.83C526.746 184.478 535.685 179.144 535.685 179.144" stroke="#009C8E" stroke-linecap="round" stroke-linejoin="round"/>
<path d="M525.631 179.178C525.631 179.178 534.559 185.24 536.697 185.24" stroke="#009C8E" stroke-linecap="round" stroke-linejoin="round"/>
<path d="M488.646 310.297L489.704 315.255L500.679 302.165" stroke="#009C8E" stroke-linecap="round" stroke-linejoin="round"/>
<path d="M367.284 526.292L376.223 535.003C376.223 535.003 396.626 542.566 397.548 543.943C398.469 545.319 397.548 549.22 397.548 549.22H350.555L351.794 530.5L367.284 526.292Z" fill="white" stroke="#263238" stroke-linecap="round" stroke-linejoin="round"/>
<path d="M397.946 546.24H350.759L350.555 549.219H397.548C397.765 548.239 397.899 547.243 397.946 546.24Z" fill="white" stroke="#263238" stroke-linecap="round" stroke-linejoin="round"/>
<path d="M270.729 376.749L277.177 452.948C277.177 452.948 272.014 498.837 272.014 503.387C272.014 507.936 269.739 522.721 269.739 522.721L285.286 524.62L306.019 446.147L309.056 414.302L334.451 471.542L351.829 530.523L367.319 526.315L355.309 450.696L333.03 379.422L331.426 371.085L270.763 371.836L270.729 376.749Z" fill="#263238" stroke="#263238" stroke-linecap="round" stroke-linejoin="round"/>
<path d="M269.739 522.721L265.19 535.14C265.19 535.14 256.717 544.989 257.399 546.831C257.589 547.354 257.891 547.828 258.284 548.221C258.677 548.614 259.152 548.916 259.674 549.106H280.759C281.292 548.98 281.775 548.695 282.142 548.288C282.51 547.882 282.745 547.374 282.818 546.831C283.117 545.165 283.269 543.475 283.273 541.782L285.263 524.62L269.739 522.721Z" fill="white" stroke="#263238" stroke-linecap="round" stroke-linejoin="round"/>
<path d="M282.806 546.831C282.874 546.536 282.931 546.229 282.977 545.91H257.467C257.34 546.2 257.304 546.521 257.365 546.831C257.554 547.354 257.856 547.828 258.249 548.221C258.642 548.614 259.117 548.916 259.639 549.106H280.725C281.262 548.984 281.749 548.7 282.121 548.294C282.493 547.887 282.732 547.377 282.806 546.831Z" fill="white" stroke="#263238" stroke-linecap="round" stroke-linejoin="round"/>
<path d="M292.337 267.66C292.337 267.66 272.435 268.797 266.464 272.777C260.493 276.758 231.492 300.641 231.492 300.641L232.982 325.48L265.042 302.347L269.592 382.526L332.996 379.399L331.574 334.76L330.721 333.338C330.721 333.338 351.192 354.378 358.869 353.81C366.546 353.241 368.252 340.447 362.565 332.485C356.879 324.524 348.349 313.151 342.378 304.622C336.408 296.092 336.408 283.582 327.594 277.611C318.78 271.64 303.426 268.228 303.426 268.228L292.337 267.66Z" fill="#009C8E" stroke="#263238" stroke-linecap="round" stroke-linejoin="round"/>
<path d="M331.574 334.76L330.334 309.091" stroke="#263238" stroke-linecap="round" stroke-linejoin="round"/>
<path d="M334.395 319.315L335.122 314.914" stroke="#263238" stroke-linecap="round" stroke-linejoin="round"/>
<path d="M332.04 333.418L333.871 322.477" stroke="#263238" stroke-linecap="round" stroke-linejoin="round"/>
<path d="M305.553 349.818L308.407 352.934" stroke="#263238" stroke-linecap="round" stroke-linejoin="round"/>
<path d="M274.846 316.29L303.756 347.85" stroke="#263238" stroke-linecap="round" stroke-linejoin="round"/>
<path d="M285.229 336.83L296.42 347.805" stroke="#263238" stroke-linecap="round" stroke-linejoin="round"/>
<path d="M279.633 331.359L282.851 334.51" stroke="#263238" stroke-linecap="round" stroke-linejoin="round"/>
<path d="M274.504 296.081L265.042 302.347L274.163 301.562" stroke="#263238" stroke-linecap="round" stroke-linejoin="round"/>
<path d="M290.369 244.47C290.998 248.81 291.34 253.187 291.393 257.572C291.347 261.87 291.005 266.16 290.369 270.412C290.369 270.412 303.209 289.939 305.518 291.475C307.827 293.01 309.373 286.334 309.373 283.514C309.373 280.693 309.635 272.47 309.635 272.47V263.224L290.369 244.47Z" fill="#B0B0B0" stroke="#263238" stroke-linecap="round" stroke-linejoin="round"/>
<path d="M309.544 273.733C309.544 272.959 309.544 272.47 309.544 272.47V263.224L305.177 258.982L294.521 254.672L309.544 273.733Z" fill="#263238" stroke="#263238" stroke-linecap="round" stroke-linejoin="round"/>
<path d="M321.702 218.779C321.702 218.779 324.784 228.798 325.045 232.904C325.307 237.009 322.987 240.103 322.987 241.388C322.987 242.673 326.581 247.802 326.581 249.611C326.581 251.419 322.213 253.716 322.213 253.716C322.213 253.716 320.417 263.224 315.799 266.306C311.182 269.388 300.639 261.939 296.533 258.083C293.1 254.981 290.605 250.978 289.334 246.529C288.049 242.412 289.596 232.881 292.166 225.204C293.105 222.019 294.933 219.168 297.435 216.985C299.936 214.801 303.009 213.376 306.291 212.876C312.194 211.841 320.917 215.185 321.702 218.779Z" fill="#B0B0B0" stroke="#263238" stroke-linecap="round" stroke-linejoin="round"/>
<path d="M317.846 243.06C317.846 244.266 317.448 245.244 316.947 245.244C316.447 245.244 316.049 244.266 316.049 243.06C316.049 241.855 316.458 240.876 316.947 240.876C317.436 240.876 317.846 241.855 317.846 243.06Z" fill="#263238"/>
<path d="M315.23 238.556C315.23 238.556 318.836 236.759 320.917 239.079" stroke="#263238" stroke-linecap="round" stroke-linejoin="round"/>
<path d="M317.335 257.572C317.335 257.572 311.944 255.775 311.648 251.885" stroke="#263238" stroke-linecap="round" stroke-linejoin="round"/>
<path d="M291.347 243.526C291.347 243.526 296.226 244.3 296.738 241.729C297.25 239.159 294.168 238.647 297.511 236.338C300.855 234.03 303.198 234.064 304.187 232.483C305.177 230.902 303.778 228.457 305.575 224.351C307.372 220.246 309.533 221.303 314.673 222.077C317.678 222.497 320.572 223.502 323.192 225.034C323.192 225.034 326.353 218.346 323.01 214.491C319.666 210.636 309.055 206.723 297.239 210.317C285.422 213.911 281.84 222.463 280.816 231.71C279.792 240.956 283.386 246.096 286.798 247.12C290.21 248.144 291.347 243.526 291.347 243.526Z" fill="#263238" stroke="#263238" stroke-linecap="round" stroke-linejoin="round"/>
<path d="M293.964 242.923C293.964 242.923 290.882 233.427 288.277 238.306C285.673 243.185 286.992 247.291 289.562 248.837C289.87 249.048 290.222 249.183 290.592 249.231C290.961 249.279 291.337 249.239 291.688 249.113C292.039 248.988 292.355 248.781 292.61 248.51C292.865 248.238 293.053 247.91 293.156 247.552" fill="#B0B0B0"/>
<path d="M293.964 242.923C293.964 242.923 290.882 233.427 288.277 238.306C285.673 243.185 286.992 247.291 289.562 248.837C289.87 249.048 290.222 249.183 290.592 249.231C290.961 249.279 291.337 249.239 291.688 249.113C292.039 248.988 292.355 248.781 292.61 248.51C292.865 248.238 293.053 247.91 293.156 247.552" stroke="#263238" stroke-linecap="round" stroke-linejoin="round"/>
<path d="M350.737 340.208C354.013 334.191 368.513 316.484 368.513 316.484L377.964 321.033C377.964 321.033 370.811 347.1 367.376 350.819C363.941 354.538 360.165 355.8 356.151 352.934" fill="#B0B0B0"/>
<path d="M350.737 340.208C354.013 334.191 368.513 316.484 368.513 316.484L377.964 321.033C377.964 321.033 370.811 347.1 367.376 350.819C363.941 354.538 360.165 355.8 356.151 352.934" stroke="#263238" stroke-linecap="round" stroke-linejoin="round"/>
<path d="M356.355 352.763C358.181 353.767 360.299 354.105 362.347 353.719C364.394 353.333 366.244 352.248 367.58 350.648C368.615 349.511 369.991 346.36 371.401 342.505C368.099 343.224 364.65 342.79 361.628 341.275C358.607 339.761 356.196 337.256 354.797 334.18C353.087 336.358 351.612 338.71 350.395 341.197C350.282 341.55 351.225 345.905 351.169 346.224" fill="#009C8E"/>
<path d="M356.355 352.763C358.181 353.767 360.299 354.105 362.347 353.719C364.394 353.333 366.244 352.248 367.58 350.648C368.615 349.511 369.991 346.36 371.401 342.505C368.099 343.224 364.65 342.79 361.628 341.275C358.607 339.761 356.196 337.256 354.797 334.18C353.087 336.358 351.612 338.71 350.395 341.197C350.282 341.55 351.225 345.905 351.169 346.224" stroke="#263238" stroke-linecap="round" stroke-linejoin="round"/>
<path d="M463.898 356.278C463.676 356.28 463.455 356.238 463.25 356.152L451.115 351.114C450.903 351.032 450.71 350.908 450.547 350.75C450.383 350.592 450.253 350.403 450.164 350.194C450.075 349.985 450.028 349.76 450.027 349.533C450.026 349.305 450.071 349.08 450.158 348.87C450.245 348.66 450.373 348.47 450.535 348.31C450.697 348.151 450.889 348.025 451.1 347.94C451.311 347.856 451.536 347.815 451.764 347.819C451.991 347.823 452.215 347.872 452.423 347.964L464.558 353.002C464.919 353.156 465.216 353.43 465.399 353.777C465.582 354.124 465.639 354.524 465.562 354.908C465.484 355.293 465.276 355.639 464.973 355.889C464.67 356.138 464.291 356.275 463.898 356.278V356.278Z" fill="white" stroke="#263238" stroke-linecap="round" stroke-linejoin="round"/>
<path d="M426.014 347.452L156.294 226.387C154.23 225.458 152.62 223.748 151.816 221.633C151.012 219.518 151.08 217.17 152.006 215.105V215.105C152.933 213.042 154.64 211.432 156.754 210.628C158.867 209.824 161.213 209.892 163.277 210.817L432.997 331.882L426.014 347.452Z" fill="white" stroke="#263238" stroke-linecap="round" stroke-linejoin="round"/>
<path d="M192.903 224.113L163.333 210.818C161.268 209.884 158.917 209.809 156.797 210.609C154.677 211.409 152.962 213.018 152.028 215.082C151.095 217.147 151.02 219.498 151.819 221.618C152.619 223.738 154.229 225.454 156.293 226.387L185.18 239.443L192.903 224.113Z" fill="white" stroke="#263238" stroke-linecap="round" stroke-linejoin="round"/>
<path d="M432.998 331.883L459.997 350.375L458.314 353.969L426.015 347.452L432.998 331.883Z" fill="white" stroke="#263238" stroke-linecap="round" stroke-linejoin="round"/>
<path d="M185.738 220.917L163.276 210.841C161.234 210.029 158.957 210.037 156.921 210.862C154.884 211.688 153.245 213.268 152.345 215.272C151.444 217.277 151.352 219.552 152.088 221.622C152.823 223.693 154.33 225.4 156.293 226.387L177.811 236.043L185.738 220.917Z" fill="#009C8E" stroke="#263238" stroke-linecap="round" stroke-linejoin="round"/>
<path d="M213.011 238.658C213.011 238.658 210.736 250.884 212.442 253.159C214.148 255.434 223.531 263.963 223.531 263.963C223.531 263.963 219.834 313.72 220.687 318.269C221.54 322.818 231.207 326.23 234.335 325.377C237.463 324.524 239.737 321.112 242.58 314.857C245.424 308.602 232.629 264.816 232.629 262.826C232.629 260.836 226.658 245.482 226.658 245.482C226.658 245.482 231.492 242.07 232.345 240.933C233.198 239.796 228.933 240.649 228.08 240.649C225.286 240.326 222.527 239.755 219.834 238.943C218.697 238.374 213.011 238.658 213.011 238.658Z" fill="#B0B0B0" stroke="#263238" stroke-linecap="round" stroke-linejoin="round"/>
<path d="M226.772 240.581C226.772 240.581 222.746 241.593 222.894 242.594C223.041 243.594 223.041 249.929 223.041 249.929" fill="white"/>
<path d="M226.772 240.581C226.772 240.581 222.746 241.593 222.894 242.594C223.041 243.594 223.041 249.929 223.041 249.929" stroke="#263238" stroke-linecap="round" stroke-linejoin="round"/>
<path d="M220.596 239.58C220.596 239.58 217.185 239.432 217.185 241.309V249.213" fill="white"/>
<path d="M220.596 239.58C220.596 239.58 217.185 239.432 217.185 241.309V249.213" stroke="#263238" stroke-linecap="round" stroke-linejoin="round"/>
<path d="M212.965 239.432L213.545 249.213" stroke="#263238" stroke-linecap="round" stroke-linejoin="round"/>
<path d="M234.335 325.332C237.463 324.479 239.738 321.067 242.581 314.812C243.661 312.458 242.501 304.758 240.659 295.978C237.841 297.874 234.612 299.069 231.239 299.465C227.866 299.861 224.448 299.445 221.268 298.253C220.711 308.022 220.358 316.518 220.688 318.281C221.541 322.818 231.208 326.23 234.335 325.332Z" fill="#009C8E" stroke="#263238" stroke-linecap="round" stroke-linejoin="round"/>
<path d="M368.41 302.859C369.588 301.866 371.089 301.34 372.63 301.38C374.904 301.596 375.37 304.974 375.154 307.92C374.938 310.865 371.742 311.514 371.356 309.614C370.969 307.715 370.514 304.758 370.514 304.758L368.41 302.859Z" fill="#B0B0B0" stroke="#263238" stroke-linecap="round" stroke-linejoin="round"/>
<path d="M374.733 302.654C375.519 302.424 376.362 302.491 377.102 302.841C377.842 303.191 378.427 303.8 378.748 304.553C380.01 307.294 378.532 310.877 377.053 311.093C375.575 311.309 375.154 307.92 375.154 307.92L374.733 302.654Z" fill="#B0B0B0" stroke="#263238" stroke-linecap="round" stroke-linejoin="round"/>
<path d="M378.748 304.553C379.033 304.408 379.348 304.332 379.668 304.33C379.988 304.329 380.304 304.402 380.59 304.545C380.877 304.687 381.126 304.895 381.317 305.152C381.509 305.408 381.638 305.705 381.694 306.021C382.547 308.557 383.388 311.707 381.489 311.707C379.59 311.707 378.953 308.295 378.953 308.295L378.748 304.553Z" fill="#B0B0B0" stroke="#263238" stroke-linecap="round" stroke-linejoin="round"/>
<path d="M381.694 305.998C381.694 305.998 384.447 305.793 385.106 307.476C385.766 309.16 387.006 312.333 384.685 312.333C384.06 312.333 382.581 309.376 382.581 309.376L381.694 305.998Z" fill="#B0B0B0" stroke="#263238" stroke-linecap="round" stroke-linejoin="round"/>
</svg>
