<svg width="852" height="748" viewBox="0 0 852 748" fill="none" xmlns="http://www.w3.org/2000/svg">
<path d="M111.22 428.5C111.22 604.679 254.042 747.5 430.221 747.5C1015.39 692.096 796.328 618.393 755.268 471.068C747.884 444.572 760.976 418.096 779.537 397.796C1069.35 80.8211 405.512 0 234.72 0C-207.78 0 111.22 252.321 111.22 428.5Z" fill="#F8B84A"/>
<path opacity="0.1" d="M540.198 284.515C539.907 276.078 539.358 267.08 538.45 257.769C537.229 239.169 534.898 221.801 530.674 210.876C507.412 206.114 386.566 214.988 386.476 214.988L385.726 211.627L385.423 210.293L384.885 207.952L384.74 207.414C383.955 204.254 383.07 201.128 382.039 198.024C382.039 198.024 290.427 189.844 260.039 197.777C260.039 198.046 260.039 198.304 260.039 198.573L260.129 206.069C260.218 220.58 259.882 234.194 260.633 249.141V249.253C260.487 249.24 260.341 249.24 260.196 249.253C259.017 249.409 257.904 249.888 256.98 250.638C256.056 251.387 255.358 252.378 254.963 253.5C254.662 254.37 254.551 255.295 254.638 256.212L255.042 260.929C255.042 261.007 255.042 261.074 255.042 261.153C256.162 273.053 257.283 284.84 257.283 284.84C257.283 284.84 257.865 284.896 258.818 284.941L263.849 285.3C253.137 286.286 241.439 300.427 241.954 312.584C242.47 324.741 230.749 347.633 233.674 360.766C235.915 371.029 247.445 387.534 253.058 400.073L252.621 402.56L227.556 452.893C229.236 450.428 244.363 516.201 314.619 502.274L364.604 420.836C370.179 416.631 375.281 411.833 379.821 406.527C381.736 404.623 383.33 402.421 384.538 400.005V400.005C386.323 397.154 387.685 394.059 388.583 390.817C388.807 389.966 389.042 389.125 389.289 388.263C393.367 377.876 398.813 363.701 402.802 353.886C455.466 352.317 510.762 349.101 538.528 342.569H538.584C541.274 324.304 541.33 303.81 540.198 284.515ZM269.743 330.534C269.308 327.5 269.046 324.444 268.958 321.38C269.574 324.607 270.247 327.823 270.953 331.05C270.549 330.871 270.146 330.691 269.743 330.534Z" fill="black"/>
<path d="M221.83 449.677C221.83 449.677 244.33 516.202 314.619 502.274C314.619 502.274 330.216 429.049 343.281 418.236C351.707 411.289 370.319 398.829 374.297 389.809C378.274 380.789 394.253 337.952 397.345 332.798C400.438 327.644 363.82 268.335 363.82 268.335L286.685 308.136L243.769 384.33C243.769 384.33 235.534 433.632 221.83 449.677Z" fill="white"/>
<path d="M243.018 390.268C243.018 390.268 237.517 431.402 219.331 452.893" stroke="#263238" stroke-linecap="round" stroke-linejoin="round"/>
<path d="M314.618 502.274C314.618 502.274 330.126 431.424 343.281 418.236C343.281 418.236 372.996 400.958 378.352 380.621C382.061 366.536 388.807 350.3 392.034 342.927" stroke="#263238" stroke-linecap="round" stroke-linejoin="round"/>
<path d="M320.871 345.202C319.75 344.485 338.855 359.768 339.594 380.654" stroke="#263238" stroke-linecap="round" stroke-linejoin="round"/>
<path d="M528.355 332.394C466.414 346.961 266.92 345.045 266.92 345.045C265.239 341.504 263.211 332.585 261.25 322.254C257.328 301.513 253.664 275.081 253.664 275.081L247.064 274.621C247.064 274.621 245.944 262.834 244.823 250.934C243.703 239.034 250.426 239.045 250.426 239.045L249.944 197.856L249.821 187.57C280.209 179.636 371.821 187.816 371.821 187.816L374.678 197.744L376.269 204.781L520.455 200.713C533.677 234.9 528.355 332.394 528.355 332.394Z" fill="#009C8E"/>
<path d="M504.4 232.473L409.829 237.202C405.937 237.396 402.939 240.71 403.134 244.602L404.094 263.819C404.289 267.711 407.602 270.709 411.495 270.514L506.065 265.786C509.958 265.591 512.955 262.278 512.761 258.385L511.8 239.169C511.605 235.276 508.292 232.279 504.4 232.473Z" fill="#263238"/>
<path d="M512.242 278.341L512.544 281.535L403.654 285.748L403.564 282.879L512.242 278.341Z" fill="#263238"/>
<path d="M512.779 289.446L512.88 292.314L404.001 296.337L403.9 293.479L512.779 289.446Z" fill="#263238"/>
<path opacity="0.3" d="M520.432 200.713C520.432 200.713 536.5 276.907 528.354 332.394C528.354 332.394 426.747 344.317 391.955 342.389L390.532 323.845L393.445 323.397C393.445 323.397 379.417 217.554 376.234 204.781C376.234 204.781 497.237 195.94 520.432 200.713Z" fill="black"/>
<path opacity="0.8" d="M387.182 323.576L388.381 337.594C388.381 337.594 285.967 342.076 276.959 338.815C267.95 335.554 277.44 330.355 301.262 328.484C325.084 326.613 387.182 323.576 387.182 323.576Z" fill="white"/>
<path d="M326.036 264.122C331.203 264.122 335.392 260.33 335.392 255.651C335.392 250.973 331.203 247.18 326.036 247.18C320.869 247.18 316.68 250.973 316.68 255.651C316.68 260.33 320.869 264.122 326.036 264.122Z" fill="#263238"/>
<path d="M253.663 275.07C255.774 298.772 260.21 322.21 266.907 345.045C310.349 344.675 353.78 344.193 397.211 342.804C440.641 341.415 485.271 338.479 528.309 332.394C528.309 332.394 536.018 264.313 520.387 200.713C503.109 197.116 376.672 204.758 376.672 204.758" stroke="#263238" stroke-linecap="round" stroke-linejoin="round"/>
<path d="M387.182 323.576L388.381 337.594L290.898 339.835C286.875 340.182 280.611 340.709 276.914 338.815C275.233 337.952 274.023 335.846 274.818 334.12C275.536 332.574 277.418 332.025 279.099 331.689C291.021 329.235 303.19 328.204 315.325 327.307C341.305 325.38 367.327 324.077 393.39 323.397C392.841 323.397 386.488 270.969 385.782 266.128C383.025 247.192 380.403 228.177 376.997 209.341C375.768 202.049 374.011 194.855 371.742 187.816C331.583 184.948 289.643 182.292 249.73 187.57C250.1 205.352 249.439 221.185 250.347 239.046" stroke="#263238" stroke-linecap="round" stroke-linejoin="round"/>
<path d="M265.418 339.767C265.178 339.042 265.035 338.289 264.992 337.526" stroke="#263238" stroke-linecap="round" stroke-linejoin="round"/>
<path d="M265.642 333.28C267.132 329.548 271.603 325.335 283.76 323.991C305.935 321.526 354.273 317.088 382.633 316.013" stroke="#263238" stroke-linecap="round" stroke-linejoin="round" stroke-dasharray="3.91 3.91"/>
<path d="M384.829 315.934L387.07 315.856L386.768 313.615" stroke="#263238" stroke-linecap="round" stroke-linejoin="round"/>
<path d="M386.141 309.323C381.042 272.649 375.395 236.244 368.93 199.772" stroke="#263238" stroke-linecap="round" stroke-linejoin="round" stroke-dasharray="3.88 3.88"/>
<path d="M368.571 197.632L368.168 195.391L365.927 195.234" stroke="#263238" stroke-linecap="round" stroke-linejoin="round"/>
<path d="M361.4 194.943C342.766 193.699 289.778 190.595 254.426 193.015" stroke="#263238" stroke-linecap="round" stroke-linejoin="round" stroke-dasharray="4.07 4.07"/>
<path d="M252.139 193.183L249.898 193.363" stroke="#263238" stroke-linecap="round" stroke-linejoin="round"/>
<path d="M247.064 274.621L244.386 246.049C244.305 245.19 244.397 244.325 244.658 243.503C244.92 242.682 245.344 241.921 245.905 241.268C246.467 240.614 247.155 240.08 247.928 239.698C248.701 239.316 249.542 239.094 250.403 239.045C266.874 238.093 309.476 235.852 325.824 237.163C333.668 237.79 342.195 240.312 345.993 247.819C349.153 254.004 349.623 263.282 344.323 268.369C336.256 276.1 320.95 275.507 310.552 275.876C291.189 276.616 247.075 274.789 247.064 274.621Z" stroke="#263238" stroke-linecap="round" stroke-linejoin="round"/>
<path d="M348.357 257.153C348.357 256.357 352.435 273.568 337.533 279.249C322.63 284.93 253.663 283.137 253.663 283.137V275.07C253.663 275.07 302.45 276.1 310.573 275.876C318.697 275.652 347.483 278.353 348.357 257.153Z" fill="#263238"/>
<path d="M334.025 353.292C334.025 353.292 346.216 360.429 350.777 373.842" stroke="#263238" stroke-linecap="round" stroke-linejoin="round"/>
<path d="M244.722 243.337C244.722 243.337 304.512 240.525 319.728 241.029C334.944 241.533 342.396 244.883 343.908 254.419C345.421 263.954 336.199 269.893 328.849 271.013C321.498 272.134 247.052 272.459 247.052 272.459" stroke="#263238" stroke-linecap="round" stroke-linejoin="round" stroke-dasharray="4 4"/>
<path d="M285.811 358.849C285.811 358.849 276.555 326.702 259.524 320.371C259.524 320.371 256.162 298.432 263.423 297.222C270.684 296.012 291.189 282.498 285.833 265.635C280.477 248.771 264.398 274.095 253.686 275.07C242.974 276.044 231.276 290.196 231.758 302.365C232.24 314.534 220.553 337.425 223.477 350.547C226.402 363.668 244.431 387.075 245.887 399.255" fill="white"/>
<path d="M285.811 358.849C285.811 358.849 276.555 326.702 259.524 320.371C259.524 320.371 256.162 298.432 263.423 297.222C270.684 296.012 291.189 282.498 285.833 265.635C280.477 248.771 264.398 274.095 253.686 275.07C242.974 276.044 231.276 290.196 231.758 302.365C232.24 314.534 220.553 337.425 223.477 350.547C226.402 363.668 244.431 387.075 245.887 399.255" stroke="#263238" stroke-linecap="round" stroke-linejoin="round"/>
<path d="M263.39 270.128C263.39 270.128 276.219 272.459 283.189 264.313C290.158 256.167 282.136 255.651 282.136 255.651L263.39 270.128Z" fill="white" stroke="#263238" stroke-linecap="round" stroke-linejoin="round"/>
<path d="M240.475 288.28C242.817 288.441 245.081 289.185 247.063 290.443" stroke="#263238" stroke-linecap="round" stroke-linejoin="round"/>
<path d="M240.083 292.942C242.416 293.163 244.638 294.041 246.492 295.474" stroke="#263238" stroke-linecap="round" stroke-linejoin="round"/>
<path d="M274.717 336.002C274.717 336.002 329.621 333.168 344.076 333.997" stroke="#263238" stroke-linecap="round" stroke-linejoin="round"/>
<path d="M330.709 329.806C330.709 329.806 344.525 328.686 353.119 329.806" stroke="#263238" stroke-linecap="round" stroke-linejoin="round"/>
<path d="M365.714 333.84H388.068" stroke="#263238" stroke-linecap="round" stroke-linejoin="round"/>
<path d="M379.238 211.055C379.238 211.055 477.428 202.282 516.881 207.291C516.881 207.291 527.525 226.866 525.206 327.184C480.863 332.868 436.249 336.186 391.553 337.123" stroke="#263238" stroke-linecap="round" stroke-linejoin="round" stroke-dasharray="4 4"/>
<g opacity="0.1">
<path opacity="0.1" d="M645.043 349.885C642.253 338.019 638.163 333.56 634.062 330.131C634.062 330.131 633.972 323.408 628.717 319.576C627.314 318.339 625.815 317.215 624.235 316.214C619.305 312.517 613.871 308.371 613.871 308.371C611.316 300.976 607.853 292.023 604.111 283.216L604.302 285.221C600.469 275.865 596.716 266.554 595.662 263.461V263.394C596.783 266.374 597.903 269.254 599.136 271.91L585.107 222.328C584.771 220.333 584.424 218.372 584.076 216.479C583.404 210.876 581.578 200.321 577.174 199.57C577.01 199.559 576.845 199.559 576.681 199.57C576.681 199.57 571.493 197.329 571.493 206.528C565.319 208.59 562.933 213.251 562.339 218.731C562.018 220.469 561.98 222.247 562.227 223.997C562.339 226.025 562.574 228.098 562.888 230.16L543.01 204.03L541.094 201.542L516.577 169.272L483.623 125.796C482.397 124.183 480.865 122.826 479.115 121.804C477.364 120.783 475.429 120.116 473.421 119.843C471.413 119.569 469.37 119.694 467.41 120.21C465.45 120.725 463.611 121.623 461.998 122.849L421.088 153.921L405.121 166.045C392.874 172.42 396.068 185.015 399.463 189.486L470.805 283.395C470.433 283.348 470.059 283.329 469.684 283.339C469.684 283.339 467.645 278.532 462.603 279.294C461.529 279.343 460.49 279.689 459.6 280.291C458.787 280.719 458.096 281.348 457.594 282.118C457.035 282.792 456.533 283.512 456.093 284.269C453.527 288.661 455.902 299.407 459.611 312.528C459.846 313.379 460.082 314.197 460.306 314.959V315.083L461.258 318.366C464.889 330.96 471.679 355.69 472.934 367.813C473.024 368.934 473.08 370.133 473.102 371.253C473.18 385.215 466.984 408.588 469.651 418.247C469.998 419.513 470.357 420.723 470.715 421.922C472.699 428.377 474.469 434.483 477.584 440.545C481.371 447.94 485.887 455.033 490.111 462.193C497.865 475.348 505.888 488.346 514.18 501.187C518 507.081 522.471 512.459 526.796 517.994C528.78 520.538 533.105 524.359 533.856 527.619C533.856 527.619 572.21 530.79 593.679 517.154L591.662 486.631L606.061 403.882C610.173 397.641 622.868 385.45 625.401 381.596C626.712 379.68 627.989 377.775 629.233 375.915C638.701 367.074 643.441 360.228 645.525 352.261C645.57 352.283 645.424 351.376 645.043 349.885ZM512.264 367.959L512.073 367.601C515.991 369.374 520.141 370.582 524.399 371.186C519.928 370.671 514.874 369.954 512.264 367.959ZM528.444 371.668L530.505 371.814C529.816 371.811 529.127 371.762 528.444 371.668V371.668ZM511.86 367.119L509.283 362.009C505.697 351.723 497.596 327.475 497.563 327.375C495.976 320.387 493.856 313.532 491.22 306.869C493.127 307.541 495.17 307.729 497.167 307.416C499.164 307.104 501.052 306.3 502.661 305.077L522.27 290.185C524.298 291.406 526.371 292.505 528.399 293.468L546.764 307.822L532.197 367.69L511.86 367.119ZM586.194 229.23C587.718 236.379 590.127 246.665 593.321 256.626C590.22 247.696 587.83 238.536 586.172 229.23H586.194Z" fill="black"/>
<path opacity="0.1" d="M502.952 516.907L503.064 517.445C503.064 517.445 503.031 517.244 502.952 516.907Z" fill="black"/>
</g>
<path d="M571.022 231.426C572.143 230.687 588.569 221.745 596.794 248.559C605.018 275.372 614.666 320.999 614.666 320.999L595.124 324.797C595.124 324.797 577.017 315.161 560.792 291.025C560.792 291.025 538.046 285.132 528.141 271.125C519.177 258.397 546.831 211.66 546.831 211.66L571.022 231.426Z" fill="white"/>
<path d="M563.997 264.795C568.838 272.055 578.003 287.328 590.374 292.146" stroke="#263238" stroke-linecap="round" stroke-linejoin="round"/>
<path d="M550.305 272.604C552.546 273.512 558.148 276.739 560.793 276.862C560.793 276.862 572.21 299.463 591.046 306.802" stroke="#263238" stroke-linecap="round" stroke-linejoin="round"/>
<path d="M539.828 280.93C546.831 286.79 555.179 290.79 560.793 291.014C560.793 291.014 572.211 313.615 591.046 320.954" stroke="#263238" stroke-linecap="round" stroke-linejoin="round"/>
<path d="M480.891 117.159L418.931 164.223C413.55 168.31 412.501 175.986 416.589 181.367L502.645 294.66C506.732 300.041 514.408 301.09 519.789 297.002L581.749 249.938C587.13 245.851 588.179 238.175 584.092 232.793L498.036 119.501C493.948 114.12 486.272 113.071 480.891 117.159Z" fill="#263238"/>
<path d="M579.986 247.483L523.132 290.678C521.519 291.907 519.68 292.806 517.719 293.323C515.758 293.839 513.714 293.964 511.705 293.689C509.696 293.414 507.761 292.746 506.011 291.721C504.261 290.697 502.73 289.337 501.506 287.72L419.318 179.524C417.979 177.777 417.038 175.758 416.561 173.608C415.899 170.722 416.085 167.706 417.096 164.922C418.108 162.139 419.903 159.708 422.265 157.921L438.243 145.797L479.141 114.715C480.755 113.488 482.595 112.592 484.555 112.077C486.516 111.562 488.559 111.438 490.567 111.713C492.575 111.988 494.51 112.655 496.26 113.678C498.01 114.701 499.542 116.058 500.767 117.673L533.743 161.081L558.26 193.351L582.911 225.846C584.141 227.458 585.041 229.297 585.559 231.257C586.078 233.218 586.205 235.261 585.934 237.271C585.662 239.28 584.997 241.216 583.976 242.969C582.956 244.721 581.6 246.255 579.986 247.483V247.483Z" fill="#009C8E"/>
<path opacity="0.1" d="M533.699 161.081L438.21 145.786L479.142 114.715C480.756 113.488 482.596 112.592 484.556 112.077C486.517 111.562 488.559 111.438 490.568 111.713C492.576 111.988 494.51 112.655 496.261 113.678C498.011 114.701 499.542 116.058 500.768 117.673L533.699 161.081Z" fill="black"/>
<path opacity="0.1" d="M579.987 247.483L523.132 290.678C521.52 291.907 519.68 292.806 517.719 293.323C515.758 293.839 513.714 293.964 511.705 293.689C509.696 293.414 507.761 292.745 506.011 291.721C504.261 290.697 502.73 289.337 501.507 287.72L419.318 179.524C417.979 177.777 417.038 175.758 416.562 173.608L560.143 195.94L582.911 225.913C585.374 229.165 586.449 233.259 585.901 237.302C585.353 241.344 583.226 245.004 579.987 247.483V247.483Z" fill="black"/>
<path d="M487.211 125.7L477.173 133.325C475.162 134.852 474.77 137.72 476.298 139.731L488.45 155.729C489.977 157.74 492.845 158.132 494.856 156.605L504.894 148.98C506.904 147.452 507.296 144.584 505.769 142.574L493.617 126.575C492.089 124.565 489.221 124.173 487.211 125.7Z" fill="white" stroke="#263238" stroke-linecap="round" stroke-linejoin="round"/>
<path d="M482.402 129.337L499.736 152.89" stroke="#263238" stroke-linecap="round" stroke-linejoin="round"/>
<path d="M482.402 147.769L499.736 134.626" stroke="#263238" stroke-linecap="round" stroke-linejoin="round"/>
<path d="M515.972 283.63L513.014 285.804L476.923 238.295L479.859 236.076L515.972 283.63Z" fill="#263238"/>
<path d="M520.981 279.921L518.023 282.118L481.887 234.53L484.8 232.311L520.981 279.921Z" fill="#263238"/>
<path d="M525.979 276.235L523.032 278.409L486.84 230.776L489.764 228.546L525.979 276.235Z" fill="#263238"/>
<path d="M530.987 272.526L528.029 274.7L492.318 227.695L495.232 225.465L530.987 272.526Z" fill="#263238"/>
<path d="M536.389 268.537L533.43 270.722L497.664 223.639L500.589 221.409L536.389 268.537Z" fill="#263238"/>
<path d="M536.389 213.14L533.43 215.313L497.664 168.23L500.589 166.011L536.389 213.14Z" fill="#263238"/>
<path d="M458.493 130.523L453.916 134L554.7 266.681L559.277 263.204L458.493 130.523Z" fill="#263238"/>
<path d="M579.986 247.483L523.132 290.678C521.519 291.907 519.68 292.806 517.719 293.323C515.758 293.839 513.714 293.964 511.705 293.689C509.696 293.414 507.761 292.746 506.011 291.721C504.261 290.697 502.73 289.337 501.506 287.72L419.318 179.524C417.979 177.777 417.038 175.758 416.561 173.608C415.899 170.722 416.085 167.706 417.096 164.922C418.108 162.139 419.903 159.708 422.265 157.921L438.243 145.797L479.141 114.715C480.755 113.488 482.595 112.592 484.555 112.077C486.516 111.562 488.559 111.438 490.567 111.713C492.575 111.988 494.51 112.655 496.26 113.678C498.01 114.701 499.542 116.058 500.767 117.673L533.743 161.081L558.26 193.351L582.911 225.846C584.141 227.458 585.041 229.297 585.559 231.257C586.078 233.218 586.205 235.261 585.934 237.271C585.662 239.28 584.997 241.216 583.976 242.969C582.956 244.721 581.6 246.255 579.986 247.483V247.483Z" stroke="#263238" stroke-linecap="round" stroke-linejoin="round"/>
<path d="M533.901 527.608C533.901 527.608 600.077 551.139 620.101 499.887C620.101 499.887 588.783 461.79 605.882 430.662C616.638 411.054 646.388 367.769 646.388 367.769C646.388 367.769 658.814 355.97 662.68 344.115C662.68 344.115 660.551 330.904 651.183 321.963C651.183 321.963 651.083 315.24 645.827 311.407C640.572 307.575 630.936 300.202 630.936 300.202C630.936 300.202 615.092 262.195 612.739 255.326C610.386 248.458 605.657 235.471 603.293 221.129C600.929 206.786 598.744 191.346 593.724 191.391C593.724 191.391 588.547 189.15 588.547 198.349C588.547 198.349 577.679 203.951 579.281 215.806C580.883 227.661 582.362 233.79 581.936 240.457C581.511 247.124 583.651 270.274 589.007 277.535C589.007 277.535 590.8 310.029 593.489 318.489C593.578 318.747 593.657 318.982 593.735 319.195C596.559 326.355 568.345 353.93 553.072 361.393C553.072 361.393 551.47 364.373 545.543 363.556C539.615 362.738 529.587 362.357 527.861 357.953C526.136 353.549 514.65 319.195 514.65 319.195C514.65 319.195 505.361 275.159 486.806 275.17C486.806 275.17 483.993 268.447 476.721 272.123C469.449 275.798 474.211 295.832 477.427 306.791C480.643 317.749 488.789 346.558 490.111 359.813C491.434 373.069 483.926 399.624 486.75 410.068C489.574 420.511 492.711 427.559 501.72 444.657C510.729 461.756 530.685 512.739 533.901 527.608Z" fill="white"/>
<path d="M533.901 527.608C533.901 527.608 519.738 474.295 498.919 439.817C478.1 405.339 490.347 393.148 490.347 364.452C490.347 335.756 466.962 286.902 473.271 276.134C479.579 265.366 488.184 273.983 491.781 284.034C495.378 294.085 490.347 299.833 480.262 300.55" stroke="#263238" stroke-linecap="round" stroke-linejoin="round"/>
<path d="M486.806 275.215C486.806 275.215 498.896 274.476 506.325 293.804C513.754 313.133 525.653 362.155 538.046 377.069" stroke="#263238" stroke-linecap="round" stroke-linejoin="round"/>
<path d="M528.265 358.962C528.332 359.118 545.576 368.732 572.334 360.306" stroke="#263238" stroke-linecap="round" stroke-linejoin="round"/>
<path d="M489.103 331.946C490.447 330.301 492.2 329.039 494.187 328.286C496.173 327.532 498.323 327.315 500.42 327.655" stroke="#263238" stroke-linecap="round" stroke-linejoin="round"/>
<path d="M491.399 338.031C492.561 336.641 494.091 335.607 495.813 335.046C497.534 334.486 499.38 334.421 501.137 334.86" stroke="#263238" stroke-linecap="round" stroke-linejoin="round"/>
<path d="M588.547 198.315C570.955 204.175 584.065 230.743 581.936 240.435C579.807 250.127 585.297 268.683 589.522 278.745C589.522 290.544 593.724 319.172 593.724 319.172C591.124 328.282 569.431 355.129 548.354 363.533" stroke="#263238" stroke-linecap="round" stroke-linejoin="round"/>
<path d="M601.456 211.694C601.456 211.694 600.145 191.357 593.724 191.357C587.304 191.357 587.696 205.061 590.363 215.235C593.029 225.409 603.405 223.952 601.456 211.694Z" stroke="#263238" stroke-linecap="round" stroke-linejoin="round"/>
<path d="M601.455 211.694C601.455 211.694 606.923 243.662 616.19 263.741" stroke="#263238" stroke-linecap="round" stroke-linejoin="round"/>
<path d="M627.115 338.613C631.597 331.352 633.58 324.484 635.239 315.744C634.824 310.265 628.516 292.381 621.188 275.058" stroke="#263238" stroke-linecap="round" stroke-linejoin="round"/>
<path d="M631.529 301.894C638.801 307.362 651.452 311.564 649.995 320.999C648.388 330.437 645.085 339.506 640.247 347.768" stroke="#263238" stroke-linecap="round" stroke-linejoin="round"/>
<path d="M621.714 502.274C621.714 502.274 596.38 467.101 601.455 442.809C605.187 424.937 629.177 393.686 646.388 367.802C655.867 358.962 660.607 352.115 662.68 344.148C659.643 329.19 654.713 324.831 649.973 320.999" stroke="#263238" stroke-linecap="round" stroke-linejoin="round"/>
<path d="M628.471 307.699C625.649 306.905 622.694 306.7 619.79 307.095C616.885 307.49 614.092 308.477 611.585 309.996" stroke="#263238" stroke-linecap="round" stroke-linejoin="round"/>
<path d="M627.048 313.716C623.606 313.194 620.088 313.812 617.03 315.475" stroke="#263238" stroke-linecap="round" stroke-linejoin="round"/>
</svg>
