<svg width="743" height="793" viewBox="0 0 743 793" fill="none" xmlns="http://www.w3.org/2000/svg">
<path d="M716.747 419.117C625.247 688.117 907.246 711.616 578.747 781.116C250.247 850.616 265.247 599.117 67.2469 408.117C-130.753 217.116 162.747 176.616 252.747 39.1164C342.747 -98.3835 808.246 150.116 716.747 419.117Z" fill="#F8B84A"/>
<path d="M391.782 569.116C497.125 569.116 582.522 563.796 582.522 557.234C582.522 550.671 497.125 545.351 391.782 545.351C286.439 545.351 201.041 550.671 201.041 557.234C201.041 563.796 286.439 569.116 391.782 569.116Z" fill="#009C8E"/>
<path opacity="0.8" d="M391.782 569.116C497.125 569.116 582.522 563.796 582.522 557.234C582.522 550.671 497.125 545.351 391.782 545.351C286.439 545.351 201.041 550.671 201.041 557.234C201.041 563.796 286.439 569.116 391.782 569.116Z" fill="white"/>
<path d="M535.115 105.381H343.326C330.085 105.381 319.351 116.115 319.351 129.356V534.258C319.351 547.499 330.085 558.233 343.326 558.233H535.115C548.356 558.233 559.091 547.499 559.091 534.258V129.356C559.091 116.115 548.356 105.381 535.115 105.381Z" fill="#263238"/>
<path d="M548.43 155.108H330V508.506H548.43V155.108Z" fill="white" stroke="#263238" stroke-width="1.33739" stroke-miterlimit="10"/>
<path d="M472.699 298.209C491.189 279.719 491.189 249.742 472.699 231.252C454.21 212.762 424.232 212.762 405.742 231.252C387.253 249.742 387.253 279.719 405.742 298.209C424.232 316.699 454.21 316.699 472.699 298.209Z" fill="#009C8E"/>
<path d="M501.38 486.283H377.074C376.794 486.284 376.517 486.231 376.258 486.125C375.999 486.019 375.764 485.863 375.565 485.665C375.367 485.468 375.21 485.234 375.102 484.975C374.995 484.717 374.939 484.44 374.939 484.16C374.938 483.88 374.992 483.601 375.099 483.342C375.205 483.082 375.363 482.846 375.561 482.647C375.76 482.449 375.996 482.292 376.255 482.185C376.515 482.078 376.793 482.024 377.074 482.026H501.38C501.66 482.026 501.937 482.081 502.195 482.188C502.453 482.296 502.688 482.453 502.885 482.652C503.082 482.85 503.239 483.085 503.345 483.344C503.45 483.603 503.504 483.881 503.503 484.16C503.503 484.723 503.279 485.263 502.881 485.661C502.483 486.059 501.943 486.283 501.38 486.283Z" fill="#009C8E"/>
<path d="M505.427 338.692H373.014C370.282 338.692 368.066 340.908 368.066 343.64V359.25C368.066 361.982 370.282 364.198 373.014 364.198H505.427C508.16 364.198 510.375 361.982 510.375 359.25V343.64C510.375 340.908 508.16 338.692 505.427 338.692Z" fill="#009C8E"/>
<path d="M505.427 386.396H373.014C370.282 386.396 368.066 388.611 368.066 391.344V406.953C368.066 409.686 370.282 411.901 373.014 411.901H505.427C508.16 411.901 510.375 409.686 510.375 406.953V391.344C510.375 388.611 508.16 386.396 505.427 386.396Z" fill="#009C8E"/>
<path d="M462.795 288.348L448.864 280.328V273.701C450.881 271.261 452.342 268.41 453.145 265.348C453.625 265.518 454.13 265.606 454.638 265.607C456.366 265.607 457.464 260.252 457.649 256.426C459.661 252.169 456.921 249.677 456.921 249.677C456.921 249.677 458.056 248.542 458.809 243.988C459.562 239.435 456.156 241.335 453.503 237.165C450.85 232.994 448.95 228.453 440.238 228.453C437.838 228.374 435.469 229.019 433.44 230.304C431.411 231.59 429.816 233.455 428.862 235.659C426.693 235.667 424.532 235.92 422.421 236.412C419.755 237.165 419.003 245.889 421.273 249.307C422.289 251.175 422.832 253.263 422.852 255.39C422.248 254.65 421.618 254.452 421.273 256.13C420.52 259.918 423.556 265.224 423.556 265.224L425.123 264.78C425.912 268.053 427.436 271.104 429.577 273.701V280.328L415.646 288.348C414.019 289.287 412.668 290.638 411.728 292.265C410.788 293.891 410.293 295.736 410.291 297.615V302.205C418.576 308.606 428.751 312.078 439.22 312.078C449.69 312.078 459.864 308.606 468.15 302.205V297.615C468.151 295.736 467.656 293.89 466.716 292.263C465.776 290.636 464.423 289.286 462.795 288.348V288.348Z" fill="#263238"/>
<path d="M386.094 405.559C385.775 405.554 385.469 405.426 385.243 405.201C385.121 405.093 385.024 404.959 384.958 404.81C384.892 404.662 384.859 404.5 384.86 404.337C384.864 404.115 384.928 403.897 385.045 403.708L387.266 400.154L382.935 400.29C382.772 400.3 382.608 400.276 382.455 400.219C382.302 400.161 382.163 400.072 382.047 399.957C381.846 399.731 381.734 399.439 381.734 399.136C381.734 398.834 381.846 398.542 382.047 398.316C382.16 398.197 382.299 398.104 382.452 398.044C382.606 397.984 382.771 397.959 382.935 397.97L387.205 398.131L385.008 394.589C384.889 394.397 384.825 394.175 384.823 393.948C384.822 393.785 384.855 393.624 384.921 393.475C384.987 393.326 385.084 393.193 385.206 393.084C385.432 392.859 385.738 392.731 386.057 392.726C386.267 392.727 386.473 392.789 386.65 392.902C386.827 393.016 386.968 393.177 387.057 393.368L389.167 397.181L391.252 393.392C391.351 393.19 391.503 393.019 391.692 392.897C391.882 392.776 392.1 392.708 392.325 392.701C392.481 392.702 392.635 392.736 392.778 392.799C392.92 392.863 393.048 392.956 393.152 393.072C393.379 393.306 393.503 393.621 393.498 393.948C393.497 394.16 393.442 394.368 393.337 394.552L391.104 398.131L395.435 397.97C395.599 397.959 395.764 397.984 395.918 398.044C396.071 398.104 396.21 398.197 396.323 398.316C396.534 398.534 396.649 398.827 396.644 399.13C396.643 399.436 396.529 399.731 396.323 399.957C396.207 400.072 396.068 400.161 395.915 400.219C395.762 400.276 395.598 400.3 395.435 400.29L391.079 400.154L393.251 403.671C393.373 403.867 393.437 404.094 393.436 404.325C393.436 404.652 393.306 404.966 393.075 405.198C392.843 405.429 392.529 405.559 392.202 405.559C391.99 405.556 391.784 405.492 391.609 405.373C391.434 405.255 391.297 405.088 391.215 404.893L389.154 401.191L387.106 404.893C387.015 405.086 386.872 405.251 386.694 405.368C386.515 405.486 386.308 405.552 386.094 405.559V405.559Z" fill="#263238"/>
<path d="M406.108 405.559C405.789 405.554 405.484 405.426 405.257 405.201C405.135 405.093 405.039 404.959 404.973 404.81C404.907 404.662 404.873 404.5 404.874 404.337C404.878 404.115 404.942 403.897 405.059 403.708L407.281 400.154L402.962 400.29C402.797 400.298 402.632 400.272 402.478 400.215C402.323 400.158 402.181 400.07 402.061 399.957C401.897 399.788 401.788 399.574 401.748 399.342C401.707 399.11 401.738 398.871 401.835 398.657C401.932 398.443 402.092 398.263 402.293 398.14C402.494 398.018 402.727 397.958 402.962 397.97L407.219 398.131L405.022 394.589C404.903 394.397 404.839 394.175 404.837 393.948C404.836 393.785 404.87 393.624 404.936 393.475C405.002 393.326 405.098 393.193 405.22 393.084C405.447 392.859 405.752 392.731 406.071 392.726C406.282 392.727 406.487 392.789 406.664 392.902C406.841 393.016 406.982 393.177 407.071 393.368L409.181 397.181L411.266 393.392C411.365 393.19 411.517 393.019 411.707 392.897C411.896 392.776 412.115 392.708 412.34 392.701C412.496 392.701 412.65 392.733 412.793 392.797C412.936 392.861 413.063 392.955 413.166 393.072C413.281 393.187 413.371 393.324 413.433 393.474C413.494 393.624 413.525 393.785 413.524 393.948C413.52 394.161 413.46 394.369 413.351 394.552L411.118 398.131L415.461 397.995C415.624 397.984 415.787 398.009 415.938 398.069C416.09 398.129 416.226 398.222 416.338 398.34C416.548 398.559 416.663 398.852 416.658 399.155C416.658 399.461 416.543 399.755 416.338 399.982C416.224 400.096 416.087 400.185 415.936 400.243C415.784 400.3 415.623 400.325 415.461 400.315L411.093 400.179L413.265 403.696C413.387 403.892 413.451 404.119 413.45 404.35C413.45 404.677 413.32 404.991 413.089 405.222C412.857 405.454 412.543 405.584 412.216 405.584C412.005 405.581 411.799 405.516 411.623 405.398C411.448 405.28 411.311 405.112 411.229 404.917L409.168 401.216L407.12 404.917C407.026 405.106 406.882 405.266 406.703 405.379C406.525 405.492 406.319 405.554 406.108 405.559V405.559Z" fill="#263238"/>
<path d="M426.135 405.559C425.811 405.558 425.501 405.429 425.271 405.201C425.15 405.093 425.053 404.959 424.987 404.81C424.921 404.662 424.887 404.5 424.888 404.337C424.892 404.115 424.956 403.897 425.073 403.708L427.295 400.154L422.976 400.29C422.743 400.299 422.513 400.239 422.315 400.117C422.117 399.995 421.959 399.817 421.863 399.605C421.766 399.394 421.735 399.158 421.772 398.928C421.81 398.699 421.916 398.485 422.075 398.316C422.192 398.197 422.332 398.105 422.488 398.045C422.643 397.985 422.81 397.96 422.976 397.97L427.233 398.131L425.036 394.589C424.917 394.397 424.853 394.175 424.851 393.948C424.855 393.786 424.891 393.626 424.957 393.478C425.022 393.33 425.117 393.196 425.234 393.084C425.464 392.856 425.774 392.727 426.098 392.726C426.306 392.73 426.509 392.792 426.683 392.905C426.858 393.019 426.997 393.179 427.085 393.368L429.195 397.181L431.28 393.392C431.379 393.19 431.531 393.019 431.721 392.897C431.91 392.776 432.129 392.708 432.354 392.701C432.51 392.701 432.664 392.733 432.807 392.797C432.95 392.861 433.077 392.955 433.18 393.072C433.295 393.187 433.385 393.324 433.447 393.474C433.508 393.624 433.539 393.785 433.538 393.948C433.534 394.161 433.474 394.369 433.365 394.552L431.132 398.131L435.476 397.97C435.635 397.954 435.796 397.973 435.948 398.024C436.1 398.076 436.24 398.16 436.356 398.269C436.473 398.379 436.565 398.513 436.626 398.662C436.687 398.81 436.716 398.97 436.709 399.13C436.712 399.434 436.602 399.729 436.401 399.957C436.285 400.072 436.145 400.161 435.992 400.219C435.839 400.276 435.676 400.3 435.513 400.29L431.157 400.154L433.316 403.671C433.438 403.867 433.502 404.094 433.501 404.325C433.497 404.487 433.462 404.647 433.396 404.795C433.33 404.943 433.236 405.077 433.119 405.189C433.011 405.304 432.882 405.397 432.737 405.46C432.593 405.524 432.437 405.558 432.28 405.559C432.07 405.555 431.866 405.49 431.692 405.372C431.519 405.253 431.384 405.087 431.305 404.893L429.232 401.191L427.184 404.893C427.091 405.093 426.943 405.262 426.757 405.38C426.571 405.498 426.355 405.56 426.135 405.559V405.559Z" fill="#263238"/>
<path d="M446.149 405.559C445.826 405.558 445.515 405.429 445.286 405.201C445.053 404.973 444.92 404.663 444.915 404.337C444.912 404.115 444.972 403.897 445.088 403.708L447.309 400.154L442.99 400.29C442.826 400.298 442.661 400.272 442.506 400.215C442.352 400.158 442.21 400.07 442.09 399.957C441.888 399.731 441.777 399.439 441.777 399.136C441.777 398.834 441.888 398.542 442.09 398.316C442.209 398.201 442.35 398.111 442.505 398.051C442.66 397.992 442.825 397.964 442.99 397.97L447.26 398.131L445.076 394.589C444.956 394.397 444.892 394.175 444.891 393.948C444.895 393.786 444.93 393.626 444.996 393.478C445.062 393.33 445.156 393.196 445.273 393.084C445.503 392.856 445.813 392.727 446.137 392.726C446.347 392.727 446.553 392.789 446.73 392.902C446.907 393.016 447.048 393.177 447.137 393.368L449.234 397.181L451.32 393.392C451.418 393.19 451.571 393.019 451.76 392.897C451.949 392.776 452.168 392.708 452.393 392.701C452.549 392.701 452.704 392.733 452.846 392.797C452.989 392.861 453.116 392.955 453.22 393.072C453.334 393.187 453.425 393.324 453.486 393.474C453.547 393.624 453.579 393.785 453.578 393.948C453.573 394.161 453.514 394.369 453.405 394.552L451.171 398.131L455.515 397.97C455.675 397.954 455.836 397.973 455.988 398.024C456.14 398.076 456.279 398.16 456.396 398.269C456.513 398.379 456.605 398.513 456.666 398.662C456.727 398.81 456.755 398.97 456.749 399.13C456.751 399.434 456.642 399.729 456.44 399.957C456.324 400.072 456.185 400.161 456.032 400.219C455.879 400.276 455.715 400.3 455.552 400.29L451.196 400.154L453.355 403.671C453.477 403.867 453.541 404.094 453.541 404.325C453.542 404.488 453.508 404.649 453.442 404.798C453.376 404.947 453.279 405.08 453.158 405.189C453.051 405.304 452.921 405.397 452.777 405.46C452.632 405.524 452.477 405.558 452.319 405.559C452.109 405.555 451.905 405.49 451.732 405.372C451.558 405.253 451.424 405.087 451.344 404.893L449.271 401.191L447.223 404.893C447.129 405.097 446.977 405.268 446.786 405.387C446.595 405.505 446.374 405.565 446.149 405.559Z" fill="#263238"/>
<path d="M466.164 405.559C465.84 405.558 465.53 405.429 465.3 405.201C465.109 405.007 464.987 404.756 464.954 404.486C464.92 404.216 464.977 403.943 465.115 403.708L467.324 400.154L463.005 400.29C462.84 400.298 462.676 400.272 462.521 400.215C462.366 400.158 462.225 400.07 462.104 399.957C461.903 399.731 461.792 399.439 461.792 399.136C461.792 398.834 461.903 398.542 462.104 398.316C462.224 398.201 462.365 398.111 462.52 398.051C462.674 397.992 462.839 397.964 463.005 397.97L467.275 398.131L465.078 394.589C464.959 394.397 464.895 394.175 464.893 393.948C464.898 393.622 465.031 393.312 465.263 393.084C465.493 392.856 465.803 392.727 466.127 392.726C466.337 392.728 466.543 392.789 466.72 392.902C466.897 393.016 467.038 393.177 467.126 393.368L469.224 397.181L471.309 393.392C471.408 393.19 471.561 393.019 471.75 392.897C471.939 392.776 472.158 392.708 472.383 392.701C472.541 392.701 472.697 392.733 472.842 392.797C472.987 392.861 473.116 392.954 473.222 393.072C473.449 393.307 473.573 393.621 473.568 393.948C473.563 394.161 473.504 394.369 473.395 394.552L471.161 398.131L475.505 397.97C475.665 397.954 475.826 397.973 475.978 398.024C476.13 398.076 476.269 398.16 476.386 398.269C476.503 398.379 476.595 398.513 476.656 398.662C476.716 398.81 476.745 398.97 476.739 399.13C476.741 399.434 476.632 399.729 476.43 399.957C476.314 400.072 476.175 400.161 476.022 400.219C475.869 400.276 475.705 400.3 475.542 400.29L471.186 400.154L473.345 403.671C473.467 403.867 473.531 404.094 473.531 404.325C473.532 404.488 473.498 404.649 473.432 404.798C473.366 404.947 473.269 405.08 473.148 405.189C473.041 405.304 472.911 405.397 472.767 405.46C472.622 405.524 472.467 405.558 472.309 405.559C472.099 405.555 471.895 405.49 471.722 405.372C471.548 405.253 471.414 405.087 471.334 404.893L469.261 401.191L467.213 404.893C467.12 405.093 466.972 405.262 466.786 405.38C466.6 405.498 466.384 405.56 466.164 405.559Z" fill="#263238"/>
<path d="M486.178 405.559C485.859 405.554 485.553 405.426 485.327 405.201C485.205 405.093 485.108 404.959 485.042 404.81C484.976 404.662 484.943 404.5 484.944 404.337C484.948 404.115 485.012 403.897 485.129 403.708L487.338 400.154L483.019 400.29C482.86 400.302 482.701 400.281 482.551 400.228C482.4 400.175 482.263 400.091 482.147 399.982C482.031 399.873 481.939 399.741 481.876 399.594C481.814 399.447 481.783 399.29 481.785 399.13C481.784 398.979 481.813 398.83 481.871 398.69C481.928 398.55 482.012 398.423 482.118 398.316C482.232 398.197 482.371 398.104 482.524 398.044C482.678 397.984 482.842 397.959 483.007 397.97L487.276 398.131L485.08 394.589C484.96 394.397 484.896 394.175 484.895 393.948C484.899 393.622 485.032 393.312 485.265 393.084C485.495 392.856 485.805 392.727 486.129 392.726C486.339 392.728 486.544 392.789 486.721 392.902C486.898 393.016 487.039 393.177 487.128 393.368L489.226 397.181L491.324 393.392C491.421 393.192 491.572 393.022 491.759 392.9C491.946 392.779 492.162 392.71 492.385 392.701C492.543 392.701 492.699 392.733 492.844 392.797C492.988 392.861 493.118 392.954 493.224 393.072C493.45 393.307 493.574 393.621 493.569 393.948C493.569 394.16 493.513 394.368 493.409 394.552L491.175 398.131L495.507 397.97C495.671 397.959 495.836 397.984 495.989 398.044C496.143 398.104 496.281 398.197 496.395 398.316C496.605 398.534 496.721 398.827 496.716 399.13C496.715 399.436 496.601 399.731 496.395 399.957C496.279 400.072 496.14 400.161 495.986 400.219C495.833 400.276 495.67 400.3 495.507 400.29L491.151 400.154L493.31 403.671C493.432 403.867 493.496 404.094 493.495 404.325C493.491 404.651 493.358 404.961 493.125 405.189C492.9 405.418 492.595 405.551 492.274 405.559C492.064 405.555 491.86 405.49 491.686 405.372C491.513 405.253 491.378 405.087 491.299 404.893L489.226 401.191L487.178 404.893C487.089 405.085 486.948 405.249 486.772 405.367C486.595 405.485 486.39 405.551 486.178 405.559Z" fill="#263238"/>
<g style="mix-blend-mode:multiply">
<path d="M548.43 155.577H330V169.262H548.43V155.577Z" fill="#009C8E"/>
</g>
<path d="M462.968 130.368H415.461C414.604 130.368 413.782 130.028 413.175 129.421C412.569 128.815 412.229 127.993 412.229 127.135V127.135C412.229 126.278 412.569 125.456 413.175 124.849C413.782 124.243 414.604 123.902 415.461 123.902H462.968C463.825 123.902 464.647 124.243 465.254 124.849C465.86 125.456 466.201 126.278 466.201 127.135V127.135C466.201 127.993 465.86 128.815 465.254 129.421C464.647 130.028 463.825 130.368 462.968 130.368V130.368Z" fill="#009C8E" stroke="#263238" stroke-width="1.33739" stroke-linecap="round" stroke-linejoin="round"/>
<path d="M452.171 528.471C452.174 525.907 451.416 523.4 449.993 521.268C448.57 519.135 446.547 517.473 444.179 516.491C441.811 515.508 439.205 515.251 436.69 515.75C434.176 516.25 431.866 517.484 430.054 519.297C428.241 521.109 427.007 523.419 426.507 525.934C426.008 528.448 426.265 531.054 427.247 533.422C428.23 535.79 429.892 537.813 432.025 539.236C434.157 540.659 436.664 541.417 439.227 541.414C442.659 541.411 445.95 540.046 448.376 537.62C450.803 535.193 452.168 531.902 452.171 528.471Z" fill="#009C8E"/>
<path d="M445.791 521.906H432.662V535.035H445.791V521.906Z" fill="#009C8E" stroke="#263238" stroke-width="1.33739" stroke-linecap="round" stroke-linejoin="round"/>
<path d="M595.615 379.486C595.615 379.486 578.414 335.78 593.727 330.585C609.669 325.169 608.966 354.03 608.349 368.097C607.054 398.155 603.734 403.745 601.254 396.403L595.615 379.486ZM590.445 413.58C595.171 419.749 596.503 413.357 587.977 384.496C583.979 370.923 575.292 343.468 561.966 353.771C549.17 363.642 579.623 399.426 579.623 399.426L590.445 413.58ZM581.314 438.628C585.818 442.626 585.904 437.579 575.206 416.738C570.184 406.978 559.56 387.223 550.86 396.996C542.507 406.423 570.973 429.337 570.973 429.337L581.314 438.628ZM571.442 468.415C575.946 472.426 576.033 467.366 565.334 446.538C560.312 436.777 549.688 417.01 540.989 426.795C532.685 436.247 561.065 459.161 561.065 459.161L571.442 468.415ZM599.946 407.78C592.74 410.593 598.465 413.654 628.561 413.567C642.677 413.567 671.502 412.926 665.357 397.242C659.471 382.176 616.604 401.364 616.604 401.364L599.946 407.78ZM591.74 427.819C584.115 429.139 589.125 433.285 618.64 439.184C632.472 441.96 660.84 447.081 657.941 430.546C655.164 414.604 609.336 424.895 609.336 424.895L591.74 427.819ZM582.56 452.288C576.07 453.226 580.216 456.841 605.03 462.517C616.666 465.182 640.542 470.18 638.469 456.076C636.495 442.503 597.503 450.178 597.503 450.178L582.56 452.288ZM575.588 474.955C569.234 476.572 573.737 479.73 599.033 482.741C610.879 484.148 635.15 486.591 631.609 472.783C628.191 459.531 590.235 471.266 590.235 471.266L575.588 474.955ZM612.779 383.188C609.077 391.48 616.765 390.221 642.899 367.418C655.14 356.72 679.695 334.337 660.248 323.194C641.579 312.484 621.503 364.161 621.503 364.161L612.779 383.188ZM576.551 504.483C572.639 506.766 576.477 507.654 594.418 504.076C602.833 502.41 619.948 498.708 614.161 491.403C608.559 484.37 585.608 499.177 585.608 499.177L576.551 504.483Z" fill="#009C8E"/>
<path opacity="0.3" d="M595.615 379.486C595.615 379.486 578.414 335.78 593.727 330.585C609.669 325.169 608.966 354.03 608.349 368.097C607.054 398.155 603.734 403.745 601.254 396.403L595.615 379.486ZM590.445 413.58C595.171 419.749 596.503 413.357 587.977 384.496C583.979 370.923 575.292 343.468 561.966 353.771C549.17 363.642 579.623 399.426 579.623 399.426L590.445 413.58ZM581.314 438.628C585.818 442.626 585.904 437.579 575.206 416.738C570.184 406.978 559.56 387.223 550.86 396.996C542.507 406.423 570.973 429.337 570.973 429.337L581.314 438.628ZM571.442 468.415C575.946 472.426 576.033 467.366 565.334 446.538C560.312 436.777 549.688 417.01 540.989 426.795C532.685 436.247 561.065 459.161 561.065 459.161L571.442 468.415ZM599.946 407.78C592.74 410.593 598.465 413.654 628.561 413.567C642.677 413.567 671.502 412.926 665.357 397.242C659.471 382.176 616.604 401.364 616.604 401.364L599.946 407.78ZM591.74 427.819C584.115 429.139 589.125 433.285 618.64 439.184C632.472 441.96 660.84 447.081 657.941 430.546C655.164 414.604 609.336 424.895 609.336 424.895L591.74 427.819ZM582.56 452.288C576.07 453.226 580.216 456.841 605.03 462.517C616.666 465.182 640.542 470.18 638.469 456.076C636.495 442.503 597.503 450.178 597.503 450.178L582.56 452.288ZM575.588 474.955C569.234 476.572 573.737 479.73 599.033 482.741C610.879 484.148 635.15 486.591 631.609 472.783C628.191 459.531 590.235 471.266 590.235 471.266L575.588 474.955ZM612.779 383.188C609.077 391.48 616.765 390.221 642.899 367.418C655.14 356.72 679.695 334.337 660.248 323.194C641.579 312.484 621.503 364.161 621.503 364.161L612.779 383.188ZM576.551 504.483C572.639 506.766 576.477 507.654 594.418 504.076C602.833 502.41 619.948 498.708 614.161 491.403C608.559 484.37 585.608 499.177 585.608 499.177L576.551 504.483Z" fill="white"/>
<path d="M603.204 399.833L600.205 349.946L603.204 399.833ZM593.715 416.294L574.761 373.39L593.715 416.294ZM642.628 403.819L597.207 410.334L642.628 403.819ZM583.893 439.418L559.3 407.866L583.893 439.418ZM588.211 429.744L622.095 431.447L588.211 429.744ZM580.191 453.941L606.103 456.508L580.191 453.941ZM573.935 469.316L561.065 449.956L573.935 469.316ZM572.454 476.152L602.92 476.436L572.454 476.152ZM566.284 533.308C566.489 533.292 566.678 533.196 566.812 533.041C566.946 532.886 567.014 532.685 567 532.481C565.063 503.385 576.316 455.73 594.369 416.615C605.906 391.615 651.129 342.48 651.611 341.987C651.756 341.841 651.838 341.644 651.838 341.438C651.838 341.232 651.756 341.034 651.611 340.889C651.539 340.817 651.455 340.76 651.362 340.721C651.269 340.683 651.169 340.663 651.068 340.663C650.967 340.663 650.867 340.683 650.774 340.721C650.68 340.76 650.596 340.817 650.525 340.889C650.068 341.382 604.66 390.702 593.024 415.924C574.638 455.99 563.533 502.78 565.507 532.579C565.522 532.776 565.611 532.96 565.754 533.094C565.898 533.229 566.087 533.305 566.284 533.308V533.308ZM603.191 400.598C603.395 400.586 603.586 400.493 603.722 400.341C603.859 400.188 603.929 399.988 603.919 399.784L600.97 349.872C600.965 349.77 600.941 349.67 600.897 349.579C600.853 349.487 600.792 349.404 600.716 349.337C600.64 349.269 600.551 349.217 600.455 349.184C600.359 349.151 600.257 349.137 600.156 349.144C599.952 349.156 599.761 349.249 599.625 349.401C599.488 349.554 599.418 349.754 599.428 349.958L602.426 399.846C602.436 400.042 602.52 400.227 602.663 400.363C602.805 400.499 602.995 400.574 603.191 400.574V400.598ZM593.986 416.997C594.171 416.914 594.316 416.761 594.39 416.572C594.463 416.383 594.46 416.172 594.381 415.986L575.415 373.082C575.334 372.895 575.181 372.749 574.991 372.675C574.802 372.601 574.59 372.605 574.404 372.687C574.217 372.769 574.071 372.921 573.997 373.111C573.923 373.301 573.927 373.512 574.009 373.699L592.962 416.603C593.021 416.74 593.119 416.858 593.244 416.941C593.369 417.024 593.515 417.069 593.665 417.071C593.793 417.078 593.92 417.053 594.035 416.997H593.986ZM597.268 411.075L642.665 404.584C642.774 404.582 642.882 404.556 642.981 404.509C643.08 404.462 643.168 404.395 643.24 404.312C643.311 404.228 643.364 404.131 643.394 404.026C643.425 403.92 643.434 403.81 643.419 403.701C643.404 403.593 643.366 403.488 643.308 403.395C643.25 403.302 643.173 403.223 643.082 403.161C642.991 403.1 642.888 403.059 642.78 403.041C642.672 403.022 642.561 403.027 642.455 403.054L597.059 409.544C596.856 409.558 596.666 409.651 596.532 409.803C596.398 409.956 596.33 410.156 596.343 410.359C596.356 410.562 596.449 410.751 596.602 410.885C596.755 411.02 596.954 411.088 597.157 411.075H597.268ZM584.324 440.035C584.486 439.908 584.59 439.723 584.616 439.52C584.641 439.316 584.585 439.111 584.46 438.949L559.856 407.336C559.73 407.172 559.544 407.065 559.339 407.039C559.134 407.012 558.927 407.068 558.764 407.194C558.6 407.32 558.493 407.506 558.466 407.71C558.44 407.915 558.496 408.122 558.622 408.286L583.276 439.948C583.347 440.041 583.439 440.115 583.544 440.167C583.648 440.218 583.764 440.245 583.88 440.245C584.064 440.235 584.239 440.161 584.374 440.035H584.324ZM622.774 431.484C622.78 431.28 622.706 431.081 622.568 430.931C622.429 430.781 622.237 430.691 622.033 430.682L588.211 428.966C588.021 428.98 587.843 429.062 587.709 429.198C587.576 429.334 587.497 429.514 587.488 429.705C587.479 429.895 587.54 430.082 587.66 430.23C587.779 430.379 587.949 430.478 588.137 430.509L622.021 432.224C622.225 432.231 622.424 432.157 622.574 432.018C622.724 431.88 622.813 431.688 622.823 431.484H622.774ZM606.819 456.582C606.831 456.48 606.822 456.377 606.794 456.279C606.765 456.181 606.718 456.09 606.653 456.01C606.589 455.931 606.509 455.865 606.419 455.817C606.329 455.769 606.23 455.74 606.128 455.73L580.215 453.176C580.115 453.166 580.013 453.176 579.917 453.205C579.82 453.234 579.73 453.283 579.652 453.347C579.574 453.411 579.509 453.49 579.462 453.579C579.415 453.669 579.386 453.767 579.376 453.867C579.359 454.07 579.422 454.271 579.551 454.428C579.68 454.584 579.865 454.684 580.067 454.706L605.98 457.273H606.054C606.253 457.287 606.45 457.222 606.602 457.093C606.754 456.964 606.849 456.78 606.868 456.582H606.819ZM574.305 469.958C574.476 469.844 574.596 469.668 574.637 469.467C574.679 469.265 574.639 469.056 574.527 468.884L561.719 449.524C561.602 449.357 561.424 449.242 561.224 449.203C561.024 449.164 560.817 449.204 560.645 449.314C560.474 449.427 560.354 449.604 560.313 449.805C560.271 450.006 560.311 450.215 560.423 450.387L573.231 469.748C573.305 469.854 573.402 469.94 573.516 470C573.63 470.061 573.757 470.092 573.885 470.093C574.053 470.102 574.218 470.055 574.354 469.958H574.305ZM603.697 476.436C603.694 476.233 603.613 476.039 603.47 475.894C603.328 475.749 603.135 475.665 602.932 475.658L572.466 475.375C572.263 475.375 572.069 475.455 571.925 475.599C571.782 475.742 571.701 475.937 571.701 476.14C571.698 476.242 571.715 476.343 571.752 476.438C571.79 476.533 571.846 476.62 571.917 476.692C571.989 476.765 572.074 476.822 572.169 476.861C572.263 476.9 572.364 476.919 572.466 476.917L602.932 477.201C603.036 477.206 603.14 477.19 603.238 477.154C603.336 477.118 603.425 477.062 603.501 476.991C603.577 476.919 603.638 476.834 603.68 476.738C603.722 476.643 603.745 476.54 603.746 476.436H603.697ZM562.817 521.992C562.879 521.857 568.074 507.543 583.695 504.125C583.896 504.081 584.072 503.958 584.183 503.785C584.294 503.611 584.331 503.401 584.287 503.2C584.238 503.002 584.114 502.832 583.941 502.724C583.769 502.616 583.561 502.579 583.362 502.62C566.889 506.223 561.423 521.338 561.361 521.486C561.297 521.681 561.312 521.893 561.402 522.077C561.492 522.262 561.65 522.404 561.842 522.474H562.089C562.253 522.488 562.417 522.449 562.557 522.362C562.698 522.275 562.806 522.146 562.866 521.992H562.817ZM566.284 533.308C566.489 533.292 566.678 533.196 566.812 533.041C566.946 532.886 567.014 532.685 567 532.481C565.063 503.385 576.316 455.73 594.369 416.615C605.906 391.615 651.129 342.48 651.611 341.987C651.756 341.841 651.838 341.644 651.838 341.438C651.838 341.232 651.756 341.034 651.611 340.889C651.539 340.817 651.455 340.76 651.362 340.721C651.269 340.683 651.169 340.663 651.068 340.663C650.967 340.663 650.867 340.683 650.774 340.721C650.68 340.76 650.596 340.817 650.525 340.889C650.068 341.382 604.66 390.702 593.024 415.924C574.638 455.99 563.533 502.78 565.507 532.579C565.522 532.776 565.611 532.96 565.754 533.094C565.898 533.229 566.087 533.305 566.284 533.308V533.308ZM603.191 400.598C603.395 400.586 603.586 400.493 603.722 400.341C603.859 400.188 603.929 399.988 603.919 399.784L600.97 349.872C600.965 349.77 600.941 349.67 600.897 349.579C600.853 349.487 600.792 349.404 600.716 349.337C600.64 349.269 600.551 349.217 600.455 349.184C600.359 349.151 600.257 349.137 600.156 349.144C599.952 349.156 599.761 349.249 599.625 349.401C599.488 349.554 599.418 349.754 599.428 349.958L602.426 399.846C602.436 400.042 602.52 400.227 602.663 400.363C602.805 400.499 602.995 400.574 603.191 400.574V400.598ZM593.986 416.997C594.171 416.914 594.316 416.761 594.39 416.572C594.463 416.383 594.46 416.172 594.381 415.986L575.415 373.082C575.334 372.895 575.181 372.749 574.991 372.675C574.802 372.601 574.59 372.605 574.404 372.687C574.217 372.769 574.071 372.921 573.997 373.111C573.923 373.301 573.927 373.512 574.009 373.699L592.962 416.603C593.021 416.74 593.119 416.858 593.244 416.941C593.369 417.024 593.515 417.069 593.665 417.071C593.793 417.078 593.92 417.053 594.035 416.997H593.986ZM597.268 411.075L642.665 404.584C642.774 404.582 642.882 404.556 642.981 404.509C643.08 404.462 643.168 404.395 643.24 404.312C643.311 404.228 643.364 404.131 643.394 404.026C643.425 403.92 643.434 403.81 643.419 403.701C643.404 403.593 643.366 403.488 643.308 403.395C643.25 403.302 643.173 403.223 643.082 403.161C642.991 403.1 642.888 403.059 642.78 403.041C642.672 403.022 642.561 403.027 642.455 403.054L597.059 409.544C596.856 409.558 596.666 409.651 596.532 409.803C596.398 409.956 596.33 410.156 596.343 410.359C596.356 410.562 596.449 410.751 596.602 410.885C596.755 411.02 596.954 411.088 597.157 411.075H597.268ZM584.324 440.035C584.486 439.908 584.59 439.723 584.616 439.52C584.641 439.316 584.585 439.111 584.46 438.949L559.856 407.336C559.793 407.255 559.715 407.187 559.627 407.136C559.538 407.085 559.44 407.052 559.339 407.039C559.238 407.025 559.135 407.032 559.036 407.059C558.937 407.086 558.845 407.131 558.764 407.194C558.683 407.256 558.615 407.334 558.564 407.423C558.513 407.511 558.48 407.609 558.466 407.71C558.453 407.812 558.46 407.915 558.487 408.014C558.513 408.112 558.559 408.205 558.622 408.286L583.276 439.948C583.347 440.041 583.439 440.115 583.544 440.167C583.648 440.218 583.764 440.245 583.88 440.245C584.064 440.235 584.239 440.161 584.374 440.035H584.324ZM622.774 431.484C622.78 431.28 622.706 431.081 622.568 430.931C622.429 430.781 622.237 430.691 622.033 430.682L588.211 428.966C588.021 428.98 587.843 429.062 587.709 429.198C587.576 429.334 587.497 429.514 587.488 429.705C587.479 429.895 587.54 430.082 587.66 430.23C587.779 430.379 587.949 430.478 588.137 430.509L622.021 432.224C622.225 432.231 622.424 432.157 622.574 432.018C622.724 431.88 622.813 431.688 622.823 431.484H622.774ZM606.819 456.582C606.831 456.48 606.822 456.377 606.794 456.279C606.765 456.181 606.718 456.09 606.653 456.01C606.589 455.931 606.509 455.865 606.419 455.817C606.329 455.769 606.23 455.74 606.128 455.73L580.215 453.176C580.115 453.166 580.013 453.176 579.917 453.205C579.82 453.234 579.73 453.283 579.652 453.347C579.574 453.411 579.509 453.49 579.462 453.579C579.415 453.669 579.386 453.767 579.376 453.867C579.359 454.07 579.422 454.271 579.551 454.428C579.68 454.584 579.865 454.684 580.067 454.706L605.98 457.273H606.054C606.253 457.287 606.45 457.222 606.602 457.093C606.754 456.964 606.849 456.78 606.868 456.582H606.819ZM574.305 469.958C574.476 469.844 574.596 469.668 574.637 469.467C574.679 469.265 574.639 469.056 574.527 468.884L561.719 449.524C561.602 449.357 561.424 449.242 561.224 449.203C561.024 449.164 560.817 449.204 560.645 449.314C560.474 449.427 560.354 449.604 560.313 449.805C560.271 450.006 560.311 450.215 560.423 450.387L573.231 469.748C573.305 469.854 573.402 469.94 573.516 470C573.63 470.061 573.757 470.092 573.885 470.093C574.053 470.102 574.218 470.055 574.354 469.958H574.305ZM603.697 476.436C603.694 476.233 603.613 476.039 603.47 475.894C603.328 475.749 603.135 475.665 602.932 475.658L572.466 475.375C572.263 475.375 572.069 475.455 571.925 475.599C571.782 475.742 571.701 475.937 571.701 476.14C571.698 476.242 571.715 476.343 571.752 476.438C571.79 476.533 571.846 476.62 571.917 476.692C571.989 476.765 572.074 476.822 572.169 476.861C572.263 476.9 572.364 476.919 572.466 476.917L602.932 477.201C603.036 477.206 603.14 477.19 603.238 477.154C603.336 477.118 603.425 477.062 603.501 476.991C603.577 476.919 603.638 476.834 603.68 476.738C603.722 476.643 603.745 476.54 603.746 476.436H603.697ZM562.817 521.992C562.879 521.857 568.074 507.543 583.695 504.125C583.896 504.081 584.072 503.958 584.183 503.785C584.294 503.611 584.331 503.401 584.287 503.2C584.238 503.002 584.114 502.832 583.941 502.724C583.769 502.616 583.561 502.579 583.362 502.62C566.889 506.223 561.423 521.338 561.361 521.486C561.297 521.681 561.312 521.893 561.402 522.077C561.492 522.262 561.65 522.404 561.842 522.474H562.089C562.253 522.488 562.417 522.449 562.557 522.362C562.698 522.275 562.806 522.146 562.866 521.992H562.817Z" fill="#009C8E"/>
<path opacity="0.2" d="M603.204 399.833L600.205 349.946L603.204 399.833ZM593.715 416.294L574.761 373.39L593.715 416.294ZM642.628 403.819L597.207 410.334L642.628 403.819ZM583.893 439.418L559.3 407.866L583.893 439.418ZM588.211 429.744L622.095 431.447L588.211 429.744ZM580.191 453.941L606.103 456.508L580.191 453.941ZM573.935 469.316L561.065 449.956L573.935 469.316ZM572.454 476.152L602.92 476.436L572.454 476.152ZM566.284 533.308C566.489 533.292 566.678 533.196 566.812 533.041C566.946 532.886 567.014 532.685 567 532.481C565.063 503.385 576.316 455.73 594.369 416.615C605.906 391.615 651.129 342.48 651.611 341.987C651.756 341.841 651.838 341.644 651.838 341.438C651.838 341.232 651.756 341.034 651.611 340.889C651.539 340.817 651.455 340.76 651.362 340.721C651.269 340.683 651.169 340.663 651.068 340.663C650.967 340.663 650.867 340.683 650.774 340.721C650.68 340.76 650.596 340.817 650.525 340.889C650.068 341.382 604.66 390.702 593.024 415.924C574.638 455.99 563.533 502.78 565.507 532.579C565.522 532.776 565.611 532.96 565.754 533.094C565.898 533.229 566.087 533.305 566.284 533.308V533.308ZM603.191 400.598C603.395 400.586 603.586 400.493 603.722 400.341C603.859 400.188 603.929 399.988 603.919 399.784L600.97 349.872C600.965 349.77 600.941 349.67 600.897 349.579C600.853 349.487 600.792 349.404 600.716 349.337C600.64 349.269 600.551 349.217 600.455 349.184C600.359 349.151 600.257 349.137 600.156 349.144C599.952 349.156 599.761 349.249 599.625 349.401C599.488 349.554 599.418 349.754 599.428 349.958L602.426 399.846C602.436 400.042 602.52 400.227 602.663 400.363C602.805 400.499 602.995 400.574 603.191 400.574V400.598ZM593.986 416.997C594.171 416.914 594.316 416.761 594.39 416.572C594.463 416.383 594.46 416.172 594.381 415.986L575.415 373.082C575.334 372.895 575.181 372.749 574.991 372.675C574.802 372.601 574.59 372.605 574.404 372.687C574.217 372.769 574.071 372.921 573.997 373.111C573.923 373.301 573.927 373.512 574.009 373.699L592.962 416.603C593.021 416.74 593.119 416.858 593.244 416.941C593.369 417.024 593.515 417.069 593.665 417.071C593.793 417.078 593.92 417.053 594.035 416.997H593.986ZM597.268 411.075L642.665 404.584C642.774 404.582 642.882 404.556 642.981 404.509C643.08 404.462 643.168 404.395 643.24 404.312C643.311 404.228 643.364 404.131 643.394 404.026C643.425 403.92 643.434 403.81 643.419 403.701C643.404 403.593 643.366 403.488 643.308 403.395C643.25 403.302 643.173 403.223 643.082 403.161C642.991 403.1 642.888 403.059 642.78 403.041C642.672 403.022 642.561 403.027 642.455 403.054L597.059 409.544C596.856 409.558 596.666 409.651 596.532 409.803C596.398 409.956 596.33 410.156 596.343 410.359C596.356 410.562 596.449 410.751 596.602 410.885C596.755 411.02 596.954 411.088 597.157 411.075H597.268ZM584.324 440.035C584.486 439.908 584.59 439.723 584.616 439.52C584.641 439.316 584.585 439.111 584.46 438.949L559.856 407.336C559.73 407.172 559.544 407.065 559.339 407.039C559.134 407.012 558.927 407.068 558.764 407.194C558.6 407.32 558.493 407.506 558.466 407.71C558.44 407.915 558.496 408.122 558.622 408.286L583.276 439.948C583.347 440.041 583.439 440.115 583.544 440.167C583.648 440.218 583.764 440.245 583.88 440.245C584.064 440.235 584.239 440.161 584.374 440.035H584.324ZM622.774 431.484C622.78 431.28 622.706 431.081 622.568 430.931C622.429 430.781 622.237 430.691 622.033 430.682L588.211 428.966C588.021 428.98 587.843 429.062 587.709 429.198C587.576 429.334 587.497 429.514 587.488 429.705C587.479 429.895 587.54 430.082 587.66 430.23C587.779 430.379 587.949 430.478 588.137 430.509L622.021 432.224C622.225 432.231 622.424 432.157 622.574 432.018C622.724 431.88 622.813 431.688 622.823 431.484H622.774ZM606.819 456.582C606.831 456.48 606.822 456.377 606.794 456.279C606.765 456.181 606.718 456.09 606.653 456.01C606.589 455.931 606.509 455.865 606.419 455.817C606.329 455.769 606.23 455.74 606.128 455.73L580.215 453.176C580.115 453.166 580.013 453.176 579.917 453.205C579.82 453.234 579.73 453.283 579.652 453.347C579.574 453.411 579.509 453.49 579.462 453.579C579.415 453.669 579.386 453.767 579.376 453.867C579.359 454.07 579.422 454.271 579.551 454.428C579.68 454.584 579.865 454.684 580.067 454.706L605.98 457.273H606.054C606.253 457.287 606.45 457.222 606.602 457.093C606.754 456.964 606.849 456.78 606.868 456.582H606.819ZM574.305 469.958C574.476 469.844 574.596 469.668 574.637 469.467C574.679 469.265 574.639 469.056 574.527 468.884L561.719 449.524C561.602 449.357 561.424 449.242 561.224 449.203C561.024 449.164 560.817 449.204 560.645 449.314C560.474 449.427 560.354 449.604 560.313 449.805C560.271 450.006 560.311 450.215 560.423 450.387L573.231 469.748C573.305 469.854 573.402 469.94 573.516 470C573.63 470.061 573.757 470.092 573.885 470.093C574.053 470.102 574.218 470.055 574.354 469.958H574.305ZM603.697 476.436C603.694 476.233 603.613 476.039 603.47 475.894C603.328 475.749 603.135 475.665 602.932 475.658L572.466 475.375C572.263 475.375 572.069 475.455 571.925 475.599C571.782 475.742 571.701 475.937 571.701 476.14C571.698 476.242 571.715 476.343 571.752 476.438C571.79 476.533 571.846 476.62 571.917 476.692C571.989 476.765 572.074 476.822 572.169 476.861C572.263 476.9 572.364 476.919 572.466 476.917L602.932 477.201C603.036 477.206 603.14 477.19 603.238 477.154C603.336 477.118 603.425 477.062 603.501 476.991C603.577 476.919 603.638 476.834 603.68 476.738C603.722 476.643 603.745 476.54 603.746 476.436H603.697ZM562.817 521.992C562.879 521.857 568.074 507.543 583.695 504.125C583.896 504.081 584.072 503.958 584.183 503.785C584.294 503.611 584.331 503.401 584.287 503.2C584.238 503.002 584.114 502.832 583.941 502.724C583.769 502.616 583.561 502.579 583.362 502.62C566.889 506.223 561.423 521.338 561.361 521.486C561.297 521.681 561.312 521.893 561.402 522.077C561.492 522.262 561.65 522.404 561.842 522.474H562.089C562.253 522.488 562.417 522.449 562.557 522.362C562.698 522.275 562.806 522.146 562.866 521.992H562.817ZM566.284 533.308C566.489 533.292 566.678 533.196 566.812 533.041C566.946 532.886 567.014 532.685 567 532.481C565.063 503.385 576.316 455.73 594.369 416.615C605.906 391.615 651.129 342.48 651.611 341.987C651.756 341.841 651.838 341.644 651.838 341.438C651.838 341.232 651.756 341.034 651.611 340.889C651.539 340.817 651.455 340.76 651.362 340.721C651.269 340.683 651.169 340.663 651.068 340.663C650.967 340.663 650.867 340.683 650.774 340.721C650.68 340.76 650.596 340.817 650.525 340.889C650.068 341.382 604.66 390.702 593.024 415.924C574.638 455.99 563.533 502.78 565.507 532.579C565.522 532.776 565.611 532.96 565.754 533.094C565.898 533.229 566.087 533.305 566.284 533.308V533.308ZM603.191 400.598C603.395 400.586 603.586 400.493 603.722 400.341C603.859 400.188 603.929 399.988 603.919 399.784L600.97 349.872C600.965 349.77 600.941 349.67 600.897 349.579C600.853 349.487 600.792 349.404 600.716 349.337C600.64 349.269 600.551 349.217 600.455 349.184C600.359 349.151 600.257 349.137 600.156 349.144C599.952 349.156 599.761 349.249 599.625 349.401C599.488 349.554 599.418 349.754 599.428 349.958L602.426 399.846C602.436 400.042 602.52 400.227 602.663 400.363C602.805 400.499 602.995 400.574 603.191 400.574V400.598ZM593.986 416.997C594.171 416.914 594.316 416.761 594.39 416.572C594.463 416.383 594.46 416.172 594.381 415.986L575.415 373.082C575.334 372.895 575.181 372.749 574.991 372.675C574.802 372.601 574.59 372.605 574.404 372.687C574.217 372.769 574.071 372.921 573.997 373.111C573.923 373.301 573.927 373.512 574.009 373.699L592.962 416.603C593.021 416.74 593.119 416.858 593.244 416.941C593.369 417.024 593.515 417.069 593.665 417.071C593.793 417.078 593.92 417.053 594.035 416.997H593.986ZM597.268 411.075L642.665 404.584C642.774 404.582 642.882 404.556 642.981 404.509C643.08 404.462 643.168 404.395 643.24 404.312C643.311 404.228 643.364 404.131 643.394 404.026C643.425 403.92 643.434 403.81 643.419 403.701C643.404 403.593 643.366 403.488 643.308 403.395C643.25 403.302 643.173 403.223 643.082 403.161C642.991 403.1 642.888 403.059 642.78 403.041C642.672 403.022 642.561 403.027 642.455 403.054L597.059 409.544C596.856 409.558 596.666 409.651 596.532 409.803C596.398 409.956 596.33 410.156 596.343 410.359C596.356 410.562 596.449 410.751 596.602 410.885C596.755 411.02 596.954 411.088 597.157 411.075H597.268ZM584.324 440.035C584.486 439.908 584.59 439.723 584.616 439.52C584.641 439.316 584.585 439.111 584.46 438.949L559.856 407.336C559.793 407.255 559.715 407.187 559.627 407.136C559.538 407.085 559.44 407.052 559.339 407.039C559.238 407.025 559.135 407.032 559.036 407.059C558.937 407.086 558.845 407.131 558.764 407.194C558.683 407.256 558.615 407.334 558.564 407.423C558.513 407.511 558.48 407.609 558.466 407.71C558.453 407.812 558.46 407.915 558.487 408.014C558.513 408.112 558.559 408.205 558.622 408.286L583.276 439.948C583.347 440.041 583.439 440.115 583.544 440.167C583.648 440.218 583.764 440.245 583.88 440.245C584.064 440.235 584.239 440.161 584.374 440.035H584.324ZM622.774 431.484C622.78 431.28 622.706 431.081 622.568 430.931C622.429 430.781 622.237 430.691 622.033 430.682L588.211 428.966C588.021 428.98 587.843 429.062 587.709 429.198C587.576 429.334 587.497 429.514 587.488 429.705C587.479 429.895 587.54 430.082 587.66 430.23C587.779 430.379 587.949 430.478 588.137 430.509L622.021 432.224C622.225 432.231 622.424 432.157 622.574 432.018C622.724 431.88 622.813 431.688 622.823 431.484H622.774ZM606.819 456.582C606.831 456.48 606.822 456.377 606.794 456.279C606.765 456.181 606.718 456.09 606.653 456.01C606.589 455.931 606.509 455.865 606.419 455.817C606.329 455.769 606.23 455.74 606.128 455.73L580.215 453.176C580.115 453.166 580.013 453.176 579.917 453.205C579.82 453.234 579.73 453.283 579.652 453.347C579.574 453.411 579.509 453.49 579.462 453.579C579.415 453.669 579.386 453.767 579.376 453.867C579.359 454.07 579.422 454.271 579.551 454.428C579.68 454.584 579.865 454.684 580.067 454.706L605.98 457.273H606.054C606.253 457.287 606.45 457.222 606.602 457.093C606.754 456.964 606.849 456.78 606.868 456.582H606.819ZM574.305 469.958C574.476 469.844 574.596 469.668 574.637 469.467C574.679 469.265 574.639 469.056 574.527 468.884L561.719 449.524C561.602 449.357 561.424 449.242 561.224 449.203C561.024 449.164 560.817 449.204 560.645 449.314C560.474 449.427 560.354 449.604 560.313 449.805C560.271 450.006 560.311 450.215 560.423 450.387L573.231 469.748C573.305 469.854 573.402 469.94 573.516 470C573.63 470.061 573.757 470.092 573.885 470.093C574.053 470.102 574.218 470.055 574.354 469.958H574.305ZM603.697 476.436C603.694 476.233 603.613 476.039 603.47 475.894C603.328 475.749 603.135 475.665 602.932 475.658L572.466 475.375C572.263 475.375 572.069 475.455 571.925 475.599C571.782 475.742 571.701 475.937 571.701 476.14C571.698 476.242 571.715 476.343 571.752 476.438C571.79 476.533 571.846 476.62 571.917 476.692C571.989 476.765 572.074 476.822 572.169 476.861C572.263 476.9 572.364 476.919 572.466 476.917L602.932 477.201C603.036 477.206 603.14 477.19 603.238 477.154C603.336 477.118 603.425 477.062 603.501 476.991C603.577 476.919 603.638 476.834 603.68 476.738C603.722 476.643 603.745 476.54 603.746 476.436H603.697ZM562.817 521.992C562.879 521.857 568.074 507.543 583.695 504.125C583.896 504.081 584.072 503.958 584.183 503.785C584.294 503.611 584.331 503.401 584.287 503.2C584.238 503.002 584.114 502.832 583.941 502.724C583.769 502.616 583.561 502.579 583.362 502.62C566.889 506.223 561.423 521.338 561.361 521.486C561.297 521.681 561.312 521.893 561.402 522.077C561.492 522.262 561.65 522.404 561.842 522.474H562.089C562.253 522.488 562.417 522.449 562.557 522.362C562.698 522.275 562.806 522.146 562.866 521.992H562.817Z" fill="black"/>
<path d="M586.434 511.553H551.502V518.784H554.55L560.855 558.233H577.081L583.387 518.784H586.434V511.553Z" fill="#009C8E"/>
<path opacity="0.3" d="M586.434 511.553H551.502V518.784H554.55L560.855 558.233H577.081L583.387 518.784H586.434V511.553Z" fill="white"/>
<path d="M271.93 292.901L231.297 279.637L227.681 270.086L219.426 269.827L204.446 266.989L206.248 270.086L225.102 283.77L229.754 286.09L272.251 308.288L271.93 292.901Z" fill="white" stroke="#263238" stroke-width="1.00396" stroke-miterlimit="10"/>
<path d="M227.682 270.086L223.807 267.766L216.07 270.604L217.354 272.147L227.682 270.086Z" fill="white" stroke="#263238" stroke-width="1.00396" stroke-linejoin="round"/>
<path d="M271.93 292.901L231.297 279.637L227.681 270.086L219.426 269.827L204.446 266.989L206.248 270.086L225.102 283.77L229.754 286.09L272.251 308.288L271.93 292.901Z" fill="white"/>
<path opacity="0.5" d="M271.93 292.901L231.297 279.637L227.681 270.086L219.426 269.827L204.446 266.989L206.248 270.086L225.102 283.77L229.754 286.09L272.251 308.288L271.93 292.901Z" fill="#009C8E" stroke="#263238" stroke-width="1.00396" stroke-miterlimit="10"/>
<path d="M271.93 292.901L231.297 279.637L227.681 270.086L219.426 269.827L204.446 266.989L206.248 270.086L225.102 283.77L229.754 286.09L272.251 308.288L271.93 292.901Z" stroke="#263238" stroke-width="1.00396" stroke-miterlimit="10"/>
<path d="M227.682 270.086L223.807 267.766L216.07 270.604L217.354 272.147L227.682 270.086Z" fill="white"/>
<path opacity="0.5" d="M227.682 270.086L223.807 267.766L216.07 270.604L217.354 272.147L227.682 270.086Z" fill="#009C8E" stroke="#263238" stroke-width="1.00396" stroke-linejoin="round"/>
<path d="M227.682 270.086L223.807 267.766L216.07 270.604L217.354 272.147L227.682 270.086Z" stroke="#263238" stroke-width="1.00396" stroke-linejoin="round"/>
<path d="M280.556 206.81C280.556 206.81 279.926 212.363 281.493 215.929C283.061 219.495 291.76 231.575 291.76 231.575L275.521 244.593C275.521 244.593 268.784 231.02 267.501 228.823C266.217 226.627 264.675 217.175 268.858 210.401C273.041 203.627 279.063 201.8 280.556 206.81Z" fill="white"/>
<g style="mix-blend-mode:multiply" opacity="0.5">
<path d="M272.214 224.653L279.26 239.262L275.509 244.605L268.426 231.957L272.214 224.653Z" fill="#009C8E"/>
</g>
<path d="M280.556 206.81C280.556 206.81 279.926 212.363 281.493 215.929C283.061 219.495 291.76 231.575 291.76 231.575L275.521 244.593C275.521 244.593 268.784 231.02 267.501 228.823C266.217 226.627 264.675 217.175 268.858 210.401C273.041 203.627 279.063 201.8 280.556 206.81Z" stroke="#263238" stroke-width="1.00396" stroke-miterlimit="10"/>
<path d="M285.59 196.643C284.59 190.473 277.52 177.924 266.303 178.405C259.023 178.726 255.617 180.194 252.459 181.983C249.884 183.5 247.484 185.296 245.302 187.339C239.823 193.916 237.898 195.717 238.959 200.751C238.872 202.76 239.187 204.765 239.885 206.65C241.563 211.129 242.711 214.053 244.167 216.188C243.722 218.273 242.562 223.777 242.501 225.035C242.439 226.294 246.203 225.418 248.103 224.937C251.632 232.834 258.098 238.312 260.109 238.942C263.613 240.04 269.154 234.277 272.09 229.811C275.027 225.344 272.806 220.322 272.818 218.323C272.831 216.324 279.42 211.931 281.863 210.537C284.306 209.142 286.577 202.8 285.59 196.643Z" fill="white"/>
<g style="mix-blend-mode:multiply" opacity="0.5">
<path d="M239.009 200.752C238.922 202.76 239.236 204.765 239.934 206.65C241.612 211.129 242.76 214.053 244.216 216.188C243.772 218.273 242.612 223.777 242.55 225.035C242.488 226.294 246.252 225.418 248.152 224.937C251.681 232.834 258.147 238.312 260.158 238.942C263.663 240.04 269.203 234.277 272.14 229.811C272.873 228.695 273.35 227.431 273.534 226.109C273.374 225.529 273.263 225.171 273.263 225.171C273.263 225.171 271.609 231.526 268.327 230.699C265.045 229.872 260.022 223.295 257.221 221.025C254.42 218.755 255.568 215.768 255.013 212.388C254.457 209.007 246.165 206.033 245.61 204.096C245.055 202.158 246.992 194.138 246.992 194.138C246.992 194.138 250.139 189.942 249.46 191.67C248.98 193.168 248.806 194.747 248.948 196.313C249.09 197.879 249.546 199.401 250.287 200.789C250.807 201.883 251.632 202.804 252.663 203.441C253.694 204.078 254.887 204.404 256.099 204.379L259.109 189.461L252.755 184.205L245.351 187.289C239.823 193.916 237.935 195.717 239.009 200.752Z" fill="#009C8E"/>
</g>
<path d="M285.59 196.643C284.59 190.473 277.52 177.924 266.303 178.405C259.023 178.726 255.617 180.194 252.459 181.983C249.884 183.5 247.484 185.296 245.302 187.339C239.823 193.916 237.898 195.717 238.959 200.751C238.872 202.76 239.187 204.765 239.885 206.65C241.563 211.129 242.711 214.053 244.167 216.188C243.722 218.273 242.562 223.777 242.501 225.035C242.439 226.294 246.203 225.418 248.103 224.937C251.632 232.834 258.098 238.312 260.109 238.942C263.613 240.04 269.154 234.277 272.09 229.811C275.027 225.344 272.806 220.322 272.818 218.323C272.831 216.324 279.42 211.931 281.863 210.537C284.306 209.142 286.577 202.8 285.59 196.643Z" stroke="#263238" stroke-miterlimit="10"/>
<path d="M245.697 212.461L246.931 215.99C246.931 215.99 249.584 216.867 252.817 213.338" stroke="#263238" stroke-miterlimit="10" stroke-linecap="round"/>
<path d="M254.815 228.947C254.815 228.947 257.752 228.651 258.937 224.529" stroke="#263238" stroke-miterlimit="10" stroke-linecap="round"/>
<path d="M243.637 209.512C243.637 209.512 244.513 206.859 249.806 206.859" stroke="#263238" stroke-miterlimit="10" stroke-linecap="round"/>
<path d="M270.77 173.494C266.924 172.941 263.045 172.644 259.159 172.606C259.159 172.606 247.535 165.905 236.368 173.05C225.201 180.194 230.569 192.706 230.569 195.828C230.569 198.95 226.99 198.962 229.224 202.985C231.457 207.008 239.009 204.786 239.009 204.786C239.089 203.269 239.49 201.786 240.185 200.436C240.881 199.085 241.855 197.897 243.044 196.951C247.066 193.829 250.275 193.151 251.607 194.051C251.607 194.051 250.719 200.752 252.052 203.429C252.052 203.429 256.518 205.663 257.863 205.663C259.208 205.663 256.987 207.55 261.442 209.229C262.253 209.52 263.121 209.619 263.978 209.519C264.834 209.418 265.656 209.12 266.377 208.649C267.031 205.934 268.463 201.85 271.128 202.8C275.04 204.194 278.606 213.819 273.312 217.101C279.679 218.261 287.391 206.995 287.848 196.729C288.304 186.463 277.384 174.654 270.77 173.494Z" fill="#263238"/>
<path d="M251.805 189.646C251.805 189.646 255.087 187.882 259.11 191.658C263.132 195.433 270.955 200.48 281.32 197.704" stroke="white" stroke-width="0.5" stroke-linecap="round" stroke-linejoin="round"/>
<path d="M251.349 186.623C251.349 186.623 253.607 183.094 257.383 183.094C261.158 183.094 269.981 188.388 277.027 188.388" stroke="white" stroke-width="0.5" stroke-linecap="round" stroke-linejoin="round"/>
<path d="M248.782 193.422C248.782 193.422 244.5 188.141 240.478 192.422C236.455 196.704 239.009 200.752 239.009 200.752" stroke="white" stroke-width="0.5" stroke-linecap="round" stroke-linejoin="round"/>
<path d="M231.667 196.951C234.121 194.738 235.646 191.679 235.936 188.387C236.442 182.847 244.006 178.059 248.782 182.6" stroke="white" stroke-width="0.5" stroke-linecap="round" stroke-linejoin="round"/>
<path d="M239.466 176.801C239.466 176.801 247.03 169.496 253.323 178.812" stroke="white" stroke-width="0.5" stroke-linecap="round" stroke-linejoin="round"/>
<path d="M301.026 535.96C301.026 535.96 305.678 543.191 305.16 547.843L304.654 552.495C304.654 552.495 287.589 557.172 283.973 557.172C280.358 557.172 261.22 555.358 261.22 555.358L260.393 552.076C260.335 551.833 260.362 551.578 260.47 551.354C260.578 551.129 260.76 550.948 260.985 550.842L278.05 542.883L283.43 536.997L301.026 535.96Z" fill="white" stroke="#263238" stroke-width="1.00396" stroke-miterlimit="10"/>
<path d="M286.564 553.532C291.191 553.89 299.977 551.064 305.073 549.262L304.715 552.495C304.715 552.495 287.588 557.172 283.973 557.172C280.357 557.172 261.219 555.358 261.219 555.358L260.627 553.014C263.687 553.026 280.444 553.063 286.564 553.532Z" fill="#009C8E" stroke="#263238" stroke-width="1.00396" stroke-miterlimit="10"/>
<path d="M278.075 542.883L253.236 553.692C253.236 553.692 251.114 559.01 253.236 560.072C255.359 561.133 301.631 560.072 301.631 560.072C301.631 560.072 304.827 551.669 299.78 546.03C294.733 540.39 278.075 542.883 278.075 542.883Z" fill="white" stroke="#263238" stroke-width="1.00396" stroke-miterlimit="10"/>
<path d="M301.631 560.071C301.631 560.071 255.359 561.133 253.236 560.071C252.212 559.553 252.175 558.06 252.409 556.641H302.445C302.282 557.808 302.009 558.956 301.631 560.071Z" fill="#009C8E" stroke="#263238" stroke-width="1.00396" stroke-miterlimit="10"/>
<path d="M266.328 355.067C266.328 355.067 259.838 383.829 257.382 401.82C254.927 419.811 253.483 455.854 254.001 459.987C254.52 464.121 280.358 533.382 280.358 533.382L282.937 539.551L301.026 535.936C301.026 535.936 292.759 509.579 289.662 495.105C286.565 480.631 279.791 456.853 279.791 452.72C279.791 448.586 295.832 369.639 296.979 364.457C298.127 359.274 303.334 351.315 303.334 351.315L268.698 350.612L266.328 355.067Z" fill="#009C8E" stroke="#263238" stroke-width="1.00396" stroke-miterlimit="10"/>
<path d="M266.328 355.066C266.328 355.066 262.528 381.337 264.095 399.599C265.662 417.861 269.03 456.742 269.03 462.529C269.03 468.316 278.371 502.879 278.902 513.737C279.729 529.421 278.569 537.182 278.569 537.182L278.013 542.87C278.013 542.87 288.909 544.425 291.29 545.104C294.041 545.812 296.88 546.12 299.718 546.017C299.718 546.017 303.679 528.582 303.679 513.725C303.679 498.869 300.385 468.292 298.743 455.903C297.102 443.514 302.272 395.724 305.209 386.803C308.146 377.882 314.562 358.99 310.244 349.341C305.925 339.692 266.328 355.066 266.328 355.066Z" fill="#009C8E" stroke="#263238" stroke-width="1.00396" stroke-miterlimit="10"/>
<path d="M315.043 344.504L314.648 356.251C314.648 356.251 307.615 357.646 298.138 359.287C290.315 360.644 270.671 358.929 264.057 358.287C263.455 358.234 262.897 357.944 262.507 357.482C262.116 357.02 261.924 356.422 261.972 355.819L262.614 345.207L315.043 344.504Z" fill="#263238"/>
<path d="M287.552 227.404C287.552 227.404 276.446 239.41 272.263 246.876C268.08 254.341 266.427 265.779 264.86 274.787C263.293 283.795 267.537 304.944 266.341 314.655L262.552 345.244C262.552 345.244 261.738 347.317 264.465 349.588C267.192 351.858 280.506 352.685 292.537 353.29C296.93 353.512 310.046 350.686 312.193 350.55C314.785 350.39 314.871 347.095 314.982 344.504C315.5 332.325 317.697 299.861 319.14 285.72C322.114 256.883 305.839 229.045 287.552 227.404Z" fill="white" stroke="#263238" stroke-width="1.00396" stroke-miterlimit="10"/>
<g style="mix-blend-mode:multiply">
<path d="M317.782 302.119C318.276 295.715 318.769 289.903 319.201 285.72C319.325 284.486 319.399 283.252 319.46 282.018L289.957 286.954L264.612 278.316C264.615 283.561 264.912 288.801 265.501 294.012L290.364 300.971L317.782 302.119Z" fill="#009C8E"/>
</g>
<g style="mix-blend-mode:multiply">
<path d="M286.453 228.614C284.775 230.477 281.444 234.265 278.272 238.288L297.003 257.327L303.173 254.859L286.453 228.614Z" fill="#009C8E"/>
</g>
<path d="M287.551 227.404C287.551 227.404 276.446 239.41 272.263 246.876C271.023 249.144 270.018 251.534 269.265 254.008L291.599 228.206C290.279 227.807 288.924 227.538 287.551 227.404V227.404Z" fill="#263238"/>
<g style="mix-blend-mode:multiply">
<path d="M265.724 269.925L289.958 277.897L319.387 274.516C318.926 267.184 317.297 259.974 314.563 253.156L290.834 262.67L269.623 253.058C267.888 258.571 266.585 264.21 265.724 269.925V269.925Z" fill="#009C8E"/>
</g>
<g style="mix-blend-mode:multiply">
<path d="M307.442 332.325C295.151 334.389 282.539 333.359 270.745 329.327L264.835 327.303L262.996 342.11L269.733 343.998C282.541 347.579 295.927 348.611 309.133 347.034L314.574 346.38C314.857 345.78 315.017 345.13 315.043 344.467C315.191 341.173 315.45 336.385 315.784 330.894L307.442 332.325Z" fill="#009C8E"/>
</g>
<g style="mix-blend-mode:multiply">
<path d="M310.737 312.163C298.445 314.235 285.829 313.2 274.04 309.152L266.513 306.573C266.699 309.262 266.662 311.961 266.401 314.643L265.525 321.763L273.028 323.861C285.831 327.445 299.213 328.481 312.415 326.908L316.116 326.464C316.425 321.528 316.783 316.272 317.165 311.077L310.737 312.163Z" fill="#009C8E"/>
</g>
<path d="M194.972 259.983L218.83 279.165L219.858 277.886L196 258.704L194.972 259.983Z" fill="#263238"/>
<path d="M299.04 240.719C299.04 240.719 307.788 246.678 307.986 260.758C308.072 266.927 307.431 272.69 306.012 282.795C304.593 292.901 295.782 325.81 288.922 329.808C282.061 333.806 271.412 326.254 271.412 326.254L219.908 292.062L207.458 282.006L201.288 270.357L203.225 266.656L218.415 278.304L210.234 270.74L211.838 268.704L214.8 270.765L223.437 273.998L225.325 286.337L227.99 288.163L277.261 306.166C277.261 306.166 276.644 279.649 277.101 274.578C277.557 269.506 278.187 256.76 283.616 247.517" fill="white"/>
<g style="mix-blend-mode:multiply" opacity="0.5">
<path d="M276.915 286.127C276.915 295.283 277.224 306.166 277.224 306.166L228.003 288.237L225.337 286.411L223.449 274.071L214.812 270.839L211.863 268.741L210.259 270.777L218.415 278.304L203.225 266.656L201.387 270.296L207.556 281.944L220.007 292.062L223.141 294.147L291.192 316.074L276.915 286.127Z" fill="#009C8E"/>
</g>
<path d="M299.04 240.719C299.04 240.719 307.788 246.678 307.986 260.758C308.072 266.927 307.431 272.69 306.012 282.795C304.593 292.901 295.782 325.81 288.922 329.808C282.061 333.806 271.412 326.254 271.412 326.254L219.908 292.062L207.458 282.006L201.288 270.357L203.225 266.656L218.415 278.304L210.234 270.74L211.838 268.704L214.8 270.765L223.437 273.998L225.325 286.337L227.99 288.163L277.261 306.166C277.261 306.166 276.644 279.649 277.101 274.578C277.557 269.506 278.187 256.76 283.616 247.517" stroke="#263238" stroke-width="1.00396" stroke-miterlimit="10"/>
<path d="M277.261 306.166L296.066 319.739L300.94 311.102C300.94 311.102 304.308 308.449 304.802 306.45C305.296 304.451 304.666 301.206 305.172 299.207C305.678 297.208 308.195 295.332 308.43 290.495C308.664 285.658 308.43 281.623 308.43 281.623C308.43 281.623 312.502 264.879 312.057 257.598C311.613 250.318 304.592 237.448 298.966 237.165C293.339 236.881 286.022 237.732 280.346 246.32C274.669 254.909 275.829 279.982 274.941 281.549C274.053 283.116 275.286 290.853 275.286 290.853C274.793 291.221 274.384 291.689 274.086 292.228C273.788 292.766 273.609 293.362 273.559 293.975C273.46 295.986 275.632 300.934 275.632 300.934L277.261 306.166Z" fill="white" stroke="#263238" stroke-width="1.00396" stroke-miterlimit="10"/>
<g style="mix-blend-mode:multiply">
<path d="M275.434 275.108C275.473 277.261 275.312 279.413 274.953 281.537C274.163 282.944 275.064 289.298 275.261 290.594C285.838 293.879 297.023 294.723 307.973 293.062C308.208 292.204 308.349 291.322 308.392 290.434C308.639 285.609 308.392 281.562 308.392 281.562C308.392 281.562 308.75 280.069 309.244 277.798C297.903 278.519 286.518 277.613 275.434 275.108V275.108Z" fill="#009C8E"/>
</g>
<g style="mix-blend-mode:multiply">
<path d="M279.581 247.69C277.816 251.232 276.829 256.55 276.262 261.942C287.463 266.217 299.541 267.687 311.441 266.224C311.916 263.37 312.126 260.479 312.07 257.586C311.857 255.3 311.316 253.056 310.466 250.923C300.075 251.166 289.696 250.079 279.581 247.69V247.69Z" fill="#009C8E"/>
</g>
<path d="M275.632 301.07L277.224 306.166L296.029 319.739L300.903 311.102C300.903 311.102 304.271 308.449 304.765 306.45C304.853 306.102 304.907 305.747 304.925 305.389C295.015 305.217 285.169 303.766 275.632 301.07V301.07Z" fill="#263238"/>
<path d="M289.242 544.943C289.242 544.943 289.661 534.258 291.71 518.636C293.758 503.015 288.835 480.829 288.008 477.127C287.181 473.425 288.427 465.207 287.601 462.32C286.774 459.432 282.776 447.118 285.133 432.829C287.49 418.54 289.402 380.769 289.402 380.769C289.402 380.769 283.467 375.945 281.727 369.664C279.987 363.383 281.32 361.409 281.32 361.409" stroke="#263238" stroke-width="1.00396" stroke-miterlimit="10"/>
<path d="M291.994 361.989L289.711 374.624" stroke="#263238" stroke-width="1.00396" stroke-miterlimit="10"/>
</svg>
