<svg width="20" height="24" viewBox="0 0 20 24" fill="none" xmlns="http://www.w3.org/2000/svg">
<path d="M18.8406 11.5407L10.5906 1.04069C10.5205 0.951052 10.4308 0.878556 10.3285 0.828698C10.2262 0.77884 10.1138 0.75293 10 0.75293C9.88617 0.75293 9.77383 0.77884 9.6715 0.828698C9.56917 0.878556 9.47953 0.951052 9.40937 1.04069L1.15937 11.5407C1.05435 11.6708 0.99707 11.8329 0.99707 12.0001C0.99707 12.1672 1.05435 12.3294 1.15937 12.4594L9.40937 22.9594C9.47953 23.0491 9.56917 23.1216 9.6715 23.1714C9.77383 23.2213 9.88617 23.2472 10 23.2472C10.1138 23.2472 10.2262 23.2213 10.3285 23.1714C10.4308 23.1216 10.5205 23.0491 10.5906 22.9594L18.8406 12.4594C18.9456 12.3294 19.0029 12.1672 19.0029 12.0001C19.0029 11.8329 18.9456 11.6708 18.8406 11.5407ZM10.75 14.5876V3.66569L17.0687 11.7094L10.75 14.5876ZM9.25 14.5876L2.93125 11.7094L9.25 3.66569V14.5876ZM9.25 16.2376V20.3344L4.24375 13.9594L9.25 16.2376Z" fill="white"/>
</svg>
