<svg width="30" height="14" viewBox="0 0 30 14" fill="none" xmlns="http://www.w3.org/2000/svg">
<path d="M30.0005 7.00051C30.0006 8.38505 29.5901 9.73853 28.821 10.8898C28.0518 12.041 26.9585 12.9383 25.6794 13.4681C24.4002 13.998 22.9927 14.1366 21.6347 13.8665C20.2768 13.5963 19.0295 12.9296 18.0505 11.9505L18.013 11.9005L10.513 3.45051C10.0523 2.9888 9.50472 2.62294 8.90184 2.37406C8.29895 2.12519 7.65274 1.99822 7.00051 2.00051C5.67443 2.00051 4.40266 2.52729 3.46497 3.46497C2.52729 4.40266 2.00051 5.67443 2.00051 7.00051C2.00051 8.32659 2.52729 9.59836 3.46497 10.536C4.40266 11.4737 5.67443 12.0005 7.00051 12.0005C7.65274 12.0028 8.29895 11.8758 8.90184 11.627C9.50472 11.3781 10.0523 11.0122 10.513 10.5505L11.5755 9.35051C11.7512 9.1516 11.9987 9.03063 12.2636 9.01422C12.5285 8.99781 12.7891 9.0873 12.988 9.26301C13.1869 9.43871 13.3079 9.68624 13.3243 9.95114C13.3407 10.216 13.2512 10.4766 13.0755 10.6755L11.988 11.9005L11.9505 11.9505C11.3005 12.6006 10.5288 13.1163 9.67946 13.4681C8.83013 13.8199 7.91982 14.001 7.00051 14.001C6.08119 14.001 5.17089 13.8199 4.32156 13.4681C3.47223 13.1163 2.70053 12.6006 2.05051 11.9505C1.07144 10.9715 0.404672 9.72421 0.134534 8.36628C-0.135605 7.00835 0.00301969 5.6008 0.532875 4.32166C1.06273 3.04251 1.96002 1.94922 3.11125 1.18006C4.26249 0.410897 5.61597 0.000408277 7.00051 0.000508181C7.92029 -0.00299328 8.83159 0.176444 9.68139 0.52838C10.5312 0.880317 11.3025 1.39773 11.9505 2.05051L11.988 2.10051L19.488 10.5505C19.9487 11.0122 20.4963 11.3781 21.0992 11.627C21.7021 11.8758 22.3483 12.0028 23.0005 12.0005C24.3266 12.0005 25.5984 11.4737 26.536 10.536C27.4737 9.59836 28.0005 8.32659 28.0005 7.00051C28.0005 5.67443 27.4737 4.40266 26.536 3.46497C25.5984 2.52729 24.3266 2.00051 23.0005 2.00051C22.3483 1.99822 21.7021 2.12519 21.0992 2.37406C20.4963 2.62294 19.9487 2.9888 19.488 3.45051L18.4255 4.65051C18.2498 4.84942 18.0023 4.97039 17.7374 4.9868C17.4725 5.00321 17.2119 4.91371 17.013 4.73801C16.8141 4.5623 16.6931 4.31477 16.6767 4.04988C16.6603 3.78498 16.7498 3.52442 16.9255 3.32551L18.013 2.10051L18.0505 2.05051C19.0295 1.07144 20.2768 0.404672 21.6347 0.134534C22.9927 -0.135605 24.4002 0.00301987 25.6794 0.532875C26.9585 1.06273 28.0518 1.96002 28.821 3.11125C29.5901 4.26249 30.0006 5.61597 30.0005 7.00051Z" fill="black"/>
</svg>
