<svg width="19" height="18" viewBox="0 0 19 18" fill="none" xmlns="http://www.w3.org/2000/svg">
<path d="M9.74988 4.50019V8.56717L13.272 10.6007C13.3573 10.6499 13.4321 10.7155 13.492 10.7936C13.552 10.8718 13.596 10.9609 13.6214 11.0561C13.6469 11.1512 13.6534 11.2504 13.6406 11.3481C13.6277 11.4457 13.5958 11.5399 13.5465 11.6252C13.4973 11.7105 13.4317 11.7852 13.3536 11.8452C13.2754 11.9052 13.1863 11.9491 13.0911 11.9746C12.996 12.0001 12.8968 12.0066 12.7991 11.9938C12.7015 11.9809 12.6073 11.949 12.522 11.8997L8.62488 9.64971C8.61888 9.64625 8.61352 9.64216 8.60767 9.63856C8.59494 9.63072 8.58226 9.62283 8.57008 9.61427C8.56038 9.60749 8.55113 9.60031 8.54184 9.59315C8.53227 9.58576 8.52275 9.57837 8.5136 9.57054C8.50311 9.56165 8.49318 9.55241 8.48334 9.54304C8.47592 9.53598 8.46855 9.52892 8.46141 9.52156C8.45138 9.51123 8.44186 9.5006 8.43253 9.48978C8.42603 9.48225 8.41962 9.4747 8.41339 9.46692C8.40478 9.45609 8.39659 9.44503 8.38863 9.43378C8.38231 9.4249 8.37613 9.41595 8.37022 9.40679C8.36345 9.3963 8.35704 9.38565 8.35082 9.37486C8.34464 9.36414 8.33864 9.35331 8.33296 9.34226C8.32798 9.33249 8.32326 9.32262 8.31873 9.31267C8.31301 9.30021 8.30756 9.28765 8.30248 9.27484C8.29882 9.26548 8.29543 9.25603 8.29213 9.24653C8.28746 9.23317 8.28307 9.21973 8.27918 9.20603C8.27634 9.19601 8.27387 9.18592 8.2714 9.17579C8.26828 9.16274 8.26526 9.14965 8.26284 9.13634C8.26059 9.1243 8.25894 9.11219 8.2573 9.10004C8.25574 9.08858 8.25418 9.07717 8.25318 9.06554C8.25185 9.05053 8.25135 9.03547 8.25089 9.02037C8.2507 9.01361 8.24988 9.007 8.24988 9.00019V4.50019C8.24988 4.30128 8.3289 4.11051 8.46955 3.96986C8.6102 3.82921 8.80097 3.75019 8.99988 3.75019C9.19879 3.75019 9.38956 3.82921 9.53021 3.96986C9.67086 4.11051 9.74988 4.30128 9.74988 4.50019V4.50019ZM18.3025 1.90563C18.1655 1.84886 18.0147 1.83401 17.8692 1.86295C17.7237 1.8919 17.59 1.96333 17.4852 2.06823L16.1405 3.4129L15.3638 2.63622C14.1054 1.37898 12.5025 0.523054 10.7577 0.176633C9.01291 -0.169787 7.20458 0.00885192 5.56131 0.68997C3.91804 1.37109 2.51358 2.52411 1.52549 4.00327C0.537391 5.48244 0.0100098 7.22135 0.0100098 9.00019C0.0100098 10.779 0.537391 12.5179 1.52549 13.9971C2.51358 15.4763 3.91804 16.6293 5.56131 17.3104C7.20458 17.9915 9.01291 18.1702 10.7577 17.8237C12.5025 17.4773 14.1054 16.6214 15.3638 15.3642C15.5044 15.2235 15.5835 15.0327 15.5835 14.8338C15.5835 14.6349 15.5044 14.4442 15.3638 14.3035C15.2942 14.2339 15.2115 14.1786 15.1205 14.1409C15.0295 14.1033 14.932 14.0839 14.8335 14.0839C14.6346 14.0839 14.4438 14.1629 14.3032 14.3035C13.2543 15.3524 11.9179 16.0667 10.463 16.3561C9.00818 16.6455 7.50018 16.4969 6.12973 15.9293C4.75929 15.3616 3.58795 14.4003 2.76384 13.167C1.93974 11.9336 1.49987 10.4835 1.49987 9.00019C1.49987 7.51683 1.93974 6.06678 2.76384 4.83341C3.58795 3.60005 4.75929 2.63875 6.12973 2.07109C7.50018 1.50343 9.00818 1.3549 10.463 1.64429C11.9179 1.93367 13.2543 2.64797 14.3032 3.69686L15.0798 4.47355L13.7352 5.81823C13.6303 5.92311 13.5588 6.05675 13.5299 6.20223C13.501 6.34772 13.5158 6.49852 13.5726 6.63557C13.6293 6.77261 13.7255 6.88975 13.8488 6.97216C13.9721 7.05457 14.1172 7.09855 14.2655 7.09855H18.0155C18.114 7.09855 18.2115 7.07915 18.3025 7.04146C18.3935 7.00377 18.4762 6.94853 18.5458 6.87888C18.6155 6.80924 18.6707 6.72656 18.7084 6.63556C18.7461 6.54457 18.7655 6.44704 18.7655 6.34855V2.59855C18.7655 2.45021 18.7215 2.30521 18.6391 2.18187C18.5567 2.05853 18.4395 1.9624 18.3025 1.90563V1.90563Z" fill="black"/>
</svg>
