<svg width="178" height="42" viewBox="0 0 178 42" fill="none" xmlns="http://www.w3.org/2000/svg">
<path d="M57.8301 32.3522C56.6549 32.3522 56.0672 31.7462 56.0672 30.5342V15.6601H50.696C49.686 15.6601 49.181 15.1642 49.181 14.1726C49.181 13.1994 49.686 12.7128 50.696 12.7128H64.9642C65.9742 12.7128 66.4792 13.1994 66.4792 14.1726C66.4792 15.1642 65.9742 15.6601 64.9642 15.6601H59.593V30.5342C59.593 31.7462 59.0053 32.3522 57.8301 32.3522ZM67.7729 32.3522C66.5977 32.3522 66.01 31.7646 66.01 30.5893V20.1774C66.01 19.0205 66.5701 18.4421 67.6903 18.4421C68.8104 18.4421 69.3705 19.0205 69.3705 20.1774V21.0313C70.0316 19.4521 71.4455 18.5706 73.6124 18.387C74.402 18.2952 74.8427 18.7451 74.9345 19.7367C75.0264 20.7099 74.5489 21.2516 73.5022 21.3618L72.8962 21.4169C70.6376 21.6373 69.5082 22.7942 69.5082 24.8876V30.5893C69.5082 31.7646 68.9298 32.3522 67.7729 32.3522ZM81.0968 32.4073C80.1236 32.4073 79.2513 32.2237 78.4801 31.8564C77.7272 31.4708 77.1304 30.9566 76.6897 30.3139C76.2673 29.6712 76.0561 28.9458 76.0561 28.1378C76.0561 27.1462 76.3132 26.3658 76.8274 25.7965C77.3416 25.2089 78.1771 24.7866 79.334 24.5295C80.4908 24.2724 82.0425 24.1438 83.989 24.1438H84.9531V23.5654C84.9531 22.6472 84.7511 21.9862 84.3471 21.5822C83.9431 21.1782 83.2637 20.9762 82.3088 20.9762C81.7763 20.9762 81.1978 21.0405 80.5735 21.169C79.9675 21.2976 79.3248 21.5179 78.6453 21.8301C78.2046 22.0321 77.8374 22.0596 77.5436 21.9127C77.2497 21.7475 77.0477 21.4995 76.9376 21.169C76.8458 20.8201 76.8641 20.4712 76.9927 20.1223C77.1396 19.7734 77.4242 19.5163 77.8465 19.3511C78.6913 19.0022 79.4992 18.7543 80.2705 18.6073C81.0601 18.4604 81.7763 18.387 82.419 18.387C84.3838 18.387 85.8437 18.8461 86.7986 19.7642C87.7535 20.664 88.2309 22.0688 88.2309 23.9786V30.5893C88.2309 31.7646 87.6984 32.3522 86.6333 32.3522C85.5499 32.3522 85.0082 31.7646 85.0082 30.5893V29.9833C84.696 30.7362 84.2002 31.333 83.5208 31.7738C82.8413 32.1961 82.0334 32.4073 81.0968 32.4073ZM81.813 30.0384C82.7128 30.0384 83.4565 29.7263 84.0441 29.1019C84.6501 28.4776 84.9531 27.6879 84.9531 26.7331V26.1271H84.0166C82.2904 26.1271 81.0877 26.2648 80.4082 26.5402C79.7471 26.7973 79.4166 27.2748 79.4166 27.9726C79.4166 28.5786 79.6278 29.0744 80.0501 29.46C80.4725 29.8456 81.0601 30.0384 81.813 30.0384ZM96.9041 32.4073C95.7289 32.4073 94.6913 32.1227 93.7915 31.5534C92.9101 30.9841 92.2215 30.1762 91.7257 29.1295C91.2299 28.0644 90.982 26.8157 90.982 25.3834C90.982 23.9327 91.2299 22.6932 91.7257 21.6648C92.2215 20.6181 92.9101 19.8101 93.7915 19.2409C94.6913 18.6716 95.7289 18.387 96.9041 18.387C97.859 18.387 98.7221 18.5982 99.4933 19.0205C100.265 19.4429 100.843 20.0029 101.229 20.7008V14.2277C101.229 13.0708 101.798 12.4924 102.936 12.4924C104.093 12.4924 104.672 13.0708 104.672 14.2277V30.5893C104.672 31.7646 104.102 32.3522 102.964 32.3522C101.825 32.3522 101.256 31.7646 101.256 30.5893V30.0109C100.871 30.7454 100.292 31.333 99.5208 31.7738C98.7496 32.1961 97.8773 32.4073 96.9041 32.4073ZM97.8682 29.7905C98.8965 29.7905 99.7228 29.4233 100.347 28.6887C100.972 27.9358 101.284 26.8341 101.284 25.3834C101.284 23.9143 100.972 22.8217 100.347 22.1055C99.7228 21.371 98.8965 21.0037 97.8682 21.0037C96.8398 21.0037 96.0135 21.371 95.3891 22.1055C94.7648 22.8217 94.4526 23.9143 94.4526 25.3834C94.4526 26.8341 94.7648 27.9358 95.3891 28.6887C96.0135 29.4233 96.8398 29.7905 97.8682 29.7905ZM114.88 32.4073C113.356 32.4073 112.043 32.1227 110.941 31.5534C109.839 30.9841 108.985 30.1762 108.38 29.1295C107.792 28.0828 107.498 26.8432 107.498 25.4109C107.498 24.0153 107.783 22.7942 108.352 21.7475C108.94 20.7008 109.738 19.8836 110.748 19.296C111.777 18.69 112.943 18.387 114.247 18.387C116.156 18.387 117.662 18.993 118.764 20.2049C119.884 21.4169 120.444 23.0696 120.444 25.163C120.444 25.8424 120.003 26.1822 119.122 26.1822H110.803C111.061 28.5877 112.438 29.7905 114.935 29.7905C115.413 29.7905 115.945 29.7354 116.533 29.6253C117.139 29.4967 117.708 29.2855 118.241 28.9917C118.718 28.7163 119.122 28.6336 119.453 28.7438C119.783 28.8356 120.013 29.0285 120.141 29.3223C120.288 29.6161 120.306 29.9466 120.196 30.3139C120.104 30.6628 119.847 30.9658 119.425 31.2229C118.782 31.6268 118.039 31.9298 117.194 32.1318C116.367 32.3155 115.596 32.4073 114.88 32.4073ZM114.384 20.7283C113.374 20.7283 112.557 21.0405 111.933 21.6648C111.308 22.2892 110.932 23.1339 110.803 24.1989H117.579C117.506 23.0788 117.194 22.2249 116.643 21.6373C116.11 21.0313 115.358 20.7283 114.384 20.7283ZM125.292 32.1318C124.098 32.1318 123.501 31.5259 123.501 30.3139V14.4205C123.501 13.2269 124.089 12.6301 125.264 12.6301C126.439 12.6301 127.027 13.2269 127.027 14.4205V29.1295H135.015C136.043 29.1295 136.558 29.6253 136.558 30.6169C136.558 31.6268 136.043 32.1318 135.015 32.1318H125.292ZM145.142 32.4073C143.618 32.4073 142.305 32.1227 141.203 31.5534C140.101 30.9841 139.247 30.1762 138.641 29.1295C138.053 28.0828 137.76 26.8432 137.76 25.4109C137.76 24.0153 138.044 22.7942 138.614 21.7475C139.201 20.7008 140 19.8836 141.01 19.296C142.038 18.69 143.204 18.387 144.508 18.387C146.418 18.387 147.924 18.993 149.025 20.2049C150.146 21.4169 150.706 23.0696 150.706 25.163C150.706 25.8424 150.265 26.1822 149.384 26.1822H141.065C141.322 28.5877 142.699 29.7905 145.197 29.7905C145.674 29.7905 146.207 29.7354 146.794 29.6253C147.4 29.4967 147.97 29.2855 148.502 28.9917C148.98 28.7163 149.384 28.6336 149.714 28.7438C150.045 28.8356 150.274 29.0285 150.403 29.3223C150.55 29.6161 150.568 29.9466 150.458 30.3139C150.366 30.6628 150.109 30.9658 149.687 31.2229C149.044 31.6268 148.3 31.9298 147.455 32.1318C146.629 32.3155 145.858 32.4073 145.142 32.4073ZM144.646 20.7283C143.636 20.7283 142.819 21.0405 142.194 21.6648C141.57 22.2892 141.194 23.1339 141.065 24.1989H147.841C147.768 23.0788 147.455 22.2249 146.905 21.6373C146.372 21.0313 145.619 20.7283 144.646 20.7283ZM157.867 32.4073C156.894 32.4073 156.022 32.2237 155.25 31.8564C154.498 31.4708 153.901 30.9566 153.46 30.3139C153.038 29.6712 152.826 28.9458 152.826 28.1378C152.826 27.1462 153.084 26.3658 153.598 25.7965C154.112 25.2089 154.947 24.7866 156.104 24.5295C157.261 24.2724 158.813 24.1438 160.759 24.1438H161.723V23.5654C161.723 22.6472 161.521 21.9862 161.117 21.5822C160.713 21.1782 160.034 20.9762 159.079 20.9762C158.547 20.9762 157.968 21.0405 157.344 21.169C156.738 21.2976 156.095 21.5179 155.416 21.8301C154.975 22.0321 154.608 22.0596 154.314 21.9127C154.02 21.7475 153.818 21.4995 153.708 21.169C153.616 20.8201 153.634 20.4712 153.763 20.1223C153.91 19.7734 154.195 19.5163 154.617 19.3511C155.462 19.0022 156.27 18.7543 157.041 18.6073C157.83 18.4604 158.547 18.387 159.189 18.387C161.154 18.387 162.614 18.8461 163.569 19.7642C164.524 20.664 165.001 22.0688 165.001 23.9786V30.5893C165.001 31.7646 164.469 32.3522 163.404 32.3522C162.32 32.3522 161.779 31.7646 161.779 30.5893V29.9833C161.466 30.7362 160.971 31.333 160.291 31.7738C159.612 32.1961 158.804 32.4073 157.867 32.4073ZM158.583 30.0384C159.483 30.0384 160.227 29.7263 160.814 29.1019C161.42 28.4776 161.723 27.6879 161.723 26.7331V26.1271H160.787C159.061 26.1271 157.858 26.2648 157.179 26.5402C156.517 26.7973 156.187 27.2748 156.187 27.9726C156.187 28.5786 156.398 29.0744 156.82 29.46C157.243 29.8456 157.83 30.0384 158.583 30.0384ZM171.14 32.3522C169.983 32.3522 169.405 31.7646 169.405 30.5893V21.2516H168.138C167.22 21.2516 166.761 20.8201 166.761 19.957C166.761 19.094 167.22 18.6624 168.138 18.6624H169.405V18.6349C169.405 16.7435 169.882 15.3295 170.837 14.393C171.792 13.4381 173.169 12.878 174.969 12.7128L175.906 12.6301C176.383 12.5934 176.732 12.6944 176.952 12.9331C177.173 13.1718 177.283 13.4657 177.283 13.8146C177.301 14.1451 177.219 14.4481 177.035 14.7235C176.851 14.9806 176.585 15.1275 176.236 15.1642L175.85 15.1918C174.804 15.2652 174.042 15.5315 173.564 15.9906C173.087 16.4497 172.848 17.1475 172.848 18.084V18.6624H175.189C176.108 18.6624 176.567 19.094 176.567 19.957C176.567 20.8201 176.108 21.2516 175.189 21.2516H172.848V30.5893C172.848 31.7646 172.279 32.3522 171.14 32.3522Z" fill="white"/>
<path d="M0.195862 20.2424L8.49551 28.2771C8.61485 28.3941 8.7753 28.4596 8.94241 28.4596C9.10953 28.4596 9.26998 28.3941 9.38932 28.2771L18.4264 19.24C18.4857 19.1807 18.5328 19.1103 18.5649 19.0328C18.5971 18.9553 18.6136 18.8722 18.6136 18.7883C18.6136 18.7044 18.5971 18.6214 18.5649 18.5439C18.5328 18.4664 18.4857 18.3959 18.4264 18.3366L10.1554 10.0753C10.0662 9.98656 9.95265 9.92618 9.82916 9.90177C9.70567 9.87736 9.57771 9.88999 9.46138 9.9381C9.34505 9.9862 9.24554 10.0676 9.17535 10.1721C9.10517 10.2766 9.06744 10.3995 9.06691 10.5254V18.2313C9.06701 18.3968 9.00282 18.5559 8.88788 18.675C8.77294 18.7941 8.61624 18.8639 8.45082 18.8697L0.614036 19.1443C0.488877 19.1491 0.367892 19.1906 0.266141 19.2636C0.164391 19.3366 0.0863732 19.438 0.0417989 19.555C-0.00277545 19.6721 -0.011937 19.7997 0.0154572 19.9219C0.0428515 20.0441 0.10559 20.1556 0.195862 20.2424Z" fill="#00B597"/>
<path d="M39.8042 20.2421L31.5045 28.2768C31.385 28.3948 31.2239 28.4609 31.056 28.4609C30.8881 28.4609 30.727 28.3948 30.6075 28.2768L21.5832 19.2334C21.5239 19.1741 21.4768 19.1037 21.4447 19.0262C21.4125 18.9487 21.396 18.8656 21.396 18.7817C21.396 18.6978 21.4125 18.6148 21.4447 18.5372C21.4768 18.4597 21.5239 18.3893 21.5832 18.33L29.8382 10.0751C29.9273 9.98524 30.0411 9.9239 30.1651 9.89886C30.2892 9.87382 30.4178 9.8862 30.5348 9.93443C30.6518 9.98266 30.7518 10.0646 30.8222 10.1697C30.8925 10.2749 30.93 10.3986 30.9299 10.5252V18.2311C30.9298 18.3966 30.994 18.5557 31.1089 18.6748C31.2239 18.7939 31.3806 18.8637 31.546 18.8695L39.3796 19.144C39.5053 19.1476 39.6271 19.1883 39.7298 19.2608C39.8325 19.3334 39.9115 19.4347 39.9569 19.552C40.0022 19.6693 40.0119 19.7973 39.9847 19.9201C39.9576 20.0429 39.8948 20.1549 39.8042 20.2421Z" fill="#00B597"/>
<path d="M19.3234 0.645375L13.0668 10.4262C12.9885 10.5487 12.9544 10.6942 12.97 10.8388C12.9857 10.9833 13.0502 11.1182 13.153 11.221L19.3905 17.4617C19.4498 17.5211 19.5202 17.5682 19.5977 17.6003C19.6752 17.6324 19.7582 17.649 19.8421 17.649C19.926 17.649 20.0091 17.6324 20.0866 17.6003C20.1641 17.5682 20.2346 17.5211 20.2938 17.4617L26.8314 10.9242C26.9369 10.8185 27.002 10.6792 27.0154 10.5305C27.0289 10.3817 26.9897 10.233 26.9048 10.1102L20.3864 0.629415C20.3268 0.542702 20.2467 0.472058 20.1533 0.423767C20.0598 0.375475 19.9558 0.351031 19.8506 0.352611C19.7454 0.354191 19.6423 0.381744 19.5503 0.43282C19.4583 0.483897 19.3804 0.556913 19.3234 0.645375Z" fill="white"/>
<path d="M30.1159 31.4692C30.2424 31.4693 30.3661 31.4318 30.4713 31.3614C30.5765 31.2911 30.6584 31.1911 30.7066 31.0741C30.7548 30.9571 30.7672 30.8284 30.7422 30.7044C30.7171 30.5804 30.6558 30.4666 30.566 30.3775L25.8288 25.6371L20.45 20.2615C20.3907 20.2021 20.3203 20.155 20.2428 20.1229C20.1652 20.0908 20.0822 20.0742 19.9983 20.0742C19.9144 20.0742 19.8313 20.0908 19.7538 20.1229C19.6763 20.155 19.6059 20.2021 19.5466 20.2615L9.42738 30.3775C9.33735 30.4668 9.27594 30.5808 9.251 30.7052C9.22605 30.8295 9.2387 30.9585 9.28733 31.0756C9.33596 31.1927 9.41836 31.2927 9.52403 31.3628C9.62971 31.4329 9.75386 31.4699 9.88067 31.4692H15.9075C15.9917 31.4692 16.0752 31.4526 16.153 31.4203C16.2308 31.388 16.3014 31.3406 16.3608 31.2808L17.3982 30.2434C17.4875 30.1546 17.601 30.0943 17.7245 30.0698C17.848 30.0454 17.976 30.0581 18.0923 30.1062C18.2086 30.1543 18.3081 30.2357 18.3783 30.3402C18.4485 30.4447 18.4862 30.5676 18.4868 30.6935V33.6111C18.4868 33.7804 18.554 33.9428 18.6738 34.0626C18.7935 34.1823 18.9559 34.2496 19.1252 34.2496H20.8681C21.0375 34.2496 21.1998 34.1823 21.3196 34.0626C21.4393 33.9428 21.5066 33.7804 21.5066 33.6111V30.6935C21.5065 30.5669 21.544 30.4432 21.6143 30.338C21.6847 30.2329 21.7847 30.151 21.9017 30.1027C22.0186 30.0545 22.1473 30.0421 22.2714 30.0672C22.3954 30.0922 22.5092 30.1535 22.5983 30.2434L23.6357 31.2808C23.7549 31.4007 23.9168 31.4685 24.0858 31.4692H30.1159Z" fill="white"/>
</svg>
