<svg width="250" height="196" viewBox="0 0 250 196" fill="none" xmlns="http://www.w3.org/2000/svg">
<g opacity="0.15">
<g opacity="0.15">
<path opacity="0.15" d="M105.664 159.002L106.733 158.859C106.844 158.772 106.971 158.693 107.106 158.621L189.494 111.056C191.625 109.827 195.342 109.978 197.799 111.397L245.864 139.15C246.506 139.522 246.989 139.942 247.33 140.378L247.892 140.212V141.876H247.884C247.877 142.653 247.409 143.39 246.45 143.944L164.062 191.51C161.931 192.738 158.214 192.588 155.757 191.169L107.692 163.416C106.321 162.623 105.632 161.601 105.664 160.642V159.002Z" fill="#9FFFF8"/>
<path opacity="0.15" d="M164.07 189.846L246.458 142.28C248.59 141.052 248.32 138.904 245.864 137.486L197.799 109.732C195.342 108.314 191.625 108.155 189.494 109.392L107.106 156.957C104.974 158.185 105.244 160.333 107.7 161.752L155.765 189.505C158.222 190.923 161.939 191.074 164.07 189.846Z" fill="#42E8E0"/>
</g>
<g opacity="0.15">
<path opacity="0.15" d="M219.561 147.487L229.736 141.614C230.679 141.068 230.561 140.117 229.475 139.483C228.381 138.849 226.725 138.785 225.782 139.332L215.606 145.204C214.663 145.751 214.782 146.702 215.868 147.336C216.961 147.962 218.61 148.034 219.561 147.487Z" fill="white"/>
<path opacity="0.15" d="M200.787 158.32L210.962 152.448C211.905 151.901 211.786 150.95 210.701 150.316C209.607 149.682 207.951 149.619 207.008 150.165L196.832 156.038C195.889 156.585 196.008 157.536 197.094 158.17C198.187 158.796 199.844 158.867 200.787 158.32Z" fill="white"/>
<path opacity="0.15" d="M182.012 169.161L192.188 163.289C193.131 162.742 193.012 161.791 191.927 161.157C190.833 160.523 189.177 160.46 188.234 161.007L178.058 166.879C177.115 167.426 177.234 168.377 178.319 169.011C179.413 169.637 181.069 169.708 182.012 169.161Z" fill="white"/>
<path opacity="0.15" d="M163.246 179.995L173.422 174.122C174.365 173.576 174.246 172.625 173.16 171.991C172.067 171.357 170.41 171.293 169.467 171.84L159.292 177.712C158.348 178.259 158.467 179.21 159.553 179.844C160.647 180.478 162.295 180.542 163.246 179.995Z" fill="white"/>
</g>
</g>
<path opacity="0.4" d="M166.004 182.491L235.822 142.177C237.629 141.139 237.399 139.316 235.315 138.112L194.581 114.598C192.497 113.394 189.35 113.267 187.544 114.305L117.725 154.619C115.918 155.657 116.148 157.48 118.232 158.685L158.966 182.198C161.051 183.403 164.205 183.529 166.004 182.491Z" fill="#24126A"/>
<path d="M105.663 125.36L106.733 125.218C106.844 125.13 106.971 125.051 107.106 124.98L189.493 77.4144C191.625 76.186 195.342 76.3366 197.799 77.7551L245.863 105.508C246.505 105.881 246.989 106.301 247.329 106.737L247.892 106.57V108.234H247.884C247.876 109.011 247.409 109.748 246.45 110.303L164.07 157.876C161.938 159.105 158.221 158.954 155.765 157.535L107.7 129.782C106.329 128.99 105.639 127.968 105.671 127.009V125.36H105.663Z" fill="#9FFFF8"/>
<path d="M164.07 156.204L246.457 108.639C248.589 107.41 248.32 105.263 245.863 103.844L197.798 76.091C195.342 74.6724 191.625 74.5139 189.493 75.7502L107.105 123.316C104.974 124.544 105.243 126.692 107.7 128.11L155.764 155.863C158.221 157.282 161.938 157.433 164.07 156.204Z" fill="#42E8E0"/>
<path d="M164.07 156.204L246.457 108.639C248.589 107.41 248.32 105.263 245.863 103.844L197.798 76.091C195.342 74.6724 191.625 74.5139 189.493 75.7502L107.105 123.316C104.974 124.544 105.243 126.692 107.7 128.11L155.764 155.863C158.221 157.282 161.938 157.433 164.07 156.204Z" fill="url(#paint0_radial_2_21792)"/>
<path opacity="0.7" d="M150.772 152.979L240.87 100.959L231.305 95.4436L141.206 147.463L150.772 152.979Z" fill="#453C9E"/>
<path d="M246.457 107.616L164.07 155.182C161.938 156.41 158.221 156.26 155.764 154.841L107.7 127.088C106.606 126.454 105.948 125.677 105.742 124.901C105.449 125.978 106.115 127.199 107.7 128.11L155.764 155.863C158.221 157.282 161.938 157.44 164.07 156.204L246.457 108.639C247.638 107.957 248.074 106.998 247.82 106.031C247.662 106.626 247.21 107.18 246.457 107.616Z" fill="white"/>
<path opacity="0.8" d="M152.191 130.044L179.318 114.384L172.7 110.564L145.573 126.224L152.191 130.044Z" fill="white"/>
<g opacity="0.15">
<path opacity="0.15" d="M2.94849 126.224L3.03566 133.674H3.04359C3.03566 133.777 3.09114 133.872 3.21793 133.943L84.5912 179.821C84.8606 179.971 85.3203 179.947 85.6214 179.765L98.7689 171.991C98.9115 171.904 98.9908 171.801 99.0145 171.698V171.69C99.0145 171.682 99.0145 171.674 99.0145 171.666L98.9274 164.137L92.5478 167.846L17.459 125.511C17.1896 125.36 16.7299 125.384 16.4288 125.566L11.9195 128.237L2.94849 126.224Z" fill="url(#paint1_linear_2_21792)"/>
<path opacity="0.15" d="M17.3717 118.038L98.745 163.915C99.0144 164.066 98.9827 164.335 98.6737 164.51L85.5262 172.284C85.225 172.466 84.7654 172.49 84.4959 172.339L3.13063 126.454C2.86118 126.304 2.89288 126.034 3.20196 125.86L16.3494 118.085C16.6426 117.911 17.1102 117.887 17.3717 118.038Z" fill="url(#paint2_linear_2_21792)"/>
</g>
<g opacity="0.2">
<path opacity="0.2" d="M89.0204 73.135C88.2675 64.3305 81.1667 54.1548 73.1705 50.3984C69.1605 48.5202 65.6893 48.6074 63.3119 50.2795L60.8314 52.031L61.5922 52.0389C60.3559 53.8378 59.7694 56.3897 60.0389 59.5596C60.7917 68.3642 67.8925 78.5399 75.8887 82.2963C78.6387 83.588 81.135 83.9447 83.2035 83.5088V84.2141L85.7236 82.4389C85.7315 82.431 85.7474 82.4231 85.7553 82.4152L85.8583 82.3438H85.8504C88.1565 80.6558 89.3928 77.47 89.0204 73.135Z" fill="#9FFFF8"/>
<path opacity="0.2" d="M83.2371 84.1965C88.364 80.6214 87.5013 70.5255 81.31 61.6467C75.1187 52.7679 65.9435 48.4683 60.8166 52.0434C55.6896 55.6184 56.5524 65.7143 62.7437 74.5931C68.9349 83.472 78.1101 87.7715 83.2371 84.1965Z" fill="#42E8E0"/>
<path opacity="0.2" d="M78.1552 83.6515C76.6178 83.6515 74.9218 83.2315 73.1387 82.3994C66.0142 79.063 59.6743 69.9652 59.0006 62.1274C58.6678 58.2838 59.7297 55.304 61.9884 53.7349C64.239 52.1658 67.4011 52.1975 70.896 53.8379C78.0284 57.1743 84.3684 66.2642 85.0341 74.1099C85.3669 77.9535 84.305 80.9333 82.0464 82.5024C80.9527 83.2711 79.6293 83.6515 78.1552 83.6515ZM65.8874 52.9741C64.5006 52.9741 63.2484 53.3307 62.2182 54.0598C60.0864 55.5497 59.0878 58.4027 59.4048 62.0957C60.0626 69.8146 66.3074 78.7618 73.3131 82.0428C76.6733 83.6198 79.6927 83.6595 81.8245 82.1775C83.9563 80.6876 84.9548 77.8346 84.6378 74.1416C83.9801 66.4306 77.7352 57.4755 70.7296 54.1945C69.0019 53.3783 67.3615 52.9741 65.8874 52.9741Z" fill="#18B2A3"/>
</g>
<path d="M69.7079 42.624C78.2827 40.4764 87.1982 31.854 89.6312 23.3585C90.8516 19.1028 90.2018 15.6872 88.1809 13.6029L86.057 11.4315L86.1759 12.1843C84.2026 11.2571 81.5874 11.0828 78.5046 11.8515C69.9298 13.9991 61.0142 22.6215 58.5813 31.117C57.7491 34.0334 57.7888 36.5614 58.5496 38.5268L57.8522 38.6378L60.0078 40.8409C60.0157 40.8488 60.0236 40.8568 60.0315 40.8647L60.1187 40.9519V40.9439C62.1475 42.9648 65.4918 43.678 69.7079 42.624Z" fill="#9FFFF8"/>
<path d="M79.835 33.1791C87.6152 25.6543 90.4 15.9123 86.0549 11.4197C81.7098 6.92717 71.8803 9.38525 64.1001 16.91C56.3199 24.4348 53.5352 34.1767 57.8803 38.6693C62.2253 43.1619 72.0548 40.7038 79.835 33.1791Z" fill="#42E8E0"/>
<path d="M64.8022 39.2876C62.5436 39.2876 60.6654 38.5902 59.3578 37.2351C57.4478 35.2617 56.9803 32.1314 58.0422 28.4225C60.2057 20.8542 68.1782 13.1512 75.8099 11.2413C79.5505 10.3061 82.665 10.8767 84.567 12.85C86.4769 14.8233 86.9445 17.9537 85.8825 21.6626C83.719 29.2309 75.7465 36.9339 68.1148 38.8438C66.9498 39.137 65.8324 39.2876 64.8022 39.2876ZM79.1226 11.1937C78.124 11.1937 77.0462 11.3364 75.905 11.6217C68.3922 13.4999 60.5465 21.084 58.4226 28.5335C57.4003 32.0997 57.8362 35.0874 59.6431 36.9577C61.4499 38.828 64.4297 39.3589 68.0197 38.4634C75.5326 36.5852 83.3703 29.001 85.5021 21.5595C86.5244 17.9933 86.0886 15.0056 84.2817 13.1353C83.0454 11.8515 81.2702 11.1937 79.1226 11.1937Z" fill="#18B2A3"/>
<path d="M2.85272 118.965L2.93197 126.414H2.9399C2.93197 126.517 2.98745 126.612 3.11425 126.684L84.4875 172.561C84.7569 172.712 85.2166 172.688 85.5177 172.506L98.6652 164.731C98.8078 164.644 98.8871 164.541 98.9109 164.438V164.43C98.9109 164.422 98.9109 164.414 98.9109 164.407L98.8237 156.878L92.4441 160.587L17.3554 118.252C17.0859 118.101 16.6263 118.125 16.3251 118.307L11.8158 120.978L2.85272 118.965Z" fill="url(#paint3_linear_2_21792)"/>
<path d="M2.85272 118.965L2.93197 126.414H2.9399C2.93197 126.517 2.98745 126.612 3.11425 126.684L84.4875 172.561C84.7569 172.712 85.2166 172.688 85.5177 172.506L98.6652 164.731C98.8078 164.644 98.8871 164.541 98.9109 164.438V164.43C98.9109 164.422 98.9109 164.414 98.9109 164.407L98.8237 156.878L92.4441 160.587L17.3554 118.252C17.0859 118.101 16.6263 118.125 16.3251 118.307L11.8158 120.978L2.85272 118.965Z" fill="url(#paint4_radial_2_21792)"/>
<path d="M17.2761 110.771L98.6493 156.648C98.9188 156.799 98.8871 157.068 98.578 157.242L85.4305 165.017C85.1294 165.199 84.6697 165.223 84.4003 165.072L3.02706 119.195C2.75761 119.044 2.78931 118.775 3.09838 118.6L16.2458 110.826C16.547 110.644 17.0066 110.62 17.2761 110.771Z" fill="url(#paint5_linear_2_21792)"/>
<path d="M98.6495 156.648L98.4196 156.521L85.4307 164.2C85.1295 164.383 84.6699 164.407 84.4004 164.256L3.25703 118.505L3.09853 118.6C2.79738 118.783 2.76568 119.044 3.0272 119.195L84.4004 165.072C84.6699 165.223 85.1295 165.199 85.4307 165.017L98.5781 157.242C98.8793 157.068 98.911 156.799 98.6495 156.648Z" fill="white"/>
<path opacity="0.6" d="M20.2875 121.953L84.2259 157.329C84.6776 154.801 85.3909 152.234 86.3419 149.706L22.5144 113.719C21.4842 116.461 20.7313 119.226 20.2875 121.953Z" fill="#24126A"/>
<path d="M14.5022 115.09L91.2314 158.352C91.4137 158.455 91.3899 158.637 91.1839 158.756L87.8792 160.706C87.6731 160.824 87.3561 160.848 87.1738 160.745L10.4446 117.483C10.2623 117.38 10.2861 117.198 10.4922 117.079L13.7969 115.129C14.0029 115.01 14.3199 114.995 14.5022 115.09Z" fill="#24126A"/>
<path d="M10.4446 117.491L12.0058 118.371L13.7889 117.317C13.995 117.198 14.312 117.174 14.4942 117.277L89.6623 159.659L91.1839 158.764C91.3899 158.645 91.4137 158.463 91.2314 158.36L14.5022 115.09C14.3199 114.987 14.0029 115.002 13.7969 115.129L10.4922 117.079C10.2861 117.206 10.2623 117.388 10.4446 117.491Z" fill="#453C9E"/>
<path opacity="0.7" d="M206.516 38.1306L142.68 2.14349C142.799 13.5316 134.946 27.4557 125.142 33.2568L37.9365 84.8006C26.4136 91.6081 17.1811 107.981 17.3237 121.366L81.1591 157.353C81.0244 143.968 90.249 127.595 101.772 120.788L188.978 69.2439C198.781 63.4508 206.635 49.5188 206.516 38.1306Z" fill="url(#paint6_linear_2_21792)"/>
<path d="M206.516 38.1306L142.68 2.14349C142.799 13.5316 134.946 27.4557 125.142 33.2568L37.9365 84.8006C26.4136 91.6081 17.1811 107.981 17.3237 121.366L81.1591 157.353C81.0244 143.968 90.249 127.595 101.772 120.788L188.978 69.2439C198.781 63.4508 206.635 49.5188 206.516 38.1306Z" fill="url(#paint7_radial_2_21792)"/>
<path opacity="0.8" d="M17.3236 121.366L81.159 157.353C81.1511 156.767 81.1748 156.173 81.1986 155.57H81.1907L17.3633 119.591C17.3395 120.185 17.3157 120.78 17.3236 121.366Z" fill="#453C9E"/>
<g opacity="0.8">
<path opacity="0.8" d="M122.48 83.5801L135.057 90.665L133.852 91.3783L121.275 84.2855L122.48 83.5801Z" fill="white"/>
<path opacity="0.8" d="M116.029 79.9426L120.554 82.4945L119.358 83.1998L114.825 80.6479L116.029 79.9426Z" fill="white"/>
<path opacity="0.8" d="M111.028 77.1213L114.103 78.8569L112.907 79.5701L109.832 77.8346L111.028 77.1213Z" fill="white"/>
<path opacity="0.8" d="M130.944 85.1889L137.791 89.0483L136.594 89.7616L129.739 85.8942L130.944 85.1889Z" fill="white"/>
<path opacity="0.8" d="M120.617 79.3641L129.018 84.1032L127.821 84.8085L119.421 80.0773L120.617 79.3641Z" fill="white"/>
<path opacity="0.8" d="M115.625 76.5507L118.7 78.2863L117.503 78.9916L114.42 77.256L115.625 76.5507Z" fill="white"/>
<path opacity="0.8" d="M110.862 73.8642L113.945 75.5997L112.74 76.313L109.665 74.5774L110.862 73.8642Z" fill="white"/>
<path opacity="0.8" d="M135.58 84.6342L140.533 87.4317L139.336 88.137L134.375 85.3395L135.58 84.6342Z" fill="white"/>
<path opacity="0.8" d="M131.958 82.5974L133.654 83.5484L132.457 84.2617L130.761 83.3027L131.958 82.5974Z" fill="white"/>
<path opacity="0.8" d="M126.957 79.7762L130.04 81.5117L128.836 82.225L125.761 80.4894L126.957 79.7762Z" fill="white"/>
<path opacity="0.8" d="M124.976 75.4888L143.275 85.807L142.078 86.5203L123.772 76.202L124.976 75.4888Z" fill="white"/>
<path opacity="0.8" d="M118.526 71.8591L123.051 74.411L121.854 75.1163L117.321 72.5644L118.526 71.8591Z" fill="white"/>
<path opacity="0.8" d="M141.056 81.3928L146.017 84.1903L144.812 84.8956L139.859 82.1061L141.056 81.3928Z" fill="white"/>
<path opacity="0.8" d="M129.422 74.831L139.138 80.3151L137.934 81.0204L128.218 75.5442L129.422 74.831Z" fill="white"/>
<path opacity="0.8" d="M124.422 72.0176L127.496 73.7532L126.3 74.4585L123.225 72.723L124.422 72.0176Z" fill="white"/>
<path opacity="0.8" d="M138.607 76.8519L148.751 82.5737L147.555 83.279L137.411 77.5572L138.607 76.8519Z" fill="white"/>
<path opacity="0.8" d="M129.351 71.6294L136.689 75.7662L135.485 76.4795L128.154 72.3426L129.351 71.6294Z" fill="white"/>
<path opacity="0.8" d="M122.472 67.7541L127.433 70.5516L126.228 71.2569L121.267 68.4594L122.472 67.7541Z" fill="white"/>
<path opacity="0.8" d="M148.07 79.0233L151.493 80.9491L150.296 81.6623L146.865 79.7286L148.07 79.0233Z" fill="white"/>
<path opacity="0.8" d="M141.619 75.3857L146.144 77.9376L144.947 78.6429L140.422 76.0911L141.619 75.3857Z" fill="white"/>
<path opacity="0.8" d="M132.402 70.1871L139.693 74.3001L138.496 75.0054L131.197 70.8924L132.402 70.1871Z" fill="white"/>
<path opacity="0.8" d="M143.735 73.4125L154.235 79.3324L153.039 80.0377L142.538 74.1257L143.735 73.4125Z" fill="white"/>
<path opacity="0.8" d="M131.982 66.7872L141.817 72.3347L140.62 73.04L130.785 67.4926L131.982 66.7872Z" fill="white"/>
<path opacity="0.8" d="M126.981 63.9659L130.064 65.7014L128.859 66.4147L125.784 64.6791L126.981 63.9659Z" fill="white"/>
<path opacity="0.8" d="M122.187 61.2635L125.262 62.9991L124.065 63.7044L120.99 61.9688L122.187 61.2635Z" fill="white"/>
<path opacity="0.8" d="M150.685 74.1653L156.977 77.7157L155.773 78.421L149.488 74.8786L150.685 74.1653Z" fill="white"/>
<path opacity="0.8" d="M96.9616 69.1964L88.2442 64.275L87.0475 64.9882L95.7649 69.9017L96.9616 69.1964Z" fill="white"/>
<path opacity="0.8" d="M97.8333 66.5256L90.9861 62.6583L89.7815 63.3636L96.6366 67.231L97.8333 66.5256Z" fill="white"/>
<path opacity="0.8" d="M98.6814 63.8312L93.7204 61.0416L92.5238 61.7469L97.4848 64.5444L98.6814 63.8312Z" fill="white"/>
<path opacity="0.8" d="M103.674 63.4825L96.4623 59.4171L95.2656 60.1303L102.477 64.1958L103.674 63.4825Z" fill="white"/>
<path opacity="0.8" d="M104.166 60.5979L99.2045 57.8004L98.0078 58.5057L102.961 61.3032L104.166 60.5979Z" fill="white"/>
<path opacity="0.8" d="M108.231 59.726L101.946 56.1836L100.742 56.8889L107.034 60.4314L108.231 59.726Z" fill="white"/>
<path opacity="0.8" d="M108.112 56.4927L104.68 54.559L103.484 55.2723L106.907 57.198L108.112 56.4927Z" fill="white"/>
<path opacity="0.8" d="M114.064 56.6829L107.423 52.9423L106.226 53.6476L112.867 57.3961L114.064 56.6829Z" fill="white"/>
<path opacity="0.8" d="M116.449 54.8681L110.164 51.3177L108.968 52.031L115.252 55.5734L116.449 54.8681Z" fill="white"/>
<path opacity="0.8" d="M146.088 71.5739L148.767 73.0796L147.562 73.7928L144.891 72.2871L146.088 71.5739Z" fill="white"/>
<path opacity="0.8" d="M138.148 67.0963L144.17 70.4961L142.966 71.2014L136.951 67.8095L138.148 67.0963Z" fill="white"/>
<path opacity="0.8" d="M145.541 54.7729L155.701 60.5027L154.505 61.208L144.345 55.4862L145.541 54.7729Z" fill="white"/>
<path opacity="0.8" d="M138.583 50.8502L142.586 53.1088L141.389 53.8141L137.387 51.5634L138.583 50.8502Z" fill="white"/>
</g>
<g opacity="0.8">
<path opacity="0.8" d="M96.0424 99.2002L108.619 106.293L107.423 107.006L94.8457 99.9134L96.0424 99.2002Z" fill="white"/>
<path opacity="0.8" d="M89.5917 95.5626L94.1247 98.1224L92.9201 98.8277L88.395 96.2759L89.5917 95.5626Z" fill="white"/>
<path opacity="0.8" d="M84.5911 92.7493L87.6739 94.4848L86.4693 95.1902L83.3945 93.4546L84.5911 92.7493Z" fill="white"/>
<path opacity="0.8" d="M104.506 100.809L111.361 104.676L110.165 105.382L103.31 101.522L104.506 100.809Z" fill="white"/>
<path opacity="0.8" d="M94.1879 94.992L102.588 99.7232L101.384 100.436L92.9913 95.6973L94.1879 94.992Z" fill="white"/>
<path opacity="0.8" d="M89.1874 92.1708L92.2623 93.9063L91.0656 94.6196L87.9907 92.884L89.1874 92.1708Z" fill="white"/>
<path opacity="0.8" d="M84.4327 89.4921L87.5076 91.2277L86.3109 91.933L83.236 90.1974L84.4327 89.4921Z" fill="white"/>
<path opacity="0.8" d="M109.142 100.262L114.103 103.052L112.899 103.765L107.946 100.967L109.142 100.262Z" fill="white"/>
<path opacity="0.8" d="M105.528 98.2175L107.216 99.1764L106.02 99.8817L104.324 98.9307L105.528 98.2175Z" fill="white"/>
<path opacity="0.8" d="M100.528 95.4041L103.603 97.1397L102.406 97.845L99.3315 96.1094L100.528 95.4041Z" fill="white"/>
<path opacity="0.8" d="M98.5387 91.1167L116.837 101.435L115.641 102.14L97.3421 91.822L98.5387 91.1167Z" fill="white"/>
<path opacity="0.8" d="M92.0881 87.4792L96.6211 90.031L95.4165 90.7443L90.8914 88.1924L92.0881 87.4792Z" fill="white"/>
<path opacity="0.8" d="M70.5322 84.8165L61.8068 79.903L60.6102 80.6083L69.3355 85.5297L70.5322 84.8165Z" fill="white"/>
<path opacity="0.8" d="M71.4037 82.1457L64.5487 78.2863L63.352 78.9916L70.2071 82.8589L71.4037 82.1457Z" fill="white"/>
<path opacity="0.8" d="M72.2519 79.4592L67.2909 76.6617L66.0942 77.3749L71.0473 80.1645L72.2519 79.4592Z" fill="white"/>
<path opacity="0.8" d="M77.2445 79.1105L70.0328 75.045L68.8282 75.7503L76.0399 79.8158L77.2445 79.1105Z" fill="white"/>
</g>
<g opacity="0.1">
<path opacity="0.1" d="M210.194 114.194C210.194 105.358 203.988 94.6117 196.333 90.1896C192.497 87.9785 189.026 87.7725 186.522 89.2307L183.899 90.7602L184.659 90.8315C183.28 92.5195 182.472 95.0159 182.472 98.1938C182.472 107.03 188.677 117.776 196.333 122.198C198.964 123.72 201.421 124.291 203.513 124.029L203.457 124.734L206.12 123.181C206.128 123.173 206.144 123.165 206.152 123.165L206.263 123.102H206.255C208.688 121.612 210.194 118.537 210.194 114.194Z" fill="#9FFFF8"/>
<path opacity="0.1" d="M203.481 124.718C208.893 121.593 208.894 111.461 203.482 102.087C198.07 92.7137 189.295 87.6483 183.883 90.7734C178.47 93.8984 178.469 104.03 183.881 113.404C189.293 122.777 198.068 127.843 203.481 124.718Z" fill="#42E8E0"/>
</g>
<path opacity="0.4" d="M194.581 128.61C185.024 128.61 175.458 126.509 168.183 122.309C161.106 118.22 157.207 112.783 157.207 106.99C157.207 101.197 161.106 95.7528 168.183 91.6714C182.741 83.271 206.421 83.271 220.979 91.6714C228.056 95.7607 231.955 101.197 231.955 106.99C231.955 112.783 228.056 118.22 220.979 122.309C213.704 126.509 204.139 128.61 194.581 128.61ZM194.581 85.6405C185.071 85.6405 175.561 87.7327 168.318 91.9092C161.328 95.943 157.485 101.3 157.485 106.99C157.485 112.68 161.336 118.038 168.318 122.071C182.797 130.432 206.358 130.432 220.837 122.071L220.908 122.19L220.837 122.071C227.826 118.038 231.67 112.68 231.67 106.99C231.67 101.3 227.818 95.943 220.829 91.9092C213.601 87.7248 204.091 85.6405 194.581 85.6405Z" fill="#42E8E0"/>
<path opacity="0.2" d="M194.581 134.411C182.448 134.411 170.315 131.748 161.083 126.414C152.112 121.231 147.166 114.337 147.166 106.998C147.166 99.6598 152.112 92.7572 161.083 87.5822C179.556 76.9152 209.607 76.9152 228.08 87.5822C237.051 92.7651 241.996 99.6598 241.996 107.006C241.996 114.345 237.051 121.247 228.08 126.422C218.847 131.74 206.714 134.411 194.581 134.411ZM194.581 79.8475C182.496 79.8475 170.418 82.5023 161.217 87.812C152.333 92.9395 147.436 99.7549 147.436 106.99C147.436 114.234 152.326 121.041 161.217 126.169C179.611 136.788 209.544 136.788 227.937 126.169C236.821 121.041 241.719 114.226 241.719 106.99C241.719 99.747 236.829 92.9394 227.937 87.8041C218.744 82.5023 206.659 79.8475 194.581 79.8475Z" fill="#42E8E0"/>
<path d="M194.581 124.045C187.045 124.045 179.516 122.389 173.778 119.076C168.199 115.85 165.124 111.555 165.124 106.982C165.124 102.41 168.199 98.1144 173.778 94.889C185.246 88.2637 203.909 88.2637 215.384 94.889C220.963 98.1144 224.038 102.41 224.038 106.982C224.038 111.555 220.963 115.85 215.384 119.076C209.646 122.389 202.118 124.045 194.581 124.045ZM194.581 90.2053C187.1 90.2053 179.611 91.8537 173.913 95.1426C168.421 98.3125 165.394 102.521 165.394 106.998C165.394 111.468 168.421 115.676 173.913 118.854C185.309 125.432 203.853 125.432 215.241 118.854C220.733 115.684 223.761 111.476 223.761 106.998C223.761 102.529 220.733 98.3205 215.241 95.1426C209.551 91.8458 202.062 90.2053 194.581 90.2053Z" fill="#42E8E0"/>
<path d="M210.194 114.194C210.194 105.358 203.988 94.6118 196.333 90.1897C192.497 87.9786 189.026 87.7725 186.522 89.2307L183.899 90.7602L184.66 90.8316C183.281 92.5196 182.472 95.0159 182.472 98.1938C182.472 107.03 188.677 117.776 196.333 122.198C198.964 123.72 201.421 124.291 203.513 124.029L203.458 124.734L206.12 123.181C206.128 123.173 206.144 123.165 206.152 123.165L206.263 123.102H206.255C208.688 121.612 210.194 118.537 210.194 114.194Z" fill="#9FFFF8"/>
<path d="M203.481 124.718C208.894 121.593 208.894 111.461 203.482 102.087C198.07 92.7137 189.295 87.6483 183.883 90.7734C178.47 93.8984 178.47 104.03 183.881 113.404C189.293 122.777 198.068 127.843 203.481 124.718Z" fill="#42E8E0"/>
<path d="M199.257 124.061C197.514 124.061 195.58 123.474 193.583 122.325C186.649 118.323 181.006 108.544 181.006 100.54C181.006 96.6168 182.337 93.6846 184.763 92.2898C187.188 90.895 190.389 91.2041 193.781 93.1615C200.715 97.1636 206.358 106.943 206.358 114.947C206.358 118.87 205.027 121.802 202.602 123.197C201.611 123.776 200.478 124.061 199.257 124.061ZM188.115 91.8222C186.958 91.8222 185.896 92.0917 184.961 92.6306C182.67 93.954 181.402 96.7595 181.402 100.54C181.402 108.425 186.958 118.038 193.781 121.985C197.046 123.871 200.113 124.18 202.411 122.856C204.702 121.533 205.97 118.727 205.97 114.947C205.97 107.062 200.414 97.441 193.591 93.5023C191.649 92.3849 189.787 91.8222 188.115 91.8222Z" fill="#18B2A3"/>
<path d="M46.6379 129.759C46.6379 120.922 40.4327 110.176 32.7772 105.754C28.9415 103.543 25.4704 103.337 22.9661 104.795L20.343 106.325L21.1038 106.396C19.7248 108.084 18.9165 110.58 18.9165 113.758C18.9165 122.595 25.1217 133.341 32.7772 137.763C35.4083 139.285 37.865 139.855 39.9572 139.594L39.9017 140.299L42.5645 138.746C42.5724 138.738 42.5883 138.73 42.5962 138.73L42.7072 138.666H42.6992C45.1322 137.176 46.6379 134.102 46.6379 129.759Z" fill="#9FFFF8"/>
<path d="M39.9266 140.278C45.3391 137.153 45.3397 127.021 39.9277 117.647C34.5158 108.274 25.7408 103.209 20.3282 106.334C14.9156 109.459 14.9151 119.591 20.327 128.964C25.739 138.338 34.514 143.403 39.9266 140.278Z" fill="#42E8E0"/>
<path d="M35.4877 139.007C33.8077 139.007 31.9532 138.445 30.0275 137.335C23.3547 133.484 17.9261 124.077 17.9261 116.374C17.9261 112.601 19.2099 109.78 21.5399 108.433C23.8698 107.086 26.9526 107.387 30.2256 109.273C36.8984 113.124 42.327 122.531 42.327 130.234C42.327 134.007 41.0431 136.828 38.7132 138.175C37.7543 138.73 36.6686 139.007 35.4877 139.007ZM24.7653 108.005C23.6558 108.005 22.6335 108.266 21.738 108.782C19.5348 110.057 18.3223 112.752 18.3223 116.382C18.3223 123.958 23.6637 133.206 30.2256 137.002C33.3639 138.817 36.3119 139.118 38.5151 137.842C40.7182 136.574 41.9307 133.872 41.9307 130.242C41.9307 122.666 36.5893 113.418 30.0275 109.622C28.1651 108.544 26.3741 108.005 24.7653 108.005Z" fill="#18B2A3"/>
<g opacity="0.2">
<path opacity="0.2" d="M46.6382 175.509C46.6382 166.673 40.433 155.927 32.7775 151.505C28.9419 149.294 25.4707 149.088 22.9665 150.546L20.3433 152.075L21.1041 152.147C19.7252 153.835 18.9168 156.331 18.9168 159.509C18.9168 168.345 25.122 179.091 32.7775 183.514C35.4086 185.035 37.8653 185.606 39.9575 185.344L39.902 186.05L42.5648 184.496C42.5727 184.488 42.5886 184.48 42.5965 184.48L42.7075 184.417H42.6995C45.1325 182.927 46.6382 179.86 46.6382 175.509Z" fill="#9FFFF8"/>
<path opacity="0.2" d="M39.9247 186.028C45.3373 182.903 45.3378 172.771 39.9259 163.398C34.514 154.024 25.7389 148.959 20.3264 152.084C14.9138 155.209 14.9132 165.341 20.3252 174.714C25.7371 184.088 34.5121 189.153 39.9247 186.028Z" fill="#42E8E0"/>
<path opacity="0.2" d="M35.488 184.766C33.808 184.766 31.9535 184.203 30.0278 183.094C23.355 179.242 17.9264 169.835 17.9264 162.132C17.9264 158.36 19.2102 155.539 21.5402 154.191C23.8701 152.844 26.9529 153.145 30.2259 155.031C36.8987 158.883 42.3273 168.29 42.3273 175.993C42.3273 179.765 41.0434 182.586 38.7135 183.934C37.7546 184.488 36.6689 184.766 35.488 184.766ZM24.7656 153.755C23.6561 153.755 22.6338 154.017 21.7383 154.532C19.5352 155.808 18.3226 158.502 18.3226 162.132C18.3226 169.708 23.664 178.957 30.2259 182.753C33.3642 184.568 36.3122 184.869 38.5154 183.593C40.7185 182.325 41.931 179.622 41.931 175.993C41.931 168.417 36.5896 159.168 30.0278 155.372C28.1654 154.302 26.3744 153.755 24.7656 153.755Z" fill="#18B2A3"/>
</g>
<defs>
<radialGradient id="paint0_radial_2_21792" cx="0" cy="0" r="1" gradientUnits="userSpaceOnUse" gradientTransform="translate(203.459 92.2018) scale(222.701)">
<stop stop-color="#42E8E0"/>
<stop offset="0.0167" stop-color="#43E0DE"/>
<stop offset="0.1117" stop-color="#47BAD1"/>
<stop offset="0.2141" stop-color="#4B9AC7"/>
<stop offset="0.3237" stop-color="#4E7FBE"/>
<stop offset="0.4431" stop-color="#506BB7"/>
<stop offset="0.5775" stop-color="#525CB3"/>
<stop offset="0.7389" stop-color="#5354B0"/>
<stop offset="1" stop-color="#5351AF"/>
</radialGradient>
<linearGradient id="paint1_linear_2_21792" x1="102.321" y1="151.297" x2="14.1942" y2="153.663" gradientUnits="userSpaceOnUse">
<stop stop-color="#5761D7"/>
<stop offset="0.0398" stop-color="#5C66D9"/>
<stop offset="0.0867" stop-color="#6A73DF"/>
<stop offset="0.1372" stop-color="#8289E8"/>
<stop offset="0.1899" stop-color="#A3A7F5"/>
<stop offset="0.2237" stop-color="#BCBEFF"/>
</linearGradient>
<linearGradient id="paint2_linear_2_21792" x1="75.809" y1="105.881" x2="42.3502" y2="158.756" gradientUnits="userSpaceOnUse">
<stop stop-color="#C0BFF6"/>
<stop offset="0.2938" stop-color="#C5C4F7"/>
<stop offset="0.6399" stop-color="#D3D2F9"/>
<stop offset="1" stop-color="#E9E9FD"/>
</linearGradient>
<linearGradient id="paint3_linear_2_21792" x1="102.221" y1="144.032" x2="14.0944" y2="146.398" gradientUnits="userSpaceOnUse">
<stop stop-color="#5761D7"/>
<stop offset="0.0398" stop-color="#5C66D9"/>
<stop offset="0.0867" stop-color="#6A73DF"/>
<stop offset="0.1372" stop-color="#8289E8"/>
<stop offset="0.1899" stop-color="#A3A7F5"/>
<stop offset="0.2237" stop-color="#BCBEFF"/>
</linearGradient>
<radialGradient id="paint4_radial_2_21792" cx="0" cy="0" r="1" gradientUnits="userSpaceOnUse" gradientTransform="translate(101.111 175.302) rotate(-120.583) scale(71.1127)">
<stop stop-color="#42E8E0"/>
<stop offset="0.0167" stop-color="#43E0DE"/>
<stop offset="0.1117" stop-color="#47BAD1"/>
<stop offset="0.2141" stop-color="#4B9AC7"/>
<stop offset="0.3237" stop-color="#4E7FBE"/>
<stop offset="0.4431" stop-color="#506BB7"/>
<stop offset="0.5775" stop-color="#525CB3"/>
<stop offset="0.7389" stop-color="#5354B0"/>
<stop offset="1" stop-color="#5351AF"/>
</radialGradient>
<linearGradient id="paint5_linear_2_21792" x1="75.7094" y1="98.6164" x2="42.2508" y2="151.492" gradientUnits="userSpaceOnUse">
<stop stop-color="#C0BFF6"/>
<stop offset="0.2938" stop-color="#C5C4F7"/>
<stop offset="0.6399" stop-color="#D3D2F9"/>
<stop offset="1" stop-color="#E9E9FD"/>
</linearGradient>
<linearGradient id="paint6_linear_2_21792" x1="155.624" y1="3.2035" x2="64.8652" y2="160.544" gradientUnits="userSpaceOnUse">
<stop stop-color="#C0BFF6"/>
<stop offset="0.1172" stop-color="#D0CFF9"/>
<stop offset="0.2627" stop-color="#E9E9FD"/>
<stop offset="0.5143" stop-color="#C0BFF6"/>
<stop offset="0.6217" stop-color="#D0CFF9"/>
<stop offset="0.755" stop-color="#E9E9FD"/>
<stop offset="1" stop-color="#C0BFF6"/>
</linearGradient>
<radialGradient id="paint7_radial_2_21792" cx="0" cy="0" r="1" gradientUnits="userSpaceOnUse" gradientTransform="translate(201.21 76.5877) rotate(-120.583) scale(185.364)">
<stop stop-color="#42E8E0"/>
<stop offset="0.0167" stop-color="#43E0DE"/>
<stop offset="0.1117" stop-color="#47BAD1"/>
<stop offset="0.2141" stop-color="#4B9AC7"/>
<stop offset="0.3237" stop-color="#4E7FBE"/>
<stop offset="0.4431" stop-color="#506BB7"/>
<stop offset="0.5775" stop-color="#525CB3"/>
<stop offset="0.7389" stop-color="#5354B0"/>
<stop offset="1" stop-color="#5351AF"/>
</radialGradient>
</defs>
</svg>
