<svg width="250" height="217" viewBox="0 0 250 217" fill="none" xmlns="http://www.w3.org/2000/svg">
<g clip-path="url(#clip0_2_21919)">
<path d="M79.9138 195.186C77.8446 195.186 75.8695 194.773 74.4039 193.923L2.24192 152.509C0.799776 151.683 0.000328064 150.522 0.000328064 149.26C0.000328064 147.74 1.14464 146.205 3.14326 145.06L140.758 66.073C144.497 63.9224 150.187 63.6965 153.432 65.5588L225.586 106.973C227.036 107.807 227.827 108.96 227.827 110.23C227.827 111.749 226.683 113.284 224.684 114.43L87.0696 193.409C85.0318 194.586 82.4062 195.186 79.9138 195.186ZM74.5528 193.658C77.7114 195.474 83.2605 195.24 86.9129 193.144L224.528 114.157C226.424 113.066 227.514 111.633 227.514 110.23C227.514 109.077 226.769 108.017 225.429 107.246L153.275 65.8315C150.116 64.0159 144.567 64.2497 140.915 66.3457L3.30001 145.325C1.40328 146.416 0.313837 147.849 0.313837 149.252C0.313837 150.405 1.05842 151.465 2.39867 152.236L74.5528 193.658Z" fill="#42E8E0"/>
<path d="M227.678 91.0929L217.317 92.8695L153.361 56.1616C150.155 54.3227 144.551 54.5487 140.844 56.6759L18.4815 126.905L0.156868 130.045V136.504H0.164706C0.156868 137.681 0.862263 138.811 2.32008 139.645L74.4742 181.059C77.6798 182.898 83.2838 182.672 86.991 180.544L224.614 101.55C226.604 100.404 227.639 98.9472 227.67 97.5524H227.678V91.0929Z" fill="url(#paint0_linear_2_21919)"/>
<path d="M74.4743 174.552L2.32015 133.138C-0.885483 131.299 -0.485758 128.081 3.22149 125.954L140.836 46.9671C144.544 44.8399 150.148 44.6061 153.353 46.4528L225.507 87.867C228.713 89.7059 228.313 92.924 224.606 95.0512L86.999 174.038C83.2917 176.165 77.6877 176.399 74.4743 174.552Z" fill="#24126A"/>
<path d="M224.614 95.0512L86.9991 174.038C83.2918 176.165 77.6878 176.399 74.4822 174.552L2.32024 133.138C1.03486 132.398 0.337298 131.44 0.196219 130.419C0.000275835 131.743 0.689996 133.037 2.32024 133.98L74.4744 175.394C77.68 177.233 83.284 177.007 86.9912 174.88L224.606 95.8928C226.824 94.6227 227.851 92.9552 227.631 91.428C227.443 92.6981 226.432 94.0071 224.614 95.0512Z" fill="white"/>
<path opacity="0.51" d="M74.6228 172.947L5.03161 132.998C1.92787 131.214 2.31976 128.105 5.9016 126.048L140.961 48.5489C144.543 46.4918 149.967 46.2658 153.071 48.0502L222.654 87.9995C225.758 89.7838 225.366 92.8928 221.784 94.9499L86.7242 172.449C83.1502 174.506 77.7265 174.732 74.6228 172.947Z" fill="#453C9E"/>
<path opacity="0.8" d="M79.8822 172.589C77.8679 172.589 75.9476 172.184 74.5133 171.365L4.92213 131.408C3.49566 130.59 2.71189 129.453 2.71189 128.198C2.71189 126.702 3.83269 125.198 5.79212 124.068L140.852 46.5696C144.496 44.4814 150.03 44.2554 153.188 46.0709L222.772 86.0202C224.198 86.8384 224.982 87.976 224.982 89.2305C224.982 90.7265 223.861 92.2304 221.902 93.3602L86.8421 170.859C84.8591 172.004 82.304 172.589 79.8822 172.589ZM74.7328 170.976C77.7738 172.721 83.1035 172.495 86.6226 170.477L221.682 92.9784C223.493 91.9343 224.535 90.5707 224.535 89.2383C224.535 88.1474 223.83 87.15 222.552 86.4098L152.969 46.4605C149.928 44.7151 144.598 44.9411 141.079 46.9592L6.01941 124.458C4.2089 125.502 3.16648 126.866 3.16648 128.198C3.16648 129.289 3.87188 130.286 5.14942 131.026L74.7328 170.976Z" fill="url(#paint1_linear_2_21919)"/>
<g opacity="0.1">
<path opacity="0.5" d="M74.6234 171.163L5.03221 131.214C1.92847 129.429 2.32036 126.32 5.9022 124.263L140.962 46.7645C144.544 44.7074 149.967 44.4815 153.071 46.2658L222.655 86.2151C225.758 87.9995 225.366 91.1085 221.785 93.1655L86.7327 170.664C83.1508 172.721 77.7271 172.947 74.6234 171.163Z" fill="url(#paint2_radial_2_21919)"/>
<g opacity="0.1">
<path opacity="0.1" d="M151.48 156.163C151.48 147.475 145.343 136.91 137.772 132.562C133.979 130.388 130.546 130.185 128.069 131.619L125.475 133.123L126.227 133.193C124.863 134.853 124.064 137.307 124.064 140.432C124.064 149.12 130.201 159.685 137.772 164.033C140.374 165.529 142.804 166.09 144.873 165.833L144.818 166.527L147.452 165C147.46 164.992 147.475 164.984 147.483 164.984L147.593 164.922H147.585C149.991 163.457 151.48 160.441 151.48 156.163Z" fill="#9FFFF8"/>
<path opacity="0.1" d="M144.839 166.51C150.192 163.438 150.193 153.476 144.84 144.26C139.488 135.043 130.81 130.063 125.457 133.136C120.104 136.208 120.103 146.17 125.455 155.386C130.808 164.603 139.486 169.583 144.839 166.51Z" fill="#42E8E0"/>
</g>
</g>
<path opacity="0.4" d="M207.802 92.8461C206.736 93.4538 205.02 93.4538 203.954 92.8461C202.888 92.2383 202.888 91.2487 203.954 90.6409C205.02 90.0332 206.736 90.0332 207.802 90.6409C208.868 91.2487 208.868 92.2305 207.802 92.8461Z" fill="#24126A"/>
<path opacity="0.4" d="M193.122 82.21L200.654 86.5346C201.571 87.0644 201.461 87.9839 200.395 88.5916C199.329 89.1994 197.723 89.2695 196.806 88.7397L189.274 84.4151C188.357 83.8853 188.466 82.9658 189.532 82.3581C190.598 81.7503 192.205 81.6802 193.122 82.21Z" fill="#24126A"/>
<path opacity="0.4" d="M150.171 56.2862L157.703 60.6108C158.62 61.1406 158.51 62.0601 157.444 62.6679C156.378 63.2756 154.78 63.3458 153.855 62.8159L146.323 58.4914C145.406 57.9615 145.515 57.0421 146.581 56.4343C147.647 55.8265 149.254 55.7564 150.171 56.2862Z" fill="#24126A"/>
<path d="M207.802 90.1578C206.736 90.7656 205.02 90.7656 203.954 90.1578C202.888 89.5501 202.888 88.5605 203.954 87.9527C205.02 87.3449 206.736 87.3449 207.802 87.9527C208.868 88.5605 208.868 89.5501 207.802 90.1578Z" fill="#42E8E0"/>
<path d="M193.122 79.5219L200.654 83.8464C201.571 84.3763 201.461 85.2957 200.395 85.9035C199.329 86.5113 197.723 86.5814 196.806 86.0516L189.274 81.727C188.357 81.1972 188.466 80.2777 189.532 79.67C190.598 79.0622 192.205 78.9999 193.122 79.5219Z" fill="#42E8E0"/>
<path d="M150.171 53.6059L157.703 57.9304C158.62 58.4603 158.51 59.3797 157.444 59.9875C156.378 60.5953 154.78 60.6654 153.855 60.1355L146.323 55.811C145.406 55.2812 145.515 54.3617 146.581 53.7539C147.647 53.1462 149.254 53.076 150.171 53.6059Z" fill="#42E8E0"/>
<g opacity="0.3">
<path opacity="0.3" d="M250 184.511V181.02L249.028 180.482C248.754 182.134 246.802 183.217 245.172 183.443L234.066 189.903L229.214 191.64L213.743 183.7L214.103 183.498C212.779 182.882 212.066 181.479 211.352 180.194L210.31 180.809L209.691 180.981V184.565C209.691 185.251 210.145 185.936 211.054 186.451L226.557 195.349C228.376 196.393 231.323 196.393 233.141 195.349L248.644 186.451C249.538 185.936 249.992 185.266 250.008 184.596C250 184.565 250 184.534 250 184.511Z" fill="url(#paint3_linear_2_21919)"/>
<path opacity="0.3" d="M245.172 183.435L234.066 189.895L229.849 191.406V196.128C231.041 196.128 232.232 195.871 233.141 195.349L248.644 186.451C249.538 185.936 249.992 185.266 250.008 184.596C250.008 184.565 250.008 184.534 250.008 184.503V181.012L249.122 180.521H249.028C248.715 182.15 246.787 183.217 245.172 183.435Z" fill="#0F054C"/>
<g opacity="0.3">
<path opacity="0.3" d="M226.55 191.804L211.047 182.905C209.229 181.861 209.229 180.17 211.047 179.126L226.55 170.228C228.368 169.184 231.315 169.184 233.134 170.228L248.637 179.126C250.455 180.17 250.455 181.861 248.637 182.905L233.134 191.804C231.323 192.848 228.368 192.848 226.55 191.804Z" fill="url(#paint4_linear_2_21919)"/>
</g>
<g opacity="0.3">
<path opacity="0.3" d="M226.55 191.804L211.047 182.905C209.229 181.861 209.229 180.17 211.047 179.126L226.55 170.228C228.368 169.184 231.315 169.184 233.134 170.228L248.637 179.126C250.455 180.17 250.455 181.861 248.637 182.905L233.134 191.804C231.323 192.848 228.368 192.848 226.55 191.804Z" fill="#0F054C"/>
</g>
</g>
<path d="M229.842 180.552C228.784 180.552 227.726 180.319 226.919 179.859L211.415 170.96C210.608 170.501 210.169 169.877 210.169 169.207C210.169 168.537 210.616 167.914 211.415 167.454L226.919 158.556C228.533 157.636 231.151 157.628 232.765 158.556L248.269 167.454C249.076 167.914 249.515 168.537 249.515 169.207C249.515 169.877 249.068 170.501 248.269 170.96L232.765 179.859C231.958 180.326 230.9 180.552 229.842 180.552ZM229.842 158.127C228.831 158.127 227.82 158.345 227.052 158.789L211.549 167.688C210.828 168.101 210.436 168.638 210.436 169.207C210.436 169.776 210.828 170.314 211.549 170.727L227.052 179.625C228.588 180.506 231.088 180.506 232.624 179.625L248.127 170.727C248.849 170.314 249.24 169.776 249.24 169.207C249.24 168.638 248.849 168.101 248.127 167.688L232.624 158.789C231.864 158.345 230.853 158.127 229.842 158.127Z" fill="#42E8E0"/>
<path opacity="0.4" d="M250.001 165.794V160.519L249.029 159.982C248.754 161.633 246.803 162.717 245.173 162.942L234.067 169.402L229.215 171.14L213.743 163.2L214.104 162.997C212.779 162.381 212.066 160.979 211.353 159.693L210.31 160.309L209.691 160.48V165.849C209.691 166.535 210.146 167.22 211.055 167.735L226.558 176.633C228.376 177.677 231.323 177.677 233.142 176.633L248.645 167.735C249.538 167.22 249.993 166.55 250.008 165.88C250.001 165.849 250.001 165.825 250.001 165.794Z" fill="#42E8E0"/>
<path d="M250.001 161.104V157.613L249.029 157.075C248.755 158.727 246.803 159.81 245.173 160.036L234.067 166.496L229.215 168.233L213.744 160.293L214.104 160.091C212.78 159.475 212.066 158.072 211.353 156.787L210.311 157.402L209.692 157.574V161.158C209.692 161.844 210.146 162.529 211.055 163.044L226.558 171.942C228.377 172.986 231.324 172.986 233.142 171.942L248.645 163.044C249.539 162.529 249.993 161.859 250.009 161.189C250.001 161.158 250.001 161.135 250.001 161.104Z" fill="url(#paint5_linear_2_21919)"/>
<path opacity="0.3" d="M245.173 160.036L234.067 166.496L229.85 168.007V172.729C231.041 172.729 232.233 172.472 233.142 171.95L248.645 163.052C249.538 162.537 249.993 161.867 250.009 161.197C250.009 161.166 250.009 161.135 250.009 161.104V157.613L249.123 157.122H249.029C248.716 158.743 246.787 159.81 245.173 160.036Z" fill="#0F054C"/>
<path d="M226.551 168.397L211.048 159.498C209.229 158.454 209.229 156.763 211.048 155.719L226.551 146.821C228.369 145.777 231.316 145.777 233.134 146.821L248.637 155.719C250.456 156.763 250.456 158.454 248.637 159.498L233.134 168.397C231.324 169.441 228.369 169.441 226.551 168.397Z" fill="url(#paint6_linear_2_21919)"/>
<path d="M248.637 159.498L233.134 168.397C231.316 169.441 228.369 169.441 226.551 168.397L211.048 159.498C210.233 159.031 209.786 158.439 209.7 157.823C209.59 158.579 210.044 159.35 211.048 159.927L226.551 168.825C228.369 169.869 231.316 169.869 233.134 168.825L248.637 159.927C249.641 159.35 250.087 158.571 249.986 157.823C249.899 158.439 249.453 159.031 248.637 159.498Z" fill="white"/>
<g opacity="0.3">
<path opacity="0.3" d="M180.973 205.276V201.785L180.001 201.248C179.727 202.9 177.775 203.983 176.145 204.209L165.039 210.668L160.187 212.406L144.716 204.466L145.076 204.263C143.752 203.648 143.038 202.245 142.325 200.959L141.283 201.575L140.663 201.746V205.331C140.663 206.016 141.118 206.702 142.027 207.216L157.53 216.115C159.349 217.159 162.296 217.159 164.114 216.115L179.617 207.216C180.511 206.702 180.965 206.032 180.981 205.362C180.973 205.331 180.973 205.307 180.973 205.276Z" fill="url(#paint7_linear_2_21919)"/>
<path opacity="0.3" d="M176.145 204.209L165.039 210.668L160.822 212.18V216.902C162.014 216.902 163.205 216.645 164.114 216.123L179.617 207.224C180.511 206.71 180.965 206.04 180.981 205.37C180.981 205.339 180.981 205.307 180.981 205.276V201.785L180.095 201.295H180.001C179.688 202.915 177.76 203.983 176.145 204.209Z" fill="#0F054C"/>
<g opacity="0.3">
<path opacity="0.3" d="M157.523 212.57L142.02 203.671C140.201 202.627 140.201 200.936 142.02 199.892L157.523 190.994C159.341 189.95 162.288 189.95 164.106 190.994L179.609 199.892C181.428 200.936 181.428 202.627 179.609 203.671L164.106 212.57C162.296 213.614 159.341 213.614 157.523 212.57Z" fill="url(#paint8_linear_2_21919)"/>
</g>
<g opacity="0.3">
<path opacity="0.3" d="M157.523 212.57L142.02 203.671C140.201 202.627 140.201 200.936 142.02 199.892L157.523 190.994C159.341 189.95 162.288 189.95 164.106 190.994L179.609 199.892C181.428 200.936 181.428 202.627 179.609 203.671L164.106 212.57C162.296 213.614 159.341 213.614 157.523 212.57Z" fill="#0F054C"/>
</g>
</g>
<path d="M160.814 199.627C159.756 199.627 158.698 199.393 157.891 198.933L142.388 190.035C141.581 189.575 141.142 188.952 141.142 188.282C141.142 187.612 141.588 186.988 142.388 186.529L157.891 177.63C159.505 176.703 162.123 176.703 163.738 177.63L179.241 186.529C180.048 186.988 180.487 187.612 180.487 188.282C180.487 188.952 180.04 189.575 179.241 190.035L163.738 198.933C162.931 199.393 161.872 199.627 160.814 199.627ZM158.032 198.7C159.568 199.58 162.068 199.58 163.605 198.7L179.108 189.801C179.829 189.388 180.221 188.851 180.221 188.282C180.221 187.713 179.829 187.175 179.108 186.762L163.605 177.864C162.068 176.984 159.568 176.984 158.032 177.864L142.529 186.762C141.808 187.175 141.416 187.713 141.416 188.282C141.416 188.851 141.808 189.388 142.529 189.801L158.032 198.7Z" fill="#42E8E0"/>
<path opacity="0.4" d="M180.973 184.861V179.586L180.001 179.048C179.727 180.7 177.775 181.783 176.145 182.009L165.039 188.469L160.187 190.206L144.716 182.267L145.076 182.064C143.752 181.448 143.038 180.046 142.325 178.76L141.283 179.376L140.664 179.547V184.916C140.664 185.601 141.118 186.287 142.027 186.801L157.53 195.7C159.349 196.744 162.296 196.744 164.114 195.7L179.617 186.801C180.511 186.287 180.965 185.617 180.981 184.947C180.973 184.924 180.973 184.892 180.973 184.861Z" fill="#42E8E0"/>
<path d="M180.973 180.171V176.68L180.001 176.142C179.726 177.794 177.775 178.877 176.145 179.103L165.039 185.563L160.187 187.3L144.715 179.36L145.076 179.158C143.751 178.542 143.038 177.14 142.325 175.854L141.282 176.47L140.663 176.641V180.225C140.663 180.911 141.118 181.597 142.027 182.111L157.53 191.009C159.348 192.053 162.295 192.053 164.114 191.009L179.617 182.111C180.51 181.597 180.965 180.927 180.98 180.256C180.973 180.233 180.973 180.202 180.973 180.171Z" fill="url(#paint9_linear_2_21919)"/>
<path opacity="0.3" d="M176.145 179.103L165.039 185.563L160.822 187.074V191.796C162.013 191.796 163.205 191.539 164.114 191.017L179.617 182.119C180.51 181.604 180.965 180.934 180.981 180.264C180.981 180.233 180.981 180.202 180.981 180.171V176.68L180.095 176.189H180.001C179.687 177.81 177.759 178.877 176.145 179.103Z" fill="#0F054C"/>
<path d="M157.523 187.464L142.02 178.566C140.201 177.521 140.201 175.831 142.02 174.787L157.523 165.888C159.341 164.844 162.288 164.844 164.107 165.888L179.61 174.787C181.428 175.831 181.428 177.521 179.61 178.566L164.107 187.464C162.296 188.508 159.341 188.508 157.523 187.464Z" fill="url(#paint10_linear_2_21919)"/>
<path d="M160.814 185.851C159.858 185.851 158.902 185.641 158.173 185.228L146.063 178.277C145.334 177.856 144.935 177.295 144.935 176.688C144.935 176.08 145.334 175.511 146.063 175.098L158.173 168.148C159.631 167.314 161.998 167.314 163.455 168.148L175.565 175.098C176.294 175.519 176.693 176.08 176.693 176.695C176.693 177.303 176.294 177.872 175.565 178.285L163.455 185.235C162.726 185.641 161.77 185.851 160.814 185.851ZM158.314 184.994C159.693 185.789 161.943 185.789 163.322 184.994L175.431 178.043C176.074 177.677 176.427 177.194 176.427 176.688C176.427 176.181 176.074 175.698 175.431 175.324L163.322 168.374C161.943 167.579 159.693 167.579 158.314 168.374L146.204 175.324C145.562 175.69 145.209 176.173 145.209 176.68C145.209 177.186 145.562 177.669 146.204 178.036L158.314 184.994Z" fill="#5351AF"/>
<path d="M179.609 178.566L164.106 187.464C162.288 188.508 159.341 188.508 157.522 187.464L142.019 178.566C141.204 178.098 140.757 177.506 140.671 176.89C140.561 177.646 141.016 178.418 142.019 178.994L157.522 187.893C159.341 188.937 162.288 188.937 164.106 187.893L179.609 178.994C180.612 178.418 181.059 177.638 180.957 176.89C180.871 177.506 180.424 178.106 179.609 178.566Z" fill="white"/>
<g opacity="0.3">
<path opacity="0.3" d="M48.3823 81.3919V77.9011L47.4104 77.3635C47.1361 79.0154 45.1845 80.0985 43.5542 80.3244L32.4482 86.784L27.5966 88.5216L12.1249 80.5816L12.4855 80.379C11.1609 79.7634 10.4477 78.3609 9.73444 77.0752L8.69202 77.6908L8.07284 77.8622V81.4465C8.07284 82.1322 8.52743 82.8179 9.4366 83.3321L24.9396 92.2305C26.758 93.2746 29.705 93.2746 31.5233 92.2305L47.0263 83.3399C47.9198 82.8256 48.3744 82.1555 48.3901 81.4854C48.3823 81.4543 48.3823 81.4231 48.3823 81.3919Z" fill="url(#paint11_linear_2_21919)"/>
<path opacity="0.3" d="M43.5545 80.3245L32.4484 86.784L28.2318 88.2956V93.0175C29.4231 93.0175 30.6144 92.7604 31.5236 92.2384L47.0266 83.34C47.9201 82.8257 48.3747 82.1556 48.3904 81.4855C48.3904 81.4543 48.3904 81.4231 48.3904 81.392V77.9012L47.5047 77.4103H47.4107C47.105 79.031 45.1691 80.0985 43.5545 80.3245Z" fill="#0F054C"/>
<g opacity="0.3">
<path opacity="0.3" d="M24.9396 88.693L9.43659 79.7946C7.61823 78.7504 7.61823 77.0596 9.43659 76.0155L24.9396 67.1171C26.758 66.073 29.705 66.073 31.5233 67.1171L47.0263 76.0155C48.8447 77.0596 48.8447 78.7504 47.0263 79.7946L31.5233 88.693C29.705 89.7293 26.7501 89.7293 24.9396 88.693Z" fill="url(#paint12_linear_2_21919)"/>
</g>
<g opacity="0.3">
<path opacity="0.3" d="M24.9396 88.693L9.43659 79.7946C7.61823 78.7504 7.61823 77.0596 9.43659 76.0155L24.9396 67.1171C26.758 66.073 29.705 66.073 31.5233 67.1171L47.0263 76.0155C48.8447 77.0596 48.8447 78.7504 47.0263 79.7946L31.5233 88.693C29.705 89.7293 26.7501 89.7293 24.9396 88.693Z" fill="#0F054C"/>
</g>
</g>
<path d="M28.2316 78.0258C27.1736 78.0258 26.1155 77.7921 25.3082 77.3324L9.80514 68.4339C8.99786 67.9742 8.55894 67.3509 8.55894 66.6808C8.55894 66.0107 9.0057 65.3873 9.80514 64.9276L25.3082 56.0292C26.9227 55.1019 29.5405 55.1019 31.1551 56.0292L46.6503 64.9276C47.4576 65.3873 47.8965 66.0107 47.8965 66.6808C47.8965 67.3509 47.4498 67.9742 46.6503 68.4339L31.1473 77.3324C30.3478 77.7999 29.2897 78.0258 28.2316 78.0258ZM28.2316 55.6006C27.2206 55.6006 26.2173 55.8188 25.4414 56.2629L9.93839 65.1613C9.22515 65.5743 8.82543 66.1119 8.82543 66.6808C8.82543 67.2496 9.21731 67.7872 9.93839 68.2002L25.4414 77.0986C26.9776 77.9791 29.4778 77.9791 31.014 77.0986L46.5171 68.2002C47.2381 67.7872 47.63 67.2496 47.63 66.6808C47.63 66.1119 47.2381 65.5743 46.5171 65.1613L31.014 56.2629C30.2459 55.8188 29.2349 55.6006 28.2316 55.6006Z" fill="#42E8E0"/>
<path opacity="0.4" d="M48.3825 63.2678V57.9927L47.4106 57.4551C47.1363 59.1069 45.1847 60.19 43.5544 60.416L32.4484 66.8677L27.5968 68.6053L12.1251 60.6731L12.4857 60.4705C11.1611 59.855 10.4479 58.4524 9.73463 57.1667L8.69221 57.7823L8.07303 57.9537V63.3224C8.07303 64.0081 8.52762 64.6938 9.43679 65.208L24.9398 74.1064C26.7582 75.1506 29.7052 75.1506 31.5235 74.1064L47.0265 65.208C47.92 64.6938 48.3746 64.0237 48.3903 63.3536C48.3825 63.3224 48.3825 63.2912 48.3825 63.2678Z" fill="#42E8E0"/>
<path d="M48.3825 58.5772V55.0864L47.4106 54.5487C47.1363 56.2006 45.1847 57.2837 43.5544 57.5097L32.4484 63.9614L27.5968 65.699L12.1251 57.7668L12.4857 57.5642C11.1611 56.9487 10.4479 55.5461 9.73463 54.2604L8.69222 54.876L8.07304 55.0474V58.6317C8.07304 59.3174 8.52762 60.0031 9.4368 60.5174L24.9398 69.4158C26.7582 70.4599 29.7052 70.4599 31.5235 69.4158L47.0265 60.5174C47.92 60.0031 48.3746 59.333 48.3903 58.6629C48.3825 58.6317 48.3825 58.6005 48.3825 58.5772Z" fill="url(#paint13_linear_2_21919)"/>
<path opacity="0.3" d="M43.5547 57.5019L32.4487 63.9614L28.232 65.4731V70.195C29.4233 70.195 30.6146 69.9378 31.5238 69.4158L47.0268 60.5174C47.9203 60.0031 48.3749 59.333 48.3906 58.6629C48.3906 58.6317 48.3906 58.6006 48.3906 58.5694V55.0786L47.5049 54.5877H47.4109C47.1052 56.2162 45.1693 57.2837 43.5547 57.5019Z" fill="#0F054C"/>
<path d="M12.4859 57.5564L27.1738 49.1255C27.7538 48.7904 28.7022 48.7904 29.2821 49.1255L43.7192 57.4083L43.5625 57.5018C45.1927 57.2759 47.1443 56.1928 47.4187 54.5409L31.2181 45.5802L26.5076 44.3412L22.6671 46.5853L9.73486 54.2526C10.4481 55.5383 11.1613 56.9408 12.4859 57.5564Z" fill="url(#paint14_linear_2_21919)"/>
<path opacity="0.3" d="M28.2319 44.801L26.5076 44.3491L22.6671 46.5931L9.73486 54.2604C10.4481 55.5383 11.1613 56.9486 12.4859 57.5642L27.1738 49.1333C27.4638 48.9697 27.8478 48.884 28.2319 48.884V44.801Z" fill="#0F054C"/>
<path d="M24.9404 65.8705L9.42957 56.9721C7.61122 55.9279 7.61122 54.2371 9.42957 53.193L24.9326 44.2946C26.7509 43.2504 29.6979 43.2504 31.5163 44.2946L47.0271 53.193C48.8455 54.2371 48.8455 55.9279 47.0271 56.9721L31.5241 65.8705C29.7058 66.9146 26.7509 66.9146 24.9404 65.8705ZM29.2825 45.5802C28.7025 45.2452 27.7542 45.2452 27.1742 45.5802L11.6712 54.4786C11.0912 54.8137 11.0912 55.3513 11.6712 55.6864L27.1742 64.5848C27.7542 64.9198 28.7025 64.9198 29.2825 64.5848L44.7856 55.6864C45.3656 55.3513 45.3656 54.8137 44.7856 54.4786L29.2825 45.5802Z" fill="url(#paint15_linear_2_21919)"/>
<path d="M44.7854 54.4787L29.2823 45.5803C28.7024 45.2452 27.754 45.2452 27.174 45.5803L11.671 54.4787C11.2869 54.7046 11.1537 55.0163 11.2869 55.3046C11.3496 55.1644 11.4829 55.0319 11.671 54.915L27.174 46.0166C27.754 45.6816 28.7024 45.6816 29.2823 46.0166L44.7854 54.915C44.9813 55.0241 45.1067 55.1644 45.1694 55.3046C45.3027 55.0163 45.1773 54.6969 44.7854 54.4787Z" fill="white"/>
<path d="M47.0267 56.9721L31.5237 65.8706C29.7054 66.9147 26.7584 66.9147 24.94 65.8706L9.42915 56.9721C8.61403 56.5046 8.16728 55.9124 8.08106 55.2969C7.97134 56.0527 8.42592 56.8241 9.42915 57.4007L24.9322 66.2991C26.7505 67.3432 29.6975 67.3432 31.5159 66.2991L47.0267 57.4085C48.03 56.8319 48.4767 56.0527 48.3748 55.3047C48.2808 55.9124 47.834 56.5046 47.0267 56.9721Z" fill="white"/>
<path d="M25.3714 65.6211L9.8684 56.7227C8.29302 55.8188 8.29302 54.3461 9.8684 53.4423L25.3714 44.5439C26.9468 43.64 29.5098 43.64 31.0773 44.5439L46.5803 53.4423C48.1557 54.3461 48.1557 55.8188 46.5803 56.7149L31.0851 65.6211C29.5098 66.5249 26.9468 66.5249 25.3714 65.6211ZM29.7214 45.3309C28.8984 44.8555 27.5582 44.8555 26.7352 45.3309L11.2322 54.2293C10.4092 54.7046 10.4092 55.4682 11.2322 55.9435L26.7352 64.8419C27.5582 65.3172 28.8984 65.3172 29.7214 64.8419L45.2244 55.9357C46.0474 55.4604 46.0474 54.6968 45.2244 54.2215L29.7214 45.3309Z" fill="url(#paint16_linear_2_21919)"/>
<path opacity="0.4" d="M29.2822 45.5801C28.7022 45.2451 27.7538 45.2451 27.1739 45.5801L11.6708 54.4786C11.0908 54.8136 11.0908 55.3513 11.6708 55.6863L27.1739 64.5847C27.7538 64.9198 28.7022 64.9198 29.2822 64.5847L44.7852 55.6863C45.3652 55.3513 45.3652 54.8136 44.7852 54.4786L29.2822 45.5801Z" fill="#42E8E0"/>
<path d="M151.48 98.8457C151.48 90.1577 145.343 79.5918 137.772 75.2439C133.978 73.07 130.545 72.8674 128.068 74.3011L125.474 75.8049L126.227 75.8751C124.863 77.5348 124.063 79.9892 124.063 83.1138C124.063 91.8018 130.2 102.368 137.772 106.716C140.374 108.212 142.803 108.773 144.873 108.516L144.818 109.209L147.451 107.682C147.459 107.674 147.475 107.666 147.483 107.666L147.592 107.604H147.584C149.991 106.139 151.48 103.116 151.48 98.8457Z" fill="#9FFFF8"/>
<path d="M144.843 109.192C150.196 106.12 150.196 96.1576 144.844 86.9415C139.491 77.7253 130.813 72.7449 125.46 75.8175C120.107 78.8901 120.106 88.8522 125.459 98.0683C130.811 107.285 139.49 112.265 144.843 109.192Z" fill="#42E8E0"/>
<path d="M119.463 61.2888C124.534 54.2137 125.71 42.0661 122.081 34.165C120.262 30.2067 117.59 28.0562 114.729 27.7912L111.743 27.5263L112.315 28.0172C110.23 28.586 108.153 30.121 106.327 32.6612C101.256 39.7363 100.08 51.8839 103.701 59.785C104.947 62.5043 106.601 64.3666 108.435 65.3484L107.989 65.8783L111.022 66.151C111.037 66.151 111.045 66.151 111.061 66.151L111.186 66.1588L111.179 66.151C113.992 66.3692 116.963 64.7718 119.463 61.2888Z" fill="#9FFFF8"/>
<path d="M121.005 47.7721C122.029 37.1788 117.87 28.115 111.718 27.5275C105.565 26.94 99.7471 35.0513 98.7238 45.6446C97.7004 56.2379 101.859 65.3017 108.012 65.8892C114.164 66.4767 119.982 58.3653 121.005 47.7721Z" fill="#42E8E0"/>
<g opacity="0.1">
<path opacity="0.1" d="M124.072 118.489C124.072 109.801 117.935 99.2354 110.364 94.8875C106.571 92.7135 103.138 92.5109 100.661 93.9447L98.0667 95.4485L98.8191 95.5186C97.4553 97.1783 96.6559 99.6328 96.6559 102.757C96.6559 111.445 102.793 122.011 110.364 126.359C112.966 127.855 115.396 128.416 117.465 128.159L117.41 128.853L120.044 127.325C120.051 127.318 120.067 127.31 120.075 127.31L120.185 127.247H120.177C122.583 125.783 124.072 122.767 124.072 118.489Z" fill="#9FFFF8"/>
<path opacity="0.1" d="M117.433 128.834C122.786 125.761 122.786 115.799 117.434 106.583C112.082 97.3669 103.403 92.3866 98.0502 95.4592C92.6972 98.5318 92.6966 108.494 98.049 117.71C103.401 126.926 112.08 131.907 117.433 128.834Z" fill="#42E8E0"/>
</g>
<path opacity="0.4" d="M108.631 132.671C99.1789 132.671 89.7187 130.606 82.5237 126.476C75.5246 122.456 71.6684 117.11 71.6684 111.414C71.6684 105.718 75.5246 100.373 82.5237 96.3525C96.9216 88.0852 120.341 88.093 134.739 96.3525C141.738 100.373 145.594 105.718 145.594 111.414C145.594 117.11 141.738 122.463 134.739 126.476L134.668 126.359L134.739 126.476C127.536 130.606 118.083 132.671 108.631 132.671ZM108.631 90.415C99.2259 90.415 89.8206 92.4721 82.6569 96.5785C75.744 100.545 71.9427 105.812 71.9427 111.407C71.9427 117.001 75.7519 122.268 82.6648 126.235C96.9843 134.455 120.286 134.455 134.605 126.235C141.518 122.268 145.32 117.001 145.32 111.407C145.32 105.812 141.51 100.545 134.598 96.5785C127.442 92.4721 118.036 90.415 108.631 90.415Z" fill="#42E8E0"/>
<path opacity="0.2" d="M108.631 138.367C96.6315 138.367 84.6319 135.748 75.5009 130.504C66.6286 125.409 61.7379 118.63 61.7379 111.414C61.7379 104.199 66.6286 97.4121 75.5009 92.324C93.7707 81.836 123.491 81.836 141.761 92.324C150.633 97.4199 155.524 104.199 155.524 111.414C155.524 118.63 150.633 125.416 141.761 130.504C132.63 135.748 120.631 138.367 108.631 138.367ZM108.631 84.719C96.6785 84.719 84.7338 87.3293 75.6342 92.5499C66.8481 97.5913 62.0044 104.292 62.0044 111.406C62.0044 118.528 66.8402 125.222 75.6342 130.263C93.8255 140.704 123.429 140.704 141.62 130.263C150.406 125.222 155.25 118.52 155.25 111.406C155.25 104.285 150.414 97.5913 141.62 92.5499C132.528 87.3293 120.576 84.719 108.631 84.719Z" fill="#42E8E0"/>
<path d="M108.631 128.182C101.177 128.182 93.7316 126.554 88.057 123.297C82.5393 120.126 79.4982 115.902 79.4982 111.406C79.4982 106.91 82.5393 102.687 88.057 99.5159C99.4061 93.0019 117.864 93.0019 129.205 99.5159C134.723 102.687 137.764 106.91 137.764 111.406C137.764 115.902 134.723 120.126 129.205 123.297L129.135 123.18L129.205 123.297C123.531 126.554 116.077 128.182 108.631 128.182ZM108.631 94.9031C101.232 94.9031 93.8256 96.5238 88.1903 99.7575C82.7587 102.874 79.7647 107.012 79.7647 111.414C79.7647 115.817 82.7587 119.946 88.1903 123.071C99.4609 129.538 117.801 129.538 129.072 123.071C134.503 119.954 137.497 115.817 137.497 111.422C137.497 107.027 134.503 102.89 129.072 99.7653C123.429 96.5238 116.03 94.9031 108.631 94.9031Z" fill="#42E8E0"/>
<path d="M124.072 118.489C124.072 109.801 117.936 99.2354 110.364 94.8875C106.571 92.7135 103.138 92.5109 100.661 93.9447L98.0669 95.4485L98.8193 95.5186C97.4556 97.1783 96.6561 99.6328 96.6561 102.757C96.6561 111.445 102.793 122.011 110.364 126.359C112.966 127.855 115.396 128.416 117.465 128.159L117.41 128.853L120.044 127.325C120.052 127.318 120.067 127.31 120.075 127.31L120.185 127.247H120.177C122.583 125.783 124.072 122.767 124.072 118.489Z" fill="#9FFFF8"/>
<path d="M117.433 128.834C122.786 125.761 122.787 115.799 117.434 106.583C112.082 97.3669 103.403 92.3865 98.0504 95.4591C92.6974 98.5317 92.6969 108.494 98.0493 117.71C103.402 126.926 112.08 131.906 117.433 128.834Z" fill="#42E8E0"/>
<path opacity="0.4" d="M71.8174 156.078L28.7726 131.37C27.5028 130.637 27.5028 128.822 28.7726 128.089L35.3406 124.287C37.5351 123.024 40.247 123.024 42.4416 124.287L85.4864 148.995C86.7561 149.727 86.7561 151.543 85.4864 152.275L78.9183 156.078C76.7238 157.34 74.0198 157.34 71.8174 156.078Z" fill="#24126A"/>
<path d="M50.2714 130.824L43.3821 126.874L44.7537 126.087L51.643 130.037L50.2714 130.824Z" fill="#42E8E0"/>
<path d="M69.6933 142.255L67.5771 141.039L68.9487 140.252L71.0649 141.468L69.6933 142.255Z" fill="#42E8E0"/>
<path d="M54.2609 133.177L52.1447 131.962L53.5163 131.175L55.6325 132.39L54.2609 133.177Z" fill="#42E8E0"/>
<path d="M75.3679 151.161C74.1138 151.161 72.8598 150.842 71.739 150.195L28.6942 125.487C28.0515 125.113 27.6675 124.45 27.6675 123.71C27.6675 122.97 28.0515 122.307 28.6942 121.933L35.2622 118.131C37.5038 116.845 40.2784 116.845 42.52 118.131L85.5648 142.839C86.2075 143.205 86.5915 143.876 86.5915 144.616C86.5915 145.356 86.2075 146.018 85.5648 146.392L78.9967 150.195C77.876 150.842 76.6219 151.161 75.3679 151.161ZM38.8989 117.484C37.6998 117.484 36.5006 117.788 35.4268 118.404L28.8588 122.206C28.3102 122.518 27.981 123.087 27.981 123.71C27.981 124.341 28.3102 124.902 28.8588 125.214L71.9036 149.922C74.0433 151.153 76.7081 151.153 78.8478 149.922L85.4158 146.12C85.9645 145.808 86.2937 145.247 86.2937 144.616C86.2937 143.985 85.9645 143.424 85.4158 143.112L42.371 118.404C41.2973 117.788 40.0981 117.484 38.8989 117.484Z" fill="#42E8E0"/>
</g>
<defs>
<linearGradient id="paint0_linear_2_21919" x1="0.155536" y1="118.608" x2="227.676" y2="118.608" gradientUnits="userSpaceOnUse">
<stop stop-color="#BCBEFF"/>
<stop offset="0.151" stop-color="#A3A7F5"/>
<stop offset="0.3866" stop-color="#8289E8"/>
<stop offset="0.6124" stop-color="#6A73DF"/>
<stop offset="0.8221" stop-color="#5C66D9"/>
<stop offset="1" stop-color="#5761D7"/>
</linearGradient>
<linearGradient id="paint1_linear_2_21919" x1="145.606" y1="150.608" x2="82.569" y2="66.4643" gradientUnits="userSpaceOnUse">
<stop stop-color="#42E8E0"/>
<stop offset="0.1055" stop-color="#37B6BF"/>
<stop offset="0.2197" stop-color="#2C87A1"/>
<stop offset="0.338" stop-color="#235F87"/>
<stop offset="0.4587" stop-color="#1C3F72"/>
<stop offset="0.5824" stop-color="#162561"/>
<stop offset="0.7105" stop-color="#121355"/>
<stop offset="0.8458" stop-color="#10084E"/>
<stop offset="1" stop-color="#0F054C"/>
</linearGradient>
<radialGradient id="paint2_radial_2_21919" cx="0" cy="0" r="1" gradientUnits="userSpaceOnUse" gradientTransform="translate(108.27 110.853) scale(178.081 177.041)">
<stop stop-color="#42E8E0"/>
<stop offset="0.1055" stop-color="#37B6BF"/>
<stop offset="0.2197" stop-color="#2C87A1"/>
<stop offset="0.338" stop-color="#235F87"/>
<stop offset="0.4587" stop-color="#1C3F72"/>
<stop offset="0.5824" stop-color="#162561"/>
<stop offset="0.7105" stop-color="#121355"/>
<stop offset="0.8458" stop-color="#10084E"/>
<stop offset="1" stop-color="#0F054C"/>
</radialGradient>
<linearGradient id="paint3_linear_2_21919" x1="213.696" y1="174.076" x2="245.588" y2="192.596" gradientUnits="userSpaceOnUse">
<stop stop-color="#BCBEFF"/>
<stop offset="0.2271" stop-color="#AAADF8"/>
<stop offset="0.6802" stop-color="#7C83E5"/>
<stop offset="1" stop-color="#5761D7"/>
</linearGradient>
<linearGradient id="paint4_linear_2_21919" x1="209.686" y1="181.015" x2="250" y2="181.015" gradientUnits="userSpaceOnUse">
<stop stop-color="#E9E9FD"/>
<stop offset="0.3601" stop-color="#D3D2F9"/>
<stop offset="0.7062" stop-color="#C5C4F7"/>
<stop offset="1" stop-color="#C0BFF6"/>
</linearGradient>
<linearGradient id="paint5_linear_2_21919" x1="213.697" y1="150.67" x2="245.589" y2="169.191" gradientUnits="userSpaceOnUse">
<stop stop-color="#BCBEFF"/>
<stop offset="0.2271" stop-color="#AAADF8"/>
<stop offset="0.6802" stop-color="#7C83E5"/>
<stop offset="1" stop-color="#5761D7"/>
</linearGradient>
<linearGradient id="paint6_linear_2_21919" x1="209.687" y1="157.61" x2="250.001" y2="157.61" gradientUnits="userSpaceOnUse">
<stop stop-color="#E9E9FD"/>
<stop offset="0.3601" stop-color="#D3D2F9"/>
<stop offset="0.7062" stop-color="#C5C4F7"/>
<stop offset="1" stop-color="#C0BFF6"/>
</linearGradient>
<linearGradient id="paint7_linear_2_21919" x1="144.67" y1="194.843" x2="176.562" y2="213.364" gradientUnits="userSpaceOnUse">
<stop stop-color="#BCBEFF"/>
<stop offset="0.2271" stop-color="#AAADF8"/>
<stop offset="0.6802" stop-color="#7C83E5"/>
<stop offset="1" stop-color="#5761D7"/>
</linearGradient>
<linearGradient id="paint8_linear_2_21919" x1="140.66" y1="201.783" x2="180.974" y2="201.783" gradientUnits="userSpaceOnUse">
<stop stop-color="#E9E9FD"/>
<stop offset="0.3601" stop-color="#D3D2F9"/>
<stop offset="0.7062" stop-color="#C5C4F7"/>
<stop offset="1" stop-color="#C0BFF6"/>
</linearGradient>
<linearGradient id="paint9_linear_2_21919" x1="144.67" y1="169.739" x2="176.561" y2="188.26" gradientUnits="userSpaceOnUse">
<stop stop-color="#BCBEFF"/>
<stop offset="0.2271" stop-color="#AAADF8"/>
<stop offset="0.6802" stop-color="#7C83E5"/>
<stop offset="1" stop-color="#5761D7"/>
</linearGradient>
<linearGradient id="paint10_linear_2_21919" x1="140.66" y1="176.679" x2="180.974" y2="176.679" gradientUnits="userSpaceOnUse">
<stop stop-color="#E9E9FD"/>
<stop offset="0.3601" stop-color="#D3D2F9"/>
<stop offset="0.7062" stop-color="#C5C4F7"/>
<stop offset="1" stop-color="#C0BFF6"/>
</linearGradient>
<linearGradient id="paint11_linear_2_21919" x1="12.0817" y1="70.9627" x2="43.9733" y2="89.4834" gradientUnits="userSpaceOnUse">
<stop stop-color="#BCBEFF"/>
<stop offset="0.2271" stop-color="#AAADF8"/>
<stop offset="0.6802" stop-color="#7C83E5"/>
<stop offset="1" stop-color="#5761D7"/>
</linearGradient>
<linearGradient id="paint12_linear_2_21919" x1="8.07102" y1="77.9022" x2="48.3848" y2="77.9022" gradientUnits="userSpaceOnUse">
<stop stop-color="#E9E9FD"/>
<stop offset="0.3601" stop-color="#D3D2F9"/>
<stop offset="0.7062" stop-color="#C5C4F7"/>
<stop offset="1" stop-color="#C0BFF6"/>
</linearGradient>
<linearGradient id="paint13_linear_2_21919" x1="12.082" y1="48.1424" x2="43.9735" y2="66.6632" gradientUnits="userSpaceOnUse">
<stop stop-color="#BCBEFF"/>
<stop offset="0.2271" stop-color="#AAADF8"/>
<stop offset="0.6802" stop-color="#7C83E5"/>
<stop offset="1" stop-color="#5761D7"/>
</linearGradient>
<linearGradient id="paint14_linear_2_21919" x1="14.0017" y1="46.906" x2="42.4427" y2="63.4229" gradientUnits="userSpaceOnUse">
<stop offset="0.2421" stop-color="#5761D7"/>
<stop offset="0.3923" stop-color="#7A82E5"/>
<stop offset="0.5463" stop-color="#979CF0"/>
<stop offset="0.7" stop-color="#ACAFF8"/>
<stop offset="0.8519" stop-color="#B8BAFD"/>
<stop offset="1" stop-color="#BCBEFF"/>
</linearGradient>
<linearGradient id="paint15_linear_2_21919" x1="8.07184" y1="55.082" x2="48.3857" y2="55.082" gradientUnits="userSpaceOnUse">
<stop stop-color="#E9E9FD"/>
<stop offset="0.3601" stop-color="#D3D2F9"/>
<stop offset="0.7062" stop-color="#C5C4F7"/>
<stop offset="1" stop-color="#C0BFF6"/>
</linearGradient>
<linearGradient id="paint16_linear_2_21919" x1="8.69063" y1="55.082" x2="47.7666" y2="55.082" gradientUnits="userSpaceOnUse">
<stop stop-color="#E9E9FD"/>
<stop offset="0.3601" stop-color="#D3D2F9"/>
<stop offset="0.7062" stop-color="#C5C4F7"/>
<stop offset="1" stop-color="#C0BFF6"/>
</linearGradient>
<clipPath id="clip0_2_21919">
<rect width="250" height="216.803" fill="white" transform="translate(0 0.0986328)"/>
</clipPath>
</defs>
</svg>
