<svg width="250" height="200" viewBox="0 0 250 200" fill="none" xmlns="http://www.w3.org/2000/svg">
<path d="M77.529 194.765C75.5216 194.765 73.6131 194.362 72.1835 193.534L2.17471 153.127C0.775595 152.313 0 151.188 0 149.948C0 148.466 1.11017 146.968 3.04915 145.85L136.558 68.7694C140.193 66.6707 145.705 66.4502 148.853 68.2675L218.855 108.682C220.261 109.496 221.029 110.621 221.029 111.861C221.029 113.343 219.919 114.841 217.98 115.959L84.4714 193.039C82.4944 194.18 79.9471 194.765 77.529 194.765ZM72.328 193.283C75.3924 195.054 80.7759 194.826 84.3193 192.781L217.828 115.7C219.668 114.636 220.725 113.237 220.725 111.868C220.725 110.743 220.003 109.709 218.695 108.956L148.694 68.5413C145.629 66.7696 140.246 66.9977 136.702 69.0431L3.20123 146.116C1.36109 147.18 0.304155 148.58 0.304155 149.948C0.304155 151.074 1.02652 152.108 2.32678 152.861L72.328 193.283Z" fill="#42E8E0"/>
<path d="M220.885 93.193L210.832 94.9267L148.785 59.1049C145.675 57.3104 140.238 57.5309 136.642 59.6067L17.9299 128.133L0.1521 131.197V137.501H0.159703C0.1521 138.649 0.836448 139.751 2.25077 140.565L72.252 180.98C75.362 182.774 80.7987 182.554 84.3954 180.478L217.904 103.397C219.835 102.28 220.839 100.858 220.87 99.4966H220.877V93.193H220.885Z" fill="url(#paint0_linear_2_22035)"/>
<path d="M72.252 174.638L2.25076 134.216C-0.859227 132.421 -0.471429 129.281 3.1252 127.205L136.634 50.1247C140.231 48.0488 145.667 47.8207 148.777 49.6229L218.779 90.0374C221.889 91.8319 221.501 94.9723 217.904 97.0482L84.4029 174.129C80.8063 176.204 75.3696 176.433 72.252 174.638Z" fill="#24126A"/>
<path d="M217.912 97.0482L84.4029 174.129C80.8063 176.204 75.3696 176.433 72.2596 174.63L2.25075 134.216C1.00372 133.494 0.326971 132.558 0.190101 131.562C4.55976e-06 132.855 0.669145 134.117 2.25075 135.037L72.252 175.452C75.3619 177.246 80.7987 177.026 84.3953 174.95L217.904 97.8694C220.056 96.63 221.052 95.0027 220.839 93.5124C220.657 94.7594 219.676 96.0293 217.912 97.0482Z" fill="white"/>
<path opacity="0.51" d="M72.3965 173.072L4.8817 134.079C1.87056 132.338 2.25076 129.304 5.72573 127.296L136.756 51.6683C140.231 49.6609 145.492 49.4404 148.504 51.1816L216.011 90.1667C219.022 91.908 218.642 94.9419 215.167 96.9493L84.1368 172.577C80.6695 174.592 75.4076 174.805 72.3965 173.072Z" fill="#453C9E"/>
<path opacity="0.5" d="M72.3965 171.33L4.8817 132.345C1.87056 130.604 2.25076 127.57 5.72573 125.563L136.756 49.9346C140.231 47.9272 145.492 47.7067 148.504 49.4479L216.011 88.433C219.022 90.1743 218.642 93.2082 215.167 95.2156L84.1368 170.844C80.6695 172.851 75.4076 173.064 72.3965 171.33Z" fill="url(#paint1_radial_2_22035)"/>
<path opacity="0.8" d="M77.4986 172.714C75.5445 172.714 73.6815 172.319 72.29 171.52L4.77524 132.528C3.39134 131.729 2.63095 130.619 2.63095 129.395C2.63095 127.935 3.7183 126.468 5.61927 125.373L136.649 49.7445C140.185 47.7067 145.553 47.4861 148.618 49.2578L216.125 88.2429C217.509 89.0413 218.269 90.1514 218.269 91.3757C218.269 92.8356 217.182 94.3032 215.281 95.4057L84.2509 171.026C82.3271 172.144 79.8482 172.714 77.4986 172.714ZM72.5029 171.14C75.4532 172.844 80.6238 172.623 84.038 170.654L215.075 95.0255C216.832 94.0066 217.843 92.6835 217.843 91.3757C217.843 90.3111 217.159 89.3378 215.919 88.6155L148.412 49.6304C145.462 47.9272 140.291 48.1477 136.877 50.1171L5.83978 125.745C4.08329 126.756 3.07198 128.087 3.07198 129.395C3.07198 130.46 3.75632 131.44 4.99575 132.155L72.5029 171.14Z" fill="url(#paint2_linear_2_22035)"/>
<path d="M77.4986 172.646C75.5596 172.646 73.7043 172.258 72.3204 171.46L4.81324 132.475C3.45215 131.691 2.70697 130.596 2.70697 129.395C2.70697 127.958 3.78672 126.513 5.65727 125.426L136.687 49.7977C140.2 47.7675 145.538 47.547 148.587 49.3111L216.094 88.2961C217.455 89.0793 218.201 90.1743 218.201 91.3757C218.201 92.8128 217.121 94.2576 215.25 95.3449L84.2128 170.973C82.2967 172.083 79.833 172.646 77.4986 172.646ZM72.4725 171.201C75.438 172.912 80.639 172.691 84.076 170.714L215.106 95.0864C216.885 94.0599 217.904 92.7064 217.904 91.3757C217.904 90.2883 217.212 89.2922 215.942 88.5623L148.435 49.5772C145.47 47.8664 140.269 48.0869 136.832 50.0639L5.80175 125.684C4.02244 126.711 3.00352 128.064 3.00352 129.395C3.00352 130.482 3.69547 131.486 4.96532 132.208L72.4725 171.201Z" fill="#42E8E0"/>
<path d="M8.74443 134.55C8.69121 134.55 8.63798 134.52 8.61517 134.474C8.57715 134.398 8.59996 134.307 8.676 134.269C11.6719 132.627 14.3333 128.969 15.2914 125.16L27.5184 76.5558C29.0239 70.5867 33.746 66.4654 37.2133 66.3666C38.9774 66.3058 40.2929 67.3247 40.8936 69.2104L44.3457 80.16C44.7183 81.331 45.4179 82.1522 46.376 82.5324C47.5546 82.9963 49.0601 82.7681 50.6265 81.8861L53.0978 80.487C55.8884 78.9054 58.4585 75.4456 59.485 71.8794C61.1275 66.1917 65.6062 62.405 68.8226 62.1617C70.4726 62.0324 71.7881 62.8232 72.5029 64.3744L76.3276 72.6702C76.761 73.6055 77.453 74.2518 78.3274 74.5331C79.4756 74.9057 80.9127 74.6472 82.3879 73.8184L85.2165 72.2216C88.2049 70.5335 90.9042 66.724 91.7787 62.9525L104.036 10.4401C105.412 4.54714 110.21 0.220538 113.663 0.0228374C115.419 -0.0836167 116.757 0.866867 117.404 2.67659L136.071 55.1357C136.459 56.2382 137.166 56.9986 138.094 57.3484C139.265 57.7818 140.755 57.5461 142.291 56.6793L151.834 51.2805C151.91 51.2425 152.001 51.2653 152.039 51.3413C152.077 51.4174 152.055 51.5086 151.979 51.5466L142.436 56.9454C140.824 57.8579 139.242 58.1012 137.987 57.6374C136.968 57.2572 136.208 56.4283 135.782 55.2421L117.107 2.76023C116.506 1.06457 115.305 0.220538 113.67 0.304181C110.332 0.494277 105.671 4.72203 104.325 10.4858L92.0676 62.9981C91.1552 66.9065 88.4558 70.7084 85.361 72.4649L82.5324 74.0617C80.9888 74.9361 79.4604 75.2023 78.2286 74.8069C77.2705 74.4951 76.5177 73.7956 76.0463 72.7843L72.2215 64.4884C71.5524 63.0361 70.3814 62.3365 68.8378 62.4506C65.7278 62.6863 61.3708 66.3894 59.774 71.9554C58.7247 75.5977 56.1013 79.1259 53.2423 80.7379L50.771 82.137C49.1286 83.0647 47.5242 83.3004 46.2619 82.8062C45.2126 82.3955 44.4522 81.5059 44.0492 80.2437L40.597 69.2941C40.0344 67.5224 38.8558 66.6023 37.2133 66.6631C33.9208 66.762 29.2521 70.8757 27.7997 76.6318L15.5727 125.236C14.5994 129.121 11.8772 132.855 8.81287 134.535C8.79766 134.543 8.77485 134.55 8.74443 134.55Z" fill="#42E8E0"/>
<path d="M19.0249 140.58C18.9716 140.58 18.9184 140.55 18.8956 140.504C18.8576 140.428 18.8804 140.337 18.9564 140.299C21.9523 138.657 24.6137 134.999 25.5718 131.19L37.7912 82.578C39.2968 76.609 44.0188 72.4877 47.4861 72.3888C49.2578 72.328 50.5733 73.3469 51.1664 75.2327L54.6186 86.1822C54.9912 87.3532 55.6907 88.1745 56.6488 88.5546C57.8274 89.0185 59.333 88.7904 60.8994 87.9083L63.3706 86.5092C66.1612 84.9276 68.7313 81.4678 69.7579 77.9016C71.4003 72.2139 75.879 68.4272 79.0954 68.1839C80.7531 68.0546 82.0609 68.8454 82.7757 70.3966L86.6004 78.6924C87.0339 79.6277 87.7258 80.274 88.6003 80.5554C89.7484 80.928 91.1856 80.6694 92.6607 79.8406L95.4894 78.2438C98.4777 76.5557 101.177 72.7462 102.052 68.9747L114.309 16.4624C115.685 10.5694 120.483 6.24278 123.935 6.04508C124.019 6.03748 124.103 6.03748 124.186 6.03748C125.829 6.03748 127.061 6.97275 127.677 8.69883L146.344 61.1579C146.732 62.2605 147.439 63.0209 148.367 63.3706C149.538 63.8041 151.028 63.5683 152.564 62.7015L162.191 57.2571C162.259 57.2191 162.358 57.2419 162.396 57.318C162.434 57.394 162.411 57.4852 162.335 57.5233L152.708 62.9676C151.096 63.8801 149.515 64.1234 148.26 63.6596C147.241 63.2794 146.481 62.4506 146.055 61.2644L127.388 8.80528C126.787 7.10962 125.593 6.26559 123.951 6.34923C120.613 6.53933 115.951 10.7671 114.605 16.5308L102.348 69.0355C101.436 72.9439 98.7362 76.7458 95.6414 78.5023L92.8128 80.0991C91.2692 80.9736 89.7408 81.2397 88.5166 80.8443C87.5585 80.5326 86.7981 79.833 86.3343 78.8217L82.5096 70.5259C81.8404 69.0735 80.6694 68.374 79.1258 68.488C76.0159 68.7238 71.6588 72.4268 70.062 77.9929C69.0127 81.6351 66.3894 85.1633 63.5303 86.7754L61.059 88.1745C59.4166 89.1021 57.8122 89.3378 56.55 88.8436C55.5006 88.433 54.7402 87.5433 54.3372 86.2811L50.8851 75.3315C50.3224 73.5598 49.1438 72.6321 47.5013 72.7006C44.2089 72.7994 39.5401 76.9131 38.0878 82.6693L25.8607 131.273C24.8874 135.159 22.1653 138.892 19.1009 140.573C19.0781 140.573 19.0477 140.58 19.0249 140.58Z" fill="#42E8E0"/>
<path d="M125.966 6.8055C125.943 6.8055 125.912 6.7979 125.89 6.78269L115.526 0.699598C115.457 0.653974 115.427 0.562728 115.472 0.494293C115.518 0.425858 115.609 0.395443 115.678 0.441066L126.042 6.52416C126.11 6.56978 126.141 6.66103 126.095 6.72946C126.072 6.78269 126.019 6.8055 125.966 6.8055Z" fill="#42E8E0"/>
<path d="M81.4602 69.104C81.4374 69.104 81.407 69.0964 81.3842 69.0812L70.8985 62.9144C70.83 62.8688 70.7996 62.7776 70.8452 62.7091C70.8909 62.6407 70.9821 62.6179 71.0505 62.6559L81.5363 68.8226C81.6047 68.8682 81.6351 68.9595 81.5895 69.0279C81.5667 69.0736 81.5135 69.104 81.4602 69.104Z" fill="#42E8E0"/>
<path d="M49.6533 73.3317C49.6304 73.3317 49.6 73.3241 49.5772 73.3089L38.6505 66.9064C38.582 66.8684 38.5516 66.7696 38.5972 66.7011C38.6428 66.6327 38.7341 66.6023 38.8025 66.6479L49.7293 73.0504C49.7977 73.0884 49.8281 73.1872 49.7825 73.2557C49.7597 73.3013 49.7065 73.3317 49.6533 73.3317Z" fill="#42E8E0"/>
<path d="M8.74443 134.55C8.69121 134.55 8.63798 134.52 8.61517 134.474C8.57715 134.398 8.59996 134.307 8.676 134.269C11.6719 132.627 14.3333 128.969 15.2914 125.16L27.5184 76.5558C29.0239 70.5867 33.746 66.4654 37.2133 66.3666C38.9774 66.3058 40.2929 67.3247 40.8936 69.2104L44.3457 80.16C44.7183 81.331 45.4179 82.1522 46.376 82.5324C47.5546 82.9963 49.0601 82.7681 50.6265 81.8861L53.0978 80.487C55.8884 78.9054 58.4585 75.4456 59.485 71.8794C61.1275 66.1917 65.6062 62.405 68.8226 62.1617C70.4726 62.0324 71.7881 62.8232 72.5029 64.3744L76.3276 72.6702C76.761 73.6055 77.453 74.2518 78.3274 74.5331C79.4756 74.9057 80.9127 74.6472 82.3879 73.8184L85.2165 72.2216C88.2049 70.5335 90.9042 66.724 91.7787 62.9525L104.036 10.4401C105.412 4.54714 110.21 0.220538 113.663 0.0228374C115.419 -0.0836167 116.757 0.866867 117.404 2.67659L136.071 55.1357C136.459 56.2382 137.166 56.9986 138.094 57.3484C139.265 57.7818 140.755 57.5461 142.291 56.6793L151.834 51.2805C151.91 51.2425 152.001 51.2653 152.039 51.3413C152.077 51.4174 152.055 51.5086 151.979 51.5466L142.436 56.9454C140.824 57.8579 139.242 58.1012 137.987 57.6374C136.968 57.2572 136.208 56.4283 135.782 55.2421L117.107 2.76023C116.506 1.06457 115.305 0.220538 113.67 0.304181C110.332 0.494277 105.671 4.72203 104.325 10.4858L92.0676 62.9981C91.1552 66.9065 88.4558 70.7084 85.361 72.4649L82.5324 74.0617C80.9888 74.9361 79.4604 75.2023 78.2286 74.8069C77.2705 74.4951 76.5177 73.7956 76.0463 72.7843L72.2215 64.4884C71.5524 63.0361 70.3814 62.3365 68.8378 62.4506C65.7278 62.6863 61.3708 66.3894 59.774 71.9554C58.7247 75.5977 56.1013 79.1259 53.2423 80.7379L50.771 82.137C49.1286 83.0647 47.5242 83.3004 46.2619 82.8062C45.2126 82.3955 44.4522 81.5059 44.0492 80.2437L40.597 69.2941C40.0344 67.5224 38.8558 66.6023 37.2133 66.6631C33.9208 66.762 29.2521 70.8757 27.7997 76.6318L15.5727 125.236C14.5994 129.121 11.8772 132.855 8.81287 134.535C8.79766 134.543 8.77485 134.55 8.74443 134.55Z" fill="#42E8E0"/>
<path d="M19.0249 140.58C18.9716 140.58 18.9184 140.55 18.8956 140.504C18.8576 140.428 18.8804 140.337 18.9564 140.299C21.9523 138.657 24.6137 134.999 25.5718 131.19L37.7912 82.578C39.2968 76.609 44.0188 72.4877 47.4861 72.3888C49.2578 72.328 50.5733 73.3469 51.1664 75.2327L54.6186 86.1822C54.9912 87.3532 55.6907 88.1745 56.6488 88.5546C57.8274 89.0185 59.333 88.7904 60.8994 87.9083L63.3706 86.5092C66.1612 84.9276 68.7313 81.4678 69.7579 77.9016C71.4003 72.2139 75.879 68.4272 79.0954 68.1839C80.7531 68.0546 82.0609 68.8454 82.7757 70.3966L86.6004 78.6924C87.0339 79.6277 87.7258 80.274 88.6003 80.5554C89.7484 80.928 91.1856 80.6694 92.6607 79.8406L95.4894 78.2438C98.4777 76.5557 101.177 72.7462 102.052 68.9747L114.309 16.4624C115.685 10.5694 120.483 6.24278 123.935 6.04508C124.019 6.03748 124.103 6.03748 124.186 6.03748C125.829 6.03748 127.061 6.97275 127.677 8.69883L146.344 61.1579C146.732 62.2605 147.439 63.0209 148.367 63.3706C149.538 63.8041 151.028 63.5683 152.564 62.7015L162.191 57.2571C162.259 57.2191 162.358 57.2419 162.396 57.318C162.434 57.394 162.411 57.4852 162.335 57.5233L152.708 62.9676C151.096 63.8801 149.515 64.1234 148.26 63.6596C147.241 63.2794 146.481 62.4506 146.055 61.2644L127.388 8.80528C126.787 7.10962 125.593 6.26559 123.951 6.34923C120.613 6.53933 115.951 10.7671 114.605 16.5308L102.348 69.0355C101.436 72.9439 98.7362 76.7458 95.6414 78.5023L92.8128 80.0991C91.2692 80.9736 89.7408 81.2397 88.5166 80.8443C87.5585 80.5326 86.7981 79.833 86.3343 78.8217L82.5096 70.5259C81.8404 69.0735 80.6694 68.374 79.1258 68.488C76.0159 68.7238 71.6588 72.4268 70.062 77.9929C69.0127 81.6351 66.3894 85.1633 63.5303 86.7754L61.059 88.1745C59.4166 89.1021 57.8122 89.3378 56.55 88.8436C55.5006 88.433 54.7402 87.5433 54.3372 86.2811L50.8851 75.3315C50.3224 73.5598 49.1438 72.6321 47.5013 72.7006C44.2089 72.7994 39.5401 76.9131 38.0878 82.6693L25.8607 131.273C24.8874 135.159 22.1653 138.892 19.1009 140.573C19.0781 140.573 19.0477 140.58 19.0249 140.58Z" fill="#42E8E0"/>
<path opacity="0.5" d="M151.902 51.3946L142.36 56.7933C139.44 58.4434 136.854 57.7971 135.919 55.1661L117.252 2.71462C115.123 -3.27723 106.142 2.04548 104.173 10.4554L91.9156 62.9677C91.0183 66.8076 88.3189 70.6172 85.2774 72.3356L82.4487 73.9325C79.7037 75.4837 77.2325 75.0122 76.1755 72.7158L72.3508 64.42C69.9784 59.2798 61.8879 64.0322 59.6219 71.9022C58.5802 75.5293 56.0101 78.989 53.1586 80.6011L50.6874 82.0002C47.6915 83.6958 45.0605 82.9659 44.1861 80.1904L40.7339 69.2409C38.7873 63.0589 29.7843 68.1079 27.6477 76.5786L15.4358 125.19C14.4778 129.007 11.7632 132.741 8.75204 134.398L151.902 51.3946Z" fill="url(#paint3_linear_2_22035)"/>
<path opacity="0.5" d="M162.358 57.1735L152.632 62.6711C149.713 64.3211 147.127 63.6748 146.192 61.0439L127.532 8.59237C125.403 2.60052 116.423 7.92323 114.453 16.3331L102.196 68.8454C101.299 72.6854 98.5993 76.4949 95.5578 78.2134L92.7292 79.8102C89.9842 81.3614 87.5129 80.89 86.456 78.5936L82.6312 70.2978C80.2588 65.1575 72.1683 69.91 69.9024 77.78C68.8606 81.407 66.2905 84.8668 63.4391 86.4788L60.9678 87.8779C57.9719 89.5736 55.3409 88.8436 54.4665 86.0682L51.0219 75.1262C49.0754 68.9443 40.0724 73.9932 37.9357 82.464L25.7087 131.068C24.7506 134.885 22.036 138.619 19.0249 140.276L162.358 57.1735Z" fill="url(#paint4_linear_2_22035)"/>
<path opacity="0.4" d="M50.368 61.4164C50.3528 62.9296 51.5694 64.169 53.0826 64.1766C54.5957 64.1919 55.8352 62.9752 55.8428 61.4621C55.858 59.9489 54.6414 58.7095 53.1282 58.7019C51.6226 58.6867 50.3832 59.9033 50.368 61.4164Z" fill="#42E8E0"/>
<path d="M51.9192 61.424C51.9116 62.078 52.4438 62.6178 53.0978 62.6254C53.7517 62.633 54.2916 62.1008 54.2992 61.4468C54.3068 60.7929 53.7745 60.253 53.1206 60.2454C52.4591 60.2454 51.9268 60.7701 51.9192 61.424Z" fill="#42E8E0"/>
<path opacity="0.4" d="M97.8036 14.2838C97.977 12.782 96.9001 11.4239 95.3983 11.2505C93.8964 11.0771 92.5383 12.154 92.3649 13.6559C92.1915 15.1577 93.2684 16.5158 94.7703 16.6892C96.2721 16.8626 97.6302 15.7857 97.8036 14.2838Z" fill="#42E8E0"/>
<path d="M93.8925 13.9531C93.8849 14.607 94.4172 15.1469 95.0711 15.1545C95.7251 15.1621 96.2649 14.6298 96.2725 13.9759C96.2801 13.322 95.7479 12.7821 95.0939 12.7745C94.4324 12.7745 93.9001 13.2991 93.8925 13.9531Z" fill="#42E8E0"/>
<path opacity="0.4" d="M14.0443 70.6628C14.0291 72.176 15.2457 73.4154 16.7589 73.423C18.2721 73.4306 19.5115 72.2216 19.5191 70.7084C19.5343 69.1952 18.3177 67.9558 16.8045 67.9482C15.2914 67.9406 14.0519 69.1496 14.0443 70.6628Z" fill="#42E8E0"/>
<path d="M15.5955 70.6704C15.5879 71.3244 16.1202 71.8642 16.7741 71.8718C17.428 71.8794 17.9679 71.3472 17.9755 70.6932C17.9831 70.0393 17.4509 69.4994 16.7969 69.4918C16.1354 69.4918 15.5955 70.0165 15.5955 70.6704Z" fill="#42E8E0"/>
<path d="M186.256 118.853L110.578 162.502L110.73 162.766L186.408 119.116L186.256 118.853Z" fill="#42E8E0"/>
<g opacity="0.4">
<g opacity="0.4">
<path opacity="0.4" d="M48.315 129.509L53.0066 126.802C53.2803 126.642 53.2499 126.361 52.9305 126.179L50.9003 125.008C50.5809 124.825 50.0943 124.802 49.8205 124.962L45.129 127.669C44.8552 127.829 44.8856 128.11 45.205 128.292L47.2352 129.463C47.5546 129.654 48.0336 129.669 48.315 129.509Z" fill="#24126A"/>
<path opacity="0.4" d="M53.5236 132.558L58.2152 129.851C58.489 129.692 58.4585 129.41 58.1392 129.228L56.1089 128.057C55.7896 127.874 55.3029 127.851 55.0292 128.011L50.3376 130.718C50.0639 130.878 50.0943 131.159 50.4137 131.342L52.4439 132.513C52.7632 132.695 53.2499 132.718 53.5236 132.558Z" fill="#24126A"/>
<path opacity="0.4" d="M58.7323 135.6L63.4239 132.893C63.6976 132.733 63.6672 132.452 63.3478 132.269L61.3176 131.098C60.9982 130.916 60.5116 130.893 60.2378 131.053L55.5463 133.76C55.2725 133.919 55.3029 134.201 55.6223 134.383L57.6525 135.554C57.9719 135.744 58.4585 135.759 58.7323 135.6Z" fill="#24126A"/>
<path opacity="0.4" d="M63.9486 138.649L68.6401 135.942C68.9139 135.782 68.8835 135.501 68.5641 135.318L66.5339 134.147C66.2145 133.965 65.7279 133.942 65.4541 134.102L60.7625 136.809C60.4888 136.968 60.5192 137.25 60.8386 137.432L62.8688 138.603C63.1882 138.786 63.6672 138.809 63.9486 138.649Z" fill="#24126A"/>
<path opacity="0.4" d="M69.1572 141.69L73.8488 138.983C74.1225 138.824 74.0921 138.542 73.7727 138.36L71.7425 137.189C71.4231 137.006 70.9365 136.984 70.6627 137.143L65.9712 139.85C65.6974 140.01 65.7278 140.291 66.0472 140.474L68.0774 141.645C68.3968 141.827 68.8758 141.85 69.1572 141.69Z" fill="#24126A"/>
<path opacity="0.4" d="M74.3658 144.732L79.0574 142.025C79.3312 141.865 79.3007 141.584 78.9814 141.402L76.9511 140.231C76.6318 140.048 76.1451 140.025 75.8714 140.185L71.1798 142.892C70.9061 143.052 70.9365 143.333 71.2558 143.515L73.2861 144.686C73.6054 144.877 74.0921 144.892 74.3658 144.732Z" fill="#24126A"/>
<path opacity="0.4" d="M79.5745 147.781L84.2661 145.074C84.5398 144.914 84.5094 144.633 84.19 144.451L82.1598 143.28C81.8404 143.097 81.3538 143.074 81.08 143.234L76.3885 145.941C76.1147 146.101 76.1451 146.382 76.4645 146.565L78.4947 147.736C78.8141 147.918 79.3007 147.941 79.5745 147.781Z" fill="#24126A"/>
<path opacity="0.4" d="M84.7908 150.823L89.4823 148.116C89.7561 147.956 89.7257 147.675 89.4063 147.492L87.3761 146.321C87.0567 146.139 86.5701 146.116 86.2963 146.276L81.6047 148.983C81.331 149.142 81.3614 149.424 81.6808 149.606L83.711 150.777C84.0304 150.967 84.5094 150.982 84.7908 150.823Z" fill="#24126A"/>
</g>
<g opacity="0.4">
<path opacity="0.4" d="M40.0648 134.741L44.7564 132.034C45.0301 131.874 44.9997 131.593 44.6803 131.41L42.6501 130.239C42.3307 130.057 41.8441 130.034 41.5703 130.193L36.8788 132.9C36.605 133.06 36.6354 133.341 36.9548 133.524L38.985 134.695C39.2968 134.877 39.7834 134.9 40.0648 134.741Z" fill="#24126A"/>
<path opacity="0.4" d="M45.2734 137.782L49.965 135.075C50.2387 134.915 50.2083 134.634 49.889 134.452L47.8587 133.281C47.5394 133.098 47.0527 133.075 46.779 133.235L42.0874 135.942C41.8137 136.102 41.8441 136.383 42.1634 136.565L44.1937 137.736C44.513 137.927 44.9921 137.942 45.2734 137.782Z" fill="#24126A"/>
<path opacity="0.4" d="M50.4821 140.831L55.1736 138.124C55.4474 137.965 55.417 137.683 55.0976 137.501L53.0674 136.33C52.748 136.147 52.2614 136.124 51.9876 136.284L47.296 138.991C47.0223 139.151 47.0527 139.432 47.3721 139.615L49.4023 140.786C49.7217 140.968 50.2083 140.991 50.4821 140.831Z" fill="#24126A"/>
<path opacity="0.4" d="M55.6907 143.873L60.3823 141.166C60.656 141.006 60.6256 140.725 60.3063 140.542L58.276 139.371C57.9567 139.189 57.47 139.166 57.1963 139.326L52.5047 142.033C52.231 142.192 52.2614 142.474 52.5807 142.656L54.611 143.827C54.9303 144.017 55.417 144.032 55.6907 143.873Z" fill="#24126A"/>
<path opacity="0.4" d="M60.907 146.922L65.5985 144.215C65.8723 144.055 65.8419 143.774 65.5225 143.591L63.4923 142.42C63.1729 142.238 62.6863 142.215 62.4125 142.375L57.7209 145.082C57.4472 145.241 57.4776 145.523 57.797 145.705L59.8272 146.876C60.1466 147.059 60.6256 147.082 60.907 146.922Z" fill="#24126A"/>
<path opacity="0.4" d="M66.1156 149.963L70.8072 147.256C71.0809 147.097 71.0505 146.815 70.7312 146.633L68.7009 145.462C68.3816 145.279 67.8949 145.257 67.6212 145.416L62.9296 148.123C62.6559 148.283 62.6863 148.564 63.0056 148.747L65.0359 149.918C65.3552 150.1 65.8343 150.123 66.1156 149.963Z" fill="#24126A"/>
<path opacity="0.4" d="M71.3243 153.005L76.0159 150.298C76.2896 150.138 76.2592 149.857 75.9398 149.675L73.9096 148.504C73.5902 148.321 73.1036 148.298 72.8298 148.458L68.1382 151.165C67.8645 151.325 67.8949 151.606 68.2143 151.788L70.2445 152.959C70.5639 153.149 71.0505 153.165 71.3243 153.005Z" fill="#24126A"/>
<path opacity="0.4" d="M76.5329 156.054L81.2245 153.347C81.4982 153.188 81.4678 152.906 81.1485 152.724L79.1182 151.553C78.7989 151.37 78.3122 151.347 78.0385 151.507L73.3469 154.214C73.0732 154.374 73.1036 154.655 73.4229 154.838L75.4532 156.009C75.7725 156.191 76.2592 156.214 76.5329 156.054Z" fill="#24126A"/>
</g>
<g opacity="0.4">
<path opacity="0.4" d="M35.6773 140.831L40.3689 138.124C40.6427 137.965 40.6123 137.683 40.2929 137.501L38.2627 136.33C37.9433 136.147 37.4567 136.124 37.1829 136.284L32.4913 138.991C32.2176 139.151 32.248 139.432 32.5674 139.615L34.5976 140.786C34.917 140.968 35.396 140.991 35.6773 140.831Z" fill="#24126A"/>
<path opacity="0.4" d="M40.886 143.873L45.5776 141.166C45.8513 141.006 45.8209 140.725 45.5015 140.542L43.4713 139.371C43.1519 139.189 42.6653 139.166 42.3916 139.326L37.7 142.033C37.4262 142.192 37.4567 142.474 37.776 142.656L39.8062 143.827C40.1256 144.017 40.6123 144.032 40.886 143.873Z" fill="#24126A"/>
<path opacity="0.4" d="M46.0946 146.922L50.7862 144.215C51.06 144.055 51.0296 143.774 50.7102 143.591L48.68 142.42C48.3606 142.238 47.874 142.215 47.6002 142.375L42.9086 145.082C42.6349 145.241 42.6653 145.523 42.9847 145.705L45.0149 146.876C45.3343 147.059 45.8209 147.082 46.0946 146.922Z" fill="#24126A"/>
<path opacity="0.4" d="M51.3109 149.963L56.0025 147.256C56.2762 147.097 56.2458 146.815 55.9264 146.633L53.8962 145.462C53.5768 145.279 53.0902 145.257 52.8165 145.416L48.1249 148.123C47.8511 148.283 47.8815 148.564 48.2009 148.747L50.2311 149.918C50.5429 150.1 51.0296 150.123 51.3109 149.963Z" fill="#24126A"/>
<path opacity="0.4" d="M56.5195 153.005L61.2111 150.298C61.4849 150.138 61.4545 149.857 61.1351 149.675L59.1049 148.504C58.7855 148.321 58.2988 148.298 58.0251 148.458L53.3335 151.165C53.0598 151.325 53.0902 151.606 53.4096 151.788L55.4398 152.959C55.7592 153.149 56.2382 153.165 56.5195 153.005Z" fill="#24126A"/>
<path opacity="0.4" d="M61.7282 156.054L66.4198 153.347C66.6935 153.188 66.6631 152.906 66.3437 152.724L64.3135 151.553C63.9941 151.37 63.5075 151.347 63.2338 151.507L58.5422 154.214C58.2684 154.374 58.2988 154.655 58.6182 154.838L60.6484 156.009C60.9678 156.191 61.4545 156.214 61.7282 156.054Z" fill="#24126A"/>
<path opacity="0.4" d="M66.9368 159.096L71.6284 156.389C71.9022 156.229 71.8718 155.948 71.5524 155.765L69.5222 154.594C69.2028 154.412 68.7162 154.389 68.4424 154.549L63.7508 157.256C63.4771 157.415 63.5075 157.697 63.8269 157.879L65.8571 159.05C66.1765 159.24 66.6631 159.255 66.9368 159.096Z" fill="#24126A"/>
</g>
</g>
<path d="M47.8435 127.372C47.6078 127.372 47.3645 127.312 47.1668 127.205L45.1366 126.034C44.9237 125.912 44.802 125.738 44.802 125.563C44.802 125.403 44.8932 125.266 45.0605 125.175L49.7521 122.468C50.0715 122.285 50.6038 122.301 50.9687 122.514L52.999 123.685C53.2119 123.806 53.3335 123.981 53.3335 124.156C53.3335 124.316 53.2423 124.453 53.075 124.544L48.3834 127.251C48.239 127.334 48.0412 127.372 47.8435 127.372ZM50.2768 122.612C50.1247 122.612 49.9802 122.643 49.8814 122.704L45.1898 125.411C45.1442 125.433 45.0681 125.487 45.0681 125.563C45.0681 125.639 45.1442 125.722 45.2658 125.798L47.2961 126.969C47.5698 127.129 48.0032 127.152 48.239 127.015L52.9305 124.308C52.9762 124.285 53.0522 124.232 53.0522 124.156C53.0522 124.08 52.9762 123.996 52.8545 123.92L50.8243 122.749C50.6722 122.658 50.4669 122.612 50.2768 122.612Z" fill="#42E8E0"/>
<path d="M53.0522 130.422C52.8165 130.422 52.5732 130.361 52.3755 130.254L50.3452 129.083C50.1323 128.962 50.0107 128.787 50.0107 128.612C50.0107 128.452 50.1019 128.315 50.2692 128.224L54.9608 125.517C55.2801 125.335 55.8124 125.35 56.1774 125.563L58.2076 126.734C58.4205 126.855 58.5422 127.03 58.5422 127.205C58.5422 127.365 58.4509 127.502 58.2837 127.593L53.5921 130.3C53.4476 130.376 53.2575 130.422 53.0522 130.422ZM55.493 125.654C55.341 125.654 55.1965 125.684 55.0976 125.745L50.4061 128.452C50.3604 128.475 50.2844 128.528 50.2844 128.604C50.2844 128.68 50.3604 128.764 50.4821 128.84L52.5123 130.011C52.7861 130.171 53.2195 130.193 53.4552 130.057L58.1468 127.35C58.1924 127.327 58.2685 127.274 58.2685 127.198C58.2685 127.121 58.1924 127.038 58.0708 126.962L56.0405 125.791C55.8808 125.7 55.6755 125.654 55.493 125.654Z" fill="#42E8E0"/>
<path d="M58.2608 133.463C58.0251 133.463 57.7818 133.402 57.5841 133.288L55.5539 132.117C55.341 131.996 55.2193 131.821 55.2193 131.646C55.2193 131.486 55.3105 131.349 55.4778 131.258L60.1694 128.551C60.4888 128.369 61.0287 128.384 61.386 128.597L63.4163 129.768C63.6292 129.889 63.7508 130.064 63.7508 130.239C63.7508 130.399 63.6596 130.536 63.4923 130.627L58.8007 133.334C58.6562 133.425 58.4662 133.463 58.2608 133.463ZM60.7017 128.703C60.5496 128.703 60.4051 128.734 60.3063 128.794L55.6147 131.501C55.5691 131.524 55.493 131.577 55.493 131.653C55.493 131.729 55.5691 131.813 55.6907 131.889L57.721 133.06C57.9947 133.22 58.4281 133.243 58.6639 133.106L63.3554 130.399C63.4011 130.376 63.4771 130.323 63.4771 130.247C63.4771 130.171 63.4011 130.087 63.2794 130.011L61.2492 128.84C61.0895 128.741 60.8918 128.703 60.7017 128.703Z" fill="#42E8E0"/>
<path d="M63.4771 136.512C63.2414 136.512 62.998 136.451 62.8003 136.337L60.7701 135.166C60.5572 135.045 60.4355 134.87 60.4355 134.695C60.4355 134.535 60.5268 134.398 60.6941 134.307L65.3857 131.6C65.705 131.418 66.2373 131.433 66.6023 131.646L68.6325 132.817C68.8454 132.938 68.9671 133.113 68.9671 133.288C68.9671 133.448 68.8758 133.585 68.7086 133.676L64.017 136.383C63.8649 136.467 63.6748 136.512 63.4771 136.512ZM65.9103 131.745C65.7583 131.745 65.6138 131.775 65.5073 131.836L60.8157 134.543C60.7701 134.566 60.6941 134.619 60.6941 134.695C60.6941 134.771 60.7701 134.855 60.8918 134.931L62.922 136.102C63.1957 136.261 63.6292 136.284 63.8649 136.147L68.5565 133.44C68.6021 133.417 68.6781 133.364 68.6781 133.288C68.6781 133.212 68.6021 133.129 68.4804 133.052L66.4502 131.881C66.3057 131.79 66.1004 131.745 65.9103 131.745Z" fill="#42E8E0"/>
<path d="M68.6857 139.554C68.45 139.554 68.2067 139.493 68.009 139.379L65.9788 138.208C65.7659 138.086 65.6442 137.911 65.6442 137.736C65.6442 137.577 65.7354 137.44 65.9027 137.349L70.5943 134.642C70.9137 134.459 71.446 134.474 71.8109 134.687L73.8412 135.858C74.0541 135.98 74.1757 136.155 74.1757 136.33C74.1757 136.489 74.0845 136.626 73.9172 136.718L69.2256 139.425C69.0811 139.508 68.8834 139.554 68.6857 139.554ZM71.119 134.786C70.9669 134.786 70.8224 134.817 70.716 134.877L66.0244 137.584C65.9788 137.607 65.9027 137.66 65.9027 137.736C65.9027 137.813 65.9788 137.896 66.1004 137.972L68.1307 139.143C68.4044 139.303 68.8378 139.326 69.0735 139.189L73.7651 136.482C73.8108 136.459 73.8868 136.406 73.8868 136.33C73.8868 136.254 73.8108 136.17 73.6891 136.094L71.6589 134.923C71.5144 134.832 71.3091 134.786 71.119 134.786Z" fill="#42E8E0"/>
<path d="M73.8944 142.595C73.6587 142.595 73.4154 142.534 73.2176 142.42L71.1874 141.249C70.9745 141.128 70.8528 140.953 70.8528 140.778C70.8528 140.618 70.9441 140.481 71.1114 140.39L75.803 137.683C76.1223 137.501 76.6546 137.516 77.0196 137.729L79.0498 138.9C79.2627 139.022 79.3844 139.196 79.3844 139.371C79.3844 139.531 79.2931 139.668 79.1259 139.759L74.4343 142.466C74.2898 142.557 74.0997 142.595 73.8944 142.595ZM76.3352 137.835C76.1832 137.835 76.0387 137.866 75.9322 137.927L71.2406 140.634C71.195 140.656 71.119 140.71 71.119 140.786C71.119 140.862 71.195 140.945 71.3167 141.021L73.3469 142.192C73.6207 142.352 74.0541 142.375 74.2898 142.238L78.9814 139.531C79.027 139.508 79.103 139.455 79.103 139.379C79.103 139.303 79.027 139.219 78.9053 139.143L76.8751 137.972C76.723 137.881 76.5253 137.835 76.3352 137.835Z" fill="#42E8E0"/>
<path d="M79.1107 145.645C78.8749 145.645 78.624 145.584 78.4339 145.47L76.4037 144.299C76.1908 144.177 76.0691 144.002 76.0691 143.827C76.0691 143.668 76.1604 143.531 76.3277 143.439L81.0192 140.732C81.3386 140.55 81.8709 140.565 82.2359 140.778L84.2661 141.949C84.479 142.071 84.6007 142.246 84.6007 142.42C84.6007 142.58 84.5094 142.717 84.3421 142.808L79.6505 145.515C79.4985 145.599 79.3084 145.645 79.1107 145.645ZM81.5439 140.877C81.3918 140.877 81.2473 140.907 81.1409 140.968L76.4493 143.675C76.4037 143.698 76.3277 143.751 76.3277 143.827C76.3277 143.903 76.4037 143.987 76.5254 144.063L78.5556 145.234C78.8293 145.394 79.2627 145.416 79.4985 145.28L84.19 142.573C84.2357 142.55 84.3117 142.497 84.3117 142.42C84.3117 142.344 84.2357 142.261 84.114 142.185L82.0838 141.014C81.9317 140.923 81.734 140.877 81.5439 140.877Z" fill="#42E8E0"/>
<path d="M84.3193 148.686C84.0836 148.686 83.8403 148.625 83.6426 148.511L81.6123 147.34C81.3994 147.218 81.2778 147.044 81.2778 146.869C81.2778 146.709 81.369 146.572 81.5363 146.481L86.2279 143.774C86.5473 143.591 87.0795 143.607 87.4445 143.82L89.4747 144.991C89.6876 145.112 89.8093 145.287 89.8093 145.462C89.8093 145.622 89.7181 145.759 89.5508 145.85L84.8592 148.557C84.7071 148.648 84.517 148.686 84.3193 148.686ZM86.7526 143.918C86.6005 143.918 86.456 143.949 86.3495 144.01L81.658 146.717C81.6123 146.739 81.5363 146.793 81.5363 146.869C81.5363 146.945 81.6123 147.028 81.734 147.104L83.7642 148.275C84.038 148.435 84.4714 148.458 84.7071 148.321L89.3987 145.614C89.4443 145.591 89.5204 145.538 89.5204 145.462C89.5204 145.386 89.4443 145.302 89.3227 145.226L87.2924 144.055C87.148 143.972 86.9426 143.918 86.7526 143.918Z" fill="#42E8E0"/>
<path d="M39.5934 132.604C39.3576 132.604 39.1143 132.543 38.9166 132.437L36.8864 131.266C36.6735 131.144 36.5518 130.969 36.5518 130.794C36.5518 130.634 36.6431 130.498 36.8104 130.406L41.5019 127.699C41.8213 127.517 42.3536 127.532 42.7186 127.745L44.7488 128.916C44.9617 129.038 45.0834 129.213 45.0834 129.387C45.0834 129.547 44.9921 129.684 44.8248 129.775L40.1332 132.482C39.9812 132.566 39.7911 132.604 39.5934 132.604ZM42.0266 127.836C41.8745 127.836 41.7301 127.867 41.6312 127.928L36.9396 130.634C36.894 130.657 36.818 130.711 36.818 130.787C36.818 130.863 36.894 130.946 37.0157 131.022L39.0459 132.193C39.3196 132.353 39.753 132.376 39.9888 132.239L44.6804 129.532C44.726 129.509 44.802 129.456 44.802 129.38C44.802 129.304 44.726 129.22 44.6043 129.144L42.5741 127.973C42.4144 127.882 42.2167 127.836 42.0266 127.836Z" fill="#42E8E0"/>
<path d="M44.802 135.645C44.5663 135.645 44.323 135.585 44.1253 135.478L42.095 134.307C41.8821 134.186 41.7605 134.011 41.7605 133.836C41.7605 133.676 41.8517 133.539 42.019 133.448L46.7106 130.741C47.0299 130.558 47.5622 130.574 47.9272 130.787L49.9574 131.958C50.1703 132.079 50.292 132.254 50.292 132.429C50.292 132.589 50.2008 132.726 50.0335 132.817L45.3419 135.524C45.1974 135.607 44.9997 135.645 44.802 135.645ZM47.2353 130.885C47.0832 130.885 46.9387 130.916 46.8399 130.977L42.1483 133.684C42.1026 133.706 42.0266 133.76 42.0266 133.836C42.0266 133.912 42.1026 133.995 42.2243 134.071L44.2545 135.242C44.5283 135.402 44.9617 135.425 45.1974 135.288L49.889 132.581C49.9346 132.558 50.0107 132.505 50.0107 132.429C50.0107 132.353 49.9346 132.269 49.813 132.193L47.7827 131.022C47.6307 130.931 47.4253 130.885 47.2353 130.885Z" fill="#42E8E0"/>
<path d="M50.0107 138.695C49.7749 138.695 49.5316 138.634 49.3339 138.52L47.3037 137.349C47.0908 137.227 46.9691 137.052 46.9691 136.877C46.9691 136.718 47.0604 136.581 47.2276 136.489L51.9192 133.782C52.2386 133.6 52.7709 133.615 53.1359 133.828L55.1661 134.999C55.379 135.121 55.5007 135.296 55.5007 135.471C55.5007 135.63 55.4094 135.767 55.2421 135.858L50.5505 138.565C50.4061 138.649 50.2084 138.695 50.0107 138.695ZM52.4515 133.927C52.2994 133.927 52.155 133.957 52.0561 134.018L47.3645 136.725C47.3189 136.748 47.2429 136.801 47.2429 136.877C47.2429 136.953 47.3189 137.037 47.4406 137.113L49.4708 138.284C49.7445 138.444 50.178 138.466 50.4137 138.33L55.1053 135.623C55.1509 135.6 55.2269 135.547 55.2269 135.471C55.2269 135.394 55.1509 135.311 55.0292 135.235L52.999 134.064C52.8393 133.973 52.634 133.927 52.4515 133.927Z" fill="#42E8E0"/>
<path d="M55.2193 141.736C54.9836 141.736 54.7403 141.675 54.5426 141.561L52.5123 140.39C52.2994 140.269 52.1778 140.094 52.1778 139.919C52.1778 139.759 52.269 139.622 52.4363 139.531L57.1279 136.824C57.4472 136.642 57.9795 136.657 58.3445 136.87L60.3747 138.041C60.5876 138.162 60.7093 138.337 60.7093 138.512C60.7093 138.672 60.6181 138.809 60.4508 138.9L55.7592 141.607C55.6147 141.698 55.4246 141.736 55.2193 141.736ZM57.6602 136.976C57.5081 136.976 57.3636 137.007 57.2571 137.067L52.5656 139.774C52.5199 139.797 52.4439 139.85 52.4439 139.926C52.4439 140.002 52.5199 140.086 52.6416 140.162L54.6718 141.333C54.9456 141.493 55.379 141.516 55.6147 141.379L60.3063 138.672C60.3519 138.649 60.428 138.596 60.428 138.52C60.428 138.444 60.3519 138.36 60.2303 138.284L58.2 137.113C58.048 137.022 57.8503 136.976 57.6602 136.976Z" fill="#42E8E0"/>
<path d="M60.4356 144.785C60.1998 144.785 59.9565 144.724 59.7588 144.61L57.7286 143.439C57.5157 143.318 57.394 143.143 57.394 142.968C57.394 142.808 57.4853 142.671 57.6525 142.58L62.3441 139.873C62.6635 139.691 63.1958 139.706 63.5607 139.919L65.591 141.09C65.8039 141.211 65.9255 141.386 65.9255 141.561C65.9255 141.721 65.8343 141.858 65.667 141.949L60.9754 144.656C60.8234 144.74 60.6333 144.785 60.4356 144.785ZM62.8688 140.018C62.7167 140.018 62.5722 140.048 62.4658 140.109L57.7742 142.816C57.7286 142.839 57.6525 142.892 57.6525 142.968C57.6525 143.044 57.7286 143.128 57.8502 143.204L59.8805 144.375C60.1542 144.534 60.5876 144.557 60.8234 144.42L65.5149 141.713C65.5606 141.69 65.6366 141.637 65.6366 141.561C65.6366 141.485 65.5606 141.402 65.4389 141.326L63.4087 140.155C63.2566 140.063 63.0589 140.018 62.8688 140.018Z" fill="#42E8E0"/>
<path d="M65.6442 147.827C65.4085 147.827 65.1652 147.766 64.9675 147.652L62.9372 146.481C62.7243 146.359 62.6027 146.184 62.6027 146.01C62.6027 145.85 62.6939 145.713 62.8612 145.622L67.5528 142.915C67.8721 142.732 68.4044 142.747 68.7694 142.96L70.7996 144.131C71.0125 144.253 71.1342 144.428 71.1342 144.603C71.1342 144.762 71.043 144.899 70.8757 144.991L66.1841 147.698C66.0396 147.781 65.8419 147.827 65.6442 147.827ZM68.0774 143.059C67.9254 143.059 67.7809 143.09 67.6744 143.15L62.9829 145.857C62.9372 145.88 62.8612 145.933 62.8612 146.01C62.8612 146.086 62.9372 146.169 63.0589 146.245L65.0891 147.416C65.3629 147.576 65.7963 147.599 66.032 147.462L70.7236 144.755C70.7692 144.732 70.8453 144.679 70.8453 144.603C70.8453 144.527 70.7692 144.443 70.6476 144.367L68.6173 143.196C68.4728 143.105 68.2675 143.059 68.0774 143.059Z" fill="#42E8E0"/>
<path d="M70.8529 150.868C70.6171 150.868 70.3738 150.808 70.1761 150.694L68.1459 149.523C67.933 149.401 67.8113 149.226 67.8113 149.051C67.8113 148.891 67.9026 148.755 68.0698 148.663L72.7614 145.956C73.0808 145.774 73.6131 145.789 73.978 146.002L76.0083 147.173C76.2212 147.295 76.3428 147.469 76.3428 147.644C76.3428 147.804 76.2516 147.941 76.0843 148.032L71.3927 150.739C71.2483 150.83 71.0582 150.868 70.8529 150.868ZM73.2937 146.108C73.1416 146.108 72.9971 146.139 72.8907 146.2L68.1991 148.907C68.1535 148.929 68.0774 148.983 68.0774 149.059C68.0774 149.135 68.1535 149.218 68.2751 149.294L70.3054 150.465C70.5791 150.625 71.0125 150.648 71.2483 150.511L75.9398 147.804C75.9855 147.781 76.0615 147.728 76.0615 147.652C76.0615 147.576 75.9855 147.492 75.8638 147.416L73.8336 146.245C73.6815 146.154 73.4838 146.108 73.2937 146.108Z" fill="#42E8E0"/>
<path d="M76.0691 153.918C75.8334 153.918 75.5901 153.857 75.3924 153.743L73.3622 152.572C73.1493 152.45 73.0276 152.275 73.0276 152.1C73.0276 151.941 73.1188 151.804 73.2861 151.712L77.9777 149.005C78.2971 148.823 78.8293 148.838 79.1943 149.051L81.2246 150.222C81.4375 150.344 81.5591 150.519 81.5591 150.693C81.5591 150.853 81.4679 150.99 81.3006 151.081L76.609 153.788C76.4569 153.872 76.2668 153.918 76.0691 153.918ZM78.5024 149.15C78.3503 149.15 78.2058 149.18 78.0994 149.241L73.4078 151.948C73.3622 151.971 73.2861 152.024 73.2861 152.1C73.2861 152.176 73.3622 152.26 73.4838 152.336L75.514 153.507C75.7878 153.667 76.2212 153.689 76.4569 153.553L81.1485 150.846C81.1941 150.823 81.2702 150.77 81.2702 150.693C81.2702 150.617 81.1941 150.534 81.0725 150.458L79.0422 149.287C78.8902 149.196 78.6925 149.15 78.5024 149.15Z" fill="#42E8E0"/>
<path d="M35.2059 138.695C34.9702 138.695 34.7269 138.634 34.5292 138.52L32.4989 137.349C32.286 137.227 32.1644 137.052 32.1644 136.877C32.1644 136.718 32.2556 136.581 32.4229 136.489L37.1145 133.782C37.4339 133.6 37.9661 133.615 38.3311 133.828L40.3613 134.999C40.5743 135.121 40.6959 135.296 40.6959 135.471C40.6959 135.63 40.6047 135.767 40.4374 135.858L35.7458 138.565C35.5937 138.649 35.4036 138.695 35.2059 138.695ZM37.6392 133.927C37.4871 133.927 37.3426 133.957 37.2438 134.018L32.5522 136.725C32.5065 136.748 32.4305 136.801 32.4305 136.877C32.4305 136.953 32.5065 137.037 32.6282 137.113L34.6584 138.284C34.9322 138.444 35.3656 138.466 35.6013 138.33L40.2929 135.623C40.3385 135.6 40.4146 135.547 40.4146 135.471C40.4146 135.394 40.3385 135.311 40.2169 135.235L38.1866 134.064C38.0346 133.973 37.8293 133.927 37.6392 133.927Z" fill="#42E8E0"/>
<path d="M40.4146 141.736C40.1788 141.736 39.9355 141.675 39.7378 141.561L37.7076 140.39C37.4947 140.269 37.373 140.094 37.373 139.919C37.373 139.759 37.4643 139.622 37.6315 139.531L42.3231 136.824C42.6425 136.634 43.1748 136.657 43.5398 136.87L45.57 138.041C45.7829 138.162 45.9046 138.337 45.9046 138.512C45.9046 138.672 45.8133 138.809 45.646 138.9L40.9544 141.607C40.81 141.698 40.6123 141.736 40.4146 141.736ZM42.8554 136.976C42.7033 136.976 42.5589 137.006 42.4524 137.067L37.7608 139.774C37.7152 139.797 37.6392 139.85 37.6392 139.926C37.6392 140.002 37.7152 140.086 37.8368 140.162L39.8671 141.333C40.1408 141.493 40.5742 141.516 40.81 141.379L45.5016 138.672C45.5472 138.649 45.6232 138.596 45.6232 138.52C45.6232 138.444 45.5472 138.36 45.4255 138.284L43.3953 137.113C43.2432 137.022 43.0379 136.976 42.8554 136.976Z" fill="#42E8E0"/>
<path d="M45.6232 144.785C45.3875 144.785 45.1442 144.724 44.9465 144.61L42.9162 143.439C42.7033 143.318 42.5817 143.143 42.5817 142.968C42.5817 142.808 42.6729 142.671 42.8402 142.58L47.5318 139.873C47.8511 139.691 48.3834 139.706 48.7484 139.919L50.7786 141.09C50.9915 141.211 51.1132 141.386 51.1132 141.561C51.1132 141.721 51.022 141.858 50.8547 141.949L46.1631 144.656C46.0186 144.74 45.8285 144.785 45.6232 144.785ZM48.0641 140.018C47.912 140.018 47.7675 140.048 47.6611 140.109L42.9695 142.816C42.9238 142.839 42.8478 142.892 42.8478 142.968C42.8478 143.044 42.9238 143.128 43.0455 143.204L45.0757 144.375C45.3495 144.534 45.7829 144.557 46.0186 144.42L50.7102 141.713C50.7558 141.69 50.8319 141.637 50.8319 141.561C50.8319 141.485 50.7558 141.402 50.6342 141.326L48.6039 140.155C48.4519 140.063 48.2542 140.018 48.0641 140.018Z" fill="#42E8E0"/>
<path d="M50.8395 147.827C50.6037 147.827 50.3604 147.766 50.1627 147.652L48.1325 146.481C47.9196 146.359 47.7979 146.184 47.7979 146.009C47.7979 145.85 47.8892 145.713 48.0564 145.622L52.748 142.915C53.0674 142.732 53.5997 142.747 53.9647 142.96L55.9949 144.131C56.2078 144.253 56.3295 144.428 56.3295 144.603C56.3295 144.762 56.2382 144.899 56.0709 144.991L51.3793 147.698C51.2273 147.781 51.0372 147.827 50.8395 147.827ZM53.2727 143.059C53.1206 143.059 52.9761 143.09 52.8697 143.15L48.1781 145.857C48.1325 145.88 48.0564 145.933 48.0564 146.009C48.0564 146.086 48.1325 146.169 48.2541 146.245L50.2844 147.416C50.5581 147.576 50.9915 147.599 51.2273 147.462L55.9188 144.755C55.9645 144.732 56.0405 144.679 56.0405 144.603C56.0405 144.527 55.9645 144.443 55.8428 144.367L53.8126 143.196C53.6605 143.105 53.4628 143.059 53.2727 143.059Z" fill="#42E8E0"/>
<path d="M56.0481 150.868C55.8124 150.868 55.5691 150.808 55.3714 150.693L53.3411 149.522C53.1282 149.401 53.0066 149.226 53.0066 149.051C53.0066 148.891 53.0978 148.754 53.2651 148.663L57.9567 145.956C58.276 145.774 58.8083 145.789 59.1733 146.002L61.2035 147.173C61.4164 147.295 61.5381 147.469 61.5381 147.644C61.5381 147.804 61.4469 147.941 61.2796 148.032L56.588 150.739C56.4359 150.83 56.2458 150.868 56.0481 150.868ZM58.4814 146.108C58.3293 146.108 58.1848 146.139 58.0783 146.2L53.3868 148.907C53.3411 148.929 53.2651 148.983 53.2651 149.059C53.2651 149.135 53.3411 149.218 53.4628 149.294L55.493 150.465C55.7668 150.625 56.2002 150.648 56.4359 150.511L61.1275 147.804C61.1731 147.781 61.2492 147.728 61.2492 147.652C61.2492 147.576 61.1731 147.492 61.0515 147.416L59.0212 146.245C58.8768 146.154 58.6714 146.108 58.4814 146.108Z" fill="#42E8E0"/>
<path d="M61.2568 153.918C61.021 153.918 60.7701 153.857 60.58 153.743L58.5498 152.572C58.3369 152.45 58.2152 152.275 58.2152 152.1C58.2152 151.941 58.3065 151.804 58.4737 151.712L63.1653 149.005C63.4847 148.823 64.017 148.838 64.3819 149.051L66.4122 150.222C66.6251 150.344 66.7468 150.519 66.7468 150.693C66.7468 150.853 66.6555 150.99 66.4882 151.081L61.7966 153.788C61.6522 153.872 61.4621 153.918 61.2568 153.918ZM63.6976 149.15C63.5455 149.15 63.4011 149.18 63.2946 149.241L58.603 151.948C58.5574 151.971 58.4814 152.024 58.4814 152.1C58.4814 152.176 58.5574 152.26 58.679 152.336L60.7093 153.507C60.983 153.667 61.4164 153.689 61.6522 153.553L66.3437 150.846C66.3894 150.823 66.4654 150.77 66.4654 150.693C66.4654 150.617 66.3894 150.534 66.2677 150.458L64.2375 149.287C64.0854 149.196 63.8801 149.15 63.6976 149.15Z" fill="#42E8E0"/>
<path d="M66.473 156.959C66.2373 156.959 65.994 156.898 65.7963 156.784L63.7661 155.613C63.5532 155.492 63.4315 155.317 63.4315 155.142C63.4315 154.982 63.5227 154.845 63.69 154.754L68.3816 152.047C68.701 151.865 69.2332 151.88 69.5982 152.093L71.6285 153.264C71.8414 153.385 71.963 153.56 71.963 153.735C71.963 153.895 71.8718 154.032 71.7045 154.123L67.0129 156.83C66.8608 156.921 66.6707 156.959 66.473 156.959ZM68.9063 152.199C68.7542 152.199 68.6097 152.229 68.5033 152.29L63.8117 154.997C63.7661 155.02 63.69 155.073 63.69 155.149C63.69 155.225 63.7661 155.309 63.8877 155.385L65.918 156.556C66.1917 156.716 66.6251 156.739 66.8608 156.602L71.5524 153.895C71.598 153.872 71.6741 153.819 71.6741 153.743C71.6741 153.667 71.598 153.583 71.4764 153.507L69.4461 152.336C69.2941 152.245 69.0964 152.199 68.9063 152.199Z" fill="#42E8E0"/>
<path opacity="0.4" d="M179.961 81.1181L151.697 64.8002C149.971 63.8041 150.192 62.0704 152.176 60.9222C154.168 59.774 157.172 59.6523 158.898 60.6408L187.162 76.9587C188.888 77.9549 188.667 79.6885 186.683 80.8367C184.69 81.9925 181.687 82.1142 179.961 81.1181Z" fill="#42E8E0"/>
<path opacity="0.4" d="M168.775 96.2421L152.115 86.6232C150.389 85.6271 150.61 83.8934 152.594 82.7453C154.587 81.5971 157.59 81.4754 159.316 82.4639L175.976 92.0828C177.702 93.0789 177.482 94.8126 175.497 95.9608C173.505 97.1089 170.494 97.2382 168.775 96.2421Z" fill="#42E8E0"/>
<path opacity="0.4" d="M143.325 119.639L136.254 115.556C134.528 114.56 134.748 112.826 136.733 111.678C138.725 110.53 141.729 110.408 143.455 111.397L150.526 115.48C152.252 116.476 152.032 118.21 150.047 119.358C148.063 120.506 145.051 120.635 143.325 119.639Z" fill="#42E8E0"/>
<path opacity="0.4" d="M179.961 98.8807L151.697 82.5628C149.971 81.5667 150.192 79.833 152.176 78.6848C154.168 77.5366 157.172 77.415 158.898 78.4035L187.162 94.7214C188.888 95.7175 188.667 97.4512 186.683 98.5994C184.69 99.7475 181.687 99.8768 179.961 98.8807Z" fill="#24126A"/>
<path opacity="0.4" d="M138.292 105.359L105.359 86.3495C103.633 85.3534 103.854 83.6197 105.838 82.4715C107.83 81.3233 110.834 81.2017 112.56 82.1902L145.492 101.2C147.219 102.196 146.998 103.93 145.013 105.078C143.021 106.226 140.01 106.355 138.292 105.359Z" fill="#24126A"/>
<path opacity="0.4" d="M143.325 123.814L136.254 119.73C134.528 118.734 134.748 117.001 136.733 115.852C138.725 114.704 141.729 114.583 143.455 115.571L150.526 119.654C152.252 120.651 152.032 122.384 150.047 123.532C148.063 124.681 145.051 124.81 143.325 123.814Z" fill="#24126A"/>
<path opacity="0.4" d="M86.8818 104.348L79.8102 100.265C78.0841 99.2685 78.3046 97.5348 80.2892 96.3866C82.2815 95.2384 85.285 95.1168 87.0111 96.1053L94.0827 100.189C95.8088 101.185 95.5882 102.918 93.6036 104.067C91.6114 105.215 88.6079 105.344 86.8818 104.348Z" fill="#24126A"/>
<path d="M170.045 51.8051C168.928 51.8051 167.855 51.577 167.057 51.1208L146.496 39.2511C145.705 38.7949 145.264 38.1486 145.264 37.449C145.264 36.605 145.888 35.761 146.975 35.1375C148.998 33.9665 152.077 33.8448 153.834 34.8561L174.395 46.7257C175.186 47.182 175.627 47.8283 175.627 48.5279C175.627 49.3719 175.003 50.2159 173.916 50.8394C172.813 51.4782 171.391 51.8051 170.045 51.8051ZM167.194 50.8851C168.874 51.8584 171.832 51.7291 173.779 50.6037C174.783 50.0258 175.353 49.2654 175.353 48.5279C175.353 47.9272 174.965 47.3645 174.258 46.9615L153.697 35.0918C152.017 34.1185 149.059 34.2478 147.112 35.3732C146.108 35.9511 145.538 36.7115 145.538 37.449C145.538 38.0497 145.926 38.6048 146.633 39.0154L167.194 50.8851Z" fill="#42E8E0"/>
<path d="M141.211 98.5689C140.094 98.5689 139.022 98.3408 138.223 97.8846L105.291 78.8749C104.5 78.4187 104.059 77.7724 104.059 77.0728C104.059 76.2288 104.682 75.3848 105.77 74.7612C107.792 73.5902 110.872 73.4686 112.629 74.4799L145.561 93.4896C146.352 93.9458 146.793 94.5921 146.793 95.2917C146.793 96.1357 146.169 96.9797 145.082 97.6033C143.979 98.242 142.557 98.5689 141.211 98.5689ZM109.648 74.0617C108.348 74.0617 106.979 74.381 105.914 74.997C104.911 75.5748 104.34 76.3352 104.34 77.0728C104.34 77.6735 104.728 78.2286 105.435 78.6392L138.368 97.6489C140.048 98.6222 143.006 98.4929 144.953 97.3675C145.956 96.7896 146.527 96.0293 146.527 95.2917C146.527 94.691 146.139 94.1359 145.432 93.7253L112.499 74.7156C111.731 74.2746 110.712 74.0617 109.648 74.0617Z" fill="#42E8E0"/>
<path d="M182.881 81.924C181.763 81.924 180.691 81.6959 179.892 81.2397L151.629 64.9218C150.838 64.4656 150.397 63.8192 150.397 63.1197C150.397 62.2757 151.02 61.4316 152.108 60.8081C154.13 59.6371 157.21 59.5155 158.966 60.5268L187.23 76.8447C188.021 77.3009 188.462 77.9472 188.462 78.6468C188.462 79.4908 187.838 80.3348 186.751 80.9584C185.648 81.5971 184.227 81.924 182.881 81.924ZM180.029 81.004C181.71 81.9773 184.668 81.848 186.614 80.7226C187.618 80.1447 188.188 79.3844 188.188 78.6468C188.188 78.0461 187.8 77.491 187.093 77.0804L158.83 60.7625C157.149 59.7892 154.191 59.9185 152.245 61.0438C151.241 61.6217 150.671 62.3821 150.671 63.1197C150.671 63.7204 151.058 64.2755 151.766 64.6861L180.029 81.004Z" fill="#42E8E0"/>
<path d="M171.695 97.0482C170.578 97.0482 169.505 96.82 168.707 96.3638L152.047 86.7449C151.256 86.2887 150.815 85.6424 150.815 84.9428C150.815 84.0988 151.439 83.2547 152.526 82.6312C154.549 81.4602 157.628 81.3386 159.385 82.3499L176.045 91.9688C176.836 92.425 177.277 93.0713 177.277 93.7709C177.277 94.6149 176.653 95.459 175.566 96.0825C174.456 96.7212 173.041 97.0482 171.695 97.0482ZM156.396 81.9241C155.096 81.9241 153.727 82.2434 152.663 82.8593C151.659 83.4372 151.089 84.1976 151.089 84.9352C151.089 85.5359 151.477 86.091 152.184 86.5016L168.844 96.1205C170.524 97.0938 173.482 96.9645 175.429 95.8391C176.433 95.2613 177.003 94.5009 177.003 93.7633C177.003 93.1626 176.615 92.6075 175.908 92.1969L159.248 82.578C158.487 82.1446 157.469 81.9241 156.396 81.9241Z" fill="#42E8E0"/>
<path opacity="0.4" d="M168.775 108.652L152.115 99.0328C150.389 98.0367 150.61 96.303 152.594 95.1548C154.587 94.0066 157.59 93.8849 159.316 94.8735L175.976 104.492C177.702 105.488 177.482 107.222 175.497 108.37C173.505 109.526 170.494 109.648 168.775 108.652Z" fill="#24126A"/>
<path d="M146.245 120.445C145.127 120.445 144.055 120.217 143.257 119.761L136.185 115.678C135.395 115.221 134.953 114.575 134.953 113.875C134.953 113.031 135.577 112.187 136.664 111.564C138.687 110.393 141.767 110.271 143.523 111.283L150.595 115.366C151.385 115.822 151.826 116.468 151.826 117.168C151.826 118.012 151.203 118.856 150.116 119.48C149.013 120.118 147.591 120.445 146.245 120.445ZM140.542 110.857C139.242 110.857 137.873 111.176 136.809 111.792C135.805 112.37 135.235 113.13 135.235 113.868C135.235 114.469 135.623 115.024 136.33 115.434L143.401 119.518C145.082 120.491 148.04 120.362 149.986 119.236C150.99 118.658 151.56 117.898 151.56 117.16C151.56 116.56 151.173 116.005 150.465 115.594L143.394 111.511C142.633 111.077 141.607 110.857 140.542 110.857Z" fill="#42E8E0"/>
<path d="M89.8017 103.124C88.6839 103.124 87.6118 102.896 86.8134 102.439L79.7418 98.356C78.951 97.8998 78.5099 97.2534 78.5099 96.5539C78.5099 95.7099 79.1335 94.8658 80.2208 94.2423C82.2434 93.0713 85.323 92.9497 87.0795 93.961L94.1511 98.0442C94.9419 98.5005 95.3829 99.1468 95.3829 99.8464C95.3829 100.69 94.7594 101.534 93.6721 102.158C92.5695 102.797 91.1476 103.124 89.8017 103.124ZM84.0912 93.5352C82.7909 93.5352 81.4222 93.8545 80.3577 94.4704C79.354 95.0483 78.7837 95.8087 78.7837 96.5463C78.7837 97.147 79.1715 97.7021 79.8786 98.1127L86.9502 102.196C88.6307 103.169 91.5886 103.04 93.5352 101.915C94.5389 101.337 95.1092 100.576 95.1092 99.8388C95.1092 99.2381 94.7214 98.6754 94.0142 98.2724L86.9426 94.1891C86.1822 93.7557 85.1633 93.5352 84.0912 93.5352Z" fill="#42E8E0"/>
<path opacity="0.4" d="M100.744 144.337L58.2152 119.784C55.3182 118.111 55.6831 115.191 59.0288 113.26C62.3745 111.328 67.4311 111.115 70.3282 112.788L112.857 137.341C115.754 139.014 115.389 141.934 112.043 143.865C108.705 145.797 103.641 146.009 100.744 144.337Z" fill="#24126A"/>
<path opacity="0.4" d="M100.744 141.287L58.2152 116.735C55.3182 115.062 55.6831 112.142 59.0288 110.21C62.3745 108.279 67.4311 108.066 70.3282 109.739L112.857 134.292C115.754 135.965 115.389 138.885 112.043 140.816C108.705 142.755 103.641 142.96 100.744 141.287Z" fill="#42E8E0"/>
<path d="M105.656 142.55C103.793 142.55 102.006 142.169 100.683 141.409L58.1544 116.856C56.8465 116.103 56.1318 115.054 56.1318 113.906C56.1318 112.522 57.1659 111.138 58.968 110.096C62.3441 108.15 67.4767 107.937 70.4042 109.625L112.933 134.178C114.241 134.931 114.955 135.98 114.955 137.128C114.955 138.512 113.921 139.896 112.119 140.938C110.271 142.01 107.899 142.55 105.656 142.55ZM65.4237 108.75C63.2262 108.75 60.907 109.283 59.0973 110.332C57.3788 111.321 56.3979 112.621 56.3979 113.906C56.3979 114.955 57.0671 115.921 58.2837 116.62L100.812 141.173C103.664 142.823 108.675 142.611 111.975 140.702C113.693 139.713 114.674 138.413 114.674 137.128C114.674 136.079 114.005 135.113 112.788 134.414L70.2598 109.861C68.9671 109.115 67.2334 108.75 65.4237 108.75Z" fill="#42E8E0"/>
<path opacity="0.4" d="M108.484 138.983C107.488 139.554 105.884 139.554 104.888 138.983C103.892 138.413 103.892 137.478 104.888 136.908C105.884 136.337 107.488 136.337 108.484 136.908C109.473 137.486 109.473 138.413 108.484 138.983Z" fill="#42E8E0"/>
<path d="M106.682 139.508C106.013 139.508 105.344 139.364 104.835 139.067C104.325 138.771 104.044 138.375 104.044 137.949C104.044 137.524 104.325 137.121 104.835 136.832C105.853 136.246 107.511 136.246 108.522 136.832C109.032 137.128 109.313 137.524 109.313 137.949C109.313 138.375 109.032 138.778 108.522 139.067C108.021 139.364 107.351 139.508 106.682 139.508ZM106.682 136.573C106.051 136.573 105.412 136.71 104.933 136.991C104.485 137.25 104.234 137.592 104.234 137.949C104.234 138.307 104.485 138.641 104.933 138.907C105.899 139.463 107.466 139.463 108.431 138.907C108.88 138.649 109.131 138.307 109.131 137.949C109.131 137.592 108.88 137.25 108.431 136.991C107.952 136.718 107.321 136.573 106.682 136.573Z" fill="#42E8E0"/>
<path opacity="0.4" d="M102.508 135.509C101.512 136.079 99.9073 136.079 98.9112 135.509C97.9151 134.938 97.9151 134.003 98.9112 133.433C99.9073 132.862 101.512 132.862 102.508 133.433C103.504 134.003 103.504 134.931 102.508 135.509Z" fill="#42E8E0"/>
<path d="M100.713 134.885C100.044 134.885 99.375 134.741 98.8655 134.444C98.3561 134.147 98.0747 133.752 98.0747 133.326C98.0747 132.9 98.3561 132.497 98.8655 132.208C99.8845 131.623 101.542 131.623 102.553 132.208C103.063 132.505 103.344 132.9 103.344 133.326C103.344 133.752 103.063 134.155 102.553 134.444C102.044 134.741 101.375 134.885 100.713 134.885ZM100.713 131.957C100.082 131.957 99.4434 132.094 98.9644 132.376C98.5158 132.634 98.2648 132.976 98.2648 133.334C98.2648 133.691 98.5158 134.026 98.9644 134.284C99.9301 134.839 101.496 134.839 102.462 134.284C102.911 134.026 103.162 133.684 103.162 133.334C103.162 132.976 102.911 132.642 102.462 132.376C101.976 132.094 101.344 131.957 100.713 131.957Z" fill="#42E8E0"/>
<path d="M85.1634 122.301C84.4942 122.301 83.8251 122.156 83.3156 121.86C82.8062 121.563 82.5248 121.168 82.5248 120.742C82.5248 120.316 82.8062 119.913 83.3156 119.624C84.3345 119.039 85.9922 119.039 87.0035 119.624C87.513 119.921 87.7943 120.316 87.7943 120.742C87.7943 121.168 87.513 121.563 87.0035 121.86C86.5016 122.156 85.8325 122.301 85.1634 122.301ZM85.1634 119.373C84.5322 119.373 83.8935 119.51 83.4145 119.791C82.9658 120.05 82.7149 120.392 82.7149 120.749C82.7149 121.107 82.9658 121.441 83.4145 121.7C84.3802 122.255 85.9466 122.255 86.9122 121.7C87.3609 121.441 87.6118 121.099 87.6118 120.749C87.6118 120.392 87.3609 120.05 86.9122 119.791C86.4332 119.51 85.8021 119.373 85.1634 119.373Z" fill="#42E8E0"/>
<path opacity="0.4" d="M86.9655 126.817C85.9694 127.388 84.365 127.388 83.3688 126.817C82.3727 126.247 82.3727 125.312 83.3688 124.741C84.365 124.171 85.9694 124.171 86.9655 124.741C87.954 125.319 87.954 126.247 86.9655 126.817Z" fill="#42E8E0"/>
<path d="M79.1943 115.868C78.5252 115.868 77.856 115.723 77.3466 115.427C76.8371 115.13 76.5558 114.735 76.5558 114.309C76.5558 113.883 76.8371 113.488 77.3466 113.191C78.3655 112.606 80.0232 112.606 81.0421 113.191C81.5515 113.488 81.8329 113.883 81.8329 114.309C81.8329 114.735 81.5515 115.138 81.0421 115.427C80.525 115.723 79.8635 115.868 79.1943 115.868ZM79.1943 112.94C78.5632 112.94 77.9245 113.077 77.4454 113.358C76.9968 113.617 76.7459 113.959 76.7459 114.309C76.7459 114.666 76.9968 115.009 77.4454 115.267C78.4111 115.822 79.9775 115.822 80.9432 115.267C81.3918 115.009 81.6428 114.666 81.6428 114.309C81.6428 113.952 81.3918 113.617 80.9432 113.358C80.4566 113.077 79.8255 112.94 79.1943 112.94Z" fill="#42E8E0"/>
<path opacity="0.4" d="M80.9889 123.624C79.9928 124.194 78.3883 124.194 77.3922 123.624C76.3961 123.053 76.3961 122.118 77.3922 121.548C78.3883 120.978 79.9928 120.978 80.9889 121.548C81.985 122.126 81.985 123.053 80.9889 123.624Z" fill="#42E8E0"/>
<path d="M73.2177 108.043C72.5485 108.043 71.8794 107.899 71.3699 107.602C70.8605 107.306 70.5791 106.91 70.5791 106.485C70.5791 106.059 70.8605 105.656 71.3699 105.367C72.3889 104.781 74.0465 104.781 75.0578 105.367C75.5673 105.663 75.8486 106.059 75.8486 106.485C75.8486 106.91 75.5673 107.306 75.0578 107.602C74.556 107.899 73.8868 108.043 73.2177 108.043ZM73.2177 105.116C72.5866 105.116 71.9478 105.253 71.4688 105.534C71.0202 105.793 70.7692 106.135 70.7692 106.485C70.7692 106.842 71.0202 107.177 71.4688 107.443C72.4345 107.998 74.0009 107.998 74.9666 107.443C75.4152 107.184 75.6661 106.842 75.6661 106.492C75.6661 106.135 75.4152 105.793 74.9666 105.534C74.4875 105.253 73.8488 105.116 73.2177 105.116Z" fill="#42E8E0"/>
<path opacity="0.4" d="M74.9133 120.316C73.9172 120.886 72.3128 120.886 71.3167 120.316C70.3206 119.746 70.3206 118.81 71.3167 118.24C72.3128 117.67 73.9172 117.67 74.9133 118.24C75.9018 118.81 75.9018 119.738 74.9133 120.316Z" fill="#42E8E0"/>
<path opacity="0.4" d="M92.0449 127.585L97.2459 130.589C98.1052 131.083 97.9987 131.95 97.0026 132.528C96.0065 133.098 94.5085 133.167 93.6493 132.665L88.4482 129.661C87.589 129.167 87.6955 128.3 88.6916 127.722C89.6801 127.152 91.178 127.091 92.0449 127.585Z" fill="#42E8E0"/>
<path d="M95.1016 130.672C94.5389 130.672 93.9991 130.558 93.5961 130.33L88.395 127.327C87.992 127.091 87.7639 126.764 87.7639 126.399C87.7639 125.966 88.0832 125.54 88.6307 125.22C89.6496 124.635 91.1932 124.574 92.0829 125.084L97.2839 128.087C97.6869 128.323 97.9151 128.65 97.9151 129.015C97.9151 129.448 97.5957 129.874 97.0482 130.193C96.4931 130.505 95.7784 130.672 95.1016 130.672ZM90.5849 124.924C89.9462 124.924 89.2618 125.084 88.7372 125.388C88.2429 125.669 87.9616 126.042 87.9616 126.399C87.9616 126.688 88.1517 126.962 88.4939 127.159L93.6949 130.163C94.5313 130.642 95.9913 130.581 96.957 130.026C97.4512 129.745 97.7326 129.372 97.7326 129.015C97.7326 128.726 97.5425 128.452 97.2003 128.254L91.9992 125.251C91.619 125.03 91.1096 124.924 90.5849 124.924Z" fill="#42E8E0"/>
<g opacity="0.8">
<path opacity="0.8" d="M130.528 161.187L131.228 161.096C131.304 161.042 131.38 160.989 131.471 160.936L185.474 129.76C186.865 128.954 189.306 129.053 190.918 129.988L222.421 148.177C222.839 148.42 223.158 148.694 223.386 148.983L223.759 148.876V149.963C223.759 150.473 223.447 150.96 222.816 151.317L168.806 182.493C167.414 183.299 164.974 183.2 163.362 182.265L131.859 164.076C130.961 163.559 130.505 162.89 130.528 162.259V161.187Z" fill="#9FFFF8"/>
<path opacity="0.8" d="M168.806 181.398L222.809 150.222C224.2 149.416 224.025 148.009 222.421 147.082L190.918 128.893C189.306 127.965 186.873 127.859 185.474 128.665L131.471 159.841C130.079 160.647 130.254 162.054 131.859 162.981L163.362 181.17C164.974 182.105 167.414 182.204 168.806 181.398Z" fill="#42E8E0"/>
<path opacity="0.8" d="M160.099 179.284L219.151 145.188L212.878 141.569L153.826 175.665L160.099 179.284Z" fill="#24126A"/>
</g>
<g opacity="0.1">
<path opacity="0.1" d="M188.857 161.727C188.857 154.693 183.915 146.139 177.824 142.618C174.775 140.854 172.007 140.694 170.015 141.85L167.932 143.067L168.54 143.12C167.437 144.466 166.799 146.451 166.799 148.975C166.799 156.009 171.741 164.563 177.832 168.084C179.923 169.293 181.885 169.749 183.55 169.543L183.504 170.106L185.618 168.867C185.626 168.859 185.633 168.859 185.641 168.852L185.725 168.798H185.717C187.664 167.635 188.857 165.186 188.857 161.727Z" fill="#9FFFF8"/>
<path opacity="0.1" d="M183.515 170.106C187.825 167.618 187.825 159.551 183.517 152.089C179.208 144.626 172.221 140.594 167.912 143.082C163.602 145.57 163.602 153.637 167.91 161.099C172.219 168.562 179.205 172.595 183.515 170.106Z" fill="#42E8E0"/>
</g>
<path d="M188.857 161.727C188.857 154.693 183.915 146.139 177.824 142.618C174.775 140.854 172.007 140.694 170.015 141.85L167.932 143.067L168.54 143.12C167.437 144.466 166.799 146.451 166.799 148.975C166.799 156.009 171.741 164.563 177.832 168.084C179.923 169.293 181.885 169.749 183.55 169.543L183.504 170.106L185.618 168.867C185.626 168.859 185.633 168.859 185.641 168.852L185.725 168.798H185.717C187.664 167.635 188.857 165.186 188.857 161.727Z" fill="#9FFFF8"/>
<path d="M183.515 170.106C187.825 167.618 187.825 159.551 183.517 152.089C179.208 144.626 172.221 140.594 167.912 143.082C163.602 145.57 163.602 153.637 167.91 161.099C172.219 168.562 179.205 172.595 183.515 170.106Z" fill="#42E8E0"/>
<defs>
<linearGradient id="paint0_linear_2_22035" x1="0.150731" y1="120.039" x2="220.883" y2="120.039" gradientUnits="userSpaceOnUse">
<stop stop-color="#BCBEFF"/>
<stop offset="0.151" stop-color="#A3A7F5"/>
<stop offset="0.3866" stop-color="#8289E8"/>
<stop offset="0.6124" stop-color="#6A73DF"/>
<stop offset="0.8221" stop-color="#5C66D9"/>
<stop offset="1" stop-color="#5761D7"/>
</linearGradient>
<radialGradient id="paint1_radial_2_22035" cx="0" cy="0" r="1" gradientUnits="userSpaceOnUse" gradientTransform="translate(78.1717 123.116) scale(172.768)">
<stop stop-color="#42E8E0"/>
<stop offset="0.1055" stop-color="#37B6BF"/>
<stop offset="0.2197" stop-color="#2C87A1"/>
<stop offset="0.338" stop-color="#235F87"/>
<stop offset="0.4587" stop-color="#1C3F72"/>
<stop offset="0.5824" stop-color="#162561"/>
<stop offset="0.7105" stop-color="#121355"/>
<stop offset="0.8458" stop-color="#10084E"/>
<stop offset="1" stop-color="#0F054C"/>
</radialGradient>
<linearGradient id="paint2_linear_2_22035" x1="141.261" y1="151.266" x2="79.6456" y2="69.4996" gradientUnits="userSpaceOnUse">
<stop stop-color="#42E8E0"/>
<stop offset="0.1055" stop-color="#37B6BF"/>
<stop offset="0.2197" stop-color="#2C87A1"/>
<stop offset="0.338" stop-color="#235F87"/>
<stop offset="0.4587" stop-color="#1C3F72"/>
<stop offset="0.5824" stop-color="#162561"/>
<stop offset="0.7105" stop-color="#121355"/>
<stop offset="0.8458" stop-color="#10084E"/>
<stop offset="1" stop-color="#0F054C"/>
</linearGradient>
<linearGradient id="paint3_linear_2_22035" x1="44.7013" y1="30.3512" x2="115.271" y2="154.249" gradientUnits="userSpaceOnUse">
<stop stop-color="#42E8E0"/>
<stop offset="0.1055" stop-color="#37B6BF"/>
<stop offset="0.2197" stop-color="#2C87A1"/>
<stop offset="0.338" stop-color="#235F87"/>
<stop offset="0.4587" stop-color="#1C3F72"/>
<stop offset="0.5824" stop-color="#162561"/>
<stop offset="0.7105" stop-color="#121355"/>
<stop offset="0.8458" stop-color="#10084E"/>
<stop offset="1" stop-color="#0F054C"/>
</linearGradient>
<linearGradient id="paint4_linear_2_22035" x1="58.8119" y1="50.9674" x2="109.449" y2="126.818" gradientUnits="userSpaceOnUse">
<stop stop-color="#42E8E0"/>
<stop offset="0.1055" stop-color="#37B6BF"/>
<stop offset="0.2197" stop-color="#2C87A1"/>
<stop offset="0.338" stop-color="#235F87"/>
<stop offset="0.4587" stop-color="#1C3F72"/>
<stop offset="0.5824" stop-color="#162561"/>
<stop offset="0.7105" stop-color="#121355"/>
<stop offset="0.8458" stop-color="#10084E"/>
<stop offset="1" stop-color="#0F054C"/>
</linearGradient>
</defs>
</svg>
