<svg width="852" height="748" viewBox="0 0 852 748" fill="none" xmlns="http://www.w3.org/2000/svg">
<path d="M740.606 428.5C740.606 604.679 597.784 747.5 421.605 747.5C-163.567 692.096 55.4985 618.393 96.558 471.068C103.942 444.572 90.8501 418.096 72.2897 397.796C-217.526 80.8211 446.314 0 617.106 0C1059.61 0 740.606 252.321 740.606 428.5Z" fill="#F3F7F9"/>
<g opacity="0.5">
<path opacity="0.5" d="M218.8 249.114C254.868 249.114 284.107 219.875 284.107 183.807C284.107 147.739 254.868 118.5 218.8 118.5C182.732 118.5 153.493 147.739 153.493 183.807C153.493 219.875 182.732 249.114 218.8 249.114Z" stroke="black" stroke-miterlimit="10"/>
<path opacity="0.5" d="M218.8 242.583C251.261 242.583 277.576 216.268 277.576 183.807C277.576 151.346 251.261 125.031 218.8 125.031C186.338 125.031 160.023 151.346 160.023 183.807C160.023 216.268 186.338 242.583 218.8 242.583Z" stroke="black" stroke-miterlimit="10"/>
<path opacity="0.5" d="M195.929 198.475L218.8 183.807L194.231 143.617" stroke="black" stroke-miterlimit="10"/>
</g>
<g opacity="0.5">
<path opacity="0.5" d="M304.574 348.288H150.45V597.329H304.574V348.288Z" stroke="black" stroke-miterlimit="10"/>
<path opacity="0.5" d="M298.475 362.212H156.537V448.417H298.475V362.212Z" stroke="black" stroke-miterlimit="10"/>
<path opacity="0.5" d="M235.78 396.171H214.007V416.194H235.78V396.171Z" stroke="black" stroke-miterlimit="10"/>
<path opacity="0.5" d="M298.475 461.478H156.537V547.683H298.475V461.478Z" stroke="black" stroke-miterlimit="10"/>
<path opacity="0.5" d="M235.78 495.438H214.007V515.461H235.78V495.438Z" stroke="black" stroke-miterlimit="10"/>
<path opacity="0.5" d="M298.475 561.62H156.537V596.454H298.475V561.62Z" stroke="black" stroke-miterlimit="10"/>
</g>
<g opacity="0.5">
<path opacity="0.5" d="M198.085 320.01H158.183L163.172 348.21H193.096L198.085 320.01Z" stroke="black" stroke-miterlimit="10"/>
<path opacity="0.5" d="M183.209 277.248C183.209 282.929 177.592 289.003 177.592 289.003C177.592 289.003 168.972 282.89 168.972 277.248C168.972 271.605 176.09 263.951 176.09 263.951C176.09 263.951 183.209 271.553 183.209 277.248Z" stroke="black" stroke-miterlimit="10"/>
<path opacity="0.5" d="M162.898 293.065C166.542 297.427 166.137 305.721 166.137 305.721C166.137 305.721 155.609 306.557 151.965 302.195C148.321 297.832 148.909 287.422 148.909 287.422C148.909 287.422 159.28 288.742 162.898 293.065Z" stroke="black" stroke-miterlimit="10"/>
<path opacity="0.5" d="M190.17 281.179C194.088 277.091 203.427 278.371 203.427 278.371C203.427 278.371 204.354 287.005 200.397 291.093C196.439 295.181 186.029 295.677 186.029 295.677C186.029 295.677 186.212 285.228 190.17 281.179Z" stroke="black" stroke-miterlimit="10"/>
<path opacity="0.5" d="M196.348 311.769C191.032 309.757 187.31 302.338 187.31 302.338C187.31 302.338 196.087 296.448 201.403 298.42C206.719 300.392 211.303 309.783 211.303 309.783C211.303 309.783 201.664 313.793 196.348 311.769Z" stroke="black" stroke-miterlimit="10"/>
<path opacity="0.5" d="M177.213 319.566V275.367" stroke="black" stroke-miterlimit="10"/>
<path opacity="0.5" d="M176.834 304.206L198.934 285.111" stroke="black" stroke-miterlimit="10"/>
<path opacity="0.5" d="M177.213 314.316L154.747 296.722" stroke="black" stroke-miterlimit="10"/>
<path opacity="0.5" d="M182.45 300.092L199.678 306.831" stroke="black" stroke-miterlimit="10"/>
</g>
<path opacity="0.5" d="M706.42 208.519H406.884V408.541H706.42V208.519Z" stroke="black" stroke-miterlimit="10"/>
<path opacity="0.5" d="M702.41 211.209H410.906V405.863H702.41V211.209Z" stroke="black" stroke-miterlimit="10"/>
<path opacity="0.3" d="M446.186 240.363C446.186 240.363 449.386 257.591 449.386 262.698V280.552C449.386 280.552 462.147 281.192 472.347 280.552C482.548 279.912 494.682 273.538 494.682 273.538C494.682 273.538 490.215 256.311 490.215 251.844C490.215 247.377 487.603 236.536 487.603 236.536L446.186 240.363Z" fill="white" stroke="black" stroke-miterlimit="10"/>
<path opacity="0.3" d="M447.465 347.557C447.465 347.557 445.558 362.225 445.558 368.612C445.558 374.999 442.358 385.2 442.358 385.2C442.358 385.2 457.679 390.947 461.506 390.947C465.333 390.947 481.921 389.641 481.921 389.641L484.468 351.998C484.468 351.998 452.572 348.837 447.465 347.557Z" fill="white" stroke="black" stroke-miterlimit="10"/>
<path opacity="0.3" d="M518.297 268.431L526.003 303.514C526.003 303.514 535.577 304.154 545.778 304.154C555.979 304.154 573.207 294.58 573.207 294.58C573.207 294.58 564.913 277.992 564.913 273.525C564.913 269.058 562.301 256.297 562.301 256.297C562.301 256.297 536.178 264.591 532.259 265.231C528.341 265.871 518.297 268.431 518.297 268.431Z" fill="white" stroke="black" stroke-miterlimit="10"/>
<path opacity="0.3" d="M575.715 258.871C575.715 258.871 573.808 281.832 573.808 284.392C573.808 286.953 573.168 297.153 573.168 297.153C579.72 298.149 586.321 298.785 592.943 299.06C599.97 299.06 612.091 298.42 612.091 298.42C612.091 298.42 611.451 276.099 612.731 274.178C614.011 272.258 614.638 262.058 614.638 262.058C614.638 262.058 578.249 259.498 575.715 258.871Z" fill="white" stroke="black" stroke-miterlimit="10"/>
<path opacity="0.3" d="M589.756 309.915V325.222C589.756 327.769 588.45 346.277 588.45 346.277C588.45 346.277 605.038 346.917 611.425 346.277C617.812 345.637 630.56 341.81 630.56 341.81L628.653 321.395L627.347 307.354C627.347 307.354 596.77 311.821 589.756 309.915Z" fill="white" stroke="black" stroke-miterlimit="10"/>
<path opacity="0.3" d="M686.11 223.84L671.429 224.48H663.775V235.321C663.775 238.508 663.135 248.722 663.135 250.629C663.135 252.536 673.349 253.829 677.816 253.829H693.764L694.404 222.56L686.11 223.84Z" fill="white" stroke="black" stroke-miterlimit="10"/>
<g opacity="0.5">
<path opacity="0.5" d="M649.094 292.687H676.536" stroke="black" stroke-miterlimit="10"/>
<path opacity="0.5" d="M649.094 299.061H676.536" stroke="black" stroke-miterlimit="10"/>
<path opacity="0.5" d="M649.094 305.448H676.536" stroke="black" stroke-miterlimit="10"/>
<path opacity="0.5" d="M649.094 311.821H676.536" stroke="black" stroke-miterlimit="10"/>
</g>
<g opacity="0.5">
<path opacity="0.5" d="M507.443 219.948H598.05" stroke="black" stroke-miterlimit="10"/>
<path opacity="0.5" d="M507.443 226.322H598.05" stroke="black" stroke-miterlimit="10"/>
</g>
<g opacity="0.5">
<path opacity="0.5" d="M599.97 359.038H627.399" stroke="black" stroke-miterlimit="10"/>
<path opacity="0.5" d="M599.97 365.425H627.399" stroke="black" stroke-miterlimit="10"/>
<path opacity="0.5" d="M599.97 371.799H627.399" stroke="black" stroke-miterlimit="10"/>
<path opacity="0.5" d="M599.97 378.186H627.399" stroke="black" stroke-miterlimit="10"/>
</g>
<g opacity="0.5">
<path opacity="0.5" d="M429.598 316.928H457.04" stroke="black" stroke-miterlimit="10"/>
<path opacity="0.5" d="M429.598 323.315H457.04" stroke="black" stroke-miterlimit="10"/>
<path opacity="0.5" d="M429.598 329.689H457.04" stroke="black" stroke-miterlimit="10"/>
<path opacity="0.5" d="M429.598 336.076H457.04" stroke="black" stroke-miterlimit="10"/>
</g>
<g opacity="0.5">
<path opacity="0.5" d="M622.932 236.536H650.374" stroke="black" stroke-miterlimit="10"/>
<path opacity="0.5" d="M622.932 242.91H650.374" stroke="black" stroke-miterlimit="10"/>
<path opacity="0.5" d="M622.932 249.297H650.374" stroke="black" stroke-miterlimit="10"/>
<path opacity="0.5" d="M622.932 255.67H650.374" stroke="black" stroke-miterlimit="10"/>
</g>
<path opacity="0.5" d="M522.477 297.467L506.738 301.96L510.787 305.46C503.434 310.306 487.852 318.6 477.651 310.176C463.975 298.878 467.659 289.121 467.815 288.703L466.614 288.219L465.399 287.723C465.203 288.193 460.749 299.596 475.992 312.187C479.463 315.04 483.842 316.556 488.335 316.458C497.857 316.458 507.679 310.79 512.864 307.315L517.984 311.743L522.477 297.467Z" fill="black"/>
<path opacity="0.5" d="M681.316 270.613L676.771 255.461L668.438 267.582L673.061 268.666L668.255 285.947L670.776 286.652L675.608 269.267L681.316 270.613Z" fill="black"/>
<path opacity="0.3" d="M472.347 242.27C472.357 241.51 472.141 240.764 471.727 240.128C471.312 239.492 470.717 238.993 470.018 238.696C469.319 238.398 468.547 238.316 467.801 238.459C467.055 238.601 466.368 238.963 465.828 239.497C465.288 240.032 464.92 240.715 464.769 241.459C464.619 242.204 464.693 242.977 464.983 243.679C465.273 244.381 465.766 244.981 466.398 245.402C467.03 245.823 467.773 246.047 468.533 246.044C469.537 246.041 470.499 245.643 471.212 244.937C471.926 244.231 472.333 243.273 472.347 242.27V242.27Z" fill="white" stroke="black" stroke-miterlimit="10"/>
<path opacity="0.3" d="M542.539 266.524C542.539 265.768 542.314 265.028 541.894 264.398C541.473 263.769 540.876 263.278 540.176 262.989C539.477 262.699 538.708 262.623 537.965 262.771C537.223 262.919 536.541 263.283 536.006 263.818C535.47 264.354 535.106 265.036 534.958 265.778C534.811 266.52 534.886 267.29 535.176 267.989C535.466 268.688 535.956 269.286 536.586 269.707C537.215 270.127 537.955 270.351 538.712 270.351C539.727 270.351 540.7 269.948 541.418 269.231C542.136 268.513 542.539 267.539 542.539 266.524Z" fill="#009C8E" stroke="black" stroke-miterlimit="10"/>
<path opacity="0.3" d="M596.77 264.605C598.884 264.605 600.597 262.891 600.597 260.778C600.597 258.664 598.884 256.951 596.77 256.951C594.657 256.951 592.943 258.664 592.943 260.778C592.943 262.891 594.657 264.605 596.77 264.605Z" fill="white" stroke="black" stroke-miterlimit="10"/>
<path opacity="0.3" d="M609.531 317.568C611.645 317.568 613.358 315.855 613.358 313.741C613.358 311.628 611.645 309.914 609.531 309.914C607.418 309.914 605.704 311.628 605.704 313.741C605.704 315.855 607.418 317.568 609.531 317.568Z" fill="white" stroke="black" stroke-miterlimit="10"/>
<path opacity="0.3" d="M472.347 354.571C472.352 353.813 472.132 353.07 471.714 352.437C471.296 351.803 470.7 351.309 470 351.016C469.3 350.722 468.529 350.644 467.785 350.789C467.041 350.935 466.356 351.299 465.819 351.834C465.282 352.37 464.916 353.053 464.767 353.797C464.619 354.541 464.695 355.312 464.986 356.012C465.277 356.713 465.769 357.311 466.401 357.731C467.033 358.152 467.775 358.375 468.533 358.372C469.542 358.369 470.508 357.967 471.222 357.256C471.936 356.544 472.34 355.579 472.347 354.571V354.571Z" fill="#009C8E" stroke="black" stroke-miterlimit="10"/>
<path opacity="0.3" d="M682.91 223.84C682.91 223.083 682.685 222.343 682.265 221.714C681.844 221.084 681.247 220.594 680.547 220.304C679.848 220.015 679.079 219.939 678.336 220.086C677.594 220.234 676.912 220.599 676.377 221.134C675.842 221.669 675.477 222.351 675.329 223.093C675.182 223.836 675.258 224.605 675.547 225.304C675.837 226.004 676.327 226.601 676.957 227.022C677.586 227.442 678.326 227.667 679.083 227.667C680.098 227.667 681.071 227.264 681.789 226.546C682.507 225.828 682.91 224.855 682.91 223.84Z" fill="#009C8E" stroke="black" stroke-miterlimit="10"/>
<path d="M558.944 573.597V569.561L562.052 568.908L558.944 568.124V567.014L561.752 565.708L558.944 564.872V548.284H555.522V544.875L557.102 544.744L555.522 544V542.694L559.44 543.268L556.828 540.068L555.522 538.148V537.417L559.714 537.156C559.714 537.156 557.337 535.706 555.522 534.4V520.581H559.714C559.714 520.581 557.402 519.484 555.522 518.543V513.41H459.769V521.782L455.472 523.494L459.73 525.387V526.367C458.423 527.125 456.164 528.496 455.811 529.319C455.236 530.481 454.061 533.094 454.061 533.094C454.061 533.094 456.974 532.519 457.849 532.219C458.503 532.086 459.182 532.173 459.782 532.467V532.623L456.386 536.006L459.769 537.495V548.976H467.292V549.773C466.75 549.903 466.218 550.069 465.699 550.269C463.988 551.133 462.334 552.106 460.748 553.182L465.111 552.895L463.073 556.095L467.292 556.356V572.225H457.718V577.999C457.033 578.14 456.382 578.411 455.798 578.795C455.117 579.289 454.491 579.853 453.93 580.48C452.624 581.878 451.436 583.458 451.436 583.458L456.386 581.995L453.774 585.496L455.811 586.07L454.061 588.683L457.731 588.944V594.782H553.432V590.864L556.775 590.995L555.6 590.42L558.513 589.545L555.6 586.632L554.738 583.145L553.432 582.923V573.571L558.944 573.597Z" fill="#B5B5B5"/>
<path d="M463.948 522.331H522.163" stroke="#263238" stroke-miterlimit="10"/>
<path d="M464.536 527.281H497.712" stroke="#263238" stroke-miterlimit="10"/>
<path d="M547.789 534.256H489.562" stroke="#263238" stroke-miterlimit="10"/>
<path d="M470.061 549.107H548.664" stroke="#263238" stroke-miterlimit="10"/>
<path d="M468.611 538.919H525.663" stroke="#263238" stroke-miterlimit="10"/>
<path d="M550.114 554.932H508.2" stroke="#263238" stroke-miterlimit="10"/>
<path d="M548.363 562.795H471.523" stroke="#263238" stroke-miterlimit="10"/>
<path d="M486.648 569.482H532.063" stroke="#263238" stroke-miterlimit="10"/>
<path d="M550.702 573.558H475.012" stroke="#263238" stroke-miterlimit="10"/>
<path d="M463.661 584.333H518.388" stroke="#263238" stroke-miterlimit="10"/>
<path d="M513.15 578.795H472.974" stroke="#263238" stroke-miterlimit="10"/>
<path d="M479.086 587.533H537.3" stroke="#263238" stroke-miterlimit="10"/>
<path d="M546.038 578.221H530.312" stroke="#263238" stroke-miterlimit="10"/>
<path d="M585.067 492.133V488.097L588.175 487.444L585.067 486.66V485.55L587.875 484.244L585.067 483.395V466.781H581.645V463.372L583.225 463.241L581.645 462.497V461.191L585.563 461.778L582.951 458.565L581.645 456.645V455.927L585.837 455.666C585.837 455.666 583.46 454.203 581.645 452.897V439.117H585.837C585.837 439.117 583.525 438.02 581.645 437.092V431.946H485.892V440.332L481.634 442.03L485.892 443.924V444.903C484.586 445.661 482.326 447.045 481.973 447.855C481.399 449.018 480.223 451.643 480.223 451.643C480.223 451.643 483.136 451.055 484.011 450.768C484.663 450.625 485.345 450.708 485.944 451.003V451.107L482.561 454.49L485.944 455.979V467.46H493.467V468.27C492.924 468.394 492.391 468.56 491.874 468.766C490.161 469.622 488.508 470.591 486.924 471.666L491.286 471.379L489.196 474.618L493.415 474.879V490.749H483.841V496.535C483.154 496.669 482.501 496.94 481.921 497.331C481.243 497.823 480.617 498.384 480.053 499.003C478.747 500.401 477.559 501.981 477.559 501.981L482.509 500.531L479.897 504.019L481.934 504.607L480.184 507.219L483.854 507.48V513.319H579.555V509.4L582.898 509.544L581.723 508.956L584.636 508.081L581.723 505.168L580.861 501.681L579.555 501.459V492.107L585.067 492.133Z" fill="#B5B5B5"/>
<path d="M490.071 440.867H548.286" stroke="#263238" stroke-miterlimit="10"/>
<path d="M490.658 445.817H523.834" stroke="#263238" stroke-miterlimit="10"/>
<path d="M573.912 452.805H515.685" stroke="#263238" stroke-miterlimit="10"/>
<path d="M496.184 467.643H574.787" stroke="#263238" stroke-miterlimit="10"/>
<path d="M494.734 457.455H551.786" stroke="#263238" stroke-miterlimit="10"/>
<path d="M576.237 473.468H534.323" stroke="#263238" stroke-miterlimit="10"/>
<path d="M574.486 481.332H497.646" stroke="#263238" stroke-miterlimit="10"/>
<path d="M512.771 488.019H558.186" stroke="#263238" stroke-miterlimit="10"/>
<path d="M576.824 492.094H501.134" stroke="#263238" stroke-miterlimit="10"/>
<path d="M489.783 502.87H544.51" stroke="#263238" stroke-miterlimit="10"/>
<path d="M539.273 497.345H499.097" stroke="#263238" stroke-miterlimit="10"/>
<path d="M505.209 506.07H563.423" stroke="#263238" stroke-miterlimit="10"/>
<path d="M572.161 496.757H556.436" stroke="#263238" stroke-miterlimit="10"/>
<path d="M646.363 573.597V569.561L649.471 568.908L646.363 568.124V567.014L649.184 565.708L646.363 564.872V548.284H642.941V544.875L644.521 544.744L642.941 544V542.694L646.859 543.268L644.247 540.068L642.941 538.148V537.417L647.146 537.156C647.146 537.156 644.769 535.706 642.941 534.4V520.581H647.146C647.146 520.581 644.822 519.484 642.941 518.543V513.41H547.188V521.782L542.982 523.494L547.24 525.387V526.367C545.934 527.125 543.687 528.496 543.322 529.319C542.747 530.481 541.585 533.094 541.585 533.094C541.585 533.094 544.497 532.519 545.359 532.219C546.013 532.086 546.693 532.173 547.292 532.467V532.623L543.805 536.006L547.188 537.495V548.976H554.737V549.773C554.196 549.905 553.664 550.071 553.144 550.269C551.435 551.137 549.782 552.109 548.194 553.182L552.569 552.895L550.532 556.095L554.737 556.356V572.225H545.163V577.999C544.479 578.14 543.827 578.411 543.243 578.795C542.565 579.292 541.939 579.856 541.376 580.48C540.069 581.878 538.881 583.458 538.881 583.458L543.831 581.995L541.219 585.496L543.256 586.07L541.519 588.683L545.176 588.944V594.782H640.942V590.864L644.286 590.995L643.124 590.42L646.036 589.545L643.124 586.632L642.248 583.145L640.942 582.923V573.571L646.363 573.597Z" fill="#B5B5B5" stroke="#263238" stroke-miterlimit="10"/>
<path d="M551.368 522.331H609.596" stroke="#263238" stroke-miterlimit="10"/>
<path d="M551.956 527.281H585.145" stroke="#263238" stroke-miterlimit="10"/>
<path d="M635.209 534.256H576.994" stroke="#263238" stroke-miterlimit="10"/>
<path d="M557.494 549.107H636.084" stroke="#263238" stroke-miterlimit="10"/>
<path d="M556.031 538.919H613.083" stroke="#263238" stroke-miterlimit="10"/>
<path d="M637.534 554.932H595.62" stroke="#263238" stroke-miterlimit="10"/>
<path d="M635.796 562.795H558.943" stroke="#263238" stroke-miterlimit="10"/>
<path d="M574.082 569.482H619.496" stroke="#263238" stroke-miterlimit="10"/>
<path d="M638.121 573.558H562.431" stroke="#263238" stroke-miterlimit="10"/>
<path d="M551.08 584.333H605.807" stroke="#263238" stroke-miterlimit="10"/>
<path d="M600.57 578.795H560.394" stroke="#263238" stroke-miterlimit="10"/>
<path d="M566.506 587.533H624.733" stroke="#263238" stroke-miterlimit="10"/>
<path d="M633.459 578.221H617.746" stroke="#263238" stroke-miterlimit="10"/>
<path d="M670.396 573.597V569.561L673.504 568.908L670.396 568.124V567.014L673.217 565.708L670.396 564.872V548.284H666.974V544.875L668.554 544.744L666.974 544V542.694L670.892 543.268L668.28 540.068L666.974 538.148V537.417L671.18 537.156C671.18 537.156 668.802 535.706 666.974 534.4V520.581H671.18C671.18 520.581 668.855 519.484 666.974 518.543V513.41H571.221V521.782L566.963 523.494L571.221 525.387V526.367C569.915 527.125 567.668 528.496 567.303 529.319C566.728 530.481 565.565 533.094 565.565 533.094C565.565 533.094 568.478 532.519 569.34 532.219C569.994 532.086 570.674 532.173 571.273 532.467V532.623L567.799 536.006L571.182 537.495V548.976H578.705V549.773C578.164 549.905 577.632 550.071 577.112 550.269C575.403 551.137 573.749 552.109 572.161 553.182L576.537 552.895L574.499 556.095L578.705 556.356V572.225H569.131V577.999C568.446 578.14 567.795 578.411 567.211 578.795C566.533 579.292 565.907 579.856 565.343 580.48C564.037 581.878 562.849 583.458 562.849 583.458L567.799 581.995L565.187 585.496L567.224 586.07L565.487 588.683L569.144 588.944V594.782H664.897V590.864L668.241 590.995L667.078 590.42L669.991 589.545L667.065 586.658L666.19 583.171L664.884 582.949V573.597H670.396Z" fill="white" stroke="#263238" stroke-miterlimit="10"/>
<path d="M575.4 522.331H633.628" stroke="#263238" stroke-miterlimit="10"/>
<path d="M575.988 527.281H609.177" stroke="#263238" stroke-miterlimit="10"/>
<path d="M659.242 534.256H601.027" stroke="#263238" stroke-miterlimit="10"/>
<path d="M581.514 549.107H660.117" stroke="#263238" stroke-miterlimit="10"/>
<path d="M580.063 538.919H637.115" stroke="#263238" stroke-miterlimit="10"/>
<path d="M661.566 554.932H619.652" stroke="#263238" stroke-miterlimit="10"/>
<path d="M659.83 562.795H582.977" stroke="#263238" stroke-miterlimit="10"/>
<path d="M598.114 569.482H643.529" stroke="#263238" stroke-miterlimit="10"/>
<path d="M662.154 573.558H586.464" stroke="#263238" stroke-miterlimit="10"/>
<path d="M575.113 584.333H629.84" stroke="#263238" stroke-miterlimit="10"/>
<path d="M624.602 578.795H584.426" stroke="#263238" stroke-miterlimit="10"/>
<path d="M590.539 587.533H648.767" stroke="#263238" stroke-miterlimit="10"/>
<path d="M657.491 578.221H641.778" stroke="#263238" stroke-miterlimit="10"/>
<path d="M670.396 493.478V489.442L673.505 488.789L670.396 488.019V486.908L673.217 485.602L670.396 484.753V468.178H666.974V464.756L668.555 464.626L666.974 463.881V462.575L670.893 463.15L668.28 459.95L666.974 458.017V457.298L671.18 457.037C671.18 457.037 668.803 455.587 666.974 454.281V440.475H671.18C671.18 440.475 668.855 439.365 666.974 438.438V433.292H571.221V441.677L566.963 443.375L571.221 445.282V446.261C569.915 447.019 567.669 448.39 567.303 449.2C566.728 450.363 565.566 452.988 565.566 452.988C565.566 452.988 568.478 452.4 569.34 452.113C569.995 451.981 570.674 452.068 571.274 452.361V452.505L567.891 455.901L571.274 457.377V468.858H578.797V469.667C578.256 469.799 577.724 469.965 577.203 470.164C575.492 471.026 573.838 471.999 572.253 473.076L576.629 472.776L574.591 475.989L578.797 476.25V492.12H569.223V497.893C568.538 498.035 567.887 498.305 567.303 498.69C566.625 499.186 565.999 499.751 565.435 500.375C564.554 501.325 563.722 502.319 562.94 503.353L567.891 501.89L565.278 505.39L567.316 505.965L565.579 508.577L569.236 508.838V514.677H664.989V510.758L668.333 510.889L667.17 510.301L670.083 509.439L667.066 506.553L666.19 503.052L664.884 502.843V493.478H670.396Z" fill="white" stroke="#263238" stroke-miterlimit="10"/>
<path d="M575.4 442.213H633.628" stroke="#263238" stroke-miterlimit="10"/>
<path d="M575.988 447.163H609.177" stroke="#263238" stroke-miterlimit="10"/>
<path d="M659.242 454.151H601.027" stroke="#263238" stroke-miterlimit="10"/>
<path d="M581.514 469.001H660.117" stroke="#263238" stroke-miterlimit="10"/>
<path d="M580.063 458.813H637.115" stroke="#263238" stroke-miterlimit="10"/>
<path d="M661.566 474.814H619.652" stroke="#263238" stroke-miterlimit="10"/>
<path d="M659.83 482.677H582.977" stroke="#263238" stroke-miterlimit="10"/>
<path d="M598.114 489.377H643.529" stroke="#263238" stroke-miterlimit="10"/>
<path d="M662.154 493.452H586.464" stroke="#263238" stroke-miterlimit="10"/>
<path d="M575.113 504.215H629.84" stroke="#263238" stroke-miterlimit="10"/>
<path d="M624.602 498.69H584.426" stroke="#263238" stroke-miterlimit="10"/>
<path d="M590.539 507.428H648.767" stroke="#263238" stroke-miterlimit="10"/>
<path d="M657.491 498.102H641.778" stroke="#263238" stroke-miterlimit="10"/>
<path d="M498.914 593.372H387.239V587.416L498.914 581.473V593.372Z" fill="white" stroke="#263238" stroke-miterlimit="10"/>
<path d="M562.575 571.272L533.84 500.035L528.981 502.007V503.17L557.351 573.362C558.011 575.009 558.256 576.793 558.067 578.558C557.877 580.323 557.257 582.014 556.262 583.484C555.267 584.953 553.926 586.156 552.358 586.988C550.79 587.819 549.042 588.253 547.267 588.252H509.611V593.933H547.267C549.961 593.919 552.612 593.247 554.987 591.977C557.363 590.706 559.393 588.875 560.902 586.642C562.41 584.41 563.35 581.843 563.642 579.164C563.934 576.486 563.567 573.777 562.575 571.272V571.272Z" fill="white" stroke="#263238" stroke-miterlimit="10"/>
<path d="M547.913 401.698L539.043 400.628L518.978 566.921L527.848 567.991L547.913 401.698Z" fill="white" stroke="#263238" stroke-miterlimit="10"/>
<path d="M510.552 593.476H462.225V587.795C462.222 584.823 463.323 581.957 465.314 579.751C467.305 577.546 470.044 576.158 473 575.857L497.386 573.388C499.053 573.22 500.737 573.403 502.329 573.926C503.92 574.449 505.385 575.3 506.628 576.423C507.871 577.547 508.865 578.918 509.545 580.45C510.225 581.981 510.577 583.638 510.578 585.313L510.552 593.476Z" fill="white" stroke="#263238" stroke-miterlimit="10"/>
<path d="M295.887 358.894C295.887 358.894 285.582 333.96 275.825 331.792C266.068 329.624 224.886 350.221 236.249 369.2C247.613 388.178 259.564 387.081 270.405 382.261C281.246 377.441 295.887 358.894 295.887 358.894Z" fill="#263238" stroke="#263238" stroke-miterlimit="10"/>
<path d="M251.427 341C251.427 341 240.586 337.212 235.165 337.212C229.745 337.212 228.635 354.558 228.635 354.558C228.635 354.558 232.462 337.748 251.427 341Z" fill="#263238" stroke="#263238" stroke-miterlimit="10"/>
<path d="M368.522 377.872C368.522 377.872 374.491 385.996 376.111 393.05C377.73 400.103 373.407 407.678 375.027 413.647C376.646 419.616 384.248 425.024 383.699 428.825C383.151 432.625 372.323 438.581 372.323 438.581C372.323 438.581 363.102 460.786 359.262 462.432C355.422 464.077 342.504 460.25 336.613 457.56C330.723 454.869 323.055 455.391 323.055 455.391L287.79 437.497C287.79 437.497 291.591 430.444 287.254 420.152C282.918 409.86 280.724 392.501 307.303 375.156C333.883 357.81 368.522 377.872 368.522 377.872Z" fill="white" stroke="#263238" stroke-miterlimit="10"/>
<path d="M363.65 437.497C362.914 436.368 361.805 435.532 360.516 435.136C359.227 434.739 357.84 434.808 356.597 435.329" stroke="#263238" stroke-miterlimit="10"/>
<path d="M367.96 410.93C367.96 413.634 367.111 415.815 366.066 415.815C365.021 415.815 364.159 413.634 364.159 410.93C364.159 408.227 365.008 406.059 366.066 406.059C367.124 406.059 367.96 408.24 367.96 410.93Z" fill="#263238"/>
<path d="M362.566 397.386C363.071 396.867 363.684 396.464 364.361 396.205C365.037 395.947 365.762 395.84 366.485 395.891C367.208 395.942 367.911 396.15 368.545 396.501C369.178 396.851 369.728 397.336 370.155 397.922" stroke="#263238" stroke-miterlimit="10"/>
<path d="M366.628 421.772C371.865 421.772 376.111 414.977 376.111 406.594C376.111 398.212 371.865 391.417 366.628 391.417C361.391 391.417 357.146 398.212 357.146 406.594C357.146 414.977 361.391 421.772 366.628 421.772Z" stroke="#263238" stroke-miterlimit="10"/>
<path d="M357.145 406.594L314.853 410.931" stroke="#263238" stroke-miterlimit="10"/>
<path d="M306.18 421.236C306.18 421.236 295.887 432.625 289.918 432.625C283.949 432.625 272.573 425.024 267.152 416.952C261.732 408.88 272.573 388.217 278.542 376.292C284.511 364.367 295.339 344.304 317.569 339.968C339.799 335.632 348.472 337.264 367.437 347.021C386.402 356.778 384.247 370.871 380.995 375.208C378.6 378.22 375.87 380.95 372.858 383.345C372.858 383.345 384.783 376.814 389.119 379.009C393.456 381.203 393.469 383.88 393.469 383.88C393.469 383.88 379.911 384.429 378.278 384.429C376.646 384.429 371.238 387.133 371.238 387.133C371.238 387.133 359.849 389.849 353.893 388.217C347.937 386.584 339.799 380.576 339.225 387.107C338.65 393.637 330.552 405.001 327.3 406.085C324.047 407.169 319.163 407.704 314.826 410.957C310.49 414.209 306.18 421.236 306.18 421.236Z" fill="#263238" stroke="#263238" stroke-miterlimit="10"/>
<path d="M318.653 416.351C318.653 416.351 311.065 400.677 303.476 407.143C295.887 413.608 304.012 430.444 307.264 432.077C310.516 433.71 317.021 429.36 317.021 429.36C317.021 429.36 317.569 436.413 319.738 439.666" fill="white"/>
<path d="M318.653 416.351C318.653 416.351 311.065 400.677 303.476 407.143C295.887 413.608 304.012 430.444 307.264 432.077C310.516 433.71 317.021 429.36 317.021 429.36C317.021 429.36 317.569 436.413 319.738 439.666" stroke="#263238" stroke-miterlimit="10"/>
<path d="M275.29 455.392C275.29 455.392 284.433 446.17 284.433 440.214C284.433 434.258 287.685 429.36 308.283 439.13C328.881 448.9 335.999 460.251 331.663 463.516C327.327 466.781 318.105 470.047 315.989 472.189C313.873 474.331 306.232 484.662 306.232 484.662C306.232 484.662 293.171 455.392 275.29 455.392Z" fill="#009C8E" stroke="#263238" stroke-miterlimit="10"/>
<path d="M297.743 435.93C297.743 435.93 293.145 436.858 294.072 440.071C294.617 442.019 294.617 444.079 294.072 446.027L291.316 450.167" stroke="#263238" stroke-miterlimit="10"/>
<path d="M308.348 439.13C308.348 439.13 303.241 444.655 303.698 446.484C304.155 448.312 305.083 451.081 303.241 451.996C301.606 452.727 299.921 453.342 298.199 453.837" stroke="#263238" stroke-miterlimit="10"/>
<path d="M310.124 460.407C309.171 461.805 308.296 463.019 308.296 463.019" stroke="#263238" stroke-miterlimit="10"/>
<path d="M317.936 445.569C317.936 445.569 318.85 449.697 317.008 452.453C315.167 455.209 312.881 455.209 312.424 456.58" stroke="#263238" stroke-miterlimit="10"/>
<path d="M328.032 452.91C327.187 455.303 326.111 457.609 324.819 459.793C323.434 461.635 318.393 461.178 317.465 463.463C316.563 465.227 315.315 466.791 313.795 468.061" stroke="#263238" stroke-miterlimit="10"/>
<path d="M433.502 539.102C429.466 537.495 418.168 535.875 418.168 535.875" stroke="#263238" stroke-miterlimit="10"/>
<path d="M413.322 534.256C413.322 534.256 422.204 531.84 427.847 534.256" stroke="#263238" stroke-miterlimit="10"/>
<path d="M431.7 552.986C431.7 552.986 436.493 561.254 437.8 563.866C439.106 566.478 439.537 567.784 438.231 567.784C436.924 567.784 432.131 565.616 431.7 563.004C431.524 561.625 431.08 560.294 430.394 559.086C430.394 559.086 432.849 568.66 432.131 569.091C429.297 570.828 427.35 567.784 427.35 567.784L423.863 557.335C423.863 557.335 422.557 562.56 422.126 563.866C421.695 565.172 419.07 561.698 419.07 559.086C419.112 557.046 419.26 555.01 419.514 552.986L416.901 550.805C416.901 550.805 420.82 546.886 425.169 546.886C429.519 546.886 431.7 552.986 431.7 552.986Z" fill="white" stroke="#263238" stroke-miterlimit="10"/>
<path d="M364.655 539.925L366.353 539.807C373.864 539.311 403.67 537.312 405.538 537.312C407.719 537.312 420.336 544.274 420.336 544.274C424.26 544.037 428.197 544.186 432.091 544.718C436.454 545.58 440.372 550.805 442.109 552.555C443.846 554.305 449.515 556.473 446.459 557.335C443.402 558.198 442.109 558.642 440.372 558.211C438.635 557.78 431.66 552.986 431.66 552.986L420.336 551.249C420.336 551.249 409.887 556.904 408.581 557.335C407.275 557.767 410.331 560.823 413.374 563.004C416.418 565.185 421.211 568.229 420.78 571.703C420.349 575.177 419.03 574.759 415.556 571.703C412.081 568.647 408.581 566.923 403.356 563.435C398.583 560.002 394.072 556.217 389.864 552.111L387.252 549.499C387.252 549.499 356.779 559.517 346.33 562.56C336.766 565.249 327.03 567.287 317.19 568.66C310.66 569.535 298.043 566.923 294.555 564.31C291.068 561.698 281.925 553.417 281.925 553.417L297.598 522.07C297.598 522.07 316.328 539.494 323.721 541.231C331.114 542.968 364.655 539.925 364.655 539.925Z" fill="white" stroke="#263238" stroke-miterlimit="10"/>
<path d="M323.721 541.231C316.328 539.494 297.598 522.07 297.598 522.07L281.925 553.417C281.925 553.417 291.068 561.698 294.555 564.31C298.043 566.923 310.66 569.535 317.19 568.66C326.124 567.411 334.974 565.623 343.692 563.305C343.927 561.306 344.11 559.164 344.188 556.904C344.358 551.967 344.188 546.377 343.94 541.401C335.529 541.884 327.026 542.054 323.721 541.231Z" fill="#009C8E" stroke="#263238" stroke-miterlimit="10"/>
<path d="M312.881 489.756C312.843 480.75 309.999 471.979 304.744 464.665C302.218 460.963 298.799 457.958 294.804 455.927C276.701 447.699 263.979 453.668 252.511 468.989C229.745 499.356 214.176 535.419 208.103 550.309C195.29 581.342 192.938 592.536 192.938 592.536H278.595C278.595 592.536 274.258 581.695 274.258 578.991C274.258 576.288 278.595 570.854 278.595 570.854C278.595 570.854 304.613 561.633 309.485 547.54C313.025 537.169 313.103 505.678 312.881 489.756Z" fill="#009C8E" stroke="#263238" stroke-miterlimit="10"/>
<path d="M439.145 497.136C446.024 498.514 452.791 500.405 459.39 502.791" stroke="#263238" stroke-miterlimit="10"/>
<path d="M452.062 494.719C456.993 496.756 461.613 499.473 465.79 502.791" stroke="#263238" stroke-miterlimit="10"/>
<path d="M257.396 511.765C257.396 511.765 283.962 584.412 291.002 586.58C298.042 588.748 305.096 585.496 308.348 583.328C311.6 581.16 405.929 514.481 405.929 514.481C405.929 514.481 422.739 524.251 425.992 524.251C429.244 524.251 435.748 534.008 437.368 537.313C438.988 540.617 440.62 542.184 441.169 538.932C441.717 535.68 437.368 528.64 436.284 526.472C435.661 525.242 435.12 523.972 434.664 522.671C436.547 522.922 438.377 523.473 440.085 524.303C441.704 525.388 447.125 532.428 448.757 534.596C450.39 536.764 454.178 538.932 454.178 535.68C454.178 532.428 448.209 526.472 447.125 523.755C446.5 522.161 445.353 520.826 443.873 519.967C443.873 519.967 454.178 521.587 456.934 522.671C459.69 523.755 461.283 530.259 464.536 530.808C467.788 531.357 462.903 524.277 461.819 521.051C460.735 517.825 447.177 513.462 447.177 513.462C447.177 513.462 455.85 512.378 458.567 512.378C461.283 512.378 467.226 517.72 468.82 517.72C470.413 517.72 470.439 516.088 466.103 512.836C461.767 509.583 454.178 506.305 450.926 506.305C447.649 506.215 444.385 505.852 441.169 505.221C437.917 504.685 413.518 499.8 408.646 499.8C403.774 499.8 330.578 533.956 330.578 533.956L325.837 529.737C325.746 529.656 325.632 529.605 325.51 529.593L324.714 529.502C321.98 529.272 319.255 530.042 317.047 531.67C316.655 531.931 316.263 531.892 315.937 531.239C314.852 529.071 307.812 485.707 304.011 476.486C300.211 467.264 288.338 446.68 267.701 458.605" fill="white"/>
<path d="M257.396 511.765C257.396 511.765 283.962 584.412 291.002 586.58C298.042 588.748 305.096 585.496 308.348 583.328C311.6 581.16 405.929 514.481 405.929 514.481C405.929 514.481 422.739 524.251 425.992 524.251C429.244 524.251 435.748 534.008 437.368 537.313C438.988 540.617 440.62 542.184 441.169 538.932C441.717 535.68 437.368 528.64 436.284 526.472C435.661 525.242 435.12 523.972 434.664 522.671C436.547 522.922 438.377 523.473 440.085 524.303C441.704 525.388 447.125 532.428 448.757 534.596C450.39 536.764 454.178 538.932 454.178 535.68C454.178 532.428 448.209 526.472 447.125 523.755C446.5 522.161 445.353 520.826 443.873 519.967C443.873 519.967 454.178 521.587 456.934 522.671C459.69 523.755 461.283 530.259 464.536 530.808C467.788 531.357 462.903 524.277 461.819 521.051C460.735 517.825 447.177 513.462 447.177 513.462C447.177 513.462 455.85 512.378 458.567 512.378C461.283 512.378 467.226 517.72 468.82 517.72C470.413 517.72 470.439 516.088 466.103 512.836C461.767 509.583 454.178 506.305 450.926 506.305C447.649 506.215 444.385 505.852 441.169 505.221C437.917 504.685 413.518 499.8 408.646 499.8C403.774 499.8 330.578 533.956 330.578 533.956L325.837 529.737C325.746 529.656 325.632 529.605 325.51 529.593L324.714 529.502C321.98 529.272 319.255 530.042 317.047 531.67C316.655 531.931 316.263 531.892 315.937 531.239C314.852 529.071 307.812 485.707 304.011 476.486C300.211 467.264 288.338 446.68 267.701 458.605" stroke="#263238" stroke-miterlimit="10"/>
<path d="M257.396 511.764C257.396 511.764 283.962 584.412 291.002 586.58C298.042 588.748 305.096 585.496 308.348 583.328C310.072 582.178 337.083 563.096 362.291 545.306L352.913 523.676C340.309 529.449 330.578 533.995 330.578 533.995L325.837 529.776C325.746 529.695 325.632 529.644 325.51 529.632L324.714 529.541C321.98 529.311 319.255 530.081 317.047 531.709C316.655 531.97 316.263 531.931 315.937 531.278C314.852 529.11 307.812 485.746 304.011 476.525C300.211 467.304 288.338 446.719 267.701 458.644" fill="#009C8E"/>
<path d="M257.396 511.764C257.396 511.764 283.962 584.412 291.002 586.58C298.042 588.748 305.096 585.496 308.348 583.328C310.072 582.178 337.083 563.096 362.291 545.306L352.913 523.676C340.309 529.449 330.578 533.995 330.578 533.995L325.837 529.776C325.746 529.695 325.632 529.644 325.51 529.632L324.714 529.541C321.98 529.311 319.255 530.081 317.047 531.709C316.655 531.97 316.263 531.931 315.937 531.278C314.852 529.11 307.812 485.746 304.011 476.525C300.211 467.304 288.338 446.719 267.701 458.644" stroke="#263238" stroke-miterlimit="10"/>
<path d="M316.015 533.041C311.887 538.084 307.333 542.764 302.405 547.03" stroke="#263238" stroke-miterlimit="10"/>
<path d="M312.907 536.542C312.907 536.542 303.973 539.65 296.58 541.596" stroke="#263238" stroke-miterlimit="10"/>
<path d="M192.938 592.536L177.983 461.4C177.801 459.804 177.302 458.261 176.514 456.862C175.727 455.463 174.667 454.236 173.397 453.253C172.127 452.271 170.673 451.553 169.121 451.141C167.568 450.73 165.95 450.634 164.36 450.859V450.859C161.238 451.304 158.415 452.958 156.502 455.466C154.589 457.973 153.738 461.131 154.133 464.26L170.433 592.745L192.938 592.536Z" fill="#263238" stroke="#263238" stroke-miterlimit="10"/>
<path d="M264.658 558.106C263.637 557.072 262.306 556.399 260.868 556.192C259.429 555.984 257.962 556.253 256.691 556.957C252.132 559.465 251.218 569.718 253.269 577.006C255.319 584.294 264.658 580.193 264.658 580.193L264.436 575.412C264.436 575.412 256.691 576.314 256.234 572.225C255.776 568.137 255.554 562.887 260.152 562.887C264.75 562.887 266.082 564.023 266.082 564.023L264.658 558.106Z" fill="white" stroke="#263238" stroke-miterlimit="10"/>
<path d="M300.067 549.172H263.9V592.457H300.067V549.172Z" fill="white" stroke="#263238" stroke-miterlimit="10"/>
<path d="M689.453 592.222H127.605V604.905H689.453V592.222Z" fill="#263238" stroke="#263238" stroke-miterlimit="10"/>
</svg>
