<svg width="852" height="748" viewBox="0 0 852 748" fill="none" xmlns="http://www.w3.org/2000/svg">
<path d="M111.22 428.5C111.22 604.679 254.042 747.5 430.221 747.5C1015.39 692.096 796.328 618.393 755.268 471.068C747.884 444.572 760.976 418.096 779.537 397.796C1069.35 80.8211 405.512 0 234.72 0C-207.78 0 111.22 252.321 111.22 428.5Z" fill="#F3F7F9"/>
<path d="M301.738 162.056L438.058 384.762L603.701 227.843" stroke="#263238" stroke-linecap="round" stroke-linejoin="round"/>
<path d="M230.067 394.895L438.058 384.763L286.687 320.569" stroke="#263238" stroke-linecap="round" stroke-linejoin="round"/>
<path d="M471.445 135.681L440.497 390.008L630.326 427.674" stroke="#263238" stroke-linecap="round" stroke-linejoin="round"/>
<path d="M289.851 543.265L438.058 384.763L591.803 501.263" stroke="#263238" stroke-linecap="round" stroke-linejoin="round"/>
<path d="M225.44 366.731C220.211 366.731 215.099 368.282 210.75 371.187C206.402 374.092 203.013 378.222 201.012 383.053C199.011 387.884 198.487 393.201 199.508 398.33C200.528 403.459 203.046 408.17 206.744 411.868C210.442 415.565 215.153 418.084 220.282 419.104C225.411 420.124 230.727 419.6 235.558 417.599C240.39 415.598 244.519 412.209 247.424 407.861C250.33 403.513 251.88 398.401 251.88 393.171C251.872 386.162 249.083 379.441 244.127 374.485C239.17 369.528 232.45 366.74 225.44 366.731V366.731Z" fill="#263238"/>
<path fill-rule="evenodd" clip-rule="evenodd" d="M241.63 392.489C241.36 388.684 239.667 385.12 236.888 382.508C234.109 379.895 230.447 378.425 226.633 378.391C222.819 378.357 219.131 379.761 216.306 382.323C213.48 384.886 211.723 388.419 211.386 392.218C211.386 392.435 211.386 392.652 211.386 392.879C211.383 395.615 212.133 398.299 213.553 400.638L210.822 408.689L219.21 406.024C221.507 407.279 224.091 407.918 226.709 407.878C229.327 407.839 231.89 407.123 234.149 405.8C236.408 404.477 238.286 402.591 239.601 400.327C240.916 398.063 241.622 395.497 241.651 392.879C241.641 392.749 241.641 392.619 241.63 392.489ZM226.459 405.493C223.971 405.495 221.537 404.768 219.459 403.401L214.572 404.962L216.165 400.27C214.585 398.125 213.735 395.531 213.737 392.868C213.737 392.459 213.759 392.051 213.802 391.644C214.077 388.448 215.548 385.473 217.921 383.314C220.294 381.155 223.394 379.972 226.602 380.001C229.81 380.03 232.889 381.268 235.223 383.469C237.557 385.67 238.974 388.671 239.192 391.871C239.192 392.196 239.192 392.522 239.192 392.858C239.177 396.215 237.834 399.429 235.457 401.799C233.079 404.169 229.859 405.501 226.502 405.503L226.459 405.493Z" fill="white"/>
<path fill-rule="evenodd" clip-rule="evenodd" d="M233.448 395.902C233.069 395.718 231.281 394.819 230.902 394.71C230.522 394.602 230.316 394.526 230.067 394.895C229.818 395.263 229.103 396.087 228.897 396.336C228.691 396.585 228.463 396.607 228.084 396.423C226.99 395.993 225.982 395.373 225.104 394.591C224.293 393.856 223.599 393.001 223.045 392.056C222.829 391.687 223.045 391.481 223.208 391.297C223.37 391.113 223.576 390.874 223.76 390.658L223.901 390.484C223.988 390.342 224.064 390.194 224.129 390.04C224.183 389.942 224.211 389.832 224.211 389.72C224.211 389.609 224.183 389.499 224.129 389.401C224.031 389.216 223.295 387.396 222.98 386.659C222.666 385.922 222.363 386.052 222.146 386.052C221.929 386.052 221.68 386.052 221.431 386.052C221.244 386.055 221.059 386.097 220.89 386.176C220.72 386.254 220.568 386.367 220.445 386.507C220.025 386.901 219.692 387.378 219.468 387.908C219.244 388.438 219.134 389.01 219.144 389.585C219.15 390.011 219.216 390.434 219.339 390.842C219.628 391.761 220.076 392.623 220.661 393.388C220.846 393.627 223.229 397.474 227.001 398.947C230.772 400.421 230.772 399.934 231.454 399.869C231.972 399.769 232.463 399.562 232.894 399.259C233.326 398.957 233.688 398.566 233.957 398.113C234.194 397.564 234.269 396.959 234.174 396.368C234.055 396.206 233.773 396.087 233.448 395.902Z" fill="white"/>
<path d="M295.539 131.411C288.618 131.551 282.028 134.399 277.183 139.343C272.337 144.288 269.624 150.934 269.624 157.857C269.624 164.78 272.337 171.426 277.183 176.371C282.028 181.315 288.618 184.163 295.539 184.303V184.303C299.057 184.374 302.554 183.743 305.825 182.446C309.096 181.149 312.075 179.212 314.588 176.749C317.102 174.286 319.098 171.347 320.461 168.103C321.824 164.859 322.526 161.376 322.526 157.857C322.526 154.338 321.824 150.855 320.461 147.611C319.098 144.367 317.102 141.428 314.588 138.965C312.075 136.502 309.096 134.565 305.825 133.268C302.554 131.971 299.057 131.34 295.539 131.411V131.411Z" fill="#263238"/>
<path d="M312.314 149.378C312.124 148.63 311.737 147.946 311.195 147.397C310.652 146.849 309.972 146.455 309.226 146.257C306.484 145.52 295.529 145.52 295.529 145.52C295.529 145.52 284.573 145.52 281.843 146.257C281.098 146.459 280.419 146.854 279.875 147.402C279.331 147.95 278.941 148.631 278.744 149.378C277.776 154.993 277.776 160.732 278.744 166.347C278.943 167.093 279.334 167.773 279.878 168.32C280.421 168.868 281.099 169.264 281.843 169.468C284.573 170.205 295.529 170.205 295.529 170.205C295.529 170.205 306.484 170.205 309.226 169.468C309.969 169.264 310.645 168.868 311.187 168.321C311.729 167.773 312.118 167.092 312.314 166.347C313.297 160.733 313.297 154.992 312.314 149.378V149.378Z" fill="white"/>
<path d="M291.953 163.074V152.65L301.11 157.862L291.953 163.074Z" fill="#263238"/>
<path d="M291.78 509.986C284.921 509.986 278.217 512.02 272.515 515.83C266.812 519.641 262.368 525.056 259.743 531.392C257.119 537.729 256.432 544.701 257.77 551.427C259.108 558.154 262.41 564.332 267.26 569.182C272.109 574.032 278.288 577.334 285.015 578.672C291.741 580.01 298.713 579.323 305.049 576.699C311.386 574.074 316.801 569.63 320.612 563.927C324.422 558.225 326.456 551.521 326.456 544.662C326.456 535.466 322.802 526.646 316.299 520.143C309.796 513.64 300.976 509.986 291.78 509.986Z" fill="#263238"/>
<path d="M285.939 566.898H294.911V544.435H301.164L301.836 536.915H294.911V532.58C294.911 530.803 295.258 530.109 296.981 530.109H301.836V522.296H295.627C288.951 522.296 285.939 525.244 285.939 530.868V536.86H281.269V544.446H285.939V566.898Z" fill="white"/>
<path d="M592.735 475.43C587.502 475.428 582.387 476.977 578.035 479.883C573.683 482.789 570.291 486.92 568.288 491.754C566.285 496.587 565.76 501.907 566.78 507.039C567.8 512.171 570.32 516.885 574.02 520.585C577.72 524.285 582.434 526.804 587.566 527.825C592.698 528.845 598.017 528.32 602.851 526.317C607.685 524.313 611.816 520.921 614.722 516.57C617.627 512.218 619.177 507.103 619.175 501.87C619.166 494.86 616.378 488.14 611.421 483.183C606.465 478.227 599.744 475.438 592.735 475.43V475.43Z" fill="#263238"/>
<path d="M592.735 489.246C596.853 489.246 597.34 489.246 598.966 489.332C599.943 489.346 600.91 489.525 601.826 489.863C602.491 490.115 603.094 490.506 603.593 491.012C604.106 491.51 604.499 492.117 604.741 492.789C605.086 493.704 605.266 494.672 605.272 495.65C605.348 497.275 605.37 497.817 605.37 501.87C605.37 505.923 605.37 506.475 605.272 508.101C605.266 509.078 605.086 510.047 604.741 510.962C604.501 511.632 604.108 512.236 603.593 512.728C603.097 513.24 602.494 513.636 601.826 513.887C600.91 514.226 599.943 514.405 598.966 514.418C597.34 514.494 596.853 514.505 592.735 514.505C588.617 514.505 588.129 514.505 586.504 514.418C585.527 514.404 584.56 514.224 583.643 513.887C582.976 513.636 582.373 513.24 581.877 512.728C581.362 512.236 580.969 511.632 580.728 510.962C580.383 510.047 580.204 509.078 580.197 508.101C580.121 506.475 580.1 505.988 580.1 501.87C580.1 497.752 580.1 497.275 580.197 495.65C580.204 494.672 580.383 493.704 580.728 492.789C580.971 492.117 581.364 491.51 581.877 491.012C582.376 490.506 582.979 490.115 583.643 489.863C584.56 489.527 585.527 489.347 586.504 489.332C588.129 489.257 588.617 489.246 592.735 489.246ZM592.735 486.472C588.552 486.472 588.021 486.472 586.385 486.558C585.128 486.576 583.883 486.803 582.7 487.23C581.676 487.625 580.746 488.231 579.969 489.007C579.193 489.783 578.588 490.714 578.193 491.738C577.747 492.936 577.505 494.199 577.477 495.477C577.402 497.124 577.38 497.644 577.38 501.827C577.38 506.009 577.38 506.54 577.477 508.188C577.505 509.465 577.747 510.729 578.193 511.926C578.581 512.96 579.184 513.901 579.961 514.687C580.737 515.473 581.671 516.087 582.7 516.488C583.897 516.936 585.161 517.178 586.439 517.203C588.075 517.279 588.606 517.29 592.789 517.29C596.972 517.29 597.503 517.29 599.139 517.203C600.417 517.178 601.681 516.936 602.878 516.488C603.902 516.093 604.832 515.488 605.609 514.711C606.385 513.935 606.99 513.005 607.385 511.98C607.831 510.783 608.073 509.519 608.101 508.242C608.177 506.595 608.198 506.074 608.198 501.881C608.198 497.687 608.198 497.178 608.101 495.531C608.073 494.253 607.831 492.99 607.385 491.792C606.99 490.768 606.385 489.838 605.609 489.061C604.832 488.285 603.902 487.68 602.878 487.284C601.681 486.836 600.417 486.595 599.139 486.569C597.503 486.493 596.972 486.483 592.789 486.483" fill="white"/>
<path d="M592.735 493.959C591.167 493.957 589.634 494.42 588.33 495.29C587.026 496.16 586.009 497.397 585.408 498.844C584.807 500.292 584.649 501.886 584.954 503.424C585.26 504.961 586.014 506.374 587.123 507.482C588.231 508.59 589.644 509.345 591.181 509.65C592.719 509.956 594.313 509.798 595.76 509.197C597.208 508.596 598.445 507.579 599.315 506.275C600.184 504.971 600.647 503.438 600.645 501.87C600.645 499.772 599.812 497.76 598.328 496.276C596.845 494.793 594.833 493.959 592.735 493.959V493.959ZM592.735 506.963C591.719 506.963 590.726 506.662 589.881 506.097C589.037 505.533 588.378 504.731 587.989 503.792C587.601 502.854 587.499 501.821 587.697 500.825C587.895 499.828 588.385 498.913 589.103 498.195C589.821 497.476 590.736 496.987 591.733 496.789C592.729 496.591 593.762 496.692 594.7 497.081C595.639 497.47 596.441 498.128 597.006 498.973C597.57 499.818 597.871 500.811 597.871 501.827C597.871 503.189 597.33 504.495 596.367 505.459C595.404 506.422 594.097 506.963 592.735 506.963" fill="white"/>
<path d="M602.812 493.645C602.815 494.012 602.708 494.372 602.505 494.678C602.303 494.984 602.014 495.223 601.676 495.365C601.338 495.507 600.965 495.545 600.605 495.475C600.244 495.405 599.913 495.229 599.653 494.97C599.393 494.712 599.215 494.381 599.143 494.022C599.07 493.662 599.107 493.289 599.246 492.95C599.386 492.61 599.624 492.32 599.929 492.116C600.234 491.912 600.592 491.803 600.959 491.803C601.449 491.803 601.919 491.997 602.266 492.342C602.613 492.687 602.81 493.156 602.812 493.645" fill="white"/>
<path d="M602.401 264.697C591.767 264.697 581.569 260.473 574.05 252.954C566.531 245.435 562.307 235.237 562.307 224.603V224.603C562.307 213.969 566.531 203.771 574.05 196.252C581.569 188.733 591.767 184.509 602.401 184.509V184.509C613.034 184.509 623.233 188.733 630.752 196.252C638.271 203.771 642.495 213.969 642.495 224.603V224.603C642.495 235.237 638.271 245.435 630.752 252.954C623.233 260.473 613.034 264.697 602.401 264.697V264.697Z" fill="#263238" stroke="#263238" stroke-linecap="round" stroke-linejoin="round"/>
<path d="M581.054 238.051C585.059 240.622 589.72 241.988 594.48 241.984C610.734 241.984 619.934 228.244 619.403 215.923C621.101 214.677 622.568 213.144 623.738 211.393C622.14 212.101 620.445 212.565 618.71 212.77C620.537 211.674 621.904 209.953 622.557 207.926C620.84 208.959 618.96 209.692 616.998 210.093C615.678 208.686 613.931 207.753 612.027 207.44C610.124 207.126 608.17 207.45 606.469 208.359C604.767 209.269 603.414 210.715 602.618 212.472C601.822 214.23 601.627 216.2 602.065 218.079C598.583 217.908 595.175 217.004 592.065 215.429C588.954 213.853 586.211 211.64 584.012 208.934C582.892 210.861 582.549 213.144 583.052 215.316C583.555 217.488 584.867 219.387 586.721 220.626C585.332 220.583 583.973 220.212 582.755 219.542C582.739 221.577 583.431 223.554 584.712 225.136C585.992 226.717 587.783 227.804 589.777 228.211C588.491 228.563 587.14 228.611 585.833 228.352C586.389 230.095 587.478 231.619 588.945 232.711C590.412 233.804 592.185 234.409 594.014 234.442C590.339 237.307 585.681 238.604 581.054 238.051V238.051Z" fill="white"/>
<path d="M288.117 298.387C283.987 298.387 279.95 299.611 276.516 301.906C273.082 304.2 270.405 307.462 268.825 311.277C267.244 315.093 266.831 319.291 267.637 323.342C268.442 327.393 270.431 331.113 273.351 334.034C276.272 336.954 279.992 338.943 284.043 339.748C288.094 340.554 292.292 340.141 296.108 338.56C299.923 336.98 303.185 334.303 305.479 330.869C307.774 327.435 308.998 323.398 308.998 319.268C308.993 313.732 306.791 308.424 302.876 304.509C298.961 300.594 293.653 298.392 288.117 298.387V298.387Z" fill="#808080"/>
<path d="M282.027 313.796H277.432V328.631H282.027V313.796Z" fill="white"/>
<path d="M279.708 311.856C280.251 311.86 280.783 311.703 281.237 311.405C281.69 311.106 282.045 310.679 282.256 310.179C282.467 309.678 282.524 309.126 282.421 308.593C282.318 308.06 282.058 307.569 281.676 307.184C281.293 306.798 280.805 306.535 280.272 306.427C279.74 306.32 279.188 306.373 278.685 306.58C278.183 306.786 277.754 307.138 277.451 307.589C277.149 308.04 276.988 308.571 276.988 309.115C276.986 309.473 277.056 309.829 277.192 310.16C277.327 310.492 277.527 310.794 277.78 311.049C278.033 311.303 278.333 311.506 278.664 311.644C278.994 311.783 279.349 311.855 279.708 311.856V311.856Z" fill="white"/>
<path d="M289.373 320.851C289.373 318.759 290.327 317.524 292.169 317.524C294.011 317.524 294.662 318.716 294.662 320.851V328.631H299.234V319.268C299.234 315.302 296.98 313.373 293.816 313.373C292.923 313.362 292.042 313.582 291.259 314.013C290.476 314.445 289.819 315.072 289.352 315.833V313.85H284.941V328.685H289.352L289.373 320.851Z" fill="white"/>
<path d="M629.231 446.421C626.385 446.421 623.567 445.861 620.937 444.771C618.308 443.682 615.919 442.086 613.906 440.073C611.894 438.061 610.297 435.672 609.208 433.042C608.119 430.413 607.559 427.595 607.559 424.749V424.749C607.559 419.001 609.842 413.488 613.906 409.424C617.971 405.36 623.483 403.076 629.231 403.076V403.076C634.979 403.076 640.491 405.36 644.556 409.424C648.62 413.488 650.904 419.001 650.904 424.749V424.749C650.904 427.595 650.343 430.413 649.254 433.042C648.165 435.672 646.568 438.061 644.556 440.073C642.543 442.086 640.154 443.682 637.525 444.771C634.895 445.861 632.077 446.421 629.231 446.421V446.421Z" fill="#808080"/>
<path d="M626.046 432.962C626.671 432.845 627.26 432.585 627.769 432.204C628.204 431.876 628.572 431.468 628.852 431.001C629.31 430.279 629.547 429.439 629.535 428.585C629.555 427.799 629.348 427.024 628.939 426.352C628.521 425.72 627.903 425.247 627.184 425.009C627.624 424.804 628.018 424.513 628.343 424.153C628.836 423.512 629.086 422.717 629.047 421.909C629.067 421.081 628.82 420.268 628.343 419.59C627.864 419.026 627.257 418.586 626.573 418.305C625.888 418.024 625.146 417.911 624.409 417.976H617.062V433.147H623.879C624.605 433.162 625.332 433.1 626.046 432.962V432.962ZM620.086 420.609H623.391C623.999 420.591 624.607 420.672 625.19 420.847C625.457 420.962 625.681 421.16 625.828 421.412C625.974 421.664 626.035 421.956 626.002 422.245C626.029 422.504 625.986 422.765 625.877 423.002C625.769 423.238 625.599 423.441 625.385 423.589C624.894 423.856 624.339 423.984 623.781 423.957H620.086V420.609ZM620.086 430.535V426.482H623.824C624.342 426.46 624.858 426.545 625.341 426.732C625.653 426.87 625.915 427.101 626.09 427.394C626.264 427.688 626.344 428.028 626.317 428.368C626.357 428.748 626.283 429.132 626.103 429.47C625.923 429.808 625.647 430.085 625.309 430.264C624.822 430.465 624.297 430.558 623.77 430.535H620.086Z" fill="white"/>
<path d="M632.038 432.171C633.153 433.081 634.554 433.568 635.993 433.548C636.776 433.598 637.56 433.477 638.291 433.195C639.023 432.912 639.684 432.474 640.23 431.911C640.802 431.372 641.183 430.66 641.314 429.885H638.312C638.167 430.178 637.964 430.44 637.716 430.654C637.249 431.016 636.669 431.2 636.08 431.174C635.509 431.19 634.945 431.043 634.454 430.752C634.072 430.49 633.763 430.134 633.558 429.719C633.353 429.303 633.259 428.841 633.284 428.379H641.465C641.496 427.633 641.467 426.887 641.379 426.146C641.254 425.313 640.947 424.518 640.479 423.817C640.002 423.092 639.329 422.518 638.54 422.159C637.705 421.799 636.804 421.618 635.895 421.628C635.154 421.599 634.415 421.722 633.723 421.991C633.032 422.259 632.403 422.667 631.875 423.188C631.346 423.794 630.941 424.498 630.685 425.26C630.428 426.023 630.324 426.828 630.38 427.631C630.286 428.464 630.387 429.308 630.674 430.096C630.962 430.884 631.429 431.595 632.038 432.171V432.171ZM634.14 424.694C634.373 424.473 634.649 424.302 634.951 424.192C635.253 424.082 635.575 424.035 635.895 424.055C636.532 424.038 637.152 424.254 637.64 424.662C637.884 424.89 638.079 425.165 638.213 425.47C638.347 425.776 638.418 426.105 638.42 426.439H633.36C633.425 425.789 633.699 425.177 634.14 424.694V424.694Z" fill="white"/>
<path d="M639.006 418.843H632.396V420.382H639.006V418.843Z" fill="white"/>
<path d="M471.444 157.386C465.697 157.386 460.184 155.102 456.12 151.038C452.055 146.973 449.772 141.461 449.772 135.713C449.772 129.965 452.055 124.453 456.12 120.388C460.184 116.324 465.697 114.041 471.444 114.041V114.041C477.192 114.041 482.705 116.324 486.769 120.388C490.834 124.453 493.117 129.965 493.117 135.713C493.117 141.461 490.834 146.973 486.769 151.038C482.705 155.102 477.192 157.386 471.444 157.386Z" fill="#808080"/>
<path d="M521.703 173.618H348.268C339.579 173.618 332.534 180.663 332.534 189.352V557.742C332.534 566.432 339.579 573.476 348.268 573.476H521.703C530.392 573.476 537.437 566.432 537.437 557.742V189.352C537.437 180.663 530.392 173.618 521.703 173.618Z" fill="#263238"/>
<path opacity="0.2" d="M350.186 173.618C345.505 173.618 341.015 175.478 337.704 178.788C334.394 182.099 332.534 186.589 332.534 191.27V555.813C332.531 558.397 333.097 560.949 334.19 563.29C335.284 565.631 336.879 567.703 338.863 569.358L458.408 173.618H350.186Z" fill="white"/>
<path d="M441.937 561.903C441.937 560.524 441.528 559.177 440.762 558.031C439.996 556.885 438.907 555.991 437.633 555.464C436.359 554.937 434.958 554.8 433.606 555.07C432.254 555.339 431.012 556.004 430.038 556.98C429.064 557.955 428.402 559.198 428.134 560.55C427.866 561.902 428.006 563.304 428.535 564.577C429.064 565.85 429.959 566.937 431.106 567.701C432.253 568.466 433.601 568.873 434.98 568.87C435.895 568.87 436.8 568.69 437.645 568.34C438.49 567.99 439.257 567.476 439.903 566.829C440.549 566.182 441.061 565.414 441.41 564.568C441.759 563.723 441.938 562.817 441.937 561.903V561.903Z" stroke="white" stroke-linecap="round" stroke-linejoin="round"/>
<path d="M521.703 173.618H348.268C339.579 173.618 332.534 180.663 332.534 189.352V557.742C332.534 566.432 339.579 573.476 348.268 573.476H521.703C530.392 573.476 537.437 566.432 537.437 557.742V189.352C537.437 180.663 530.392 173.618 521.703 173.618Z" stroke="#263238" stroke-linecap="round" stroke-linejoin="round"/>
<path d="M528.312 200.774H341.636V549.745H528.312V200.774Z" fill="#1CB8AA" stroke="#263238" stroke-linecap="round" stroke-linejoin="round"/>
<path d="M432.043 479.114C479.316 479.114 517.638 440.792 517.638 393.518C517.638 346.245 479.316 307.923 432.043 307.923C384.77 307.923 346.447 346.245 346.447 393.518C346.447 440.792 384.77 479.114 432.043 479.114Z" fill="#263238"/>
<path d="M522.613 242.656H348.095V282.393H522.613V242.656Z" fill="white"/>
<path d="M522.613 503.561H348.095V543.297H522.613V503.561Z" fill="white"/>
<path d="M522.613 489.744H348.095V491.467H522.613V489.744Z" fill="white"/>
<path d="M522.613 497.514H348.095V499.237H522.613V497.514Z" fill="white"/>
<path d="M521.962 204.393H506.488V212.878H521.962V204.393Z" stroke="#263238" stroke-width="0.821067" stroke-linecap="round" stroke-linejoin="round"/>
<path d="M518.56 204.393H506.488V212.878H518.56V204.393Z" fill="#263238" stroke="#263238" stroke-width="0.725073" stroke-linecap="round" stroke-linejoin="round"/>
<path d="M524.108 206.767H521.93V210.505H524.108V206.767Z" fill="#263238" stroke="#263238" stroke-width="0.725073" stroke-linecap="round" stroke-linejoin="round"/>
<path d="M348.68 207.026H345.841V211.892H348.68V207.026Z" fill="#263238" stroke="#263238" stroke-width="0.883086" stroke-linecap="round" stroke-linejoin="round"/>
<path d="M353.145 205.314H350.306V211.892H353.145V205.314Z" fill="#263238" stroke="#263238" stroke-width="0.883086" stroke-linecap="round" stroke-linejoin="round"/>
<path d="M357.598 203.299H354.759V211.892H357.598V203.299Z" fill="#263238" stroke="#263238" stroke-width="0.883086" stroke-linecap="round" stroke-linejoin="round"/>
<path d="M523.902 217.592H344.649V231.072H523.902V217.592Z" fill="#263238"/>
<path d="M342.136 474.227C342.136 474.227 364.979 394.689 369.291 377.687C373.604 360.684 380.128 349.621 393.586 346.922C407.045 344.224 431.892 341.721 431.892 341.721C431.892 341.721 453.489 339.554 469.137 340.637C484.784 341.721 499.099 350.087 506.652 355.808C514.205 361.53 536.072 381.176 536.072 381.176L533.374 335.837L553.074 337.452C553.074 337.452 567.378 400.605 569.264 412.222C571.149 423.838 571.16 428.964 569.264 430.307C567.367 431.651 570.618 432.475 553.345 426.796C536.072 421.118 515.83 413.305 504.766 410.065C493.702 406.825 492.348 406.283 492.348 406.283C492.348 406.283 465.257 447.049 456.642 459.197C450.729 467.822 445.47 476.877 440.908 486.287" fill="white"/>
<path opacity="0.2" d="M569.231 430.221C571.128 428.878 571.128 423.719 569.231 412.136C568.148 405.211 562.567 379.952 558.276 360.685C559.977 383.441 560.638 405.677 557.192 409.827C549.607 418.8 538.521 407.01 538.521 407.01L536.408 389.52C536.408 389.52 498.633 361.66 484.459 356.936C470.285 352.211 455.201 351.268 440.54 355.993C425.878 360.717 413.623 365.442 404.65 374.415C395.678 383.387 364.556 455.166 364.556 455.166L361.034 476.481L440.876 486.147C445.437 476.737 450.697 467.682 456.61 459.056C465.279 446.909 492.315 406.143 492.315 406.143C492.315 406.143 493.67 406.685 504.734 409.925C515.798 413.165 536.04 420.989 553.313 426.656C570.586 432.323 567.346 431.576 569.231 430.221Z" fill="black"/>
<path d="M342.136 474.227C342.136 474.227 364.979 394.689 369.291 377.687C373.604 360.684 380.128 349.621 393.586 346.922C407.045 344.224 431.892 341.721 431.892 341.721C431.892 341.721 453.489 339.554 469.137 340.637C484.784 341.721 499.099 350.087 506.652 355.808C514.205 361.53 536.072 381.176 536.072 381.176L533.374 335.837L553.074 337.452C553.074 337.452 567.378 400.605 569.264 412.222C571.149 423.838 571.16 428.964 569.264 430.307C567.367 431.651 570.618 432.475 553.345 426.796C536.072 421.118 515.83 413.305 504.766 410.065C493.702 406.825 492.348 406.283 492.348 406.283C492.348 406.283 465.257 447.049 456.642 459.197C450.729 467.822 445.47 476.877 440.908 486.287" stroke="#263238" stroke-linecap="round" stroke-linejoin="round"/>
<path d="M500.02 393.681L492.315 406.208L515.115 393.681" stroke="#263238" stroke-linecap="round" stroke-linejoin="round"/>
<path d="M536.039 381.1C536.039 381.1 537.123 403.499 538.466 407.01C539.81 410.521 545.759 412.135 545.759 412.135" fill="white"/>
<path d="M536.039 381.1C536.039 381.1 537.123 403.499 538.466 407.01C539.81 410.521 545.759 412.135 545.759 412.135" stroke="#263238" stroke-linecap="round" stroke-linejoin="round"/>
<path d="M417.112 380.417C417.112 380.417 414.164 387.407 415.638 387.407C417.112 387.407 426.68 383.733 431.102 383.733C435.523 383.733 440.302 391.459 440.302 391.459C440.302 391.459 453.186 381.891 457.239 382.996C459.223 383.661 461.044 384.739 462.581 386.16C462.837 386.384 463.151 386.53 463.487 386.582C463.822 386.635 464.166 386.591 464.478 386.456C464.789 386.321 465.057 386.1 465.248 385.82C465.44 385.539 465.548 385.21 465.561 384.871C465.637 382.888 465.702 380.179 465.702 376.733C465.702 368.638 458.712 346.554 445.828 345.449C432.944 344.343 430.733 353.543 425.239 364.585C419.745 375.628 417.112 380.417 417.112 380.417Z" fill="#263238"/>
<path d="M444.82 332.792C444.82 332.792 432.402 334.439 426.734 339.857C421.067 345.275 422.952 353.89 419.983 361.714C417.014 369.538 411.888 385.467 414.565 385.196C417.242 384.925 426.712 377.372 429.411 379.258C432.109 381.143 438.318 389.01 439.402 389.509C440.485 390.007 454.247 380.071 456.133 378.987C458.018 377.903 467.197 389.823 467.468 386.572C467.739 383.321 468.28 364.174 466.384 352.568C464.488 340.963 451.029 333.063 444.82 332.792Z" fill="white" stroke="#263238" stroke-linecap="round" stroke-linejoin="round"/>
<path d="M449.133 317.676C449.133 317.676 444.549 331.709 440.746 336.607C436.942 341.505 435.327 342.274 434.005 353.609C432.683 364.944 438.589 390.582 440.507 390.04C442.425 389.498 461.02 359.818 467.229 354.952C473.439 350.087 479.919 344.972 479.919 344.972C479.919 344.972 464.802 340.378 459.677 333.908C455.803 328.739 452.281 323.316 449.133 317.676V317.676Z" fill="white"/>
<path opacity="0.2" d="M469.906 352.861C475.161 348.733 479.908 344.983 479.908 344.983C479.908 344.983 464.791 340.389 459.665 333.919C455.797 328.76 452.278 323.348 449.133 317.719C447.561 322.47 445.727 327.129 443.639 331.676C445.925 338.081 452.297 348.527 469.906 352.861Z" fill="black"/>
<path d="M459.665 333.876C455.797 328.717 452.278 323.305 449.132 317.676C449.132 317.676 447.594 322.39 445.567 327.298C447.247 332.164 450.617 339.402 456.653 343.672C461.534 346.928 466.947 349.305 472.647 350.694L479.907 344.972C479.907 344.972 464.791 340.345 459.665 333.876Z" fill="#263238"/>
<path d="M449.133 317.676C449.133 317.676 444.549 331.709 440.746 336.607C436.942 341.505 435.327 342.274 434.005 353.609C432.683 364.944 438.589 390.582 440.507 390.04C442.425 389.498 461.02 359.818 467.229 354.952C473.439 350.087 479.919 344.972 479.919 344.972C479.919 344.972 464.802 340.378 459.677 333.908C455.803 328.739 452.281 323.316 449.133 317.676V317.676Z" stroke="#263238" stroke-linecap="round" stroke-linejoin="round"/>
<path d="M506.619 281.786C506.619 281.786 505.817 299.872 506.348 305.799C506.879 311.727 509.046 322.054 504.181 331.709C499.315 341.364 495.274 347.638 490.69 349.253C486.106 350.867 471.26 347.638 459.384 338.731C447.507 329.823 445.351 311.477 443.455 305.539C441.558 299.601 443.725 279.359 455.873 272.879C465.708 267.816 477.119 266.752 487.721 269.909C494.212 272.066 506.619 281.786 506.619 281.786Z" fill="white"/>
<path opacity="0.2" d="M455.916 272.879C454.184 273.817 452.614 275.028 451.268 276.465L457.52 280.908C457.52 280.908 465.55 272.879 483.527 284.213C492.803 290.065 500.8 291.008 506.381 290.542C506.511 285.73 506.684 281.786 506.684 281.786C506.684 281.786 494.277 272.033 487.797 269.866C477.18 266.713 465.755 267.793 455.916 272.879V272.879Z" fill="black"/>
<path d="M506.619 281.786C506.619 281.786 505.817 299.872 506.348 305.799C506.879 311.727 509.046 322.054 504.181 331.709C499.315 341.364 495.274 347.638 490.69 349.253C486.106 350.867 471.26 347.638 459.384 338.731C447.507 329.823 445.351 311.477 443.455 305.539C441.558 299.601 443.725 279.359 455.873 272.879C465.708 267.816 477.119 266.752 487.721 269.909C494.212 272.066 506.619 281.786 506.619 281.786Z" stroke="#263238" stroke-linecap="round" stroke-linejoin="round"/>
<path d="M481.132 306.178C481.132 308.096 480.385 309.657 479.464 309.657C478.543 309.657 477.795 308.096 477.795 306.178C477.795 304.26 478.543 302.689 479.464 302.689C480.385 302.689 481.132 304.249 481.132 306.178Z" fill="#263238"/>
<path d="M500.843 307.988C500.843 309.917 500.096 311.477 499.175 311.477C498.254 311.477 497.506 309.917 497.506 307.988C497.506 306.059 498.254 304.51 499.175 304.51C500.096 304.51 500.843 306.07 500.843 307.988Z" fill="#263238"/>
<path d="M495.556 302.841C495.556 302.841 490.43 307.966 491.774 310.123C493.117 312.279 496.26 313.493 495.285 316.625C494.309 319.756 487.19 320.959 484.763 316.625" stroke="#263238" stroke-linecap="round" stroke-linejoin="round"/>
<path d="M469.375 319.572C471.388 322.014 473.898 324 476.738 325.395C479.578 326.791 482.683 327.566 485.846 327.667C485.846 327.667 474.772 334.949 469.917 334.169C465.062 333.388 469.375 319.572 469.375 319.572Z" fill="#263238" stroke="#263238" stroke-linecap="round" stroke-linejoin="round"/>
<path d="M471.965 295.884C471.965 295.884 476.668 289.382 486.052 293.424" stroke="#263238" stroke-linecap="round" stroke-linejoin="round"/>
<path d="M497.441 296.09C497.441 296.09 503.38 294.724 505.536 300.424" stroke="#263238" stroke-linecap="round" stroke-linejoin="round"/>
<path d="M445.362 312.821C445.362 312.821 447.79 302.299 453.728 298.517C459.666 294.735 465.333 295.548 461.822 290.422C458.312 285.297 456.404 280.16 463.99 277.733C471.575 275.306 486.388 279.359 495.025 282.599C503.661 285.839 520.392 286.933 524.716 274.764C527.382 267.265 519.58 261.295 513.88 258.228C507.562 254.847 500.475 253.167 493.345 254.424C489.011 255.172 484.882 256.873 480.548 257.307C473.211 258.055 466.742 254.652 459.428 256.418C453.288 257.884 447.792 261.307 443.769 266.171C436.997 274.493 435.1 289.61 445.362 312.821Z" fill="#263238"/>
<path d="M507.855 253.915C507.855 253.915 521.877 261.5 512.059 274.103C502.241 286.706 492.998 278.037 469.711 273.55C446.424 269.064 432.694 280.561 432.694 280.561" stroke="#808080" stroke-linecap="round" stroke-linejoin="round"/>
<path d="M434.656 294.345C434.656 294.345 439.142 285.676 453.728 283.13C468.313 280.583 469.158 282.848 469.158 282.848" stroke="#808080" stroke-linecap="round" stroke-linejoin="round"/>
<path d="M445.362 312.821C445.362 312.821 447.79 302.299 453.728 298.517C459.666 294.735 465.333 295.548 461.822 290.422C458.312 285.297 456.404 280.16 463.99 277.733C471.575 275.306 486.388 279.359 495.025 282.599C503.661 285.839 520.392 286.933 524.716 274.764C527.382 267.265 519.58 261.295 513.88 258.228C507.562 254.847 500.475 253.167 493.345 254.424C489.011 255.172 484.882 256.873 480.548 257.307C473.211 258.055 466.742 254.652 459.428 256.418C453.288 257.884 447.792 261.307 443.769 266.171C436.997 274.493 435.1 289.61 445.362 312.821Z" stroke="#263238" stroke-linecap="round" stroke-linejoin="round"/>
<path d="M451.463 308.985C451.463 308.985 444.462 292.958 438.297 301.302C432.131 309.646 443.303 320.201 451.69 318.153" fill="white"/>
<path d="M451.463 308.985C451.463 308.985 444.462 292.958 438.297 301.302C432.131 309.646 443.303 320.201 451.69 318.153" stroke="#263238" stroke-linecap="round" stroke-linejoin="round"/>
<path d="M527.674 307.153C527.674 307.153 523.09 306.612 522.256 310.404C521.421 314.197 520.63 320.157 522.256 320.157C523.881 320.157 526.839 319.355 527.923 316.906C529.007 314.457 530.09 306.915 530.09 306.915L527.674 307.153Z" fill="white" stroke="#263238" stroke-linecap="round" stroke-linejoin="round"/>
<path d="M534.957 305.799C534.957 305.799 528.455 304.715 527.675 307.154C526.895 309.592 525.789 317.99 526.591 318.217C527.393 318.445 532.259 316.332 532.259 316.332L534.957 305.799Z" fill="white" stroke="#263238" stroke-linecap="round" stroke-linejoin="round"/>
<path d="M543.593 306.341C543.593 306.341 536.007 301.486 534.154 303.914C532.301 306.341 532.258 316.332 532.258 316.332C532.929 316.48 533.626 316.459 534.286 316.269C534.946 316.08 535.549 315.729 536.04 315.248C537.394 313.634 539.009 311.477 539.009 311.477C539.009 311.477 544.427 312.821 545.218 312.561C546.009 312.301 547.916 312.561 547.385 309.863C546.854 307.164 543.593 306.341 543.593 306.341Z" fill="white" stroke="#263238" stroke-linecap="round" stroke-linejoin="round"/>
<path d="M553.855 311.206C550.449 308.852 547.67 305.702 545.76 302.028C543.062 296.361 541.707 296.61 540.342 299.059C538.976 301.508 540.602 303.914 541.685 306.07C542.769 308.226 547.353 313.363 547.353 313.363L553.855 311.206Z" fill="white" stroke="#263238" stroke-linecap="round" stroke-linejoin="round"/>
<path d="M505.308 348.96C505.308 348.96 501.397 382.368 502.003 384.178C502.61 385.987 509.22 388.09 510.727 386.887C512.233 385.684 511.333 383.278 510.727 381.772C510.12 380.266 515.841 352.276 515.841 352.276L505.308 348.96Z" fill="#1CB8AA" stroke="#263238" stroke-linecap="round" stroke-linejoin="round"/>
<path d="M406.752 360.533L426.561 422.398C426.561 422.398 472.073 395.892 482.736 382.065C493.399 368.238 499.554 352.645 503.325 351.182C507.096 349.719 520.403 353.349 522.354 355.516C524.304 357.683 523.849 360.057 521.487 362.289C519.124 364.521 517.781 364.835 517.781 364.835C517.781 364.835 517.662 369.701 516.6 370.546C515.538 371.391 515.787 370.297 515.516 371.38C515.332 372.539 514.907 373.646 514.27 374.631C513.49 375.715 513.186 376.278 512.438 376.571C510.886 377.232 509.27 377.733 507.616 378.066C504.704 378.817 501.742 379.361 498.752 379.692C496.878 380.017 484.665 404.149 473.2 418.529C461.736 432.909 425.521 465.883 419.832 466.057C414.143 466.23 380.724 411.03 373.561 397.474" fill="white"/>
<path opacity="0.2" d="M514.27 374.609C514.907 373.624 515.332 372.517 515.516 371.358C515.754 370.275 515.516 371.358 516.6 370.524C517.683 369.689 517.781 364.813 517.781 364.813C517.781 364.813 519.124 364.499 521.487 362.267C523.849 360.034 524.315 357.596 522.354 355.494C520.392 353.392 507.064 349.751 503.325 351.159C502.35 351.539 501.158 352.893 499.857 354.93C501.841 358.181 504.192 360.164 502.025 365.843C498.774 374.512 491.188 385.348 484.687 394.559C478.185 403.769 424.004 454.7 417.502 453.616C412.192 452.728 396.772 434.111 391.289 427.36C403.036 446.204 416.473 466.11 419.886 466.013C425.553 465.839 461.811 432.876 473.254 418.485C484.698 404.094 496.878 379.951 498.752 379.67C501.742 379.338 504.704 378.795 507.616 378.044C509.27 377.711 510.886 377.21 512.438 376.549C513.24 376.256 513.49 375.714 514.27 374.609Z" fill="black"/>
<path d="M406.752 360.533L426.561 422.398C426.561 422.398 472.073 395.892 482.736 382.065C493.399 368.238 499.554 352.645 503.325 351.182C507.096 349.719 520.403 353.349 522.354 355.516C524.304 357.683 523.849 360.057 521.487 362.289C519.124 364.521 517.781 364.835 517.781 364.835C517.781 364.835 517.662 369.701 516.6 370.546C515.538 371.391 515.787 370.297 515.516 371.38C515.332 372.539 514.907 373.646 514.27 374.631C513.49 375.715 513.186 376.278 512.438 376.571C510.886 377.232 509.27 377.733 507.616 378.066C504.704 378.817 501.742 379.361 498.752 379.692C496.878 380.017 484.665 404.149 473.2 418.529C461.736 432.909 425.521 465.883 419.832 466.057C414.143 466.23 380.724 411.03 373.561 397.474" stroke="#263238" stroke-linecap="round" stroke-linejoin="round"/>
<path d="M426.561 422.397C426.561 422.397 421.37 422.614 416.971 436.485" stroke="#263238" stroke-linecap="round" stroke-linejoin="round"/>
<path d="M507.616 378.044C509.27 377.711 510.886 377.21 512.438 376.549C513.24 376.256 513.522 375.714 514.27 374.609C514.907 373.624 515.332 372.517 515.516 371.358C515.754 370.275 516.459 369.906 517.51 369.061C518.561 368.216 517.748 364.813 517.748 364.813C517.748 364.813 519.092 364.499 521.454 362.267C523.817 360.034 524.282 357.596 522.321 355.494C520.36 353.392 507.031 349.751 503.293 351.159C499.554 352.568 493.898 366.948 484.091 380.309L493.215 387.786C496.076 383.018 498.113 379.789 498.785 379.67C501.763 379.337 504.715 378.794 507.616 378.044Z" fill="white"/>
<path opacity="0.2" d="M514.27 374.609C514.907 373.624 515.332 372.517 515.516 371.358C515.754 370.275 515.516 371.358 516.6 370.524C517.683 369.689 517.781 364.813 517.781 364.813C517.781 364.813 519.124 364.499 521.487 362.267C523.849 360.034 524.315 357.596 522.354 355.494C520.392 353.392 507.064 349.751 503.325 351.159C502.35 351.539 501.158 352.893 499.857 354.93C501.841 358.181 504.192 360.164 502.025 365.843C498.774 374.512 491.188 385.348 484.687 394.559C478.185 403.769 424.004 454.7 417.502 453.616C412.192 452.728 396.772 434.111 391.289 427.36C403.036 446.204 416.473 466.11 419.886 466.013C425.553 465.839 461.811 432.876 473.254 418.485C484.698 404.094 496.878 379.951 498.752 379.67C501.742 379.338 504.704 378.795 507.616 378.044C509.27 377.711 510.886 377.21 512.438 376.549C513.24 376.256 513.49 375.714 514.27 374.609Z" fill="black"/>
<path d="M507.616 378.044C509.27 377.711 510.886 377.21 512.438 376.549C513.24 376.256 513.522 375.714 514.27 374.609C514.907 373.624 515.332 372.517 515.516 371.358C515.754 370.275 516.459 369.906 517.51 369.061C518.561 368.216 517.748 364.813 517.748 364.813C517.748 364.813 519.092 364.499 521.454 362.267C523.817 360.034 524.282 357.596 522.321 355.494C520.36 353.392 507.031 349.751 503.293 351.159C499.554 352.568 493.898 366.948 484.091 380.309L493.215 387.786C496.076 383.018 498.113 379.789 498.785 379.67C501.763 379.337 504.715 378.794 507.616 378.044Z" stroke="#263238" stroke-linecap="round" stroke-linejoin="round"/>
<path d="M495.826 327.125C492.846 327.125 490.408 331.459 490.408 336.704C490.408 341.949 492.825 346.283 495.826 346.283L561.927 366.254V306.341L495.826 327.125Z" fill="#1CB8AA" stroke="#263238" stroke-linecap="round" stroke-linejoin="round"/>
<path d="M533.017 319.149L507.227 326.572" stroke="#263238" stroke-linecap="round" stroke-linejoin="round"/>
<path d="M541.643 316.668L536.246 318.228" stroke="#263238" stroke-linecap="round" stroke-linejoin="round"/>
<path d="M504.289 324.459L495.826 327.125C492.846 327.125 490.408 331.459 490.408 336.704C490.408 341.949 492.825 346.283 495.826 346.283L503.466 348.591C501.67 344.794 500.808 340.623 500.951 336.425C501.094 332.227 502.239 328.125 504.289 324.459Z" fill="#263238" stroke="#263238" stroke-linecap="round" stroke-linejoin="round"/>
<path d="M567.617 376.939C580.137 376.939 590.286 358.925 590.286 336.704C590.286 314.483 580.137 296.469 567.617 296.469C555.097 296.469 544.947 314.483 544.947 336.704C544.947 358.925 555.097 376.939 567.617 376.939Z" fill="#D6D6D6" stroke="#263238" stroke-linecap="round" stroke-linejoin="round"/>
<path d="M567.617 327.775L546.02 321.999L544.135 337.387L546.562 353.034L567.617 345.633L568.43 328.208" fill="#D6D6D6"/>
<path d="M567.617 327.775L546.02 321.999L544.135 337.387L546.562 353.034L567.617 345.633L568.43 328.208" stroke="#263238" stroke-linecap="round" stroke-linejoin="round"/>
<path d="M567.617 292.85C553.974 292.85 542.91 312.485 542.91 336.704C542.91 360.923 553.974 380.558 567.617 380.558C581.26 380.558 592.323 360.923 592.323 336.704C592.323 312.485 581.26 292.85 567.617 292.85ZM568.224 374.338C556.856 374.338 547.635 357.488 547.635 336.704C547.635 315.92 556.856 299.08 568.224 299.08C579.591 299.08 588.813 315.92 588.813 336.704C588.813 357.488 579.602 374.338 568.224 374.338Z" fill="#263238" stroke="#263238" stroke-linecap="round" stroke-linejoin="round"/>
<path d="M567.617 345.633C570.394 345.633 572.645 341.635 572.645 336.704C572.645 331.773 570.394 327.775 567.617 327.775C564.84 327.775 562.589 331.773 562.589 336.704C562.589 341.635 564.84 345.633 567.617 345.633Z" fill="#1CB8AA" stroke="#263238" stroke-linecap="round" stroke-linejoin="round"/>
<path d="M631.334 291.214L636.351 289.653" stroke="#263238" stroke-linecap="round" stroke-linejoin="round"/>
<path d="M595.412 302.331L625.147 293.121" stroke="#263238" stroke-linecap="round" stroke-linejoin="round"/>
<path d="M599.312 334.494L626.598 335.469" stroke="#263238" stroke-linecap="round" stroke-linejoin="round"/>
<path d="M621.917 374.577L627.574 376.397" stroke="#263238" stroke-linecap="round" stroke-linejoin="round"/>
<path d="M597.362 366.655L617.431 373.135" stroke="#263238" stroke-linecap="round" stroke-linejoin="round"/>
<path d="M598.338 316.95L612.956 314.999" stroke="#263238" stroke-linecap="round" stroke-linejoin="round"/>
<path d="M591.51 377.373L602.238 386.15" stroke="#263238" stroke-linecap="round" stroke-linejoin="round"/>
</svg>
