<svg width="843" height="808" viewBox="0 0 843 808" fill="none" xmlns="http://www.w3.org/2000/svg">
<path d="M832.575 420.916C741.076 689.917 943.075 711.416 614.576 780.916C286.076 850.416 259.575 783.417 61.5752 592.416C-136.425 401.416 198.576 176.416 288.576 38.9164C378.575 -98.5836 924.075 151.915 832.575 420.916Z" fill="#F3F7F9"/>
<path d="M748.071 482.46C747.682 468.256 748.793 444.033 736.254 434.06C725.238 425.303 716.673 437.187 713.581 446.774C706.092 470.03 709.608 495.675 709.631 519.682C709.631 520.046 709.631 520.41 709.631 520.819C709.047 538.492 706.905 557.609 708.852 575.247C708.852 575.247 706.94 557.574 692.97 565.148C678.999 572.722 699.955 612.469 699.955 612.469C699.955 612.469 683.442 600.482 675.816 610.581C668.19 620.679 685.343 632.029 685.343 632.029C685.343 632.029 669.461 627.617 669.461 632.029C669.461 636.442 674.545 640.228 689.156 642.128H767.916C767.916 642.128 780.626 635.179 778.084 627.617C775.542 620.054 762.19 624.41 762.19 624.41C762.19 624.41 782.527 599.8 781.256 589.076C779.985 578.352 753.934 590.975 753.934 590.975C753.934 590.975 774.259 539.868 770.446 517.157C767.446 499.269 753.465 511.471 745.85 518.385C747.642 506.497 748.385 494.477 748.071 482.46Z" fill="#009C8E" stroke="white" stroke-linecap="round" stroke-linejoin="round"/>
<path opacity="0.5" d="M748.071 482.46C747.682 468.256 748.793 444.033 736.254 434.06C725.238 425.303 716.673 437.187 713.581 446.774C706.092 470.03 709.608 495.675 709.631 519.682C709.631 520.046 709.631 520.41 709.631 520.819C709.047 538.492 706.905 557.609 708.852 575.247C708.852 575.247 706.94 557.574 692.97 565.148C678.999 572.722 699.955 612.469 699.955 612.469C699.955 612.469 683.442 600.482 675.816 610.581C668.19 620.679 685.343 632.029 685.343 632.029C685.343 632.029 669.461 627.617 669.461 632.029C669.461 636.442 674.545 640.228 689.156 642.128H767.916C767.916 642.128 780.626 635.179 778.084 627.617C775.542 620.054 762.19 624.41 762.19 624.41C762.19 624.41 782.527 599.8 781.256 589.076C779.985 578.352 753.934 590.975 753.934 590.975C753.934 590.975 774.259 539.868 770.446 517.157C767.446 499.269 753.465 511.471 745.85 518.385C747.642 506.497 748.385 494.477 748.071 482.46Z" fill="white"/>
<path d="M722.799 641.445L728.524 467.938" stroke="white" stroke-linecap="round" stroke-linejoin="round"/>
<path d="M725.982 568.89L755.835 541.13" stroke="white" stroke-linecap="round" stroke-linejoin="round"/>
<path d="M739.953 556.266L746.308 538.605" stroke="white" stroke-linecap="round" stroke-linejoin="round"/>
<path d="M701.203 590.338L724.071 614.948" stroke="white" stroke-linecap="round" stroke-linejoin="round"/>
<path d="M762.19 604.224L724.07 623.784" stroke="white" stroke-linecap="round" stroke-linejoin="round"/>
<path d="M741.865 615.573L755.835 614.948" stroke="white" stroke-linecap="round" stroke-linejoin="round"/>
<path d="M722.799 641.445L728.524 467.938" stroke="#009C8E" stroke-linecap="round" stroke-linejoin="round"/>
<path d="M725.982 568.89L755.835 541.13" stroke="#009C8E" stroke-linecap="round" stroke-linejoin="round"/>
<path d="M739.953 556.266L746.308 538.605" stroke="#009C8E" stroke-linecap="round" stroke-linejoin="round"/>
<path d="M701.203 590.338L724.071 614.948" stroke="#009C8E" stroke-linecap="round" stroke-linejoin="round"/>
<path d="M762.19 604.224L724.07 623.784" stroke="#009C8E" stroke-linecap="round" stroke-linejoin="round"/>
<path d="M741.865 615.573L755.835 614.948" stroke="#009C8E" stroke-linecap="round" stroke-linejoin="round"/>
<g opacity="0.8">
<path opacity="0.8" d="M722.799 641.445L728.525 467.938" stroke="white" stroke-linecap="round" stroke-linejoin="round"/>
<path opacity="0.8" d="M725.982 568.889L755.835 541.13" stroke="white" stroke-linecap="round" stroke-linejoin="round"/>
<path opacity="0.8" d="M739.953 556.266L746.308 538.605" stroke="white" stroke-linecap="round" stroke-linejoin="round"/>
<path opacity="0.8" d="M701.203 590.338L724.071 614.948" stroke="white" stroke-linecap="round" stroke-linejoin="round"/>
<path opacity="0.8" d="M762.19 604.223L724.07 623.784" stroke="white" stroke-linecap="round" stroke-linejoin="round"/>
<path opacity="0.8" d="M741.865 615.573L755.835 614.948" stroke="white" stroke-linecap="round" stroke-linejoin="round"/>
</g>
<path d="M613.673 606.384C613.673 624.023 627.746 638.329 627.746 638.329C627.746 638.329 641.819 624.023 641.819 606.384C641.819 588.746 627.746 574.439 627.746 574.439C627.746 574.439 613.673 588.734 613.673 606.384Z" fill="#009C8E"/>
<path d="M603.916 633.598C610.787 641.252 622.398 642.082 622.398 642.082C622.398 642.082 622.959 630.494 616.134 622.84C609.309 615.187 597.652 614.356 597.652 614.356C597.652 614.356 597.08 625.945 603.916 633.598Z" fill="#009C8E"/>
<path d="M639.78 622.579C632.601 629.914 632.646 641.514 632.646 641.514C632.646 641.514 644.315 641.206 651.483 633.86C658.651 626.513 658.629 614.925 658.629 614.925C658.629 614.925 646.949 615.232 639.78 622.579Z" fill="#009C8E"/>
<g opacity="0.5">
<path opacity="0.5" d="M613.672 606.384C613.672 624.023 627.745 638.329 627.745 638.329C627.745 638.329 641.818 624.023 641.818 606.384C641.818 588.746 627.745 574.439 627.745 574.439C627.745 574.439 613.672 588.734 613.672 606.384Z" fill="white"/>
<path opacity="0.5" d="M627.745 638.329V574.439" stroke="white" stroke-linecap="round" stroke-linejoin="round"/>
<path opacity="0.5" d="M627.745 597.15L619.867 590.315" stroke="white" stroke-linecap="round" stroke-linejoin="round"/>
<path opacity="0.5" d="M627.871 607.704L637.627 593.67" stroke="white" stroke-linecap="round" stroke-linejoin="round"/>
<path opacity="0.5" d="M627.745 613.788L616.111 603.484" stroke="white" stroke-linecap="round" stroke-linejoin="round"/>
<path opacity="0.5" d="M627.871 621.987L639.379 611.809" stroke="white" stroke-linecap="round" stroke-linejoin="round"/>
<path opacity="0.5" d="M627.871 629.072L618.859 621.987" stroke="white" stroke-linecap="round" stroke-linejoin="round"/>
<path opacity="0.5" d="M603.916 633.598C610.787 641.252 622.398 642.082 622.398 642.082C622.398 642.082 622.959 630.494 616.134 622.84C609.309 615.187 597.652 614.356 597.652 614.356C597.652 614.356 597.08 625.945 603.916 633.598Z" fill="white"/>
<path opacity="0.5" d="M622.398 642.082L597.652 614.356" stroke="white" stroke-linecap="round" stroke-linejoin="round"/>
<path opacity="0.5" d="M606.447 624.216L600.378 624.262" stroke="white" stroke-linecap="round" stroke-linejoin="round"/>
<path opacity="0.5" d="M610.592 628.742L609.39 618.928" stroke="white" stroke-linecap="round" stroke-linejoin="round"/>
<path opacity="0.5" d="M612.893 631.438L603.858 631.404" stroke="white" stroke-linecap="round" stroke-linejoin="round"/>
<path opacity="0.5" d="M616.123 634.94L617.165 626.127" stroke="white" stroke-linecap="round" stroke-linejoin="round"/>
<path opacity="0.5" d="M618.871 638.011L612.218 638.386" stroke="white" stroke-linecap="round" stroke-linejoin="round"/>
<path opacity="0.5" d="M639.78 622.579C632.601 629.914 632.646 641.514 632.646 641.514C632.646 641.514 644.315 641.206 651.483 633.86C658.651 626.513 658.629 614.925 658.629 614.925C658.629 614.925 646.949 615.232 639.78 622.579Z" fill="white"/>
<path opacity="0.5" d="M632.646 641.514L658.629 614.925" stroke="white" stroke-linecap="round" stroke-linejoin="round"/>
<path opacity="0.5" d="M649.388 624.375L648.896 618.371" stroke="white" stroke-linecap="round" stroke-linejoin="round"/>
<path opacity="0.5" d="M645.15 628.822L654.918 626.889" stroke="white" stroke-linecap="round" stroke-linejoin="round"/>
<path opacity="0.5" d="M642.62 631.301L641.979 622.351" stroke="white" stroke-linecap="round" stroke-linejoin="round"/>
<path opacity="0.5" d="M639.334 634.758L648.266 635.145" stroke="white" stroke-linecap="round" stroke-linejoin="round"/>
<path opacity="0.5" d="M636.459 637.704L635.589 631.153" stroke="white" stroke-linecap="round" stroke-linejoin="round"/>
</g>
<path d="M627.745 638.329V574.439" stroke="#009C8E" stroke-linecap="round" stroke-linejoin="round"/>
<path d="M627.745 597.15L619.867 590.315" stroke="#009C8E" stroke-linecap="round" stroke-linejoin="round"/>
<path d="M627.871 607.704L637.627 593.67" stroke="#009C8E" stroke-linecap="round" stroke-linejoin="round"/>
<path d="M627.745 613.788L616.111 603.484" stroke="#009C8E" stroke-linecap="round" stroke-linejoin="round"/>
<path d="M627.871 621.987L639.379 611.809" stroke="#009C8E" stroke-linecap="round" stroke-linejoin="round"/>
<path d="M627.871 629.072L618.859 621.987" stroke="#009C8E" stroke-linecap="round" stroke-linejoin="round"/>
<g opacity="0.7">
<path opacity="0.7" d="M627.745 638.329V574.439" stroke="white" stroke-linecap="round" stroke-linejoin="round"/>
<path opacity="0.7" d="M627.745 597.15L619.867 590.315" stroke="white" stroke-linecap="round" stroke-linejoin="round"/>
<path opacity="0.7" d="M627.871 607.704L637.627 593.67" stroke="white" stroke-linecap="round" stroke-linejoin="round"/>
<path opacity="0.7" d="M627.745 613.788L616.111 603.484" stroke="white" stroke-linecap="round" stroke-linejoin="round"/>
<path opacity="0.7" d="M627.871 621.987L639.379 611.809" stroke="white" stroke-linecap="round" stroke-linejoin="round"/>
<path opacity="0.7" d="M627.871 629.072L618.859 621.987" stroke="white" stroke-linecap="round" stroke-linejoin="round"/>
</g>
<path d="M622.398 642.082L597.652 614.356" stroke="#009C8E" stroke-linecap="round" stroke-linejoin="round"/>
<path d="M606.447 624.216L600.378 624.262" stroke="#009C8E" stroke-linecap="round" stroke-linejoin="round"/>
<path d="M610.592 628.742L609.39 618.928" stroke="#009C8E" stroke-linecap="round" stroke-linejoin="round"/>
<path d="M612.894 631.438L603.859 631.404" stroke="#009C8E" stroke-linecap="round" stroke-linejoin="round"/>
<path d="M616.123 634.94L617.165 626.127" stroke="#009C8E" stroke-linecap="round" stroke-linejoin="round"/>
<path d="M618.871 638.011L612.218 638.386" stroke="#009C8E" stroke-linecap="round" stroke-linejoin="round"/>
<g opacity="0.7">
<path opacity="0.7" d="M622.398 642.082L597.652 614.356" stroke="white" stroke-linecap="round" stroke-linejoin="round"/>
<path opacity="0.7" d="M606.447 624.216L600.378 624.262" stroke="white" stroke-linecap="round" stroke-linejoin="round"/>
<path opacity="0.7" d="M610.592 628.742L609.39 618.928" stroke="white" stroke-linecap="round" stroke-linejoin="round"/>
<path opacity="0.7" d="M612.893 631.438L603.858 631.404" stroke="white" stroke-linecap="round" stroke-linejoin="round"/>
<path opacity="0.7" d="M616.123 634.94L617.165 626.127" stroke="white" stroke-linecap="round" stroke-linejoin="round"/>
<path opacity="0.7" d="M618.871 638.011L612.218 638.386" stroke="white" stroke-linecap="round" stroke-linejoin="round"/>
</g>
<path d="M632.646 641.514L658.629 614.925" stroke="#009C8E" stroke-linecap="round" stroke-linejoin="round"/>
<path d="M649.388 624.375L648.896 618.371" stroke="#009C8E" stroke-linecap="round" stroke-linejoin="round"/>
<path d="M645.151 628.822L654.919 626.889" stroke="#009C8E" stroke-linecap="round" stroke-linejoin="round"/>
<path d="M642.621 631.301L641.979 622.351" stroke="#009C8E" stroke-linecap="round" stroke-linejoin="round"/>
<path d="M639.334 634.758L648.266 635.145" stroke="#009C8E" stroke-linecap="round" stroke-linejoin="round"/>
<path d="M636.46 637.704L635.59 631.153" stroke="#009C8E" stroke-linecap="round" stroke-linejoin="round"/>
<g opacity="0.7">
<path opacity="0.7" d="M632.646 641.514L658.629 614.925" stroke="white" stroke-linecap="round" stroke-linejoin="round"/>
<path opacity="0.7" d="M649.388 624.375L648.896 618.371" stroke="white" stroke-linecap="round" stroke-linejoin="round"/>
<path opacity="0.7" d="M645.15 628.822L654.918 626.889" stroke="white" stroke-linecap="round" stroke-linejoin="round"/>
<path opacity="0.7" d="M642.621 631.301L641.979 622.351" stroke="white" stroke-linecap="round" stroke-linejoin="round"/>
<path opacity="0.7" d="M639.334 634.758L648.266 635.145" stroke="white" stroke-linecap="round" stroke-linejoin="round"/>
<path opacity="0.7" d="M636.46 637.704L635.59 631.153" stroke="white" stroke-linecap="round" stroke-linejoin="round"/>
</g>
<path d="M165.817 482.46C166.195 468.256 165.096 444.033 177.634 434.06C188.65 425.303 197.215 437.187 200.296 446.774C207.796 470.03 204.269 495.675 204.258 519.682C204.258 520.046 204.258 520.41 204.258 520.819C204.853 538.492 206.983 557.609 205.048 575.247C205.048 575.247 206.949 557.574 220.93 565.148C234.912 572.722 213.934 612.469 213.934 612.469C213.934 612.469 230.457 600.482 238.084 610.581C245.71 620.679 228.579 631.984 228.579 631.984C228.579 631.984 244.462 627.571 244.462 631.984C244.462 636.396 239.378 640.183 224.766 642.082H145.973C145.973 642.082 133.262 635.134 135.804 627.571C138.346 620.008 151.687 624.41 151.687 624.41C151.687 624.41 131.361 599.8 132.632 589.076C133.903 578.352 159.954 590.975 159.954 590.975C159.954 590.975 139.617 539.868 143.431 517.191C146.431 499.303 160.424 511.505 168.027 518.419C166.236 506.52 165.497 494.488 165.817 482.46V482.46Z" fill="#009C8E" stroke="white" stroke-linecap="round" stroke-linejoin="round"/>
<path opacity="0.5" d="M165.817 482.46C166.195 468.256 165.096 444.033 177.634 434.06C188.65 425.303 197.215 437.187 200.296 446.774C207.796 470.03 204.269 495.675 204.258 519.682C204.258 520.046 204.258 520.41 204.258 520.819C204.853 538.492 206.983 557.609 205.048 575.247C205.048 575.247 206.949 557.574 220.93 565.148C234.912 572.722 213.934 612.469 213.934 612.469C213.934 612.469 230.457 600.482 238.084 610.581C245.71 620.679 228.579 631.984 228.579 631.984C228.579 631.984 244.462 627.571 244.462 631.984C244.462 636.396 239.378 640.183 224.766 642.082H145.973C145.973 642.082 133.262 635.134 135.804 627.571C138.346 620.008 151.687 624.41 151.687 624.41C151.687 624.41 131.361 599.8 132.632 589.076C133.903 578.352 159.954 590.975 159.954 590.975C159.954 590.975 139.617 539.868 143.431 517.191C146.431 499.303 160.424 511.505 168.027 518.419C166.236 506.52 165.497 494.488 165.817 482.46V482.46Z" fill="white"/>
<path d="M191.077 641.445L185.363 467.938" stroke="white" stroke-linecap="round" stroke-linejoin="round"/>
<path d="M187.906 568.89L158.042 541.13" stroke="white" stroke-linecap="round" stroke-linejoin="round"/>
<path d="M173.925 556.266L167.569 538.605" stroke="white" stroke-linecap="round" stroke-linejoin="round"/>
<path d="M212.674 590.338L189.807 614.948" stroke="white" stroke-linecap="round" stroke-linejoin="round"/>
<path d="M151.687 604.224L189.807 623.784" stroke="white" stroke-linecap="round" stroke-linejoin="round"/>
<path d="M172.024 615.573L158.042 614.948" stroke="white" stroke-linecap="round" stroke-linejoin="round"/>
<path d="M191.077 641.445L185.363 467.938" stroke="#009C8E" stroke-linecap="round" stroke-linejoin="round"/>
<path d="M187.906 568.89L158.042 541.13" stroke="#009C8E" stroke-linecap="round" stroke-linejoin="round"/>
<path d="M173.925 556.266L167.569 538.605" stroke="#009C8E" stroke-linecap="round" stroke-linejoin="round"/>
<path d="M212.674 590.338L189.807 614.948" stroke="#009C8E" stroke-linecap="round" stroke-linejoin="round"/>
<path d="M151.687 604.224L189.807 623.784" stroke="#009C8E" stroke-linecap="round" stroke-linejoin="round"/>
<path d="M172.024 615.573L158.042 614.948" stroke="#009C8E" stroke-linecap="round" stroke-linejoin="round"/>
<g opacity="0.8">
<path opacity="0.8" d="M191.077 641.445L185.363 467.938" stroke="white" stroke-linecap="round" stroke-linejoin="round"/>
<path opacity="0.8" d="M187.906 568.889L158.042 541.13" stroke="white" stroke-linecap="round" stroke-linejoin="round"/>
<path opacity="0.8" d="M173.925 556.266L167.569 538.605" stroke="white" stroke-linecap="round" stroke-linejoin="round"/>
<path opacity="0.8" d="M212.674 590.338L189.807 614.948" stroke="white" stroke-linecap="round" stroke-linejoin="round"/>
<path opacity="0.8" d="M151.687 604.223L189.807 623.784" stroke="white" stroke-linecap="round" stroke-linejoin="round"/>
<path opacity="0.8" d="M172.024 615.573L158.042 614.948" stroke="white" stroke-linecap="round" stroke-linejoin="round"/>
</g>
<path d="M302.506 606.384C302.506 624.023 288.433 638.329 288.433 638.329C288.433 638.329 274.383 624.023 274.383 606.384C274.383 588.746 288.456 574.439 288.456 574.439C288.456 574.439 302.506 588.734 302.506 606.384Z" fill="#009C8E"/>
<path d="M312.251 633.598C305.38 641.252 293.769 642.082 293.769 642.082C293.769 642.082 293.208 630.494 300.044 622.84C306.88 615.187 318.526 614.356 318.526 614.356C318.526 614.356 319.041 625.945 312.251 633.598Z" fill="#009C8E"/>
<path d="M276.398 622.579C283.566 629.914 283.532 641.514 283.532 641.514C283.532 641.514 271.863 641.206 264.684 633.86C257.504 626.513 257.55 614.925 257.55 614.925C257.55 614.925 269.218 615.232 276.398 622.579Z" fill="#009C8E"/>
<g opacity="0.5">
<path opacity="0.5" d="M302.506 606.384C302.506 624.023 288.433 638.329 288.433 638.329C288.433 638.329 274.383 624.023 274.383 606.384C274.383 588.746 288.456 574.439 288.456 574.439C288.456 574.439 302.506 588.734 302.506 606.384Z" fill="white"/>
<path opacity="0.5" d="M288.433 638.329V574.439" stroke="white" stroke-linecap="round" stroke-linejoin="round"/>
<path opacity="0.5" d="M288.433 597.15L296.311 590.315" stroke="white" stroke-linecap="round" stroke-linejoin="round"/>
<path opacity="0.5" d="M288.307 607.704L278.551 593.67" stroke="white" stroke-linecap="round" stroke-linejoin="round"/>
<path opacity="0.5" d="M288.433 613.788L300.067 603.484" stroke="white" stroke-linecap="round" stroke-linejoin="round"/>
<path opacity="0.5" d="M288.307 621.987L276.799 611.809" stroke="white" stroke-linecap="round" stroke-linejoin="round"/>
<path opacity="0.5" d="M288.307 629.072L297.307 621.987" stroke="white" stroke-linecap="round" stroke-linejoin="round"/>
<path opacity="0.5" d="M312.251 633.598C305.38 641.252 293.769 642.082 293.769 642.082C293.769 642.082 293.208 630.494 300.044 622.84C306.88 615.187 318.526 614.356 318.526 614.356C318.526 614.356 319.041 625.945 312.251 633.598Z" fill="white"/>
<path opacity="0.5" d="M293.769 642.082L318.525 614.356" stroke="white" stroke-linecap="round" stroke-linejoin="round"/>
<path opacity="0.5" d="M309.731 624.216L315.789 624.262" stroke="white" stroke-linecap="round" stroke-linejoin="round"/>
<path opacity="0.5" d="M305.586 628.742L306.788 618.928" stroke="white" stroke-linecap="round" stroke-linejoin="round"/>
<path opacity="0.5" d="M303.273 631.438L312.32 631.404" stroke="white" stroke-linecap="round" stroke-linejoin="round"/>
<path opacity="0.5" d="M300.044 634.94L299.002 626.127" stroke="white" stroke-linecap="round" stroke-linejoin="round"/>
<path opacity="0.5" d="M297.308 638.011L303.961 638.386" stroke="white" stroke-linecap="round" stroke-linejoin="round"/>
<path opacity="0.5" d="M276.398 622.579C283.566 629.914 283.532 641.514 283.532 641.514C283.532 641.514 271.863 641.206 264.684 633.86C257.504 626.513 257.55 614.925 257.55 614.925C257.55 614.925 269.218 615.232 276.398 622.579Z" fill="white"/>
<path opacity="0.5" d="M283.532 641.514L257.55 614.925" stroke="white" stroke-linecap="round" stroke-linejoin="round"/>
<path opacity="0.5" d="M266.779 624.375L267.283 618.371" stroke="white" stroke-linecap="round" stroke-linejoin="round"/>
<path opacity="0.5" d="M271.027 628.822L261.26 626.889" stroke="white" stroke-linecap="round" stroke-linejoin="round"/>
<path opacity="0.5" d="M273.547 631.301L274.2 622.351" stroke="white" stroke-linecap="round" stroke-linejoin="round"/>
<path opacity="0.5" d="M276.833 634.758L267.901 635.145" stroke="white" stroke-linecap="round" stroke-linejoin="round"/>
<path opacity="0.5" d="M279.719 637.704L280.578 631.153" stroke="white" stroke-linecap="round" stroke-linejoin="round"/>
</g>
<path d="M288.433 638.329V574.439" stroke="#009C8E" stroke-linecap="round" stroke-linejoin="round"/>
<path d="M288.433 597.15L296.311 590.315" stroke="#009C8E" stroke-linecap="round" stroke-linejoin="round"/>
<path d="M288.307 607.704L278.551 593.67" stroke="#009C8E" stroke-linecap="round" stroke-linejoin="round"/>
<path d="M288.433 613.788L300.067 603.484" stroke="#009C8E" stroke-linecap="round" stroke-linejoin="round"/>
<path d="M288.307 621.987L276.799 611.809" stroke="#009C8E" stroke-linecap="round" stroke-linejoin="round"/>
<path d="M288.308 629.072L297.308 621.987" stroke="#009C8E" stroke-linecap="round" stroke-linejoin="round"/>
<g opacity="0.7">
<path opacity="0.7" d="M288.433 638.329V574.439" stroke="white" stroke-linecap="round" stroke-linejoin="round"/>
<path opacity="0.7" d="M288.433 597.15L296.311 590.315" stroke="white" stroke-linecap="round" stroke-linejoin="round"/>
<path opacity="0.7" d="M288.307 607.704L278.551 593.67" stroke="white" stroke-linecap="round" stroke-linejoin="round"/>
<path opacity="0.7" d="M288.433 613.788L300.067 603.484" stroke="white" stroke-linecap="round" stroke-linejoin="round"/>
<path opacity="0.7" d="M288.307 621.987L276.799 611.809" stroke="white" stroke-linecap="round" stroke-linejoin="round"/>
<path opacity="0.7" d="M288.307 629.072L297.307 621.987" stroke="white" stroke-linecap="round" stroke-linejoin="round"/>
</g>
<path d="M293.77 642.082L318.526 614.356" stroke="#009C8E" stroke-linecap="round" stroke-linejoin="round"/>
<path d="M309.731 624.216L315.789 624.262" stroke="#009C8E" stroke-linecap="round" stroke-linejoin="round"/>
<path d="M305.587 628.742L306.789 618.928" stroke="#009C8E" stroke-linecap="round" stroke-linejoin="round"/>
<path d="M303.273 631.438L312.32 631.404" stroke="#009C8E" stroke-linecap="round" stroke-linejoin="round"/>
<path d="M300.044 634.94L299.002 626.127" stroke="#009C8E" stroke-linecap="round" stroke-linejoin="round"/>
<path d="M297.308 638.011L303.961 638.386" stroke="#009C8E" stroke-linecap="round" stroke-linejoin="round"/>
<g opacity="0.7">
<path opacity="0.7" d="M293.77 642.082L318.526 614.356" stroke="white" stroke-linecap="round" stroke-linejoin="round"/>
<path opacity="0.7" d="M309.732 624.216L315.79 624.262" stroke="white" stroke-linecap="round" stroke-linejoin="round"/>
<path opacity="0.7" d="M305.587 628.742L306.789 618.928" stroke="white" stroke-linecap="round" stroke-linejoin="round"/>
<path opacity="0.7" d="M303.273 631.438L312.32 631.404" stroke="white" stroke-linecap="round" stroke-linejoin="round"/>
<path opacity="0.7" d="M300.045 634.94L299.003 626.127" stroke="white" stroke-linecap="round" stroke-linejoin="round"/>
<path opacity="0.7" d="M297.308 638.011L303.961 638.386" stroke="white" stroke-linecap="round" stroke-linejoin="round"/>
</g>
<path d="M283.532 641.514L257.55 614.925" stroke="#009C8E" stroke-linecap="round" stroke-linejoin="round"/>
<path d="M266.779 624.375L267.283 618.371" stroke="#009C8E" stroke-linecap="round" stroke-linejoin="round"/>
<path d="M271.027 628.822L261.26 626.889" stroke="#009C8E" stroke-linecap="round" stroke-linejoin="round"/>
<path d="M273.547 631.301L274.2 622.351" stroke="#009C8E" stroke-linecap="round" stroke-linejoin="round"/>
<path d="M276.833 634.758L267.901 635.145" stroke="#009C8E" stroke-linecap="round" stroke-linejoin="round"/>
<path d="M279.719 637.704L280.578 631.153" stroke="#009C8E" stroke-linecap="round" stroke-linejoin="round"/>
<g opacity="0.7">
<path opacity="0.7" d="M283.532 641.514L257.55 614.925" stroke="white" stroke-linecap="round" stroke-linejoin="round"/>
<path opacity="0.7" d="M266.779 624.375L267.283 618.371" stroke="white" stroke-linecap="round" stroke-linejoin="round"/>
<path opacity="0.7" d="M271.027 628.822L261.26 626.889" stroke="white" stroke-linecap="round" stroke-linejoin="round"/>
<path opacity="0.7" d="M273.547 631.301L274.2 622.351" stroke="white" stroke-linecap="round" stroke-linejoin="round"/>
<path opacity="0.7" d="M276.833 634.758L267.901 635.145" stroke="white" stroke-linecap="round" stroke-linejoin="round"/>
<path opacity="0.7" d="M279.719 637.704L280.578 631.153" stroke="white" stroke-linecap="round" stroke-linejoin="round"/>
</g>
<path d="M619.489 304.096H309.938C309.845 304.098 309.753 304.081 309.667 304.047C309.581 304.012 309.502 303.962 309.436 303.897C309.37 303.832 309.318 303.755 309.282 303.67C309.246 303.586 309.228 303.494 309.228 303.402C309.228 303.215 309.302 303.036 309.435 302.904C309.569 302.772 309.749 302.697 309.938 302.697H619.489C619.582 302.697 619.674 302.716 619.759 302.751C619.845 302.787 619.922 302.839 619.987 302.904C620.052 302.97 620.103 303.048 620.138 303.133C620.172 303.219 620.189 303.31 620.188 303.402C620.188 303.586 620.114 303.763 619.983 303.893C619.852 304.023 619.674 304.096 619.489 304.096Z" fill="#009C8E"/>
<g opacity="0.3">
<path opacity="0.3" d="M619.489 304.096H309.938C309.845 304.098 309.753 304.081 309.667 304.047C309.581 304.012 309.502 303.962 309.436 303.897C309.37 303.832 309.318 303.755 309.282 303.67C309.246 303.586 309.228 303.494 309.228 303.402C309.228 303.215 309.302 303.036 309.435 302.904C309.569 302.772 309.749 302.697 309.938 302.697H619.489C619.582 302.697 619.674 302.716 619.759 302.751C619.845 302.787 619.922 302.839 619.987 302.904C620.052 302.97 620.103 303.048 620.138 303.133C620.172 303.219 620.189 303.31 620.188 303.402C620.188 303.586 620.114 303.763 619.983 303.893C619.852 304.023 619.674 304.096 619.489 304.096Z" fill="white"/>
</g>
<path d="M618.871 426.03H309.319C309.227 426.032 309.135 426.015 309.049 425.981C308.962 425.946 308.884 425.896 308.818 425.831C308.752 425.766 308.699 425.689 308.664 425.605C308.628 425.52 308.609 425.429 308.609 425.336C308.609 425.149 308.684 424.97 308.817 424.838C308.95 424.706 309.131 424.631 309.319 424.631H618.871C618.964 424.631 619.055 424.65 619.141 424.685C619.226 424.721 619.304 424.773 619.369 424.839C619.434 424.904 619.485 424.982 619.52 425.067C619.554 425.153 619.571 425.244 619.569 425.336C619.569 425.428 619.551 425.518 619.516 425.602C619.481 425.686 619.43 425.763 619.365 425.827C619.3 425.891 619.223 425.943 619.138 425.977C619.054 426.012 618.963 426.03 618.871 426.03V426.03Z" fill="#009C8E"/>
<g opacity="0.3">
<path opacity="0.3" d="M618.871 426.03H309.319C309.227 426.032 309.135 426.015 309.049 425.981C308.962 425.946 308.884 425.896 308.818 425.831C308.752 425.766 308.699 425.689 308.664 425.605C308.628 425.52 308.609 425.429 308.609 425.336C308.609 425.149 308.684 424.97 308.817 424.838C308.95 424.706 309.131 424.631 309.319 424.631H618.871C618.964 424.631 619.055 424.65 619.141 424.685C619.226 424.721 619.304 424.773 619.369 424.839C619.434 424.904 619.485 424.982 619.52 425.067C619.554 425.153 619.571 425.244 619.569 425.336C619.569 425.428 619.551 425.518 619.516 425.602C619.481 425.686 619.43 425.763 619.365 425.827C619.3 425.891 619.223 425.943 619.138 425.977C619.054 426.012 618.963 426.03 618.871 426.03V426.03Z" fill="white"/>
</g>
<path d="M618.871 525.708H309.319C309.131 525.708 308.95 525.634 308.817 525.502C308.684 525.37 308.609 525.19 308.609 525.003C308.609 524.911 308.628 524.82 308.664 524.735C308.699 524.65 308.752 524.573 308.818 524.509C308.884 524.444 308.962 524.393 309.049 524.359C309.135 524.325 309.227 524.308 309.319 524.31H618.871C618.963 524.31 619.054 524.328 619.138 524.362C619.223 524.397 619.3 524.448 619.365 524.513C619.43 524.577 619.481 524.654 619.516 524.738C619.551 524.822 619.569 524.912 619.569 525.003C619.571 525.095 619.554 525.187 619.52 525.272C619.485 525.358 619.434 525.436 619.369 525.501C619.304 525.567 619.226 525.619 619.141 525.655C619.055 525.69 618.964 525.708 618.871 525.708Z" fill="#009C8E"/>
<g opacity="0.3">
<path opacity="0.3" d="M618.871 525.708H309.319C309.131 525.708 308.95 525.634 308.817 525.502C308.684 525.37 308.609 525.19 308.609 525.003C308.609 524.911 308.628 524.82 308.664 524.735C308.699 524.65 308.752 524.573 308.818 524.509C308.884 524.444 308.962 524.393 309.049 524.359C309.135 524.325 309.227 524.308 309.319 524.31H618.871C618.963 524.31 619.054 524.328 619.138 524.362C619.223 524.397 619.3 524.448 619.365 524.513C619.43 524.577 619.481 524.654 619.516 524.738C619.551 524.822 619.569 524.912 619.569 525.003C619.571 525.095 619.554 525.187 619.52 525.272C619.485 525.358 619.434 525.436 619.369 525.501C619.304 525.567 619.226 525.619 619.141 525.655C619.055 525.69 618.964 525.708 618.871 525.708Z" fill="white"/>
</g>
<path d="M375.128 542.574V646.312" stroke="#263238" stroke-width="0.265171" stroke-miterlimit="10"/>
<path d="M390.048 542.574V646.312" stroke="#263238" stroke-width="0.265171" stroke-miterlimit="10"/>
<path d="M404.969 542.574V646.312" stroke="#263238" stroke-width="0.265171" stroke-miterlimit="10"/>
<path d="M419.89 542.574V646.312" stroke="#263238" stroke-width="0.265171" stroke-miterlimit="10"/>
<path d="M434.81 542.574V646.312" stroke="#263238" stroke-width="0.265171" stroke-miterlimit="10"/>
<path d="M449.73 542.574V646.312" stroke="#263238" stroke-width="0.265171" stroke-miterlimit="10"/>
<path d="M464.651 542.574V646.312" stroke="#263238" stroke-width="0.265171" stroke-miterlimit="10"/>
<path d="M479.571 542.574V646.312" stroke="#263238" stroke-width="0.265171" stroke-miterlimit="10"/>
<path d="M494.492 542.574V646.312" stroke="#263238" stroke-width="0.265171" stroke-miterlimit="10"/>
<path d="M509.412 542.574V646.312" stroke="#263238" stroke-width="0.265171" stroke-miterlimit="10"/>
<path d="M524.333 542.574V646.312" stroke="#263238" stroke-width="0.265171" stroke-miterlimit="10"/>
<path d="M539.253 542.574V646.312" stroke="#263238" stroke-width="0.265171" stroke-miterlimit="10"/>
<path d="M375.872 552.206H538.509" stroke="#263238" stroke-width="0.265171" stroke-miterlimit="10"/>
<path d="M375.872 566.285H538.509" stroke="#263238" stroke-width="0.265171" stroke-miterlimit="10"/>
<path d="M375.872 580.364H538.509" stroke="#263238" stroke-width="0.265171" stroke-miterlimit="10"/>
<path d="M375.872 594.443H538.509" stroke="#263238" stroke-width="0.265171" stroke-miterlimit="10"/>
<path d="M375.872 608.522H538.509" stroke="#263238" stroke-width="0.265171" stroke-miterlimit="10"/>
<path d="M375.872 622.601H538.509" stroke="#263238" stroke-width="0.265171" stroke-miterlimit="10"/>
<path d="M375.872 636.68H538.509" stroke="#263238" stroke-width="0.265171" stroke-miterlimit="10"/>
<path d="M410.041 578.966L388.216 645.789H433.928L412.091 578.966C412.021 578.75 411.884 578.562 411.7 578.429C411.516 578.295 411.294 578.223 411.066 578.223C410.838 578.223 410.616 578.295 410.432 578.429C410.248 578.562 410.111 578.75 410.041 578.966V578.966Z" fill="#009C8E" stroke="#263238" stroke-width="1.06068" stroke-miterlimit="10"/>
<path d="M451.654 556.835L422.604 645.789H482.789L453.704 556.835C453.634 556.619 453.498 556.431 453.313 556.298C453.129 556.165 452.907 556.093 452.679 556.093C452.451 556.093 452.229 556.165 452.045 556.298C451.861 556.431 451.724 556.619 451.654 556.835V556.835Z" fill="#263238" stroke="#263238" stroke-width="1.06068" stroke-miterlimit="10"/>
<path d="M489.946 594.25L473.102 645.789H508.828L491.95 594.25C491.871 594.05 491.733 593.878 491.554 593.757C491.375 593.636 491.164 593.572 490.948 593.572C490.731 593.572 490.52 593.636 490.341 593.757C490.163 593.878 490.025 594.05 489.946 594.25V594.25Z" fill="#009C8E" stroke="#263238" stroke-width="1.06068" stroke-miterlimit="10"/>
<path d="M513.02 611.945L501.97 645.789H526.12L515.07 611.945C515 611.73 514.863 611.542 514.679 611.408C514.495 611.275 514.273 611.203 514.045 611.203C513.817 611.203 513.595 611.275 513.41 611.408C513.226 611.542 513.09 611.73 513.02 611.945V611.945Z" fill="#263238" stroke="#263238" stroke-width="1.06068" stroke-miterlimit="10"/>
<path d="M373.158 509.788C366.611 509.788 360.21 507.859 354.766 504.247C349.322 500.634 345.079 495.499 342.574 489.492C340.068 483.484 339.412 476.874 340.69 470.496C341.967 464.118 345.12 458.26 349.75 453.662C354.38 449.064 360.278 445.933 366.7 444.664C373.121 443.396 379.778 444.047 385.827 446.535C391.876 449.024 397.046 453.238 400.684 458.644C404.321 464.051 406.263 470.408 406.263 476.91C406.254 485.627 402.763 493.984 396.557 500.148C390.35 506.312 381.935 509.778 373.158 509.788V509.788ZM373.158 453.688C368.534 453.69 364.014 455.054 360.171 457.607C356.327 460.16 353.332 463.788 351.564 468.031C349.796 472.275 349.334 476.944 350.238 481.448C351.141 485.951 353.369 490.088 356.64 493.335C359.91 496.581 364.077 498.792 368.612 499.687C373.148 500.582 377.849 500.122 382.12 498.364C386.392 496.606 390.044 493.629 392.612 489.811C395.181 485.992 396.552 481.503 396.552 476.91C396.546 470.751 394.079 464.846 389.693 460.492C385.307 456.138 379.36 453.691 373.158 453.688Z" fill="#263238" stroke="#263238" stroke-width="1.06068" stroke-miterlimit="10"/>
<path d="M373.158 509.787C368.69 509.801 364.267 508.91 360.158 507.167C356.049 505.425 352.341 502.869 349.26 499.655L356.28 492.979C358.454 495.25 361.073 497.056 363.976 498.286C366.878 499.516 370.003 500.144 373.158 500.132C376.229 500.132 379.269 499.532 382.106 498.365C384.943 497.198 387.521 495.487 389.692 493.331C391.864 491.174 393.586 488.614 394.761 485.797C395.936 482.979 396.541 479.96 396.541 476.91C396.541 473.86 395.936 470.841 394.761 468.023C393.586 465.206 391.864 462.646 389.692 460.489C387.521 458.333 384.943 456.623 382.106 455.456C379.269 454.288 376.229 453.688 373.158 453.688V444.033C377.506 444.033 381.81 444.883 385.827 446.535C389.843 448.188 393.493 450.609 396.567 453.662C399.641 456.715 402.079 460.34 403.743 464.328C405.406 468.317 406.263 472.593 406.263 476.91C406.263 481.228 405.406 485.503 403.743 489.492C402.079 493.481 399.641 497.105 396.567 500.158C393.493 503.211 389.843 505.633 385.827 507.285C381.81 508.937 377.506 509.787 373.158 509.787V509.787Z" fill="#009C8E" stroke="#263238" stroke-width="1.06068" stroke-miterlimit="10"/>
<path d="M454.803 509.788C448.255 509.79 441.853 507.863 436.408 504.252C430.962 500.641 426.718 495.507 424.21 489.5C421.703 483.492 421.046 476.881 422.322 470.503C423.598 464.125 426.75 458.265 431.379 453.666C436.008 449.067 441.907 445.935 448.329 444.665C454.751 443.396 461.408 444.046 467.457 446.534C473.507 449.022 478.678 453.236 482.316 458.643C485.954 464.05 487.896 470.407 487.896 476.91C487.887 485.625 484.398 493.981 478.194 500.144C471.99 506.307 463.578 509.775 454.803 509.788V509.788ZM454.803 453.688C450.179 453.692 445.661 455.058 441.818 457.613C437.976 460.167 434.983 463.795 433.217 468.039C431.45 472.283 430.99 476.951 431.895 481.454C432.8 485.958 435.029 490.093 438.3 493.339C441.571 496.584 445.737 498.794 450.273 499.688C454.808 500.582 459.508 500.121 463.779 498.363C468.051 496.604 471.701 493.628 474.269 489.809C476.838 485.991 478.209 481.502 478.209 476.91C478.199 470.75 475.73 464.845 471.342 460.491C466.954 456.138 461.006 453.691 454.803 453.688V453.688Z" fill="#263238" stroke="#263238" stroke-width="1.06068" stroke-miterlimit="10"/>
<path d="M467.685 507.195L463.906 498.313C468.872 496.222 472.958 492.492 475.473 487.753C477.987 483.014 478.776 477.558 477.705 472.308C476.634 467.058 473.769 462.337 469.596 458.944C465.422 455.551 460.196 453.694 454.803 453.688V444.033C462.441 444.034 469.844 446.658 475.757 451.46C481.67 456.263 485.728 462.948 487.245 470.383C488.761 477.818 487.642 485.545 484.077 492.254C480.512 498.963 474.721 504.242 467.685 507.195V507.195Z" fill="#009C8E" stroke="#263238" stroke-width="1.06068" stroke-miterlimit="10"/>
<path d="M536.437 509.788C529.889 509.788 523.489 507.859 518.045 504.247C512.601 500.634 508.358 495.499 505.852 489.492C503.346 483.484 502.691 476.874 503.968 470.496C505.245 464.118 508.398 458.26 513.028 453.662C517.658 449.064 523.557 445.933 529.978 444.664C536.4 443.396 543.056 444.047 549.105 446.535C555.154 449.024 560.324 453.238 563.962 458.644C567.599 464.051 569.541 470.408 569.541 476.91C569.532 485.627 566.041 493.984 559.835 500.148C553.629 506.312 545.214 509.778 536.437 509.788V509.788ZM536.437 453.688C531.812 453.688 527.291 455.05 523.446 457.601C519.601 460.153 516.604 463.78 514.834 468.023C513.064 472.267 512.601 476.936 513.503 481.441C514.405 485.945 516.632 490.083 519.902 493.331C523.173 496.578 527.339 498.79 531.875 499.686C536.411 500.582 541.112 500.122 545.385 498.365C549.657 496.607 553.309 493.631 555.879 489.812C558.448 485.993 559.819 481.503 559.819 476.91C559.813 470.753 557.348 464.85 552.964 460.496C548.58 456.142 542.636 453.694 536.437 453.688V453.688Z" fill="#263238" stroke="#263238" stroke-width="1.06068" stroke-miterlimit="10"/>
<path d="M559.361 472.282C558.274 467.041 555.405 462.332 551.234 458.946C547.063 455.56 541.846 453.703 536.459 453.688V444.033C544.089 444.052 551.479 446.68 557.387 451.475C563.295 456.269 567.36 462.938 568.899 470.36L559.361 472.282Z" fill="#009C8E" stroke="#263238" stroke-width="1.06068" stroke-miterlimit="10"/>
<path d="M386.361 407.63H541.83" stroke="#263238" stroke-width="1.06068" stroke-miterlimit="10"/>
<path d="M386.361 407.63V404.344" stroke="#263238" stroke-width="1.06068" stroke-miterlimit="10"/>
<path d="M417.45 407.63V404.344" stroke="#263238" stroke-width="1.06068" stroke-miterlimit="10"/>
<path d="M448.551 407.63V404.344" stroke="#263238" stroke-width="1.06068" stroke-miterlimit="10"/>
<path d="M479.641 407.63V404.344" stroke="#263238" stroke-width="1.06068" stroke-miterlimit="10"/>
<path d="M510.729 407.63V404.344" stroke="#263238" stroke-width="1.06068" stroke-miterlimit="10"/>
<path d="M541.83 407.63V404.344" stroke="#263238" stroke-width="1.06068" stroke-miterlimit="10"/>
<path d="M413.099 363.744H390.713V390.071H413.099V363.744Z" fill="#009C8E" stroke="#263238" stroke-width="1.06068" stroke-miterlimit="10"/>
<path d="M444.188 333.027H421.802V394.461H444.188V333.027Z" fill="#009C8E" stroke="#263238" stroke-width="1.06068" stroke-miterlimit="10"/>
<path d="M475.289 290.029H452.902V358.49H475.289V290.029Z" fill="#009C8E" stroke="#263238" stroke-width="1.06068" stroke-miterlimit="10"/>
<path d="M506.378 354.101H483.991V367.27H506.378V354.101Z" fill="#009C8E" stroke="#263238" stroke-width="1.06068" stroke-miterlimit="10"/>
<path d="M537.468 346.197H515.081V380.427H537.468V346.197Z" fill="#009C8E" stroke="#263238" stroke-width="1.06068" stroke-miterlimit="10"/>
<path d="M413.099 390.083H390.713V407.641H413.099V390.083Z" fill="#263238" stroke="#263238" stroke-width="1.06068" stroke-miterlimit="10"/>
<path d="M444.188 394.472H421.802V407.641H444.188V394.472Z" fill="#263238" stroke="#263238" stroke-width="1.06068" stroke-miterlimit="10"/>
<path d="M475.289 358.479H452.902V407.63H475.289V358.479Z" fill="#263238" stroke="#263238" stroke-width="1.06068" stroke-miterlimit="10"/>
<path d="M506.378 367.258H483.991V407.63H506.378V367.258Z" fill="#263238" stroke="#263238" stroke-width="1.06068" stroke-miterlimit="10"/>
<path d="M537.468 380.428H515.081V407.63H537.468V380.428Z" fill="#263238" stroke="#263238" stroke-width="1.06068" stroke-miterlimit="10"/>
<path d="M583.259 277.599C582.989 277.6 582.724 277.536 582.486 277.411C582.249 277.286 582.046 277.104 581.896 276.882L533.734 207.124L484.873 258.868L434.981 226.571L386.716 237.693L337.694 277.235C337.354 277.509 336.918 277.638 336.482 277.593C336.046 277.549 335.646 277.334 335.37 276.996C335.094 276.658 334.964 276.225 335.009 275.792C335.054 275.359 335.27 274.962 335.61 274.687L385.227 234.668L435.611 223.057L484.369 254.626L534.146 201.904L584.621 275.028C584.792 275.274 584.893 275.561 584.911 275.859C584.93 276.157 584.867 276.454 584.727 276.719C584.588 276.983 584.379 277.205 584.122 277.36C583.865 277.515 583.571 277.598 583.27 277.599H583.259Z" fill="#263238"/>
<path d="M340.798 275.961C340.798 276.764 340.558 277.549 340.109 278.217C339.66 278.885 339.021 279.405 338.274 279.712C337.527 280.019 336.705 280.1 335.913 279.943C335.12 279.787 334.391 279.4 333.819 278.832C333.248 278.264 332.858 277.541 332.701 276.753C332.543 275.966 332.624 275.149 332.933 274.408C333.243 273.666 333.767 273.032 334.439 272.586C335.111 272.139 335.902 271.901 336.71 271.901C337.794 271.901 338.834 272.329 339.601 273.09C340.367 273.852 340.798 274.885 340.798 275.961Z" fill="#009C8E"/>
<path d="M385.972 240.24C388.229 240.24 390.06 238.423 390.06 236.181C390.06 233.938 388.229 232.121 385.972 232.121C383.714 232.121 381.884 233.938 381.884 236.181C381.884 238.423 383.714 240.24 385.972 240.24Z" fill="#009C8E"/>
<path d="M435.291 228.868C437.549 228.868 439.379 227.05 439.379 224.808C439.379 222.566 437.549 220.748 435.291 220.748C433.033 220.748 431.203 222.566 431.203 224.808C431.203 227.05 433.033 228.868 435.291 228.868Z" fill="#009C8E"/>
<path d="M484.609 260.801C486.867 260.801 488.697 258.984 488.697 256.742C488.697 254.499 486.867 252.682 484.609 252.682C482.352 252.682 480.521 254.499 480.521 256.742C480.521 258.984 482.352 260.801 484.609 260.801Z" fill="#009C8E"/>
<path d="M538.017 204.52C538.017 205.323 537.777 206.108 537.328 206.775C536.879 207.443 536.24 207.963 535.493 208.271C534.746 208.578 533.924 208.658 533.131 208.502C532.338 208.345 531.61 207.958 531.038 207.391C530.466 206.823 530.077 206.099 529.919 205.312C529.762 204.524 529.843 203.708 530.152 202.966C530.461 202.224 530.985 201.59 531.658 201.144C532.33 200.698 533.12 200.46 533.929 200.46C535.013 200.46 536.053 200.888 536.819 201.649C537.586 202.41 538.017 203.443 538.017 204.52V204.52Z" fill="#009C8E"/>
<path d="M587.335 275.961C587.335 276.764 587.095 277.549 586.646 278.217C586.197 278.885 585.559 279.405 584.812 279.712C584.065 280.019 583.243 280.1 582.45 279.943C581.657 279.787 580.928 279.4 580.357 278.832C579.785 278.264 579.395 277.541 579.238 276.753C579.08 275.966 579.161 275.149 579.47 274.408C579.78 273.666 580.304 273.032 580.976 272.586C581.648 272.139 582.439 271.901 583.247 271.901C584.331 271.901 585.371 272.329 586.138 273.09C586.904 273.852 587.335 274.885 587.335 275.961Z" fill="#009C8E"/>
<path d="M671.408 662.916C715.057 662.916 750.442 658.196 750.442 652.374C750.442 646.552 715.057 641.832 671.408 641.832C627.759 641.832 592.374 646.552 592.374 652.374C592.374 658.196 627.759 662.916 671.408 662.916Z" fill="#009C8E"/>
<path opacity="0.7" d="M671.408 662.916C715.057 662.916 750.442 658.196 750.442 652.374C750.442 646.552 715.057 641.832 671.408 641.832C627.759 641.832 592.374 646.552 592.374 652.374C592.374 658.196 627.759 662.916 671.408 662.916Z" fill="white"/>
<path d="M238.404 662.916C278.683 662.916 311.335 658.196 311.335 652.374C311.335 646.552 278.683 641.832 238.404 641.832C198.126 641.832 165.474 646.552 165.474 652.374C165.474 658.196 198.126 662.916 238.404 662.916Z" fill="#009C8E"/>
<path opacity="0.7" d="M238.404 662.916C278.683 662.916 311.335 658.196 311.335 652.374C311.335 646.552 278.683 641.832 238.404 641.832C198.126 641.832 165.474 646.552 165.474 652.374C165.474 658.196 198.126 662.916 238.404 662.916Z" fill="white"/>
<path d="M649.102 280.988C649.102 280.988 679.126 278.099 680.844 283.069C682.561 288.039 681.989 299.388 681.989 299.388C683.501 299.779 684.977 300.3 686.397 300.946C686.798 301.333 691.241 304.222 687.096 308.964C686.013 310.166 684.702 311.144 683.237 311.841C681.409 312.645 679.671 313.636 678.05 314.798L672.027 321.587L673.172 330.333C673.172 330.333 675.863 332.266 679.149 339.01C679.149 339.01 686.913 343.559 691.47 346.14C695.218 348.096 699.116 349.754 703.127 351.098C703.127 351.098 705.211 351.769 705.062 353.259C704.913 354.749 694.688 388.513 694.688 388.513L689.306 405.572C689.204 407.668 688.928 409.753 688.481 411.804C687.714 415.477 684.829 417.888 681.84 417.138L682.138 429.647C682.138 429.647 668.099 436.618 644.945 435.436C644.945 435.436 634.044 434.389 625.983 428.464L625.834 399.238L588.687 392.096C588.687 392.096 583.981 391.106 586.397 386.899C588.813 382.691 596.932 372.251 596.932 372.251L623.028 340.545C623.028 340.545 624.826 338.441 625.49 337.77C626.154 337.099 627.78 336.633 634.227 336.098C640.674 335.564 647.9 334.324 647.9 334.324C647.9 334.324 651.816 330.981 652.377 330.981C652.938 330.981 653.052 325.977 653.052 325.977C651.072 324.558 649.425 322.729 648.225 320.616C647.025 318.504 646.301 316.158 646.102 313.74C645.541 305.621 649.125 286.595 649.125 286.595L649.102 280.988Z" fill="white"/>
<path d="M626.441 428.351C626.441 428.351 623.28 474.977 623.28 497.29C623.28 519.602 624.689 537.673 625.387 553.344C626.086 569.015 623.28 579.807 625.731 591.293C628.181 602.779 633.804 636.214 633.804 636.214L640.411 640.172C640.411 640.172 641.556 613.572 643.961 604.178C646.365 594.785 647.121 555.084 648.541 542.893C649.961 530.702 654.507 487.532 654.507 487.532C654.507 487.532 672.038 532.794 676.264 550.558C680.489 568.321 694.848 608.352 698.02 618.098C701.192 627.844 706.082 642.287 706.082 642.287C707.567 642.718 709.128 642.834 710.662 642.628C711.325 642.575 711.963 642.355 712.516 641.989C713.069 641.623 713.518 641.123 713.822 640.535C713.822 640.535 709.162 611.377 707.112 597.207C704.582 579.682 700.459 553.344 697.951 543.598C695.444 533.852 691.642 518.522 691.642 511.209C691.642 503.897 682.184 430.466 682.184 430.466C682.184 430.466 649.228 444.715 626.441 428.351Z" fill="#263238"/>
<path d="M654.484 487.532L640.422 471.247" stroke="white" stroke-width="0.530341" stroke-miterlimit="10" stroke-linecap="round"/>
<path d="M636.826 472.441L648.403 483.142" stroke="white" stroke-width="0.530341" stroke-miterlimit="10" stroke-linecap="round"/>
<path d="M661.572 473.635C664.537 466.186 670.046 460.011 677.134 456.19" stroke="white" stroke-width="0.530341" stroke-miterlimit="10" stroke-linecap="round"/>
<path d="M677.923 434.4C677.923 434.4 676.332 440.337 678.324 443.908C680.317 447.479 682.321 447.479 682.321 447.479C682.321 447.479 685.905 466.891 685.905 477.991C685.905 489.09 683.511 490.273 685.905 502.555C688.298 514.837 689.901 518.806 689.901 525.936C689.901 533.067 693.084 537.832 695.878 542.187C698.672 546.543 699.474 559.246 699.474 564.375C699.474 569.504 701.066 575.076 702.669 580.228C702.669 580.228 703.047 591.782 705.062 594.489C707.077 597.195 707.455 606.384 707.455 606.384" stroke="white" stroke-width="0.530341" stroke-miterlimit="10" stroke-linecap="round"/>
<path d="M651.598 485.917C651.598 485.917 652.388 495.015 649.594 510.879C646.8 526.744 644.808 531.088 644.407 549.318C644.006 567.548 645.609 570.72 644.808 580.228C644.006 589.735 639.22 604.758 639.22 611.581C639.22 618.405 639.953 640.217 639.953 640.217" stroke="white" stroke-width="0.530341" stroke-miterlimit="10" stroke-linecap="round"/>
<path d="M642.815 436.777L643.617 439.95L648.804 441.133L648.003 437.175" stroke="white" stroke-width="0.530341" stroke-miterlimit="10" stroke-linecap="round"/>
<path d="M648.827 441.133C648.827 441.133 658.4 440.735 663.187 439.154L662.041 435.981" stroke="white" stroke-width="0.530341" stroke-miterlimit="10" stroke-linecap="round"/>
<path d="M666.358 435.186L667.503 439.154C667.503 439.154 675.164 438.722 676.309 437.585" stroke="white" stroke-width="0.530341" stroke-miterlimit="10" stroke-linecap="round"/>
<path d="M643.616 439.95C640.97 439.867 638.378 439.187 636.036 437.96L632.44 435.981L633.586 433.206" stroke="white" stroke-width="0.530341" stroke-miterlimit="10" stroke-linecap="round"/>
<path d="M633.803 636.214C633.803 636.214 616.627 647.347 614.165 652.567C611.703 657.787 621.528 655.706 628.536 652.92C635.544 650.134 639.987 640.171 639.987 640.171L633.803 636.214Z" fill="white" stroke="#263238" stroke-width="1.06068" stroke-miterlimit="10" stroke-linecap="round"/>
<path d="M706.631 642.434C707.497 647.204 709.203 651.785 711.669 655.967C715.448 661.801 722.582 666.805 722.582 657.628C722.582 648.45 713.776 640.569 713.776 640.569C713.776 640.569 709.402 642.923 706.631 642.434Z" fill="white" stroke="#263238" stroke-width="1.06068" stroke-miterlimit="10" stroke-linecap="round"/>
<path d="M648.999 287.288C648.999 287.288 645.277 310.215 646.537 315.901C649.411 328.627 659.499 328.081 665.808 325.647C671.706 323.372 677.591 315.332 678.347 314.275C678.401 314.2 678.477 314.144 678.565 314.115C679.504 313.854 685.332 312.012 687.897 307.542C690.703 302.663 685.447 300.582 685.447 300.582" fill="white"/>
<g style="mix-blend-mode:multiply" opacity="0.5">
<path d="M672.874 320.177L678.439 314.104C678.439 314.104 685.023 312.091 687.897 307.485C689.58 304.79 688.653 302.436 687.634 301.799C686.237 301.048 684.796 300.384 683.317 299.809L681.45 303.892L679.859 304.165C679.859 304.165 680.523 299.957 678.599 297.466C676.675 294.976 676.24 287.766 676.24 287.766C676.24 287.766 673.549 302.14 673.217 308.156C673.132 311.504 672.078 314.757 670.183 317.527C670.183 317.527 670.526 321.2 671.19 324.874C671.27 325.306 671.351 325.954 671.431 326.761L672.347 325.306L672.851 326.693C672.278 324.305 672.015 321.769 672.874 320.177Z" fill="#009C8E"/>
</g>
<path d="M648.999 287.288C648.999 287.288 645.277 310.215 646.537 315.901C649.411 328.627 659.499 328.081 665.808 325.647C671.706 323.372 677.591 315.332 678.347 314.275C678.401 314.2 678.477 314.144 678.565 314.115C679.504 313.854 685.332 312.012 687.897 307.542C690.703 302.663 685.447 300.582 685.447 300.582" stroke="#263238" stroke-width="1.06068" stroke-miterlimit="10" stroke-linecap="round"/>
<path d="M663.244 298.945C663.026 299.855 663.244 300.673 663.667 300.776C664.091 300.878 664.664 300.241 664.881 299.343C665.099 298.445 664.881 297.626 664.458 297.512C664.034 297.398 663.461 298.046 663.244 298.945Z" fill="#263238"/>
<path d="M653.408 296.568C653.19 297.478 653.408 298.296 653.832 298.399C654.255 298.501 654.828 297.864 655.045 296.966C655.263 296.068 655.045 295.237 654.622 295.135C654.198 295.033 653.614 295.658 653.408 296.568Z" fill="#263238"/>
<path d="M669.347 294.964C668.806 294.019 668.036 293.223 667.106 292.649C666.176 292.075 665.116 291.741 664.022 291.678" stroke="#263238" stroke-width="1.06068" stroke-miterlimit="10" stroke-linecap="round"/>
<path d="M656.488 291.848C655.587 291.457 654.587 291.347 653.621 291.534C652.656 291.721 651.77 292.195 651.083 292.894" stroke="#263238" stroke-width="1.06068" stroke-miterlimit="10" stroke-linecap="round"/>
<path d="M657.152 295.988C657.173 297.511 657.058 299.034 656.808 300.537C656.43 302.436 654.942 302.811 655.32 304.278C655.698 305.745 657.61 305.893 657.61 305.893" stroke="#263238" stroke-width="1.06068" stroke-miterlimit="10" stroke-linecap="round"/>
<path d="M659.603 311.818C660.413 312.074 661.27 312.153 662.114 312.049C662.958 311.945 663.769 311.661 664.492 311.215" stroke="#263238" stroke-width="1.06068" stroke-miterlimit="10" stroke-linecap="round"/>
<path d="M677.74 271.276C677.74 271.276 670.034 264.657 662.671 264.657C655.308 264.657 649.342 268.842 644.785 269.206C640.227 269.57 637.078 265.374 634.273 270.946C631.467 276.519 641.991 285.923 648.999 287.311C656.007 288.698 665.82 286.617 668.625 286.265C671.313 286.082 674.011 286.082 676.698 286.265C676.698 286.265 674.591 292.883 676.698 294.976C678.805 297.068 679.149 298.456 679.149 299.843C679.269 301.374 679.503 302.895 679.847 304.392L681.954 305.097L683.008 301.265C685.85 298.254 687.793 294.517 688.619 290.472C689.661 284.206 684.405 277.963 684.405 277.963L677.74 271.276Z" fill="#263238"/>
<path d="M648.22 284.456C648.22 284.456 660.209 286.731 669.599 282.853C678.988 278.975 670.893 271.276 670.893 271.276" stroke="white" stroke-width="0.530341" stroke-miterlimit="10" stroke-linecap="round"/>
<path d="M672.874 270.628C673.847 270.628 681.943 276.735 680.317 281.238C678.691 285.742 675.462 286.072 675.462 286.072" stroke="white" stroke-width="0.530341" stroke-miterlimit="10" stroke-linecap="round"/>
<path d="M671.546 408.767L661.423 403.468C658.822 403.325 656.234 402.99 653.682 402.467C651.324 401.796 627.116 399.499 627.116 399.499L626.75 405.185C626.75 405.185 654.358 408.87 660.072 409.541C665.786 410.212 670.847 412.884 671.855 414.556C672.863 416.228 674.89 417.899 673.882 422.517C672.874 427.134 666.141 433.889 666.141 433.889C665.82 433.411 682.333 432.229 682.172 430.477C681.817 426.997 679.951 416.83 679.951 416.83L671.546 408.767Z" fill="#009C8E"/>
<path opacity="0.5" d="M671.546 408.767L661.423 403.468C658.822 403.325 656.234 402.99 653.682 402.467C651.324 401.796 627.116 399.499 627.116 399.499L626.75 405.185C626.75 405.185 654.358 408.87 660.072 409.541C665.786 410.212 670.847 412.884 671.855 414.556C672.863 416.228 674.89 417.899 673.882 422.517C672.874 427.134 666.141 433.889 666.141 433.889C665.878 433.377 682.367 432.217 682.172 430.477C681.634 426.042 679.951 416.83 679.951 416.83L671.546 408.767Z" fill="white"/>
<path d="M704.936 353.134C704.043 348.972 697.379 349.529 693.359 347.22C689.34 344.912 679.618 339.567 679.618 339.567L674.912 332.539C674.063 330.644 673.377 328.681 672.862 326.671L672.358 325.283L671.442 326.739C672.026 332.971 672.587 348.926 672.587 348.926L674.603 358.957C674.603 358.957 682.355 392.05 684.37 399.408C686.386 406.766 686.386 411.77 685.046 414.112C683.706 416.455 684.153 417.524 684.153 417.524C684.153 417.524 689.409 413.487 689.088 409.484C688.664 404.776 705.566 355.954 704.936 353.134Z" fill="#009C8E"/>
<path opacity="0.5" d="M704.936 353.134C704.478 348.904 697.379 349.529 693.359 347.22C689.34 344.912 679.618 339.567 679.618 339.567L674.912 332.539C674.063 330.644 673.377 328.681 672.862 326.671L672.358 325.283L671.442 326.739C672.026 332.971 672.587 348.926 672.587 348.926L674.603 358.957C674.603 358.957 682.355 392.05 684.37 399.408C686.386 406.766 686.386 411.77 685.046 414.112C683.706 416.455 684.153 417.524 684.153 417.524C684.153 417.524 689.558 413.476 689.088 409.484C688.55 405.197 705.348 356.648 704.936 353.134Z" fill="white"/>
<path d="M675.519 348.96C675.519 348.96 673.412 330.162 672.358 325.283C671.305 320.404 672.015 317.629 667.457 317.629C662.9 317.629 657.289 316.924 658.296 319.369C659.304 321.815 666.312 319.711 667.457 320.757C668.602 321.803 667.801 324.237 667.801 324.237C667.801 324.237 658.64 324.942 658.64 327.376C658.64 329.809 658.995 336.473 660.747 337.122C662.499 337.77 663.197 333.994 663.197 333.994C663.197 333.994 663.552 341.955 665.304 344.787C666.42 346.535 667.713 348.166 669.163 349.654L675.519 348.96Z" fill="white" stroke="#263238" stroke-width="1.06068" stroke-miterlimit="10" stroke-linecap="round"/>
<path d="M669.21 354.18C669.21 354.18 668.156 397.395 669.908 404.321C671.66 411.246 681.13 420.685 686.031 416.159C690.932 411.633 688.493 401.887 688.493 397.361C688.493 392.835 677.271 359.411 677.271 356.966C677.104 354.936 676.629 352.942 675.863 351.053" stroke="#263238" stroke-width="1.06068" stroke-miterlimit="10" stroke-linecap="round"/>
<path d="M669.908 359.411L676.916 358.706" stroke="#263238" stroke-width="1.06068" stroke-miterlimit="10" stroke-linecap="round"/>
<path d="M625.089 381.019L626.44 342.569C626.44 342.569 624.757 341.568 624.081 345.241C623.406 348.915 623.074 356.284 623.074 356.284C623.074 356.284 614.989 351.269 617.016 354.271C619.043 357.273 622.398 363.972 622.398 363.972L609.894 376.333L615.619 378.676L625.089 381.019Z" fill="#009C8E"/>
<path opacity="0.5" d="M625.089 381.019L626.44 342.569C626.44 342.569 624.757 341.568 624.081 345.241C623.406 348.915 623.074 356.284 623.074 356.284C623.074 356.284 614.989 351.269 617.016 354.271C619.043 357.273 622.398 363.972 622.398 363.972L609.894 376.333L615.619 378.676L625.089 381.019Z" fill="white"/>
<path d="M641.853 351.155C641.853 351.155 641.212 353.43 643.903 353.43C646.594 353.43 651.323 351.531 651.323 351.531L650.979 347.755C650.979 347.755 644.51 350.882 641.853 351.155Z" fill="#009C8E"/>
<path opacity="0.5" d="M641.853 351.155C641.853 351.155 641.212 353.43 643.903 353.43C646.594 353.43 651.323 351.531 651.323 351.531L650.979 347.755C650.979 347.755 644.51 350.882 641.853 351.155Z" fill="white"/>
<path d="M653.407 325.727C653.407 325.727 649.903 346.197 652.01 350.746C654.117 355.295 657.266 354.226 659.717 352.144C662.167 350.063 665.328 344.832 665.328 344.832" stroke="#263238" stroke-width="1.06068" stroke-miterlimit="10" stroke-linecap="round"/>
<path d="M625.73 399.794L626.44 428.35C626.44 428.35 634.456 436.004 649.926 436.004C665.396 436.004 682.183 430.431 682.183 430.431V420.333" stroke="#263238" stroke-width="1.06068" stroke-miterlimit="10" stroke-linecap="round"/>
<path d="M673.068 329.809C673.068 329.809 679.378 336.075 679.378 342C679.378 347.925 678.324 349.313 678.324 349.313" stroke="#263238" stroke-width="1.06068" stroke-miterlimit="10" stroke-linecap="round"/>
<path d="M678.668 338.521C678.668 338.521 688.138 344.082 693.394 347.22C698.65 350.359 704.971 350.348 704.971 353.134C704.971 355.92 690.245 403.275 690.245 403.275" stroke="#263238" stroke-width="1.06068" stroke-miterlimit="10" stroke-linecap="round"/>
<path d="M684.634 354.18L681.13 368.111" stroke="#263238" stroke-width="1.06068" stroke-miterlimit="10" stroke-linecap="round"/>
<path d="M625.822 362.357L620.154 350.552" stroke="#263238" stroke-width="0.530341" stroke-miterlimit="10" stroke-linecap="round"/>
<path d="M625.822 365.735L617.325 360.674" stroke="#263238" stroke-width="0.530341" stroke-miterlimit="10" stroke-linecap="round"/>
<path d="M653.544 392.141L651.85 400.579" stroke="#263238" stroke-width="0.530341" stroke-miterlimit="10" stroke-linecap="round"/>
<path d="M699.383 352.804C699.383 352.804 690.898 354.487 682.974 364.04" stroke="#263238" stroke-width="0.530341" stroke-miterlimit="10" stroke-linecap="round"/>
<path d="M693.726 352.292C693.726 352.292 691.436 351.723 683.546 358.467" stroke="#263238" stroke-width="0.530341" stroke-miterlimit="10" stroke-linecap="round"/>
<path d="M653.545 355.056L650.155 381.462L652.984 382.031L655.251 373.604" stroke="#263238" stroke-width="0.530341" stroke-miterlimit="10" stroke-linecap="round"/>
<path d="M655.812 424.177C645.62 432.615 631.479 432.046 631.479 432.046" stroke="#263238" stroke-width="0.530341" stroke-miterlimit="10" stroke-linecap="round"/>
<path d="M612.745 378.312C612.745 378.312 605.817 372.012 596.004 380.029" stroke="#263238" stroke-width="0.530341" stroke-miterlimit="10" stroke-linecap="round"/>
<path d="M652.732 330.855C652.732 330.855 649.927 331.549 646.766 336.428C643.606 341.307 639.758 349.654 642.564 350.348C645.369 351.041 650.579 347.914 650.579 347.914" stroke="#263238" stroke-width="1.06068" stroke-miterlimit="10" stroke-linecap="round"/>
<path d="M663.599 349.312L667.103 352.44" stroke="#263238" stroke-width="1.06068" stroke-miterlimit="10" stroke-linecap="round"/>
<path d="M647.819 334.335C647.819 334.335 634.845 336.075 629.59 336.428C624.334 336.78 625.353 338.702 623.635 339.908C620.864 341.83 589.076 381.849 586.992 385.682C584.908 389.514 585.24 391.254 588.744 392.3C592.248 393.346 627.15 399.442 627.15 399.442L657.988 402.581L660.438 394.916C660.438 394.916 667.606 395.86 668.866 395.86" stroke="#263238" stroke-width="1.06068" stroke-miterlimit="10" stroke-linecap="round"/>
<path d="M656.934 392.095C650.129 390.135 643.55 387.466 637.308 384.135" stroke="#263238" stroke-width="1.06068" stroke-miterlimit="10" stroke-linecap="round"/>
<path d="M634.502 383.43C634.502 383.43 624.196 379.631 618.62 378.938C613.043 378.244 604.501 378.017 604.501 378.017" stroke="#263238" stroke-width="1.06068" stroke-miterlimit="10" stroke-linecap="round"/>
<path d="M625.032 378.903L626.086 351.394" stroke="#263238" stroke-width="1.06068" stroke-miterlimit="10" stroke-linecap="round"/>
<path d="M657.987 402.581C660.393 403.782 662.913 404.742 665.511 405.447" stroke="#263238" stroke-width="1.06068" stroke-miterlimit="10" stroke-linecap="round"/>
<path d="M199.185 380.416L203.318 357.979L229.484 347.744C229.484 347.744 230.755 340.772 232.037 340.465C233.32 340.158 234.579 337.292 234.579 337.292L233.949 331.549C233.949 331.549 236.343 322.452 248.378 329.536C248.378 329.536 244.736 331.947 245.366 332.948C245.996 333.949 244.667 337.133 246.259 337.133C247.851 337.133 251.068 339.146 252.695 340.772C253.833 341.987 254.838 343.317 255.695 344.741L269.241 345.515C270.63 345.526 272.011 345.713 273.352 346.072C273.581 339.499 272.768 334.483 271.165 330.583C265.336 316.504 254.71 311.477 253.187 304.426C251.664 297.376 252.431 296.636 252.431 296.636C253.98 295.073 255.114 293.152 255.731 291.046C256.349 288.94 256.43 286.715 255.969 284.57C254.458 277.03 248.629 271.742 227.617 270.742C206.605 269.741 209.651 284.059 209.651 284.059L209.903 285.059C209.903 285.059 196.482 289.608 199.024 306.428C201.566 323.248 208.895 330.56 208.643 335.837C208.391 341.113 200.536 343.126 189.394 355.17C178.252 367.213 175.985 385.329 180.543 397.145C182.833 402.956 187.31 407.801 192.932 411.417L199.185 380.416Z" fill="#263238"/>
<path d="M216.727 382.634V387.706L207.028 417.467C213.089 419.06 219.445 419.192 225.567 417.854C229.023 416.959 232.327 415.56 235.369 413.703L216.727 382.634Z" fill="#263238"/>
<path d="M244.61 332.766L245.755 337.884C245.755 337.884 249.191 334.472 255.901 344.832C255.901 344.832 269.848 344.503 273.65 346.39C273.65 346.39 274.44 346.618 277.016 349.336C279.593 352.054 289.28 360.708 289.28 360.708C289.28 360.708 301.716 372.171 302.953 373.058C304.189 373.946 308.827 378.347 312.297 379.882L321.595 358.854L325.74 348.449L328.03 339.885H328.763L328.923 332.982L328.362 324.749C328.453 324.33 328.646 323.94 328.923 323.612C329.883 322.29 330.622 320.823 331.11 319.267C331.11 318.494 330.32 313.922 330.32 313.922C330.32 313.922 329.931 312.785 330.778 312.649C331.626 312.512 334.752 313.593 335.141 315.765L336.286 315.378C337.234 313.128 338.416 310.982 339.813 308.975C341.668 306.587 343.569 305.086 344.748 305.859C345.072 306.081 345.305 306.41 345.406 306.788C345.507 307.165 345.468 307.566 345.298 307.918L341.611 314.65C341.611 314.65 339.985 316.822 342 317.596C342 317.596 346.363 320.382 346.649 322.827C346.935 325.272 345.355 327.376 343.958 329.173C342.561 330.969 340.099 334.859 340.099 334.859L337.237 337.372L336.091 341.705L337.443 343.377L335.427 352.054L333.973 358.559L333.24 362.505L328.66 378.085L324.079 391.664C324.079 391.664 321.721 399.442 316.007 399.226C310.293 399.01 304.029 395.94 302.002 394.939C299.975 393.938 283.269 385.272 283.269 385.272L279.833 383.657C280.292 385.211 280.489 386.828 280.417 388.445C280.36 391.448 277.108 398.066 276.158 399.567L275.596 411.304C275.375 413.34 275.413 415.395 275.711 417.422C276.215 420.481 278.791 437.79 279.352 439.95C279.352 439.95 273.787 444.954 257.206 447.331C240.625 449.708 232.862 445.853 232.862 445.853L225.476 441.543L234.579 423.677C234.579 423.677 236.87 418.366 236.641 416.967C236.412 415.568 232.495 409.541 232.495 409.541L218.124 384.135L217.449 384.363L215.216 391.777L207.143 416.922L196.517 448.309C196.517 448.309 193.608 456.27 192.406 458.624L189.051 468.779C189.237 470.594 189.688 472.371 190.39 474.056L181.951 468.632L183.451 460.671L185.318 448.798L187.608 435.891L189.623 425.212L192.841 410.974L193.986 407.039L196.276 395.917L200.307 375.742L203.742 358.468L227.789 348.972L229.289 347.835C229.623 345.636 230.436 343.536 231.671 341.682C232.528 340.462 233.549 339.364 234.705 338.418C234.705 338.418 234.591 336.929 234.511 335.518C234.431 334.108 234.064 331.515 234.064 331.515C234.064 331.515 241.496 334.688 244.61 332.766Z" fill="white"/>
<path d="M212.398 287.061C212.398 287.061 216.853 277.27 225.762 277.27C234.67 277.27 253.118 294.646 253.118 294.646" stroke="white" stroke-width="0.530341" stroke-miterlimit="10" stroke-linecap="round"/>
<path d="M216.212 288.608C216.212 288.608 221.617 282.921 228.304 285.128C234.991 287.334 235.942 295.238 235.942 295.238" stroke="white" stroke-width="0.530341" stroke-miterlimit="10" stroke-linecap="round"/>
<path d="M211.757 289.585C211.757 289.585 203.81 294.009 203.169 302.231C202.528 310.454 214.299 320.234 215.891 331.299C217.483 342.364 209.215 344.878 195.852 354.044C182.489 363.21 184.722 383.737 187.584 388.161" stroke="white" stroke-width="0.530341" stroke-miterlimit="10" stroke-linecap="round"/>
<path d="M189.177 390.697C189.177 390.697 191.078 394.802 193.94 396.065" stroke="white" stroke-width="0.530341" stroke-miterlimit="10" stroke-linecap="round"/>
<path d="M212.72 311.068C212.343 311.87 212.175 312.753 212.229 313.637C212.283 314.521 212.558 315.377 213.029 316.129C214.621 318.972 226.77 333.187 225.762 339.828C224.755 346.47 218.445 350.564 218.445 350.564" stroke="white" stroke-width="0.530341" stroke-miterlimit="10" stroke-linecap="round"/>
<path d="M218.754 289.585C218.754 289.585 211.437 292.747 211.757 300.014C212.078 307.281 213.67 309.18 213.67 309.18" stroke="white" stroke-width="0.530341" stroke-miterlimit="10" stroke-linecap="round"/>
<path d="M253.118 313.627C255.392 318.739 258.511 323.436 262.348 327.524C268.073 333.21 268.703 341.432 268.703 341.432" stroke="white" stroke-width="0.530341" stroke-miterlimit="10" stroke-linecap="round"/>
<path d="M259.794 331.606C259.794 331.606 262.657 338.248 262.657 342.353" stroke="white" stroke-width="0.530341" stroke-miterlimit="10" stroke-linecap="round"/>
<path d="M243.957 333.369L234.968 341.409C234.968 341.409 234.007 343.843 232.197 347.744C230.388 351.644 230.686 359.116 230.686 359.116L236.228 370.067C236.228 370.067 225.567 357.922 224.96 356.421C224.353 354.919 213.2 357.626 211.093 358.524C208.986 359.423 206.261 361.22 206.868 363.915C207.475 366.61 210.189 370.192 208.975 370.795C207.761 371.398 204.452 369.897 204.452 371.694C204.452 373.49 208.379 380.382 206.57 382.77C204.761 385.158 193.299 423.802 193.299 423.802C193.299 423.802 200.536 417.808 198.726 420.208C196.917 422.608 188.18 442.066 188.18 442.066L184.859 453.438L192.703 413.021L199.333 378.904L203.318 357.979C207.166 356.705 229.483 347.744 229.483 347.744C229.483 347.744 231.247 340.374 234.579 337.292L233.949 331.549C233.949 331.549 240.03 333.665 243.957 333.369Z" fill="#009C8E"/>
<path opacity="0.5" d="M243.957 333.369L234.968 341.409C234.968 341.409 234.007 343.843 232.197 347.744C230.388 351.644 230.686 359.116 230.686 359.116L236.228 370.067C236.228 370.067 225.567 357.922 224.96 356.421C224.353 354.919 213.2 357.626 211.093 358.524C208.986 359.423 206.261 361.22 206.868 363.915C207.475 366.61 210.189 370.192 208.975 370.795C207.761 371.398 204.452 369.897 204.452 371.694C204.452 373.49 208.379 380.382 206.57 382.77C204.761 385.158 193.299 423.802 193.299 423.802C193.299 423.802 200.536 417.808 198.726 420.208C196.917 422.608 188.18 442.066 188.18 442.066L184.859 453.438L192.703 413.021L199.333 378.904L203.318 357.979C207.166 356.705 229.483 347.744 229.483 347.744C229.483 347.744 229.964 340.92 234.591 338.532L233.949 331.549C233.949 331.549 240.03 333.665 243.957 333.369Z" fill="white"/>
<path d="M277.417 373.786C277.417 373.786 282.845 364.814 283.452 366.906C284.059 368.999 281.94 376.175 281.94 376.175C281.94 376.175 287.666 374.082 287.07 375.879C286.475 377.676 285.261 378.574 285.559 379.473C285.856 380.371 305.46 390.549 307.876 391.743C310.292 392.937 316.018 386.057 318.732 388.15C321.446 390.242 318.732 397.418 313.304 397.43C307.876 397.441 292.2 390.606 292.2 390.606L279.856 383.476" fill="#009C8E"/>
<path opacity="0.5" d="M277.417 373.786C277.417 373.786 282.845 364.814 283.452 366.906C284.059 368.999 281.94 376.175 281.94 376.175C281.94 376.175 287.666 374.082 287.07 375.879C286.475 377.676 285.261 378.574 285.559 379.473C285.856 380.371 305.46 390.549 307.876 391.743C310.292 392.937 316.018 386.057 318.732 388.15C321.446 390.242 318.732 397.418 313.304 397.43C307.876 397.441 292.2 390.606 292.2 390.606L279.902 383.498" fill="white"/>
<path d="M244.862 410.019C244.862 410.019 280.108 391.459 274.383 398.339C268.657 405.22 249.683 413.021 244.862 410.019Z" fill="#009C8E"/>
<path opacity="0.5" d="M244.862 410.019C244.862 410.019 280.108 391.459 274.383 398.339C268.657 405.22 249.683 413.021 244.862 410.019Z" fill="white"/>
<path d="M233.949 331.606C233.949 331.606 234.201 336.383 234.968 341.409C235.736 346.436 235.472 346.436 240.282 352.463C245.091 358.491 250.152 363.529 250.908 362.528" stroke="#263238" stroke-width="1.06068" stroke-miterlimit="10" stroke-linecap="round"/>
<path d="M251.16 360.765C251.16 360.765 251.664 351.963 249.9 346.186C248.137 340.409 245.595 338.384 245.595 337.088C245.509 335.737 245.341 334.393 245.091 333.062" stroke="#263238" stroke-width="1.06068" stroke-miterlimit="10" stroke-linecap="round"/>
<path d="M233.95 338.896C231.927 340.705 230.512 343.086 229.896 345.719C229.141 349.734 228.385 354.51 228.385 354.51L236.229 370.102C236.912 367.387 237.931 364.766 239.263 362.3C239.923 361.083 240.778 359.981 241.794 359.036" stroke="#263238" stroke-width="1.06068" stroke-miterlimit="10" stroke-linecap="round"/>
<path d="M252.935 356.489C253.489 356.351 254.065 356.325 254.629 356.41C255.193 356.496 255.734 356.693 256.221 356.989C258.248 358.001 262.302 363.278 262.302 363.278C262.302 363.278 259.519 350.2 254.71 343.422C249.9 336.644 246.603 337.133 246.603 337.133" stroke="#263238" stroke-width="1.06068" stroke-miterlimit="10" stroke-linecap="round"/>
<path d="M227.617 348.699L203.318 357.979C203.318 357.979 194.467 405.993 191.169 418.81C187.871 431.626 182.317 467.836 182.317 467.836L188.89 469.087L191.18 462.559" stroke="#263238" stroke-linecap="round" stroke-linejoin="round"/>
<path d="M192.44 458.806C192.44 458.806 193.952 456.531 198.006 444.022C202.059 431.512 212.892 400.807 214.712 394.746C216.533 388.684 217.999 384.692 217.999 384.692" stroke="#263238" stroke-width="1.06068" stroke-miterlimit="10" stroke-linecap="round"/>
<path d="M213.692 377.312C213.692 377.312 234.189 413.703 235.964 415.272C237.739 416.842 235.209 421.05 234.693 423.313" stroke="#263238" stroke-width="1.06068" stroke-miterlimit="10" stroke-linecap="round"/>
<path d="M232.426 427.885L225.854 441.463C225.854 441.463 230.159 448.002 248.377 448.002C259.219 448.035 269.906 445.443 279.512 440.451C279.512 440.451 275.207 417.832 275.459 413.806C275.711 409.78 276.226 399.226 276.226 399.226C276.226 399.226 280.806 392.403 280.268 387.16C279.73 381.918 277.486 375.845 277.486 374.844C277.486 373.843 276.982 363.028 276.982 363.028" stroke="#263238" stroke-width="1.06068" stroke-miterlimit="10" stroke-linecap="round"/>
<path d="M248.343 405.538L266.481 394.484" stroke="#263238" stroke-width="0.530341" stroke-miterlimit="10" stroke-linecap="round"/>
<path d="M257.894 402.069L267.753 396.383" stroke="#263238" stroke-width="0.530341" stroke-miterlimit="10" stroke-linecap="round"/>
<path d="M312.17 380.121L308.472 389.116" stroke="#263238" stroke-width="0.530341" stroke-miterlimit="10" stroke-linecap="round"/>
<path d="M310.694 384.056L307.201 387.536" stroke="#263238" stroke-width="0.530341" stroke-miterlimit="10" stroke-linecap="round"/>
<path d="M207.303 415.978C207.303 415.978 201.257 422.926 197.123 425.769" stroke="#263238" stroke-width="0.530341" stroke-miterlimit="10" stroke-linecap="round"/>
<path d="M203.811 417.865C203.811 417.865 193.311 426.076 190.769 427.975" stroke="#263238" stroke-width="0.530341" stroke-miterlimit="10" stroke-linecap="round"/>
<path d="M205.677 359.412C208.842 363.857 211.711 368.503 214.265 373.32" stroke="#263238" stroke-width="0.530341" stroke-miterlimit="10" stroke-linecap="round"/>
<path d="M215.262 375.526L217.483 379.313" stroke="#263238" stroke-width="0.530341" stroke-miterlimit="10" stroke-linecap="round"/>
<path d="M277.485 374.844L280.268 360.765" stroke="#263238" stroke-width="0.530341" stroke-miterlimit="10" stroke-linecap="round"/>
<path d="M278.505 375.845L282.799 369.817" stroke="#263238" stroke-width="0.530341" stroke-miterlimit="10" stroke-linecap="round"/>
<path d="M217.998 384.647L205.849 378.107" stroke="#263238" stroke-width="0.530341" stroke-miterlimit="10" stroke-linecap="round"/>
<path d="M250.656 363.778C250.656 363.778 255.237 372.876 256.737 379.37" stroke="#263238" stroke-width="0.530341" stroke-miterlimit="10" stroke-linecap="round"/>
<path d="M325.831 347.937C327.043 347.848 328.26 348.004 329.409 348.395C330.558 348.786 331.616 349.404 332.518 350.211" stroke="#263238" stroke-width="0.530341" stroke-miterlimit="10" stroke-linecap="round"/>
<path d="M186.715 461.592L189.852 462.752" stroke="#263238" stroke-width="0.530341" stroke-miterlimit="10" stroke-linecap="round"/>
<path d="M182.237 468.29C182.276 472.614 182.047 476.936 181.55 481.232C180.794 486.52 181.046 498.586 182.054 502.35C183.061 506.114 183.577 506.899 184.584 504.625C185.592 502.35 188.638 489.045 188.638 489.045C188.638 489.045 189.142 497.835 191.42 497.085C193.699 496.334 192.44 492.058 192.44 488.283C192.44 484.507 192.691 483.256 192.44 480.242C192.188 477.229 188.81 469.78 188.81 469.78" fill="white"/>
<path d="M182.237 468.29C182.276 472.614 182.047 476.936 181.55 481.232C180.794 486.52 181.046 498.586 182.054 502.35C183.061 506.114 183.577 506.899 184.584 504.625C185.592 502.35 188.638 489.045 188.638 489.045C188.638 489.045 189.142 497.835 191.42 497.085C193.699 496.334 192.44 492.058 192.44 488.283C192.44 484.507 192.691 483.256 192.44 480.242C192.188 477.229 188.81 469.78 188.81 469.78" stroke="#263238" stroke-miterlimit="10" stroke-linecap="round"/>
<path d="M328.786 339.692C328.671 337.468 328.671 335.24 328.786 333.017C328.992 330.924 328.156 327.797 328.362 325.056C328.568 322.315 331.305 321.303 330.881 317.755C330.458 314.207 329.622 313.786 330.251 312.956C330.881 312.126 334.832 313.365 335.084 315.662C335.308 318.026 335.308 320.406 335.084 322.77C334.878 323.396 336.343 327.319 335.507 329.025C335.028 329.949 334.674 330.932 334.454 331.948" stroke="#263238" stroke-width="0.880843" stroke-miterlimit="10" stroke-linecap="round"/>
<path d="M335.931 315.48C335.931 315.48 340.763 305.882 343.5 305.666C346.236 305.45 345.389 307.94 344.542 309.214C343.694 310.488 340.969 315.06 340.763 316.947C340.557 318.835 338.026 325.079 338.026 325.079" stroke="#263238" stroke-width="0.880843" stroke-miterlimit="10" stroke-linecap="round"/>
<path d="M340.798 316.947C340.798 316.947 348.161 321.326 346.523 324.908C344.886 328.49 343.993 329.923 342.733 329.457C341.616 328.89 340.618 328.118 339.79 327.182" stroke="#263238" stroke-width="0.880843" stroke-miterlimit="10" stroke-linecap="round"/>
<path d="M343.5 329.468C343.5 329.468 341.599 332.596 340.133 334.483C339.29 335.574 338.291 336.535 337.168 337.338L336.274 340.42" stroke="#263238" stroke-width="0.880843" stroke-miterlimit="10" stroke-linecap="round"/>
<path d="M255.214 344.673C255.214 344.673 272.676 344.423 274.955 347.186C277.234 349.95 304.831 375.094 308.163 377.357C311.495 379.62 312.216 380.121 312.216 380.121C312.216 380.121 325.877 349.415 325.877 347.937C325.877 346.459 328.167 339.646 328.167 339.646C328.167 339.646 332.473 340.147 333.492 340.147C334.511 340.147 337.282 343.422 337.282 343.422C337.282 343.422 333.492 358.752 333.492 360.481C333.492 362.209 326.404 386.125 323.106 393.46C319.808 400.795 315.262 399.738 307.922 397.475C300.582 395.212 280.589 383.908 280.589 383.908" stroke="#263238" stroke-width="1.06068" stroke-miterlimit="10" stroke-linecap="round"/>
<path d="M225.853 441.463C225.853 441.463 215.719 466.641 212.983 483.779C210.246 500.918 211.414 540.994 210.624 545.281C209.834 549.568 198.864 569.8 198.864 579.534C198.864 589.269 192.989 639.478 192.989 639.478L196.905 641.809C196.905 641.809 210.647 599.732 215.719 588.871C220.792 578.011 227.869 552.286 229.827 547.226C231.785 542.165 245.514 501.679 246.293 496.619C247.072 491.558 251.778 479.105 251.778 479.105C251.778 479.105 261.969 540.994 263.927 553.844C265.886 566.695 279.604 636.362 279.604 636.362C280.505 636.581 281.425 636.71 282.352 636.749C283.497 636.749 283.921 634.804 283.921 634.804C283.921 634.804 289.406 585.368 287.837 572.131C286.268 558.894 281.573 542.563 281.573 537.878C281.573 533.192 288.627 492.729 288.627 478.742C288.627 464.754 279.466 440.474 279.466 440.474C279.466 440.474 246.957 456.759 225.853 441.463Z" fill="#263238"/>
<path d="M281.425 540.448C281.425 540.448 277.932 555.3 273.157 563.192" stroke="white" stroke-width="0.530341" stroke-miterlimit="10" stroke-linecap="round"/>
<path d="M280.474 555.618C280.474 555.618 277.611 566.354 271.886 571.415" stroke="white" stroke-width="0.530341" stroke-miterlimit="10" stroke-linecap="round"/>
<path d="M212.72 550.876C212.72 550.876 214.941 563.829 217.483 569.197" stroke="white" stroke-width="0.530341" stroke-miterlimit="10" stroke-linecap="round"/>
<path d="M212.078 558.461C212.078 558.461 213.99 567.628 217.483 572.995" stroke="white" stroke-width="0.530341" stroke-miterlimit="10" stroke-linecap="round"/>
<path d="M252.798 479.162L265.52 468.734" stroke="white" stroke-width="0.530341" stroke-miterlimit="10" stroke-linecap="round"/>
<path d="M258.844 474.738L273.799 468.097" stroke="white" stroke-width="0.530341" stroke-miterlimit="10" stroke-linecap="round"/>
<path d="M226.071 457.043C226.071 457.043 235.942 463.355 241.667 468.734" stroke="white" stroke-width="0.530341" stroke-miterlimit="10" stroke-linecap="round"/>
<path d="M193.402 639.444C193.402 639.444 178.516 651.953 178.516 658.163C178.516 664.372 184.39 663.997 190.665 658.163C196.94 652.329 197.261 640.308 197.261 640.308L193.402 639.444Z" fill="white" stroke="#263238" stroke-width="1.06068" stroke-miterlimit="10" stroke-linecap="round"/>
<path d="M279.604 636.362C279.604 636.362 284.7 648.814 290.197 654.273C295.693 659.732 298.819 661.665 298.819 655.82C298.819 649.974 295.292 643.367 283.933 634.804C283.921 634.804 287.059 637.135 279.604 636.362Z" fill="white" stroke="#263238" stroke-width="1.06068" stroke-miterlimit="10" stroke-linecap="round"/>
<path d="M227.022 291.678C226.003 291.303 225.041 290.848 224.045 290.427C223.049 290.006 221.228 289.779 220.541 292.884C219.522 297.432 226.61 301.185 224.331 304.95C222.913 307.24 220.783 309.008 218.262 309.988C217.852 310.128 217.424 310.212 216.991 310.238C214.964 310.488 211.678 310.238 212.686 313.752C213.693 317.266 216.991 320.291 219.018 320.291H221.045C221.045 320.291 223.335 327.114 231.923 330.844C240.511 334.575 246.351 334.37 248.378 329.593C250.405 324.817 251.928 320.791 251.928 314.502C251.928 308.213 249.638 297.66 249.638 297.66C249.638 297.66 247.611 300.435 239.767 296.909C234.58 294.578 229.724 292.69 227.022 291.678Z" fill="white"/>
<g style="mix-blend-mode:multiply" opacity="0.5">
<path d="M239.778 296.909C239.778 296.909 227.674 296.238 225.865 296.534C224.056 296.829 226.163 302.22 225.567 307.61C224.972 313.001 225.258 321.689 227.674 324.385C230.525 327.164 233.546 329.765 236.72 332.175C236.72 332.175 227.434 330.685 224.056 326.784C220.678 322.883 220.139 320.791 220.139 320.791C220.139 320.791 212.296 316.242 211.689 312.705C211.082 309.168 216.269 311.045 218.754 309.293C220.151 308.338 225.934 306.541 224.479 301.754C223.025 296.966 220.678 296.067 220.586 292.86C220.517 290.586 222.533 289.926 223.769 289.722C224.327 289.628 224.9 289.712 225.407 289.96L239.778 296.909Z" fill="#009C8E"/>
</g>
<path d="M227.022 291.678C226.003 291.303 225.041 290.848 224.045 290.427C223.049 290.006 221.228 289.779 220.541 292.884C219.522 297.432 226.61 301.185 224.331 304.95C222.913 307.24 220.783 309.008 218.262 309.988C217.852 310.128 217.424 310.212 216.991 310.238C214.964 310.488 211.678 310.238 212.686 313.752C213.693 317.266 216.991 320.291 219.018 320.291H221.045C221.045 320.291 223.335 327.114 231.923 330.844C240.511 334.575 246.351 334.37 248.378 329.593C250.405 324.817 251.928 320.791 251.928 314.502C251.928 308.213 249.638 297.66 249.638 297.66C249.638 297.66 247.611 300.435 239.767 296.909C234.58 294.578 229.724 292.69 227.022 291.678Z" stroke="#263238" stroke-width="1.06068" stroke-miterlimit="10" stroke-linecap="round"/>
<path d="M235.965 306.576C236.125 307.531 235.862 308.373 235.369 308.452C234.877 308.532 234.373 307.816 234.224 306.86C234.075 305.905 234.339 305.052 234.82 304.972C235.301 304.893 235.804 305.666 235.965 306.576Z" fill="#263238"/>
<path d="M246.442 304.835C246.591 305.791 246.328 306.632 245.847 306.712C245.366 306.792 244.851 306.075 244.702 305.12C244.553 304.165 244.805 303.323 245.286 303.243C245.767 303.164 246.282 303.88 246.442 304.835Z" fill="#263238"/>
<path d="M229.896 301.936C230.536 300.99 231.405 300.218 232.423 299.692C233.442 299.166 234.576 298.901 235.724 298.922" stroke="#263238" stroke-width="1.06068" stroke-miterlimit="10" stroke-linecap="round"/>
<path d="M243.568 299.672C244.541 299.335 245.594 299.299 246.588 299.569C247.582 299.839 248.469 300.402 249.133 301.185" stroke="#263238" stroke-width="1.06068" stroke-miterlimit="10" stroke-linecap="round"/>
<path d="M242.56 303.949C242.42 305.538 242.42 307.136 242.56 308.725C242.812 310.738 244.324 311.238 243.82 312.751C243.316 314.263 241.289 314.252 241.289 314.252" stroke="#263238" stroke-width="1.06068" stroke-miterlimit="10" stroke-linecap="round"/>
<path d="M238.759 320.29C237.891 320.494 236.99 320.509 236.116 320.334C235.243 320.159 234.418 319.799 233.697 319.278" stroke="#263238" stroke-width="1.06068" stroke-miterlimit="10" stroke-linecap="round"/>
</svg>
