<svg width="705" height="795" viewBox="0 0 705 795" fill="none" xmlns="http://www.w3.org/2000/svg">
<path d="M26.1569 419.117C117.656 688.117 -164.343 711.616 164.157 781.116C492.656 850.616 572 640 675.657 408.117C779.313 176.233 580.156 176.616 490.157 39.1164C400.157 -98.3835 -65.3427 150.116 26.1569 419.117Z" fill="#F3F7F9"/>
<path d="M164.519 203.398H98.1978V283.252H164.519V203.398Z" stroke="#B2B2B2" stroke-linecap="round" stroke-linejoin="round"/>
<path d="M110.317 269.373V246.241C109.901 246.716 109.365 247.071 108.765 247.266C108.133 247.508 107.462 247.634 106.785 247.64V244.413C107.74 244.273 108.643 243.887 109.403 243.291C110.242 242.666 110.893 241.823 111.286 240.853H114.652V269.373H110.317Z" fill="#B2B2B2"/>
<path d="M119.501 269.373V265.384H123.102V269.373H119.501Z" fill="#B2B2B2"/>
<path d="M137.591 267.669C137.072 268.355 136.389 268.899 135.605 269.253C134.821 269.606 133.961 269.757 133.103 269.692C132.285 269.761 131.462 269.648 130.693 269.361C129.924 269.073 129.229 268.619 128.657 268.029C127.578 266.394 127.089 264.439 127.272 262.489V260.937H131.427V261.533C131.361 262.722 131.482 263.914 131.787 265.065C131.883 265.347 132.073 265.588 132.326 265.746C132.578 265.905 132.877 265.973 133.172 265.938C133.823 265.938 134.225 265.813 134.378 265.55C134.522 265.301 134.647 265.042 134.752 264.774C134.888 263.941 134.935 263.096 134.89 262.253V258.015C134.091 258.471 133.176 258.682 132.258 258.624C131.439 258.703 130.614 258.549 129.879 258.178C129.143 257.808 128.528 257.238 128.103 256.533C127.176 254.552 126.762 252.371 126.898 250.189V249.164C126.898 245.618 127.507 243.235 128.726 242.016C129.298 241.493 129.969 241.091 130.7 240.834C131.43 240.577 132.205 240.47 132.979 240.52C134.417 240.409 135.852 240.784 137.051 241.587C137.947 242.335 138.55 243.375 138.755 244.523C139.045 246.132 139.175 247.765 139.142 249.399V260.785C139.032 264.012 138.561 266.312 137.591 267.669ZM132.895 255.05C133.107 255.084 133.323 255.074 133.531 255.022C133.738 254.969 133.933 254.876 134.104 254.747C134.275 254.617 134.418 254.455 134.524 254.269C134.631 254.083 134.698 253.878 134.724 253.665V248.249C134.776 247.224 134.649 246.198 134.35 245.216C134.218 244.94 134.01 244.708 133.752 244.545C133.493 244.382 133.194 244.296 132.888 244.296C132.583 244.296 132.284 244.382 132.025 244.545C131.767 244.708 131.559 244.94 131.427 245.216C131.114 246.205 130.983 247.242 131.039 248.277V250.812C130.979 251.924 131.105 253.038 131.413 254.109C131.513 254.413 131.716 254.673 131.986 254.844C132.256 255.016 132.578 255.089 132.895 255.05Z" fill="#B2B2B2"/>
<path d="M152.994 267.669C152.475 268.355 151.792 268.899 151.008 269.253C150.224 269.606 149.364 269.757 148.506 269.692C147.688 269.761 146.865 269.648 146.096 269.361C145.327 269.073 144.631 268.619 144.06 268.029C142.98 266.394 142.492 264.439 142.675 262.489V260.937H146.83V261.533C146.771 262.722 146.892 263.913 147.19 265.065C147.286 265.347 147.476 265.588 147.728 265.746C147.98 265.905 148.279 265.973 148.575 265.938C149.226 265.938 149.628 265.813 149.78 265.55C149.925 265.301 150.05 265.042 150.154 264.774C150.291 263.941 150.338 263.096 150.293 262.253V258.015C149.494 258.471 148.579 258.682 147.661 258.624C146.842 258.701 146.017 258.546 145.282 258.176C144.547 257.806 143.932 257.237 143.506 256.533C142.579 254.552 142.165 252.371 142.301 250.189V249.164C142.301 245.618 142.91 243.235 144.129 242.016C144.701 241.494 145.372 241.092 146.103 240.835C146.833 240.578 147.608 240.471 148.381 240.52C149.82 240.409 151.254 240.784 152.454 241.587C153.349 242.335 153.953 243.375 154.157 244.523C154.448 246.132 154.578 247.765 154.545 249.399V260.785C154.434 264.012 153.963 266.312 152.994 267.669ZM148.298 255.05C148.51 255.084 148.726 255.074 148.933 255.022C149.141 254.969 149.336 254.876 149.507 254.747C149.677 254.617 149.82 254.455 149.927 254.269C150.033 254.083 150.101 253.878 150.127 253.665V248.249C150.179 247.224 150.052 246.198 149.753 245.216C149.621 244.94 149.413 244.708 149.155 244.545C148.896 244.382 148.597 244.296 148.291 244.296C147.986 244.296 147.686 244.382 147.428 244.545C147.169 244.708 146.962 244.94 146.83 245.216C146.517 246.205 146.386 247.242 146.442 248.277V250.812C146.381 251.924 146.508 253.038 146.816 254.109C146.929 254.404 147.134 254.656 147.401 254.826C147.668 254.995 147.983 255.074 148.298 255.05V255.05Z" fill="#B2B2B2"/>
<path d="M107.215 235.604H154.878" stroke="#B2B2B2" stroke-linecap="round" stroke-linejoin="round"/>
<path d="M107.215 229.162H154.878" stroke="#B2B2B2" stroke-linecap="round" stroke-linejoin="round"/>
<path d="M157.343 217.236L140.417 207.471V213.15H107.852V221.322H140.417V227.001L157.343 217.236Z" stroke="#B2B2B2" stroke-linecap="round" stroke-linejoin="round"/>
<path d="M242.572 246.145H172.539V282.56H242.572V246.145Z" stroke="#B2B2B2" stroke-linecap="round" stroke-linejoin="round"/>
<path d="M172.857 258.749H242.572" stroke="#B2B2B2" stroke-linecap="round" stroke-linejoin="round"/>
<path d="M317.37 246.145H247.337V282.56H317.37V246.145Z" stroke="#B2B2B2" stroke-linecap="round" stroke-linejoin="round"/>
<path d="M247.655 258.749H317.37" stroke="#B2B2B2" stroke-linecap="round" stroke-linejoin="round"/>
<path d="M392.167 246.145H322.134V282.56H392.167V246.145Z" stroke="#B2B2B2" stroke-linecap="round" stroke-linejoin="round"/>
<path d="M322.454 258.749H392.169" stroke="#B2B2B2" stroke-linecap="round" stroke-linejoin="round"/>
<path d="M466.965 246.145H396.932V282.56H466.965V246.145Z" stroke="#B2B2B2" stroke-linecap="round" stroke-linejoin="round"/>
<path d="M397.25 258.749H466.965" stroke="#B2B2B2" stroke-linecap="round" stroke-linejoin="round"/>
<path d="M541.764 246.145H471.73V282.56H541.764V246.145Z" stroke="#B2B2B2" stroke-linecap="round" stroke-linejoin="round"/>
<path d="M472.049 258.749H541.763" stroke="#B2B2B2" stroke-linecap="round" stroke-linejoin="round"/>
<path d="M79.4839 283.225H562.139" stroke="#B2B2B2" stroke-linecap="round" stroke-linejoin="round"/>
<path d="M79.4839 297.076H562.139" stroke="#B2B2B2" stroke-linecap="round" stroke-linejoin="round"/>
<path d="M79.4839 358.272H562.139" stroke="#B2B2B2" stroke-linecap="round" stroke-linejoin="round"/>
<path d="M561.988 372.525H495.667V452.379H561.988V372.525Z" stroke="#B2B2B2" stroke-linecap="round" stroke-linejoin="round"/>
<path d="M507.772 438.486V415.368C507.354 415.84 506.819 416.194 506.22 416.393C505.59 416.624 504.925 416.746 504.253 416.753V413.526C505.203 413.388 506.1 413.006 506.857 412.418C507.694 411.781 508.349 410.936 508.755 409.966H512.121V438.486H507.772Z" fill="#B2B2B2"/>
<path d="M516.956 438.486V434.511H520.641V438.486H516.956Z" fill="#B2B2B2"/>
<path d="M535.06 436.783C534.543 437.471 533.861 438.018 533.077 438.374C532.292 438.729 531.431 438.882 530.573 438.819C529.751 438.889 528.925 438.775 528.153 438.485C527.382 438.195 526.684 437.736 526.112 437.143C525.03 435.509 524.541 433.553 524.727 431.602V430.051H528.883V430.646C528.829 431.83 528.951 433.016 529.243 434.165C529.336 434.449 529.525 434.693 529.778 434.854C530.03 435.016 530.33 435.085 530.628 435.051C531.279 435.051 531.667 434.913 531.819 434.649C531.963 434.401 532.088 434.141 532.193 433.874C532.339 433.042 532.39 432.196 532.346 431.353V427.142C531.54 427.592 530.621 427.799 529.7 427.737C528.891 427.808 528.079 427.649 527.356 427.279C526.633 426.909 526.03 426.343 525.614 425.646C524.687 423.671 524.272 421.494 524.409 419.316V418.277C524.409 414.731 525.018 412.348 526.237 411.13C527.365 410.135 528.835 409.619 530.337 409.689C531.77 409.571 533.201 409.942 534.396 410.742C535.295 411.492 535.899 412.538 536.099 413.692C536.397 415.3 536.531 416.933 536.501 418.568V429.954C536.501 433.14 536.016 435.425 535.06 436.783ZM530.365 424.178C530.576 424.209 530.791 424.198 530.998 424.145C531.205 424.092 531.399 423.998 531.57 423.869C531.74 423.74 531.883 423.578 531.99 423.393C532.097 423.209 532.166 423.004 532.193 422.793V417.39C532.253 416.364 532.121 415.335 531.805 414.357C531.704 414.061 531.504 413.807 531.24 413.639C530.976 413.47 530.663 413.396 530.351 413.429C530.037 413.406 529.725 413.485 529.46 413.655C529.195 413.825 528.993 414.076 528.883 414.371C528.57 415.359 528.438 416.397 528.495 417.432V419.981C528.429 421.089 528.561 422.201 528.883 423.263C528.987 423.557 529.187 423.807 529.451 423.973C529.715 424.139 530.027 424.211 530.337 424.178H530.365Z" fill="#B2B2B2"/>
<path d="M550.463 436.783C549.945 437.471 549.263 438.018 548.479 438.374C547.695 438.73 546.834 438.883 545.975 438.819C545.154 438.889 544.327 438.775 543.555 438.485C542.784 438.195 542.087 437.736 541.515 437.143C540.432 435.509 539.943 433.553 540.13 431.602V430.051H544.285V430.646C544.232 431.83 544.353 433.016 544.645 434.165C544.739 434.449 544.928 434.693 545.18 434.854C545.432 435.016 545.733 435.085 546.03 435.051C546.681 435.051 547.069 434.913 547.222 434.649C547.366 434.401 547.491 434.141 547.596 433.874C547.741 433.042 547.793 432.196 547.748 431.353V427.142C546.942 427.593 546.023 427.799 545.102 427.738C544.293 427.808 543.481 427.649 542.759 427.279C542.036 426.909 541.432 426.343 541.016 425.646C540.089 423.671 539.675 421.494 539.811 419.316V418.277C539.811 414.731 540.42 412.348 541.639 411.13C542.213 410.611 542.885 410.213 543.616 409.958C544.346 409.704 545.12 409.598 545.892 409.647C547.325 409.529 548.755 409.9 549.95 410.7C550.85 411.451 551.454 412.496 551.654 413.651C551.952 415.258 552.086 416.892 552.056 418.526V429.912C551.903 433.14 551.419 435.425 550.463 436.783ZM545.767 424.178C545.978 424.209 546.194 424.198 546.401 424.145C546.608 424.092 546.802 423.998 546.972 423.869C547.142 423.74 547.285 423.578 547.392 423.394C547.499 423.209 547.568 423.004 547.596 422.793V417.39C547.655 416.364 547.523 415.335 547.208 414.357C547.106 414.061 546.907 413.807 546.643 413.639C546.378 413.47 546.065 413.396 545.753 413.429C545.44 413.406 545.127 413.486 544.862 413.655C544.598 413.825 544.395 414.076 544.285 414.371C543.972 415.359 543.841 416.397 543.897 417.432V419.981C543.832 421.089 543.963 422.201 544.285 423.263C544.39 423.562 544.595 423.816 544.864 423.983C545.134 424.149 545.453 424.218 545.767 424.178Z" fill="#B2B2B2"/>
<path d="M504.684 404.716H552.333" stroke="#B2B2B2" stroke-linecap="round" stroke-linejoin="round"/>
<path d="M504.684 398.275H552.333" stroke="#B2B2B2" stroke-linecap="round" stroke-linejoin="round"/>
<path d="M554.799 386.363L537.873 376.584V382.263H505.308V390.449H537.873V396.128L554.799 386.363Z" stroke="#B2B2B2" stroke-linecap="round" stroke-linejoin="round"/>
<path d="M79.4839 372.138H562.139" stroke="#B2B2B2" stroke-linecap="round" stroke-linejoin="round"/>
<path d="M79.4839 433.652H492.591" stroke="#B2B2B2" stroke-linecap="round" stroke-linejoin="round"/>
<path d="M79.4839 447.503H492.591" stroke="#B2B2B2" stroke-linecap="round" stroke-linejoin="round"/>
<path d="M79.4839 508.381H562.139" stroke="#B2B2B2" stroke-linecap="round" stroke-linejoin="round"/>
<path d="M79.4839 522.246H562.139" stroke="#B2B2B2" stroke-linecap="round" stroke-linejoin="round"/>
<path d="M79.4839 583.442H562.139" stroke="#B2B2B2" stroke-linecap="round" stroke-linejoin="round"/>
<path d="M79.4839 597.294H562.139" stroke="#B2B2B2" stroke-linecap="round" stroke-linejoin="round"/>
<path d="M124.848 304.528H98.8345V358.272H124.848V304.528Z" stroke="#B2B2B2" stroke-linecap="round" stroke-linejoin="round"/>
<path d="M118.005 307.866H104.541V343.423H118.005V307.866Z" stroke="#B2B2B2" stroke-linecap="round" stroke-linejoin="round"/>
<path d="M104.277 348.258H118.254" stroke="#B2B2B2" stroke-linecap="round" stroke-linejoin="round"/>
<path d="M104.277 352.565H118.254" stroke="#B2B2B2" stroke-linecap="round" stroke-linejoin="round"/>
<path d="M152.785 304.528H126.772V358.272H152.785V304.528Z" stroke="#B2B2B2" stroke-linecap="round" stroke-linejoin="round"/>
<path d="M145.944 307.866H132.48V343.423H145.944V307.866Z" stroke="#B2B2B2" stroke-linecap="round" stroke-linejoin="round"/>
<path d="M132.217 348.258H146.193" stroke="#B2B2B2" stroke-linecap="round" stroke-linejoin="round"/>
<path d="M132.217 352.565H146.193" stroke="#B2B2B2" stroke-linecap="round" stroke-linejoin="round"/>
<path d="M180.725 304.528H154.711V358.272H180.725V304.528Z" stroke="#B2B2B2" stroke-linecap="round" stroke-linejoin="round"/>
<path d="M173.881 307.866H160.417V343.423H173.881V307.866Z" stroke="#B2B2B2" stroke-linecap="round" stroke-linejoin="round"/>
<path d="M160.154 348.258H174.13" stroke="#B2B2B2" stroke-linecap="round" stroke-linejoin="round"/>
<path d="M160.154 352.565H174.13" stroke="#B2B2B2" stroke-linecap="round" stroke-linejoin="round"/>
<path d="M208.664 304.528H182.65V358.272H208.664V304.528Z" stroke="#B2B2B2" stroke-linecap="round" stroke-linejoin="round"/>
<path d="M201.82 307.866H188.356V343.423H201.82V307.866Z" stroke="#B2B2B2" stroke-linecap="round" stroke-linejoin="round"/>
<path d="M188.094 348.258H202.07" stroke="#B2B2B2" stroke-linecap="round" stroke-linejoin="round"/>
<path d="M188.094 352.565H202.07" stroke="#B2B2B2" stroke-linecap="round" stroke-linejoin="round"/>
<path d="M236.601 304.528H210.588V358.272H236.601V304.528Z" stroke="#B2B2B2" stroke-linecap="round" stroke-linejoin="round"/>
<path d="M229.76 307.866H216.296V343.423H229.76V307.866Z" stroke="#B2B2B2" stroke-linecap="round" stroke-linejoin="round"/>
<path d="M216.033 348.258H230.009" stroke="#B2B2B2" stroke-linecap="round" stroke-linejoin="round"/>
<path d="M216.033 352.565H230.009" stroke="#B2B2B2" stroke-linecap="round" stroke-linejoin="round"/>
<path d="M264.54 304.528H238.527V358.272H264.54V304.528Z" stroke="#B2B2B2" stroke-linecap="round" stroke-linejoin="round"/>
<path d="M257.697 307.866H244.233V343.423H257.697V307.866Z" stroke="#B2B2B2" stroke-linecap="round" stroke-linejoin="round"/>
<path d="M243.97 348.258H257.946" stroke="#B2B2B2" stroke-linecap="round" stroke-linejoin="round"/>
<path d="M243.97 352.565H257.946" stroke="#B2B2B2" stroke-linecap="round" stroke-linejoin="round"/>
<path d="M292.478 304.528H266.465V358.272H292.478V304.528Z" stroke="#B2B2B2" stroke-linecap="round" stroke-linejoin="round"/>
<path d="M285.621 307.866H272.158V343.423H285.621V307.866Z" stroke="#B2B2B2" stroke-linecap="round" stroke-linejoin="round"/>
<path d="M271.91 348.258H285.886" stroke="#B2B2B2" stroke-linecap="round" stroke-linejoin="round"/>
<path d="M271.91 352.565H285.886" stroke="#B2B2B2" stroke-linecap="round" stroke-linejoin="round"/>
<path d="M320.417 304.528H294.404V358.272H320.417V304.528Z" stroke="#B2B2B2" stroke-linecap="round" stroke-linejoin="round"/>
<path d="M313.56 307.866H300.097V343.423H313.56V307.866Z" stroke="#B2B2B2" stroke-linecap="round" stroke-linejoin="round"/>
<path d="M299.847 348.258H313.823" stroke="#B2B2B2" stroke-linecap="round" stroke-linejoin="round"/>
<path d="M299.847 352.565H313.823" stroke="#B2B2B2" stroke-linecap="round" stroke-linejoin="round"/>
<path d="M348.355 304.528H322.342V358.272H348.355V304.528Z" stroke="#B2B2B2" stroke-linecap="round" stroke-linejoin="round"/>
<path d="M341.5 307.866H328.036V343.423H341.5V307.866Z" stroke="#B2B2B2" stroke-linecap="round" stroke-linejoin="round"/>
<path d="M327.786 348.258H341.762" stroke="#B2B2B2" stroke-linecap="round" stroke-linejoin="round"/>
<path d="M327.786 352.565H341.762" stroke="#B2B2B2" stroke-linecap="round" stroke-linejoin="round"/>
<path d="M376.294 304.528H350.281V358.272H376.294V304.528Z" stroke="#B2B2B2" stroke-linecap="round" stroke-linejoin="round"/>
<path d="M369.437 307.866H355.974V343.423H369.437V307.866Z" stroke="#B2B2B2" stroke-linecap="round" stroke-linejoin="round"/>
<path d="M355.724 348.258H369.686" stroke="#B2B2B2" stroke-linecap="round" stroke-linejoin="round"/>
<path d="M355.724 352.565H369.686" stroke="#B2B2B2" stroke-linecap="round" stroke-linejoin="round"/>
<path d="M404.231 304.528H378.218V358.272H404.231V304.528Z" stroke="#B2B2B2" stroke-linecap="round" stroke-linejoin="round"/>
<path d="M397.377 307.866H383.913V343.423H397.377V307.866Z" stroke="#B2B2B2" stroke-linecap="round" stroke-linejoin="round"/>
<path d="M383.663 348.258H397.625" stroke="#B2B2B2" stroke-linecap="round" stroke-linejoin="round"/>
<path d="M383.663 352.565H397.625" stroke="#B2B2B2" stroke-linecap="round" stroke-linejoin="round"/>
<path d="M432.171 304.528H406.158V358.272H432.171V304.528Z" stroke="#B2B2B2" stroke-linecap="round" stroke-linejoin="round"/>
<path d="M425.314 307.866H411.851V343.423H425.314V307.866Z" stroke="#B2B2B2" stroke-linecap="round" stroke-linejoin="round"/>
<path d="M411.601 348.258H425.563" stroke="#B2B2B2" stroke-linecap="round" stroke-linejoin="round"/>
<path d="M411.601 352.565H425.563" stroke="#B2B2B2" stroke-linecap="round" stroke-linejoin="round"/>
<path d="M460.11 304.528H434.097V358.272H460.11V304.528Z" stroke="#B2B2B2" stroke-linecap="round" stroke-linejoin="round"/>
<path d="M453.253 307.866H439.79V343.423H453.253V307.866Z" stroke="#B2B2B2" stroke-linecap="round" stroke-linejoin="round"/>
<path d="M439.54 348.258H453.502" stroke="#B2B2B2" stroke-linecap="round" stroke-linejoin="round"/>
<path d="M439.54 352.565H453.502" stroke="#B2B2B2" stroke-linecap="round" stroke-linejoin="round"/>
<path d="M488.047 304.528H462.034V358.272H488.047V304.528Z" stroke="#B2B2B2" stroke-linecap="round" stroke-linejoin="round"/>
<path d="M481.191 307.866H467.727V343.423H481.191V307.866Z" stroke="#B2B2B2" stroke-linecap="round" stroke-linejoin="round"/>
<path d="M467.479 348.258H481.441" stroke="#B2B2B2" stroke-linecap="round" stroke-linejoin="round"/>
<path d="M467.479 352.565H481.441" stroke="#B2B2B2" stroke-linecap="round" stroke-linejoin="round"/>
<path d="M515.972 304.528H489.958V358.272H515.972V304.528Z" stroke="#B2B2B2" stroke-linecap="round" stroke-linejoin="round"/>
<path d="M509.13 307.866H495.667V343.423H509.13V307.866Z" stroke="#B2B2B2" stroke-linecap="round" stroke-linejoin="round"/>
<path d="M495.417 348.258H509.379" stroke="#B2B2B2" stroke-linecap="round" stroke-linejoin="round"/>
<path d="M495.417 352.565H509.379" stroke="#B2B2B2" stroke-linecap="round" stroke-linejoin="round"/>
<path d="M543.911 304.528H517.897V358.272H543.911V304.528Z" stroke="#B2B2B2" stroke-linecap="round" stroke-linejoin="round"/>
<path d="M537.068 307.866H523.604V343.423H537.068V307.866Z" stroke="#B2B2B2" stroke-linecap="round" stroke-linejoin="round"/>
<path d="M523.356 348.258H537.318" stroke="#B2B2B2" stroke-linecap="round" stroke-linejoin="round"/>
<path d="M523.356 352.565H537.318" stroke="#B2B2B2" stroke-linecap="round" stroke-linejoin="round"/>
<path d="M123.711 404.73H103.543V433.542H123.711V404.73Z" stroke="#B2B2B2" stroke-linecap="round" stroke-linejoin="round"/>
<path d="M104.319 407.999H123.573" stroke="#B2B2B2" stroke-linecap="round" stroke-linejoin="round"/>
<path d="M104.319 430.549H123.573" stroke="#B2B2B2" stroke-linecap="round" stroke-linejoin="round"/>
<path d="M113.573 425.23C117.283 425.23 120.291 422.223 120.291 418.512C120.291 414.802 117.283 411.794 113.573 411.794C109.863 411.794 106.855 414.802 106.855 418.512C106.855 422.223 109.863 425.23 113.573 425.23Z" stroke="#B2B2B2" stroke-linecap="round" stroke-linejoin="round"/>
<path d="M146.221 404.73H126.053V433.542H146.221V404.73Z" stroke="#B2B2B2" stroke-linecap="round" stroke-linejoin="round"/>
<path d="M126.829 407.999H146.083" stroke="#B2B2B2" stroke-linecap="round" stroke-linejoin="round"/>
<path d="M126.829 430.549H146.083" stroke="#B2B2B2" stroke-linecap="round" stroke-linejoin="round"/>
<path d="M136.081 425.23C139.791 425.23 142.799 422.223 142.799 418.512C142.799 414.802 139.791 411.794 136.081 411.794C132.371 411.794 129.363 414.802 129.363 418.512C129.363 422.223 132.371 425.23 136.081 425.23Z" stroke="#B2B2B2" stroke-linecap="round" stroke-linejoin="round"/>
<path d="M168.729 404.73H148.561V433.542H168.729V404.73Z" stroke="#B2B2B2" stroke-linecap="round" stroke-linejoin="round"/>
<path d="M149.337 407.999H168.59" stroke="#B2B2B2" stroke-linecap="round" stroke-linejoin="round"/>
<path d="M149.337 430.549H168.59" stroke="#B2B2B2" stroke-linecap="round" stroke-linejoin="round"/>
<path d="M158.591 425.23C162.301 425.23 165.309 422.223 165.309 418.512C165.309 414.802 162.301 411.794 158.591 411.794C154.88 411.794 151.873 414.802 151.873 418.512C151.873 422.223 154.88 425.23 158.591 425.23Z" stroke="#B2B2B2" stroke-linecap="round" stroke-linejoin="round"/>
<path d="M191.239 404.73H171.071V433.542H191.239V404.73Z" stroke="#B2B2B2" stroke-linecap="round" stroke-linejoin="round"/>
<path d="M171.845 407.999H191.098" stroke="#B2B2B2" stroke-linecap="round" stroke-linejoin="round"/>
<path d="M171.845 430.549H191.098" stroke="#B2B2B2" stroke-linecap="round" stroke-linejoin="round"/>
<path d="M181.098 425.23C184.809 425.23 187.816 422.223 187.816 418.512C187.816 414.802 184.809 411.794 181.098 411.794C177.388 411.794 174.38 414.802 174.38 418.512C174.38 422.223 177.388 425.23 181.098 425.23Z" stroke="#B2B2B2" stroke-linecap="round" stroke-linejoin="round"/>
<path d="M213.746 404.73H193.579V433.542H213.746V404.73Z" stroke="#B2B2B2" stroke-linecap="round" stroke-linejoin="round"/>
<path d="M194.354 407.999H213.608" stroke="#B2B2B2" stroke-linecap="round" stroke-linejoin="round"/>
<path d="M194.354 430.549H213.608" stroke="#B2B2B2" stroke-linecap="round" stroke-linejoin="round"/>
<path d="M203.608 425.23C207.318 425.23 210.326 422.223 210.326 418.512C210.326 414.802 207.318 411.794 203.608 411.794C199.898 411.794 196.89 414.802 196.89 418.512C196.89 422.223 199.898 425.23 203.608 425.23Z" stroke="#B2B2B2" stroke-linecap="round" stroke-linejoin="round"/>
<path d="M236.256 404.73H216.088V433.542H236.256V404.73Z" stroke="#B2B2B2" stroke-linecap="round" stroke-linejoin="round"/>
<path d="M216.862 407.999H236.116" stroke="#B2B2B2" stroke-linecap="round" stroke-linejoin="round"/>
<path d="M216.862 430.549H236.116" stroke="#B2B2B2" stroke-linecap="round" stroke-linejoin="round"/>
<path d="M226.116 425.23C229.826 425.23 232.834 422.223 232.834 418.512C232.834 414.802 229.826 411.794 226.116 411.794C222.406 411.794 219.398 414.802 219.398 418.512C219.398 422.223 222.406 425.23 226.116 425.23Z" stroke="#B2B2B2" stroke-linecap="round" stroke-linejoin="round"/>
<path d="M258.764 404.73H238.596V433.542H258.764V404.73Z" stroke="#B2B2B2" stroke-linecap="round" stroke-linejoin="round"/>
<path d="M239.372 407.999H258.626" stroke="#B2B2B2" stroke-linecap="round" stroke-linejoin="round"/>
<path d="M239.372 430.549H258.626" stroke="#B2B2B2" stroke-linecap="round" stroke-linejoin="round"/>
<path d="M248.625 425.23C252.335 425.23 255.343 422.223 255.343 418.512C255.343 414.802 252.335 411.794 248.625 411.794C244.915 411.794 241.907 414.802 241.907 418.512C241.907 422.223 244.915 425.23 248.625 425.23Z" stroke="#B2B2B2" stroke-linecap="round" stroke-linejoin="round"/>
<path d="M133.45 375.476H113.282V404.287H133.45V375.476Z" stroke="#B2B2B2" stroke-linecap="round" stroke-linejoin="round"/>
<path d="M114.071 378.745H133.325" stroke="#B2B2B2" stroke-linecap="round" stroke-linejoin="round"/>
<path d="M114.071 401.295H133.325" stroke="#B2B2B2" stroke-linecap="round" stroke-linejoin="round"/>
<path d="M123.31 395.976C127.02 395.976 130.028 392.968 130.028 389.258C130.028 385.548 127.02 382.54 123.31 382.54C119.6 382.54 116.592 385.548 116.592 389.258C116.592 392.968 119.6 395.976 123.31 395.976Z" stroke="#B2B2B2" stroke-linecap="round" stroke-linejoin="round"/>
<path d="M155.957 375.476H135.79V404.287H155.957V375.476Z" stroke="#B2B2B2" stroke-linecap="round" stroke-linejoin="round"/>
<path d="M136.579 378.745H155.833" stroke="#B2B2B2" stroke-linecap="round" stroke-linejoin="round"/>
<path d="M136.579 401.295H155.833" stroke="#B2B2B2" stroke-linecap="round" stroke-linejoin="round"/>
<path d="M145.819 395.976C149.529 395.976 152.537 392.968 152.537 389.258C152.537 385.548 149.529 382.54 145.819 382.54C142.109 382.54 139.101 385.548 139.101 389.258C139.101 392.968 142.109 395.976 145.819 395.976Z" stroke="#B2B2B2" stroke-linecap="round" stroke-linejoin="round"/>
<path d="M178.467 375.476H158.299V404.287H178.467V375.476Z" stroke="#B2B2B2" stroke-linecap="round" stroke-linejoin="round"/>
<path d="M159.089 378.745H178.342" stroke="#B2B2B2" stroke-linecap="round" stroke-linejoin="round"/>
<path d="M159.089 401.295H178.342" stroke="#B2B2B2" stroke-linecap="round" stroke-linejoin="round"/>
<path d="M168.327 395.976C172.037 395.976 175.045 392.968 175.045 389.258C175.045 385.548 172.037 382.54 168.327 382.54C164.617 382.54 161.609 385.548 161.609 389.258C161.609 392.968 164.617 395.976 168.327 395.976Z" stroke="#B2B2B2" stroke-linecap="round" stroke-linejoin="round"/>
<path d="M200.975 375.476H180.807V404.287H200.975V375.476Z" stroke="#B2B2B2" stroke-linecap="round" stroke-linejoin="round"/>
<path d="M181.597 378.745H200.85" stroke="#B2B2B2" stroke-linecap="round" stroke-linejoin="round"/>
<path d="M181.597 401.295H200.85" stroke="#B2B2B2" stroke-linecap="round" stroke-linejoin="round"/>
<path d="M190.837 395.976C194.547 395.976 197.555 392.968 197.555 389.258C197.555 385.548 194.547 382.54 190.837 382.54C187.126 382.54 184.119 385.548 184.119 389.258C184.119 392.968 187.126 395.976 190.837 395.976Z" stroke="#B2B2B2" stroke-linecap="round" stroke-linejoin="round"/>
<path d="M223.485 375.476H203.317V404.287H223.485V375.476Z" stroke="#B2B2B2" stroke-linecap="round" stroke-linejoin="round"/>
<path d="M204.106 378.745H223.36" stroke="#B2B2B2" stroke-linecap="round" stroke-linejoin="round"/>
<path d="M204.106 401.295H223.36" stroke="#B2B2B2" stroke-linecap="round" stroke-linejoin="round"/>
<path d="M213.344 395.976C217.055 395.976 220.062 392.968 220.062 389.258C220.062 385.548 217.055 382.54 213.344 382.54C209.634 382.54 206.626 385.548 206.626 389.258C206.626 392.968 209.634 395.976 213.344 395.976Z" stroke="#B2B2B2" stroke-linecap="round" stroke-linejoin="round"/>
<path d="M245.992 375.476H225.825V404.287H245.992V375.476Z" stroke="#B2B2B2" stroke-linecap="round" stroke-linejoin="round"/>
<path d="M226.614 378.745H245.867" stroke="#B2B2B2" stroke-linecap="round" stroke-linejoin="round"/>
<path d="M226.614 401.295H245.867" stroke="#B2B2B2" stroke-linecap="round" stroke-linejoin="round"/>
<path d="M235.854 395.976C239.564 395.976 242.572 392.968 242.572 389.258C242.572 385.548 239.564 382.54 235.854 382.54C232.144 382.54 229.136 385.548 229.136 389.258C229.136 392.968 232.144 395.976 235.854 395.976Z" stroke="#B2B2B2" stroke-linecap="round" stroke-linejoin="round"/>
<path d="M280.913 404.73H260.745V433.542H280.913V404.73Z" stroke="#B2B2B2" stroke-linecap="round" stroke-linejoin="round"/>
<path d="M261.535 407.999H280.788" stroke="#B2B2B2" stroke-linecap="round" stroke-linejoin="round"/>
<path d="M261.535 430.549H280.788" stroke="#B2B2B2" stroke-linecap="round" stroke-linejoin="round"/>
<path d="M270.773 425.23C274.483 425.23 277.491 422.223 277.491 418.512C277.491 414.802 274.483 411.794 270.773 411.794C267.063 411.794 264.055 414.802 264.055 418.512C264.055 422.223 267.063 425.23 270.773 425.23Z" stroke="#B2B2B2" stroke-linecap="round" stroke-linejoin="round"/>
<path d="M303.421 404.73H283.253V433.542H303.421V404.73Z" stroke="#B2B2B2" stroke-linecap="round" stroke-linejoin="round"/>
<path d="M284.042 407.999H303.296" stroke="#B2B2B2" stroke-linecap="round" stroke-linejoin="round"/>
<path d="M284.042 430.549H303.296" stroke="#B2B2B2" stroke-linecap="round" stroke-linejoin="round"/>
<path d="M293.282 425.23C296.993 425.23 300 422.223 300 418.512C300 414.802 296.993 411.794 293.282 411.794C289.572 411.794 286.564 414.802 286.564 418.512C286.564 422.223 289.572 425.23 293.282 425.23Z" stroke="#B2B2B2" stroke-linecap="round" stroke-linejoin="round"/>
<path d="M325.93 404.73H305.763V433.542H325.93V404.73Z" stroke="#B2B2B2" stroke-linecap="round" stroke-linejoin="round"/>
<path d="M306.552 407.999H325.806" stroke="#B2B2B2" stroke-linecap="round" stroke-linejoin="round"/>
<path d="M306.552 430.549H325.806" stroke="#B2B2B2" stroke-linecap="round" stroke-linejoin="round"/>
<path d="M315.79 425.23C319.5 425.23 322.508 422.223 322.508 418.512C322.508 414.802 319.5 411.794 315.79 411.794C312.08 411.794 309.072 414.802 309.072 418.512C309.072 422.223 312.08 425.23 315.79 425.23Z" stroke="#B2B2B2" stroke-linecap="round" stroke-linejoin="round"/>
<path d="M348.438 404.73H328.271V433.542H348.438V404.73Z" stroke="#B2B2B2" stroke-linecap="round" stroke-linejoin="round"/>
<path d="M329.06 407.999H348.314" stroke="#B2B2B2" stroke-linecap="round" stroke-linejoin="round"/>
<path d="M329.06 430.549H348.314" stroke="#B2B2B2" stroke-linecap="round" stroke-linejoin="round"/>
<path d="M338.299 425.23C342.009 425.23 345.016 422.223 345.016 418.512C345.016 414.802 342.009 411.794 338.299 411.794C334.588 411.794 331.581 414.802 331.581 418.512C331.581 422.223 334.588 425.23 338.299 425.23Z" stroke="#B2B2B2" stroke-linecap="round" stroke-linejoin="round"/>
<path d="M370.946 404.73H350.778V433.542H370.946V404.73Z" stroke="#B2B2B2" stroke-linecap="round" stroke-linejoin="round"/>
<path d="M351.569 407.999H370.823" stroke="#B2B2B2" stroke-linecap="round" stroke-linejoin="round"/>
<path d="M351.569 430.549H370.823" stroke="#B2B2B2" stroke-linecap="round" stroke-linejoin="round"/>
<path d="M360.808 425.23C364.518 425.23 367.526 422.223 367.526 418.512C367.526 414.802 364.518 411.794 360.808 411.794C357.098 411.794 354.09 414.802 354.09 418.512C354.09 422.223 357.098 425.23 360.808 425.23Z" stroke="#B2B2B2" stroke-linecap="round" stroke-linejoin="round"/>
<path d="M393.456 404.73H373.288V433.542H393.456V404.73Z" stroke="#B2B2B2" stroke-linecap="round" stroke-linejoin="round"/>
<path d="M374.077 407.999H393.331" stroke="#B2B2B2" stroke-linecap="round" stroke-linejoin="round"/>
<path d="M374.077 430.549H393.331" stroke="#B2B2B2" stroke-linecap="round" stroke-linejoin="round"/>
<path d="M383.316 425.23C387.026 425.23 390.034 422.223 390.034 418.512C390.034 414.802 387.026 411.794 383.316 411.794C379.605 411.794 376.598 414.802 376.598 418.512C376.598 422.223 379.605 425.23 383.316 425.23Z" stroke="#B2B2B2" stroke-linecap="round" stroke-linejoin="round"/>
<path d="M268.155 375.476H247.987V404.287H268.155V375.476Z" stroke="#B2B2B2" stroke-linecap="round" stroke-linejoin="round"/>
<path d="M248.763 378.745H268.031" stroke="#B2B2B2" stroke-linecap="round" stroke-linejoin="round"/>
<path d="M248.763 401.295H268.031" stroke="#B2B2B2" stroke-linecap="round" stroke-linejoin="round"/>
<path d="M258.017 395.976C261.727 395.976 264.735 392.968 264.735 389.258C264.735 385.548 261.727 382.54 258.017 382.54C254.307 382.54 251.299 385.548 251.299 389.258C251.299 392.968 254.307 395.976 258.017 395.976Z" stroke="#B2B2B2" stroke-linecap="round" stroke-linejoin="round"/>
<path d="M290.665 375.476H270.497V404.287H290.665V375.476Z" stroke="#B2B2B2" stroke-linecap="round" stroke-linejoin="round"/>
<path d="M271.271 378.745H290.538" stroke="#B2B2B2" stroke-linecap="round" stroke-linejoin="round"/>
<path d="M271.271 401.295H290.538" stroke="#B2B2B2" stroke-linecap="round" stroke-linejoin="round"/>
<path d="M280.525 395.976C284.235 395.976 287.243 392.968 287.243 389.258C287.243 385.548 284.235 382.54 280.525 382.54C276.814 382.54 273.807 385.548 273.807 389.258C273.807 392.968 276.814 395.976 280.525 395.976Z" stroke="#B2B2B2" stroke-linecap="round" stroke-linejoin="round"/>
<path d="M313.173 375.476H293.005V404.287H313.173V375.476Z" stroke="#B2B2B2" stroke-linecap="round" stroke-linejoin="round"/>
<path d="M293.781 378.745H313.048" stroke="#B2B2B2" stroke-linecap="round" stroke-linejoin="round"/>
<path d="M293.781 401.295H313.048" stroke="#B2B2B2" stroke-linecap="round" stroke-linejoin="round"/>
<path d="M303.032 395.976C306.743 395.976 309.75 392.968 309.75 389.258C309.75 385.548 306.743 382.54 303.032 382.54C299.322 382.54 296.314 385.548 296.314 389.258C296.314 392.968 299.322 395.976 303.032 395.976Z" stroke="#B2B2B2" stroke-linecap="round" stroke-linejoin="round"/>
<path d="M335.68 375.476H315.513V404.287H335.68V375.476Z" stroke="#B2B2B2" stroke-linecap="round" stroke-linejoin="round"/>
<path d="M316.289 378.745H335.556" stroke="#B2B2B2" stroke-linecap="round" stroke-linejoin="round"/>
<path d="M316.289 401.295H335.556" stroke="#B2B2B2" stroke-linecap="round" stroke-linejoin="round"/>
<path d="M325.542 395.976C329.252 395.976 332.26 392.968 332.26 389.258C332.26 385.548 329.252 382.54 325.542 382.54C321.832 382.54 318.824 385.548 318.824 389.258C318.824 392.968 321.832 395.976 325.542 395.976Z" stroke="#B2B2B2" stroke-linecap="round" stroke-linejoin="round"/>
<path d="M358.19 375.476H338.022V404.287H358.19V375.476Z" stroke="#B2B2B2" stroke-linecap="round" stroke-linejoin="round"/>
<path d="M338.798 378.745H358.065" stroke="#B2B2B2" stroke-linecap="round" stroke-linejoin="round"/>
<path d="M338.798 401.295H358.065" stroke="#B2B2B2" stroke-linecap="round" stroke-linejoin="round"/>
<path d="M348.05 395.976C351.76 395.976 354.768 392.968 354.768 389.258C354.768 385.548 351.76 382.54 348.05 382.54C344.34 382.54 341.332 385.548 341.332 389.258C341.332 392.968 344.34 395.976 348.05 395.976Z" stroke="#B2B2B2" stroke-linecap="round" stroke-linejoin="round"/>
<path d="M380.698 375.476H360.53V404.287H380.698V375.476Z" stroke="#B2B2B2" stroke-linecap="round" stroke-linejoin="round"/>
<path d="M361.306 378.745H380.574" stroke="#B2B2B2" stroke-linecap="round" stroke-linejoin="round"/>
<path d="M361.306 401.295H380.574" stroke="#B2B2B2" stroke-linecap="round" stroke-linejoin="round"/>
<path d="M370.56 395.976C374.27 395.976 377.278 392.968 377.278 389.258C377.278 385.548 374.27 382.54 370.56 382.54C366.85 382.54 363.842 385.548 363.842 389.258C363.842 392.968 366.85 395.976 370.56 395.976Z" stroke="#B2B2B2" stroke-linecap="round" stroke-linejoin="round"/>
<path d="M415.618 404.73H395.451V433.542H415.618V404.73Z" stroke="#B2B2B2" stroke-linecap="round" stroke-linejoin="round"/>
<path d="M396.227 407.999H415.494" stroke="#B2B2B2" stroke-linecap="round" stroke-linejoin="round"/>
<path d="M396.227 430.549H415.494" stroke="#B2B2B2" stroke-linecap="round" stroke-linejoin="round"/>
<path d="M405.479 425.23C409.189 425.23 412.197 422.223 412.197 418.512C412.197 414.802 409.189 411.794 405.479 411.794C401.768 411.794 398.761 414.802 398.761 418.512C398.761 422.223 401.768 425.23 405.479 425.23Z" stroke="#B2B2B2" stroke-linecap="round" stroke-linejoin="round"/>
<path d="M438.127 404.73H417.959V433.542H438.127V404.73Z" stroke="#B2B2B2" stroke-linecap="round" stroke-linejoin="round"/>
<path d="M418.734 407.999H438.002" stroke="#B2B2B2" stroke-linecap="round" stroke-linejoin="round"/>
<path d="M418.734 430.549H438.002" stroke="#B2B2B2" stroke-linecap="round" stroke-linejoin="round"/>
<path d="M427.988 425.23C431.698 425.23 434.706 422.223 434.706 418.512C434.706 414.802 431.698 411.794 427.988 411.794C424.278 411.794 421.27 414.802 421.27 418.512C421.27 422.223 424.278 425.23 427.988 425.23Z" stroke="#B2B2B2" stroke-linecap="round" stroke-linejoin="round"/>
<path d="M460.636 404.73H440.468V433.542H460.636V404.73Z" stroke="#B2B2B2" stroke-linecap="round" stroke-linejoin="round"/>
<path d="M441.244 407.999H460.512" stroke="#B2B2B2" stroke-linecap="round" stroke-linejoin="round"/>
<path d="M441.244 430.549H460.512" stroke="#B2B2B2" stroke-linecap="round" stroke-linejoin="round"/>
<path d="M450.496 425.23C454.207 425.23 457.214 422.223 457.214 418.512C457.214 414.802 454.207 411.794 450.496 411.794C446.786 411.794 443.778 414.802 443.778 418.512C443.778 422.223 446.786 425.23 450.496 425.23Z" stroke="#B2B2B2" stroke-linecap="round" stroke-linejoin="round"/>
<path d="M483.144 404.73H462.976V433.542H483.144V404.73Z" stroke="#B2B2B2" stroke-linecap="round" stroke-linejoin="round"/>
<path d="M463.752 407.999H483.019" stroke="#B2B2B2" stroke-linecap="round" stroke-linejoin="round"/>
<path d="M463.752 430.549H483.019" stroke="#B2B2B2" stroke-linecap="round" stroke-linejoin="round"/>
<path d="M473.006 425.23C476.716 425.23 479.724 422.223 479.724 418.512C479.724 414.802 476.716 411.794 473.006 411.794C469.295 411.794 466.288 414.802 466.288 418.512C466.288 422.223 469.295 425.23 473.006 425.23Z" stroke="#B2B2B2" stroke-linecap="round" stroke-linejoin="round"/>
<path d="M402.861 375.476H382.693V404.287H402.861V375.476Z" stroke="#B2B2B2" stroke-linecap="round" stroke-linejoin="round"/>
<path d="M383.469 378.745H402.722" stroke="#B2B2B2" stroke-linecap="round" stroke-linejoin="round"/>
<path d="M383.469 401.295H402.722" stroke="#B2B2B2" stroke-linecap="round" stroke-linejoin="round"/>
<path d="M392.722 395.976C396.433 395.976 399.44 392.968 399.44 389.258C399.44 385.548 396.433 382.54 392.722 382.54C389.012 382.54 386.004 385.548 386.004 389.258C386.004 392.968 389.012 395.976 392.722 395.976Z" stroke="#B2B2B2" stroke-linecap="round" stroke-linejoin="round"/>
<path d="M425.37 375.476H405.202V404.287H425.37V375.476Z" stroke="#B2B2B2" stroke-linecap="round" stroke-linejoin="round"/>
<path d="M405.979 378.745H425.232" stroke="#B2B2B2" stroke-linecap="round" stroke-linejoin="round"/>
<path d="M405.979 401.295H425.232" stroke="#B2B2B2" stroke-linecap="round" stroke-linejoin="round"/>
<path d="M415.23 395.976C418.94 395.976 421.948 392.968 421.948 389.258C421.948 385.548 418.94 382.54 415.23 382.54C411.52 382.54 408.512 385.548 408.512 389.258C408.512 392.968 411.52 395.976 415.23 395.976Z" stroke="#B2B2B2" stroke-linecap="round" stroke-linejoin="round"/>
<path d="M447.878 375.476H427.71V404.287H447.878V375.476Z" stroke="#B2B2B2" stroke-linecap="round" stroke-linejoin="round"/>
<path d="M428.486 378.745H447.74" stroke="#B2B2B2" stroke-linecap="round" stroke-linejoin="round"/>
<path d="M428.486 401.295H447.74" stroke="#B2B2B2" stroke-linecap="round" stroke-linejoin="round"/>
<path d="M437.739 395.976C441.45 395.976 444.457 392.968 444.457 389.258C444.457 385.548 441.45 382.54 437.739 382.54C434.029 382.54 431.021 385.548 431.021 389.258C431.021 392.968 434.029 395.976 437.739 395.976Z" stroke="#B2B2B2" stroke-linecap="round" stroke-linejoin="round"/>
<path d="M470.388 375.476H450.22V404.287H470.388V375.476Z" stroke="#B2B2B2" stroke-linecap="round" stroke-linejoin="round"/>
<path d="M450.996 378.745H470.249" stroke="#B2B2B2" stroke-linecap="round" stroke-linejoin="round"/>
<path d="M450.996 401.295H470.249" stroke="#B2B2B2" stroke-linecap="round" stroke-linejoin="round"/>
<path d="M460.248 395.976C463.958 395.976 466.966 392.968 466.966 389.258C466.966 385.548 463.958 382.54 460.248 382.54C456.538 382.54 453.53 385.548 453.53 389.258C453.53 392.968 456.538 395.976 460.248 395.976Z" stroke="#B2B2B2" stroke-linecap="round" stroke-linejoin="round"/>
<path d="M105.469 508.201H84.8855L82.8354 489.308H107.519L105.469 508.201Z" stroke="#B2B2B2" stroke-linecap="round" stroke-linejoin="round"/>
<path d="M108.862 486.606H81.1729V489.294H108.862V486.606Z" stroke="#B2B2B2" stroke-linecap="round" stroke-linejoin="round"/>
<path d="M136.399 508.201H115.83L113.766 489.308H138.449L136.399 508.201Z" stroke="#B2B2B2" stroke-linecap="round" stroke-linejoin="round"/>
<path d="M139.808 486.606H112.119V489.294H139.808V486.606Z" stroke="#B2B2B2" stroke-linecap="round" stroke-linejoin="round"/>
<path d="M167.33 508.201H146.761L144.697 489.308H169.394L167.33 508.201Z" stroke="#B2B2B2" stroke-linecap="round" stroke-linejoin="round"/>
<path d="M170.737 486.606H143.048V489.294H170.737V486.606Z" stroke="#B2B2B2" stroke-linecap="round" stroke-linejoin="round"/>
<path d="M198.26 508.201H177.691L175.641 489.308H200.324L198.26 508.201Z" stroke="#B2B2B2" stroke-linecap="round" stroke-linejoin="round"/>
<path d="M201.668 486.606H173.979V489.294H201.668V486.606Z" stroke="#B2B2B2" stroke-linecap="round" stroke-linejoin="round"/>
<path d="M229.205 508.201H208.635L206.571 489.308H231.255L229.205 508.201Z" stroke="#B2B2B2" stroke-linecap="round" stroke-linejoin="round"/>
<path d="M232.613 486.606H204.924V489.294H232.613V486.606Z" stroke="#B2B2B2" stroke-linecap="round" stroke-linejoin="round"/>
<path d="M260.135 508.201H239.566L237.502 489.308H262.199L260.135 508.201Z" stroke="#B2B2B2" stroke-linecap="round" stroke-linejoin="round"/>
<path d="M263.542 486.606H235.853V489.294H263.542V486.606Z" stroke="#B2B2B2" stroke-linecap="round" stroke-linejoin="round"/>
<path d="M291.065 508.201H270.496L268.446 489.308H293.129L291.065 508.201Z" stroke="#B2B2B2" stroke-linecap="round" stroke-linejoin="round"/>
<path d="M294.472 486.606H266.783V489.294H294.472V486.606Z" stroke="#B2B2B2" stroke-linecap="round" stroke-linejoin="round"/>
<path d="M322.009 508.201H301.44L299.376 489.308H324.059L322.009 508.201Z" stroke="#B2B2B2" stroke-linecap="round" stroke-linejoin="round"/>
<path d="M325.418 486.606H297.729V489.294H325.418V486.606Z" stroke="#B2B2B2" stroke-linecap="round" stroke-linejoin="round"/>
<path d="M352.94 508.201H332.371L330.307 489.308H355.004L352.94 508.201Z" stroke="#B2B2B2" stroke-linecap="round" stroke-linejoin="round"/>
<path d="M356.347 486.606H328.658V489.294H356.347V486.606Z" stroke="#B2B2B2" stroke-linecap="round" stroke-linejoin="round"/>
<path d="M383.871 508.201H363.301L361.251 489.308H385.934L383.871 508.201Z" stroke="#B2B2B2" stroke-linecap="round" stroke-linejoin="round"/>
<path d="M387.278 486.606H359.588V489.294H387.278V486.606Z" stroke="#B2B2B2" stroke-linecap="round" stroke-linejoin="round"/>
<path d="M414.815 508.201H394.245L392.181 489.308H416.864L414.815 508.201Z" stroke="#B2B2B2" stroke-linecap="round" stroke-linejoin="round"/>
<path d="M418.223 486.606H390.534V489.294H418.223V486.606Z" stroke="#B2B2B2" stroke-linecap="round" stroke-linejoin="round"/>
<path d="M445.745 508.201H425.176L423.112 489.308H447.809L445.745 508.201Z" stroke="#B2B2B2" stroke-linecap="round" stroke-linejoin="round"/>
<path d="M449.152 486.606H421.463V489.294H449.152V486.606Z" stroke="#B2B2B2" stroke-linecap="round" stroke-linejoin="round"/>
<path d="M476.675 508.201H456.106L454.056 489.308H478.739L476.675 508.201Z" stroke="#B2B2B2" stroke-linecap="round" stroke-linejoin="round"/>
<path d="M480.083 486.606H452.394V489.294H480.083V486.606Z" stroke="#B2B2B2" stroke-linecap="round" stroke-linejoin="round"/>
<path d="M507.62 508.201H487.05L484.986 489.308H509.67L507.62 508.201Z" stroke="#B2B2B2" stroke-linecap="round" stroke-linejoin="round"/>
<path d="M511.028 486.606H483.339V489.294H511.028V486.606Z" stroke="#B2B2B2" stroke-linecap="round" stroke-linejoin="round"/>
<path d="M538.55 508.201H517.981L515.917 489.308H540.614L538.55 508.201Z" stroke="#B2B2B2" stroke-linecap="round" stroke-linejoin="round"/>
<path d="M541.957 486.606H514.268V489.294H541.957V486.606Z" stroke="#B2B2B2" stroke-linecap="round" stroke-linejoin="round"/>
<path d="M120.678 485.872H100.109L98.0586 466.993H122.742L120.678 485.872Z" stroke="#B2B2B2" stroke-linecap="round" stroke-linejoin="round"/>
<path d="M124.086 464.292H96.3965V466.979H124.086V464.292Z" stroke="#B2B2B2" stroke-linecap="round" stroke-linejoin="round"/>
<path d="M151.623 485.872H131.039L128.989 466.993H153.673L151.623 485.872Z" stroke="#B2B2B2" stroke-linecap="round" stroke-linejoin="round"/>
<path d="M155.029 464.292H127.34V466.979H155.029V464.292Z" stroke="#B2B2B2" stroke-linecap="round" stroke-linejoin="round"/>
<path d="M182.553 485.872H161.984L159.92 466.993H184.617L182.553 485.872Z" stroke="#B2B2B2" stroke-linecap="round" stroke-linejoin="round"/>
<path d="M185.96 464.292H158.271V466.979H185.96V464.292Z" stroke="#B2B2B2" stroke-linecap="round" stroke-linejoin="round"/>
<path d="M213.484 485.872H192.914L190.851 466.993H215.548L213.484 485.872Z" stroke="#B2B2B2" stroke-linecap="round" stroke-linejoin="round"/>
<path d="M216.89 464.292H189.201V466.979H216.89V464.292Z" stroke="#B2B2B2" stroke-linecap="round" stroke-linejoin="round"/>
<path d="M244.428 485.872H223.844L221.794 466.993H246.478L244.428 485.872Z" stroke="#B2B2B2" stroke-linecap="round" stroke-linejoin="round"/>
<path d="M247.835 464.292H220.146V466.979H247.835V464.292Z" stroke="#B2B2B2" stroke-linecap="round" stroke-linejoin="round"/>
<path d="M275.358 485.872H254.788L252.725 466.993H277.422L275.358 485.872Z" stroke="#B2B2B2" stroke-linecap="round" stroke-linejoin="round"/>
<path d="M278.765 464.292H251.076V466.979H278.765V464.292Z" stroke="#B2B2B2" stroke-linecap="round" stroke-linejoin="round"/>
<path d="M306.289 485.872H285.719L283.655 466.993H308.353L306.289 485.872Z" stroke="#B2B2B2" stroke-linecap="round" stroke-linejoin="round"/>
<path d="M309.696 464.292H282.006V466.979H309.696V464.292Z" stroke="#B2B2B2" stroke-linecap="round" stroke-linejoin="round"/>
<path d="M337.233 485.872H316.65L314.6 466.993H339.283L337.233 485.872Z" stroke="#B2B2B2" stroke-linecap="round" stroke-linejoin="round"/>
<path d="M340.639 464.292H312.95V466.979H340.639V464.292Z" stroke="#B2B2B2" stroke-linecap="round" stroke-linejoin="round"/>
<path d="M368.163 485.872H347.594L345.53 466.993H370.227L368.163 485.872Z" stroke="#B2B2B2" stroke-linecap="round" stroke-linejoin="round"/>
<path d="M371.57 464.292H343.881V466.979H371.57V464.292Z" stroke="#B2B2B2" stroke-linecap="round" stroke-linejoin="round"/>
<path d="M399.093 485.872H378.524L376.474 466.993H401.157L399.093 485.872Z" stroke="#B2B2B2" stroke-linecap="round" stroke-linejoin="round"/>
<path d="M402.501 464.292H374.812V466.979H402.501V464.292Z" stroke="#B2B2B2" stroke-linecap="round" stroke-linejoin="round"/>
<path d="M430.038 485.872H409.454L407.404 466.993H432.088L430.038 485.872Z" stroke="#B2B2B2" stroke-linecap="round" stroke-linejoin="round"/>
<path d="M433.445 464.292H405.755V466.979H433.445V464.292Z" stroke="#B2B2B2" stroke-linecap="round" stroke-linejoin="round"/>
<path d="M460.968 485.872H440.399L438.335 466.993H463.032L460.968 485.872Z" stroke="#B2B2B2" stroke-linecap="round" stroke-linejoin="round"/>
<path d="M464.375 464.292H436.686V466.979H464.375V464.292Z" stroke="#B2B2B2" stroke-linecap="round" stroke-linejoin="round"/>
<path d="M491.898 485.872H471.329L469.279 466.993H493.962L491.898 485.872Z" stroke="#B2B2B2" stroke-linecap="round" stroke-linejoin="round"/>
<path d="M495.306 464.292H467.617V466.979H495.306V464.292Z" stroke="#B2B2B2" stroke-linecap="round" stroke-linejoin="round"/>
<path d="M522.843 485.872H502.26L500.209 466.993H524.893L522.843 485.872Z" stroke="#B2B2B2" stroke-linecap="round" stroke-linejoin="round"/>
<path d="M526.25 464.292H498.561V466.979H526.25V464.292Z" stroke="#B2B2B2" stroke-linecap="round" stroke-linejoin="round"/>
<path d="M99.2648 560.172H109.764C110.73 560.172 111.657 560.555 112.34 561.239C113.023 561.922 113.407 562.848 113.407 563.815V583.207H95.6357V563.815C95.6357 562.851 96.0176 561.926 96.6978 561.244C97.378 560.561 98.3011 560.175 99.2648 560.172V560.172Z" stroke="#B2B2B2" stroke-linecap="round" stroke-linejoin="round"/>
<path d="M110.678 557.872H98.3501V560.172H110.678V557.872Z" stroke="#B2B2B2" stroke-linecap="round" stroke-linejoin="round"/>
<path d="M112.673 555.157H96.3696V557.872H112.673V555.157Z" stroke="#B2B2B2" stroke-linecap="round" stroke-linejoin="round"/>
<path d="M111.62 564.147H97.4082V579.397H111.62V564.147Z" stroke="#B2B2B2" stroke-linecap="round" stroke-linejoin="round"/>
<path d="M119.597 560.172H130.028C130.994 560.172 131.92 560.555 132.603 561.239C133.287 561.922 133.67 562.848 133.67 563.815V583.207H115.968V563.815C115.968 562.851 116.35 561.926 117.03 561.244C117.711 560.561 118.634 560.175 119.597 560.172V560.172Z" stroke="#B2B2B2" stroke-linecap="round" stroke-linejoin="round"/>
<path d="M131.011 557.872H118.683V560.172H131.011V557.872Z" stroke="#B2B2B2" stroke-linecap="round" stroke-linejoin="round"/>
<path d="M133.005 555.157H116.702V557.872H133.005V555.157Z" stroke="#B2B2B2" stroke-linecap="round" stroke-linejoin="round"/>
<path d="M131.953 564.147H117.741V579.397H131.953V564.147Z" stroke="#B2B2B2" stroke-linecap="round" stroke-linejoin="round"/>
<path d="M139.932 560.172H150.431C151.397 560.172 152.324 560.555 153.007 561.239C153.69 561.922 154.074 562.848 154.074 563.815V583.207H136.303V563.815C136.303 562.851 136.685 561.926 137.365 561.244C138.045 560.561 138.968 560.175 139.932 560.172V560.172Z" stroke="#B2B2B2" stroke-linecap="round" stroke-linejoin="round"/>
<path d="M151.345 557.872H139.018V560.172H151.345V557.872Z" stroke="#B2B2B2" stroke-linecap="round" stroke-linejoin="round"/>
<path d="M153.34 555.157H137.037V557.872H153.34V555.157Z" stroke="#B2B2B2" stroke-linecap="round" stroke-linejoin="round"/>
<path d="M152.287 564.147H138.076V579.397H152.287V564.147Z" stroke="#B2B2B2" stroke-linecap="round" stroke-linejoin="round"/>
<path d="M160.266 560.172H170.765C171.731 560.172 172.658 560.555 173.341 561.239C174.024 561.922 174.408 562.848 174.408 563.815V583.207H156.637V563.815C156.637 562.851 157.019 561.926 157.699 561.244C158.379 560.561 159.302 560.175 160.266 560.172V560.172Z" stroke="#B2B2B2" stroke-linecap="round" stroke-linejoin="round"/>
<path d="M171.679 557.872H159.352V560.172H171.679V557.872Z" stroke="#B2B2B2" stroke-linecap="round" stroke-linejoin="round"/>
<path d="M173.661 555.157H157.357V557.872H173.661V555.157Z" stroke="#B2B2B2" stroke-linecap="round" stroke-linejoin="round"/>
<path d="M172.622 564.147H158.41V579.397H172.622V564.147Z" stroke="#B2B2B2" stroke-linecap="round" stroke-linejoin="round"/>
<path d="M180.6 560.172H191.1C192.066 560.172 192.992 560.555 193.676 561.239C194.359 561.922 194.743 562.848 194.743 563.815V583.207H176.971V563.815C176.971 562.851 177.353 561.926 178.033 561.244C178.713 560.561 179.637 560.175 180.6 560.172V560.172Z" stroke="#B2B2B2" stroke-linecap="round" stroke-linejoin="round"/>
<path d="M192.014 557.872H179.686V560.172H192.014V557.872Z" stroke="#B2B2B2" stroke-linecap="round" stroke-linejoin="round"/>
<path d="M193.995 555.157H177.692V557.872H193.995V555.157Z" stroke="#B2B2B2" stroke-linecap="round" stroke-linejoin="round"/>
<path d="M192.956 564.147H178.744V579.397H192.956V564.147Z" stroke="#B2B2B2" stroke-linecap="round" stroke-linejoin="round"/>
<path d="M200.933 560.172H211.433C212.399 560.172 213.326 560.555 214.009 561.239C214.692 561.922 215.076 562.848 215.076 563.815V583.207H197.291V563.815C197.291 562.848 197.674 561.922 198.358 561.239C199.041 560.555 199.967 560.172 200.933 560.172V560.172Z" stroke="#B2B2B2" stroke-linecap="round" stroke-linejoin="round"/>
<path d="M212.348 557.872H200.021V560.172H212.348V557.872Z" stroke="#B2B2B2" stroke-linecap="round" stroke-linejoin="round"/>
<path d="M214.328 555.157H198.024V557.872H214.328V555.157Z" stroke="#B2B2B2" stroke-linecap="round" stroke-linejoin="round"/>
<path d="M213.29 564.147H199.079V579.397H213.29V564.147Z" stroke="#B2B2B2" stroke-linecap="round" stroke-linejoin="round"/>
<path d="M221.268 560.172H231.767C232.734 560.172 233.66 560.555 234.343 561.239C235.027 561.922 235.41 562.848 235.41 563.815V583.207H217.625V563.815C217.625 562.848 218.009 561.922 218.692 561.239C219.375 560.555 220.302 560.172 221.268 560.172V560.172Z" stroke="#B2B2B2" stroke-linecap="round" stroke-linejoin="round"/>
<path d="M232.681 557.872H220.353V560.172H232.681V557.872Z" stroke="#B2B2B2" stroke-linecap="round" stroke-linejoin="round"/>
<path d="M234.662 555.157H218.359V557.872H234.662V555.157Z" stroke="#B2B2B2" stroke-linecap="round" stroke-linejoin="round"/>
<path d="M233.623 564.147H219.411V579.397H233.623V564.147Z" stroke="#B2B2B2" stroke-linecap="round" stroke-linejoin="round"/>
<path d="M241.602 560.172H252.101C253.068 560.172 253.994 560.555 254.677 561.239C255.36 561.922 255.744 562.848 255.744 563.815V583.207H237.959V563.815C237.959 562.848 238.343 561.922 239.026 561.239C239.709 560.555 240.636 560.172 241.602 560.172V560.172Z" stroke="#B2B2B2" stroke-linecap="round" stroke-linejoin="round"/>
<path d="M253.002 557.872H240.674V560.172H253.002V557.872Z" stroke="#B2B2B2" stroke-linecap="round" stroke-linejoin="round"/>
<path d="M254.997 555.157H238.693V557.872H254.997V555.157Z" stroke="#B2B2B2" stroke-linecap="round" stroke-linejoin="round"/>
<path d="M253.957 564.147H239.746V579.397H253.957V564.147Z" stroke="#B2B2B2" stroke-linecap="round" stroke-linejoin="round"/>
<path d="M261.936 560.172H272.436C273.402 560.172 274.329 560.555 275.012 561.239C275.695 561.922 276.079 562.848 276.079 563.815V583.207H258.293V563.815C258.293 562.848 258.677 561.922 259.36 561.239C260.044 560.555 260.97 560.172 261.936 560.172V560.172Z" stroke="#B2B2B2" stroke-linecap="round" stroke-linejoin="round"/>
<path d="M273.336 557.872H261.008V560.172H273.336V557.872Z" stroke="#B2B2B2" stroke-linecap="round" stroke-linejoin="round"/>
<path d="M275.331 555.157H259.027V557.872H275.331V555.157Z" stroke="#B2B2B2" stroke-linecap="round" stroke-linejoin="round"/>
<path d="M274.292 564.147H260.08V579.397H274.292V564.147Z" stroke="#B2B2B2" stroke-linecap="round" stroke-linejoin="round"/>
<path d="M282.269 560.172H292.768C293.735 560.172 294.661 560.555 295.344 561.239C296.027 561.922 296.411 562.848 296.411 563.815V583.207H278.626V563.815C278.626 562.848 279.01 561.922 279.693 561.239C280.376 560.555 281.303 560.172 282.269 560.172V560.172Z" stroke="#B2B2B2" stroke-linecap="round" stroke-linejoin="round"/>
<path d="M293.669 557.872H281.341V560.172H293.669V557.872Z" stroke="#B2B2B2" stroke-linecap="round" stroke-linejoin="round"/>
<path d="M295.664 555.157H279.36V557.872H295.664V555.157Z" stroke="#B2B2B2" stroke-linecap="round" stroke-linejoin="round"/>
<path d="M294.611 564.147H280.399V579.397H294.611V564.147Z" stroke="#B2B2B2" stroke-linecap="round" stroke-linejoin="round"/>
<path d="M302.604 560.172H313.103C314.069 560.172 314.996 560.555 315.679 561.239C316.362 561.922 316.746 562.848 316.746 563.815V583.207H299.016V563.815C299.016 562.858 299.392 561.94 300.063 561.258C300.735 560.576 301.647 560.186 302.604 560.172V560.172Z" stroke="#B2B2B2" stroke-linecap="round" stroke-linejoin="round"/>
<path d="M314.003 557.872H301.675V560.172H314.003V557.872Z" stroke="#B2B2B2" stroke-linecap="round" stroke-linejoin="round"/>
<path d="M315.998 555.157H299.695V557.872H315.998V555.157Z" stroke="#B2B2B2" stroke-linecap="round" stroke-linejoin="round"/>
<path d="M314.945 564.147H300.733V579.397H314.945V564.147Z" stroke="#B2B2B2" stroke-linecap="round" stroke-linejoin="round"/>
<path d="M322.938 560.172H333.437C334.403 560.172 335.33 560.555 336.013 561.239C336.696 561.922 337.08 562.848 337.08 563.815V583.207H319.295V563.815C319.295 562.848 319.679 561.922 320.362 561.239C321.045 560.555 321.972 560.172 322.938 560.172V560.172Z" stroke="#B2B2B2" stroke-linecap="round" stroke-linejoin="round"/>
<path d="M334.338 557.872H322.01V560.172H334.338V557.872Z" stroke="#B2B2B2" stroke-linecap="round" stroke-linejoin="round"/>
<path d="M336.333 555.157H320.029V557.872H336.333V555.157Z" stroke="#B2B2B2" stroke-linecap="round" stroke-linejoin="round"/>
<path d="M335.28 564.147H321.068V579.397H335.28V564.147Z" stroke="#B2B2B2" stroke-linecap="round" stroke-linejoin="round"/>
<path d="M343.258 560.172H353.758C354.724 560.172 355.651 560.555 356.334 561.239C357.017 561.922 357.401 562.848 357.401 563.815V583.207H339.629V563.815C339.629 562.851 340.011 561.926 340.691 561.244C341.372 560.561 342.295 560.175 343.258 560.172V560.172Z" stroke="#B2B2B2" stroke-linecap="round" stroke-linejoin="round"/>
<path d="M354.672 557.872H342.344V560.172H354.672V557.872Z" stroke="#B2B2B2" stroke-linecap="round" stroke-linejoin="round"/>
<path d="M356.666 555.157H340.363V557.872H356.666V555.157Z" stroke="#B2B2B2" stroke-linecap="round" stroke-linejoin="round"/>
<path d="M355.614 564.147H341.402V579.397H355.614V564.147Z" stroke="#B2B2B2" stroke-linecap="round" stroke-linejoin="round"/>
<path d="M363.593 560.172H374.092C375.059 560.172 375.985 560.555 376.668 561.239C377.352 561.922 377.735 562.848 377.735 563.815V583.207H359.964V563.815C359.964 562.851 360.346 561.926 361.026 561.244C361.706 560.561 362.629 560.175 363.593 560.172V560.172Z" stroke="#B2B2B2" stroke-linecap="round" stroke-linejoin="round"/>
<path d="M375.007 557.872H362.679V560.172H375.007V557.872Z" stroke="#B2B2B2" stroke-linecap="round" stroke-linejoin="round"/>
<path d="M377.001 555.157H360.698V557.872H377.001V555.157Z" stroke="#B2B2B2" stroke-linecap="round" stroke-linejoin="round"/>
<path d="M375.948 564.147H361.737V579.397H375.948V564.147Z" stroke="#B2B2B2" stroke-linecap="round" stroke-linejoin="round"/>
<path d="M383.925 560.172H394.425C395.391 560.172 396.318 560.555 397.001 561.239C397.684 561.922 398.068 562.848 398.068 563.815V583.207H380.296V563.815C380.296 562.851 380.678 561.926 381.358 561.244C382.039 560.561 382.962 560.175 383.925 560.172V560.172Z" stroke="#B2B2B2" stroke-linecap="round" stroke-linejoin="round"/>
<path d="M395.339 557.872H383.011V560.172H395.339V557.872Z" stroke="#B2B2B2" stroke-linecap="round" stroke-linejoin="round"/>
<path d="M397.334 555.157H381.03V557.872H397.334V555.157Z" stroke="#B2B2B2" stroke-linecap="round" stroke-linejoin="round"/>
<path d="M396.281 564.147H382.069V579.397H396.281V564.147Z" stroke="#B2B2B2" stroke-linecap="round" stroke-linejoin="round"/>
<path d="M404.288 560.172H414.787C415.753 560.172 416.68 560.555 417.363 561.239C418.046 561.922 418.43 562.848 418.43 563.815V583.207H400.631V563.815C400.631 563.335 400.726 562.86 400.91 562.417C401.093 561.974 401.363 561.572 401.703 561.234C402.043 560.895 402.446 560.627 402.889 560.445C403.333 560.263 403.808 560.17 404.288 560.172V560.172Z" stroke="#B2B2B2" stroke-linecap="round" stroke-linejoin="round"/>
<path d="M415.674 557.872H403.346V560.172H415.674V557.872Z" stroke="#B2B2B2" stroke-linecap="round" stroke-linejoin="round"/>
<path d="M417.668 555.157H401.365V557.872H417.668V555.157Z" stroke="#B2B2B2" stroke-linecap="round" stroke-linejoin="round"/>
<path d="M416.615 564.147H402.404V579.397H416.615V564.147Z" stroke="#B2B2B2" stroke-linecap="round" stroke-linejoin="round"/>
<path d="M424.594 560.172H435.094C436.06 560.172 436.986 560.555 437.67 561.239C438.353 561.922 438.737 562.848 438.737 563.815V583.207H420.91V563.815C420.91 563.333 421.005 562.855 421.191 562.411C421.377 561.966 421.649 561.563 421.991 561.224C422.334 560.885 422.741 560.617 423.187 560.437C423.634 560.256 424.112 560.166 424.594 560.172V560.172Z" stroke="#B2B2B2" stroke-linecap="round" stroke-linejoin="round"/>
<path d="M436.008 557.872H423.68V560.172H436.008V557.872Z" stroke="#B2B2B2" stroke-linecap="round" stroke-linejoin="round"/>
<path d="M437.989 555.157H421.686V557.872H437.989V555.157Z" stroke="#B2B2B2" stroke-linecap="round" stroke-linejoin="round"/>
<path d="M436.95 564.147H422.738V579.397H436.95V564.147Z" stroke="#B2B2B2" stroke-linecap="round" stroke-linejoin="round"/>
<path d="M444.928 560.172H455.428C456.394 560.172 457.321 560.555 458.004 561.239C458.687 561.922 459.071 562.848 459.071 563.815V583.207H441.299V563.815C441.299 562.851 441.681 561.926 442.361 561.244C443.042 560.561 443.965 560.175 444.928 560.172V560.172Z" stroke="#B2B2B2" stroke-linecap="round" stroke-linejoin="round"/>
<path d="M456.342 557.872H444.014V560.172H456.342V557.872Z" stroke="#B2B2B2" stroke-linecap="round" stroke-linejoin="round"/>
<path d="M458.323 555.157H442.02V557.872H458.323V555.157Z" stroke="#B2B2B2" stroke-linecap="round" stroke-linejoin="round"/>
<path d="M457.284 564.147H443.072V579.397H457.284V564.147Z" stroke="#B2B2B2" stroke-linecap="round" stroke-linejoin="round"/>
<path d="M108.185 531.748H118.684C119.65 531.748 120.577 532.132 121.26 532.815C121.943 533.498 122.327 534.425 122.327 535.391V554.783H104.556V535.391C104.556 534.427 104.938 533.503 105.618 532.82C106.298 532.137 107.221 531.752 108.185 531.748V531.748Z" stroke="#B2B2B2" stroke-linecap="round" stroke-linejoin="round"/>
<path d="M119.598 529.449H107.271V531.748H119.598V529.449Z" stroke="#B2B2B2" stroke-linecap="round" stroke-linejoin="round"/>
<path d="M121.578 526.734H105.275V529.449H121.578V526.734Z" stroke="#B2B2B2" stroke-linecap="round" stroke-linejoin="round"/>
<path d="M120.541 535.724H106.329V550.974H120.541V535.724Z" stroke="#B2B2B2" stroke-linecap="round" stroke-linejoin="round"/>
<path d="M128.518 531.748H139.017C139.983 531.748 140.91 532.132 141.593 532.815C142.276 533.498 142.66 534.425 142.66 535.391V554.783H124.889V535.391C124.889 534.427 125.271 533.503 125.951 532.82C126.631 532.137 127.554 531.752 128.518 531.748V531.748Z" stroke="#B2B2B2" stroke-linecap="round" stroke-linejoin="round"/>
<path d="M139.931 529.449H127.604V531.748H139.931V529.449Z" stroke="#B2B2B2" stroke-linecap="round" stroke-linejoin="round"/>
<path d="M141.913 526.734H125.609V529.449H141.913V526.734Z" stroke="#B2B2B2" stroke-linecap="round" stroke-linejoin="round"/>
<path d="M140.873 535.724H126.662V550.974H140.873V535.724Z" stroke="#B2B2B2" stroke-linecap="round" stroke-linejoin="round"/>
<path d="M148.852 531.748H159.352C160.318 531.748 161.244 532.132 161.928 532.815C162.611 533.498 162.995 534.425 162.995 535.391V554.783H145.265V535.391C145.265 534.435 145.641 533.516 146.312 532.835C146.983 532.153 147.896 531.763 148.852 531.748V531.748Z" stroke="#B2B2B2" stroke-linecap="round" stroke-linejoin="round"/>
<path d="M160.265 529.449H147.938V531.748H160.265V529.449Z" stroke="#B2B2B2" stroke-linecap="round" stroke-linejoin="round"/>
<path d="M162.247 526.734H145.943V529.449H162.247V526.734Z" stroke="#B2B2B2" stroke-linecap="round" stroke-linejoin="round"/>
<path d="M161.208 535.724H146.996V550.974H161.208V535.724Z" stroke="#B2B2B2" stroke-linecap="round" stroke-linejoin="round"/>
<path d="M169.187 531.748H179.686C180.653 531.748 181.579 532.132 182.262 532.815C182.945 533.498 183.329 534.425 183.329 535.391V554.783H165.544V535.391C165.544 534.913 165.638 534.439 165.821 533.997C166.004 533.555 166.273 533.154 166.611 532.815C166.949 532.477 167.351 532.209 167.793 532.026C168.235 531.843 168.708 531.748 169.187 531.748V531.748Z" stroke="#B2B2B2" stroke-linecap="round" stroke-linejoin="round"/>
<path d="M180.6 529.449H168.272V531.748H180.6V529.449Z" stroke="#B2B2B2" stroke-linecap="round" stroke-linejoin="round"/>
<path d="M182.581 526.734H166.278V529.449H182.581V526.734Z" stroke="#B2B2B2" stroke-linecap="round" stroke-linejoin="round"/>
<path d="M181.542 535.724H167.33V550.974H181.542V535.724Z" stroke="#B2B2B2" stroke-linecap="round" stroke-linejoin="round"/>
<path d="M189.519 531.748H200.019C200.985 531.748 201.912 532.132 202.595 532.815C203.278 533.498 203.662 534.425 203.662 535.391V554.783H185.876V535.391C185.876 534.425 186.26 533.498 186.943 532.815C187.627 532.132 188.553 531.748 189.519 531.748V531.748Z" stroke="#B2B2B2" stroke-linecap="round" stroke-linejoin="round"/>
<path d="M200.921 529.449H188.593V531.748H200.921V529.449Z" stroke="#B2B2B2" stroke-linecap="round" stroke-linejoin="round"/>
<path d="M202.916 526.734H186.612V529.449H202.916V526.734Z" stroke="#B2B2B2" stroke-linecap="round" stroke-linejoin="round"/>
<path d="M201.876 535.724H187.665V550.974H201.876V535.724Z" stroke="#B2B2B2" stroke-linecap="round" stroke-linejoin="round"/>
<path d="M209.854 531.748H220.353C221.319 531.748 222.246 532.132 222.929 532.815C223.612 533.498 223.996 534.425 223.996 535.391V554.783H206.211V535.391C206.211 534.425 206.595 533.498 207.278 532.815C207.961 532.132 208.888 531.748 209.854 531.748V531.748Z" stroke="#B2B2B2" stroke-linecap="round" stroke-linejoin="round"/>
<path d="M221.254 529.449H208.926V531.748H221.254V529.449Z" stroke="#B2B2B2" stroke-linecap="round" stroke-linejoin="round"/>
<path d="M223.248 526.734H206.945V529.449H223.248V526.734Z" stroke="#B2B2B2" stroke-linecap="round" stroke-linejoin="round"/>
<path d="M222.196 535.724H207.984V550.974H222.196V535.724Z" stroke="#B2B2B2" stroke-linecap="round" stroke-linejoin="round"/>
<path d="M230.188 531.748H240.688C241.654 531.748 242.581 532.132 243.264 532.815C243.947 533.498 244.331 534.425 244.331 535.391V554.783H226.545V535.391C226.545 534.425 226.929 533.498 227.612 532.815C228.296 532.132 229.222 531.748 230.188 531.748V531.748Z" stroke="#B2B2B2" stroke-linecap="round" stroke-linejoin="round"/>
<path d="M241.588 529.449H229.26V531.748H241.588V529.449Z" stroke="#B2B2B2" stroke-linecap="round" stroke-linejoin="round"/>
<path d="M243.582 526.734H227.279V529.449H243.582V526.734Z" stroke="#B2B2B2" stroke-linecap="round" stroke-linejoin="round"/>
<path d="M242.53 535.724H228.318V550.974H242.53V535.724Z" stroke="#B2B2B2" stroke-linecap="round" stroke-linejoin="round"/>
<path d="M250.537 531.748H261.036C262.002 531.748 262.929 532.132 263.612 532.815C264.295 533.499 264.679 534.425 264.679 535.391V554.783H246.88V535.391C246.88 534.912 246.975 534.437 247.158 533.994C247.342 533.551 247.612 533.149 247.952 532.81C248.292 532.472 248.695 532.204 249.138 532.022C249.582 531.839 250.057 531.746 250.537 531.748V531.748Z" stroke="#B2B2B2" stroke-linecap="round" stroke-linejoin="round"/>
<path d="M261.923 529.449H249.595V531.748H261.923V529.449Z" stroke="#B2B2B2" stroke-linecap="round" stroke-linejoin="round"/>
<path d="M263.917 526.734H247.614V529.449H263.917V526.734Z" stroke="#B2B2B2" stroke-linecap="round" stroke-linejoin="round"/>
<path d="M262.864 535.724H248.652V550.974H262.864V535.724Z" stroke="#B2B2B2" stroke-linecap="round" stroke-linejoin="round"/>
<path d="M270.857 531.748H281.356C282.323 531.748 283.249 532.132 283.932 532.815C284.616 533.498 284.999 534.425 284.999 535.391V554.783H267.159V535.391C267.159 534.908 267.255 534.43 267.441 533.984C267.628 533.539 267.901 533.134 268.245 532.795C268.589 532.456 268.998 532.189 269.446 532.009C269.894 531.83 270.374 531.741 270.857 531.748V531.748Z" stroke="#B2B2B2" stroke-linecap="round" stroke-linejoin="round"/>
<path d="M282.257 529.449H269.929V531.748H282.257V529.449Z" stroke="#B2B2B2" stroke-linecap="round" stroke-linejoin="round"/>
<path d="M284.251 526.734H267.948V529.449H284.251V526.734Z" stroke="#B2B2B2" stroke-linecap="round" stroke-linejoin="round"/>
<path d="M283.198 535.724H268.987V550.974H283.198V535.724Z" stroke="#B2B2B2" stroke-linecap="round" stroke-linejoin="round"/>
<path d="M291.176 531.748H301.675C302.642 531.748 303.568 532.132 304.251 532.815C304.935 533.498 305.318 534.425 305.318 535.391V554.783H287.547V535.391C287.547 534.427 287.929 533.503 288.609 532.82C289.289 532.137 290.212 531.752 291.176 531.748V531.748Z" stroke="#B2B2B2" stroke-linecap="round" stroke-linejoin="round"/>
<path d="M302.59 529.449H290.262V531.748H302.59V529.449Z" stroke="#B2B2B2" stroke-linecap="round" stroke-linejoin="round"/>
<path d="M304.584 526.734H288.281V529.449H304.584V526.734Z" stroke="#B2B2B2" stroke-linecap="round" stroke-linejoin="round"/>
<path d="M303.531 535.724H289.32V550.974H303.531V535.724Z" stroke="#B2B2B2" stroke-linecap="round" stroke-linejoin="round"/>
<path d="M311.482 531.748H321.982C322.948 531.748 323.874 532.132 324.558 532.815C325.241 533.498 325.625 534.425 325.625 535.391V554.783H307.881V535.391C307.881 534.432 308.259 533.512 308.933 532.83C309.607 532.148 310.523 531.759 311.482 531.748V531.748Z" stroke="#B2B2B2" stroke-linecap="round" stroke-linejoin="round"/>
<path d="M322.924 529.449H310.596V531.748H322.924V529.449Z" stroke="#B2B2B2" stroke-linecap="round" stroke-linejoin="round"/>
<path d="M324.918 526.734H308.615V529.449H324.918V526.734Z" stroke="#B2B2B2" stroke-linecap="round" stroke-linejoin="round"/>
<path d="M323.866 535.724H309.654V550.974H323.866V535.724Z" stroke="#B2B2B2" stroke-linecap="round" stroke-linejoin="round"/>
<path d="M331.844 531.748H342.344C343.31 531.748 344.237 532.132 344.92 532.815C345.603 533.498 345.987 534.425 345.987 535.391V554.783H328.215V535.391C328.215 534.427 328.597 533.503 329.277 532.82C329.958 532.137 330.881 531.752 331.844 531.748V531.748Z" stroke="#B2B2B2" stroke-linecap="round" stroke-linejoin="round"/>
<path d="M343.258 529.449H330.93V531.748H343.258V529.449Z" stroke="#B2B2B2" stroke-linecap="round" stroke-linejoin="round"/>
<path d="M345.252 526.734H328.949V529.449H345.252V526.734Z" stroke="#B2B2B2" stroke-linecap="round" stroke-linejoin="round"/>
<path d="M344.2 535.724H329.988V550.974H344.2V535.724Z" stroke="#B2B2B2" stroke-linecap="round" stroke-linejoin="round"/>
<path d="M352.179 531.748H362.734C363.7 531.748 364.626 532.132 365.31 532.815C365.993 533.498 366.377 534.425 366.377 535.391V554.783H348.55V535.391C348.55 534.427 348.932 533.503 349.612 532.82C350.292 532.137 351.215 531.752 352.179 531.748V531.748Z" stroke="#B2B2B2" stroke-linecap="round" stroke-linejoin="round"/>
<path d="M363.592 529.449H351.265V531.748H363.592V529.449Z" stroke="#B2B2B2" stroke-linecap="round" stroke-linejoin="round"/>
<path d="M365.587 526.734H349.284V529.449H365.587V526.734Z" stroke="#B2B2B2" stroke-linecap="round" stroke-linejoin="round"/>
<path d="M364.534 535.724H350.323V550.974H364.534V535.724Z" stroke="#B2B2B2" stroke-linecap="round" stroke-linejoin="round"/>
<path d="M372.513 531.748H383.013C383.979 531.748 384.906 532.132 385.589 532.815C386.272 533.498 386.656 534.425 386.656 535.391V554.783H368.884V535.391C368.884 534.427 369.266 533.503 369.946 532.82C370.627 532.137 371.55 531.752 372.513 531.748V531.748Z" stroke="#B2B2B2" stroke-linecap="round" stroke-linejoin="round"/>
<path d="M383.926 529.449H371.599V531.748H383.926V529.449Z" stroke="#B2B2B2" stroke-linecap="round" stroke-linejoin="round"/>
<path d="M385.906 526.734H369.603V529.449H385.906V526.734Z" stroke="#B2B2B2" stroke-linecap="round" stroke-linejoin="round"/>
<path d="M384.869 535.724H370.657V550.974H384.869V535.724Z" stroke="#B2B2B2" stroke-linecap="round" stroke-linejoin="round"/>
<path d="M392.846 531.748H403.345C404.312 531.748 405.238 532.132 405.921 532.815C406.604 533.498 406.988 534.425 406.988 535.391V554.783H389.217V535.391C389.217 534.427 389.599 533.503 390.279 532.82C390.959 532.137 391.882 531.752 392.846 531.748V531.748Z" stroke="#B2B2B2" stroke-linecap="round" stroke-linejoin="round"/>
<path d="M404.26 529.449H391.932V531.748H404.26V529.449Z" stroke="#B2B2B2" stroke-linecap="round" stroke-linejoin="round"/>
<path d="M406.241 526.734H389.938V529.449H406.241V526.734Z" stroke="#B2B2B2" stroke-linecap="round" stroke-linejoin="round"/>
<path d="M405.201 535.724H390.99V550.974H405.201V535.724Z" stroke="#B2B2B2" stroke-linecap="round" stroke-linejoin="round"/>
<path d="M413.18 531.748H423.68C424.646 531.748 425.573 532.132 426.256 532.815C426.939 533.498 427.323 534.425 427.323 535.391V554.783H409.551V535.391C409.551 534.427 409.933 533.503 410.613 532.82C411.294 532.137 412.217 531.752 413.18 531.748V531.748Z" stroke="#B2B2B2" stroke-linecap="round" stroke-linejoin="round"/>
<path d="M424.594 529.449H412.266V531.748H424.594V529.449Z" stroke="#B2B2B2" stroke-linecap="round" stroke-linejoin="round"/>
<path d="M426.575 526.734H410.271V529.449H426.575V526.734Z" stroke="#B2B2B2" stroke-linecap="round" stroke-linejoin="round"/>
<path d="M425.536 535.724H411.324V550.974H425.536V535.724Z" stroke="#B2B2B2" stroke-linecap="round" stroke-linejoin="round"/>
<path d="M433.515 531.748H444.014C444.981 531.748 445.907 532.132 446.59 532.815C447.274 533.498 447.657 534.425 447.657 535.391V554.783H429.872V535.391C429.872 534.425 430.256 533.498 430.939 532.815C431.622 532.132 432.549 531.748 433.515 531.748V531.748Z" stroke="#B2B2B2" stroke-linecap="round" stroke-linejoin="round"/>
<path d="M444.928 529.449H432.601V531.748H444.928V529.449Z" stroke="#B2B2B2" stroke-linecap="round" stroke-linejoin="round"/>
<path d="M446.909 526.734H430.606V529.449H446.909V526.734Z" stroke="#B2B2B2" stroke-linecap="round" stroke-linejoin="round"/>
<path d="M445.87 535.724H431.659V550.974H445.87V535.724Z" stroke="#B2B2B2" stroke-linecap="round" stroke-linejoin="round"/>
<path d="M465.374 560.172H475.873C476.839 560.172 477.766 560.555 478.449 561.239C479.132 561.922 479.516 562.848 479.516 563.815V583.207H461.745V563.815C461.745 562.851 462.127 561.926 462.807 561.244C463.487 560.561 464.41 560.175 465.374 560.172V560.172Z" stroke="#B2B2B2" stroke-linecap="round" stroke-linejoin="round"/>
<path d="M476.787 557.872H464.459V560.172H476.787V557.872Z" stroke="#B2B2B2" stroke-linecap="round" stroke-linejoin="round"/>
<path d="M478.767 555.157H462.463V557.872H478.767V555.157Z" stroke="#B2B2B2" stroke-linecap="round" stroke-linejoin="round"/>
<path d="M477.729 564.147H463.518V579.397H477.729V564.147Z" stroke="#B2B2B2" stroke-linecap="round" stroke-linejoin="round"/>
<path d="M485.706 560.172H496.206C497.172 560.172 498.099 560.555 498.782 561.239C499.465 561.922 499.849 562.848 499.849 563.815V583.207H482.063V563.815C482.063 562.848 482.447 561.922 483.13 561.239C483.814 560.555 484.74 560.172 485.706 560.172V560.172Z" stroke="#B2B2B2" stroke-linecap="round" stroke-linejoin="round"/>
<path d="M497.12 557.872H484.792V560.172H497.12V557.872Z" stroke="#B2B2B2" stroke-linecap="round" stroke-linejoin="round"/>
<path d="M499.101 555.157H482.798V557.872H499.101V555.157Z" stroke="#B2B2B2" stroke-linecap="round" stroke-linejoin="round"/>
<path d="M498.062 564.147H483.85V579.397H498.062V564.147Z" stroke="#B2B2B2" stroke-linecap="round" stroke-linejoin="round"/>
<path d="M453.96 531.748H464.459C465.425 531.748 466.352 532.132 467.035 532.815C467.718 533.498 468.102 534.425 468.102 535.391V554.783H450.317V535.391C450.317 534.425 450.701 533.498 451.384 532.815C452.067 532.132 452.994 531.748 453.96 531.748V531.748Z" stroke="#B2B2B2" stroke-linecap="round" stroke-linejoin="round"/>
<path d="M465.373 529.449H453.045V531.748H465.373V529.449Z" stroke="#B2B2B2" stroke-linecap="round" stroke-linejoin="round"/>
<path d="M467.354 526.734H451.051V529.449H467.354V526.734Z" stroke="#B2B2B2" stroke-linecap="round" stroke-linejoin="round"/>
<path d="M466.315 535.724H452.104V550.974H466.315V535.724Z" stroke="#B2B2B2" stroke-linecap="round" stroke-linejoin="round"/>
<path d="M474.293 531.748H484.792C485.758 531.748 486.685 532.132 487.368 532.815C488.051 533.498 488.435 534.425 488.435 535.391V554.783H470.65V535.391C470.65 534.425 471.034 533.498 471.717 532.815C472.4 532.132 473.327 531.748 474.293 531.748V531.748Z" stroke="#B2B2B2" stroke-linecap="round" stroke-linejoin="round"/>
<path d="M485.693 529.449H473.365V531.748H485.693V529.449Z" stroke="#B2B2B2" stroke-linecap="round" stroke-linejoin="round"/>
<path d="M487.687 526.734H471.384V529.449H487.687V526.734Z" stroke="#B2B2B2" stroke-linecap="round" stroke-linejoin="round"/>
<path d="M486.65 535.724H472.438V550.974H486.65V535.724Z" stroke="#B2B2B2" stroke-linecap="round" stroke-linejoin="round"/>
<path d="M506.152 560.172H516.651C517.617 560.172 518.544 560.555 519.227 561.239C519.91 561.922 520.294 562.848 520.294 563.815V583.207H502.509V563.815C502.509 562.848 502.893 561.922 503.576 561.239C504.259 560.555 505.186 560.172 506.152 560.172V560.172Z" stroke="#B2B2B2" stroke-linecap="round" stroke-linejoin="round"/>
<path d="M517.565 557.872H505.237V560.172H517.565V557.872Z" stroke="#B2B2B2" stroke-linecap="round" stroke-linejoin="round"/>
<path d="M519.546 555.157H503.243V557.872H519.546V555.157Z" stroke="#B2B2B2" stroke-linecap="round" stroke-linejoin="round"/>
<path d="M518.507 564.147H504.295V579.397H518.507V564.147Z" stroke="#B2B2B2" stroke-linecap="round" stroke-linejoin="round"/>
<path d="M526.486 560.172H536.985C537.951 560.172 538.878 560.555 539.561 561.239C540.244 561.922 540.628 562.848 540.628 563.815V583.207H522.843V563.815C522.843 563.336 522.937 562.862 523.12 562.42C523.303 561.978 523.572 561.577 523.91 561.239C524.248 560.9 524.65 560.632 525.092 560.449C525.534 560.266 526.007 560.172 526.486 560.172V560.172Z" stroke="#B2B2B2" stroke-linecap="round" stroke-linejoin="round"/>
<path d="M537.885 557.872H525.558V560.172H537.885V557.872Z" stroke="#B2B2B2" stroke-linecap="round" stroke-linejoin="round"/>
<path d="M539.88 555.157H523.577V557.872H539.88V555.157Z" stroke="#B2B2B2" stroke-linecap="round" stroke-linejoin="round"/>
<path d="M538.841 564.147H524.629V579.397H538.841V564.147Z" stroke="#B2B2B2" stroke-linecap="round" stroke-linejoin="round"/>
<path d="M494.738 531.748H505.237C506.203 531.748 507.13 532.132 507.813 532.815C508.496 533.498 508.88 534.425 508.88 535.391V554.783H491.095V535.391C491.095 534.425 491.479 533.498 492.162 532.815C492.845 532.132 493.771 531.748 494.738 531.748Z" stroke="#B2B2B2" stroke-linecap="round" stroke-linejoin="round"/>
<path d="M506.137 529.449H493.81V531.748H506.137V529.449Z" stroke="#B2B2B2" stroke-linecap="round" stroke-linejoin="round"/>
<path d="M508.132 526.734H491.829V529.449H508.132V526.734Z" stroke="#B2B2B2" stroke-linecap="round" stroke-linejoin="round"/>
<path d="M507.079 535.724H492.868V550.974H507.079V535.724Z" stroke="#B2B2B2" stroke-linecap="round" stroke-linejoin="round"/>
<path d="M515.1 531.748H525.599C526.565 531.748 527.492 532.132 528.175 532.815C528.858 533.499 529.242 534.425 529.242 535.391V554.783H511.429V535.391C511.429 534.911 511.524 534.435 511.709 533.991C511.894 533.547 512.165 533.144 512.506 532.806C512.847 532.467 513.252 532.199 513.697 532.018C514.142 531.836 514.619 531.745 515.1 531.748V531.748Z" stroke="#B2B2B2" stroke-linecap="round" stroke-linejoin="round"/>
<path d="M526.472 529.449H514.144V531.748H526.472V529.449Z" stroke="#B2B2B2" stroke-linecap="round" stroke-linejoin="round"/>
<path d="M528.466 526.734H512.163V529.449H528.466V526.734Z" stroke="#B2B2B2" stroke-linecap="round" stroke-linejoin="round"/>
<path d="M527.414 535.724H513.202V550.974H527.414V535.724Z" stroke="#B2B2B2" stroke-linecap="round" stroke-linejoin="round"/>
<path d="M442.712 655.304C442.712 660.678 382.971 665 309.267 665C235.563 665 175.835 660.651 175.835 655.304C175.835 649.957 235.577 645.608 309.267 645.608C382.957 645.608 442.712 649.93 442.712 655.304Z" fill="#009C8E"/>
<path opacity="0.4" d="M442.712 655.304C442.712 660.678 382.971 665 309.267 665C235.563 665 175.835 660.651 175.835 655.304C175.835 649.957 235.577 645.608 309.267 645.608C382.957 645.608 442.712 649.93 442.712 655.304Z" fill="white"/>
<path d="M331.789 253.168C331.789 253.168 336.471 259.913 336.762 265.772C337.053 271.632 337.053 276.618 337.939 278.668C338.826 280.718 341.748 282.186 341.458 283.946C341.167 285.705 338.812 287.464 338.812 287.464C338.812 287.464 337.358 295.664 334.657 299.487C331.955 303.31 328.506 301.828 325.57 301.537C323.772 301.343 322.002 300.949 320.292 300.36C317.75 303.467 316.129 307.224 315.611 311.205C315.201 314.433 315.299 317.704 315.902 320.901L295.387 314.751C295.387 314.751 305.084 306.842 303.878 297.451C303.132 291.716 301.131 286.216 298.019 281.341C298.019 281.341 287.174 269.318 291.287 262.282C295.401 255.245 299.488 249.095 304.183 246.754C308.879 244.413 331.789 253.168 331.789 253.168Z" fill="white" stroke="#263238" stroke-linecap="round" stroke-linejoin="round"/>
<path d="M327.676 284.859C327.676 284.859 331.832 289.015 334.422 289.541" stroke="#263238" stroke-width="0.75" stroke-linecap="round" stroke-linejoin="round"/>
<path d="M329.435 283.391L325.917 286.314" stroke="#263238" stroke-width="0.75" stroke-linecap="round" stroke-linejoin="round"/>
<path d="M333.977 279.277C334.704 279.277 335.293 277.77 335.293 275.911C335.293 274.052 334.704 272.545 333.977 272.545C333.251 272.545 332.662 274.052 332.662 275.911C332.662 277.77 333.251 279.277 333.977 279.277Z" fill="#263238"/>
<path d="M328.562 268.736C328.562 268.736 330.322 263.459 334.103 264.927" stroke="#263238" stroke-width="0.75" stroke-linecap="round" stroke-linejoin="round"/>
<path d="M287.52 255.841C287.52 255.841 286.135 247.045 274.043 247.045C261.951 247.045 261.729 264.622 264.665 271.978C267.602 279.333 278.434 282.242 283.42 278.723C288.407 275.205 288.961 269.027 288.961 266.118C288.697 262.666 288.216 259.233 287.52 255.841V255.841Z" fill="#263238" stroke="#263238" stroke-linecap="round" stroke-linejoin="round"/>
<path d="M307.453 278.1C307.453 278.1 320.349 276.632 322.399 271.354C324.449 266.077 320.349 262.559 319.767 261.104C319.185 259.65 332.663 260.218 335.003 248.79C337.344 237.363 330.322 235.604 328.272 237.363C326.222 239.122 326.222 246.449 326.222 246.449C326.222 246.449 320.058 237.944 314.489 237.058C308.921 236.171 308.048 238.235 309.503 240.285C311.103 242.196 312.869 243.962 314.78 245.563C314.78 245.563 298.671 238.831 290.706 247.627C282.742 256.422 278.988 266.382 286.024 276.355C290.256 282.339 295.912 287.176 302.48 290.428C302.48 290.428 303.062 281.923 307.453 278.1Z" fill="#263238" stroke="#263238" stroke-linecap="round" stroke-linejoin="round"/>
<path d="M309.211 280.164C309.211 280.164 306.87 270.204 303.061 275.177C299.252 280.15 302.479 285.732 304.82 288.073C307.161 290.414 311.566 288.364 311.566 288.364" fill="white"/>
<path d="M309.211 280.164C309.211 280.164 306.87 270.204 303.061 275.177C299.252 280.15 302.479 285.732 304.82 288.073C307.161 290.414 311.566 288.364 311.566 288.364" stroke="#263238" stroke-linecap="round" stroke-linejoin="round"/>
<path d="M435.247 320.319C435.247 320.319 442.865 325.306 441.106 327.356C439.059 329.265 436.8 330.933 434.374 332.329C434.374 332.329 427.919 329.115 424.996 327.356C422.074 325.597 425.578 322.66 428.501 320.901C431.424 319.142 433.487 318.269 435.247 320.319Z" fill="white" stroke="#263238" stroke-linecap="round" stroke-linejoin="round"/>
<path d="M314.49 319.142L339.423 326.761C343.232 327.938 352.318 327.647 352.318 327.647C360.618 326.903 368.848 325.514 376.932 323.492C389.537 320.264 415.038 319.087 415.038 319.087C415.038 319.087 427.352 315.859 434.084 316.746L452.257 319.087C450.716 320.282 448.911 321.09 446.993 321.442C443.766 322.023 435.552 320.555 433.793 321.137C432.302 321.921 431.002 323.022 429.984 324.364C429.984 324.364 435.843 329.642 435.843 331.11C435.843 332.578 435.261 335.265 433.502 334.919C431.743 334.573 431.743 332.869 429.346 331.692C426.95 330.514 424.36 329.933 421.132 328.173C419.33 327.22 417.659 326.037 416.16 324.655C415.675 324.184 400.494 332.038 398.721 332.772C392.196 335.559 385.501 337.933 378.678 339.878C365.616 343.549 351.362 345.82 337.899 343.119C329.103 341.36 314.448 336.387 314.448 336.387C314.448 336.387 305.362 332.232 305.957 324.655C306.553 317.078 314.49 319.142 314.49 319.142Z" fill="white" stroke="#263238" stroke-linecap="round" stroke-linejoin="round"/>
<path d="M320.349 326.178C320.349 326.178 312.731 313.283 305.403 309.764C298.076 306.246 290.707 315.914 286.939 324.419C283.172 332.924 283.781 346.111 284.598 358.439C285.416 370.766 291.344 384.756 291.344 384.756C291.344 384.756 278.739 399.993 275.803 414.357C272.866 428.721 276.98 447.476 278.739 460.372C280.498 473.268 281.371 494.668 281.371 494.668C281.371 494.668 273.462 503.464 272.284 514.31C271.107 525.155 267.035 571.987 267.035 577.555C267.035 583.124 265.871 591.338 267.035 592.792C268.198 594.247 268.212 594.177 269.389 594.177C270.567 594.177 298.104 591.546 300.458 589.495C302.813 587.445 303.963 585.977 301.331 584.8C298.699 583.622 276.398 575.104 276.121 572.791C275.844 570.477 296.899 518.036 300.417 508.658C303.935 499.281 307.744 458.239 309.213 452.089C310.681 445.939 313.617 434.788 313.617 434.788C323.977 434.004 334.284 432.645 344.492 430.716C364.425 427.197 383.11 417.64 383.11 417.64C383.11 417.64 372.971 436.713 376.669 449.318C380.368 461.923 381.891 479.792 382.681 492.05C383.47 504.309 381.836 503.131 383.47 504.267C385.105 505.403 397.045 499.821 400.355 499.35C403.666 498.879 415.675 497.494 419.526 495.028C423.377 492.563 406.575 490.111 399.524 487.424C392.474 484.737 392.1 483.268 392.1 483.268C392.1 483.268 391.837 473.78 399.774 435.204C403.721 415.964 405.467 400.187 400.355 398.636C395.244 397.084 353.26 397.943 343.024 400.589C336.914 402.15 331.321 405.288 326.804 409.689C326.804 409.689 322.108 389.466 322.648 382.139C323.189 374.811 324.408 365.129 324.408 365.129C324.408 365.129 333.189 361.915 332.899 354.283C332.608 346.651 326.749 340.806 324.103 336.124C322.435 332.981 321.173 329.639 320.349 326.178Z" fill="white" stroke="#263238" stroke-linecap="round" stroke-linejoin="round"/>
<path d="M301.331 584.925C299.073 583.927 282.437 577.556 277.506 574.273C276.796 575.019 276.404 576.013 276.412 577.043C276.884 578.649 277.472 580.218 278.171 581.739L266.716 584.841C266.48 588.609 266.328 591.975 267.034 592.875C268.212 594.26 268.212 594.26 269.389 594.26C270.567 594.26 298.103 591.629 300.458 589.579C302.813 587.529 303.962 586.102 301.331 584.925Z" fill="#009C8E" stroke="#263238" stroke-linecap="round" stroke-linejoin="round"/>
<path d="M395.466 457.726C396.532 451.645 397.917 444.263 399.773 435.273C403.721 416.033 405.466 400.256 400.355 398.705C395.244 397.154 353.26 398.012 343.024 400.658C337.095 402.182 329.352 404.329 328.964 404.814C328.3 401.891 322.648 390.962 322.648 383.538C310.293 384.327 299.018 385.103 298.366 385.352L287.438 389.992C283.476 395.685 277.742 405.229 275.802 414.371C272.866 428.735 276.98 447.49 278.739 460.386C280.498 473.281 281.371 494.682 281.371 494.682C281.371 494.682 273.461 503.478 272.284 514.323C271.536 521.249 266.314 549.174 266.647 562.042C271.044 562.388 275.469 562.052 279.764 561.045C284.515 547.429 298.02 515.141 300.416 508.755C303.935 499.378 307.744 458.336 309.212 452.186C310.68 446.036 313.617 434.885 313.617 434.885C323.976 434.102 334.284 432.742 344.492 430.813C364.424 427.294 383.11 417.737 383.11 417.737C383.11 417.737 372.971 436.81 376.669 449.415C377.597 452.601 378.4 456.133 379.079 459.818C384.629 460.377 390.234 459.661 395.466 457.726V457.726Z" fill="#263238" stroke="#263238" stroke-linecap="round" stroke-linejoin="round"/>
<path d="M322.703 382.166C323.285 374.839 324.462 365.157 324.462 365.157C324.462 365.157 333.244 361.943 332.953 354.311C332.662 346.679 326.803 340.833 324.157 336.152C322.468 333.003 321.188 329.652 320.348 326.178C320.348 326.178 312.73 313.283 305.402 309.764C298.075 306.246 290.706 315.914 286.938 324.419C283.171 332.924 283.78 346.111 284.597 358.439C285.415 370.766 291.343 384.756 291.343 384.756C291.343 384.756 281.342 396.877 277.09 409.689C284.918 412.986 293.408 414.409 301.884 413.845C315.833 412.82 325.321 407.999 328.964 404.869C327.606 398.303 322.315 387.028 322.703 382.166Z" fill="#009C8E" stroke="#263238" stroke-linecap="round" stroke-linejoin="round"/>
<path d="M312.148 343.77C312.148 343.77 304.724 349.435 290.872 352.206" stroke="#263238" stroke-linecap="round" stroke-linejoin="round"/>
<path d="M313.034 345.972C313.034 345.972 306.109 355.668 298.49 358.439" stroke="#263238" stroke-linecap="round" stroke-linejoin="round"/>
<path d="M290.705 403.747C289.21 404.62 287.672 405.451 286.079 406.226" stroke="#263238" stroke-linecap="round" stroke-linejoin="round"/>
<path d="M319.96 375.061C313.697 384.738 305.717 393.188 296.412 399.993" stroke="#263238" stroke-linecap="round" stroke-linejoin="round"/>
<path d="M339.699 270.357V276.909C339.696 277.245 339.815 277.571 340.034 277.826C340.253 278.08 340.558 278.247 340.891 278.294L381.739 283.641C381.934 283.664 382.132 283.646 382.32 283.587C382.508 283.528 382.681 283.43 382.827 283.299C382.974 283.168 383.091 283.007 383.171 282.827C383.251 282.647 383.291 282.452 383.29 282.255L383.359 269.18C383.359 268.812 383.213 268.46 382.954 268.2C382.694 267.94 382.341 267.794 381.974 267.794L341.043 268.889C340.857 268.894 340.675 268.936 340.506 269.014C340.337 269.091 340.185 269.201 340.06 269.338C339.935 269.475 339.838 269.636 339.776 269.811C339.714 269.986 339.688 270.172 339.699 270.357Z" fill="#263238" stroke="#263238" stroke-linecap="round" stroke-linejoin="round"/>
<path d="M352.303 285.441C352.303 285.441 344.38 283.391 343.799 281.037C343.45 279.677 343.255 278.284 343.217 276.881C343.217 276.881 347.026 277.768 348.203 277.172C349.381 276.576 348.494 260.176 349.962 259.304C351.431 258.431 356.113 256.367 357.872 260.467C359.631 264.567 358.453 263.404 358.453 263.404C360.002 263.078 361.601 263.078 363.149 263.404C364.705 263.976 366.122 264.873 367.305 266.035C367.305 266.035 371.114 265.454 372 268.085C372.887 270.717 368.773 281.868 366.127 286.854C363.482 291.841 362.609 293.877 362.609 293.877C362.609 293.877 359.091 337.855 357.068 346.346C355.046 354.837 351.652 359.824 350.156 359.824C348.66 359.824 322.703 347.815 312.148 343.715C301.593 339.615 294.556 340.667 292.756 330.112C290.955 319.558 298.296 317.037 304.488 317.037C310.68 317.037 342.884 336.429 342.884 336.429C342.884 336.429 353.134 305.955 353.134 297.741C353.242 293.624 352.964 289.506 352.303 285.441V285.441Z" fill="white" stroke="#263238" stroke-linecap="round" stroke-linejoin="round"/>
<path d="M419.525 495.153C423.39 492.701 406.574 490.236 399.524 487.549C397.503 486.818 395.559 485.891 393.72 484.778C393.375 485.148 393.109 485.585 392.94 486.061C392.771 486.538 392.701 487.044 392.736 487.549C392.914 489.306 393.286 491.039 393.845 492.715C393.845 492.715 387.501 494.447 382.86 495.86C383.137 504.17 382.029 503.409 383.47 504.378C384.91 505.348 397.044 499.932 400.355 499.461C403.665 498.99 415.674 497.619 419.525 495.153Z" fill="#009C8E" stroke="#263238" stroke-linecap="round" stroke-linejoin="round"/>
<path d="M313.616 434.913L320.653 419.385" stroke="#263238" stroke-width="0.75" stroke-linecap="round" stroke-linejoin="round"/>
<path d="M373.719 653.697C379.671 653.697 384.495 648.872 384.495 642.921C384.495 636.969 379.671 632.144 373.719 632.144C367.767 632.144 362.942 636.969 362.942 642.921C362.942 648.872 367.767 653.697 373.719 653.697Z" fill="#263238" stroke="#263238" stroke-width="0.75" stroke-linecap="round" stroke-linejoin="round"/>
<path d="M366.889 633.779C366.889 633.779 369.174 643.572 370.476 645.539C371.778 647.506 376.017 648.475 377.014 644.223C378.011 639.97 373.427 633.142 373.427 633.142L366.889 633.779Z" fill="white" stroke="#263238" stroke-width="0.75" stroke-linecap="round" stroke-linejoin="round"/>
<path d="M234.233 653.697C240.185 653.697 245.01 648.872 245.01 642.921C245.01 636.969 240.185 632.144 234.233 632.144C228.282 632.144 223.457 636.969 223.457 642.921C223.457 648.872 228.282 653.697 234.233 653.697Z" fill="#263238" stroke="#263238" stroke-width="0.75" stroke-linecap="round" stroke-linejoin="round"/>
<path d="M241.089 633.779C241.089 633.779 238.804 643.572 237.502 645.539C236.2 647.506 231.961 648.475 230.964 644.223C229.967 639.97 234.565 633.142 234.565 633.142L241.089 633.779Z" fill="white" stroke="#263238" stroke-width="0.75" stroke-linecap="round" stroke-linejoin="round"/>
<path d="M401.228 542.317C401.364 542.003 401.424 541.662 401.405 541.321C401.386 540.979 401.287 540.647 401.117 540.35L398.901 502.647C398.87 502.134 398.67 501.646 398.331 501.26C397.993 500.874 397.535 500.611 397.031 500.514L224.635 467.007L221.865 452.38C221.466 450.288 220.355 448.399 218.721 447.033C217.088 445.668 215.032 444.909 212.903 444.886L181.045 444.609C180.431 444.609 179.843 444.853 179.409 445.286C178.975 445.72 178.731 446.309 178.731 446.922C178.731 447.536 178.975 448.124 179.409 448.558C179.843 448.992 180.431 449.235 181.045 449.235L212.903 449.512C213.96 449.526 214.98 449.904 215.79 450.583C216.601 451.262 217.151 452.2 217.349 453.238L233.597 539.506C233.597 539.506 233.597 539.616 233.597 539.672C233.59 540.032 233.67 540.389 233.833 540.711L244.207 595.743C244.013 596.261 244.013 596.831 244.207 597.349C244.207 597.349 246.465 603.68 243.515 612.808C241.352 618.936 237.877 624.519 233.334 629.166C232.98 629.521 232.755 629.984 232.697 630.482H220.563C220.259 630.482 219.958 630.542 219.678 630.658C219.397 630.775 219.142 630.945 218.927 631.16C218.713 631.375 218.542 631.629 218.426 631.91C218.31 632.191 218.25 632.492 218.25 632.795C218.25 633.099 218.31 633.4 218.426 633.681C218.542 633.961 218.713 634.216 218.927 634.431C219.142 634.646 219.397 634.816 219.678 634.933C219.958 635.049 220.259 635.109 220.563 635.109H378.29C378.904 635.109 379.492 634.865 379.926 634.431C380.36 633.997 380.603 633.409 380.603 632.795C380.603 632.182 380.36 631.594 379.926 631.16C379.492 630.726 378.904 630.482 378.29 630.482H307.204C305.819 626.23 304.198 616.769 309.6 611.99C316.258 606.174 320.887 598.386 322.815 589.759L401.228 578.594C401.803 578.515 402.327 578.221 402.695 577.772C403.062 577.322 403.246 576.75 403.209 576.17L401.228 542.317ZM326.832 584.467L326.278 579.827L337.871 578.65L338.231 582.805L326.832 584.467ZM310.099 586.85L309.434 581.531L321.679 580.298L322.247 585.119L310.099 586.85ZM253.405 477.312L257.214 501.109L243.695 499.724L238.999 474.528L253.405 477.312ZM274.598 481.468L277.063 503.118L261.993 501.594L258.239 478.296L274.598 481.468ZM292.605 484.972L295.126 504.932L281.787 503.547L279.363 482.354L292.605 484.972ZM310.916 488.532L313.036 506.65L299.835 505.265L297.383 485.873L310.916 488.532ZM396.422 539.145L376.849 538.938C376.309 531.305 375.797 523.964 375.367 517.676L395.272 519.684L396.422 539.145ZM372.195 538.882L357.818 538.73L356.252 515.75L370.699 517.135C371.129 523.604 371.655 531.167 372.182 538.841L372.195 538.882ZM268.545 542.359L281.551 542.497L285.707 579.273L274.625 580.395L268.545 542.359ZM270.054 580.866L258.973 581.974L251.563 542.179L263.807 542.317L270.054 580.866ZM316.734 538.245L303.935 538.107L300.403 510.085L313.562 511.47L316.734 538.245ZM318.299 511.927L332.151 513.312L334.395 538.508L321.416 538.37L318.299 511.927ZM299.267 538.107L285.693 537.954L282.299 508.298L295.68 509.683L299.267 538.107ZM281.011 537.871L267.783 537.719L262.713 506.29L277.562 507.786L281.011 537.871ZM286.205 542.553L299.835 542.705L304.198 577.403L290.347 578.788L286.205 542.553ZM304.503 542.747L317.26 542.885L321.18 575.7L308.88 576.932L304.503 542.747ZM321.928 542.941L334.769 543.079L337.442 574.037L325.71 575.229L321.928 542.941ZM339.423 543.121L353.44 543.273L355.407 572.223L342.055 573.608L339.423 543.121ZM339.049 538.508L336.902 513.769L351.57 515.252L353.163 538.661L339.049 538.508ZM355.92 511.041L354.978 497.065L369.508 499.835C369.619 501.76 369.938 506.345 370.353 512.44L355.92 511.041ZM351.252 510.57L336.5 509.074L335.115 493.214L350.268 496.136L351.252 510.57ZM331.86 508.603L317.801 507.218L315.64 489.419L330.364 492.272L331.86 508.603ZM258.017 505.833L263.156 537.691L250.787 537.552L244.623 504.475L258.017 505.833ZM246.064 537.511L237.933 537.428L231.478 503.159L239.789 504.004L246.064 537.511ZM246.936 542.151L254.444 582.473L246.562 583.276L238.805 542.068L246.936 542.151ZM247.421 587.861L255.303 587.072L256.688 594.51L248.875 595.618L247.421 587.861ZM261.273 593.859L259.887 586.601L270.802 585.493L271.91 592.335L261.273 593.859ZM276.509 591.684L275.443 585.035L286.316 583.927L287.022 590.188L276.509 591.684ZM291.607 589.537L290.915 583.456L304.766 582.071L305.459 587.612L291.607 589.537ZM342.498 578.248L355.767 576.863L356.003 580.326L342.844 582.196L342.498 578.248ZM360.38 576.434L374.73 575.048C374.799 576.018 374.855 576.905 374.91 577.75L360.602 579.786L360.38 576.434ZM360.061 571.807L358.136 543.384L372.528 543.536C373.207 553.232 373.913 562.928 374.398 570.367L360.061 571.807ZM377.168 543.592L396.685 543.8L398.07 567.97L378.969 569.896C378.429 561.765 377.791 552.581 377.154 543.536L377.168 543.592ZM394.981 514.961L375.035 512.952C374.647 507.412 374.356 503.145 374.204 500.791L394.385 504.711L394.981 514.961ZM234.11 473.572L238.902 499.225L230.591 498.394L225.605 471.896L234.11 473.572ZM306.525 608.528C299.849 614.428 300.832 624.651 302.37 630.482H238.376C242.575 625.745 245.795 620.222 247.85 614.234C249.373 609.709 249.907 604.91 249.416 600.161L259.029 598.776C259.144 598.784 259.26 598.784 259.375 598.776C259.513 598.79 259.652 598.79 259.79 598.776C260.007 598.732 260.217 598.657 260.414 598.554L317.87 590.368C315.931 597.394 311.99 603.704 306.525 608.528V608.528ZM379.495 576.96C379.495 576.157 379.384 575.312 379.329 574.467L398.361 572.541L398.472 574.273L379.495 576.96Z" fill="white" stroke="#263238" stroke-linecap="round" stroke-linejoin="round"/>
<path d="M207.777 450.898H174.131C173.502 450.932 172.872 450.838 172.279 450.62C171.687 450.403 171.146 450.067 170.688 449.634C170.23 449.2 169.865 448.678 169.616 448.098C169.366 447.519 169.238 446.895 169.238 446.264C169.238 445.634 169.366 445.009 169.616 444.43C169.865 443.851 170.23 443.328 170.688 442.895C171.146 442.461 171.687 442.125 172.279 441.908C172.872 441.691 173.502 441.597 174.131 441.631H207.777C208.962 441.696 210.077 442.212 210.893 443.074C211.709 443.936 212.164 445.077 212.164 446.264C212.164 447.451 211.709 448.593 210.893 449.455C210.077 450.316 208.962 450.833 207.777 450.898V450.898Z" fill="#263238" stroke="#263238" stroke-linecap="round" stroke-linejoin="round"/>
<path d="M259.901 271.95H232.156" stroke="#263238" stroke-linecap="round" stroke-linejoin="round"/>
<path d="M203.026 323.408H195.089" stroke="#263238" stroke-linecap="round" stroke-linejoin="round"/>
<path d="M275.899 323.408H213.582" stroke="#263238" stroke-linecap="round" stroke-linejoin="round"/>
<path d="M221.462 478.96H134.932" stroke="#263238" stroke-linecap="round" stroke-linejoin="round"/>
<path d="M189.382 495.499H152.426" stroke="#263238" stroke-linecap="round" stroke-linejoin="round"/>
<path d="M270.774 418.513H238.957" stroke="#263238" stroke-linecap="round" stroke-linejoin="round"/>
<path d="M377.015 452.712H351.736" stroke="#263238" stroke-linecap="round" stroke-linejoin="round"/>
<path d="M364.382 446.88H330.349" stroke="#263238" stroke-linecap="round" stroke-linejoin="round"/>
</svg>
