<svg width="32" height="32" viewBox="0 0 32 32" fill="none" xmlns="http://www.w3.org/2000/svg">
<path d="M28.9068 3.96656C28.6313 3.72863 28.2959 3.57061 27.9369 3.50964C27.578 3.44866 27.2092 3.48703 26.8706 3.62062L3.80092 12.6837C3.39881 12.8417 3.05866 13.1256 2.83137 13.493C2.60409 13.8604 2.50188 14.2916 2.54005 14.7219C2.57822 15.1522 2.75471 15.5587 3.04311 15.8803C3.33152 16.202 3.71633 16.4216 4.13997 16.5064L9.99983 17.6784V24.9976C9.99949 25.3933 10.1166 25.7802 10.3363 26.1093C10.556 26.4384 10.8684 26.6949 11.234 26.8464C11.5996 26.9978 12.0019 27.0373 12.39 26.96C12.7781 26.8826 13.1344 26.6918 13.414 26.4118L16.6569 23.1689L21.5789 27.5003C21.9413 27.822 22.4089 28 22.8936 28.0006C23.1042 28.0004 23.3136 27.9672 23.514 27.9022C23.8445 27.7974 24.1418 27.6077 24.3762 27.3521C24.6105 27.0965 24.7737 26.7839 24.8496 26.4456L29.5513 5.92897C29.6332 5.5742 29.6164 5.20379 29.5028 4.85787C29.3892 4.51195 29.1831 4.20372 28.9068 3.96656ZM22.9001 25.9988L12.6011 16.9356L27.4317 6.22468L22.9001 25.9988Z" fill="white"/>
</svg>
