<svg width="24" height="24" viewBox="0 0 24 24" fill="none" xmlns="http://www.w3.org/2000/svg">
<path d="M8.25006 12.6443L16.6798 20.0625C16.7773 20.1484 16.8955 20.2074 17.0227 20.2338C17.1499 20.2602 17.2818 20.2532 17.4054 20.2133C17.5291 20.1734 17.6403 20.1021 17.7281 20.0063C17.8159 19.9106 17.8773 19.7937 17.9063 19.667L21.4326 4.27959C21.4631 4.14655 21.4567 4.00771 21.4141 3.87804C21.3715 3.74837 21.2944 3.63277 21.1909 3.54371C21.0875 3.45466 20.9617 3.39551 20.8272 3.37265C20.6926 3.3498 20.5544 3.36409 20.4273 3.414L3.12511 10.2113C2.97432 10.2705 2.84676 10.377 2.76153 10.5148C2.6763 10.6526 2.63797 10.8142 2.65229 10.9756C2.6666 11.137 2.73279 11.2894 2.84094 11.41C2.94909 11.5307 3.0934 11.613 3.25227 11.6448L8.25006 12.6443Z" stroke="#727BBE" stroke-width="1.5" stroke-linecap="round" stroke-linejoin="round"/>
<path d="M8.25 12.6444L21.0105 3.42847" stroke="#727BBE" stroke-width="1.5" stroke-linecap="round" stroke-linejoin="round"/>
<path d="M12.46 16.3491L9.53033 19.2788C9.42544 19.3837 9.2918 19.4551 9.14632 19.4841C9.00083 19.513 8.85003 19.4982 8.71299 19.4414C8.57594 19.3846 8.45881 19.2885 8.3764 19.1652C8.29399 19.0418 8.25 18.8968 8.25 18.7485V12.6443" stroke="#727BBE" stroke-width="1.5" stroke-linecap="round" stroke-linejoin="round"/>
</svg>
