<svg width="24" height="24" viewBox="0 0 24 24" fill="none" xmlns="http://www.w3.org/2000/svg">
<path d="M11.9999 8.25027C12 7.38867 12.2967 6.55337 12.8402 5.8848C13.3837 5.21624 14.1408 4.75517 14.9842 4.57913C15.8276 4.40309 16.706 4.5228 17.4715 4.91814C18.2371 5.31348 18.8431 5.96034 19.1879 6.74997L22.4999 6.75L19.4753 9.77461C19.2784 12.8168 17.931 15.67 15.7069 17.7548C13.4827 19.8397 10.5485 20.9999 7.49993 21C4.49993 21 3.74993 19.875 3.74993 19.875C3.74993 19.875 6.74993 18.75 8.24993 16.5C8.24993 16.5 2.24993 13.5 3.74993 5.25C3.74993 5.25 7.49993 9 11.9986 9.75L11.9999 8.25027Z" stroke="#727BBE" stroke-width="1.5" stroke-linecap="round" stroke-linejoin="round"/>
</svg>
