<svg width="60" height="60" viewBox="0 0 60 60" fill="none" xmlns="http://www.w3.org/2000/svg">
<path d="M54.0328 44.4764C55.4714 41.7871 56.2323 38.7875 56.2497 35.7377C56.2671 32.6879 55.5404 29.6799 54.1326 26.9744C52.7248 24.2689 50.6784 21.9475 48.1707 20.2116C45.6631 18.4757 42.7699 17.3775 39.742 17.0124C38.7472 14.6848 37.2915 12.5827 35.4624 10.8328C33.6334 9.08295 31.4691 7.72153 29.0998 6.83062C26.7305 5.93971 24.2053 5.53775 21.6765 5.64897C19.1477 5.76019 16.6675 6.38228 14.3856 7.47776C12.1037 8.57324 10.0672 10.1194 8.39883 12.0231C6.73051 13.9268 5.46491 16.1485 4.67831 18.5545C3.89171 20.9604 3.60041 23.5007 3.82196 26.0223C4.0435 28.5438 4.77331 30.9944 5.96739 33.2264L4.51789 38.3005C4.35704 38.8632 4.34959 39.4586 4.49631 40.0251C4.64302 40.5916 4.93856 41.1085 5.3523 41.5223C5.76604 41.9361 6.28292 42.2318 6.84937 42.3786C7.41582 42.5254 8.01124 42.5181 8.5739 42.3574L13.6487 40.9075C15.7022 42.0067 17.943 42.7128 20.2557 42.9896C21.2781 45.3814 22.7868 47.5343 24.6858 49.3118C26.5849 51.0892 28.8328 52.4523 31.2869 53.3144C33.741 54.1766 36.3475 54.5189 38.941 54.3197C41.5344 54.1205 44.0581 53.3842 46.3518 52.1574L51.4263 53.6074C51.9889 53.7681 52.5843 53.7754 53.1508 53.6286C53.7172 53.4818 54.2341 53.1862 54.6478 52.7724C55.0615 52.3587 55.3571 51.8418 55.5039 51.2753C55.6507 50.7089 55.6433 50.1135 55.4826 49.5509L54.0328 44.4764ZM50.403 43.2792C50.2724 43.4988 50.188 43.7428 50.1551 43.9962C50.1222 44.2496 50.1415 44.507 50.2116 44.7527L51.6451 49.7698L46.628 48.3364C46.3824 48.2663 46.125 48.2471 45.8716 48.28C45.6183 48.3129 45.3743 48.3972 45.1547 48.5278C43.4387 49.5448 41.5372 50.2095 39.5613 50.483C37.5854 50.7566 35.5749 50.6335 33.6471 50.121C31.7194 49.6085 29.9131 48.7168 28.334 47.4981C26.7548 46.2794 25.4345 44.7581 24.4501 43.0232C27.0184 42.7574 29.504 41.9634 31.7508 40.6911C33.9975 39.4187 35.9569 37.6955 37.5059 35.6297C39.0548 33.5639 40.1599 31.2001 40.7516 28.6868C41.3433 26.1735 41.4089 23.5649 40.9443 21.0251C43.2352 21.5662 45.3666 22.6387 47.1664 24.1559C48.9661 25.6732 50.3836 27.5925 51.3044 29.7589C52.2252 31.9253 52.6233 34.2779 52.4668 36.6266C52.3102 38.9753 51.6032 41.2542 50.403 43.2792Z" fill="#0095FF"/>
</svg>
