<svg width="60" height="60" viewBox="0 0 60 60" fill="none" xmlns="http://www.w3.org/2000/svg">
<path d="M46.875 5.625H13.125C12.1308 5.62614 11.1776 6.02159 10.4746 6.72461C9.77159 7.42762 9.37614 8.38079 9.375 9.375V50.625C9.37614 51.6192 9.77159 52.5724 10.4746 53.2754C11.1776 53.9784 12.1308 54.3739 13.125 54.375H46.875C47.8692 54.3739 48.8224 53.9784 49.5254 53.2754C50.2284 52.5724 50.6239 51.6192 50.625 50.625V9.375C50.6239 8.38079 50.2284 7.42762 49.5254 6.72461C48.8224 6.02159 47.8692 5.62614 46.875 5.625ZM20.625 46.8732C20.0687 46.8732 19.525 46.7082 19.0625 46.3992C18.5999 46.0901 18.2395 45.6509 18.0266 45.137C17.8137 44.6231 17.758 44.0575 17.8665 43.512C17.9751 42.9664 18.2429 42.4653 18.6363 42.0719C19.0296 41.6786 19.5307 41.4107 20.0763 41.3022C20.6219 41.1937 21.1874 41.2494 21.7013 41.4623C22.2152 41.6751 22.6545 42.0356 22.9635 42.4981C23.2726 42.9606 23.4375 43.5044 23.4375 44.0607C23.4366 44.8063 23.1401 45.5212 22.6128 46.0485C22.0855 46.5757 21.3707 46.8723 20.625 46.8732ZM20.625 37.4982C20.0687 37.4982 19.525 37.3332 19.0625 37.0242C18.5999 36.7151 18.2395 36.2759 18.0266 35.762C17.8137 35.2481 17.758 34.6826 17.8665 34.137C17.9751 33.5914 18.2429 33.0903 18.6363 32.6969C19.0296 32.3036 19.5307 32.0357 20.0763 31.9272C20.6219 31.8187 21.1874 31.8744 21.7013 32.0873C22.2152 32.3001 22.6545 32.6606 22.9635 33.1231C23.2726 33.5856 23.4375 34.1294 23.4375 34.6857C23.4366 35.4313 23.1401 36.1462 22.6128 36.6735C22.0855 37.2007 21.3707 37.4973 20.625 37.4982ZM30 46.8732C29.4437 46.8732 28.9 46.7082 28.4375 46.3992C27.9749 46.0901 27.6145 45.6509 27.4016 45.137C27.1887 44.6231 27.133 44.0575 27.2415 43.512C27.3501 42.9664 27.6179 42.4653 28.0113 42.0719C28.4046 41.6786 28.9057 41.4107 29.4513 41.3022C29.9969 41.1937 30.5624 41.2494 31.0763 41.4623C31.5902 41.6751 32.0295 42.0356 32.3385 42.4981C32.6475 42.9606 32.8125 43.5044 32.8125 44.0607C32.8116 44.8063 32.5151 45.5212 31.9878 46.0485C31.4605 46.5757 30.7457 46.8723 30 46.8732ZM30 37.4982C29.4437 37.4982 28.9 37.3332 28.4375 37.0242C27.9749 36.7151 27.6145 36.2759 27.4016 35.762C27.1887 35.2481 27.133 34.6826 27.2415 34.137C27.3501 33.5914 27.6179 33.0903 28.0113 32.6969C28.4046 32.3036 28.9057 32.0357 29.4513 31.9272C29.9969 31.8187 30.5624 31.8744 31.0763 32.0873C31.5902 32.3001 32.0295 32.6606 32.3385 33.1231C32.6475 33.5856 32.8125 34.1294 32.8125 34.6857C32.8116 35.4313 32.5151 36.1462 31.9878 36.6735C31.4605 37.2007 30.7457 37.4973 30 37.4982ZM39.375 46.8732C38.8187 46.8732 38.275 46.7082 37.8125 46.3992C37.3499 46.0901 36.9895 45.6509 36.7766 45.137C36.5637 44.6231 36.508 44.0575 36.6165 43.512C36.7251 42.9664 36.9929 42.4653 37.3863 42.0719C37.7796 41.6786 38.2807 41.4107 38.8263 41.3022C39.3719 41.1937 39.9374 41.2494 40.4513 41.4623C40.9652 41.6751 41.4045 42.0356 41.7135 42.4981C42.0225 42.9606 42.1875 43.5044 42.1875 44.0607C42.1866 44.8063 41.8901 45.5212 41.3628 46.0485C40.8355 46.5757 40.1207 46.8723 39.375 46.8732ZM39.375 37.4982C38.8187 37.4982 38.275 37.3332 37.8125 37.0242C37.3499 36.7151 36.9895 36.2759 36.7766 35.762C36.5637 35.2481 36.508 34.6826 36.6165 34.137C36.7251 33.5914 36.9929 33.0903 37.3863 32.6969C37.7796 32.3036 38.2807 32.0357 38.8263 31.9272C39.3719 31.8187 39.9374 31.8744 40.4513 32.0873C40.9652 32.3001 41.4045 32.6606 41.7135 33.1231C42.0225 33.5856 42.1875 34.1294 42.1875 34.6857C42.1866 35.4313 41.8901 36.1462 41.3628 36.6735C40.8355 37.2007 40.1207 37.4973 39.375 37.4982ZM43.125 24.3732C43.125 24.6194 43.0765 24.8632 42.9823 25.0907C42.8881 25.3182 42.75 25.5249 42.5758 25.699C42.4017 25.8731 42.195 26.0112 41.9675 26.1055C41.7401 26.1997 41.4962 26.2482 41.25 26.2482H18.75C18.5038 26.2482 18.2599 26.1997 18.0325 26.1055C17.805 26.0112 17.5983 25.8731 17.4242 25.699C17.25 25.5249 17.1119 25.3182 17.0177 25.0907C16.9235 24.8632 16.875 24.6194 16.875 24.3732V14.9982C16.875 14.7519 16.9235 14.5081 17.0177 14.2806C17.1119 14.0531 17.25 13.8464 17.4242 13.6723C17.5983 13.4982 17.805 13.3601 18.0325 13.2659C18.2599 13.1717 18.5038 13.1232 18.75 13.1232H41.25C41.4962 13.1232 41.7401 13.1717 41.9675 13.2659C42.195 13.3601 42.4017 13.4982 42.5758 13.6723C42.75 13.8464 42.8881 14.0531 42.9823 14.2806C43.0765 14.5081 43.125 14.7519 43.125 14.9982V24.3732Z" fill="#9563FF"/>
</svg>
