<svg width="60" height="60" viewBox="0 0 60 60" fill="none" xmlns="http://www.w3.org/2000/svg">
<path d="M50.625 16.8753H42.4295C43.6498 15.3865 44.2509 13.4855 44.1084 11.5658C43.9659 9.64605 43.0907 7.85463 41.6639 6.56233C40.2372 5.27004 38.3681 4.57583 36.4437 4.62341C34.5193 4.67098 32.6868 5.4567 31.3257 6.81792C30.7828 7.38368 30.3351 8.03361 30 8.74247C29.6647 8.0336 29.217 7.38364 28.6741 6.81781C27.3129 5.45662 25.4805 4.67093 23.5561 4.62338C21.6317 4.57584 19.7626 5.27007 18.3359 6.56238C16.9092 7.85469 16.034 9.64612 15.8915 11.5658C15.749 13.4855 16.3502 15.3866 17.5705 16.8753H9.375C8.38078 16.8765 7.42761 17.2719 6.72459 17.9749C6.02158 18.6779 5.62613 19.6311 5.625 20.6253V28.1253C5.62613 29.1195 6.02158 30.0727 6.72459 30.7757C7.42761 31.4788 8.38078 31.8742 9.375 31.8753V46.8753C9.37614 47.8695 9.77159 48.8227 10.4746 49.5257C11.1776 50.2287 12.1308 50.6242 13.125 50.6253H46.875C47.8692 50.6242 48.8224 50.2287 49.5254 49.5257C50.2284 48.8227 50.6239 47.8695 50.625 46.8753V31.8753C51.6192 31.8742 52.5724 31.4788 53.2754 30.7757C53.9784 30.0727 54.3739 29.1195 54.375 28.1253V20.6253C54.3739 19.6311 53.9784 18.6779 53.2754 17.9749C52.5724 17.2719 51.6192 16.8765 50.625 16.8753ZM33.9773 9.46957C34.3255 9.12121 34.7389 8.84484 35.1939 8.65626C35.6489 8.46769 36.1366 8.37059 36.6291 8.37052C37.1217 8.37046 37.6094 8.46742 38.0645 8.65588C38.5195 8.84433 38.933 9.12058 39.2813 9.46886C39.6296 9.81713 39.9058 10.2306 40.0943 10.6857C40.2828 11.1407 40.3797 11.6285 40.3797 12.121C40.3796 12.6135 40.2826 13.1012 40.094 13.5563C39.9054 14.0113 39.6291 14.4247 39.2807 14.7729C38.1228 15.931 34.7747 16.5813 31.9549 16.7954C32.1691 13.9753 32.8194 10.6275 33.9773 9.46957ZM20.7191 9.46957C21.4229 8.76738 22.3765 8.37303 23.3708 8.37302C24.365 8.37301 25.3186 8.76734 26.0225 9.46952C27.1806 10.6276 27.8309 13.9757 28.0451 16.7953C25.2251 16.5812 21.8772 15.9309 20.7193 14.7729C20.0171 14.0691 19.6227 13.1155 19.6227 12.1213C19.6227 11.1271 20.0169 10.1735 20.7191 9.46957ZM50.625 28.1253H31.875V45.0003C31.875 45.4976 31.6775 45.9745 31.3258 46.3262C30.9742 46.6778 30.4973 46.8753 30 46.8753C29.5027 46.8753 29.0258 46.6778 28.6742 46.3262C28.3225 45.9745 28.125 45.4976 28.125 45.0003V28.1253H9.375V20.6253H28.125V28.1253H31.875V20.6253H50.625L50.6273 28.1252L50.625 28.1253Z" fill="#E83E5D"/>
</svg>
