<svg width="60" height="60" viewBox="0 0 60 60" fill="none" xmlns="http://www.w3.org/2000/svg">
<path d="M24.375 3.75H35.625C36.1223 3.75 36.5992 3.55246 36.9508 3.20083C37.3025 2.84919 37.5 2.37228 37.5 1.875C37.5 1.37772 37.3025 0.900806 36.9508 0.549175C36.5992 0.197544 36.1223 0 35.625 0L24.375 0C23.8777 0 23.4008 0.197544 23.0492 0.549175C22.6975 0.900806 22.5 1.37772 22.5 1.875C22.5 2.37228 22.6975 2.84919 23.0492 3.20083C23.4008 3.55246 23.8777 3.75 24.375 3.75Z" fill="#00A193"/>
<path d="M30 7.5C25.5499 7.5 21.1998 8.8196 17.4997 11.2919C13.7996 13.7643 10.9157 17.2783 9.21272 21.3896C7.50975 25.501 7.06417 30.025 7.93234 34.3895C8.80051 38.7541 10.9434 42.7632 14.0901 45.9099C17.2368 49.0566 21.2459 51.1995 25.6105 52.0677C29.9751 52.9358 34.4991 52.4903 38.6104 50.7873C42.7217 49.0843 46.2357 46.2004 48.7081 42.5003C51.1804 38.8002 52.5 34.4501 52.5 30C52.4933 24.0347 50.1206 18.3157 45.9025 14.0975C41.6844 9.87944 35.9653 7.50675 30 7.5ZM40.6066 22.045L31.3259 31.3258C31.1518 31.4999 30.9451 31.638 30.7176 31.7323C30.4902 31.8265 30.2463 31.875 30.0001 31.875C29.7539 31.8751 29.51 31.8266 29.2825 31.7323C29.055 31.6381 28.8483 31.5 28.6742 31.3259C28.5001 31.1518 28.362 30.9451 28.2677 30.7176C28.1735 30.4901 28.125 30.2463 28.125 30.0001C28.125 29.7538 28.1734 29.51 28.2677 29.2825C28.3619 29.055 28.5 28.8483 28.6741 28.6742L37.9549 19.3934C38.129 19.2193 38.3357 19.0812 38.5632 18.9869C38.7907 18.8927 39.0345 18.8442 39.2807 18.8442C39.527 18.8442 39.7708 18.8927 39.9983 18.9869C40.2258 19.0811 40.4325 19.2192 40.6066 19.3933C40.7807 19.5674 40.9188 19.7741 41.013 20.0016C41.1073 20.2291 41.1558 20.4729 41.1558 20.7191C41.1558 20.9654 41.1073 21.2092 41.0131 21.4367C40.9188 21.6642 40.7807 21.8709 40.6066 22.045H40.6066Z" fill="#00A193"/>
</svg>
