<svg width="60" height="60" viewBox="0 0 60 60" fill="none" xmlns="http://www.w3.org/2000/svg">
<path d="M51.7543 41.2358C50.3633 38.8415 48.7051 34.298 48.7051 26.25V24.5867C48.7051 14.2074 40.3784 5.70146 30.1435 5.62547C30.0956 5.62523 30.0482 5.625 30.0004 5.625C25.034 5.63146 20.2736 7.61051 16.7663 11.1268C13.259 14.6431 11.2922 19.4086 11.2985 24.375V26.25C11.2985 34.2975 9.63931 38.8408 8.24771 41.2349C7.91531 41.8043 7.73893 42.4513 7.73636 43.1106C7.73378 43.77 7.90511 44.4183 8.23305 44.9903C8.56099 45.5623 9.03396 46.0377 9.60426 46.3686C10.1746 46.6995 10.822 46.8742 11.4814 46.875H20.6259C20.6259 49.3614 21.6136 51.746 23.3717 53.5041C25.1299 55.2623 27.5145 56.25 30.0009 56.25C32.4873 56.25 34.8718 55.2623 36.63 53.5041C38.3881 51.746 39.3759 49.3614 39.3759 46.875H48.5204C49.1796 46.8742 49.827 46.6996 50.3972 46.3688C50.9675 46.0379 51.4404 45.5626 51.7683 44.9907C52.0963 44.4189 52.2677 43.7706 52.2652 43.1114C52.2627 42.4522 52.0865 41.8052 51.7543 41.2358ZM30.0009 52.5C28.5095 52.4983 27.0798 51.9051 26.0253 50.8506C24.9708 49.7961 24.3776 48.3663 24.3759 46.875H35.6259C35.6242 48.3663 35.031 49.7961 33.9765 50.8506C32.9219 51.9051 31.4922 52.4983 30.0009 52.5Z" fill="#F44F5A"/>
</svg>
