<svg width="632" height="632" viewBox="0 0 632 632" fill="none" xmlns="http://www.w3.org/2000/svg">
<circle cx="316" cy="316" r="316" fill="#F3F7F9"/>
<path d="M520.359 396.338L564.894 362.774L514.548 387.941L543.593 338.247L504.87 382.782L515.391 332.2L520.359 333.324L515.919 329.603L518.167 318.588L556.508 322.983L506.803 306.841L557.79 297.849H500.306L544.841 264.285L494.495 289.464L517.245 250.526L540.367 255.899L522.787 241.096L523.596 239.713L522.562 240.905L520.314 239.072L569.368 244.693C569.548 244.726 569.735 244.688 569.888 244.586C570.041 244.485 570.148 244.328 570.188 244.148C570.227 243.969 570.195 243.781 570.099 243.625C570.002 243.468 569.849 243.356 569.671 243.31L526.766 229.372L569.75 221.762C569.926 221.73 570.085 221.634 570.194 221.491C570.303 221.349 570.355 221.171 570.34 220.992C570.324 220.813 570.242 220.646 570.11 220.525C569.978 220.403 569.806 220.335 569.626 220.335H520.359L559.352 190.952C559.501 190.864 559.609 190.72 559.653 190.553C559.696 190.385 559.671 190.207 559.583 190.058C559.495 189.909 559.351 189.801 559.184 189.758C559.016 189.715 558.838 189.74 558.689 189.828L514.548 211.904L540.176 168.066C540.274 167.931 540.315 167.761 540.288 167.596C540.262 167.431 540.171 167.282 540.035 167.184C539.9 167.086 539.731 167.045 539.565 167.071C539.4 167.098 539.251 167.189 539.153 167.324L504.87 206.767L517.358 146.676C517.376 146.559 517.351 146.44 517.288 146.339C517.226 146.239 517.129 146.165 517.017 146.129C516.904 146.094 516.782 146.1 516.674 146.147C516.565 146.193 516.477 146.277 516.425 146.383L493.247 202.249L491.235 149.418C491.235 149.195 491.146 148.98 490.988 148.822C490.83 148.664 490.615 148.575 490.392 148.575C490.168 148.575 489.954 148.664 489.796 148.822C489.638 148.98 489.549 149.195 489.549 149.418L485.502 203.508L461.976 151.363C461.903 151.202 461.772 151.074 461.61 151.006C461.447 150.938 461.264 150.934 461.098 150.996C460.933 151.057 460.796 151.179 460.717 151.337C460.638 151.495 460.622 151.677 460.672 151.846L477.106 209.431L436.022 164.615L470.271 217.187L470.17 218.491L421.094 183.477L462.189 222.425L420.768 203.249C420.733 203.227 420.693 203.212 420.652 203.205C420.611 203.198 420.569 203.199 420.528 203.209C420.487 203.218 420.449 203.236 420.415 203.26C420.381 203.284 420.352 203.315 420.33 203.35C420.308 203.386 420.293 203.425 420.286 203.466C420.279 203.507 420.28 203.55 420.29 203.59C420.299 203.631 420.316 203.669 420.341 203.703C420.365 203.738 420.396 203.766 420.431 203.789L445.902 220.975L447.633 231.159L424.41 228.135C424.316 228.118 424.219 228.138 424.14 228.191C424.061 228.245 424.007 228.328 423.989 228.422C423.971 228.516 423.991 228.613 424.045 228.692C424.098 228.771 424.181 228.826 424.275 228.844L448.397 235.667L449.521 242.017L428.367 245.491L421.623 235.846L451.972 297.163L405.403 266.735L448.746 306.841L400.693 287.17L444.227 310.719L399.142 306.819L442.979 317.171L412.529 324.118L444.272 321.69L422.971 335.887L460.2 325.871L472.205 368.304C472.205 371.676 472.306 375.802 472.362 380.219L435.988 340.54L471.957 395.675L421.106 359.402L468.72 405.398L414.766 375.937L464.168 409.265L419.487 403.453L462.875 415.728L428.131 421.528L464.168 420.247L442.867 434.443L472.677 426.418C472.609 432.038 472.531 438.614 472.452 445.111C472.362 453.136 472.272 460.847 472.216 466.029H459.379C458.383 466.033 457.405 466.294 456.538 466.786C455.672 467.278 454.947 467.985 454.434 468.839L440.608 491.86C439.525 493.678 438.816 495.695 438.523 497.791C438.229 499.887 438.357 502.021 438.899 504.067L445.048 526.941C445.512 528.675 446.534 530.208 447.956 531.303C449.378 532.398 451.121 532.994 452.916 533H515.863C517.656 532.989 519.397 532.39 520.818 531.296C522.239 530.202 523.262 528.672 523.731 526.941L529.868 504.067C530.413 502.021 530.543 499.887 530.249 497.79C529.956 495.694 529.246 493.677 528.16 491.86L514.345 468.839C513.832 467.982 513.106 467.273 512.237 466.781C511.369 466.288 510.387 466.029 509.388 466.029H493.652C493.652 454.047 493.786 437.928 493.865 421.067L540.277 431.869L520.269 415.087L576.471 421.539L526.811 405.398L577.809 396.406L520.359 396.338ZM518.021 318.554L514.087 328.041L500.306 316.531L518.021 318.554ZM514.739 249.886L493.933 273.817C493.854 262.486 493.775 252.123 493.719 244.985L514.739 249.886ZM473.599 339.439C472.834 335.628 473.273 327.839 473.722 322.443L484.682 325.006C484.007 327.085 483.805 329.626 483.479 333.863C483.389 334.987 483.299 336.269 483.175 337.685C482.827 341.878 482.164 342.766 481.074 344.227C479.839 345.818 478.846 347.583 478.128 349.465C477.223 352.683 476.632 355.98 476.364 359.312L475.476 357.345C475.337 351.335 474.71 345.347 473.599 339.439ZM481.253 350.679C481.865 349.064 482.713 347.548 483.771 346.183C485.221 344.227 486.132 342.698 486.536 337.899C486.66 336.471 486.75 335.201 486.84 334.055C487.166 329.839 487.346 327.445 487.964 325.703L489.47 326.051L485.502 379.545L479.095 365.314C479.792 358.188 480.545 352.5 481.253 350.713V350.679ZM484.85 284.214L490.471 257.361C490.471 263.464 490.572 270.4 490.617 277.594L484.85 284.214ZM486.997 246.525L473.239 279.729L472.115 250.56L486.997 246.525ZM470.89 218.053L471.946 219.671L470.923 218.941L470.89 218.053ZM467.675 251.774L465.494 280.999L457.053 254.596L467.675 251.774ZM455.569 249.998L453.849 244.659L464.202 244.288L455.569 249.998ZM446.352 221.234L464.168 233.261L449.555 231.361L446.352 221.234ZM451.196 236.408L462.875 239.713L452.759 241.399L451.196 236.408ZM428.367 245.513L449.982 244.738L451.354 252.82L442.935 258.44L451.927 256.034L457.154 286.844L428.367 245.513ZM470.305 323.129C469.878 328.648 469.53 336.123 470.305 340.091C470.822 342.665 471.227 345.497 471.53 348.51L461.2 325.59L470.305 323.129ZM475.577 466.007C475.577 460.87 475.723 453.136 475.813 445.122C475.892 438.254 475.982 431.273 476.049 425.485L490.538 421.584C490.459 438.243 490.381 454.182 490.324 466.007H475.577ZM494.214 327.232L512.67 331.514L494.157 376.06C494.236 358.075 494.292 343.238 494.292 337.179C494.292 334.639 494.281 331.211 494.259 327.232H494.214Z" fill="#C7C7C7"/>
<path d="M445.79 143.495C469.69 143.495 489.065 124.119 489.065 100.219C489.065 76.3181 469.69 56.9429 445.79 56.9429C421.889 56.9429 402.514 76.3181 402.514 100.219C402.514 124.119 421.889 143.495 445.79 143.495Z" stroke="#263238" stroke-miterlimit="10" stroke-linecap="round"/>
<path d="M445.79 139.291C467.369 139.291 484.862 121.798 484.862 100.219C484.862 78.6401 467.369 61.147 445.79 61.147C424.211 61.147 406.718 78.6401 406.718 100.219C406.718 121.798 424.211 139.291 445.79 139.291Z" stroke="#263238" stroke-miterlimit="10" stroke-linecap="round"/>
<path d="M461.291 105.03L445.79 100.219L464.146 73.6125" stroke="#263238" stroke-miterlimit="10" stroke-linecap="round"/>
<path d="M445.79 102.411C447 102.411 447.981 101.429 447.981 100.219C447.981 99.0082 447 98.0269 445.79 98.0269C444.579 98.0269 443.598 99.0082 443.598 100.219C443.598 101.429 444.579 102.411 445.79 102.411Z" fill="#263238" stroke="#263238" stroke-miterlimit="10"/>
<path d="M430.671 88.2478C435.047 88.2478 438.595 84.6998 438.595 80.3232C438.595 75.9466 435.047 72.3987 430.671 72.3987C426.294 72.3987 422.746 75.9466 422.746 80.3232C422.746 84.6998 426.294 88.2478 430.671 88.2478Z" stroke="#263238" stroke-miterlimit="10" stroke-linecap="round"/>
<path d="M434.066 94.0364C434.066 94.3721 433.966 94.7003 433.779 94.9794C433.593 95.2585 433.328 95.4761 433.018 95.6045C432.708 95.733 432.366 95.7666 432.037 95.7011C431.708 95.6356 431.405 95.474 431.168 95.2366C430.931 94.9992 430.769 94.6968 430.704 94.3676C430.638 94.0383 430.672 93.697 430.8 93.3869C430.929 93.0768 431.146 92.8117 431.425 92.6252C431.704 92.4387 432.033 92.3391 432.368 92.3391C432.591 92.3391 432.812 92.383 433.018 92.4683C433.224 92.5536 433.411 92.6786 433.568 92.8362C433.726 92.9939 433.851 93.181 433.936 93.3869C434.022 93.5928 434.066 93.8135 434.066 94.0364V94.0364Z" stroke="#263238" stroke-miterlimit="10" stroke-linecap="round"/>
<path d="M82.1256 99.6567H305.148V532.449H68.8057V99.6567H75.4376" stroke="#263238" stroke-miterlimit="10"/>
<path d="M297.989 109.02H226.364V523.075H297.989V109.02Z" stroke="#263238" stroke-miterlimit="10"/>
<path d="M218.17 109.02H150.648V523.075H218.17V109.02Z" stroke="#263238" stroke-miterlimit="10"/>
<path d="M142.465 221.639V214.119" stroke="#263238" stroke-miterlimit="10"/>
<path d="M142.465 207.431V109.02H75.9658V523.075H142.465V230.833" stroke="#263238" stroke-miterlimit="10"/>
<path d="M181.729 532.539V272.592C181.729 271.245 181.994 269.911 182.51 268.666C183.026 267.422 183.782 266.291 184.735 265.339C185.688 264.387 186.82 263.632 188.065 263.117C189.31 262.603 190.644 262.339 191.991 262.34H359.8C362.519 262.34 365.127 263.42 367.049 265.343C368.972 267.265 370.052 269.873 370.052 272.592V532.134" stroke="#263238" stroke-width="4" stroke-linejoin="round"/>
<path d="M380.527 309.685L375.582 306.313C368.415 301.219 362.832 294.206 359.474 286.08L355.304 276.458H348.751L344.625 286.08C341.267 294.206 335.684 301.219 328.518 306.313L323.572 309.685C322.146 310.737 320.993 312.116 320.211 313.707C319.428 315.297 319.039 317.052 319.076 318.824H384.911C384.961 317.061 384.589 315.313 383.826 313.723C383.064 312.134 381.933 310.749 380.527 309.685ZM353.91 314.777H325.618C325.618 311.742 330.462 308.932 332.362 307.392L335.734 304.616C340.848 300.275 344.7 294.637 346.885 288.294L349.74 280.505H354.236L357.091 288.294C359.275 294.64 363.131 300.279 368.253 304.616L371.625 307.392C373.547 308.932 378.291 311.742 378.291 314.777H353.91Z" fill="white" stroke="#263238" stroke-linecap="round" stroke-linejoin="round"/>
<path d="M352.033 276.301V269.242C352.033 269.242 356.069 266.218 356.069 261.846C356.069 257.473 352.697 255.787 349.01 257.136" stroke="#263238" stroke-linecap="round" stroke-linejoin="round"/>
<path d="M333.228 299.029C333.228 299.029 340.725 307.673 350.156 307.819C360.16 307.977 371.917 299.22 371.917 299.22C374.598 301.534 377.518 303.553 380.629 305.245C385.867 308.1 389.318 312.282 392.06 319.532C395.129 327.614 401.884 349.589 401.884 349.589L382.416 350.533L385.08 394.708H320.312L324.696 349.746H305.846C305.846 349.746 312.107 320.049 314.973 314.339C317.839 308.629 333.228 299.029 333.228 299.029Z" fill="white" stroke="#263238" stroke-linecap="round" stroke-linejoin="round"/>
<path d="M324.695 349.701L325.684 326.096" stroke="#263238" stroke-linecap="round" stroke-linejoin="round"/>
<path d="M382.416 350.533L380.888 327.614" stroke="#263238" stroke-linecap="round" stroke-linejoin="round"/>
<path d="M370.445 309.685L365.499 306.313C358.333 301.219 352.75 294.206 349.392 286.08L345.267 276.458H338.713L334.588 286.08C331.234 294.208 325.65 301.222 318.481 306.313L313.535 309.685C312.109 310.737 310.956 312.116 310.173 313.707C309.391 315.297 309.002 317.052 309.039 318.824H374.874C374.918 317.058 374.54 315.306 373.769 313.717C372.999 312.127 371.859 310.745 370.445 309.685ZM343.828 314.777H315.536C315.536 311.742 320.38 308.932 322.28 307.392L325.708 304.616C330.822 300.275 334.674 294.637 336.859 288.294L339.714 280.505H344.21L347.065 288.294C349.25 294.64 353.106 300.279 358.227 304.616L361.599 307.392C363.521 308.932 368.265 311.742 368.265 314.777H343.828Z" fill="white" stroke="#263238" stroke-linecap="round" stroke-linejoin="round"/>
<path d="M341.949 276.301V269.242C341.949 269.242 345.985 266.218 345.985 261.846C345.985 257.473 342.613 255.787 338.926 257.136" stroke="#263238" stroke-linecap="round" stroke-linejoin="round"/>
<path d="M323.145 299.029C323.145 299.029 330.642 307.673 340.073 307.819C350.077 307.977 361.835 299.22 361.835 299.22C364.515 301.534 367.436 303.553 370.546 305.245C375.795 308.1 379.235 312.282 381.978 319.532C385.046 327.614 391.813 349.589 391.813 349.589L372.333 350.533L374.997 394.708H310.23L314.614 349.746H295.729C295.729 349.746 301.979 319.97 304.834 314.35C307.689 308.73 323.145 299.029 323.145 299.029Z" fill="#6B6B6B" stroke="#263238" stroke-linecap="round" stroke-linejoin="round"/>
<path d="M314.613 349.701L315.602 326.096" stroke="#263238" stroke-linecap="round" stroke-linejoin="round"/>
<path d="M372.333 350.533L370.805 327.614" stroke="#263238" stroke-linecap="round" stroke-linejoin="round"/>
<path d="M314.737 286.552L332.283 287.395V362.549H311.443L314.737 286.552Z" fill="white" stroke="#263238" stroke-linecap="round" stroke-linejoin="round"/>
<path d="M352.729 308.145L347.784 304.773C340.614 299.68 335.027 292.667 331.665 284.54L327.551 274.918H320.998L316.872 284.54C313.514 292.666 307.931 299.679 300.765 304.773L295.819 308.145C294.393 309.198 293.24 310.577 292.458 312.167C291.675 313.757 291.286 315.512 291.323 317.284H357.158C357.203 315.518 356.824 313.767 356.053 312.177C355.283 310.587 354.143 309.205 352.729 308.145ZM326.078 313.226H297.82C297.82 310.191 302.653 307.381 304.564 305.83L307.936 303.065C313.054 298.725 316.91 293.087 319.098 286.743L321.953 278.954H326.449L329.304 286.743C331.507 293.112 335.391 298.767 340.545 303.11L343.973 305.875C345.884 307.426 350.639 310.236 350.639 313.271L326.078 313.226Z" fill="white" stroke="#263238" stroke-linecap="round" stroke-linejoin="round"/>
<path d="M324.236 274.761V267.702C324.236 267.702 328.271 264.667 328.271 260.294C328.271 255.922 324.899 254.247 321.212 255.585" stroke="#263238" stroke-linecap="round" stroke-linejoin="round"/>
<path d="M314.737 286.552L322.346 353.624L331.699 284.54C331.699 284.54 347.626 300.839 352.864 303.649C358.102 306.459 362.868 310.326 364.296 317.936C365.724 325.546 373.288 401.756 373.288 401.756L355.663 402.712L357.282 445.864H286.163L290.446 400.902H273.776C273.776 400.902 284.253 318.52 287.108 312.799C289.963 307.077 314.737 286.552 314.737 286.552Z" fill="white" stroke="#263238" stroke-linecap="round" stroke-linejoin="round"/>
<path d="M314.737 286.552L324.089 358.087L321.841 361.065L301.001 299.299C301.001 299.299 307.599 288.688 314.737 286.552Z" fill="white" stroke="#263238" stroke-linecap="round" stroke-linejoin="round"/>
<path d="M331.699 284.54L318.919 378.96L347.908 298.613C347.908 298.613 331.576 282.955 331.699 284.54Z" fill="white" stroke="#263238" stroke-linecap="round" stroke-linejoin="round"/>
<path d="M287.108 312.743C287.108 312.743 273.495 378.915 270.517 394.551C267.538 410.186 266.021 435.478 266.021 435.478L292.065 436.219L299.506 324.601" fill="white"/>
<path d="M287.108 312.743C287.108 312.743 273.495 378.915 270.517 394.551C267.538 410.186 266.021 435.478 266.021 435.478L292.065 436.219L299.506 324.601" stroke="#263238" stroke-linecap="round" stroke-linejoin="round"/>
<path d="M362.565 312.743C362.565 312.743 376.177 378.915 379.156 394.551C382.135 410.186 383.652 435.478 383.652 435.478L357.608 436.219L350.167 324.601" fill="white"/>
<path d="M362.565 312.743C362.565 312.743 376.177 378.915 379.156 394.551C382.135 410.186 383.652 435.478 383.652 435.478L357.608 436.219L350.167 324.601" stroke="#263238" stroke-linecap="round" stroke-linejoin="round"/>
<path d="M318.885 378.915V446.639" stroke="#263238" stroke-linecap="round" stroke-linejoin="round"/>
<path d="M324.955 309.685L320.009 306.313C312.846 301.215 307.264 294.203 303.902 286.08L299.776 276.458H293.257L289.132 286.08C285.769 294.203 280.187 301.215 273.024 306.313L268.067 309.685C266.641 310.737 265.488 312.116 264.706 313.707C263.923 315.297 263.534 317.052 263.571 318.824H329.451C329.488 317.052 329.099 315.297 328.316 313.707C327.534 312.116 326.381 310.737 324.955 309.685ZM298.338 314.777H270.068C270.068 311.742 274.912 308.932 276.812 307.392L280.184 304.616C285.302 300.278 289.154 294.639 291.335 288.294L294.19 280.505H298.686L301.552 288.294C303.733 294.639 307.585 300.278 312.703 304.616L316.131 307.392C318.042 308.932 322.786 311.742 322.786 314.777H298.338Z" fill="white" stroke="#263238" stroke-linecap="round" stroke-linejoin="round"/>
<path d="M296.483 276.301V269.242C296.483 269.242 300.518 266.218 300.518 261.846C300.518 257.473 297.146 255.787 293.459 257.136" stroke="#263238" stroke-linecap="round" stroke-linejoin="round"/>
<path d="M286.984 288.092L294.605 310L303.924 286.08C303.924 286.08 319.851 302.379 325.089 305.189C330.328 307.999 335.082 311.855 336.51 319.476C337.937 327.097 345.558 403.285 345.558 403.285L327.945 404.24L329.529 447.336H258.411L262.694 402.374H246.035C246.035 402.374 256.511 319.97 259.366 314.35C262.221 308.73 286.984 288.092 286.984 288.092Z" fill="#263238" stroke="#263238" stroke-linecap="round" stroke-linejoin="round"/>
<path d="M279.847 293.33L284.129 316.666L293.178 301.435L287.468 285.237L279.847 293.33Z" fill="white" stroke="#263238" stroke-linecap="round" stroke-linejoin="round"/>
<path d="M303.924 286.08L296.033 301.907L304.126 317.621L310.803 291.431L303.924 286.08Z" fill="white" stroke="#263238" stroke-linecap="round" stroke-linejoin="round"/>
<path d="M327.944 404.296L324.134 331.908" stroke="#263238" stroke-linecap="round" stroke-linejoin="round"/>
<path d="M262.693 402.397L269.37 331.908" stroke="#263238" stroke-linecap="round" stroke-linejoin="round"/>
<path d="M299.181 309.685L294.224 306.313C287.061 301.215 281.479 294.203 278.116 286.08L273.991 276.458H267.449L263.324 286.08C259.961 294.203 254.379 301.215 247.216 306.313L242.27 309.685C240.843 310.736 239.689 312.115 238.906 313.705C238.124 315.296 237.736 317.051 237.774 318.824H303.598C303.644 317.059 303.267 315.308 302.499 313.718C301.73 312.129 300.593 310.746 299.181 309.685ZM272.563 314.777H244.271C244.271 311.742 249.105 308.932 251.015 307.392L254.444 304.616C259.562 300.278 263.414 294.639 265.594 288.294L268.449 280.505H272.946L275.801 288.294C277.981 294.639 281.833 300.278 286.951 304.616L290.38 307.392C292.29 308.932 297.034 311.742 297.034 314.777H272.563Z" fill="white" stroke="#263238" stroke-linecap="round" stroke-linejoin="round"/>
<path d="M270.685 276.301V269.242C270.685 269.242 274.721 266.218 274.721 261.846C274.721 257.473 271.349 255.787 267.65 257.136" stroke="#263238" stroke-linecap="round" stroke-linejoin="round"/>
<path d="M261.177 288.092L268.753 310L278.071 286.08C278.071 286.08 293.999 302.379 299.237 305.189C304.475 307.999 309.241 311.855 310.668 319.476C312.096 327.097 319.661 403.285 319.661 403.285L302.137 404.274L303.733 447.37H232.603L236.897 402.408H220.228C220.228 402.408 230.704 319.97 233.559 314.35C236.414 308.73 261.177 288.092 261.177 288.092Z" fill="#6B6B6B" stroke="#263238" stroke-linecap="round" stroke-linejoin="round"/>
<path d="M254.038 293.33L258.321 316.666L267.369 301.435L261.659 285.237L254.038 293.33Z" fill="white" stroke="#263238" stroke-linecap="round" stroke-linejoin="round"/>
<path d="M278.115 286.08L270.225 301.907L278.329 317.621L284.995 291.431L278.115 286.08Z" fill="white" stroke="#263238" stroke-linecap="round" stroke-linejoin="round"/>
<path d="M302.137 404.296L298.326 331.908" stroke="#263238" stroke-linecap="round" stroke-linejoin="round"/>
<path d="M236.896 402.397L243.562 331.908" stroke="#263238" stroke-linecap="round" stroke-linejoin="round"/>
<path d="M275.384 309.685L270.438 306.313C263.272 301.219 257.689 294.206 254.33 286.08L250.205 276.458H243.652L239.527 286.08C236.168 294.206 230.585 301.219 223.419 306.313L218.473 309.685C217.047 310.737 215.894 312.116 215.112 313.707C214.33 315.297 213.94 317.052 213.977 318.824H279.812C279.857 317.058 279.478 315.306 278.708 313.717C277.937 312.127 276.797 310.745 275.384 309.685ZM248.766 314.777H220.474C220.474 311.742 225.307 308.932 227.218 307.392L230.647 304.616C235.753 300.272 239.596 294.634 241.775 288.294L244.63 280.505H249.126L251.981 288.294C254.165 294.64 258.022 300.279 263.143 304.616L266.515 307.392C268.437 308.932 273.181 311.742 273.181 314.777H248.766Z" fill="white" stroke="#263238" stroke-linecap="round" stroke-linejoin="round"/>
<path d="M246.89 276.301V269.242C246.89 269.242 250.925 266.218 250.925 261.846C250.925 257.473 247.553 255.787 243.866 257.136" stroke="#263238" stroke-linecap="round" stroke-linejoin="round"/>
<path d="M228.085 299.029C228.085 299.029 235.582 307.673 245.013 307.819C255.017 307.977 266.774 299.22 266.774 299.22C269.458 301.534 272.383 303.554 275.497 305.245C280.735 308.1 284.186 312.282 286.928 319.532C289.997 327.614 296.753 349.589 296.753 349.589L277.284 350.533L279.948 394.708H215.169L219.553 349.746H200.646C200.646 349.746 206.93 319.97 209.774 314.35C212.618 308.73 228.085 299.029 228.085 299.029Z" fill="#A1A1A1" stroke="#263238" stroke-linecap="round" stroke-linejoin="round"/>
<path d="M219.553 349.701L220.542 326.096" stroke="#263238" stroke-linecap="round" stroke-linejoin="round"/>
<path d="M277.273 350.533L275.744 327.614" stroke="#263238" stroke-linecap="round" stroke-linejoin="round"/>
<path d="M257.579 309.685L252.633 306.313C245.467 301.219 239.884 294.206 236.526 286.08L232.4 276.458H225.847L221.722 286.08C218.364 294.206 212.781 301.219 205.614 306.313L200.668 309.685C199.242 310.737 198.09 312.116 197.307 313.707C196.525 315.297 196.136 317.052 196.172 318.824H262.008C262.052 317.058 261.673 315.306 260.903 313.717C260.132 312.127 258.993 310.745 257.579 309.685ZM230.962 314.777H202.669C202.669 311.742 207.503 308.932 209.414 307.392L212.786 304.616C217.907 300.279 221.763 294.64 223.948 288.294L226.803 280.505H231.299L234.154 288.294C236.339 294.637 240.19 300.275 245.304 304.616L248.733 307.392C250.644 308.932 255.398 311.742 255.398 314.777H230.962Z" fill="white" stroke="#263238" stroke-linecap="round" stroke-linejoin="round"/>
<path d="M229.084 276.301V269.242C229.084 269.242 233.12 266.218 233.12 261.846C233.12 257.473 229.747 255.787 226.061 257.136" stroke="#263238" stroke-linecap="round" stroke-linejoin="round"/>
<path d="M210.301 299.029C210.301 299.029 217.799 307.673 227.229 307.819C237.234 307.977 248.991 299.22 248.991 299.22C251.672 301.534 254.592 303.553 257.702 305.245C262.941 308.1 266.38 312.282 269.134 319.532C272.203 327.614 278.958 349.589 278.958 349.589L259.49 350.533L262.154 394.708H197.364L201.747 349.746H182.841C182.841 349.746 189.102 320.049 191.957 314.339C194.812 308.629 210.301 299.029 210.301 299.029Z" fill="white" stroke="#263238" stroke-linecap="round" stroke-linejoin="round"/>
<path d="M201.748 349.701L202.737 326.096" stroke="#263238" stroke-linecap="round" stroke-linejoin="round"/>
<path d="M259.467 350.533L257.938 327.614" stroke="#263238" stroke-linecap="round" stroke-linejoin="round"/>
<path d="M276.62 532.539V272.592C276.62 271.245 276.354 269.911 275.839 268.666C275.323 267.422 274.567 266.291 273.613 265.339C272.66 264.387 271.529 263.632 270.284 263.117C269.039 262.603 267.705 262.339 266.357 262.34H98.5482C95.8294 262.34 93.2219 263.42 91.2994 265.343C89.3769 267.265 88.2969 269.873 88.2969 272.592V532.134" stroke="#263238" stroke-width="4" stroke-linejoin="round"/>
<path d="M77.7876 309.685L82.7335 306.313C89.8997 301.219 95.4829 294.206 98.8411 286.08L102.966 276.458H109.52L113.634 286.08C116.992 294.206 122.575 301.219 129.741 306.313L134.687 309.685C136.113 310.737 137.266 312.116 138.048 313.707C138.831 315.297 139.22 317.052 139.183 318.824H73.3252C73.2846 317.055 73.6687 315.302 74.4451 313.712C75.2215 312.122 76.3677 310.741 77.7876 309.685ZM104.405 314.777H132.742C132.742 311.742 127.898 308.932 125.998 307.392L122.626 304.616C117.479 300.286 113.595 294.647 111.385 288.294L108.53 280.505H104.034L101.179 288.294C98.9947 294.64 95.1385 300.279 90.0173 304.616L86.6452 307.392C84.723 308.932 79.9795 311.742 79.9795 314.777H104.405Z" fill="white" stroke="#263238" stroke-linecap="round" stroke-linejoin="round"/>
<path d="M106.282 276.301V269.242C106.282 269.242 102.247 266.218 102.247 261.846C102.247 257.473 105.619 255.787 109.306 257.136" stroke="#263238" stroke-linecap="round" stroke-linejoin="round"/>
<path d="M125.088 299.029C125.088 299.029 117.59 307.673 108.159 307.819C98.1554 307.977 86.3978 299.22 86.3978 299.22C83.7101 301.535 80.7821 303.555 77.664 305.245C72.4259 308.1 68.9751 312.282 66.2324 319.532C63.1637 327.614 56.4082 349.589 56.4082 349.589L75.8767 350.533L73.2127 394.708H138.003L133.619 349.746H152.526C152.526 349.746 146.231 319.97 143.398 314.35C140.566 308.73 125.088 299.029 125.088 299.029Z" fill="white" stroke="#263238" stroke-linecap="round" stroke-linejoin="round"/>
<path d="M133.619 349.701L132.63 326.096" stroke="#263238" stroke-linecap="round" stroke-linejoin="round"/>
<path d="M75.8994 350.533L77.4281 327.614" stroke="#263238" stroke-linecap="round" stroke-linejoin="round"/>
<path d="M87.8707 309.685L92.8165 306.313C99.9827 301.219 105.566 294.206 108.924 286.08L113.049 276.458H119.603L123.75 286.08C127.108 294.206 132.692 301.219 139.858 306.313L144.804 309.685C146.23 310.737 147.383 312.116 148.165 313.707C148.947 315.297 149.337 317.052 149.3 318.824H83.4082C83.3676 317.055 83.7517 315.302 84.5281 313.712C85.3045 312.122 86.4507 310.741 87.8707 309.685ZM114.488 314.777H142.78C142.78 311.742 137.936 308.932 136.036 307.392L132.664 304.616C127.546 300.276 123.69 294.638 121.502 288.294L118.647 280.505H114.151L111.296 288.294C109.111 294.64 105.255 300.279 100.134 304.616L96.7619 307.392C94.8398 308.932 90.0963 311.742 90.0963 314.777H114.488Z" fill="white" stroke="#263238" stroke-linecap="round" stroke-linejoin="round"/>
<path d="M116.364 276.301V269.242C116.364 269.242 112.329 266.218 112.329 261.846C112.329 257.473 115.701 255.787 119.388 257.136" stroke="#263238" stroke-linecap="round" stroke-linejoin="round"/>
<path d="M135.171 299.029C135.171 299.029 127.673 307.673 118.242 307.819C108.238 307.977 96.4808 299.22 96.4808 299.22C93.8037 301.533 90.8871 303.553 87.7807 305.245C82.5314 308.1 79.0918 312.282 76.3491 319.532C73.2804 327.614 66.5137 349.589 66.5137 349.589L85.9934 350.533L83.2845 394.708H148.052L143.668 349.746H162.575C162.575 349.746 156.348 319.97 153.481 314.35C150.615 308.73 135.171 299.029 135.171 299.029Z" fill="#6B6B6B" stroke="#263238" stroke-linecap="round" stroke-linejoin="round"/>
<path d="M143.702 349.701L142.713 326.096" stroke="#263238" stroke-linecap="round" stroke-linejoin="round"/>
<path d="M85.9824 350.533L87.5111 327.614" stroke="#263238" stroke-linecap="round" stroke-linejoin="round"/>
<path d="M143.579 286.552L126.032 287.395V362.549H146.872L143.579 286.552Z" fill="white" stroke="#263238" stroke-linecap="round" stroke-linejoin="round"/>
<path d="M105.585 308.145L110.531 304.773C117.701 299.68 123.288 292.667 126.65 284.54L130.764 274.918H137.317L141.443 284.54C144.801 292.666 150.384 299.679 157.55 304.773L162.496 308.145C163.922 309.198 165.075 310.577 165.857 312.167C166.64 313.757 167.029 315.512 166.992 317.284H101.123C101.082 315.515 101.467 313.762 102.243 312.172C103.019 310.582 104.166 309.201 105.585 308.145ZM132.203 313.226H160.495C160.495 310.191 155.662 307.381 153.751 305.83L150.379 303.065C145.261 298.725 141.405 293.087 139.217 286.743L136.362 278.954H131.866L129.011 286.743C126.808 293.112 122.924 298.767 117.77 303.11L114.342 305.875C112.431 307.426 107.676 310.236 107.676 313.271L132.203 313.226Z" fill="white" stroke="#263238" stroke-linecap="round" stroke-linejoin="round"/>
<path d="M134.08 274.761V267.702C134.08 267.702 130.045 264.667 130.045 260.294C130.045 255.922 133.417 254.247 137.104 255.585" stroke="#263238" stroke-linecap="round" stroke-linejoin="round"/>
<path d="M143.578 286.552L135.968 353.624L126.649 284.54C126.649 284.54 110.722 300.839 105.484 303.649C100.245 306.459 95.4795 310.326 94.052 317.936C92.6244 325.546 85.0596 401.756 85.0596 401.756L102.685 402.712L101.032 445.864H172.151L167.868 400.902H184.538C184.538 400.902 174.062 318.52 171.207 312.799C168.352 307.077 143.578 286.552 143.578 286.552Z" fill="white" stroke="#263238" stroke-linecap="round" stroke-linejoin="round"/>
<path d="M143.578 286.552L134.226 358.087L136.474 361.065L157.314 299.299C157.314 299.299 150.727 288.688 143.578 286.552Z" fill="white" stroke="#263238" stroke-linecap="round" stroke-linejoin="round"/>
<path d="M126.65 284.54L139.43 378.96L110.407 298.613C110.407 298.613 126.74 282.955 126.65 284.54Z" fill="white" stroke="#263238" stroke-linecap="round" stroke-linejoin="round"/>
<path d="M171.208 312.743C171.208 312.743 184.82 378.915 187.799 394.551C190.778 410.186 192.295 435.478 192.295 435.478L166.251 436.219L158.81 324.601" fill="white"/>
<path d="M171.208 312.743C171.208 312.743 184.82 378.915 187.799 394.551C190.778 410.186 192.295 435.478 192.295 435.478L166.251 436.219L158.81 324.601" stroke="#263238" stroke-linecap="round" stroke-linejoin="round"/>
<path d="M95.7502 312.743C95.7502 312.743 82.1605 378.915 79.1593 394.551C76.1581 410.186 74.6631 435.478 74.6631 435.478L100.707 436.219L108.148 324.601" fill="white"/>
<path d="M95.7502 312.743C95.7502 312.743 82.1605 378.915 79.1593 394.551C76.1581 410.186 74.6631 435.478 74.6631 435.478L100.707 436.219L108.148 324.601" stroke="#263238" stroke-linecap="round" stroke-linejoin="round"/>
<path d="M139.431 378.915V446.639" stroke="#263238" stroke-linecap="round" stroke-linejoin="round"/>
<path d="M133.338 309.685L138.284 306.313C145.447 301.215 151.029 294.203 154.392 286.08L158.517 276.458H165.059L169.184 286.08C172.547 294.207 178.134 301.22 185.303 306.313L190.249 309.685C191.675 310.737 192.828 312.116 193.61 313.707C194.393 315.297 194.782 317.052 194.745 318.824H128.876C128.835 317.055 129.219 315.302 129.996 313.712C130.772 312.122 131.918 310.741 133.338 309.685ZM159.956 314.777H188.248C188.248 311.742 183.404 308.932 181.504 307.392L178.076 304.616C172.961 300.275 169.11 294.637 166.925 288.294L164.07 280.505H159.574L156.707 288.294C154.527 294.639 150.675 300.278 145.557 304.616L142.185 307.392C140.274 308.932 135.53 311.742 135.53 314.777H159.956Z" fill="white" stroke="#263238" stroke-linecap="round" stroke-linejoin="round"/>
<path d="M161.833 276.301V269.242C161.833 269.242 157.798 266.218 157.798 261.846C157.798 257.473 161.17 255.787 164.857 257.136" stroke="#263238" stroke-linecap="round" stroke-linejoin="round"/>
<path d="M171.331 288.092L163.71 310L154.392 286.08C154.392 286.08 138.464 302.379 133.226 305.189C127.988 307.999 123.233 311.855 121.806 319.476C120.378 327.097 112.813 403.285 112.813 403.285L130.427 404.24L128.842 447.336H199.961L195.678 402.374H212.348C212.348 402.374 201.804 319.97 198.949 314.35C196.094 308.73 171.331 288.092 171.331 288.092Z" fill="#263238" stroke="#263238" stroke-linecap="round" stroke-linejoin="round"/>
<path d="M178.469 293.33L174.186 316.666L165.138 301.435L170.859 285.237L178.469 293.33Z" fill="white" stroke="#263238" stroke-linecap="round" stroke-linejoin="round"/>
<path d="M154.392 286.08L162.283 301.907L154.19 317.621L147.513 291.431L154.392 286.08Z" fill="white" stroke="#263238" stroke-linecap="round" stroke-linejoin="round"/>
<path d="M130.371 404.296L134.182 331.908" stroke="#263238" stroke-linecap="round" stroke-linejoin="round"/>
<path d="M195.621 402.397L188.944 331.908" stroke="#263238" stroke-linecap="round" stroke-linejoin="round"/>
<path d="M159.135 309.685L164.092 306.313C171.255 301.215 176.838 294.203 180.2 286.08L184.325 276.458H190.867L194.992 286.08C198.355 294.203 203.937 301.215 211.1 306.313L216.046 309.685C217.473 310.736 218.627 312.115 219.41 313.705C220.192 315.296 220.581 317.051 220.542 318.824H154.673C154.632 317.055 155.016 315.302 155.793 313.712C156.569 312.122 157.715 310.741 159.135 309.685ZM185.753 314.777H214.045C214.045 311.742 209.212 308.932 207.301 307.392L203.872 304.616C198.754 300.278 194.902 294.639 192.722 288.294L189.867 280.505H185.371L182.516 288.294C180.335 294.639 176.483 300.278 171.365 304.616L167.993 307.392C166.082 308.932 161.338 311.742 161.338 314.777H185.753Z" fill="white" stroke="#263238" stroke-linecap="round" stroke-linejoin="round"/>
<path d="M187.629 276.301V269.242C187.629 269.242 183.594 266.218 183.594 261.846C183.594 257.473 186.966 255.787 190.664 257.136" stroke="#263238" stroke-linecap="round" stroke-linejoin="round"/>
<path d="M197.14 288.092L189.518 310L180.2 286.08C180.2 286.08 164.272 302.379 159.034 305.189C153.796 307.999 149.03 311.855 147.603 319.476C146.175 327.097 138.61 403.285 138.61 403.285L156.235 404.24L154.639 447.336H225.769L221.475 402.374H238.145C238.145 402.374 227.613 319.97 224.757 314.35C221.902 308.73 197.14 288.092 197.14 288.092Z" fill="#6B6B6B" stroke="#263238" stroke-linecap="round" stroke-linejoin="round"/>
<path d="M204.278 293.33L199.995 316.666L190.946 301.435L196.656 285.237L204.278 293.33Z" fill="white" stroke="#263238" stroke-linecap="round" stroke-linejoin="round"/>
<path d="M180.199 286.08L188.09 301.907L179.986 317.621L173.32 291.431L180.199 286.08Z" fill="white" stroke="#263238" stroke-linecap="round" stroke-linejoin="round"/>
<path d="M156.179 404.296L159.989 331.908" stroke="#263238" stroke-linecap="round" stroke-linejoin="round"/>
<path d="M221.419 402.397L214.753 331.908" stroke="#263238" stroke-linecap="round" stroke-linejoin="round"/>
<path d="M182.931 309.685L187.877 306.313C195.043 301.219 200.626 294.206 203.985 286.08L208.11 276.458H214.663L218.788 286.08C222.147 294.206 227.73 301.219 234.896 306.313L239.842 309.685C241.268 310.737 242.421 312.116 243.203 313.707C243.985 315.297 244.375 317.052 244.338 318.824H178.469C178.428 317.055 178.812 315.302 179.589 313.712C180.365 312.122 181.511 310.741 182.931 309.685ZM209.549 314.777H237.841C237.841 311.742 233.008 308.932 231.097 307.392L227.668 304.616C222.554 300.275 218.703 294.637 216.518 288.294L213.674 280.505H209.178L206.323 288.294C204.138 294.64 200.282 300.279 195.161 304.616L191.789 307.392C189.867 308.932 185.123 311.742 185.123 314.777H209.549Z" fill="white" stroke="#263238" stroke-linecap="round" stroke-linejoin="round"/>
<path d="M211.426 276.301V269.242C211.426 269.242 207.391 266.218 207.391 261.846C207.391 257.473 210.763 255.787 214.45 257.136" stroke="#263238" stroke-linecap="round" stroke-linejoin="round"/>
<path d="M230.231 299.029C230.231 299.029 222.734 307.673 213.303 307.819C203.299 307.977 191.541 299.22 191.541 299.22C188.861 301.534 185.94 303.553 182.83 305.245C177.592 308.1 174.141 312.282 171.398 319.532C168.33 327.614 161.574 349.589 161.574 349.589L181.043 350.533L178.379 394.708H243.146L238.763 349.746H257.669C257.669 349.746 251.408 319.97 248.519 314.35C245.631 308.73 230.231 299.029 230.231 299.029Z" fill="#A1A1A1" stroke="#263238" stroke-linecap="round" stroke-linejoin="round"/>
<path d="M238.763 349.701L237.773 326.096" stroke="#263238" stroke-linecap="round" stroke-linejoin="round"/>
<path d="M181.043 350.533L182.572 327.614" stroke="#263238" stroke-linecap="round" stroke-linejoin="round"/>
<path d="M200.736 309.685L205.682 306.313C212.848 301.219 218.431 294.206 221.789 286.08L225.915 276.458H232.468L236.593 286.08C239.951 294.206 245.534 301.219 252.701 306.313L257.646 309.685C259.073 310.737 260.225 312.116 261.008 313.707C261.79 315.297 262.179 317.052 262.143 318.824H196.273C196.233 317.055 196.617 315.302 197.393 313.712C198.17 312.122 199.316 310.741 200.736 309.685ZM227.353 314.777H255.646C255.646 311.742 250.812 308.932 248.901 307.392L245.529 304.616C240.408 300.279 236.552 294.64 234.367 288.294L231.512 280.505H227.016L224.161 288.294C221.976 294.637 218.125 300.275 213.01 304.616L209.582 307.392C207.671 308.932 202.917 311.742 202.917 314.777H227.353Z" fill="white" stroke="#263238" stroke-linecap="round" stroke-linejoin="round"/>
<path d="M229.231 276.301V269.242C229.231 269.242 225.195 266.218 225.195 261.846C225.195 257.473 228.567 255.787 232.254 257.136" stroke="#263238" stroke-linecap="round" stroke-linejoin="round"/>
<path d="M248.036 299.029C248.036 299.029 240.538 307.673 231.108 307.819C221.104 307.977 209.346 299.22 209.346 299.22C206.665 301.534 203.745 303.553 200.635 305.245C195.397 308.1 191.957 312.282 189.203 319.532C186.146 327.614 179.379 349.589 179.379 349.589L198.847 350.533L196.183 394.708H260.951L256.567 349.746H275.496C275.496 349.746 269.213 319.97 266.358 314.35C263.503 308.73 248.036 299.029 248.036 299.029Z" fill="white" stroke="#263238" stroke-linecap="round" stroke-linejoin="round"/>
<path d="M256.567 349.701L255.578 326.096" stroke="#263238" stroke-linecap="round" stroke-linejoin="round"/>
<path d="M198.848 350.533L200.376 327.614" stroke="#263238" stroke-linecap="round" stroke-linejoin="round"/>
<path d="M346.839 316.531C346.839 316.531 344.535 359.323 345.524 370.485C346.513 381.647 349.807 399.126 350.133 403.734C350.459 408.343 354.089 420.516 356.056 428.464C358.024 436.411 371.861 476.854 374.817 484.419C377.773 491.983 377.987 514.228 377.987 514.228C377.987 514.228 364.813 524.761 360.541 527.065C356.27 529.369 354.28 528.38 354.921 531.348C355.562 534.315 378.29 531.674 383.562 531.674C388.834 531.674 396.725 532.663 397.05 529.043C397.376 525.424 393.105 513.902 392.116 508.631C391.127 503.359 390.924 478.821 389.935 464.006C388.946 449.191 388.957 438.67 384.012 426.159C379.066 413.649 374.142 398.834 374.142 398.834L387.327 326.715L346.839 316.531Z" fill="white" stroke="#263238" stroke-linecap="round" stroke-linejoin="round"/>
<path d="M377.065 504.123C376.447 498.908 373.861 488.645 372.76 483.373C371.085 475.415 358.035 436.354 356.056 428.452C354.078 420.55 350.436 408.366 350.133 403.723C349.829 399.081 346.513 381.669 345.524 370.474C344.535 359.278 346.839 316.52 346.839 316.52L387.305 326.726L374.142 398.811C374.142 398.811 379.077 413.626 384.012 426.137C388.946 438.647 388.957 449.18 389.935 463.983C390.7 475.426 390.677 494.603 391.441 502.988C386.829 504.607 381.874 504.998 377.065 504.123Z" fill="#263238" stroke="#263238" stroke-linecap="round" stroke-linejoin="round"/>
<path d="M354.944 531.291C354.281 528.324 356.259 529.313 360.564 527.009C363.835 525.255 372.277 518.691 376.087 515.69C377.275 516.025 378.307 516.769 378.998 517.792C379.693 518.926 380.244 520.142 380.64 521.411L395.095 519.309C396.219 523.333 397.264 527.177 397.096 528.987C396.77 532.607 388.868 531.617 383.607 531.617C378.347 531.617 355.596 534.293 354.944 531.291Z" fill="#666666" stroke="#263238" stroke-linecap="round" stroke-linejoin="round"/>
<path d="M417.609 321.802C417.609 321.802 415.305 342.541 407.74 361.301C400.175 380.062 392.858 406.938 392.858 406.938C392.858 406.938 406.47 422.618 409.438 436.77C412.405 450.922 413.934 476.842 414.316 480.125C414.698 483.407 417.609 494.614 422.184 499.233C426.759 503.853 430.412 504.854 428.445 508.451C426.478 512.048 415.609 525.896 413.63 528.2C411.652 530.505 403.424 532.146 399.805 532.146C396.185 532.146 398.489 532.146 400.131 526.525C401.772 520.905 403.75 505.461 403.75 500.526C403.75 495.592 397.826 477.157 391.251 465.962C384.675 454.766 374.783 424.484 371.827 417.245C368.871 410.007 364.914 404.083 364.914 399.474C364.914 394.866 368.533 350.758 369.197 342.856C369.86 334.954 370.838 326.074 370.838 326.074L418.565 317.509L417.609 321.802Z" fill="white" stroke="#263238" stroke-linecap="round" stroke-linejoin="round"/>
<path d="M399.838 532.135C396.219 532.135 398.523 532.135 400.164 526.514C401.626 521.557 403.346 508.867 403.716 502.595C404.706 501.74 408.426 498.717 410.697 499.852C412.262 500.635 413.618 501.78 414.653 503.19L420.667 497.356C421.134 498.025 421.653 498.657 422.218 499.245C426.827 503.853 430.446 504.865 428.479 508.462C426.512 512.059 415.643 525.907 413.664 528.212C411.686 530.516 403.458 532.135 399.838 532.135Z" fill="#666666" stroke="#263238" stroke-linecap="round" stroke-linejoin="round"/>
<path d="M369.23 342.867C369.882 334.999 370.871 326.085 370.871 326.085L421.892 317.003L423.016 324.871C423.016 324.871 422.173 339.214 414.608 357.986C407.043 376.757 392.869 406.949 392.869 406.949C392.869 406.949 406.481 422.63 409.449 436.782C412.416 450.933 413.945 476.854 414.327 480.136C414.76 482.977 415.464 485.77 416.429 488.477C412.152 491.06 407.352 492.658 402.379 493.153C400.232 485.284 395.927 473.864 391.295 465.984C384.709 454.744 374.828 424.507 371.872 417.268C368.916 410.029 364.959 404.105 364.959 399.497C364.959 394.888 368.567 350.769 369.23 342.867Z" fill="#263238" stroke="#263238" stroke-linecap="round" stroke-linejoin="round"/>
<path d="M384.315 452.226C378.594 437.894 369.871 421.877 366.994 410.917C363.014 395.821 369.242 342.867 369.242 342.867" stroke="#7D7D7D" stroke-linecap="round" stroke-linejoin="round"/>
<path d="M387.9 461.241L386.102 456.745" stroke="#7D7D7D" stroke-linecap="round" stroke-linejoin="round"/>
<path d="M292.211 201.439C292.211 201.439 283.915 197.19 281.87 196.617C279.824 196.044 278.644 197.921 279.442 198.461C280.24 199 281.544 200.001 281.544 200.001C281.544 200.001 277.778 199.888 278.7 201.125L280.543 203.541C280.543 203.541 277.171 204.182 278.037 205.677C278.831 206.729 279.948 207.491 281.218 207.846C281.218 207.846 277.789 208.779 279.307 210.151C280.824 211.522 285.332 211.275 285.332 211.275C286.549 213.621 288.214 215.706 290.233 217.412C292.326 218.946 294.805 219.869 297.393 220.076L302.046 224.876L308.274 217.457L292.211 201.439Z" fill="white" stroke="#263238" stroke-linecap="round" stroke-linejoin="round"/>
<path d="M222.969 195.01L229.117 192.065C238.042 187.661 245.545 180.832 250.766 172.36L257.129 162.323L257.826 162.435L263.772 163.39L264.457 163.503L267.346 175.035C269.657 184.723 274.651 193.562 281.757 200.54L286.736 205.317C288.139 206.756 289.178 208.51 289.764 210.432C290.351 212.355 290.469 214.39 290.108 216.367L256.207 210.904L250.261 209.948L216.359 204.486C216.621 202.492 217.358 200.591 218.508 198.942C219.659 197.292 221.188 195.944 222.969 195.01ZM251.857 205.508L255.982 206.172L283.555 210.668C284.095 207.296 279.182 203.249 277.317 201.17L273.944 197.449C268.996 191.664 265.699 184.651 264.401 177.149L262.603 167.909L262.119 167.842L258.005 167.178L257.511 167.1L252.913 175.305C249.32 182.019 243.985 187.641 237.469 191.581L233.141 194.066C230.713 195.448 224.891 197.741 224.34 201.136L251.857 205.508Z" fill="white" stroke="#263238" stroke-linecap="round" stroke-linejoin="round"/>
<path d="M260.883 162.75L262.164 154.881C262.164 154.881 258.185 150.767 258.972 145.889C259.759 141.01 263.839 139.707 267.74 141.887" stroke="#263238" stroke-linecap="round" stroke-linejoin="round"/>
<path d="M213.482 240.421L200.601 237.297C200.601 237.297 203.377 212.444 208.267 203.946C212.65 196.325 217.259 192.256 223.644 190.008C227.435 188.676 231.072 186.939 234.491 184.826C234.491 184.826 246.08 196.763 257.32 198.393C267.909 199.922 277.868 191.593 277.868 191.593C277.868 191.593 293.458 205.081 295.628 211.994C297.797 218.907 299.461 253.303 299.461 253.303L278.284 249.931L284.32 301.131L283.758 301.03L284.32 302.446C284.32 302.446 277.497 299.074 264.289 300.367C251.082 301.66 236.244 303.986 229.972 302.345C223.7 300.704 204.276 293.353 204.276 293.353L213.482 240.421Z" fill="#009C8E" stroke="#263238" stroke-linecap="round" stroke-linejoin="round"/>
<path d="M278.284 249.897L276.834 238.623" stroke="#263238" stroke-linecap="round" stroke-linejoin="round"/>
<path d="M213.482 240.421L218.664 213.219" stroke="#263238" stroke-linecap="round" stroke-linejoin="round"/>
<path d="M233.277 189.12C232.399 194.697 231.955 200.334 231.95 205.981" stroke="#263238" stroke-linecap="round" stroke-linejoin="round"/>
<path d="M230.636 189.783C229.685 192.904 229.022 196.106 228.657 199.349" stroke="#263238" stroke-linecap="round" stroke-linejoin="round"/>
<path d="M267.785 227.607C268.032 228.653 268.302 229.687 268.583 230.698" stroke="#263238" stroke-linecap="round" stroke-linejoin="round"/>
<path d="M263.3 201.327C263.3 201.327 264.424 211.96 266.672 223.01" stroke="#263238" stroke-linecap="round" stroke-linejoin="round"/>
<path d="M266.931 199.023C268.261 202.698 269.364 206.452 270.235 210.263" stroke="#263238" stroke-linecap="round" stroke-linejoin="round"/>
<path d="M224.847 288.227L233.738 222.257" stroke="#263238" stroke-linecap="round" stroke-linejoin="round"/>
<path d="M223.486 298.242L224.015 294.387" stroke="#263238" stroke-linecap="round" stroke-linejoin="round"/>
<path d="M246.405 198.135L244.596 230.698" stroke="#263238" stroke-linecap="round" stroke-linejoin="round"/>
<path d="M308.093 215.434C308.093 215.434 302.012 208.195 299.607 207.048C297.201 205.902 289.423 204.384 286.512 202.665C283.6 200.945 282.791 201.855 284.455 204.238C286.118 206.621 292.008 208.993 292.008 208.993C292.008 208.993 294.526 214.692 297.437 216.412L304.069 220.335L308.093 215.434Z" fill="white" stroke="#263238" stroke-linecap="round" stroke-linejoin="round"/>
<path d="M367.398 214.928C367.398 214.928 355.798 214.928 354.089 217.997C352.381 221.065 344.883 239.489 341.814 244.659C338.746 249.83 338.746 251.134 338.746 251.134L307.711 213.186L296.853 222.437C296.853 222.437 333.002 282.461 335.733 283.484C338.465 284.507 355.168 270.861 357.214 269.838C359.26 268.815 370.523 219.705 370.523 219.705C370.523 219.705 373.187 216.974 367.398 214.928Z" fill="#666666" stroke="#263238" stroke-linecap="round" stroke-linejoin="round"/>
<path d="M366.027 220.043L404.244 210.151C404.244 210.151 410.044 242.209 410.044 256.237C410.044 270.265 419.767 323.253 419.767 323.253C419.767 323.253 390.947 331.953 374.918 331.953C358.889 331.953 348.66 326.153 348.66 326.153C348.66 326.153 356.528 299.176 356.843 284.563C357.158 269.95 355.135 250.111 356.843 238.477C357.876 231.515 361.092 225.06 366.027 220.043Z" fill="white" stroke="#263238" stroke-linecap="round" stroke-linejoin="round"/>
<path d="M362.307 266.679L374.244 283.394" stroke="#263238" stroke-linecap="round" stroke-linejoin="round"/>
<path d="M374.693 289.655L376.334 292.049" stroke="#263238" stroke-linecap="round" stroke-linejoin="round"/>
<path d="M365.892 276.829L372.726 286.8" stroke="#263238" stroke-linecap="round" stroke-linejoin="round"/>
<path d="M355.798 228.574C355.798 228.574 354.775 232.328 353.415 238.466C352.054 244.603 352.392 248.694 353.066 263.363C353.741 278.032 353.066 282.112 348.289 293.375C343.512 304.638 330.405 333.526 330.405 333.526L342.343 344.441C342.343 344.441 353.066 316.902 357.158 299.85C361.249 282.798 360.923 259.272 362.272 247.671C363.621 236.071 374.895 217.682 374.895 217.682L377.278 213.59C374.068 214.521 370.74 214.979 367.398 214.95C364.407 214.859 361.42 215.204 358.529 215.973" fill="#666666"/>
<path d="M355.798 228.574C355.798 228.574 354.775 232.328 353.415 238.466C352.054 244.603 352.392 248.694 353.066 263.363C353.741 278.032 353.066 282.112 348.289 293.375C343.512 304.638 330.405 333.526 330.405 333.526L342.343 344.441C342.343 344.441 353.066 316.902 357.158 299.85C361.249 282.798 360.923 259.272 362.272 247.671C363.621 236.071 374.895 217.682 374.895 217.682L377.278 213.59C374.068 214.521 370.74 214.979 367.398 214.95C364.407 214.859 361.42 215.204 358.529 215.973" stroke="#263238" stroke-linecap="round" stroke-linejoin="round"/>
<path d="M401.153 208.791C401.153 208.791 383.764 239.14 380.358 249.032C376.952 258.923 379.335 264.768 380.009 271.513C380.684 278.257 390.407 349.499 390.407 349.499C390.407 349.499 412.888 342.676 422.127 339.259C431.367 335.842 434.402 332.099 434.402 332.099C434.402 332.099 417.744 276.2 417.744 274.829C417.744 273.457 432.188 211.174 429.805 209.814C427.422 208.454 401.153 208.791 401.153 208.791Z" fill="#666666" stroke="#263238" stroke-linecap="round" stroke-linejoin="round"/>
<path d="M364.555 206.441C364.555 206.441 365.027 217.513 362.902 222.706C361.913 225.467 360.301 227.963 358.192 230.002C358.192 230.002 367.612 225.292 371.153 221.526C373.836 218.394 376.204 215.006 378.223 211.41L371.861 200.338L364.555 206.441Z" fill="#263238" stroke="#263238" stroke-linecap="round" stroke-linejoin="round"/>
<path d="M351.088 158.602C349.872 162.489 349.025 166.482 348.559 170.528C348.233 175.361 349.975 176.384 349.683 179.284C349.391 182.184 345.052 187.288 345.692 189.547C346.333 191.806 350.189 193.088 350.189 193.088C350.189 193.088 353.1 204.328 354.067 207.273C355.033 210.218 359.215 209.207 363.407 207.914C366.472 206.911 369.474 205.729 372.4 204.373L376.266 213.714L398.185 203.081L388.845 165.987C388.845 165.987 375.952 155.994 367.892 155.994L351.088 158.602Z" fill="white" stroke="#263238" stroke-linecap="round" stroke-linejoin="round"/>
<path d="M372.367 204.373L377.661 200.855L374.514 207.453L372.367 204.373Z" fill="#263238" stroke="#263238" stroke-linecap="round" stroke-linejoin="round"/>
<path d="M352.774 180.712C352.774 182.14 353.303 183.297 353.955 183.297C354.607 183.297 355.079 182.173 355.079 180.712C355.079 179.251 354.562 178.115 353.955 178.115C353.348 178.115 352.774 179.273 352.774 180.712Z" fill="#263238"/>
<path d="M357.956 175.519C357.956 175.519 354.887 170.101 350.886 173.406" stroke="#263238" stroke-linecap="round" stroke-linejoin="round"/>
<path d="M361.013 193.661C361.013 193.661 357.832 197.73 354.19 195.785" stroke="#263238" stroke-linecap="round" stroke-linejoin="round"/>
<path d="M386.463 219.818C386.463 219.818 385.822 220.391 381.517 221.942C375.481 224.1 373.502 222.65 373.502 222.65C372.489 218.441 371.69 214.183 371.108 209.892C370.872 206.363 371.872 206.925 378.223 205.913C385.316 204.789 396.051 200.428 397.703 200.428C399.355 200.428 400.367 200.259 400.367 202.384C400.367 204.508 402.491 212.275 402.491 212.275C397.42 215.329 392.049 217.856 386.463 219.818Z" fill="white" stroke="#263238" stroke-linecap="round" stroke-linejoin="round"/>
<path d="M380.752 180.195C380.752 180.195 376.56 180.195 374.626 178.902C373.329 177.83 372.42 176.361 372.041 174.721C372.041 174.721 358.181 171.169 352.067 163.48C345.952 155.792 341.748 155.095 344.648 151.554C347.548 148.013 367.534 142.202 373.986 139.628C380.438 137.054 390.149 141.247 399.142 148.609C408.134 155.972 407.853 156.983 409.135 166.335C410.416 175.687 419.127 208.24 419.127 208.24L410.135 210.173C410.135 210.173 404.976 220.492 395.635 225.64C386.294 230.788 380.809 231.451 380.809 231.451C380.809 231.451 388.216 215.007 388.216 200.821C388.216 186.636 380.752 180.195 380.752 180.195Z" fill="#263238" stroke="#263238" stroke-linecap="round" stroke-linejoin="round"/>
<path d="M376.56 183.095C376.56 183.095 379.134 169.876 385.26 174.102C391.386 178.329 383.967 193.121 381.719 192.795C379.471 192.469 377.526 189.895 377.526 189.895" fill="white"/>
<path d="M376.56 183.095C376.56 183.095 379.134 169.876 385.26 174.102C391.386 178.329 383.967 193.121 381.719 192.795C379.471 192.469 377.526 189.895 377.526 189.895" stroke="#263238" stroke-linecap="round" stroke-linejoin="round"/>
<path d="M497.136 226.787C497.136 226.787 506.96 224.82 509.253 224.82C511.546 224.82 512.198 227.068 511.209 227.439C510.22 227.81 508.59 228.428 508.59 228.428C508.59 228.428 512.524 229.406 511.209 230.384L508.59 232.351C508.59 232.351 511.872 233.992 510.557 235.296C509.43 236.154 508.051 236.617 506.634 236.611C506.634 236.611 509.905 238.578 507.938 239.556C505.971 240.534 501.385 238.904 501.385 238.904C499.435 240.971 497.103 242.639 494.517 243.816C491.899 244.791 489.061 245.017 486.322 244.468L480.073 248.031L475.812 238.533L497.136 226.787Z" fill="white" stroke="#263238" stroke-linecap="round" stroke-linejoin="round"/>
<path d="M417.182 209.813C417.182 209.813 426.051 207.431 429.805 209.813C433.559 212.196 434.582 232.294 434.582 232.294L445.823 258.552L477.543 237.06L487.772 252.066C487.772 252.066 447.183 289.25 443.777 290.61C442.625 291.2 441.299 291.352 440.044 291.038C438.789 290.724 437.691 289.965 436.954 288.902C435.594 287.204 411.033 245.592 411.033 245.592" fill="#666666"/>
<path d="M417.182 209.813C417.182 209.813 426.051 207.431 429.805 209.813C433.559 212.196 434.582 232.294 434.582 232.294L445.823 258.552L477.543 237.06L487.772 252.066C487.772 252.066 447.183 289.25 443.777 290.61C442.625 291.2 441.299 291.352 440.044 291.038C438.789 290.724 437.691 289.965 436.954 288.902C435.594 287.204 411.033 245.592 411.033 245.592" stroke="#263238" stroke-linecap="round" stroke-linejoin="round"/>
<path d="M514.536 247.267L494.629 248.222V333.493H518.268L514.536 247.267Z" fill="#666666" stroke="#263238" stroke-linecap="round" stroke-linejoin="round"/>
<path d="M471.429 271.76L477.049 267.882C485.169 262.116 491.503 254.181 495.326 244.985L500.002 234.071H507.432L512.108 244.985C515.931 254.181 522.265 262.116 530.385 267.882L536.005 271.76C537.615 272.96 538.915 274.528 539.795 276.333C540.675 278.138 541.11 280.127 541.064 282.135H466.371C466.324 280.127 466.759 278.138 467.639 276.333C468.519 274.528 469.819 272.96 471.429 271.76ZM501.632 277.538H533.735C533.735 274.098 528.238 270.906 526.069 269.152L522.18 266.016C516.379 261.088 512.011 254.689 509.534 247.492L506.285 238.657H501.149L497.9 247.492C495.423 254.689 491.055 261.088 485.255 266.016L481.365 269.152C479.196 270.906 473.812 274.098 473.812 277.538H501.632Z" fill="white" stroke="#263238" stroke-linecap="round" stroke-linejoin="round"/>
<path d="M503.757 233.891V225.876C503.757 225.876 499.182 222.437 499.182 217.48C499.182 212.523 502.992 210.612 507.196 212.14" stroke="#263238" stroke-linecap="round" stroke-linejoin="round"/>
<path d="M514.536 247.267L505.926 323.343L495.36 244.974C495.36 244.974 477.296 263.464 471.35 266.713C465.404 269.961 459.997 274.278 458.379 282.922C456.76 291.566 448.116 378.016 448.116 378.016L468.102 379.14L466.303 428.025H546.954L542.098 376.982H561.004C561.004 376.982 549.123 283.506 545.875 277.02C542.626 270.535 514.536 247.267 514.536 247.267Z" fill="#009C8E" stroke="#263238" stroke-linecap="round" stroke-linejoin="round"/>
<path d="M514.536 247.267L503.925 328.423L506.454 331.795L530.059 261.733C530.059 261.733 522.629 249.695 514.536 247.267Z" fill="#263238" stroke="#263238" stroke-linecap="round" stroke-linejoin="round"/>
<path d="M495.326 244.985L509.827 352.062L476.903 260.879C476.903 260.879 495.428 243.187 495.326 244.985Z" fill="#263238" stroke="#263238" stroke-linecap="round" stroke-linejoin="round"/>
<path d="M545.875 276.987C545.875 276.987 561.331 352.062 564.703 369.788C568.075 387.515 569.772 416.223 569.772 416.223L540.221 417.066L531.779 290.43" fill="#009C8E"/>
<path d="M545.875 276.987C545.875 276.987 561.331 352.062 564.703 369.788C568.075 387.515 569.772 416.223 569.772 416.223L540.221 417.066L531.779 290.43" stroke="#263238" stroke-linecap="round" stroke-linejoin="round"/>
<path d="M539.692 419.156H570.435C571.136 419.156 571.705 418.588 571.705 417.886V409.141C571.705 408.44 571.136 407.871 570.435 407.871H539.692C538.991 407.871 538.422 408.44 538.422 409.141V417.886C538.422 418.588 538.991 419.156 539.692 419.156Z" fill="#263238" stroke="#263238" stroke-linecap="round" stroke-linejoin="round"/>
<path d="M460.267 276.987C460.267 276.987 444.822 352.062 441.45 369.788C438.078 387.515 436.381 416.223 436.381 416.223L465.932 417.066L474.374 290.43" fill="#009C8E"/>
<path d="M460.267 276.987C460.267 276.987 444.822 352.062 441.45 369.788C438.078 387.515 436.381 416.223 436.381 416.223L465.932 417.066L474.374 290.43" stroke="#263238" stroke-linecap="round" stroke-linejoin="round"/>
<path d="M435.493 419.156H466.236C466.937 419.156 467.506 418.588 467.506 417.886V409.141C467.506 408.44 466.937 407.871 466.236 407.871H435.493C434.791 407.871 434.223 408.44 434.223 409.141V417.886C434.223 418.588 434.791 419.156 435.493 419.156Z" fill="#263238" stroke="#263238" stroke-linecap="round" stroke-linejoin="round"/>
<path d="M509.826 352.062V427.576" stroke="#263238" stroke-linecap="round" stroke-linejoin="round"/>
<path d="M481.062 236.42C484.176 233.733 488.02 227.664 489.425 227.102C491.887 226.09 499.755 225.022 502.757 223.471C505.758 221.92 506.522 222.886 504.712 225.179C502.903 227.472 496.934 229.485 496.934 229.485C496.934 229.485 494.09 235.015 491.089 236.566L489.099 237.634" fill="white"/>
<path d="M481.062 236.42C484.176 233.733 488.02 227.664 489.425 227.102C491.887 226.09 499.755 225.022 502.757 223.471C505.758 221.92 506.522 222.886 504.712 225.179C502.903 227.472 496.934 229.485 496.934 229.485C496.934 229.485 494.09 235.015 491.089 236.566L489.099 237.634" stroke="#263238" stroke-linecap="round" stroke-linejoin="round"/>
<path d="M48.4385 532.449H580.113" stroke="#263238" stroke-linecap="round" stroke-linejoin="round"/>
</svg>
