<svg width="750" height="750" viewBox="0 0 750 750" fill="none" xmlns="http://www.w3.org/2000/svg">
<circle cx="375" cy="375" r="375" fill="#F3F7F9"/>
<path d="M626.25 442.634H620.598H364.753H359.102V453.964H364.753V569.127H620.598V453.964H626.25V442.634Z" fill="#009C8E"/>
<path opacity="0.5" d="M626.25 442.634H620.598H364.753H359.102V453.964H364.753V569.127H620.598V453.964H626.25V442.634Z" fill="white"/>
<path d="M371.607 502.774H441.381V465.522H371.607V502.774ZM373.024 466.898H439.965V501.438H373.024V466.898Z" fill="white"/>
<path d="M458.256 502.774H528.043V465.522H458.256V502.774ZM459.699 466.938H526.653V501.438H459.699V466.938Z" fill="white"/>
<path d="M544.919 465.522V502.774H614.692V465.522H544.919ZM613.276 501.438H546.335V466.938H613.276V501.438Z" fill="white"/>
<path d="M371.607 552.852H441.381V515.561H371.607V552.852ZM373.024 516.977H439.965V551.436H373.024V516.977Z" fill="white"/>
<path d="M458.256 552.852H528.043V515.561H458.256V552.852ZM459.699 516.977H526.653V551.436H459.699V516.977Z" fill="white"/>
<path d="M544.919 552.852H614.692V515.561H544.919V552.852ZM546.335 516.977H613.276V551.436H546.335V516.977Z" fill="white"/>
<path d="M407.243 488.891C413.5 488.891 418.573 486.989 418.573 484.642C418.573 482.295 413.5 480.393 407.243 480.393C400.985 480.393 395.912 482.295 395.912 484.642C395.912 486.989 400.985 488.891 407.243 488.891Z" fill="white"/>
<path d="M493.477 488.891C499.735 488.891 504.808 486.989 504.808 484.642C504.808 482.295 499.735 480.393 493.477 480.393C487.219 480.393 482.146 482.295 482.146 484.642C482.146 486.989 487.219 488.891 493.477 488.891Z" fill="white"/>
<path d="M582.21 488.891C588.468 488.891 593.541 486.989 593.541 484.642C593.541 482.295 588.468 480.393 582.21 480.393C575.953 480.393 570.88 482.295 570.88 484.642C570.88 486.989 575.953 488.891 582.21 488.891Z" fill="white"/>
<path d="M407.243 530.432C400.989 530.432 395.912 532.329 395.912 534.681C395.912 537.033 400.989 538.917 407.243 538.917C413.496 538.917 418.573 537.019 418.573 534.681C418.573 532.343 413.496 530.432 407.243 530.432Z" fill="white"/>
<path d="M493.477 530.432C487.224 530.432 482.146 532.329 482.146 534.681C482.146 537.033 487.224 538.917 493.477 538.917C499.73 538.917 504.808 537.019 504.808 534.681C504.808 532.343 499.784 530.432 493.477 530.432Z" fill="white"/>
<path d="M582.211 530.432C575.958 530.432 570.894 532.329 570.894 534.681C570.894 537.033 575.958 538.917 582.211 538.917C588.464 538.917 593.541 537.019 593.541 534.681C593.541 532.343 588.477 530.432 582.211 530.432Z" fill="white"/>
<path d="M327.662 432.733C322.505 440.389 315.316 450.344 311.481 458.334C312.938 453.069 314.368 448.086 315.664 443.636C317.628 439.775 322.892 430.034 329.025 423.594C336.735 415.337 340.035 410.032 335.879 409.578C333.007 409.257 324.589 420.467 319.311 431.598C320.46 427.79 321.369 424.917 321.984 423.193C322.237 422.418 322.478 421.576 322.718 420.681C328.178 413.044 333.149 405.069 337.603 396.804C345.393 382.254 347.905 368.518 342.707 374.424C337.924 379.862 329.6 406.906 322.986 419.626C323.547 417.434 324.081 415.016 324.549 412.624C325.484 410.313 326.714 407.961 327.408 405.823C328.491 402.536 329.439 399.223 330.201 395.842C331.457 390.59 332.094 385.209 332.098 379.809C332.232 373.466 330.504 367.222 327.128 361.851C326.232 360.515 320.754 352.324 319.111 356.506C318.897 357.203 318.855 357.941 318.991 358.657C319.792 365.619 322.318 372.019 323.881 378.793C326.219 388.934 324.669 405.957 323.881 413.199C323.587 414.348 323.213 415.764 322.772 417.408C323.854 404.794 318.389 389.843 313.325 387.224C307.059 383.991 313.205 396.684 318.042 407.774C320.333 412.627 321.411 417.965 321.182 423.327C320.193 426.961 319.057 431.063 317.882 435.205C317.641 435.766 317.427 436.341 317.214 436.902C317.757 434.199 317.977 431.44 317.868 428.685C317.414 421.443 309.21 406.946 303.759 408.99C298.307 411.034 307.54 418.677 312.47 427.576C315.057 432.496 316.052 438.099 315.316 443.609C315.316 443.943 315.209 444.264 315.169 444.571C314.595 446.469 314.033 448.286 313.499 450.023C312.163 454.031 311.027 457.879 309.891 461.594C311.287 456.205 311.899 450.643 311.709 445.079C311.027 434.47 304.814 424.449 299.683 423.073C294.553 421.697 304.346 439.013 307.633 448.74C309.421 454.421 309.724 460.465 308.515 466.297C306.925 471.562 305.429 476.759 303.892 482.251C304.321 475.057 304.165 467.84 303.424 460.672C302.422 448.86 295.408 441.325 290.571 441.632C285.734 441.939 290.785 448.647 297.759 463.01C301.442 470.552 303.082 478.928 302.516 487.301C301.888 489.613 301.18 491.991 300.592 494.476C299.844 497.309 299.256 500.396 298.721 503.549C298.026 500.73 296.984 496.614 295.768 492.071C294.352 487.049 293.325 481.926 292.695 476.746C292.041 470.72 290.451 463.197 284.545 460.071C284.143 459.791 283.686 459.603 283.204 459.519C282.722 459.435 282.227 459.457 281.755 459.584C281.283 459.712 280.844 459.941 280.47 460.256C280.095 460.571 279.794 460.963 279.588 461.407C279.046 462.7 278.924 464.13 279.24 465.495C280.024 469.595 281.373 473.565 283.249 477.294C282.088 479.518 281.562 482.019 281.726 484.522C281.726 485.457 281.806 486.393 281.873 487.328C281.351 486.366 280.857 485.484 280.389 484.656C279.54 483.239 278.497 481.948 277.29 480.821C277.592 478.607 277.744 476.375 277.744 474.14C277.744 471.214 274.31 463.745 271.21 469.277C269.967 471.495 270.208 475.837 270.088 478.723C269.246 479.525 268.992 481.155 269.7 483.72C269.219 490.401 269.126 497.242 270.742 503.763L269.674 501.905C268.168 494.176 267.274 486.34 267.001 478.469C266.614 465.469 268.685 454.806 265.144 450.798C261.603 446.789 259.626 460.886 261.136 476.251C261.847 483.263 263.716 490.108 266.667 496.507C263.193 490.268 259.759 483.908 256.513 477.801C255.176 474.528 251.863 465.669 252.678 456.69C253.707 445.373 254.455 436.1 250.152 429.727C245.85 423.353 244.955 427.496 247.066 440.777C248.509 449.889 250.046 462.075 252.691 470.533C250.179 465.683 247.814 461.073 245.703 456.904C244.501 452.735 241.695 442.033 241.695 433.147C241.695 421.844 240.492 415.778 237.152 418.223C234.827 419.946 236.323 433.896 240.065 445.627C238.314 442.06 236.991 439.32 236.23 437.704C235.882 436.969 235.495 436.18 235.054 435.365C233.832 426.059 232.024 416.84 229.643 407.761C225.407 391.807 217.858 380.049 218.098 387.919C218.312 395.161 230.685 420.601 234.546 434.417C233.451 432.426 232.181 430.301 230.899 428.23C230.003 425.892 229.295 423.34 228.347 421.309C226.89 418.169 225.327 415.096 223.577 412.103C220.904 407.397 217.688 403.02 213.996 399.062C209.72 394.192 204.085 390.712 197.816 389.068C196.239 388.694 186.672 386.396 188.302 390.671C188.607 391.324 189.066 391.892 189.639 392.328C194.983 396.871 201.183 399.824 207.008 403.712C215.64 409.538 226.129 423.033 230.458 428.898L232.515 432.733C224.699 422.766 210.496 415.577 205.018 417.127C198.23 419.038 211.378 424.115 222.481 428.912C227.47 430.894 231.9 434.063 235.388 438.145C237.152 441.485 239.116 445.24 241.08 449.074C241.307 449.649 241.521 450.21 241.748 450.771C240.304 448.425 238.586 446.258 236.631 444.318C231.353 439.347 215.453 434.337 212.874 439.548C210.295 444.759 222.227 444.064 231.927 447.19C237.152 449.024 241.683 452.425 244.901 456.931C245.088 457.198 245.262 457.479 245.449 457.732C246.331 459.496 247.16 461.22 247.948 462.85C249.765 466.685 251.502 470.279 253.199 473.766C250.55 468.858 247.207 464.357 243.271 460.405C235.522 453.109 224.138 450.036 219.421 452.575C214.705 455.114 233.705 461.033 242.75 465.936C247.935 468.871 252.282 473.085 255.377 478.175C257.809 483.106 260.254 487.929 262.886 492.993C258.29 487.444 253.254 482.274 247.828 477.534C239.022 469.584 228.747 468.863 225.42 472.39C222.093 475.917 230.364 477.374 245.249 483.079C253.082 486.077 259.992 491.075 265.291 497.576C266.413 499.701 267.562 501.879 268.792 504.15C270.128 506.715 271.825 509.388 273.615 512.047C271.183 510.47 267.603 508.172 263.621 505.687C259.153 502.982 254.904 499.931 250.914 496.561C246.318 492.619 240.025 488.197 233.544 489.947C233.062 490.017 232.601 490.193 232.194 490.461C231.787 490.729 231.443 491.084 231.188 491.499C230.934 491.915 230.773 492.381 230.718 492.866C230.664 493.35 230.716 493.841 230.872 494.303C231.344 495.624 232.229 496.758 233.397 497.536C239.49 502.253 247.681 504.524 254.776 507.317C261.277 509.875 267.941 512 274.724 513.677C276.408 516.095 278.158 518.487 279.922 520.758L276.742 520.852C272.974 520.972 255.978 513.263 247.347 510.791C238.715 508.319 230.645 512.995 239.69 517.859C248.736 522.723 273.335 521.64 273.335 521.64L280.429 521.426C282.1 523.564 283.73 525.595 285.28 527.452H251.569V536.805H258.249L263.594 570.062H308.395L313.806 536.805H320.487V527.452H298.16C297.98 523.41 298.087 519.361 298.481 515.334C299.971 513.819 301.624 512.474 303.411 511.325C313.218 504.551 329.84 503.99 334.263 490.936C335.332 487.796 334.116 483.761 330.361 483.934C327.689 484.054 324.789 486.433 323.106 488.37C317.494 494.851 313.272 501.571 305.977 506.488C303.47 508.415 301.062 510.466 298.761 512.635C299.015 510.51 299.336 508.239 299.75 505.807C301.513 502.68 303.524 499.7 305.763 496.895C311.735 489.479 320.821 485.137 327.275 478.069C329.252 475.904 331.858 468.128 325.818 470.052C323.146 470.907 319.966 474.982 317.801 476.839C311.856 482.184 305.776 487.876 301.901 494.904C302.062 494.209 302.235 493.568 302.396 492.82C306.564 486.136 311.26 479.796 316.439 473.86C325.017 464.106 333.808 457.719 333.955 452.375C334.102 447.03 323.039 455.982 313.646 468.221C309.385 473.836 306.08 480.116 303.865 486.807C305.589 479.886 307.42 472.884 309.21 466.177C310.439 462.837 314.087 454.152 320.808 448.126C329.292 440.55 336.16 434.297 337.376 426.747C338.592 419.198 335.185 421.59 327.662 432.733ZM280.216 518.674C278.946 516.95 277.624 515.08 276.207 513.009C275.364 509.496 274.801 505.922 274.524 502.32C274.353 499.253 274.496 496.177 274.951 493.14C277.232 495.964 279.653 498.671 282.207 501.251C282.146 503.922 281.819 506.581 281.231 509.187C280.731 512.33 280.392 515.496 280.216 518.674ZM287.484 527.479C285.761 525.649 283.877 523.471 281.832 520.798C281.884 518.679 282.175 516.572 282.701 514.519C283.517 511.281 284.691 508.144 286.202 505.166C289.368 508.172 291.693 510.163 291.693 510.163L297.038 514.853C296.624 519.516 296.383 523.898 296.236 527.452L287.484 527.479ZM297.105 514.038L294.713 511.94C293.377 510.737 290.972 506.088 288.353 500.73C289.47 498.475 290.46 496.16 291.319 493.795C294.152 499.046 296.664 503.148 298.147 505.326C297.719 508.225 297.385 511.178 297.105 514.038Z" fill="#009C8E"/>
<path opacity="0.5" d="M327.662 432.733C322.505 440.389 315.316 450.344 311.481 458.334C312.938 453.069 314.368 448.086 315.664 443.636C317.628 439.775 322.892 430.034 329.025 423.594C336.735 415.337 340.035 410.032 335.879 409.578C333.007 409.257 324.589 420.467 319.311 431.598C320.46 427.79 321.369 424.917 321.984 423.193C322.237 422.418 322.478 421.576 322.718 420.681C328.178 413.044 333.149 405.069 337.603 396.804C345.393 382.254 347.905 368.518 342.707 374.424C337.924 379.862 329.6 406.906 322.986 419.626C323.547 417.434 324.081 415.016 324.549 412.624C325.484 410.313 326.714 407.961 327.408 405.823C328.491 402.536 329.439 399.223 330.201 395.842C331.457 390.59 332.094 385.209 332.098 379.809C332.232 373.466 330.504 367.222 327.128 361.851C326.232 360.515 320.754 352.324 319.111 356.506C318.897 357.203 318.855 357.941 318.991 358.657C319.792 365.619 322.318 372.019 323.881 378.793C326.219 388.934 324.669 405.957 323.881 413.199C323.587 414.348 323.213 415.764 322.772 417.408C323.854 404.794 318.389 389.843 313.325 387.224C307.059 383.991 313.205 396.684 318.042 407.774C320.333 412.627 321.411 417.965 321.182 423.327C320.193 426.961 319.057 431.063 317.882 435.205C317.641 435.766 317.427 436.341 317.214 436.902C317.757 434.199 317.977 431.44 317.868 428.685C317.414 421.443 309.21 406.946 303.759 408.99C298.307 411.034 307.54 418.677 312.47 427.576C315.057 432.496 316.052 438.099 315.316 443.609C315.316 443.943 315.209 444.264 315.169 444.571C314.595 446.469 314.033 448.286 313.499 450.023C312.163 454.031 311.027 457.879 309.891 461.594C311.287 456.205 311.899 450.643 311.709 445.079C311.027 434.47 304.814 424.449 299.683 423.073C294.553 421.697 304.346 439.013 307.633 448.74C309.421 454.421 309.724 460.465 308.515 466.297C306.925 471.562 305.429 476.759 303.892 482.251C304.321 475.057 304.165 467.84 303.424 460.672C302.422 448.86 295.408 441.325 290.571 441.632C285.734 441.939 290.785 448.647 297.759 463.01C301.442 470.552 303.082 478.928 302.516 487.301C301.888 489.613 301.18 491.991 300.592 494.476C299.844 497.309 299.256 500.396 298.721 503.549C298.026 500.73 296.984 496.614 295.768 492.071C294.352 487.049 293.325 481.926 292.695 476.746C292.041 470.72 290.451 463.197 284.545 460.071C284.143 459.791 283.686 459.603 283.204 459.519C282.722 459.435 282.227 459.457 281.755 459.584C281.283 459.712 280.844 459.941 280.47 460.256C280.095 460.571 279.794 460.963 279.588 461.407C279.046 462.7 278.924 464.13 279.24 465.495C280.024 469.595 281.373 473.565 283.249 477.294C282.088 479.518 281.562 482.019 281.726 484.522C281.726 485.457 281.806 486.393 281.873 487.328C281.351 486.366 280.857 485.484 280.389 484.656C279.54 483.239 278.497 481.948 277.29 480.821C277.592 478.607 277.744 476.375 277.744 474.14C277.744 471.214 274.31 463.745 271.21 469.277C269.967 471.495 270.208 475.837 270.088 478.723C269.246 479.525 268.992 481.155 269.7 483.72C269.219 490.401 269.126 497.242 270.742 503.763L269.674 501.905C268.168 494.176 267.274 486.34 267.001 478.469C266.614 465.469 268.685 454.806 265.144 450.798C261.603 446.789 259.626 460.886 261.136 476.251C261.847 483.263 263.716 490.108 266.667 496.507C263.193 490.268 259.759 483.908 256.513 477.801C255.176 474.528 251.863 465.669 252.678 456.69C253.707 445.373 254.455 436.1 250.152 429.727C245.85 423.353 244.955 427.496 247.066 440.777C248.509 449.889 250.046 462.075 252.691 470.533C250.179 465.683 247.814 461.073 245.703 456.904C244.501 452.735 241.695 442.033 241.695 433.147C241.695 421.844 240.492 415.778 237.152 418.223C234.827 419.946 236.323 433.896 240.065 445.627C238.314 442.06 236.991 439.32 236.23 437.704C235.882 436.969 235.495 436.18 235.054 435.365C233.832 426.059 232.024 416.84 229.643 407.761C225.407 391.807 217.858 380.049 218.098 387.919C218.312 395.161 230.685 420.601 234.546 434.417C233.451 432.426 232.181 430.301 230.899 428.23C230.003 425.892 229.295 423.34 228.347 421.309C226.89 418.169 225.327 415.096 223.577 412.103C220.904 407.397 217.688 403.02 213.996 399.062C209.72 394.192 204.085 390.712 197.816 389.068C196.239 388.694 186.672 386.396 188.302 390.671C188.607 391.324 189.066 391.892 189.639 392.328C194.983 396.871 201.183 399.824 207.008 403.712C215.64 409.538 226.129 423.033 230.458 428.898L232.515 432.733C224.699 422.766 210.496 415.577 205.018 417.127C198.23 419.038 211.378 424.115 222.481 428.912C227.47 430.894 231.9 434.063 235.388 438.145C237.152 441.485 239.116 445.24 241.08 449.074C241.307 449.649 241.521 450.21 241.748 450.771C240.304 448.425 238.586 446.258 236.631 444.318C231.353 439.347 215.453 434.337 212.874 439.548C210.295 444.759 222.227 444.064 231.927 447.19C237.152 449.024 241.683 452.425 244.901 456.931C245.088 457.198 245.262 457.479 245.449 457.732C246.331 459.496 247.16 461.22 247.948 462.85C249.765 466.685 251.502 470.279 253.199 473.766C250.55 468.858 247.207 464.357 243.271 460.405C235.522 453.109 224.138 450.036 219.421 452.575C214.705 455.114 233.705 461.033 242.75 465.936C247.935 468.871 252.282 473.085 255.377 478.175C257.809 483.106 260.254 487.929 262.886 492.993C258.29 487.444 253.254 482.274 247.828 477.534C239.022 469.584 228.747 468.863 225.42 472.39C222.093 475.917 230.364 477.374 245.249 483.079C253.082 486.077 259.992 491.075 265.291 497.576C266.413 499.701 267.562 501.879 268.792 504.15C270.128 506.715 271.825 509.388 273.615 512.047C271.183 510.47 267.603 508.172 263.621 505.687C259.153 502.982 254.904 499.931 250.914 496.561C246.318 492.619 240.025 488.197 233.544 489.947C233.062 490.017 232.601 490.193 232.194 490.461C231.787 490.729 231.443 491.084 231.188 491.499C230.934 491.915 230.773 492.381 230.718 492.866C230.664 493.35 230.716 493.841 230.872 494.303C231.344 495.624 232.229 496.758 233.397 497.536C239.49 502.253 247.681 504.524 254.776 507.317C261.277 509.875 267.941 512 274.724 513.677C276.408 516.095 278.158 518.487 279.922 520.758L276.742 520.852C272.974 520.972 255.978 513.263 247.347 510.791C238.715 508.319 230.645 512.995 239.69 517.859C248.736 522.723 273.335 521.64 273.335 521.64L280.429 521.426C282.1 523.564 283.73 525.595 285.28 527.452H251.569V536.805H258.249L263.594 570.062H308.395L313.806 536.805H320.487V527.452H298.16C297.98 523.41 298.087 519.361 298.481 515.334C299.971 513.819 301.624 512.474 303.411 511.325C313.218 504.551 329.84 503.99 334.263 490.936C335.332 487.796 334.116 483.761 330.361 483.934C327.689 484.054 324.789 486.433 323.106 488.37C317.494 494.851 313.272 501.571 305.977 506.488C303.47 508.415 301.062 510.466 298.761 512.635C299.015 510.51 299.336 508.239 299.75 505.807C301.513 502.68 303.524 499.7 305.763 496.895C311.735 489.479 320.821 485.137 327.275 478.069C329.252 475.904 331.858 468.128 325.818 470.052C323.146 470.907 319.966 474.982 317.801 476.839C311.856 482.184 305.776 487.876 301.901 494.904C302.062 494.209 302.235 493.568 302.396 492.82C306.564 486.136 311.26 479.796 316.439 473.86C325.017 464.106 333.808 457.719 333.955 452.375C334.102 447.03 323.039 455.982 313.646 468.221C309.385 473.836 306.08 480.116 303.865 486.807C305.589 479.886 307.42 472.884 309.21 466.177C310.439 462.837 314.087 454.152 320.808 448.126C329.292 440.55 336.16 434.297 337.376 426.747C338.592 419.198 335.185 421.59 327.662 432.733ZM280.216 518.674C278.946 516.95 277.624 515.08 276.207 513.009C275.364 509.496 274.801 505.922 274.524 502.32C274.353 499.253 274.496 496.177 274.951 493.14C277.232 495.964 279.653 498.671 282.207 501.251C282.146 503.922 281.819 506.581 281.231 509.187C280.731 512.33 280.392 515.496 280.216 518.674ZM287.484 527.479C285.761 525.649 283.877 523.471 281.832 520.798C281.884 518.679 282.175 516.572 282.701 514.519C283.517 511.281 284.691 508.144 286.202 505.166C289.368 508.172 291.693 510.163 291.693 510.163L297.038 514.853C296.624 519.516 296.383 523.898 296.236 527.452L287.484 527.479ZM297.105 514.038L294.713 511.94C293.377 510.737 290.972 506.088 288.353 500.73C289.47 498.475 290.46 496.16 291.319 493.795C294.152 499.046 296.664 503.148 298.147 505.326C297.719 508.225 297.385 511.178 297.105 514.038Z" fill="white"/>
<path d="M195.878 181.111V316.596H298.761V181.111H195.878ZM291.626 307.149H203.066V190.57H291.626V307.149Z" fill="#009C8E"/>
<path opacity="0.5" d="M195.878 181.111V316.596H298.761V181.111H195.878ZM291.626 307.149H203.066V190.57H291.626V307.149Z" fill="white"/>
<path d="M555.902 247.209V347.26H631.902V247.209H555.902ZM626.598 340.272H561.247V254.251H626.638L626.598 340.272Z" fill="#009C8E"/>
<path opacity="0.5" d="M555.902 247.209V347.26H631.902V247.209H555.902ZM626.598 340.272H561.247V254.251H626.638L626.598 340.272Z" fill="white"/>
<path d="M121.361 584.038C125.196 571.051 164.92 436.047 164.786 435.031C164.652 434.016 168.033 415.884 175.943 400.772C183.853 385.661 194.836 368.825 196.212 366.768C198.306 363.415 199.706 359.675 200.327 355.771C201.356 350.28 212.353 335.154 215.787 331.039C219.22 326.924 229.522 305.278 230.217 301.844C230.912 298.41 235.014 295.658 240.519 294.629C246.024 293.6 253.573 292.572 253.573 292.572C254.97 294.216 255.812 296.259 255.978 298.41C255.978 301.497 243.605 375.346 242.924 387.718C242.242 400.091 243.952 406.945 238.461 419.665C232.969 432.386 216.815 440.269 208.919 445.426C201.022 450.584 201.623 451.653 201.623 451.653C201.623 451.653 206.086 575.286 205.979 585" fill="white"/>
<g style="mix-blend-mode:multiply" opacity="0.7">
<path d="M261.002 373.582C259.573 367.182 250.313 370.736 250.313 370.736C244.008 377.579 236.245 382.917 227.599 386.356C213.126 391.828 199.141 398.51 185.791 406.331C187.314 403.271 188.971 400.185 190.761 396.978C199.994 380.65 216.322 358.644 225.501 355.798C231.166 354.061 236.818 357.655 240.345 360.702L240.746 294.562H240.519C235.014 295.591 230.899 298.344 230.218 301.778C229.536 305.212 219.221 326.844 215.787 330.972C212.353 335.101 201.357 350.213 200.328 355.704C199.706 359.609 198.307 363.348 196.213 366.701C194.877 368.759 183.84 385.581 175.943 400.706C168.047 415.831 164.653 433.936 164.787 434.964C164.88 435.713 149.595 491.082 139.881 525.929C147.898 510.163 160.364 484.656 167.94 465.803C170.919 465.509 176.692 457.438 181.475 450.865C187.154 443.061 195.665 440.924 212.714 428.15C229.763 415.377 248.91 397.619 251.756 390.524C254.602 383.429 262.419 379.969 261.002 373.582Z" fill="#009C8E"/>
</g>
<path d="M121.361 584.038C125.196 571.051 164.92 436.047 164.786 435.031C164.652 434.016 168.033 415.884 175.943 400.772C183.853 385.661 194.836 368.825 196.212 366.768C198.306 363.415 199.706 359.675 200.327 355.771C201.356 350.28 212.353 335.154 215.787 331.039C219.22 326.924 229.522 305.278 230.217 301.844C230.912 298.41 235.014 295.658 240.519 294.629C246.024 293.6 253.573 292.572 253.573 292.572C254.97 294.216 255.812 296.259 255.978 298.41C255.978 301.497 243.605 375.346 242.924 387.718C242.242 400.091 243.952 406.945 238.461 419.665C232.969 432.386 216.815 440.269 208.919 445.426C201.022 450.584 201.623 451.653 201.623 451.653C201.623 451.653 206.086 575.286 205.979 585" stroke="#2E353A" stroke-linecap="round" stroke-linejoin="round"/>
<path d="M239.825 376.722C239.825 376.722 236.057 376.374 232.275 369.507" stroke="#2E353A" stroke-linecap="round" stroke-linejoin="round"/>
<path d="M235.709 332.415C235.709 332.415 246.398 334.473 247.734 343.398" stroke="#2E353A" stroke-linecap="round" stroke-linejoin="round"/>
<path d="M239.143 304.583C241.507 306.383 243.464 308.661 244.885 311.271C246.305 313.88 247.158 316.76 247.387 319.722" stroke="#2E353A" stroke-linecap="round" stroke-linejoin="round"/>
<path d="M585.497 376.749L584.655 234.089C584.652 229.931 582.998 225.944 580.056 223.005C577.115 220.066 573.127 218.416 568.969 218.416H256.779C252.622 218.416 248.636 220.067 245.697 223.006C242.757 225.945 241.106 229.932 241.106 234.089L240.251 376.749C240.249 378.828 240.658 380.888 241.453 382.81C242.248 384.732 243.414 386.478 244.885 387.948C246.355 389.419 248.101 390.585 250.023 391.38C251.945 392.175 254.005 392.584 256.084 392.582H569.664C571.743 392.584 573.803 392.175 575.725 391.38C577.647 390.585 579.393 389.419 580.864 387.948C582.334 386.478 583.5 384.732 584.295 382.81C585.09 380.888 585.499 378.828 585.497 376.749Z" fill="#2E353A" stroke="#363636" stroke-width="0.868674" stroke-linecap="round" stroke-linejoin="round"/>
<path d="M567.954 384.832L567.273 226.085H258.477L257.809 384.832H567.954Z" fill="white" stroke="#363636" stroke-width="0.651505" stroke-linecap="round" stroke-linejoin="round"/>
<path d="M567.273 226.085H258.477L258.45 234.009H288.113L295.702 244.858H567.353L567.273 226.085Z" fill="#009C8E" stroke="#2E353A" stroke-linecap="round" stroke-linejoin="round"/>
<g style="mix-blend-mode:multiply" opacity="0.5">
<path d="M567.272 257.672L350.216 384.832H567.954L567.272 257.672Z" fill="#009C8E"/>
</g>
<path d="M578.3 305.416C578.317 304.095 577.26 303.011 575.94 302.994C574.619 302.976 573.534 304.033 573.517 305.354C573.5 306.675 574.557 307.759 575.878 307.776C577.199 307.794 578.283 306.737 578.3 305.416Z" fill="white"/>
<path d="M282.26 284.087C289.322 284.087 295.046 278.362 295.046 271.3C295.046 264.238 289.322 258.513 282.26 258.513C275.198 258.513 269.473 264.238 269.473 271.3C269.473 278.362 275.198 284.087 282.26 284.087Z" fill="#009C8E" stroke="#2E353A" stroke-linecap="round" stroke-linejoin="round"/>
<path d="M282.26 336.664C289.322 336.664 295.046 330.939 295.046 323.877C295.046 316.815 289.322 311.091 282.26 311.091C275.198 311.091 269.473 316.815 269.473 323.877C269.473 330.939 275.198 336.664 282.26 336.664Z" fill="white" stroke="#2E353A" stroke-linecap="round" stroke-linejoin="round"/>
<path d="M369.644 284.087C376.706 284.087 382.431 278.362 382.431 271.3C382.431 264.238 376.706 258.513 369.644 258.513C362.582 258.513 356.857 264.238 356.857 271.3C356.857 278.362 362.582 284.087 369.644 284.087Z" fill="white" stroke="#2E353A" stroke-linecap="round" stroke-linejoin="round"/>
<path d="M369.644 336.664C376.706 336.664 382.431 330.939 382.431 323.877C382.431 316.815 376.706 311.091 369.644 311.091C362.582 311.091 356.857 316.815 356.857 323.877C356.857 330.939 362.582 336.664 369.644 336.664Z" fill="#009C8E" stroke="#2E353A" stroke-linecap="round" stroke-linejoin="round"/>
<path d="M457.041 284.087C464.103 284.087 469.828 278.362 469.828 271.3C469.828 264.238 464.103 258.513 457.041 258.513C449.979 258.513 444.254 264.238 444.254 271.3C444.254 278.362 449.979 284.087 457.041 284.087Z" fill="#009C8E" stroke="#2E353A" stroke-linecap="round" stroke-linejoin="round"/>
<path d="M457.041 336.664C464.103 336.664 469.828 330.939 469.828 323.877C469.828 316.815 464.103 311.091 457.041 311.091C449.979 311.091 444.254 316.815 444.254 323.877C444.254 330.939 449.979 336.664 457.041 336.664Z" fill="#009C8E" stroke="#2E353A" stroke-width="2" stroke-linecap="round" stroke-linejoin="round"/>
<path d="M544.426 284.087C551.488 284.087 557.212 278.362 557.212 271.3C557.212 264.238 551.488 258.513 544.426 258.513C537.364 258.513 531.639 264.238 531.639 271.3C531.639 278.362 537.364 284.087 544.426 284.087Z" fill="#009C8E" stroke="#2E353A" stroke-linecap="round" stroke-linejoin="round"/>
<path d="M544.426 336.664C551.488 336.664 557.212 330.939 557.212 323.877C557.212 316.815 551.488 311.091 544.426 311.091C537.364 311.091 531.639 316.815 531.639 323.877C531.639 330.939 537.364 336.664 544.426 336.664Z" fill="white" stroke="#2E353A" stroke-linecap="round" stroke-linejoin="round"/>
<path d="M304.479 288.617H346.368" stroke="#2E353A" stroke-linecap="round" stroke-linejoin="round"/>
<path d="M304.479 298.277H346.368" stroke="#2E353A" stroke-linecap="round" stroke-linejoin="round"/>
<path d="M304.479 307.951H346.368" stroke="#2E353A" stroke-linecap="round" stroke-linejoin="round"/>
<path d="M390.674 288.617H432.562" stroke="#2E353A" stroke-linecap="round" stroke-linejoin="round"/>
<path d="M390.674 298.277H432.562" stroke="#2E353A" stroke-linecap="round" stroke-linejoin="round"/>
<path d="M390.674 307.951H432.562" stroke="#2E353A" stroke-linecap="round" stroke-linejoin="round"/>
<path d="M482.507 288.617H524.395" stroke="#2E353A" stroke-linecap="round" stroke-linejoin="round"/>
<path d="M482.507 298.277H524.395" stroke="#2E353A" stroke-linecap="round" stroke-linejoin="round"/>
<path d="M482.507 307.951H524.395" stroke="#2E353A" stroke-linecap="round" stroke-linejoin="round"/>
<path d="M304.479 343.318H346.368" stroke="#2E353A" stroke-linecap="round" stroke-linejoin="round"/>
<path d="M304.479 352.992H346.368" stroke="#2E353A" stroke-linecap="round" stroke-linejoin="round"/>
<path d="M304.479 362.652H346.368" stroke="#2E353A" stroke-linecap="round" stroke-linejoin="round"/>
<path d="M390.674 343.318H432.562" stroke="#2E353A" stroke-linecap="round" stroke-linejoin="round"/>
<path d="M390.674 352.992H432.562" stroke="#2E353A" stroke-linecap="round" stroke-linejoin="round"/>
<path d="M390.674 362.652H432.562" stroke="#2E353A" stroke-linecap="round" stroke-linejoin="round"/>
<path d="M482.507 343.318H524.395" stroke="#2E353A" stroke-linecap="round" stroke-linejoin="round"/>
<path d="M482.507 352.992H524.395" stroke="#2E353A" stroke-linecap="round" stroke-linejoin="round"/>
<path d="M482.507 362.652H524.395" stroke="#2E353A" stroke-linecap="round" stroke-linejoin="round"/>
<path d="M431.814 324.532H439.751" stroke="#2E353A" stroke-linecap="round" stroke-linejoin="round"/>
<path d="M457.883 308.672V298.758" stroke="#2E353A" stroke-linecap="round" stroke-linejoin="round"/>
<path d="M440.312 309.808L445.417 313.776" stroke="#2E353A" stroke-linecap="round" stroke-linejoin="round"/>
<path d="M446.552 334.727L440.312 338.134" stroke="#2E353A" stroke-linecap="round" stroke-linejoin="round"/>
<path d="M484.512 324.532H476.575" stroke="#2E353A" stroke-linecap="round" stroke-linejoin="round"/>
<path d="M476 309.808L470.909 313.776" stroke="#2E353A" stroke-linecap="round" stroke-linejoin="round"/>
<path d="M451.709 350.801L458.39 374.664" stroke="#2E353A" stroke-linecap="round" stroke-linejoin="round"/>
<path d="M445.016 347.928L448.837 360.341" stroke="#2E353A" stroke-linecap="round" stroke-linejoin="round"/>
<path d="M609.668 575.193C609.668 575.193 577.935 516.67 573.419 506.408C568.903 496.147 565.495 479.979 564.386 475.543C562.782 470.338 562.635 464.793 563.959 459.509C565.629 452.027 564.64 430.675 565.389 425.772C566.137 420.868 563.104 405.529 561.38 396.938C559.656 388.346 555.755 382.24 550.491 381.572C548.96 381.389 547.407 381.587 545.971 382.149C544.535 382.711 543.26 383.619 542.26 384.792C542.26 384.792 540.069 366.501 537.944 362.706C535.82 358.911 528.898 359.459 525.197 360.368C521.496 361.276 519.719 373.114 519.719 373.114C519.719 373.114 516.512 361.744 516.419 356.667C516.325 351.589 510.152 347.22 505.342 348.422C500.532 349.625 497.94 351.83 496.631 362.358C495.321 372.887 497.793 389.175 497.793 389.175L495.294 390.19C495.294 390.19 486.289 358.657 483.43 350.333C480.57 342.009 477.818 332.482 475.894 326.283C473.97 320.083 471.11 310.249 463.24 311.759C455.37 313.269 457.308 330.465 457.308 330.465C457.308 330.465 469.614 383.162 470.255 387.318C470.896 391.473 472.927 405.903 472.527 410.714C472.126 415.524 472.139 428.083 472.139 428.083L460.421 414.107C458.977 410.326 457.155 406.7 454.983 403.285C450.975 396.818 442.063 390.792 436.277 392.595C430.492 394.399 435.061 400.358 437.453 403.685C439.845 407.012 441.782 416.352 441.782 421.055C441.782 425.758 445.79 429.072 450.627 437.704C455.464 446.335 479.742 476.158 483.416 481.529C486.137 485.138 489.559 488.161 493.477 490.414C493.477 490.414 507.507 502.64 514.054 517.899C520.601 533.158 540.683 576.97 540.683 576.97" fill="white"/>
<g style="mix-blend-mode:multiply" opacity="0.7">
<path d="M561.62 561.27C568.181 555.257 569.811 506.689 568.982 488.611C568.982 488.464 568.982 488.29 568.982 488.13C566.644 482.09 564.827 477.187 564.413 475.543C562.809 470.338 562.661 464.793 563.985 459.509C565.655 452.027 564.667 430.675 565.415 425.772C565.856 422.872 564.961 416.272 563.812 409.591C559.055 409.177 550.343 413.466 550.343 413.466C550.343 413.466 543.476 403.472 538.999 403.124C534.523 402.777 526.76 409.805 526.76 409.805C526.76 409.805 522.311 394.813 513.172 396.35C504.033 397.887 501.467 396.35 497.86 396.51C494.252 396.671 491.326 387.892 487.718 379.274C484.111 370.656 478.94 338.428 475.88 331.747C475.88 331.747 471.083 318.306 464.87 322.782C458.657 327.258 464.496 341.889 467.409 350.667C470.322 359.446 471.885 376.121 474.25 384.071C476.922 392.929 475.586 406.09 478.031 415.737C480.476 425.384 486.756 428.511 483.296 441.124C479.835 453.737 472.272 449.715 463.841 442.3C455.41 434.884 451.242 417.902 446.472 419.585C444.819 420.004 443.222 420.618 441.715 421.416C441.822 426.039 445.723 429.433 450.56 437.877C455.397 446.322 479.741 476.158 483.416 481.529C486.137 485.138 489.559 488.161 493.477 490.414C493.477 490.414 507.507 502.64 514.054 517.899C515.229 520.638 517.1 524.687 519.398 529.497C522.07 531.634 516.405 521.48 517.795 523.163C527.054 534.026 555.073 567.296 561.62 561.27Z" fill="#009C8E"/>
</g>
<path d="M609.668 575.193C609.668 575.193 577.935 516.67 573.419 506.408C568.903 496.147 565.495 479.979 564.386 475.543C562.782 470.338 562.635 464.793 563.959 459.509C565.629 452.027 564.64 430.675 565.389 425.772C566.137 420.868 563.104 405.529 561.38 396.938C559.656 388.346 555.755 382.24 550.491 381.572C548.96 381.389 547.407 381.587 545.971 382.149C544.535 382.711 543.26 383.619 542.26 384.792C542.26 384.792 540.069 366.501 537.944 362.706C535.82 358.911 528.898 359.459 525.197 360.368C521.496 361.276 519.719 373.114 519.719 373.114C519.719 373.114 516.512 361.744 516.419 356.666C516.325 351.589 510.152 347.22 505.342 348.422C500.532 349.625 497.94 351.83 496.631 362.358C495.321 372.887 497.793 389.175 497.793 389.175L495.294 390.19C495.294 390.19 486.289 358.657 483.43 350.333C480.57 342.009 477.818 332.482 475.894 326.283C473.97 320.083 471.11 310.249 463.24 311.759C455.37 313.269 457.308 330.465 457.308 330.465C457.308 330.465 469.614 383.162 470.255 387.318C470.896 391.473 472.927 405.903 472.527 410.714C472.126 415.524 472.139 428.083 472.139 428.083L460.421 414.107C458.977 410.326 457.155 406.7 454.983 403.285C450.975 396.818 442.063 390.792 436.277 392.595C430.492 394.399 435.061 400.358 437.453 403.685C439.845 407.012 441.782 416.352 441.782 421.055C441.782 425.758 445.79 429.072 450.627 437.704C455.464 446.335 479.742 476.158 483.416 481.529C486.137 485.138 489.559 488.161 493.477 490.414C493.477 490.414 507.507 502.64 514.054 517.899C520.601 533.158 540.683 576.97 540.683 576.97" stroke="#2E353A" stroke-linecap="round" stroke-linejoin="round"/>
<path d="M459.072 315.58C459.072 315.58 460.529 324.612 460.809 325.748C461.437 328.3 471.993 327.084 472.835 325.12C473.583 323.37 473.035 319.575 473.035 319.575" stroke="#2E353A" stroke-linecap="round" stroke-linejoin="round"/>
<path d="M440.994 404.1C441.871 403.208 442.415 402.041 442.535 400.795C442.654 399.55 442.341 398.301 441.648 397.259C439.163 393.557 437.773 392.729 437.773 392.729" stroke="#2E353A" stroke-linecap="round" stroke-linejoin="round"/>
<path d="M471.284 367.917C471.284 367.917 476.001 369.493 480.437 363.681" stroke="#2E353A" stroke-width="0.75" stroke-linecap="round" stroke-linejoin="round"/>
<path d="M471.845 363.815C471.845 363.815 478.138 359.098 482.948 359.486" stroke="#2E353A" stroke-width="0.75" stroke-linecap="round" stroke-linejoin="round"/>
<path d="M465.325 339.163C465.325 339.163 470.042 334.46 473.823 335.475" stroke="#2E353A" stroke-width="0.75" stroke-linecap="round" stroke-linejoin="round"/>
<path d="M469.76 338.054C471.699 338.38 473.685 338.289 475.585 337.787" stroke="#2E353A" stroke-width="0.75" stroke-linecap="round" stroke-linejoin="round"/>
<path d="M519.706 373.155L522.191 387.865" stroke="#2E353A" stroke-linecap="round" stroke-linejoin="round"/>
<path d="M542.246 384.832L544.905 400.278" stroke="#2E353A" stroke-linecap="round" stroke-linejoin="round"/>
<path d="M472.126 428.177C472.126 428.177 471.458 439.734 472.567 444.21" stroke="#2E353A" stroke-linecap="round" stroke-linejoin="round"/>
<path d="M522.204 395.695C522.204 395.695 524.943 402.95 524.275 407.72" stroke="#2E353A" stroke-width="0.75" stroke-linecap="round" stroke-linejoin="round"/>
<path d="M544.611 403.191C544.611 403.191 546.469 406.932 545.36 413.746" stroke="#2E353A" stroke-width="0.75" stroke-linecap="round" stroke-linejoin="round"/>
<path d="M227.117 382.214C227.117 382.214 238.461 380.156 244.634 372.607C250.807 365.058 265.585 355.424 270.395 353.714C275.205 352.003 282.767 351.643 285.52 354.048C288.272 356.453 289.635 362.292 285.52 369.173C281.405 376.054 264.623 382.521 261.122 385.647C257.621 388.774 254.601 390.805 250.433 400.078C246.375 409.061 240.534 417.125 233.263 423.781C226.73 429.62 214.718 439.588 208.531 443.355" fill="white"/>
<g style="mix-blend-mode:multiply" opacity="0.7">
<path d="M261.002 373.582C259.573 367.182 250.313 370.736 250.313 370.736C244.008 377.579 236.245 382.917 227.599 386.356C213.126 391.828 199.141 398.51 185.791 406.331C187.314 403.271 188.971 400.185 190.761 396.978C199.994 380.65 216.322 358.644 225.501 355.798C231.166 354.061 236.818 357.655 240.345 360.702L240.746 294.562H240.519C235.014 295.591 230.899 298.344 230.218 301.778C229.536 305.212 219.221 326.844 215.787 330.972C212.353 335.101 201.357 350.213 200.328 355.704C199.706 359.609 198.307 363.348 196.213 366.701C194.877 368.759 183.84 385.581 175.943 400.706C168.047 415.831 164.653 433.936 164.787 434.964C164.88 435.713 149.595 491.082 139.881 525.929C147.898 510.163 160.364 484.656 167.94 465.803C170.919 465.509 176.692 457.438 181.475 450.865C187.154 443.061 195.665 440.924 212.714 428.15C229.763 415.377 248.91 397.619 251.756 390.524C254.602 383.429 262.419 379.969 261.002 373.582Z" fill="#009C8E"/>
</g>
<path d="M227.117 382.214C227.117 382.214 238.461 380.156 244.634 372.607C250.807 365.058 265.585 355.424 270.395 353.714C275.205 352.003 282.767 351.643 285.52 354.048C288.272 356.453 289.635 362.292 285.52 369.173C281.405 376.054 264.623 382.521 261.122 385.647C257.621 388.774 254.601 390.805 250.433 400.078C246.375 409.061 240.534 417.125 233.263 423.781C226.73 429.62 214.718 439.588 208.531 443.355" stroke="#2E353A" stroke-linecap="round" stroke-linejoin="round"/>
<path d="M285.854 366.487C283.796 369.574 278.639 369.921 278.639 369.921C278.639 369.921 276.581 365.458 275.205 362.706C274.133 360.854 272.594 359.315 270.742 358.243C270.742 358.243 272.466 353.781 275.9 353.781" stroke="#2E353A" stroke-linecap="round" stroke-linejoin="round"/>
<path d="M151.385 451.893C164.061 449.147 177.046 448.092 189.999 448.753C211.926 449.809 217.136 462.329 217.136 462.329L216.094 490.508C216.094 490.508 204.617 482.157 180.606 479.03C156.596 475.904 144.076 477.988 144.076 477.988L151.385 451.893Z" fill="white" stroke="#2E353A" stroke-linecap="round" stroke-linejoin="round"/>
<path d="M217.35 583.383L223.002 492.94C186.472 471.013 144.076 477.988 144.076 477.988L108 583.383H217.35Z" fill="#2E353A" stroke="#2E353A" stroke-linecap="round" stroke-linejoin="round"/>
<path d="M502.456 513.904C502.456 513.904 506.024 499.661 525.611 488.076C545.199 476.492 574.608 480.955 574.608 480.955L579.057 492.526C579.057 492.526 555.007 491.644 537.196 501.438C519.385 511.232 510.473 522.816 510.473 522.816L502.456 513.904Z" fill="white" stroke="#2E353A" stroke-linecap="round" stroke-linejoin="round"/>
<path d="M635.068 583.383L582.21 488.891C582.21 488.891 562.168 483.627 538.118 493.421C514.067 503.214 504.26 521.92 504.26 521.92L514.374 583.383H635.068Z" fill="#2E353A" stroke="#2E353A" stroke-linecap="round" stroke-linejoin="round"/>
<path d="M515.738 524.78C516.406 527.653 515.604 530.298 513.921 530.686C512.237 531.073 510.34 529.069 509.672 526.196C509.004 523.324 509.805 520.678 511.476 520.291C513.146 519.903 515.057 521.907 515.738 524.78Z" fill="white"/>
</svg>
