<svg width="750" height="750" viewBox="0 0 750 750" fill="none" xmlns="http://www.w3.org/2000/svg">
<circle cx="375" cy="375" r="375" fill="#F3F7F9"/>
<path d="M584.345 444.023C579.793 444.792 571.265 450.655 571.254 450.655C571.243 450.655 576.824 455.108 577.214 455.347C581.711 458.078 592.017 460.711 596.471 456.842C597.193 456.181 597.768 455.375 598.158 454.477C598.548 453.579 598.745 452.609 598.736 451.63C598.727 450.651 598.512 449.684 598.105 448.794C597.698 447.903 597.108 447.108 596.373 446.461C593.339 443.611 588.224 443.361 584.345 444.023Z" fill="#009C8E"/>
<path d="M564.946 420.897C560.925 422.761 554.662 430.054 554.163 430.65C549.999 427.06 545.6 423.751 540.997 420.746C538.32 418.979 535.578 417.289 532.804 415.62C534.181 416.194 535.416 416.704 535.6 416.704C540.661 418.145 551.292 417.971 554.575 413.073C555.098 412.244 555.44 411.315 555.579 410.345C555.718 409.375 555.652 408.387 555.384 407.444C555.116 406.502 554.653 405.626 554.025 404.875C553.396 404.123 552.616 403.512 551.736 403.082C548.062 401.131 543.067 402.248 539.49 403.906C535.914 405.564 530.409 411.697 528.979 413.333C527.895 412.705 526.812 412.065 525.728 411.448C520.581 408.446 515.422 405.488 510.459 402.421C508.704 401.337 507.024 400.254 505.333 399.105C506.558 399.603 507.598 400.026 507.761 400.069C512.822 401.521 523.452 401.337 526.725 396.439C527.247 395.61 527.59 394.681 527.729 393.711C527.868 392.741 527.802 391.753 527.534 390.81C527.266 389.868 526.803 388.992 526.174 388.24C525.546 387.489 524.766 386.878 523.886 386.448C520.212 384.497 515.216 385.613 511.651 387.271C508.086 388.929 503.101 394.467 501.4 396.407C499.698 395.204 497.997 394.012 496.415 392.766C495.331 391.899 494.248 391.14 493.24 390.197L490.173 387.521C488.287 385.743 486.337 383.923 484.538 382.102C483.281 380.878 482.111 379.686 480.919 378.483C482.652 379.567 486.077 381.647 486.391 381.788C491.17 383.955 501.703 385.418 505.691 381.073C506.333 380.332 506.811 379.465 507.095 378.527C507.379 377.589 507.463 376.602 507.34 375.63C507.217 374.658 506.891 373.722 506.383 372.884C505.875 372.047 505.196 371.325 504.391 370.767C501.064 368.275 495.949 368.6 492.167 369.684C488.017 370.886 480.973 376.868 480.106 377.627C478.144 375.633 476.259 373.682 474.503 371.808C470.635 367.679 467.275 363.908 464.49 360.667L461.239 362.835C464.198 366.086 467.795 370.009 471.978 374.267C473.951 376.294 476.107 378.429 478.35 380.596C476.637 383.025 475.077 385.558 473.68 388.182C469.345 387.098 460.795 388.127 459.701 388.268C459.159 385.527 458.617 382.85 458.238 380.325C457.338 375.037 456.645 370.28 456.07 366.183L452.57 368.47C453.155 372.187 453.87 376.37 454.737 380.954C455.268 383.739 455.897 386.708 456.558 389.742C455.474 390.154 446.903 393.578 443.89 396.699C441.159 399.517 438.472 403.884 439.1 407.991C439.216 408.963 439.536 409.9 440.039 410.74C440.541 411.581 441.216 412.306 442.017 412.868C442.819 413.431 443.73 413.818 444.691 414.004C445.652 414.191 446.642 414.173 447.596 413.951C453.296 412.466 456.959 402.486 457.262 397.23C457.262 396.916 457.089 393.535 456.937 391.4C457.219 392.635 457.479 393.849 457.782 395.117C458.368 397.642 459.029 400.145 459.722 402.833C460.102 404.122 460.492 405.423 460.882 406.734C461.272 408.045 461.792 409.389 462.236 410.733C463.32 413.821 464.62 416.888 465.975 419.955C463.808 420.475 455.962 422.425 452.808 424.809C449.655 427.193 446.306 431.095 446.361 435.256C446.329 436.234 446.504 437.209 446.874 438.115C447.244 439.022 447.801 439.84 448.508 440.517C449.216 441.194 450.058 441.714 450.98 442.044C451.902 442.373 452.883 442.505 453.86 442.43C459.722 441.823 464.859 432.514 465.953 427.367C466.018 427.042 466.387 423.26 466.538 421.179C467.373 423.021 468.186 424.853 469.085 426.684C471.686 431.972 474.503 437.25 477.223 442.516C478.079 444.131 478.903 445.767 479.727 447.371C478.946 447.545 469.605 449.658 466.083 452.334C462.952 454.718 459.581 458.62 459.636 462.781C459.602 463.76 459.776 464.735 460.145 465.642C460.514 466.55 461.071 467.369 461.779 468.046C462.487 468.723 463.33 469.243 464.253 469.572C465.176 469.901 466.158 470.031 467.134 469.955C472.997 469.348 478.123 460.039 479.217 454.892C479.293 454.502 479.813 449.062 479.878 447.664C481.71 451.229 483.498 454.794 485.123 458.381C487.391 463.235 489.342 468.23 490.964 473.336C490.596 473.422 480.843 475.59 477.234 478.32C474.102 480.705 470.732 484.606 470.732 488.767C470.7 489.746 470.875 490.72 471.245 491.627C471.615 492.533 472.172 493.352 472.88 494.028C473.587 494.705 474.43 495.225 475.352 495.555C476.274 495.884 477.255 496.016 478.231 495.941C484.094 495.334 489.23 486.025 490.325 480.878C490.401 480.477 490.964 474.614 490.986 473.542C491.072 473.834 491.203 474.138 491.289 474.43C492.725 479.568 493.704 484.822 494.215 490.132C494.529 493.069 494.659 495.887 494.735 498.628C492.871 498.845 484.397 499.929 480.875 502.031C477.353 504.133 473.766 507.568 473.29 511.708C473.154 512.677 473.223 513.663 473.493 514.603C473.762 515.543 474.226 516.417 474.854 517.166C475.482 517.916 476.261 518.525 477.139 518.955C478.018 519.385 478.977 519.626 479.954 519.662C485.849 519.662 491.983 510.993 493.63 506.019C493.717 505.748 494.323 502.876 494.714 500.785C494.714 502.02 494.714 503.299 494.714 504.491C494.714 508.945 494.389 513.03 494.085 516.639C493.901 518.687 493.695 520.54 493.478 522.274C491.766 523.444 484.928 528.223 482.815 531.647C480.702 535.072 479.044 539.829 480.561 543.709C480.883 544.634 481.396 545.48 482.068 546.194C482.739 546.907 483.554 547.471 484.457 547.848C485.361 548.225 486.335 548.408 487.314 548.384C488.293 548.359 489.256 548.129 490.141 547.707C495.396 545.02 496.827 534.487 495.981 529.285C495.906 528.83 493.966 521.938 493.879 522.003L493.771 522.068C494.009 520.41 494.248 518.622 494.464 516.65C494.844 513.03 495.234 508.945 495.364 504.48C495.555 499.657 495.464 494.826 495.093 490.013C494.699 484.626 493.829 479.284 492.492 474.051C492.492 473.986 492.492 473.932 492.492 473.867C493.413 475.33 496.122 479.285 496.361 479.61C499.785 483.609 508.758 489.363 514.198 487.044C515.09 486.641 515.888 486.054 516.538 485.323C517.189 484.591 517.678 483.73 517.973 482.796C518.269 481.863 518.364 480.878 518.253 479.905C518.142 478.932 517.828 477.993 517.33 477.15C515.346 473.498 510.557 471.667 506.666 471.082C502.332 470.421 493.034 473.054 492.297 473.249C490.805 467.959 488.963 462.775 486.781 457.731C485.524 454.783 484.17 451.847 482.772 448.932C483.606 450.167 484.365 451.272 484.484 451.413C487.908 455.412 496.881 461.166 502.31 458.847C503.203 458.445 504.002 457.859 504.653 457.128C505.305 456.396 505.795 455.536 506.092 454.602C506.388 453.669 506.485 452.683 506.374 451.71C506.264 450.736 505.95 449.797 505.453 448.953C503.47 445.291 498.68 443.47 494.789 442.874C490.899 442.278 482.869 444.369 480.832 444.944C480.279 443.86 479.748 442.711 479.196 441.606C476.541 436.264 473.875 430.954 471.426 425.655C470.559 423.791 469.779 421.927 468.988 420.052C469.724 421.136 470.364 422.068 470.472 422.219C473.896 426.218 482.869 431.972 488.309 429.664C489.202 429.26 489.999 428.672 490.65 427.939C491.301 427.207 491.789 426.345 492.085 425.411C492.38 424.476 492.476 423.49 492.365 422.516C492.254 421.543 491.939 420.603 491.441 419.759C489.458 416.108 484.668 414.276 480.778 413.691C476.887 413.106 469.681 414.981 467.189 415.663C466.441 413.724 465.682 411.784 465.021 409.876C464.61 408.565 464.122 407.33 463.786 405.986C463.45 404.642 463.071 403.353 462.702 402.052C462.106 399.528 461.489 396.938 460.968 394.467C460.6 392.755 460.275 391.108 459.95 389.45C460.784 391.324 462.507 394.944 462.681 395.225C465.275 399.063 468.808 402.174 472.943 404.263C473.209 404.704 473.518 405.118 473.864 405.499C474.498 406.245 475.283 406.849 476.166 407.273C477.05 407.696 478.013 407.928 478.992 407.955C479.971 407.981 480.945 407.801 481.85 407.427C482.755 407.052 483.571 406.491 484.245 405.78C488.179 401.391 485.73 391.053 483.075 386.502C482.923 386.231 480.908 383.511 479.597 381.821C480.518 382.698 481.395 383.565 482.349 384.454C484.235 386.242 486.164 387.965 488.222 389.872L491.343 392.484C492.373 393.383 493.565 394.196 494.681 395.063C497.314 397.024 500.099 398.888 502.895 400.698C501.335 402.345 495.895 408.284 494.584 412.011C493.272 415.739 492.665 420.811 494.963 424.278C495.478 425.111 496.162 425.826 496.971 426.378C497.781 426.929 498.697 427.304 499.66 427.479C500.623 427.653 501.613 427.624 502.564 427.392C503.515 427.16 504.407 426.73 505.182 426.131C509.744 422.382 508.888 411.784 506.948 406.896C506.829 406.582 505.052 403.234 504.033 401.402C505.734 402.486 507.436 403.57 509.191 404.588C514.274 407.579 519.508 410.429 524.72 413.312C526.313 414.189 527.895 415.089 529.477 415.977C528.925 416.552 522.304 423.476 520.808 427.649C519.508 431.355 518.879 436.448 521.187 439.916C521.701 440.748 522.385 441.463 523.193 442.014C524.001 442.565 524.916 442.941 525.879 443.115C526.841 443.29 527.83 443.261 528.78 443.028C529.731 442.796 530.622 442.367 531.396 441.769C535.958 438.019 535.102 427.421 533.173 422.534C533.021 422.165 530.453 417.332 529.738 416.14C533.227 418.101 536.684 420.085 540.021 422.187C544.532 425.002 548.858 428.104 552.971 431.474C552.711 431.745 545.765 438.929 544.302 443.21C543.002 446.916 542.373 452.009 544.681 455.477C545.196 456.31 545.88 457.026 546.69 457.577C547.5 458.128 548.416 458.503 549.38 458.677C550.344 458.85 551.333 458.819 552.284 458.585C553.236 458.352 554.127 457.92 554.9 457.319C559.451 453.581 558.595 442.982 556.666 438.084C556.515 437.705 553.741 432.514 553.177 431.582L553.914 432.157C557.944 435.651 561.654 439.499 565 443.654C566.875 445.93 568.543 448.206 570.115 450.449C568.684 451.652 562.215 457.243 560.438 460.939C558.66 464.634 557.555 469.478 559.473 473.173C559.892 474.058 560.492 474.846 561.235 475.483C561.979 476.121 562.848 476.595 563.786 476.874C564.725 477.153 565.712 477.231 566.683 477.103C567.654 476.975 568.587 476.644 569.421 476.131C574.363 472.881 574.677 462.293 573.29 457.211C573.214 456.929 572.141 454.209 571.328 452.237C572.022 453.266 572.759 454.307 573.409 455.304C575.836 459.042 577.841 462.607 579.586 465.793C580.561 467.603 581.406 469.261 582.187 470.822C581.396 472.74 578.329 480.499 578.459 484.53C578.589 488.561 579.835 493.427 583.227 495.832C584.007 496.424 584.904 496.845 585.857 497.068C586.811 497.291 587.801 497.311 588.763 497.126C589.725 496.941 590.637 496.555 591.44 495.994C592.243 495.434 592.919 494.71 593.424 493.871C596.328 488.745 591.712 479.166 588.136 475.297C587.833 474.961 582.403 470.28 582.371 470.377L582.317 470.496C581.601 468.979 580.81 467.365 579.922 465.609C578.242 462.358 576.313 458.771 573.951 454.968C571.453 450.837 568.714 446.856 565.748 443.047C562.455 438.755 558.785 434.766 554.781 431.127L554.629 431.008C556.201 431.723 560.665 433.565 561.023 433.663C566.083 435.115 576.714 434.931 579.998 430.033C580.52 429.204 580.862 428.274 581.002 427.304C581.141 426.334 581.075 425.346 580.807 424.404C580.539 423.461 580.076 422.585 579.447 421.834C578.819 421.082 578.039 420.471 577.159 420.041C573.517 418.123 568.511 419.272 564.946 420.897Z" fill="#009C8E"/>
<path d="M495.516 499.463C495.408 499.463 497.684 506.247 497.9 506.658C500.144 511.416 507.285 519.294 513.126 518.579C514.088 518.425 515.008 518.071 515.825 517.54C516.642 517.009 517.339 516.313 517.871 515.496C518.403 514.679 518.758 513.76 518.913 512.798C519.068 511.836 519.02 510.852 518.772 509.909C517.818 505.856 513.689 502.822 510.103 501.24C505.865 499.235 495.516 499.463 495.516 499.463Z" fill="#009C8E"/>
<path d="M262.963 266.476C266.214 264.633 270.972 257.806 270.972 257.806C270.972 257.806 265.553 255.997 265.185 255.932C261.045 255.13 252.56 256.008 250.274 260.147C249.914 260.846 249.705 261.613 249.66 262.397C249.616 263.182 249.737 263.967 250.016 264.702C250.295 265.437 250.726 266.105 251.28 266.663C251.834 267.22 252.499 267.655 253.232 267.939C256.31 269.315 260.233 268.069 262.963 266.476Z" fill="#009C8E"/>
<path d="M283.986 278.515C286.489 275.99 289.177 268.762 289.404 268.188C293.534 269.734 297.762 271.001 302.061 271.981C304.565 272.566 307.111 273.064 309.647 273.563C308.455 273.563 307.382 273.476 307.231 273.487C303.015 273.812 295.072 276.9 293.956 281.495C293.795 282.264 293.798 283.059 293.964 283.827C294.13 284.595 294.456 285.319 294.919 285.954C295.383 286.588 295.975 287.118 296.656 287.509C297.338 287.9 298.094 288.144 298.876 288.225C302.181 288.68 305.638 286.447 307.859 284.204C310.081 281.961 312.53 275.817 313.147 274.191L316.084 274.722C320.798 275.535 325.501 276.337 330.096 277.258C331.71 277.583 333.293 277.962 334.875 278.342C333.791 278.342 332.913 278.277 332.772 278.342C328.568 278.656 320.614 281.744 319.508 286.35C319.346 287.119 319.348 287.913 319.512 288.681C319.677 289.449 320.001 290.173 320.464 290.808C320.927 291.443 321.518 291.973 322.199 292.364C322.88 292.755 323.636 292.999 324.417 293.079C327.733 293.524 331.179 291.291 333.412 289.059C335.644 286.827 337.844 281.257 338.581 279.306C340.196 279.74 341.832 280.162 343.349 280.661C344.433 281.018 345.419 281.289 346.448 281.744L349.504 282.915C351.411 283.727 353.394 284.551 355.237 285.396C356.526 285.971 357.74 286.48 358.965 287.109C357.361 286.773 354.207 286.166 353.936 286.144C349.721 285.819 341.398 287.672 339.6 292.05C339.322 292.786 339.203 293.572 339.25 294.356C339.297 295.141 339.508 295.907 339.872 296.605C340.235 297.302 340.741 297.915 341.357 298.404C341.973 298.893 342.685 299.246 343.446 299.441C346.697 300.394 350.393 298.715 352.939 296.84C355.724 294.77 359.365 288.311 359.81 287.499C361.836 288.452 363.798 289.406 365.64 290.327C369.704 292.353 373.225 294.261 376.271 295.919L378.124 293.426C374.981 291.768 371.199 289.85 366.864 287.802C364.816 286.827 362.595 285.819 360.308 284.811C360.917 282.508 361.388 280.17 361.717 277.811C365.261 277.421 371.47 274.267 372.218 273.855C373.377 275.763 374.493 277.637 375.469 279.425C377.636 283.153 379.457 286.545 380.995 289.482L382.989 286.783C381.526 284.15 379.814 281.203 377.874 277.995C376.704 276.055 375.414 273.996 374.06 271.894C374.743 271.287 380.258 266.313 381.646 263.138C382.913 260.245 383.737 256.213 382.111 253.298C381.758 252.595 381.259 251.975 380.649 251.478C380.039 250.981 379.331 250.618 378.571 250.413C377.811 250.209 377.016 250.167 376.239 250.291C375.461 250.414 374.719 250.701 374.06 251.131C370.18 253.84 370.191 262.369 371.437 266.411C371.502 266.649 372.586 269.141 373.29 270.745C372.738 269.889 372.207 269.055 371.622 268.188C370.538 266.443 369.292 264.742 368.024 262.91L366.062 260.299C365.434 259.41 364.643 258.554 363.895 257.665C362.194 255.65 360.384 253.699 358.477 251.76C359.994 250.763 365.336 247.121 367.038 244.445C368.739 241.768 370.159 237.943 368.988 234.8C368.74 234.055 368.338 233.37 367.807 232.79C367.277 232.21 366.63 231.748 365.91 231.434C365.189 231.121 364.411 230.962 363.625 230.969C362.839 230.975 362.064 231.147 361.349 231.473C357.111 233.565 355.833 241.996 356.44 246.179C356.44 246.439 357.252 249.43 357.718 251.001C356.58 249.852 355.453 248.693 354.272 247.566C350.848 244.315 347.283 241.064 343.739 237.91L340.488 234.952C341.03 234.605 347.467 230.411 349.385 227.42C351.075 224.766 352.495 220.919 351.336 217.765C351.085 217.027 350.683 216.35 350.156 215.776C349.629 215.203 348.988 214.745 348.275 214.433C347.561 214.121 346.79 213.961 346.011 213.964C345.231 213.967 344.462 214.132 343.75 214.449C339.502 216.541 338.223 224.971 338.841 229.154C338.841 229.469 340.011 233.706 340.347 234.768C337.974 232.6 335.644 230.433 333.423 228.157C330.465 225.109 327.707 221.873 325.165 218.469C325.414 218.307 332.155 213.961 334.116 210.884C335.807 208.229 337.226 204.382 336.067 201.239C335.817 200.501 335.417 199.822 334.89 199.247C334.363 198.672 333.723 198.214 333.009 197.9C332.295 197.587 331.523 197.427 330.744 197.429C329.964 197.431 329.193 197.596 328.481 197.912C324.233 200.004 322.965 208.435 323.572 212.618C323.572 212.943 324.829 217.505 325.111 218.318C324.959 218.123 324.786 217.938 324.634 217.733C322.144 214.263 319.968 210.578 318.132 206.723C317.049 204.555 316.192 202.518 315.38 200.481C316.713 199.798 322.792 196.623 324.862 194.055C326.932 191.486 328.676 187.921 327.863 184.681C327.699 183.912 327.375 183.187 326.912 182.552C326.448 181.917 325.856 181.387 325.174 180.997C324.492 180.606 323.735 180.364 322.953 180.285C322.171 180.207 321.381 180.294 320.635 180.541C316.182 182.145 313.993 190.392 314.133 194.629C314.133 194.856 314.48 197.176 314.751 198.866C314.394 197.934 314.014 196.991 313.668 196.092C312.454 192.722 311.5 189.59 310.763 186.772C310.341 185.179 309.972 183.727 309.68 182.362C310.644 181.007 314.469 175.513 315.098 172.338C315.726 169.163 315.651 165.132 313.44 162.585C312.939 161.98 312.317 161.487 311.613 161.137C310.91 160.788 310.141 160.591 309.356 160.558C308.571 160.525 307.788 160.658 307.058 160.948C306.328 161.237 305.667 161.677 305.117 162.238C301.866 165.717 303.763 174.039 305.833 177.724C306.017 178.038 309.398 182.687 309.441 182.622L309.506 182.535C309.788 183.857 310.102 185.255 310.482 186.794C311.197 189.622 312.042 192.798 313.191 196.2C314.385 199.891 315.792 203.509 317.406 207.037C319.201 210.985 321.341 214.767 323.8 218.339L323.897 218.459C322.814 217.613 319.649 215.359 319.389 215.208C315.694 213.16 307.361 211.35 303.904 214.568C303.344 215.12 302.907 215.783 302.62 216.514C302.333 217.246 302.203 218.029 302.239 218.814C302.275 219.599 302.475 220.367 302.828 221.07C303.18 221.772 303.676 222.393 304.283 222.891C306.797 225.058 310.915 225.134 314.036 224.495C317.514 223.779 323.789 219.228 324.244 218.86C326.838 222.431 329.669 225.823 332.718 229.013C334.474 230.888 336.316 232.709 338.137 234.518C337.161 233.825 336.283 233.207 336.153 233.131C332.458 231.072 324.125 229.263 320.668 232.492C320.108 233.043 319.671 233.706 319.384 234.438C319.097 235.169 318.968 235.953 319.003 236.738C319.039 237.523 319.24 238.291 319.592 238.994C319.944 239.696 320.44 240.316 321.047 240.815C323.561 242.982 327.679 243.058 330.8 242.418C333.921 241.779 339.318 237.997 340.737 237L342.905 239.059C346.383 242.31 349.862 245.561 353.178 248.909C354.359 250.069 355.464 251.261 356.58 252.442C355.714 251.825 354.977 251.304 354.857 251.239C351.173 249.18 342.829 247.382 339.372 250.6C338.813 251.152 338.376 251.816 338.09 252.548C337.805 253.279 337.676 254.063 337.713 254.848C337.75 255.633 337.951 256.401 338.304 257.103C338.657 257.805 339.154 258.425 339.762 258.923C342.265 261.09 346.383 261.166 349.515 260.526C352.647 259.887 357.512 256.473 359.192 255.271C360.276 256.517 361.359 257.763 362.443 259.031C363.115 259.898 363.83 260.7 364.459 261.621L366.355 264.276C367.504 266.01 368.696 267.787 369.769 269.51C370.527 270.702 371.232 271.851 371.936 272.999C370.787 271.829 368.479 269.586 368.273 269.412C365.25 267.248 361.726 265.891 358.033 265.468C357.696 265.203 357.333 264.974 356.949 264.785C356.264 264.401 355.505 264.165 354.723 264.093C353.941 264.02 353.152 264.114 352.408 264.366C351.664 264.618 350.982 265.024 350.405 265.558C349.828 266.091 349.37 266.74 349.06 267.462C347.315 271.861 352.04 278.959 355.302 281.647C355.497 281.809 357.772 283.294 359.225 284.204C358.293 283.803 357.382 283.392 356.418 282.991C354.511 282.167 352.571 281.408 350.501 280.585L347.424 279.501C346.405 279.111 345.256 278.829 344.173 278.483C341.648 277.746 339.047 277.106 336.424 276.532C337.14 274.852 339.578 268.871 339.524 265.695C339.469 262.52 338.527 258.532 335.828 256.571C335.21 256.087 334.497 255.738 333.735 255.548C332.973 255.357 332.179 255.329 331.406 255.465C330.632 255.601 329.896 255.898 329.245 256.337C328.593 256.775 328.041 257.346 327.625 258.012C325.241 262.098 328.828 269.835 331.645 272.978C331.819 273.183 334.095 275.21 335.362 276.304C333.78 275.968 332.209 275.622 330.594 275.34C325.945 274.506 321.21 273.812 316.507 273.086L312.172 272.403C312.432 271.818 315.488 264.763 315.423 261.22C315.369 258.066 314.426 254.057 311.728 252.095C311.109 251.611 310.396 251.263 309.634 251.072C308.872 250.882 308.079 250.853 307.305 250.989C306.532 251.125 305.795 251.422 305.144 251.861C304.493 252.3 303.941 252.871 303.524 253.537C301.14 257.622 304.727 265.359 307.534 268.513C307.751 268.74 311.023 271.666 311.869 272.371C308.693 271.861 305.54 271.287 302.441 270.669C298.265 269.805 294.15 268.672 290.12 267.278C290.239 267.007 293.468 259.692 293.371 256.029C293.316 252.876 292.374 248.866 289.675 246.905C289.057 246.421 288.343 246.072 287.582 245.881C286.82 245.691 286.026 245.663 285.253 245.799C284.479 245.934 283.743 246.231 283.091 246.67C282.44 247.109 281.888 247.68 281.472 248.346C279.088 252.431 282.675 260.169 285.492 263.322C285.709 263.561 289.242 266.703 289.914 267.223C289.686 267.147 289.437 267.082 289.198 266.996C285.194 265.486 281.331 263.621 277.657 261.426C275.62 260.245 273.735 258.988 271.925 257.741C272.662 256.43 275.989 250.427 276.26 247.154C276.53 243.881 276.054 239.926 273.594 237.672C273.031 237.123 272.36 236.698 271.623 236.424C270.885 236.151 270.099 236.036 269.314 236.086C268.53 236.136 267.764 236.35 267.068 236.715C266.371 237.08 265.759 237.587 265.271 238.203C262.454 242.007 265.174 250.123 267.623 253.526C267.753 253.721 269.324 255.466 270.484 256.777C269.671 256.203 268.826 255.617 268.067 255.043C265.195 252.876 262.703 250.784 260.481 248.877C259.246 247.793 258.141 246.764 257.122 245.81C257.187 244.152 257.339 237.455 256.125 234.453C254.911 231.452 252.614 228.136 249.385 227.28C248.631 227.052 247.838 226.985 247.057 227.084C246.276 227.183 245.524 227.446 244.852 227.855C244.179 228.264 243.6 228.81 243.152 229.458C242.705 230.105 242.399 230.84 242.254 231.614C241.496 236.285 247.673 242.212 251.4 244.131C251.725 244.293 257.1 246.298 257.111 246.222V246.124C258.076 247.067 259.116 248.064 260.276 249.137C262.443 251.088 264.892 253.287 267.731 255.487C270.757 257.902 273.923 260.135 277.213 262.173C280.885 264.477 284.755 266.45 288.776 268.069L288.917 268.123C287.54 268.014 283.661 267.874 283.368 267.895C279.153 268.22 271.199 271.309 270.094 275.903C269.931 276.672 269.933 277.466 270.097 278.234C270.262 279.002 270.586 279.727 271.049 280.362C271.512 280.996 272.103 281.526 272.784 281.918C273.465 282.309 274.221 282.553 275.003 282.633C278.319 282.991 281.819 280.758 283.986 278.515Z" fill="#009C8E"/>
<path d="M314.436 200.112C314.512 200.112 310.903 195.615 310.643 195.366C307.631 192.407 300.067 188.452 295.906 190.619C295.22 191.003 294.623 191.527 294.153 192.157C293.683 192.787 293.352 193.509 293.18 194.276C293.008 195.043 293 195.838 293.156 196.608C293.312 197.378 293.629 198.107 294.085 198.747C295.916 201.532 299.872 202.67 303.025 202.865C306.742 203.135 314.425 200.123 314.436 200.112Z" fill="#009C8E"/>
<g opacity="0.1">
<path opacity="0.1" d="M187.269 305.195C187.421 304.035 186.077 302.767 186.077 301.575C186.077 300.383 187.421 299.105 187.269 297.956C187.118 296.807 185.492 295.886 185.189 294.705C184.885 293.524 185.85 291.985 185.395 290.901C184.94 289.818 183.152 289.373 182.556 288.365C181.96 287.358 182.491 285.57 181.775 284.638C181.06 283.706 179.207 283.749 178.373 282.915C177.538 282.08 177.592 280.238 176.65 279.512C175.707 278.786 173.951 279.317 172.922 278.732C171.892 278.147 171.481 276.348 170.386 275.893C169.292 275.437 167.731 276.402 166.582 276.098C165.434 275.795 164.567 274.17 163.386 274.018C162.204 273.866 160.969 275.21 159.766 275.21C158.563 275.21 157.306 273.92 156.114 274.061C154.922 274.202 154.055 275.838 152.928 276.142C151.801 276.445 150.197 275.481 149.114 275.936C148.03 276.391 147.597 278.179 146.578 278.775C145.559 279.371 143.782 278.84 142.85 279.555C141.918 280.271 141.962 282.124 141.127 282.958C140.293 283.792 138.451 283.738 137.735 284.681C137.02 285.624 137.54 287.379 136.944 288.409C136.348 289.438 134.56 289.85 134.105 290.945C133.65 292.039 134.625 293.6 134.311 294.748C133.997 295.897 132.393 296.764 132.23 297.999C132.068 299.235 133.422 300.427 133.422 301.619C133.422 302.811 132.089 304.079 132.23 305.238C132.371 306.398 134.008 307.297 134.311 308.489C134.614 309.681 133.661 311.209 134.105 312.293C134.549 313.376 136.359 313.81 136.944 314.828C137.529 315.847 137.009 317.624 137.735 318.556C138.461 319.488 140.293 319.445 141.127 320.279C141.962 321.114 141.918 322.956 142.85 323.682C143.782 324.408 145.559 323.877 146.578 324.462C147.597 325.047 148.03 326.846 149.125 327.301C150.219 327.757 151.78 326.792 152.928 327.095C154.077 327.399 154.933 329.014 156.114 329.176C157.295 329.339 158.542 327.984 159.734 327.984C160.926 327.984 162.204 329.328 163.353 329.176C164.502 329.024 165.423 327.399 166.55 327.095C167.677 326.792 169.27 327.746 170.354 327.301C171.437 326.857 171.881 325.047 172.889 324.462C173.897 323.877 175.685 324.397 176.617 323.671C177.549 322.945 177.506 321.114 178.34 320.279C179.175 319.445 181.028 319.488 181.743 318.556C182.458 317.624 181.938 315.858 182.534 314.828C183.13 313.799 184.918 313.387 185.362 312.293C185.807 311.198 184.853 309.627 185.156 308.489C185.46 307.351 187.118 306.376 187.269 305.195ZM159.766 322.913C155.546 322.913 151.421 321.661 147.912 319.317C144.403 316.972 141.668 313.64 140.053 309.741C138.438 305.842 138.016 301.552 138.839 297.413C139.662 293.274 141.694 289.472 144.678 286.488C147.662 283.503 151.464 281.471 155.603 280.648C159.742 279.825 164.033 280.247 167.932 281.862C171.83 283.477 175.163 286.212 177.507 289.721C179.852 293.23 181.103 297.355 181.103 301.575C181.101 307.233 178.852 312.659 174.851 316.66C170.85 320.661 165.424 322.91 159.766 322.913Z" fill="black"/>
<path opacity="0.1" d="M171.837 313.646C178.502 306.981 178.502 296.174 171.837 289.509C165.172 282.844 154.365 282.844 147.7 289.509C141.034 296.174 141.034 306.981 147.7 313.646C154.365 320.312 165.172 320.312 171.837 313.646Z" fill="black"/>
</g>
<g opacity="0.1">
<path opacity="0.1" d="M609.897 297.198C610.092 295.659 608.304 293.947 608.304 292.364C608.304 290.782 610.092 289.113 609.897 287.531C609.702 285.949 607.524 284.779 607.123 283.273C606.722 281.766 608.001 279.631 607.394 278.19C606.787 276.749 604.392 276.153 603.612 274.798C602.832 273.444 603.514 271.07 602.528 269.824C601.542 268.578 599.104 268.643 597.988 267.527C596.872 266.411 596.904 263.951 595.69 262.986C594.477 262.022 592.082 262.726 590.716 261.903C589.351 261.079 588.788 258.728 587.325 258.121C585.862 257.514 583.781 258.803 582.242 258.392C580.703 257.98 579.566 255.823 577.983 255.617C576.401 255.412 574.732 257.21 573.15 257.21C571.568 257.21 569.899 255.422 568.317 255.617C566.735 255.813 565.565 257.991 564.058 258.392C562.552 258.793 560.428 257.525 558.976 258.121C557.524 258.717 556.95 261.122 555.584 261.914C554.219 262.705 551.856 262 550.61 262.997C549.364 263.994 549.483 266.411 548.399 267.559C547.316 268.708 544.823 268.643 543.87 269.857C542.916 271.07 543.61 273.465 542.786 274.831C541.963 276.196 539.6 276.76 538.993 278.223C538.386 279.686 539.687 281.766 539.275 283.305C538.863 284.844 536.707 285.982 536.501 287.564C536.295 289.146 538.083 290.815 538.083 292.397C538.083 293.979 536.295 295.648 536.501 297.23C536.707 298.812 538.874 299.983 539.275 301.489C539.676 302.995 538.397 305.119 538.993 306.571C539.589 308.023 541.995 308.598 542.786 309.963C543.577 311.328 542.884 313.691 543.87 314.937C544.856 316.183 547.294 316.118 548.399 317.234C549.505 318.351 549.483 320.811 550.697 321.764C551.911 322.718 554.305 322.024 555.682 322.848C557.058 323.671 557.611 326.034 559.074 326.641C560.536 327.247 562.617 325.958 564.145 326.359C565.673 326.76 566.833 328.927 568.404 329.133C569.975 329.339 571.655 327.551 573.237 327.551C574.819 327.551 576.488 329.339 578.07 329.133C579.652 328.927 580.823 326.76 582.329 326.359C583.835 325.958 585.97 327.237 587.411 326.641C588.853 326.045 589.449 323.639 590.803 322.848C592.158 322.057 594.531 322.761 595.777 321.764C597.023 320.767 596.958 318.34 598.074 317.234C599.191 316.129 601.651 316.151 602.615 314.937C603.579 313.723 602.875 311.328 603.699 309.963C604.522 308.598 606.874 308.023 607.481 306.571C608.087 305.119 606.798 303.017 607.21 301.489C607.622 299.961 609.691 298.769 609.897 297.198ZM573.183 320.843C567.55 320.843 562.044 319.173 557.361 316.044C552.678 312.914 549.027 308.466 546.872 303.263C544.717 298.059 544.153 292.333 545.251 286.809C546.35 281.284 549.063 276.21 553.045 272.227C557.028 268.244 562.103 265.532 567.627 264.433C573.151 263.334 578.877 263.898 584.081 266.054C589.285 268.209 593.733 271.859 596.862 276.543C599.991 281.226 601.661 286.732 601.661 292.364C601.659 299.917 598.657 307.158 593.317 312.499C587.977 317.839 580.735 320.84 573.183 320.843Z" fill="black"/>
<path opacity="0.1" d="M586.308 308.56C596.372 301.012 598.412 286.735 590.864 276.671C583.316 266.606 569.038 264.567 558.974 272.115C548.91 279.663 546.87 293.941 554.418 304.005C561.966 314.069 576.244 316.109 586.308 308.56Z" fill="black"/>
</g>
<g opacity="0.1">
<path opacity="0.1" d="M550.111 528.862C545.396 528.862 540.787 530.261 536.866 532.88C532.945 535.5 529.89 539.223 528.085 543.579C526.281 547.936 525.809 552.729 526.729 557.354C527.649 561.979 529.919 566.226 533.253 569.561C536.587 572.895 540.835 575.165 545.46 576.085C550.085 577.005 554.878 576.533 559.234 574.729C563.591 572.924 567.314 569.868 569.934 565.948C572.553 562.027 573.952 557.418 573.952 552.703C573.952 546.38 571.44 540.316 566.969 535.845C562.498 531.374 556.434 528.862 550.111 528.862ZM551.65 569.24V571.754H548.616V569.24C544.498 568.676 542.645 565.544 542.645 561.047V559.064H546.102V561.34C546.102 564.32 547.337 566.032 549.992 566.032C552.647 566.032 553.882 564.32 553.882 561.34C553.882 553.949 542.786 553.852 542.786 544.51C542.786 539.959 544.639 536.979 548.616 536.361V533.706H551.65V536.307C555.681 536.881 557.523 540.002 557.523 544.456V545.356H554.066V544.218C554.066 541.281 552.885 539.482 550.23 539.482C547.575 539.482 546.437 541.281 546.437 544.218C546.437 551.663 557.577 551.706 557.577 561.047C557.577 565.501 555.681 568.676 551.65 569.24Z" fill="black"/>
<path opacity="0.1" d="M550.111 513.691C542.396 513.691 534.853 515.979 528.438 520.266C522.022 524.552 517.022 530.645 514.069 537.774C511.117 544.902 510.344 552.746 511.849 560.314C513.355 567.881 517.07 574.832 522.526 580.288C527.982 585.744 534.933 589.46 542.501 590.965C550.068 592.47 557.912 591.698 565.041 588.745C572.169 585.792 578.262 580.792 582.549 574.376C586.835 567.961 589.123 560.418 589.123 552.703C589.123 542.356 585.013 532.433 577.697 525.117C570.381 517.801 560.458 513.691 550.111 513.691ZM550.111 581.962C544.325 581.962 538.668 580.246 533.856 577.031C529.044 573.816 525.294 569.246 523.08 563.9C520.865 558.553 520.286 552.67 521.415 546.995C522.544 541.319 525.33 536.105 529.422 532.014C533.514 527.922 538.728 525.135 544.403 524.006C550.079 522.877 555.962 523.457 561.308 525.671C566.655 527.886 571.224 531.636 574.439 536.447C577.654 541.259 579.37 546.916 579.37 552.703C579.37 560.463 576.288 567.905 570.801 573.392C565.313 578.879 557.871 581.962 550.111 581.962Z" fill="black"/>
</g>
<g opacity="0.1">
<path opacity="0.1" d="M457.989 562.684C454.658 562.684 451.402 563.671 448.633 565.522C445.863 567.372 443.705 570.002 442.43 573.079C441.156 576.156 440.822 579.542 441.472 582.809C442.122 586.076 443.726 589.076 446.081 591.431C448.436 593.787 451.437 595.39 454.703 596.04C457.97 596.69 461.356 596.356 464.433 595.082C467.51 593.807 470.14 591.649 471.991 588.88C473.841 586.11 474.829 582.854 474.829 579.524C474.829 577.312 474.393 575.122 473.547 573.079C472.7 571.036 471.46 569.18 469.896 567.616C468.333 566.052 466.476 564.812 464.433 563.965C462.39 563.119 460.2 562.684 457.989 562.684ZM459.072 591.206V592.983H456.905V591.206C453.99 590.805 452.689 588.594 452.689 585.408V583.988H455.204V585.592C455.204 587.694 456.07 588.908 457.945 588.908C459.82 588.908 460.698 587.694 460.698 585.592C460.698 580.369 452.863 580.304 452.863 573.672C452.863 570.421 454.163 568.351 456.981 567.918V566.043H459.148V567.918C461.987 568.319 463.298 570.529 463.298 573.672V574.311H460.849V573.509C460.849 571.429 460.015 570.161 458.14 570.161C456.266 570.161 455.464 571.429 455.464 573.509C455.464 578.765 463.331 578.798 463.331 585.43C463.266 588.561 461.922 590.805 459.083 591.206H459.072Z" fill="black"/>
<path opacity="0.1" d="M457.989 551.966C452.539 551.966 447.211 553.582 442.679 556.61C438.147 559.638 434.615 563.942 432.529 568.977C430.444 574.013 429.898 579.554 430.961 584.899C432.024 590.245 434.649 595.155 438.503 599.009C442.357 602.863 447.267 605.488 452.613 606.551C457.959 607.615 463.499 607.069 468.535 604.983C473.57 602.897 477.874 599.365 480.902 594.833C483.93 590.302 485.547 584.974 485.547 579.523C485.547 572.215 482.643 565.205 477.475 560.037C472.307 554.869 465.298 551.966 457.989 551.966ZM457.989 600.189C453.902 600.189 449.906 598.977 446.508 596.706C443.11 594.435 440.461 591.208 438.897 587.432C437.333 583.655 436.923 579.5 437.721 575.492C438.518 571.483 440.486 567.801 443.376 564.911C446.267 562.021 449.949 560.052 453.958 559.255C457.966 558.458 462.121 558.867 465.897 560.431C469.674 561.995 472.901 564.644 475.172 568.042C477.443 571.441 478.655 575.436 478.655 579.523C478.662 582.242 478.132 584.935 477.097 587.448C476.062 589.962 474.541 592.246 472.621 594.171C470.701 596.096 468.421 597.623 465.91 598.665C463.399 599.707 460.708 600.243 457.989 600.243V600.189Z" fill="black"/>
</g>
<g opacity="0.1">
<path opacity="0.1" d="M428.883 504.177C425.552 504.177 422.297 505.164 419.527 507.015C416.758 508.865 414.599 511.495 413.325 514.572C412.05 517.65 411.717 521.036 412.367 524.302C413.016 527.569 414.62 530.569 416.975 532.925C419.33 535.28 422.331 536.884 425.598 537.533C428.864 538.183 432.25 537.85 435.327 536.575C438.405 535.3 441.035 533.142 442.885 530.373C444.735 527.603 445.723 524.348 445.723 521.017C445.725 518.805 445.29 516.615 444.444 514.571C443.598 512.527 442.358 510.67 440.794 509.106C439.23 507.542 437.373 506.302 435.329 505.456C433.285 504.61 431.095 504.175 428.883 504.177ZM429.967 532.699V534.465H427.799V532.699C424.895 532.298 423.584 530.087 423.584 526.901V525.471H426.033V527.075C426.033 529.177 426.9 530.391 428.775 530.391C430.649 530.391 431.516 529.177 431.516 527.075C431.516 521.851 423.681 521.786 423.681 515.154C423.681 511.903 424.993 509.833 427.799 509.4V507.525H429.967V509.4C432.817 509.801 434.117 512.012 434.117 515.154V515.794H431.679V514.992C431.679 512.911 430.834 511.643 428.959 511.643C427.084 511.643 426.282 512.911 426.282 514.992C426.282 520.247 434.15 520.28 434.15 526.912C434.15 530.055 432.817 532.298 429.967 532.699Z" fill="black"/>
<path opacity="0.1" d="M428.883 493.459C423.432 493.457 418.103 495.071 413.57 498.098C409.036 501.125 405.503 505.428 403.415 510.463C401.328 515.498 400.781 521.04 401.843 526.386C402.905 531.732 405.528 536.644 409.382 540.499C413.236 544.354 418.146 546.979 423.492 548.044C428.838 549.108 434.379 548.563 439.415 546.477C444.451 544.392 448.756 540.86 451.784 536.328C454.813 531.796 456.429 526.467 456.429 521.016C456.431 517.398 455.719 513.815 454.336 510.472C452.952 507.128 450.923 504.09 448.365 501.531C445.807 498.972 442.77 496.942 439.427 495.557C436.084 494.172 432.501 493.459 428.883 493.459ZM428.883 541.682C424.796 541.682 420.8 540.47 417.402 538.199C414.003 535.928 411.355 532.701 409.79 528.925C408.226 525.149 407.817 520.994 408.614 516.985C409.412 512.976 411.38 509.294 414.27 506.404C417.16 503.514 420.842 501.546 424.851 500.748C428.86 499.951 433.015 500.36 436.791 501.924C440.567 503.488 443.795 506.137 446.065 509.535C448.336 512.934 449.548 516.929 449.548 521.016C449.554 523.734 449.024 526.426 447.988 528.938C446.952 531.45 445.43 533.734 443.511 535.657C441.591 537.581 439.311 539.107 436.801 540.148C434.291 541.189 431.6 541.725 428.883 541.725V541.682Z" fill="black"/>
</g>
<path d="M372.846 634.92C496.733 634.92 597.164 631.039 597.164 626.251C597.164 621.463 496.733 617.582 372.846 617.582C248.959 617.582 148.528 621.463 148.528 626.251C148.528 631.039 248.959 634.92 372.846 634.92Z" fill="#263238"/>
<path d="M531.581 406.994C537.985 408.186 544.975 404.079 548.919 397.479C551.921 392.527 552.972 387.64 554.197 382.037C555.573 375.925 603.167 154.653 603.666 152.464H362.616L313.548 380.477L311.554 389.677C311.141 391.592 310.408 393.423 309.387 395.095L307.935 397.512C306.4 400.052 304.2 402.123 301.571 403.502C298.943 404.88 295.988 405.512 293.026 405.33C290.064 405.148 287.208 404.159 284.768 402.469C282.328 400.78 280.398 398.454 279.185 395.746C277.186 391.271 273.951 387.46 269.86 384.761C265.77 382.062 260.993 380.587 256.093 380.509H255.193C249.491 380.617 243.985 382.612 239.538 386.183C235.09 389.753 231.953 394.698 230.616 400.243L210.709 482.839H451.726L470.018 406.983" fill="white"/>
<path d="M531.581 406.994C537.985 408.186 544.975 404.079 548.919 397.479C551.921 392.527 552.972 387.64 554.197 382.037C555.573 375.925 603.167 154.653 603.666 152.464H362.616L313.548 380.477L311.554 389.677C311.141 391.592 310.408 393.423 309.387 395.095L307.935 397.512C306.4 400.052 304.2 402.123 301.571 403.502C298.943 404.88 295.988 405.512 293.026 405.33C290.064 405.148 287.208 404.159 284.768 402.469C282.328 400.78 280.398 398.454 279.185 395.746C277.186 391.271 273.951 387.46 269.86 384.761C265.77 382.062 260.993 380.587 256.093 380.509H255.193C249.491 380.617 243.985 382.612 239.538 386.183C235.09 389.753 231.953 394.698 230.616 400.243L210.709 482.839H451.726L470.018 406.983" stroke="#263238" stroke-linecap="round" stroke-linejoin="round"/>
<path d="M438.95 178.201L438.603 180.021H436.435L436.804 178.081C437.162 176.261 436.652 175.166 434.994 175.166C433.336 175.166 432.415 176.25 432.058 178.081L429.999 188.799C429.641 190.619 430.183 191.714 431.808 191.714C433.434 191.714 434.398 190.63 434.745 188.799L435.254 186.166H437.422L436.945 188.68C436.349 191.746 434.507 193.773 431.386 193.773C428.265 193.773 427.235 191.746 427.82 188.68L429.847 178.201C430.432 175.134 432.274 173.107 435.374 173.107C438.473 173.107 439.491 175.134 438.95 178.201Z" fill="#263238"/>
<path d="M440.78 178.201C441.376 175.101 443.294 173.107 446.394 173.107C449.493 173.107 450.663 175.101 450.067 178.201L448.052 188.68C447.456 191.746 445.537 193.773 442.406 193.773C439.274 193.773 438.169 191.746 438.754 188.68L440.78 178.201ZM440.964 188.799C440.607 190.652 441.181 191.714 442.807 191.714C444.432 191.714 445.407 190.63 445.765 188.799L447.835 178.081C448.182 176.261 447.64 175.166 445.993 175.166C444.345 175.166 443.381 176.25 443.034 178.081L440.964 188.799Z" fill="#263238"/>
<path d="M451.249 193.567H449.223L453.124 173.281H455.996L457.859 187.921L460.688 173.281H462.682L458.77 193.534H456.429L454.403 177.16L451.249 193.567Z" fill="#263238"/>
<path d="M464.015 193.567L467.526 175.362H463.787L464.188 173.313H473.887L473.486 175.362H469.758L466.247 193.567H464.015Z" fill="#263238"/>
<path d="M479.933 173.281C483.119 173.281 484.138 174.895 483.564 177.908L483.238 179.555C482.816 181.787 481.765 183.175 479.922 183.727C481.667 184.28 482.09 185.786 481.656 187.954L481.039 191.107C480.829 191.902 480.829 192.739 481.039 193.534H478.741C478.577 192.718 478.614 191.873 478.85 191.074L479.456 187.899C479.901 185.602 478.969 184.887 477.083 184.887H475.49L473.821 193.556H471.567L475.414 173.281H479.933ZM477.517 182.828C477.925 182.887 478.341 182.861 478.739 182.751C479.137 182.641 479.508 182.449 479.828 182.188C480.147 181.928 480.41 181.603 480.598 181.236C480.786 180.868 480.895 180.466 480.919 180.054L481.288 178.114C481.645 176.282 481.158 175.329 479.478 175.329H477.311L475.794 182.86L477.517 182.828Z" fill="#263238"/>
<path d="M485.991 189.536L484.463 193.567H482.296L490.131 173.281H493.382V193.534H491.128V189.536H485.991ZM486.652 187.596H491.171V175.903L486.652 187.596Z" fill="#263238"/>
<path d="M507.015 178.201L506.668 180.021H504.5L504.88 178.081C505.226 176.261 504.717 175.166 503.07 175.166C501.423 175.166 500.48 176.25 500.133 178.081L498.063 188.799C497.717 190.619 498.248 191.714 499.873 191.714C501.499 191.714 502.463 190.63 502.81 188.799L503.319 186.166H505.487L505.053 188.68C504.457 191.746 502.626 193.773 499.494 193.773C496.362 193.773 495.3 191.703 495.875 188.68L497.901 178.201C498.486 175.134 500.328 173.107 503.428 173.107C506.527 173.107 507.611 175.134 507.015 178.201Z" fill="#263238"/>
<path d="M509.029 193.567L512.54 175.362H508.812L509.203 173.313H518.901L518.511 175.362H514.805L511.294 193.567H509.029Z" fill="#263238"/>
<path d="M368.826 203.472H581.43" stroke="#263238" stroke-miterlimit="10"/>
<path d="M524.873 227.03H574.624" stroke="#263238" stroke-miterlimit="10"/>
<path d="M446.85 227.03H519.639" stroke="#263238" stroke-miterlimit="10"/>
<path d="M398.149 227.03H442.666" stroke="#263238" stroke-miterlimit="10"/>
<path d="M362.021 227.03H393.967" stroke="#263238" stroke-miterlimit="10"/>
<path d="M518.588 239.07H572.002" stroke="#263238" stroke-miterlimit="10"/>
<path d="M397.63 239.07H513.354" stroke="#263238" stroke-miterlimit="10"/>
<path d="M359.409 239.07H392.916" stroke="#263238" stroke-miterlimit="10"/>
<path d="M507.6 251.12H569.39" stroke="#263238" stroke-miterlimit="10"/>
<path d="M414.914 251.12H503.406" stroke="#263238" stroke-miterlimit="10"/>
<path d="M356.786 251.12H410.72" stroke="#263238" stroke-miterlimit="10"/>
<path d="M528.016 263.16H566.767" stroke="#263238" stroke-miterlimit="10"/>
<path d="M468.848 263.16H522.781" stroke="#263238" stroke-miterlimit="10"/>
<path d="M411.771 263.16H463.614" stroke="#263238" stroke-miterlimit="10"/>
<path d="M368.826 263.16H407.058" stroke="#263238" stroke-miterlimit="10"/>
<path d="M354.164 263.16H364.112" stroke="#263238" stroke-miterlimit="10"/>
<path d="M555.248 275.21H564.145" stroke="#263238" stroke-miterlimit="10"/>
<path d="M466.745 275.21H548.442" stroke="#263238" stroke-miterlimit="10"/>
<path d="M404.436 275.21H461.512" stroke="#263238" stroke-miterlimit="10"/>
<path d="M351.553 275.21H398.681" stroke="#263238" stroke-miterlimit="10"/>
<path d="M543.729 287.25H561.533" stroke="#263238" stroke-miterlimit="10"/>
<path d="M491.887 287.25H539.015" stroke="#263238" stroke-miterlimit="10"/>
<path d="M476.173 287.25H486.652" stroke="#263238" stroke-miterlimit="10"/>
<path d="M400.772 287.25H473.562" stroke="#263238" stroke-miterlimit="10"/>
<path d="M348.93 287.25H396.578" stroke="#263238" stroke-miterlimit="10"/>
<path d="M346.308 299.289H558.911" stroke="#263238" stroke-miterlimit="10"/>
<path d="M545.3 311.339H556.299" stroke="#263238" stroke-miterlimit="10"/>
<path d="M497.12 311.339H538.494" stroke="#263238" stroke-miterlimit="10"/>
<path d="M428.004 311.339H489.794" stroke="#263238" stroke-miterlimit="10"/>
<path d="M412.812 311.339H423.291" stroke="#263238" stroke-miterlimit="10"/>
<path d="M364.643 311.339H407.057" stroke="#263238" stroke-miterlimit="10"/>
<path d="M343.695 311.339H358.357" stroke="#263238" stroke-miterlimit="10"/>
<path d="M500.263 323.378H553.676" stroke="#263238" stroke-miterlimit="10"/>
<path d="M443.707 323.378H493.458" stroke="#263238" stroke-miterlimit="10"/>
<path d="M400.252 323.378H438.473" stroke="#263238" stroke-miterlimit="10"/>
<path d="M341.073 323.378H395.007" stroke="#263238" stroke-miterlimit="10"/>
<path d="M534.301 335.429H551.054" stroke="#263238" stroke-miterlimit="10"/>
<path d="M478.795 335.429H528.535" stroke="#263238" stroke-miterlimit="10"/>
<path d="M443.187 335.429H475.133" stroke="#263238" stroke-miterlimit="10"/>
<path d="M414.383 335.429H437.952" stroke="#263238" stroke-miterlimit="10"/>
<path d="M387.161 335.429H410.2" stroke="#263238" stroke-miterlimit="10"/>
<path d="M352.593 335.429H381.396" stroke="#263238" stroke-miterlimit="10"/>
<path d="M338.462 335.429H347.879" stroke="#263238" stroke-miterlimit="10"/>
<path d="M520.159 347.468H548.443" stroke="#263238" stroke-miterlimit="10"/>
<path d="M470.419 347.468H513.874" stroke="#263238" stroke-miterlimit="10"/>
<path d="M423.811 347.468H464.134" stroke="#263238" stroke-miterlimit="10"/>
<path d="M369.356 347.468H417.525" stroke="#263238" stroke-miterlimit="10"/>
<path d="M335.839 347.468H364.112" stroke="#263238" stroke-miterlimit="10"/>
<path d="M518.588 359.508H545.82" stroke="#263238" stroke-miterlimit="10"/>
<path d="M471.459 359.508H513.353" stroke="#263238" stroke-miterlimit="10"/>
<path d="M422.76 359.508H464.134" stroke="#263238" stroke-miterlimit="10"/>
<path d="M389.253 359.508H418.057" stroke="#263238" stroke-miterlimit="10"/>
<path d="M354.695 359.508H384.019" stroke="#263238" stroke-miterlimit="10"/>
<path d="M333.217 359.508H351.552" stroke="#263238" stroke-miterlimit="10"/>
<path d="M527.496 371.558H543.198" stroke="#263238" stroke-miterlimit="10"/>
<path d="M474.082 371.558H522.262" stroke="#263238" stroke-miterlimit="10"/>
<path d="M431.667 371.558H467.796" stroke="#263238" stroke-miterlimit="10"/>
<path d="M403.914 371.558H425.902" stroke="#263238" stroke-miterlimit="10"/>
<path d="M359.409 371.558H396.059" stroke="#263238" stroke-miterlimit="10"/>
<path d="M330.605 371.558H355.736" stroke="#263238" stroke-miterlimit="10"/>
<path d="M494.552 380.477V380.552C489.152 381.003 484.033 383.145 479.921 386.675C475.81 390.204 472.917 394.941 471.654 400.21L451.726 482.839H210.709L230.627 400.21C231.963 394.665 235.101 389.721 239.548 386.15C243.996 382.579 249.502 380.584 255.204 380.477H494.552Z" fill="white" stroke="#263238" stroke-linecap="round" stroke-linejoin="round"/>
<path d="M531.58 406.994H470.018L471.654 400.21C472.927 394.946 475.823 390.216 479.932 386.688C484.042 383.161 489.156 381.014 494.552 380.553C495.256 380.498 495.96 380.466 496.665 380.466C506.418 380.466 516.442 385.808 520.224 395.713C522.889 402.713 527.083 406.149 531.58 406.994Z" fill="#263238" stroke="#263238" stroke-linecap="round" stroke-linejoin="round"/>
<path d="M456.201 399.928C456.201 400.73 454.24 401.326 454.099 402.096C453.958 402.865 455.551 404.144 455.269 404.87C454.988 405.596 452.94 405.466 452.539 406.149C452.138 406.831 453.221 408.544 452.712 409.15C452.203 409.757 450.317 408.999 449.721 409.53C449.125 410.061 449.721 412.011 449.071 412.466C448.421 412.922 446.773 411.708 446.08 412.076C445.386 412.445 445.495 414.493 444.758 414.785C444.021 415.078 442.677 413.55 441.919 413.767C441.16 413.984 440.835 416.01 440.076 416.151C439.318 416.292 438.278 414.525 437.487 414.601C436.695 414.677 436.024 416.595 435.233 416.595C434.441 416.595 433.737 414.666 432.968 414.601C432.198 414.536 431.147 416.292 430.389 416.151C429.63 416.01 429.305 413.984 428.535 413.767C427.766 413.55 426.422 415.078 425.707 414.785C424.992 414.493 425.057 412.445 424.385 412.076C423.713 411.708 422.023 412.911 421.394 412.466C420.766 412.022 421.307 410.039 420.733 409.53C420.159 409.02 418.241 409.736 417.742 409.15C417.244 408.565 418.317 406.81 417.926 406.138C417.536 405.466 415.477 405.596 415.196 404.87C414.914 404.144 416.507 402.865 416.355 402.096C416.203 401.326 414.264 400.741 414.264 399.928C414.264 399.116 416.214 398.541 416.355 397.761C416.496 396.981 414.914 395.724 415.196 394.987C415.477 394.25 417.515 394.402 417.926 393.719C418.338 393.036 417.233 391.324 417.742 390.717C418.252 390.11 420.148 390.869 420.733 390.338C421.318 389.807 420.733 387.856 421.394 387.401C422.055 386.946 423.681 388.16 424.385 387.781C425.089 387.401 424.97 385.375 425.707 385.071C426.444 384.768 427.777 386.318 428.535 386.101C429.294 385.884 429.619 383.858 430.389 383.717C431.158 383.576 432.177 385.342 432.968 385.266C433.759 385.191 434.431 383.262 435.233 383.262C436.034 383.262 436.717 385.191 437.487 385.266C438.256 385.342 439.318 383.565 440.076 383.717C440.835 383.869 441.16 385.884 441.919 386.101C442.677 386.318 444.086 384.79 444.758 385.071C445.43 385.353 445.397 387.423 446.08 387.781C446.763 388.138 448.431 386.957 449.071 387.401C449.71 387.846 449.158 389.818 449.721 390.338C450.285 390.858 452.224 390.121 452.712 390.717C453.2 391.313 452.138 393.058 452.539 393.719C452.94 394.38 454.988 394.272 455.269 394.998C455.551 395.724 453.947 396.992 454.099 397.761C454.251 398.53 456.201 399.137 456.201 399.928Z" fill="#009C8E"/>
<path d="M435.232 412.412C444.024 412.412 451.151 406.823 451.151 399.929C451.151 393.034 444.024 387.445 435.232 387.445C426.441 387.445 419.313 393.034 419.313 399.929C419.313 406.823 426.441 412.412 435.232 412.412Z" fill="white"/>
<path d="M435.232 410.039C442.348 410.039 448.117 405.512 448.117 399.928C448.117 394.345 442.348 389.818 435.232 389.818C428.116 389.818 422.348 394.345 422.348 399.928C422.348 405.512 428.116 410.039 435.232 410.039Z" fill="#009C8E"/>
<path d="M444.302 460.765H339.643" stroke="#263238" stroke-linecap="round" stroke-linejoin="round"/>
<path d="M306.353 460.765H231.363" stroke="#263238" stroke-linecap="round" stroke-linejoin="round"/>
<path d="M362.346 458.554C362.346 458.554 382.101 436.675 387.736 415.208C393.371 393.741 379.511 405.379 373.973 429.187C368.436 452.995 368.436 459.096 373.973 454.664C378.416 450.852 382.249 446.382 385.341 441.411C386.121 440.176 386.771 439.027 387.27 438.052C389.437 433.619 382.285 436.394 380.616 445.247C378.947 454.101 388.928 441.378 391.691 436.946C394.455 432.514 400.003 430.303 395.571 441.931C391.139 453.559 384.496 451.337 390.586 443.589C396.676 435.841 403.33 419.749 403.882 428.635C404.435 437.521 402.214 447.447 397.771 450.243C393.328 453.039 406.071 437.51 409.951 438.615C413.83 439.72 415.488 444.153 411.609 447.479C407.729 450.806 407.729 439.72 437.086 440.826" stroke="#263238" stroke-linecap="round" stroke-linejoin="round"/>
<path d="M432.295 427.995L448.55 440.999C448.728 441.145 448.85 441.346 448.897 441.57C448.944 441.795 448.914 442.029 448.81 442.233C448.707 442.438 448.536 442.601 448.328 442.696C448.119 442.791 447.884 442.811 447.662 442.755L427.072 437.412L432.295 427.995Z" fill="white" stroke="#263238" stroke-linecap="round" stroke-linejoin="round"/>
<path d="M429.662 422.935L334.69 366.704L324.081 384.757L422.412 438.019C422.655 438.19 422.917 438.332 423.193 438.442C426.444 439.807 430.551 437.445 432.339 433.154C434.127 428.862 432.924 424.289 429.662 422.935Z" fill="#8C8C8C" stroke="#263238" stroke-linecap="round" stroke-linejoin="round"/>
<path d="M337.194 378.223C334.42 384.866 328.07 388.539 323.009 386.426C322.523 386.219 322.059 385.965 321.622 385.668L224.277 331.42L216.344 326.987L215.369 326.456L215.618 325.86L226.78 299.137L227.257 298.054L228.546 298.834L239.665 305.607L333.055 362.412C338.17 364.482 339.968 371.591 337.194 378.223Z" fill="white" stroke="#263238" stroke-linecap="round" stroke-linejoin="round"/>
<path d="M332.123 361.838L239.665 305.596L228.546 298.823L227.257 298.042L226.78 299.126L215.618 325.849L215.369 326.445L216.344 326.976L224.277 331.408L319.39 384.41C324.461 385.916 330.486 382.243 333.196 375.741C335.363 370.507 334.789 365.089 332.123 361.838Z" fill="#8C8C8C" stroke="#263238" stroke-linecap="round" stroke-linejoin="round"/>
<path d="M224.277 331.42C230.053 331.658 236.198 327.172 239.21 320.02C241.267 315.447 241.431 310.246 239.665 305.553L228.547 298.78C227.95 298.856 227.36 298.976 226.781 299.137C222.197 300.427 217.819 304.426 215.456 310.093C213.094 315.761 213.289 321.699 215.619 325.86C215.835 326.239 216.077 326.601 216.345 326.944" fill="white"/>
<path d="M224.277 331.42C230.053 331.658 236.198 327.172 239.21 320.02C241.267 315.447 241.431 310.246 239.665 305.553L228.547 298.78C227.95 298.856 227.36 298.976 226.781 299.137C222.197 300.427 217.819 304.426 215.456 310.093C213.094 315.761 213.289 321.699 215.619 325.86C215.835 326.239 216.077 326.601 216.345 326.944" stroke="#263238" stroke-linecap="round" stroke-linejoin="round"/>
<path d="M232.946 315.045L305.161 362.044C305.599 362.338 305.915 362.783 306.048 363.294C306.182 363.804 306.125 364.346 305.887 364.818C305.749 365.071 305.562 365.295 305.337 365.475C305.111 365.655 304.852 365.788 304.575 365.867C304.297 365.946 304.007 365.968 303.72 365.933C303.434 365.898 303.157 365.806 302.907 365.663L228.622 321.742L232.946 315.045Z" fill="white" stroke="#263238" stroke-linecap="round" stroke-linejoin="round"/>
<path d="M232.154 316.758C228.903 324.614 221.318 328.96 215.369 326.456C209.419 323.953 207.198 315.555 210.47 307.655C213.743 299.755 221.307 295.453 227.256 297.956C233.206 300.459 235.438 308.901 232.154 316.758Z" fill="#8C8C8C" stroke="#263238" stroke-linecap="round" stroke-linejoin="round"/>
<path d="M229.804 315.782C227.235 321.938 221.34 325.351 216.648 323.368C211.956 321.385 195.82 305.954 198.377 299.798C200.935 293.643 221.264 299.105 225.957 301.066C230.649 303.028 232.394 309.616 229.804 315.782Z" fill="white" stroke="#263238" stroke-linecap="round" stroke-linejoin="round"/>
<path d="M381.874 417.95L387.736 415.219C389.071 415.159 390.384 415.574 391.442 416.389C393.198 417.755 396.514 419.9 396.514 419.9C396.514 419.9 403.146 420.291 403.341 421.266C403.536 422.241 399.44 423.433 398.855 423.433H394.52C394.52 423.433 400.567 426.565 401.152 426.955C401.737 427.345 410.135 429.881 408.965 430.661C407.795 431.441 399.982 431.246 398.226 431.637C396.483 431.905 394.722 432.035 392.959 432.027L386.327 425.98L381.635 420.897C381.635 420.897 380.118 419.12 381.874 417.95Z" fill="white" stroke="#263238" stroke-linecap="round" stroke-linejoin="round"/>
<path d="M234.723 347.891C234.723 347.891 234.333 342.614 234.333 340.078C234.333 337.542 232.968 332.666 232.382 332.276C231.797 331.886 225.75 329.545 223.995 327.941C222.239 326.337 220.083 328.526 220.863 329.892C221.643 331.257 226.141 333.793 226.141 333.793L224.97 335.548L220.636 331.842C220.636 331.842 216.149 324.82 214.979 325.405C213.809 325.99 214.199 326.966 214.979 328.331C215.759 329.697 215.369 338.474 217.515 340.251C219.66 342.029 226.108 344.163 226.108 344.163L226.693 349.04C226.693 349.04 232.74 349.43 233.52 349.625C234.301 349.82 234.723 347.891 234.723 347.891Z" fill="white" stroke="#263238" stroke-linecap="round" stroke-linejoin="round"/>
<path d="M221.838 355.336L222.618 350.069C222.618 350.069 222.423 348.314 226.953 347.534C229.548 347.051 232.221 347.185 234.755 347.924C235.032 348.032 235.272 348.219 235.445 348.462C235.618 348.704 235.717 348.992 235.73 349.289C235.696 351.188 235.5 353.08 235.145 354.946C235.145 354.946 228.091 352.182 221.838 355.336Z" fill="white" stroke="#263238" stroke-linecap="round" stroke-linejoin="round"/>
<path d="M300.122 614.33V628.418C300.122 628.418 303.373 630.054 312.855 630.054C321.344 629.867 329.737 628.209 337.66 625.156C342.222 623.206 343.859 618.958 342.222 618.308C340.586 617.657 332.469 617.321 330.8 616.021C329.132 614.721 322.315 610.473 322.315 610.473C322.315 610.473 305.996 615.317 300.122 614.33Z" fill="#009C8E" stroke="#263238" stroke-linecap="round" stroke-linejoin="round"/>
<path d="M342.818 619.543C335.964 622.758 328.653 624.893 321.145 625.872C309.875 627.324 302.929 626.077 300.101 625.341V628.418C300.101 628.418 303.352 630.054 312.834 630.054C321.323 629.867 329.715 628.21 337.639 625.156C340.933 623.704 342.688 621.125 342.818 619.543Z" fill="white" stroke="#263238" stroke-linecap="round" stroke-linejoin="round"/>
<path d="M305.02 479.556L306.656 484.129C306.656 484.129 313.505 497.133 318.403 506.647C323.301 516.162 328.514 536.339 330.15 538.301C331.786 540.262 331.45 542.863 330.475 545.8C329.5 548.736 321.665 599.983 321.665 601.283C321.665 602.584 321.015 602.584 321.99 604.22C322.965 605.856 323.301 611.069 323.301 611.069C321.153 613.147 318.418 614.516 315.466 614.991C310.243 615.967 300.122 615.967 300.122 615.967C300.122 615.967 298.821 609.768 299.146 608.793C299.472 607.818 300.458 601.608 300.458 601.608C300.458 601.608 303.709 585.613 303.058 577.464C302.408 569.315 304.045 551.023 304.695 549.072C305.146 546.935 305.364 544.755 305.345 542.57L303.394 538.984V536.307C303.394 536.307 287.725 520.312 281.526 514.113C275.328 507.915 269.129 500.405 269.129 500.405C269.129 500.405 261.944 532.395 259.983 539.244C258.022 546.092 257.046 548.997 255.746 550.99C254.445 552.984 241.062 570.572 236.164 577.757C231.266 584.942 223.767 597.664 223.767 597.664C223.747 599.518 223.856 601.372 224.092 603.212C224.417 604.512 220.841 609.411 220.841 609.411L219.53 610.711C219.53 610.711 211.695 602.876 208.758 602.226C205.822 601.576 199.623 602.551 199.623 602.551C199.623 602.551 203.546 591.79 204.521 589.547C205.496 587.304 214.632 564.092 217.243 559.519C219.855 554.946 221.816 545.811 226.389 542.18C230.963 538.55 236.142 534.345 236.142 534.345L235.492 497.804L234.842 487.683C234.201 485.12 233.87 482.49 233.856 479.848V473.346C233.856 473.346 263.559 480.195 278.286 479.545C293.013 478.895 301.78 474.983 301.78 474.983L305.02 479.556Z" fill="#263238" stroke="#263238" stroke-linecap="round" stroke-linejoin="round"/>
<path d="M313.18 377.551C313.18 377.551 296.199 370.139 287.226 370.139C278.254 370.139 273.366 370.334 263.798 370.724C254.229 371.114 248.626 374.04 248.626 374.04L234.539 378.721L235.698 353.168C232.842 352.381 229.856 352.182 226.921 352.583C224.439 353.044 222.165 354.272 220.419 356.094C220.419 356.094 215.152 390.836 215.347 393.957C215.542 397.078 219.682 397.663 219.682 397.663L251.498 397.078L249.157 432.601L225.317 473.975C225.317 473.975 225.512 480.412 245.029 486.86C264.545 493.307 288.548 491.194 295.961 489.2C303.373 487.206 315.239 478.472 316.214 477.107C317.189 475.741 316.214 468.708 316.214 465.782C316.214 462.857 311.338 435.136 312.118 433.771C312.898 432.406 317.189 414.059 317.189 414.059C317.189 414.059 356.808 439.818 359.149 439.428C361.49 439.038 385.298 427.334 385.894 426.944C386.49 426.554 388.061 424.408 385.698 420.886C384.828 419.672 383.693 418.672 382.379 417.962C381.064 417.252 379.605 416.852 378.113 416.79C376.943 416.79 360.937 418.156 360.937 418.156C360.937 418.156 340.889 400.383 340.336 399.408C339.784 398.433 336.63 390.24 335.265 388.095C333.9 385.949 313.18 377.551 313.18 377.551Z" fill="#009C8E" stroke="#263238" stroke-linecap="round" stroke-linejoin="round"/>
<path d="M360.991 418.188C360.991 418.188 367.406 421.84 368.685 424.083L360.991 418.188Z" fill="#009C8E"/>
<path d="M360.991 418.188C360.991 418.188 367.406 421.84 368.685 424.083" stroke="#263238" stroke-linecap="round" stroke-linejoin="round"/>
<path d="M335.233 388.095C335.233 388.095 329.37 388.561 323.312 394.954L335.233 388.095Z" fill="#009C8E"/>
<path d="M335.233 388.095C335.233 388.095 329.37 388.561 323.312 394.954" stroke="#263238" stroke-linecap="round" stroke-linejoin="round"/>
<path d="M322.023 390.804C320.254 391.793 318.732 393.17 317.57 394.831C316.409 396.492 315.638 398.394 315.315 400.395" fill="#009C8E"/>
<path d="M322.023 390.804C320.254 391.793 318.732 393.17 317.57 394.831C316.409 396.492 315.638 398.394 315.315 400.395" stroke="#263238" stroke-linecap="round" stroke-linejoin="round"/>
<path d="M251.509 397.068L250.924 382.427L251.509 397.068Z" stroke="#263238" stroke-linecap="round" stroke-linejoin="round"/>
<path d="M308.033 420.323L317.276 414.049L302.246 418.73" stroke="#263238" stroke-linecap="round" stroke-linejoin="round"/>
<path d="M301.466 424.788L304.663 422.621" stroke="#263238" stroke-linecap="round" stroke-linejoin="round"/>
<path d="M300.556 379.772C296.947 381.064 293.616 383.028 290.738 385.559C283.152 392.386 279.023 391.801 279.023 391.801" stroke="#263238" stroke-linecap="round" stroke-linejoin="round"/>
<path d="M308.109 377.941C306.948 378.062 305.797 378.261 304.663 378.537" stroke="#263238" stroke-linecap="round" stroke-linejoin="round"/>
<path d="M289.567 382.817C289.567 382.817 283.315 388.68 276.683 391.411" stroke="#263238" stroke-linecap="round" stroke-linejoin="round"/>
<path d="M220.831 382.254C220.191 383.023 219.812 383.976 219.747 384.974" stroke="#263238" stroke-linecap="round" stroke-linejoin="round"/>
<path d="M234.528 378.721L231.797 378.916C231.797 378.916 228.286 377.356 226.53 377.551C225.298 377.951 224.181 378.647 223.279 379.577" stroke="#263238" stroke-linecap="round" stroke-linejoin="round"/>
<path d="M222.619 377.941C222.619 377.941 219.108 379.306 218.522 382.427" stroke="#263238" stroke-linecap="round" stroke-linejoin="round"/>
<path d="M312.162 433.76C312.162 433.76 309.398 452.508 308.163 458.294C306.928 464.081 305.27 478.331 305.27 478.331C307.336 477.545 309.484 476.992 311.674 476.684C314.925 476.272 316.215 477.096 316.215 477.096C316.215 477.096 318.696 471.103 316.215 460.765C313.733 450.427 312.162 433.76 312.162 433.76Z" fill="#009C8E" stroke="#263238" stroke-linecap="round" stroke-linejoin="round"/>
<path d="M219.52 610.744C219.52 610.744 220.831 616.942 222.131 617.603C223.432 618.264 229.641 619.554 230.291 621.19C230.941 622.827 224.418 625.752 220.17 626.413C215.922 627.074 208.423 625.427 207.448 624.777C206.472 624.127 204.197 620.865 201.249 619.879C198.302 618.893 194.747 617.603 195.376 613.68C196.004 609.758 199.613 602.584 199.613 602.584C203.992 601.244 208.687 601.358 212.996 602.909C220.17 605.52 219.52 610.744 219.52 610.744Z" fill="#009C8E" stroke="#263238" stroke-linecap="round" stroke-linejoin="round"/>
<path d="M220.169 626.414C224.417 625.752 230.941 622.816 230.291 621.19C230.222 621.041 230.127 620.905 230.009 620.789C226.834 621.873 222.933 622.469 219.346 620.486C214.946 618.037 213.472 612.651 207.599 610.733C204.185 609.595 199.612 609.79 196.383 610.137C195.947 611.302 195.61 612.502 195.375 613.724C194.714 617.647 198.312 618.947 201.249 619.922C204.185 620.898 206.472 624.17 207.447 624.821C208.423 625.471 215.932 627.064 220.169 626.414Z" fill="white" stroke="#263238" stroke-linecap="round" stroke-linejoin="round"/>
<path d="M218.219 624.083C214.622 622.447 211.36 618.21 206.137 614.948C201.368 611.957 196.384 615.241 195.506 615.826C196.254 618.102 198.941 619.077 201.249 619.836C204.186 620.822 206.473 624.083 207.448 624.734C208.423 625.384 215.933 627.02 220.17 626.37C221.034 626.228 221.888 626.032 222.727 625.785C221.194 625.304 219.689 624.736 218.219 624.083Z" fill="#263238" stroke="#263238" stroke-linecap="round" stroke-linejoin="round"/>
<path d="M316.497 372.284L310.645 376.381C310.645 376.381 303.059 371.309 297.76 370.334C292.461 369.358 289.763 369.163 289.763 369.163L293.859 361.935C296.855 359.778 299.159 356.796 300.491 353.353C302.246 348.086 304.002 345.941 307.914 347.934C311.826 349.928 313.332 357.687 313.332 362.564C313.332 367.44 316.497 372.284 316.497 372.284Z" fill="white" stroke="#263238" stroke-linecap="round" stroke-linejoin="round"/>
<path d="M319.812 336.372C319.812 336.372 323.128 341.248 323.518 343.014C323.908 344.781 322.153 348.281 322.153 348.281C322.153 348.281 326.065 353.938 326.26 355.303C326.455 356.668 323.908 359.204 323.908 359.204C323.908 359.204 324.493 364.872 325.284 366.237C326.075 367.603 326.845 369.553 325.869 371.309C324.894 373.064 323.518 374.235 319.368 374.82C315.217 375.405 311.955 373.454 311.175 369.401C310.395 365.349 310.395 356.517 309.81 355.314C309.224 354.111 306.494 351.413 305.128 353.558C303.763 355.704 304.738 357.893 305.713 359.8C306.311 360.977 307.267 361.934 308.444 362.531L304.11 364.698C301.517 365.819 298.605 365.958 295.917 365.089C294.959 364.725 294.082 364.174 293.338 363.469C292.594 362.764 291.997 361.919 291.582 360.981C291.387 360.396 289.415 355.563 288.852 354.545C288.288 353.526 284.159 347.717 283.964 340.88C283.769 334.042 291.973 326.25 302.506 324.104C313.039 321.959 317.926 326.64 320.267 326.835C322.608 327.03 320.267 324.885 322.218 326.25C324.168 327.616 324.688 335.201 319.812 336.372Z" fill="white" stroke="#263238" stroke-linecap="round" stroke-linejoin="round"/>
<path d="M323.908 359.205C323.908 359.205 324.125 358.988 324.428 358.652C323.637 358.76 321.264 359.085 319.812 359.4C318.056 359.79 317.276 365.067 315.716 363.734C314.155 362.401 313.375 350.85 312.985 350.264C312.595 349.679 314.329 347.75 314.329 347.75C314.329 347.75 317.059 344.044 317.059 342.473C317.059 340.902 314.329 339.157 315.304 338.767C316.279 338.377 319.79 336.426 319.79 336.426C324.667 335.256 324.277 327.648 322.326 326.283C320.375 324.918 322.716 327.063 320.375 326.868C318.035 326.673 313.158 321.981 302.614 324.137C292.07 326.294 283.878 334.085 284.073 340.912C284.268 347.739 288.407 353.602 288.96 354.577C289.513 355.553 291.496 360.429 291.691 361.014C292.106 361.952 292.703 362.797 293.447 363.502C294.191 364.207 295.067 364.757 296.026 365.121C298.713 365.991 301.625 365.852 304.218 364.731L308.553 362.564C307.376 361.966 306.419 361.01 305.822 359.833C304.847 357.882 303.86 355.737 305.237 353.591C306.613 351.446 309.333 354.176 309.918 355.347C310.503 356.517 310.503 365.306 311.283 369.434C312.064 373.563 315.38 375.481 319.476 374.853C323.572 374.224 324.894 373.097 325.978 371.342C327.062 369.586 326.173 367.635 325.393 366.27C324.612 364.905 323.908 359.205 323.908 359.205Z" fill="#263238" stroke="#263238" stroke-linecap="round" stroke-linejoin="round"/>
<path d="M322.933 344.77C322.407 344.766 321.89 344.91 321.441 345.186C320.993 345.462 320.631 345.859 320.397 346.331" stroke="#263238" stroke-linecap="round" stroke-linejoin="round"/>
<path d="M321.372 351.402C321.803 351.402 322.152 350.441 322.152 349.256C322.152 348.071 321.803 347.111 321.372 347.111C320.941 347.111 320.592 348.071 320.592 349.256C320.592 350.441 320.941 351.402 321.372 351.402Z" fill="#263238"/>
<path d="M324.299 364.092C324.299 364.092 320.983 365.262 319.617 362.911" stroke="white" stroke-linecap="round" stroke-linejoin="round"/>
<path d="M287.238 370.139C296.21 370.139 313.191 377.551 313.191 377.551L313.841 377.822C313.668 376.945 313.298 376.118 312.758 375.405C312.173 375.015 309.052 370.529 303.189 368.188C299.35 366.6 295.249 365.74 291.095 365.652C289.719 365.652 285.785 369.272 284.854 370.139H287.238Z" fill="#009C8E" stroke="#263238" stroke-linecap="round" stroke-linejoin="round"/>
</svg>
