<svg width="750" height="750" viewBox="0 0 750 750" fill="none" xmlns="http://www.w3.org/2000/svg">
<circle cx="375" cy="375" r="375" fill="#F3F7F9"/>
<path d="M140.049 373.695H617.153" stroke="#263238" stroke-linecap="round" stroke-linejoin="round"/>
<path d="M199.441 418.271C221.828 418.271 239.976 411.535 239.976 403.227C239.976 394.919 221.828 388.184 199.441 388.184C177.054 388.184 158.906 394.919 158.906 403.227C158.906 411.535 177.054 418.271 199.441 418.271Z" fill="#263238"/>
<path d="M175.775 355.832L181.428 401.704C181.428 409.056 195.149 415.023 212.081 415.023C229.012 415.023 242.734 409.056 242.734 401.704L248.386 355.832H175.775Z" fill="white"/>
<path d="M206.768 355.832H175.775L181.428 401.704C181.428 409.056 195.149 415.023 212.081 415.023C213.18 415.023 214.263 414.998 215.328 414.947C205.673 397.827 205.509 372.7 206.768 355.832Z" fill="#009C8E"/>
<path opacity="0.4" d="M206.768 355.832H175.775L181.428 401.704C181.428 409.056 195.149 415.023 212.081 415.023C213.18 415.023 214.263 414.998 215.328 414.947C205.673 397.827 205.509 372.7 206.768 355.832Z" fill="white"/>
<path d="M175.775 355.832L181.428 401.704C181.428 409.056 195.149 415.023 212.081 415.023C229.012 415.023 242.734 409.056 242.734 401.704L248.386 355.832H175.775Z" stroke="#263238" stroke-linecap="round" stroke-linejoin="round"/>
<path d="M212.081 371.605C232.132 371.605 248.386 364.543 248.386 355.832C248.386 347.12 232.132 340.058 212.081 340.058C192.03 340.058 175.775 347.12 175.775 355.832C175.775 364.543 192.03 371.605 212.081 371.605Z" fill="white" stroke="#263238" stroke-linecap="round" stroke-linejoin="round"/>
<path d="M212.08 369.138C229.997 369.138 244.521 362.994 244.521 355.416C244.521 347.838 229.997 341.695 212.08 341.695C194.164 341.695 179.64 347.838 179.64 355.416C179.64 362.994 194.164 369.138 212.08 369.138Z" fill="#263238" stroke="#263238" stroke-linecap="round" stroke-linejoin="round"/>
<path d="M214.548 356.839C214.548 356.839 211.652 330.126 193.613 309.909C175.574 289.691 179.992 292.171 179.992 292.171" stroke="#263238" stroke-linecap="round" stroke-linejoin="round"/>
<path d="M247.051 277.418C247.051 277.418 225.399 299.083 221.786 323.63C218.173 348.178 220.527 352.143 220.527 352.143" stroke="#263238" stroke-linecap="round" stroke-linejoin="round"/>
<path d="M218.097 355.366C218.097 355.366 213.867 340.26 209.537 309.909C205.206 279.558 207.371 263.709 207.371 263.709" stroke="#263238" stroke-linecap="round" stroke-linejoin="round"/>
<path d="M181.867 300.43C181.867 300.43 175.812 307.001 166.497 294.136C157.181 281.27 160.278 266.265 160.278 266.265C160.278 266.265 165.024 273.503 172.212 276.549C179.4 279.596 189.899 296.905 181.867 300.43Z" fill="#009C8E"/>
<path d="M207.321 270.922C207.321 270.922 198.66 273.087 197.942 257.213C197.225 241.339 208.013 230.5 208.013 230.5C208.013 230.5 208.013 239.161 212.344 245.607C216.674 252.052 215.994 272.37 207.321 270.922Z" fill="#009C8E"/>
<path d="M243.06 285.437C243.06 285.437 234.626 282.504 242.72 268.832C250.815 255.161 265.808 252.014 265.808 252.014C265.808 252.014 261.062 259.265 261.125 267.12C261.188 274.976 249.569 291.391 243.06 285.437Z" fill="#009C8E"/>
<path d="M217.43 353.226C217.43 353.226 223.208 327.231 235.482 314.969C242.763 307.679 252.61 303.531 262.913 303.413C262.913 303.413 248.474 309.191 244.143 320.735C239.813 332.279 232.562 357.556 232.562 357.556H196.508C196.508 357.556 192.165 348.178 179.891 337.339C167.618 326.5 147.4 319.3 147.4 319.3C147.4 319.3 169.783 311.356 185.669 317.852C201.556 324.348 213.1 351.841 213.1 351.841L217.43 353.226Z" fill="#009C8E"/>
<path d="M222.994 353.163C222.994 353.163 208.668 343.331 193.034 344.968C177.399 346.604 176.102 359.306 175.41 362.995C175.026 365.161 174.812 367.354 174.768 369.553C174.768 369.553 194.909 363.41 207.321 361.358C219.734 359.306 224.945 365.047 222.994 353.163Z" fill="#009C8E"/>
<path d="M217.657 353.163C217.657 353.163 226.67 343.331 236.54 344.968C246.409 346.604 247.19 359.306 247.592 362.995C247.841 365.173 247.98 367.362 248.008 369.553C248.008 369.553 235.306 363.41 227.526 361.358C219.747 359.306 216.423 365.047 217.657 353.163Z" fill="#009C8E"/>
<path d="M271.736 195.089H544.227C546.945 195.089 549.551 196.168 551.473 198.09C553.395 200.012 554.474 202.618 554.474 205.336V395.825H261.489V205.323C261.493 202.608 262.574 200.005 264.495 198.086C266.416 196.167 269.021 195.089 271.736 195.089Z" fill="#263238" stroke="#263238" stroke-linecap="round" stroke-linejoin="round"/>
<path d="M598.408 484.562H217.543L261.489 395.826H554.462L598.408 484.562Z" fill="white" stroke="#263238" stroke-linecap="round" stroke-linejoin="round"/>
<path d="M536.725 210.976H279.239V379.926H536.725V210.976Z" fill="#009C8E" stroke="#263238" stroke-linecap="round" stroke-linejoin="round"/>
<path d="M350.776 330.504C364.989 316.292 364.989 293.249 350.776 279.036C336.564 264.824 313.521 264.824 299.308 279.036C285.096 293.249 285.096 316.292 299.308 330.504C313.521 344.717 336.564 344.717 350.776 330.504Z" fill="#263238"/>
<path d="M434.883 330.502C449.095 316.29 449.095 293.247 434.883 279.034C420.67 264.822 397.627 264.822 383.415 279.034C369.202 293.247 369.202 316.29 383.415 330.502C397.627 344.715 420.67 344.715 434.883 330.502Z" fill="#263238"/>
<path d="M501.52 340.197C521.095 335.635 533.265 316.068 528.702 296.493C524.14 276.918 504.573 264.748 484.998 269.31C465.423 273.873 453.253 293.44 457.816 313.015C462.378 332.59 481.945 344.76 501.52 340.197Z" fill="#263238"/>
<path d="M300.035 295.495C300.035 295.495 316.073 251.687 325.502 251.687C334.931 251.687 351.535 294.979 351.535 294.979L348.728 295.231C348.728 295.231 332.425 257.289 327.591 254.947C322.757 252.606 313.832 266.403 302.88 295.445L300.035 295.495Z" fill="white" stroke="#263238" stroke-linecap="round" stroke-linejoin="round"/>
<path d="M301.66 292.939H349.861C351.304 292.939 352.687 293.512 353.707 294.532C354.727 295.552 355.3 296.935 355.3 298.378V324.234C355.3 325.39 354.841 326.498 354.024 327.314C353.207 328.131 352.099 328.59 350.944 328.59H300.59C299.435 328.59 298.327 328.131 297.51 327.314C296.693 326.498 296.234 325.39 296.234 324.234V298.39C296.233 297.676 296.372 296.969 296.644 296.308C296.915 295.648 297.314 295.047 297.818 294.541C298.322 294.035 298.921 293.633 299.58 293.358C300.239 293.083 300.946 292.941 301.66 292.939Z" fill="white" stroke="#263238" stroke-linecap="round" stroke-linejoin="round"/>
<path d="M296.725 312.049H350.201" stroke="#263238" stroke-linecap="round" stroke-linejoin="round"/>
<path d="M352.505 294.211C352.505 294.211 351.246 295.747 351.246 300.077C351.246 304.408 349.723 327.331 349.987 328.338C350.251 329.345 351.774 328.603 351.774 328.603" fill="white"/>
<path d="M352.505 294.211C352.505 294.211 351.246 295.747 351.246 300.077C351.246 304.408 349.723 327.331 349.987 328.338C350.251 329.345 351.774 328.603 351.774 328.603" stroke="#263238" stroke-linecap="round" stroke-linejoin="round"/>
<path d="M325.503 306.951H321.424V316.115H325.503V306.951Z" fill="white" stroke="#263238" stroke-linecap="round" stroke-linejoin="round"/>
<path d="M377.304 283.485C377.304 283.485 394.311 282 414.276 282C434.242 282 443.62 283.259 443.859 284.518C444.098 285.777 441.153 301.777 441.153 303.249C441.153 304.722 441.153 325.443 440.662 326.677C440.171 327.91 437.943 328.892 436.961 329.131C435.979 329.371 384.202 329.874 382.729 329.874C381.987 329.814 381.295 329.476 380.79 328.927C380.286 328.379 380.008 327.661 380.01 326.916C380.01 325.443 380.753 309.166 379.519 303.249C378.286 297.333 377.304 283.485 377.304 283.485Z" fill="white" stroke="#263238" stroke-linecap="round" stroke-linejoin="round"/>
<path d="M395.594 291.618C395.594 291.618 395.343 272.144 397.319 265.484C398.167 262.666 399.891 260.191 402.24 258.419C404.59 256.646 407.443 255.669 410.386 255.627C414.206 255.885 417.85 257.334 420.804 259.77C423.757 262.207 425.873 265.509 426.852 269.21C429.369 278.815 427.343 290.9 427.103 292.134C426.864 293.368 424.145 296.817 423.642 290.158C423.138 283.498 424.145 267.977 422.169 263.533C421.039 261.201 419.169 259.308 416.851 258.149C414.533 256.99 411.897 256.63 409.354 257.125C404.167 258.384 401.461 260.575 400.479 266.982C399.497 273.39 401.461 288.194 400.227 291.391C398.993 294.589 396.035 296.049 395.594 291.618Z" fill="white" stroke="#263238" stroke-linecap="round" stroke-linejoin="round"/>
<path d="M381.986 283.725C381.986 283.725 380.727 296.791 380.727 301.726C380.727 306.661 380.476 309.858 380.476 309.858" fill="white"/>
<path d="M381.986 283.725C381.986 283.725 380.727 296.791 380.727 301.726C380.727 306.661 380.476 309.858 380.476 309.858" stroke="#263238" stroke-linecap="round" stroke-linejoin="round"/>
<path d="M439.654 283.977C439.654 283.977 440.158 297.043 440.158 304.685" stroke="#263238" stroke-linecap="round" stroke-linejoin="round"/>
<path d="M503.227 281.471C502.922 281.474 502.625 281.366 502.394 281.167C502.162 280.968 502.011 280.691 501.968 280.389C499.539 265.195 496.492 248.439 494.931 243.001C492.628 248.137 487.567 264.49 483.375 279.357C483.283 279.69 483.062 279.974 482.761 280.145C482.46 280.316 482.104 280.361 481.77 280.269C481.436 280.177 481.152 279.957 480.981 279.656C480.81 279.355 480.765 278.998 480.857 278.664C480.857 278.563 483.551 269.084 486.472 259.63C492.552 239.917 493.698 239.489 494.604 239.199C494.83 239.122 495.072 239.1 495.308 239.135C495.545 239.17 495.769 239.261 495.964 239.401C496.631 239.892 497.55 240.559 501.175 260.6C502.925 270.268 504.461 279.885 504.473 279.986C504.504 280.153 504.5 280.325 504.462 280.491C504.424 280.657 504.353 280.814 504.253 280.951C504.153 281.089 504.026 281.205 503.88 281.292C503.734 281.379 503.572 281.436 503.403 281.459C503.345 281.469 503.286 281.474 503.227 281.471Z" fill="white" stroke="#263238" stroke-linecap="round" stroke-linejoin="round"/>
<path d="M462.377 277.242C462.377 277.242 487.441 275.706 496.076 276.046C504.712 276.386 520.058 277.305 519.995 278.299C519.932 279.294 519.63 311.029 518.736 317.323C517.842 323.618 513.348 331.523 509.445 332.971C505.543 334.419 492.426 333.89 485.703 333.613C478.981 333.336 472.926 332.455 469.905 328.162C466.884 323.869 464.718 305.843 464.718 305.843L462.377 277.242Z" fill="white" stroke="#263238" stroke-linecap="round" stroke-linejoin="round"/>
<path d="M482.293 284.14C482.304 283.646 482.17 283.16 481.907 282.742C481.644 282.323 481.264 281.992 480.814 281.788C480.364 281.584 479.864 281.517 479.376 281.596C478.889 281.674 478.435 281.894 478.071 282.229C477.708 282.563 477.45 282.997 477.332 283.477C477.213 283.956 477.238 284.46 477.403 284.925C477.569 285.391 477.868 285.797 478.262 286.094C478.657 286.391 479.131 286.565 479.624 286.595C479.962 286.615 480.3 286.567 480.619 286.454C480.938 286.34 481.231 286.164 481.48 285.935C481.729 285.706 481.929 285.429 482.069 285.12C482.209 284.812 482.285 284.478 482.293 284.14Z" fill="white" stroke="#263238" stroke-linecap="round" stroke-linejoin="round"/>
<path d="M506.221 285.743C506.452 284.351 505.511 283.034 504.119 282.803C502.727 282.571 501.41 283.512 501.179 284.905C500.947 286.297 501.888 287.613 503.281 287.845C504.673 288.076 505.989 287.135 506.221 285.743Z" fill="white" stroke="#263238" stroke-linecap="round" stroke-linejoin="round"/>
<path d="M466.758 319.413C466.758 319.413 484.759 317.89 517.704 319.552L466.758 319.413Z" fill="white"/>
<path d="M466.758 319.413C466.758 319.413 484.759 317.89 517.704 319.552" stroke="#263238" stroke-linecap="round" stroke-linejoin="round"/>
<path d="M531.866 215.961H283.23V236.178H531.866V215.961Z" fill="#263238"/>
<path d="M403.814 227.479H428.463" stroke="white" stroke-width="2" stroke-miterlimit="10"/>
<path d="M456.977 227.479H481.625" stroke="white" stroke-width="2" stroke-miterlimit="10"/>
<path d="M524.072 221.223C524.026 221.156 523.963 221.102 523.891 221.065C523.819 221.027 523.738 221.008 523.657 221.009H510.149L509.633 219.448C509.597 219.344 509.528 219.254 509.438 219.191C509.348 219.128 509.24 219.094 509.13 219.095H505.706C505.569 219.095 505.438 219.15 505.341 219.246C505.244 219.343 505.19 219.474 505.19 219.611C505.188 219.68 505.2 219.749 505.225 219.813C505.25 219.877 505.288 219.935 505.336 219.984C505.384 220.034 505.442 220.073 505.505 220.1C505.569 220.126 505.637 220.14 505.706 220.14H508.752L512.05 230.047C512.087 230.151 512.155 230.241 512.246 230.304C512.336 230.367 512.444 230.401 512.554 230.4H512.743C512.559 230.69 512.458 231.025 512.453 231.369C512.432 231.619 512.463 231.87 512.545 232.108C512.626 232.345 512.756 232.563 512.926 232.747C513.095 232.932 513.302 233.079 513.531 233.18C513.761 233.281 514.009 233.333 514.26 233.333C514.51 233.333 514.758 233.281 514.988 233.18C515.218 233.079 515.424 232.932 515.594 232.747C515.764 232.563 515.893 232.345 515.974 232.108C516.056 231.87 516.087 231.619 516.066 231.369C516.067 231.024 515.966 230.687 515.777 230.4H518.294C518.114 230.691 518.018 231.027 518.017 231.369C517.996 231.619 518.028 231.87 518.109 232.108C518.19 232.345 518.32 232.563 518.49 232.747C518.659 232.932 518.866 233.079 519.095 233.18C519.325 233.281 519.573 233.333 519.824 233.333C520.075 233.333 520.323 233.281 520.552 233.18C520.782 233.079 520.988 232.932 521.158 232.747C521.328 232.563 521.457 232.345 521.539 232.108C521.62 231.87 521.651 231.619 521.63 231.369C521.625 231.025 521.525 230.69 521.341 230.4H521.743C521.884 230.4 522.018 230.344 522.117 230.245C522.217 230.146 522.272 230.011 522.272 229.871C522.272 229.802 522.258 229.734 522.232 229.671C522.205 229.607 522.166 229.55 522.117 229.502C522.067 229.453 522.009 229.416 521.945 229.39C521.881 229.365 521.812 229.353 521.743 229.355H512.932L512.352 227.618H522.171C522.285 227.619 522.396 227.583 522.488 227.514C522.579 227.446 522.645 227.35 522.675 227.24L524.173 221.676C524.192 221.598 524.193 221.516 524.175 221.438C524.158 221.359 524.123 221.286 524.072 221.223ZM514.253 232.137C514.101 232.139 513.951 232.097 513.823 232.014C513.695 231.931 513.595 231.812 513.535 231.672C513.475 231.532 513.458 231.377 513.486 231.227C513.514 231.077 513.586 230.939 513.693 230.831C513.8 230.722 513.937 230.648 514.086 230.617C514.236 230.586 514.391 230.601 514.532 230.658C514.673 230.716 514.793 230.815 514.878 230.941C514.963 231.068 515.009 231.217 515.009 231.369C515.009 231.571 514.929 231.764 514.788 231.908C514.647 232.051 514.455 232.134 514.253 232.137ZM519.805 232.137C519.653 232.139 519.503 232.097 519.375 232.014C519.247 231.931 519.147 231.812 519.087 231.672C519.026 231.532 519.009 231.377 519.038 231.227C519.066 231.077 519.138 230.939 519.245 230.831C519.352 230.722 519.488 230.648 519.638 230.617C519.787 230.586 519.942 230.601 520.083 230.658C520.224 230.716 520.345 230.815 520.43 230.941C520.515 231.068 520.56 231.217 520.56 231.369C520.562 231.469 520.544 231.569 520.506 231.662C520.469 231.755 520.414 231.84 520.343 231.911C520.273 231.983 520.189 232.04 520.097 232.078C520.004 232.117 519.905 232.137 519.805 232.137ZM521.202 226.573H519.264V222.066H521.202V226.573ZM516.267 222.066H518.219V226.573H516.267V222.066ZM515.223 226.573H513.271V222.066H515.185L515.223 226.573ZM510.489 222.066H512.227V226.573H511.987L510.489 222.066ZM522.26 224.722V222.066H522.965L522.26 224.722Z" fill="white"/>
<path d="M528.139 220.896C528.152 220.134 527.937 219.385 527.523 218.746C527.109 218.106 526.514 217.604 525.813 217.304C525.113 217.004 524.339 216.918 523.59 217.059C522.841 217.2 522.151 217.561 521.608 218.095C521.065 218.63 520.693 219.314 520.539 220.06C520.386 220.807 520.458 221.582 520.747 222.287C521.036 222.992 521.528 223.596 522.16 224.02C522.793 224.445 523.538 224.672 524.3 224.672C525.306 224.669 526.272 224.272 526.989 223.566C527.707 222.861 528.12 221.902 528.139 220.896Z" fill="white"/>
<path d="M522.739 223.262C522.646 223.191 522.583 223.088 522.563 222.972C522.536 222.847 522.541 222.718 522.576 222.595C522.611 222.472 522.676 222.359 522.765 222.267L524.527 220.543C524.628 220.467 524.712 220.371 524.773 220.26C524.834 220.149 524.87 220.027 524.879 219.901C524.88 219.822 524.863 219.745 524.828 219.675C524.793 219.605 524.741 219.544 524.678 219.498C524.54 219.395 524.372 219.341 524.2 219.347H523.998H523.772L523.595 219.422L523.407 219.536L523.243 219.624C523.174 219.649 523.098 219.649 523.029 219.624C522.944 219.604 522.868 219.555 522.815 219.485C522.761 219.413 522.718 219.332 522.689 219.246C522.657 219.161 522.657 219.067 522.689 218.982C522.726 218.884 522.798 218.804 522.89 218.755C523.359 218.467 523.902 218.322 524.451 218.34C524.88 218.331 525.295 218.489 525.61 218.78C525.75 218.907 525.862 219.063 525.938 219.236C526.014 219.41 526.052 219.598 526.05 219.787C526.049 220.06 525.98 220.329 525.849 220.568C525.691 220.855 525.477 221.108 525.219 221.311L523.872 222.381H525.635C525.684 222.379 525.732 222.392 525.774 222.416C525.816 222.441 525.851 222.476 525.874 222.519C525.931 222.614 525.962 222.723 525.962 222.834C525.96 222.953 525.93 223.069 525.874 223.174C525.849 223.215 525.814 223.249 525.772 223.273C525.73 223.298 525.683 223.311 525.635 223.312H523.117C523.054 223.332 522.988 223.337 522.923 223.329C522.857 223.32 522.795 223.297 522.739 223.262Z" fill="#263238"/>
<path d="M383.51 232.137H292.496C291.699 232.137 290.911 231.98 290.175 231.675C289.44 231.37 288.772 230.923 288.209 230.359C287.647 229.795 287.201 229.126 286.898 228.39C286.594 227.654 286.439 226.865 286.44 226.069C286.44 224.463 287.078 222.923 288.214 221.788C289.349 220.652 290.89 220.014 292.496 220.014H383.51C385.116 220.014 386.656 220.652 387.792 221.788C388.928 222.923 389.566 224.463 389.566 226.069C389.567 226.865 389.412 227.654 389.108 228.39C388.805 229.126 388.359 229.795 387.796 230.359C387.234 230.923 386.566 231.37 385.831 231.675C385.095 231.98 384.307 232.137 383.51 232.137Z" fill="white"/>
<path d="M306.354 352.496H343.616" stroke="#263238" stroke-width="2" stroke-linecap="round" stroke-linejoin="round"/>
<path d="M306.354 359.558H343.616" stroke="#263238" stroke-width="2" stroke-linecap="round" stroke-linejoin="round"/>
<path d="M390.509 352.496H427.783" stroke="#263238" stroke-width="2" stroke-linecap="round" stroke-linejoin="round"/>
<path d="M390.509 359.558H427.783" stroke="#263238" stroke-width="2" stroke-linecap="round" stroke-linejoin="round"/>
<path d="M474.676 352.496H511.938" stroke="#263238" stroke-width="2" stroke-linecap="round" stroke-linejoin="round"/>
<path d="M474.676 359.558H511.938" stroke="#263238" stroke-width="2" stroke-linecap="round" stroke-linejoin="round"/>
<path d="M395.759 423.923L396.262 413.109H380.791L379.759 423.923H395.759Z" fill="#263238" stroke="white" stroke-linecap="round" stroke-linejoin="round"/>
<path d="M427.759 423.923L427.23 413.109H411.746L411.759 423.923H427.759Z" fill="#263238" stroke="white" stroke-linecap="round" stroke-linejoin="round"/>
<path d="M511.082 435.48H527.623L523.746 423.923H507.746L511.082 435.48Z" fill="#263238" stroke="white" stroke-linecap="round" stroke-linejoin="round"/>
<path d="M379.759 423.923L380.791 413.109H365.307L363.771 423.923H379.759Z" fill="#263238" stroke="white" stroke-linecap="round" stroke-linejoin="round"/>
<path d="M347.77 423.923L349.822 413.109H334.351L331.771 423.923H347.77Z" fill="#263238" stroke="white" stroke-linecap="round" stroke-linejoin="round"/>
<path d="M491.746 423.923L489.153 413.109H473.669L475.746 423.923H491.746Z" fill="#263238" stroke="white" stroke-linecap="round" stroke-linejoin="round"/>
<path d="M507.746 423.923L504.624 413.109H489.152L491.746 423.923H507.746Z" fill="#263238" stroke="white" stroke-linecap="round" stroke-linejoin="round"/>
<path d="M331.771 423.923L334.352 413.109H318.868L315.771 423.923H331.771Z" fill="#263238" stroke="white" stroke-linecap="round" stroke-linejoin="round"/>
<path d="M443.758 423.923L442.713 413.109H427.229L427.758 423.923H443.758Z" fill="#263238" stroke="white" stroke-linecap="round" stroke-linejoin="round"/>
<path d="M523.746 423.923L520.108 413.109H504.624L507.746 423.923H523.746Z" fill="#263238" stroke="white" stroke-linecap="round" stroke-linejoin="round"/>
<path d="M475.746 423.923L473.668 413.109H458.185L459.746 423.923H475.746Z" fill="#263238" stroke="white" stroke-linecap="round" stroke-linejoin="round"/>
<path d="M459.746 423.923L458.185 413.109H442.714L443.759 423.923H459.746Z" fill="#263238" stroke="white" stroke-linecap="round" stroke-linejoin="round"/>
<path d="M411.758 423.923L411.745 413.109H396.261L395.758 423.923H411.758Z" fill="#263238" stroke="white" stroke-linecap="round" stroke-linejoin="round"/>
<path d="M299.771 423.923H283.771L279.353 435.48H295.906L299.771 423.923Z" fill="#263238" stroke="white" stroke-linecap="round" stroke-linejoin="round"/>
<path d="M303.384 413.109H287.913L283.771 423.923H299.771L303.384 413.109Z" fill="#263238" stroke="white" stroke-linecap="round" stroke-linejoin="round"/>
<path d="M315.771 423.923L318.868 413.109H303.384L299.771 423.923H315.771Z" fill="#263238" stroke="white" stroke-linecap="round" stroke-linejoin="round"/>
<path d="M274.619 447.867L269.533 461.185H287.321L291.765 447.867H274.619Z" fill="#263238" stroke="white" stroke-linecap="round" stroke-linejoin="round"/>
<path d="M295.906 435.479H279.352L274.619 447.867H291.765L295.906 435.479Z" fill="#263238" stroke="white" stroke-linecap="round" stroke-linejoin="round"/>
<path d="M291.765 447.867L287.321 461.185H305.109L308.911 447.867H291.765Z" fill="#263238" stroke="white" stroke-linecap="round" stroke-linejoin="round"/>
<path d="M363.771 423.923L365.307 413.109H349.823L347.771 423.923H363.771Z" fill="#263238" stroke="white" stroke-linecap="round" stroke-linejoin="round"/>
<path d="M362.11 435.48L363.771 423.923H347.771L345.568 435.48H362.11Z" fill="#263238" stroke="white" stroke-linecap="round" stroke-linejoin="round"/>
<path d="M345.568 435.48L347.771 423.923H331.771L329.014 435.48H345.568Z" fill="#263238" stroke="white" stroke-linecap="round" stroke-linejoin="round"/>
<path d="M378.663 435.48L379.758 423.923H363.771L362.109 435.48H378.663Z" fill="#263238" stroke="white" stroke-linecap="round" stroke-linejoin="round"/>
<path d="M315.771 423.923H299.771L295.906 435.48H312.46L315.771 423.923Z" fill="#263238" stroke="white" stroke-linecap="round" stroke-linejoin="round"/>
<path d="M514.645 447.867H531.79L527.623 435.479H511.082L514.645 447.867Z" fill="#263238" stroke="white" stroke-linecap="round" stroke-linejoin="round"/>
<path d="M329.014 435.48L331.771 423.923H315.771L312.46 435.48H329.014Z" fill="#263238" stroke="white" stroke-linecap="round" stroke-linejoin="round"/>
<path d="M295.907 435.479L291.766 447.867H308.911L312.461 435.479H295.907Z" fill="#263238" stroke="white" stroke-linecap="round" stroke-linejoin="round"/>
<path d="M477.974 435.48L475.746 423.923H459.746L461.42 435.48H477.974Z" fill="#263238" stroke="white" stroke-linecap="round" stroke-linejoin="round"/>
<path d="M461.42 435.48L459.746 423.923H443.759L444.867 435.48H461.42Z" fill="#263238" stroke="white" stroke-linecap="round" stroke-linejoin="round"/>
<path d="M511.082 435.48L507.746 423.923H491.746L494.528 435.48H511.082Z" fill="#263238" stroke="white" stroke-linecap="round" stroke-linejoin="round"/>
<path d="M411.771 435.48L411.758 423.923H395.758L395.217 435.48H411.771Z" fill="#263238" stroke="white" stroke-linecap="round" stroke-linejoin="round"/>
<path d="M444.867 435.48L443.759 423.923H427.759L428.325 435.48H444.867Z" fill="#263238" stroke="white" stroke-linecap="round" stroke-linejoin="round"/>
<path d="M428.324 435.48L427.758 423.923H411.758L411.77 435.48H428.324Z" fill="#263238" stroke="white" stroke-linecap="round" stroke-linejoin="round"/>
<path d="M395.217 435.48L395.758 423.923H379.758L378.663 435.48H395.217Z" fill="#263238" stroke="white" stroke-linecap="round" stroke-linejoin="round"/>
<path d="M444.866 435.479L446.075 447.867H463.208L461.42 435.479H444.866Z" fill="#263238" stroke="white" stroke-linecap="round" stroke-linejoin="round"/>
<path d="M461.42 435.479L463.207 447.867H480.353L477.974 435.479H461.42Z" fill="#263238" stroke="white" stroke-linecap="round" stroke-linejoin="round"/>
<path d="M312.46 435.479L308.91 447.867H326.056L329.014 435.479H312.46Z" fill="#263238" stroke="white" stroke-linecap="round" stroke-linejoin="round"/>
<path d="M477.974 435.479L480.353 447.867H497.498L494.528 435.479H477.974Z" fill="#263238" stroke="white" stroke-linecap="round" stroke-linejoin="round"/>
<path d="M411.771 435.479L411.784 447.867H428.93L428.325 435.479H411.771Z" fill="#263238" stroke="white" stroke-linecap="round" stroke-linejoin="round"/>
<path d="M494.528 435.479L497.499 447.867H514.645L511.082 435.479H494.528Z" fill="#263238" stroke="white" stroke-linecap="round" stroke-linejoin="round"/>
<path d="M428.324 435.479L428.928 447.867H446.074L444.866 435.479H428.324Z" fill="#263238" stroke="white" stroke-linecap="round" stroke-linejoin="round"/>
<path d="M345.568 435.479L343.201 447.867H360.347L362.109 435.479H345.568Z" fill="#263238" stroke="white" stroke-linecap="round" stroke-linejoin="round"/>
<path d="M329.014 435.479L326.056 447.867H343.201L345.568 435.479H329.014Z" fill="#263238" stroke="white" stroke-linecap="round" stroke-linejoin="round"/>
<path d="M395.217 435.479L394.638 447.867H411.783L411.771 435.479H395.217Z" fill="#263238" stroke="white" stroke-linecap="round" stroke-linejoin="round"/>
<path d="M378.663 435.479L377.492 447.867H394.638L395.217 435.479H378.663Z" fill="#263238" stroke="white" stroke-linecap="round" stroke-linejoin="round"/>
<path d="M362.109 435.479L360.347 447.867H377.492L378.663 435.479H362.109Z" fill="#263238" stroke="white" stroke-linecap="round" stroke-linejoin="round"/>
<path d="M494.528 435.48L491.746 423.923H475.746L477.974 435.48H494.528Z" fill="#263238" stroke="white" stroke-linecap="round" stroke-linejoin="round"/>
<path d="M303.383 413.11L307.084 402.032H292.129L287.912 413.11H303.383Z" fill="#263238" stroke="white" stroke-linecap="round" stroke-linejoin="round"/>
<path d="M287.913 413.109H273.612L269.005 423.923H283.771L287.913 413.109Z" fill="#263238" stroke="white" stroke-linecap="round" stroke-linejoin="round"/>
<path d="M292.13 402.032H278.333L273.612 413.11H287.913L292.13 402.032Z" fill="#263238" stroke="white" stroke-linecap="round" stroke-linejoin="round"/>
<path d="M283.77 423.923H269.004L264.082 435.48H279.352L283.77 423.923Z" fill="#263238" stroke="white" stroke-linecap="round" stroke-linejoin="round"/>
<path d="M279.352 435.479H264.082L258.795 447.867H274.619L279.352 435.479Z" fill="#263238" stroke="white" stroke-linecap="round" stroke-linejoin="round"/>
<path d="M274.619 447.867H258.796L253.118 461.185H269.534L274.619 447.867Z" fill="#263238" stroke="white" stroke-linecap="round" stroke-linejoin="round"/>
<path d="M539.733 423.923L544.177 435.48H558.818L553.895 423.923H539.733Z" fill="#263238" stroke="white" stroke-linecap="round" stroke-linejoin="round"/>
<path d="M548.936 447.867H564.105L558.818 435.479H544.178L548.936 447.867Z" fill="#263238" stroke="white" stroke-linecap="round" stroke-linejoin="round"/>
<path d="M554.046 461.185H569.782L564.105 447.867H548.936L554.046 461.185Z" fill="#263238" stroke="white" stroke-linecap="round" stroke-linejoin="round"/>
<path d="M427.23 413.11L426.689 402.032H411.733L411.746 413.11H427.23Z" fill="#263238" stroke="white" stroke-linecap="round" stroke-linejoin="round"/>
<path d="M539.733 423.923H553.896L549.288 413.109H535.592L539.733 423.923Z" fill="#263238" stroke="white" stroke-linecap="round" stroke-linejoin="round"/>
<path d="M531.79 447.867H548.935L544.177 435.479H527.623L531.79 447.867Z" fill="#263238" stroke="white" stroke-linecap="round" stroke-linejoin="round"/>
<path d="M318.868 413.11L322.04 402.032H307.085L303.384 413.11H318.868Z" fill="#263238" stroke="white" stroke-linecap="round" stroke-linejoin="round"/>
<path d="M520.107 413.109L523.745 423.923H539.733L535.591 413.109H520.107Z" fill="#263238" stroke="white" stroke-linecap="round" stroke-linejoin="round"/>
<path d="M549.287 413.11L544.566 402.032H531.336L535.591 413.11H549.287Z" fill="#263238" stroke="white" stroke-linecap="round" stroke-linejoin="round"/>
<path d="M535.592 413.11L531.337 402.032H516.395L520.108 413.11H535.592Z" fill="#263238" stroke="white" stroke-linecap="round" stroke-linejoin="round"/>
<path d="M480.354 447.867L482.922 461.185H500.697L497.499 447.867H480.354Z" fill="#263238" stroke="white" stroke-linecap="round" stroke-linejoin="round"/>
<path d="M536.259 461.185H554.047L548.936 447.867H531.79L536.259 461.185Z" fill="#263238" stroke="white" stroke-linecap="round" stroke-linejoin="round"/>
<path d="M520.108 413.11L516.395 402.032H501.439L504.624 413.11H520.108Z" fill="#263238" stroke="white" stroke-linecap="round" stroke-linejoin="round"/>
<path d="M514.645 447.867L518.484 461.185H536.259L531.79 447.867H514.645Z" fill="#263238" stroke="white" stroke-linecap="round" stroke-linejoin="round"/>
<path d="M497.499 447.867L500.696 461.185H518.484L514.645 447.867H497.499Z" fill="#263238" stroke="white" stroke-linecap="round" stroke-linejoin="round"/>
<path d="M527.623 435.48H544.177L539.734 423.923H523.746L527.623 435.48Z" fill="#263238" stroke="white" stroke-linecap="round" stroke-linejoin="round"/>
<path d="M380.79 413.11L381.835 402.032H366.88L365.307 413.11H380.79Z" fill="#263238" stroke="white" stroke-linecap="round" stroke-linejoin="round"/>
<path d="M504.624 413.11L501.439 402.032H486.484L489.153 413.11H504.624Z" fill="#263238" stroke="white" stroke-linecap="round" stroke-linejoin="round"/>
<path d="M365.306 413.11L366.88 402.032H351.937L349.822 413.11H365.306Z" fill="#263238" stroke="white" stroke-linecap="round" stroke-linejoin="round"/>
<path d="M411.746 413.11L411.733 402.032H396.79L396.262 413.11H411.746Z" fill="#263238" stroke="white" stroke-linecap="round" stroke-linejoin="round"/>
<path d="M349.823 413.11L351.938 402.032H336.983L334.352 413.11H349.823Z" fill="#263238" stroke="white" stroke-linecap="round" stroke-linejoin="round"/>
<path d="M334.351 413.11L336.982 402.032H322.039L318.867 413.11H334.351Z" fill="#263238" stroke="white" stroke-linecap="round" stroke-linejoin="round"/>
<path d="M396.262 413.11L396.791 402.032H381.836L380.791 413.11H396.262Z" fill="#263238" stroke="white" stroke-linecap="round" stroke-linejoin="round"/>
<path d="M489.152 413.11L486.484 402.032H471.541L473.668 413.11H489.152Z" fill="#263238" stroke="white" stroke-linecap="round" stroke-linejoin="round"/>
<path d="M473.669 413.11L471.541 402.032H456.586L458.185 413.11H473.669Z" fill="#263238" stroke="white" stroke-linecap="round" stroke-linejoin="round"/>
<path d="M442.714 413.11L441.631 402.032H426.688L427.23 413.11H442.714Z" fill="#263238" stroke="white" stroke-linecap="round" stroke-linejoin="round"/>
<path d="M480.353 447.867H463.208H446.075H428.929H411.783H394.638H377.492H360.347H343.201H326.056H308.91L305.108 461.185H322.883H340.671H358.446H376.233H394.008H411.796H429.571H447.359H465.134H482.921L480.353 447.867Z" fill="#263238" stroke="white" stroke-linecap="round" stroke-linejoin="round"/>
<path d="M458.185 413.11L456.586 402.032H441.631L442.713 413.11H458.185Z" fill="#263238" stroke="white" stroke-linecap="round" stroke-linejoin="round"/>
<path d="M598.585 484.562H217.543V489.975H598.585V484.562Z" fill="#263238" stroke="#263238" stroke-linecap="round" stroke-linejoin="round"/>
<path d="M470.787 579.958L332.779 581.053C329.833 581.053 327.744 579.315 328.109 577.138L336.921 525.399C337.198 523.762 339.438 522.441 341.956 522.428L460.2 521.887C462.718 521.887 464.946 523.146 465.235 524.795L475.306 576.017C475.697 578.157 473.645 579.945 470.787 579.958Z" fill="#009C8E" stroke="#263238" stroke-linecap="round" stroke-linejoin="round"/>
<path d="M405.352 531.177H448.643" stroke="#263238" stroke-linecap="round" stroke-linejoin="round"/>
<path d="M383.02 534.84H448.643" stroke="#263238" stroke-linecap="round" stroke-linejoin="round"/>
<path d="M381.232 566.463C354.972 574.821 338.154 576.307 328.36 575.816L328.045 577.679C327.731 579.555 329.531 581.078 332.061 581.053L471.542 579.957C474.06 579.957 475.759 578.409 475.394 576.546L469.364 545.704C432.933 544.773 422.409 553.371 381.232 566.463Z" fill="#263238" stroke="#263238" stroke-linecap="round" stroke-linejoin="round"/>
<path d="M358.673 544.357L347.784 544.42C346.764 544.42 346.022 543.866 346.122 543.161L347.054 536.237C347.155 535.583 348.023 535.041 349.005 535.041L359.63 534.979C360.612 534.979 361.355 535.507 361.292 536.162L360.624 543.073C360.561 543.778 359.68 544.344 358.673 544.357Z" fill="white" stroke="#263238" stroke-linecap="round" stroke-linejoin="round"/>
<path d="M354.959 541.122H352.265C351.774 541.122 351.409 540.858 351.447 540.53L351.661 538.818C351.661 538.491 352.127 538.227 352.605 538.227H355.312C355.803 538.227 356.168 538.491 356.13 538.806L355.941 540.518C355.878 540.82 355.45 541.122 354.959 541.122Z" fill="white" stroke="#263238" stroke-linecap="round" stroke-linejoin="round"/>
<path d="M347.079 536.086H351.258C352.064 536.086 352.668 536.514 352.605 537.068L352.467 538.226" stroke="#263238" stroke-linecap="round" stroke-linejoin="round"/>
<path d="M361.317 536.086H357.2C356.382 536.086 355.677 536.527 355.614 537.068L355.488 538.239" stroke="#263238" stroke-linecap="round" stroke-linejoin="round"/>
<path d="M346.085 543.438H350.34C351.171 543.438 351.901 542.972 351.964 542.406L352.102 541.223" stroke="#263238" stroke-linecap="round" stroke-linejoin="round"/>
<path d="M360.599 543.35H356.408C355.577 543.35 354.947 542.909 355.01 542.343L355.149 541.147" stroke="#263238" stroke-linecap="round" stroke-linejoin="round"/>
<path d="M346.588 539.913L351.523 539.888" stroke="#263238" stroke-linecap="round" stroke-linejoin="round"/>
<path d="M355.865 539.863L360.787 539.838" stroke="#263238" stroke-linecap="round" stroke-linejoin="round"/>
<path d="M344.952 558.947C344.737 558.875 344.536 558.764 344.361 558.62C344.219 558.476 344.108 558.304 344.033 558.116C343.96 557.918 343.918 557.71 343.907 557.5C343.884 557.274 343.884 557.046 343.907 556.82C343.911 556.502 343.981 556.189 344.112 555.901C344.244 555.612 344.434 555.354 344.671 555.143C344.908 554.932 345.187 554.773 345.489 554.676C345.791 554.579 346.11 554.546 346.425 554.579C347.86 554.579 348.49 555.309 348.301 556.795C348.276 557.025 348.229 557.252 348.162 557.474C348.094 557.688 347.997 557.892 347.873 558.079C347.748 558.276 347.591 558.451 347.407 558.595C347.206 558.745 346.98 558.86 346.74 558.935C346.445 559.017 346.14 559.059 345.834 559.061C345.536 559.068 345.239 559.03 344.952 558.947ZM346.324 558.507C346.447 558.465 346.566 558.41 346.677 558.343C346.77 558.273 346.854 558.193 346.929 558.104C347.009 558.012 347.076 557.911 347.13 557.802C347.184 557.697 347.226 557.588 347.256 557.474C347.256 557.348 347.319 557.235 347.344 557.134C347.352 557.021 347.352 556.908 347.344 556.795C347.344 556.669 347.344 556.555 347.344 556.455V556.115C347.352 556.002 347.352 555.888 347.344 555.775C347.318 555.678 347.279 555.585 347.231 555.498C347.178 555.407 347.11 555.327 347.029 555.259C346.936 555.198 346.834 555.151 346.727 555.12C346.59 555.094 346.449 555.094 346.312 555.12C346.166 555.1 346.017 555.1 345.871 555.12C345.752 555.155 345.637 555.206 345.531 555.271C345.436 555.338 345.351 555.418 345.28 555.511C345.2 555.59 345.136 555.684 345.091 555.787C345.035 555.897 344.989 556.01 344.952 556.127C344.914 556.238 344.885 556.352 344.864 556.467C344.857 556.585 344.857 556.702 344.864 556.82V557.147V557.487C344.856 557.6 344.856 557.714 344.864 557.827C344.891 557.927 344.929 558.024 344.977 558.116C345.023 558.209 345.087 558.29 345.166 558.356C345.259 558.421 345.361 558.472 345.468 558.507C345.61 558.533 345.755 558.533 345.896 558.507C346.038 558.526 346.182 558.526 346.324 558.507Z" fill="white"/>
<path d="M351.007 558.897C350.786 558.838 350.583 558.725 350.416 558.569C350.263 558.432 350.146 558.259 350.076 558.066C349.997 557.873 349.95 557.669 349.937 557.462C349.913 557.236 349.913 557.008 349.937 556.782C349.936 556.471 350 556.163 350.124 555.878C350.248 555.594 350.43 555.338 350.659 555.127C350.887 554.916 351.157 554.755 351.451 554.654C351.745 554.553 352.057 554.515 352.367 554.541C353.814 554.541 354.444 555.259 354.28 556.757C354.259 556.987 354.217 557.214 354.154 557.437C354.084 557.649 353.987 557.852 353.865 558.041C353.742 558.232 353.594 558.406 353.424 558.557C353.223 558.705 352.997 558.816 352.757 558.884C352.464 558.977 352.158 559.024 351.851 559.023C351.564 559.029 351.279 558.986 351.007 558.897ZM352.367 558.456C352.491 558.424 352.61 558.373 352.719 558.305C352.815 558.234 352.899 558.149 352.971 558.053C353.045 557.965 353.109 557.868 353.16 557.764C353.211 557.659 353.254 557.549 353.286 557.437C353.286 557.311 353.349 557.197 353.374 557.097V556.757C353.374 556.631 353.374 556.518 353.374 556.417C353.38 556.299 353.38 556.182 353.374 556.064C353.381 555.955 353.381 555.846 353.374 555.737C353.348 555.638 353.305 555.545 353.248 555.46C353.199 555.367 353.13 555.285 353.046 555.221C352.953 555.16 352.851 555.114 352.744 555.082C352.607 555.056 352.466 555.056 352.329 555.082C352.183 555.062 352.035 555.062 351.888 555.082C351.772 555.115 351.661 555.166 351.561 555.234C351.459 555.296 351.369 555.377 351.297 555.473C351.225 555.559 351.162 555.652 351.108 555.75C351.108 555.85 351.02 555.964 350.982 556.09C350.944 556.215 350.982 556.329 350.894 556.429C350.806 556.53 350.894 556.656 350.894 556.782C350.888 556.891 350.888 557 350.894 557.109V557.487C350.886 557.6 350.886 557.714 350.894 557.827C350.922 557.929 350.964 558.026 351.02 558.116C351.068 558.206 351.132 558.287 351.209 558.355C351.304 558.423 351.411 558.474 351.523 558.507C351.665 558.527 351.809 558.527 351.951 558.507C352.092 558.515 352.232 558.498 352.367 558.456Z" fill="white"/>
<path d="M357.049 558.859C356.83 558.797 356.627 558.685 356.458 558.532C356.305 558.394 356.188 558.221 356.118 558.028C356.03 557.838 355.978 557.633 355.967 557.424C355.942 557.198 355.942 556.97 355.967 556.744C355.958 556.435 356.016 556.127 356.135 555.841C356.254 555.555 356.433 555.298 356.659 555.086C356.885 554.874 357.153 554.713 357.446 554.612C357.739 554.512 358.05 554.475 358.359 554.503C359.794 554.503 360.448 555.221 360.31 556.719C360.289 556.949 360.247 557.177 360.184 557.399C360.117 557.609 360.029 557.812 359.92 558.003C359.799 558.196 359.646 558.367 359.466 558.507C359.271 558.66 359.049 558.775 358.812 558.847C358.523 558.94 358.221 558.987 357.918 558.985C357.624 558.991 357.33 558.949 357.049 558.859ZM358.409 558.419C358.53 558.388 358.645 558.337 358.749 558.267C358.849 558.197 358.938 558.112 359.013 558.016C359.084 557.927 359.143 557.83 359.189 557.726C359.239 557.62 359.281 557.511 359.315 557.399C359.315 557.273 359.341 557.16 359.391 557.059V556.719C359.391 556.593 359.391 556.48 359.391 556.379C359.397 556.262 359.397 556.144 359.391 556.027C359.383 555.915 359.362 555.806 359.328 555.699C359.302 555.601 359.259 555.507 359.202 555.422C359.157 555.327 359.087 555.244 359.001 555.183C358.909 555.12 358.807 555.073 358.699 555.045C358.56 555.003 358.416 554.981 358.27 554.982C358.126 554.989 357.983 555.01 357.842 555.045C357.726 555.077 357.615 555.128 357.515 555.196C357.42 555.258 357.335 555.334 357.263 555.422C357.192 555.513 357.129 555.61 357.075 555.712C357.025 555.818 356.983 555.927 356.949 556.039C356.913 556.154 356.888 556.272 356.873 556.392C356.865 556.509 356.865 556.627 356.873 556.744C356.873 556.858 356.873 556.971 356.873 557.072C356.867 557.185 356.867 557.298 356.873 557.411C356.865 557.525 356.865 557.638 356.873 557.751C356.907 557.851 356.949 557.948 356.999 558.041C357.052 558.128 357.121 558.204 357.2 558.267C357.295 558.339 357.402 558.395 357.515 558.431C357.657 558.452 357.801 558.452 357.943 558.431C358.098 558.451 358.255 558.447 358.409 558.419Z" fill="white"/>
<path d="M363.092 558.821C362.872 558.759 362.67 558.647 362.5 558.494C362.348 558.353 362.228 558.182 362.148 557.99C362.064 557.798 362.009 557.594 361.984 557.386C361.971 557.16 361.971 556.933 361.984 556.706C361.972 556.398 362.026 556.091 362.142 555.805C362.259 555.519 362.435 555.261 362.659 555.049C362.883 554.837 363.15 554.675 363.442 554.574C363.734 554.474 364.043 554.437 364.351 554.466C365.786 554.466 366.453 555.183 366.327 556.681C366.317 556.907 366.279 557.132 366.214 557.348C366.16 557.565 366.075 557.773 365.962 557.965C365.846 558.158 365.697 558.328 365.521 558.469C365.325 558.619 365.103 558.734 364.867 558.809C364.577 558.896 364.276 558.943 363.973 558.947C363.674 558.955 363.376 558.912 363.092 558.821ZM364.451 558.381C364.574 558.347 364.689 558.291 364.791 558.217C364.887 558.151 364.972 558.07 365.043 557.978C365.106 557.877 365.169 557.789 365.219 557.688L365.333 557.361C365.333 557.235 365.358 557.122 365.408 557.021V556.681C365.408 556.555 365.408 556.442 365.408 556.329C365.414 556.215 365.414 556.102 365.408 555.989C365.39 555.878 365.365 555.769 365.333 555.661C365.309 555.562 365.266 555.468 365.207 555.385C365.157 555.292 365.088 555.21 365.005 555.145C364.912 555.077 364.804 555.03 364.691 555.007C364.553 554.987 364.413 554.987 364.275 555.007C364.129 554.987 363.981 554.987 363.835 555.007C363.718 555.039 363.607 555.09 363.507 555.158C363.415 555.223 363.33 555.299 363.255 555.385C363.193 555.485 363.13 555.573 363.079 555.674L362.966 556.001C362.93 556.116 362.905 556.234 362.89 556.354C362.89 556.455 362.89 556.568 362.89 556.694C362.89 556.82 362.89 556.933 362.89 557.034C362.885 557.147 362.885 557.26 362.89 557.374C362.902 557.484 362.923 557.594 362.953 557.701C362.982 557.803 363.025 557.9 363.079 557.99C363.134 558.084 363.206 558.165 363.293 558.23C363.383 558.3 363.486 558.351 363.595 558.381C363.733 558.428 363.878 558.449 364.023 558.444C364.168 558.442 364.312 558.421 364.451 558.381Z" fill="white"/>
<path d="M375.958 558.746C375.734 558.684 375.528 558.572 375.353 558.419C375.198 558.278 375.073 558.107 374.988 557.915C374.894 557.725 374.83 557.521 374.8 557.311C374.774 557.085 374.774 556.857 374.8 556.631C374.774 556.327 374.816 556.021 374.922 555.735C375.028 555.449 375.195 555.19 375.413 554.976C375.63 554.762 375.892 554.599 376.18 554.498C376.468 554.396 376.775 554.36 377.078 554.39C378.513 554.39 379.193 555.121 379.13 556.606C379.121 556.835 379.091 557.062 379.042 557.286C378.99 557.497 378.909 557.7 378.803 557.89C378.696 558.082 378.555 558.252 378.387 558.394C378.193 558.541 377.977 558.656 377.745 558.733C377.457 558.827 377.155 558.874 376.851 558.872C376.549 558.881 376.246 558.839 375.958 558.746ZM377.292 558.305C377.412 558.272 377.527 558.221 377.632 558.154C377.721 558.08 377.801 557.995 377.871 557.903C377.938 557.814 377.993 557.716 378.035 557.613C378.082 557.507 378.12 557.398 378.148 557.286C378.148 557.16 378.148 557.047 378.148 556.946C378.155 556.833 378.155 556.719 378.148 556.606C378.154 556.493 378.154 556.379 378.148 556.266C378.154 556.153 378.154 556.039 378.148 555.926C378.148 555.8 378.148 555.687 378.073 555.599C378.034 555.499 377.988 555.402 377.934 555.309C377.872 555.222 377.795 555.145 377.707 555.083C377.613 555.013 377.506 554.961 377.393 554.932C377.255 554.911 377.115 554.911 376.977 554.932C376.832 554.931 376.688 554.953 376.549 554.995C376.435 555.028 376.326 555.075 376.222 555.133C376.13 555.2 376.049 555.28 375.983 555.372C375.912 555.459 375.856 555.556 375.819 555.662C375.77 555.767 375.732 555.876 375.706 555.989C375.706 556.115 375.706 556.228 375.643 556.329C375.636 556.446 375.636 556.564 375.643 556.681C375.637 556.79 375.637 556.9 375.643 557.009C375.637 557.122 375.637 557.235 375.643 557.349C375.653 557.465 375.679 557.579 375.719 557.689C375.752 557.791 375.799 557.888 375.857 557.978C375.915 558.069 375.987 558.15 376.071 558.217C376.165 558.287 376.272 558.339 376.386 558.368C376.528 558.389 376.672 558.389 376.814 558.368C376.976 558.369 377.138 558.343 377.292 558.293V558.305Z" fill="white"/>
<path d="M381.988 558.746C381.761 558.681 381.551 558.569 381.371 558.419C381.215 558.278 381.09 558.107 381.006 557.915C380.905 557.727 380.841 557.522 380.817 557.311C380.79 557.085 380.79 556.857 380.817 556.631C380.778 556.33 380.808 556.024 380.902 555.735C380.997 555.446 381.156 555.183 381.366 554.963C381.576 554.743 381.832 554.574 382.116 554.466C382.4 554.358 382.704 554.315 383.007 554.34C384.442 554.34 385.135 555.07 385.084 556.555C385.088 556.993 384.984 557.426 384.782 557.814C384.675 558.006 384.535 558.177 384.367 558.318C384.179 558.468 383.966 558.583 383.737 558.658C383.447 558.745 383.146 558.792 382.844 558.796C382.557 558.825 382.268 558.808 381.988 558.746ZM383.322 558.305C383.441 558.274 383.553 558.218 383.649 558.142C383.744 558.078 383.825 557.997 383.888 557.902C383.956 557.814 384.011 557.716 384.052 557.613C384.093 557.506 384.127 557.397 384.153 557.286C384.153 557.16 384.153 557.046 384.153 556.946C384.153 556.845 384.153 556.732 384.153 556.606V556.228C384.159 556.115 384.159 556.002 384.153 555.888C384.138 555.777 384.113 555.667 384.077 555.561C384.04 555.458 383.989 555.361 383.926 555.271C383.868 555.184 383.796 555.108 383.712 555.045C383.616 554.977 383.51 554.926 383.397 554.894C383.256 554.873 383.111 554.873 382.969 554.894C382.827 554.874 382.683 554.874 382.541 554.894C382.431 554.931 382.325 554.982 382.227 555.045C382.132 555.108 382.051 555.189 381.988 555.284C381.919 555.368 381.864 555.461 381.824 555.561C381.781 555.671 381.747 555.785 381.723 555.901C381.723 556.027 381.723 556.14 381.66 556.241C381.597 556.341 381.66 556.467 381.66 556.593V556.921C381.648 557.033 381.648 557.147 381.66 557.26C381.671 557.377 381.696 557.491 381.736 557.6C381.767 557.7 381.813 557.793 381.874 557.877C381.932 557.968 382.004 558.049 382.088 558.116C382.184 558.184 382.29 558.235 382.403 558.268C382.54 558.315 382.686 558.336 382.831 558.33C382.998 558.332 383.163 558.306 383.322 558.255V558.305Z" fill="white"/>
<path d="M388.042 558.658C387.817 558.59 387.608 558.479 387.425 558.33C387.262 558.194 387.133 558.022 387.048 557.827C386.953 557.636 386.885 557.432 386.846 557.223C386.826 556.997 386.826 556.769 386.846 556.543C386.811 556.242 386.843 555.937 386.941 555.651C387.04 555.364 387.201 555.104 387.414 554.889C387.627 554.673 387.886 554.509 388.171 554.407C388.456 554.306 388.761 554.27 389.062 554.302C390.497 554.302 391.202 555.032 391.177 556.518C391.176 556.746 391.155 556.973 391.114 557.197C391.072 557.41 390.995 557.614 390.887 557.802C390.789 557.995 390.652 558.167 390.484 558.305C390.3 558.461 390.086 558.576 389.855 558.645C389.57 558.735 389.273 558.778 388.974 558.771C388.659 558.78 388.345 558.742 388.042 558.658ZM389.301 558.217C389.418 558.181 389.529 558.125 389.628 558.053C389.72 557.987 389.801 557.906 389.868 557.814C389.928 557.723 389.978 557.626 390.019 557.525C390.06 557.418 390.093 557.309 390.119 557.197C390.119 557.072 390.119 556.958 390.119 556.858C390.119 556.757 390.119 556.644 390.119 556.518C390.126 556.404 390.126 556.291 390.119 556.178C390.131 556.061 390.131 555.942 390.119 555.825C390.102 555.715 390.076 555.605 390.044 555.498C390.003 555.401 389.953 555.308 389.893 555.221C389.83 555.133 389.754 555.057 389.666 554.994C389.571 554.927 389.464 554.876 389.352 554.843C389.21 554.823 389.065 554.823 388.924 554.843C388.782 554.823 388.637 554.823 388.495 554.843C388.383 554.876 388.276 554.927 388.181 554.994C388.089 555.061 388.008 555.142 387.942 555.234C387.882 555.32 387.831 555.413 387.791 555.511C387.748 555.621 387.714 555.735 387.69 555.85C387.69 555.964 387.69 556.09 387.69 556.19C387.683 556.308 387.683 556.425 387.69 556.543C387.677 556.652 387.677 556.761 387.69 556.87C387.679 556.983 387.679 557.097 387.69 557.21C387.699 557.322 387.724 557.433 387.765 557.537C387.803 557.64 387.854 557.737 387.916 557.827C387.975 557.925 388.054 558.011 388.147 558.078C388.24 558.145 388.346 558.192 388.458 558.217C388.596 558.259 388.741 558.28 388.886 558.28C389.026 558.278 389.166 558.257 389.301 558.217Z" fill="white"/>
<path d="M394.034 558.62C393.81 558.55 393.601 558.439 393.417 558.293C393.254 558.154 393.121 557.982 393.027 557.789C392.932 557.598 392.864 557.395 392.826 557.185C392.785 556.961 392.764 556.733 392.763 556.505C392.72 556.206 392.747 555.902 392.841 555.615C392.934 555.329 393.092 555.067 393.302 554.851C393.512 554.635 393.769 554.469 394.053 554.368C394.337 554.266 394.641 554.231 394.94 554.264C396.376 554.264 397.093 554.994 397.093 556.48C397.099 556.704 397.078 556.928 397.03 557.147C396.994 557.361 396.926 557.569 396.829 557.764C396.727 557.955 396.59 558.126 396.426 558.267C396.245 558.421 396.035 558.536 395.809 558.607C395.523 558.691 395.226 558.733 394.928 558.733C394.626 558.738 394.325 558.7 394.034 558.62ZM395.356 558.179C395.471 558.138 395.581 558.083 395.683 558.016C395.774 557.952 395.851 557.871 395.91 557.777C395.97 557.685 396.02 557.588 396.061 557.487C396.105 557.378 396.135 557.264 396.149 557.147C396.149 557.034 396.149 556.921 396.149 556.82C396.149 556.719 396.149 556.606 396.149 556.48C396.149 556.354 396.149 556.241 396.149 556.14C396.149 556.039 396.149 555.913 396.149 555.788C396.127 555.677 396.098 555.567 396.061 555.46C396.02 555.363 395.97 555.27 395.91 555.183C395.847 555.096 395.771 555.019 395.683 554.957C395.587 554.889 395.481 554.838 395.368 554.806C395.226 554.786 395.082 554.786 394.94 554.806C394.799 554.785 394.654 554.785 394.512 554.806C394.4 554.838 394.293 554.889 394.198 554.957C394.107 555.02 394.03 555.102 393.971 555.196C393.903 555.279 393.848 555.373 393.807 555.473C393.807 555.574 393.745 555.687 393.719 555.813C393.713 555.926 393.713 556.039 393.719 556.153C393.719 556.253 393.719 556.379 393.719 556.492C393.719 556.606 393.719 556.732 393.719 556.832C393.719 556.933 393.719 557.046 393.719 557.172C393.74 557.284 393.769 557.393 393.807 557.5C393.845 557.602 393.896 557.7 393.959 557.789C394.017 557.883 394.094 557.964 394.185 558.028C394.284 558.098 394.395 558.149 394.512 558.179C394.651 558.221 394.795 558.243 394.94 558.242C395.081 558.241 395.221 558.219 395.356 558.179Z" fill="white"/>
<path d="M406.925 558.532C406.69 558.47 406.472 558.358 406.283 558.205C406.119 558.063 405.983 557.892 405.88 557.701C405.779 557.51 405.703 557.307 405.654 557.097C405.601 556.874 405.576 556.646 405.578 556.417C405.578 554.932 406.246 554.189 407.681 554.189C407.979 554.153 408.282 554.184 408.567 554.282C408.851 554.38 409.11 554.541 409.323 554.753C409.536 554.965 409.698 555.223 409.798 555.506C409.897 555.79 409.931 556.093 409.896 556.392C409.922 556.618 409.922 556.846 409.896 557.072C409.868 557.282 409.804 557.487 409.707 557.676C409.623 557.871 409.493 558.043 409.33 558.179C409.153 558.332 408.948 558.448 408.725 558.519C408.149 558.679 407.54 558.679 406.963 558.519L406.925 558.532ZM408.184 558.091C408.405 558.021 408.595 557.88 408.725 557.688C408.784 557.598 408.83 557.501 408.864 557.399C408.904 557.294 408.929 557.184 408.939 557.072C408.939 556.946 408.939 556.832 408.939 556.732V556.404C408.939 556.279 408.939 556.153 408.939 556.052C408.939 555.951 408.939 555.838 408.939 555.712C408.939 555.586 408.876 555.485 408.839 555.385L408.675 555.095C408.605 555.01 408.525 554.934 408.436 554.869C408.34 554.801 408.234 554.75 408.121 554.718C407.979 554.704 407.836 554.704 407.693 554.718C407.548 554.717 407.404 554.738 407.265 554.78C407.153 554.813 407.046 554.864 406.95 554.932C406.87 554.998 406.798 555.074 406.736 555.158C406.676 555.249 406.626 555.346 406.585 555.448C406.585 555.536 406.585 555.649 406.51 555.775C406.499 555.888 406.499 556.002 406.51 556.115V556.467C406.503 556.576 406.503 556.686 406.51 556.795C406.498 556.908 406.498 557.022 406.51 557.135C406.53 557.25 406.56 557.364 406.598 557.474C406.648 557.569 406.702 557.662 406.762 557.751C406.825 557.846 406.906 557.927 407.001 557.991C407.1 558.06 407.211 558.112 407.328 558.142C407.47 558.169 407.615 558.169 407.756 558.142C407.9 558.145 408.045 558.128 408.184 558.091Z" fill="white"/>
<path d="M412.866 558.494C412.634 558.426 412.416 558.315 412.224 558.167C412.057 558.028 411.92 557.857 411.821 557.663C411.715 557.473 411.634 557.27 411.582 557.059C411.531 556.836 411.502 556.608 411.494 556.379C411.431 554.894 412.124 554.151 413.559 554.151C413.859 554.116 414.163 554.148 414.449 554.246C414.735 554.343 414.995 554.504 415.211 554.715C415.427 554.926 415.593 555.183 415.697 555.466C415.801 555.75 415.84 556.053 415.812 556.354C415.831 556.58 415.831 556.808 415.812 557.034C415.783 557.243 415.723 557.446 415.636 557.638C415.542 557.828 415.414 557.999 415.258 558.141C415.082 558.295 414.876 558.41 414.654 558.481C414.369 558.573 414.071 558.615 413.773 558.607C413.467 558.613 413.161 558.575 412.866 558.494ZM414.125 558.053C414.239 558.017 414.345 557.962 414.44 557.89C414.524 557.822 414.596 557.741 414.654 557.651C414.71 557.559 414.757 557.462 414.792 557.361C414.831 557.255 414.856 557.145 414.868 557.034C414.868 556.908 414.868 556.795 414.868 556.694V556.354C414.868 556.228 414.868 556.115 414.868 556.014C414.859 555.899 414.838 555.785 414.805 555.674C414.763 555.452 414.672 555.241 414.541 555.057C414.474 554.969 414.393 554.893 414.301 554.831C414.201 554.763 414.091 554.712 413.974 554.68C413.832 554.665 413.688 554.665 413.546 554.68C413.408 554.659 413.268 554.659 413.131 554.68C413.018 554.712 412.912 554.763 412.816 554.831C412.736 554.897 412.664 554.973 412.602 555.057C412.541 555.146 412.494 555.244 412.463 555.347C412.422 555.452 412.397 555.562 412.388 555.674C412.388 555.8 412.388 555.913 412.388 556.014C412.375 556.131 412.375 556.249 412.388 556.366C412.381 556.475 412.381 556.585 412.388 556.694C412.388 556.795 412.388 556.908 412.388 557.034C412.41 557.146 412.444 557.256 412.489 557.361C412.535 557.464 412.594 557.562 412.665 557.651C412.724 557.745 412.801 557.826 412.891 557.89C412.992 557.957 413.102 558.008 413.219 558.041C413.362 558.082 413.51 558.103 413.659 558.104C413.829 558.115 413.999 558.098 414.163 558.053H414.125Z" fill="white"/>
<path d="M418.872 558.456C418.639 558.389 418.421 558.278 418.23 558.129C418.062 557.988 417.921 557.817 417.814 557.626C417.704 557.436 417.62 557.233 417.562 557.021C417.508 556.798 417.474 556.571 417.462 556.342C417.386 554.856 418.066 554.113 419.488 554.113C419.791 554.077 420.097 554.108 420.385 554.205C420.674 554.301 420.937 554.461 421.157 554.671C421.376 554.882 421.546 555.139 421.653 555.424C421.761 555.708 421.804 556.013 421.78 556.316C421.799 556.538 421.799 556.762 421.78 556.984C421.756 557.196 421.701 557.404 421.616 557.6C421.524 557.788 421.4 557.958 421.251 558.104C421.075 558.257 420.869 558.373 420.647 558.444C420.365 558.528 420.072 558.57 419.778 558.57C419.472 558.575 419.167 558.537 418.872 558.456ZM420.13 558.016C420.242 557.974 420.347 557.919 420.445 557.852C420.532 557.788 420.605 557.707 420.659 557.613C420.716 557.522 420.762 557.425 420.798 557.323C420.805 557.214 420.805 557.105 420.798 556.996C420.798 556.87 420.798 556.757 420.798 556.656C420.804 556.543 420.804 556.43 420.798 556.316V555.976C420.783 555.862 420.762 555.749 420.735 555.637C420.714 555.522 420.676 555.412 420.621 555.309C420.577 555.208 420.522 555.111 420.458 555.02C420.388 554.935 420.307 554.859 420.219 554.793C420.117 554.727 420.007 554.677 419.891 554.642C419.749 554.629 419.606 554.629 419.463 554.642C419.318 554.642 419.174 554.663 419.035 554.705C418.927 554.737 418.824 554.788 418.733 554.856C418.649 554.919 418.577 554.996 418.519 555.083C418.461 555.173 418.414 555.27 418.381 555.372C418.371 555.481 418.371 555.591 418.381 555.7C418.369 555.813 418.369 555.926 418.381 556.039V556.392V556.719C418.392 556.834 418.413 556.948 418.444 557.059C418.466 557.171 418.5 557.281 418.544 557.386C418.591 557.49 418.65 557.587 418.721 557.676C418.784 557.771 418.865 557.852 418.96 557.915C419.06 557.983 419.171 558.034 419.287 558.066C419.426 558.107 419.57 558.129 419.715 558.129C419.867 558.115 420.016 558.076 420.156 558.016H420.13Z" fill="white"/>
<path d="M424.876 558.406C424.644 558.343 424.426 558.236 424.234 558.091C424.062 557.951 423.917 557.78 423.806 557.588C423.692 557.399 423.603 557.196 423.542 556.984C423.488 556.761 423.454 556.533 423.441 556.304C423.328 554.818 423.995 554.076 425.43 554.076C425.733 554.042 426.039 554.075 426.328 554.172C426.616 554.27 426.88 554.429 427.101 554.638C427.321 554.848 427.493 555.104 427.605 555.387C427.716 555.671 427.765 555.975 427.746 556.279C427.772 556.5 427.772 556.724 427.746 556.946C427.723 557.159 427.668 557.367 427.583 557.563C427.499 557.752 427.379 557.923 427.23 558.066C427.061 558.219 426.858 558.331 426.639 558.394C426.359 558.488 426.065 558.535 425.77 558.532C425.467 558.539 425.165 558.497 424.876 558.406ZM426.135 557.978C426.246 557.937 426.352 557.882 426.45 557.815C426.534 557.747 426.606 557.666 426.664 557.575C426.714 557.483 426.756 557.386 426.79 557.286C426.798 557.173 426.798 557.059 426.79 556.946C426.796 556.837 426.796 556.728 426.79 556.619C426.795 556.505 426.795 556.392 426.79 556.279V555.939C426.776 555.823 426.751 555.709 426.714 555.599C426.694 555.485 426.655 555.374 426.601 555.272C426.555 555.168 426.496 555.07 426.425 554.982C426.358 554.894 426.277 554.818 426.185 554.755C426.085 554.688 425.975 554.637 425.858 554.604C425.716 554.584 425.572 554.584 425.43 554.604C425.285 554.604 425.141 554.625 425.002 554.667C424.894 554.702 424.792 554.753 424.7 554.818C424.54 554.955 424.423 555.134 424.36 555.335C424.329 555.442 424.308 555.551 424.297 555.662C424.297 555.788 424.297 555.901 424.297 556.002C424.297 556.102 424.297 556.228 424.297 556.354C424.29 556.463 424.29 556.573 424.297 556.682C424.297 556.782 424.297 556.896 424.373 557.021C424.395 557.135 424.433 557.245 424.486 557.349C424.531 557.453 424.591 557.55 424.662 557.638C424.725 557.733 424.807 557.814 424.901 557.877C425.002 557.945 425.112 557.996 425.229 558.029C425.374 558.054 425.524 558.054 425.669 558.029C425.83 558.039 425.992 558.022 426.148 557.978H426.135Z" fill="white"/>
<path d="M437.654 558.331C437.414 558.26 437.189 558.149 436.986 558.003C436.814 557.86 436.666 557.69 436.546 557.5C436.423 557.314 436.33 557.11 436.269 556.896C436.204 556.674 436.162 556.446 436.143 556.216C435.992 554.743 436.621 554 438.056 553.988C438.362 553.957 438.671 553.992 438.962 554.09C439.253 554.187 439.52 554.345 439.746 554.553C439.972 554.761 440.151 555.014 440.272 555.297C440.393 555.579 440.453 555.884 440.448 556.191C440.473 556.417 440.473 556.644 440.448 556.87C440.432 557.078 440.386 557.281 440.31 557.475C440.238 557.664 440.127 557.836 439.983 557.978C439.811 558.131 439.609 558.247 439.391 558.318C439.109 558.404 438.817 558.447 438.522 558.444C438.229 558.446 437.937 558.408 437.654 558.331ZM438.912 557.89C439.021 557.851 439.123 557.796 439.215 557.726C439.298 557.662 439.366 557.58 439.416 557.487C439.465 557.395 439.503 557.298 439.529 557.198C439.559 557.09 439.58 556.981 439.592 556.87V556.53C439.598 556.421 439.598 556.312 439.592 556.203C439.592 556.077 439.592 555.964 439.592 555.851C439.592 555.737 439.592 555.637 439.504 555.511C439.472 555.398 439.43 555.289 439.378 555.184C439.329 555.086 439.27 554.993 439.202 554.907C439.131 554.818 439.046 554.741 438.95 554.68C438.844 554.615 438.73 554.564 438.61 554.529C438.468 554.509 438.324 554.509 438.182 554.529C438.045 554.509 437.905 554.509 437.767 554.529C437.657 554.558 437.554 554.61 437.465 554.68C437.385 554.748 437.317 554.829 437.263 554.919C437.209 555.005 437.167 555.098 437.138 555.196C437.13 555.305 437.13 555.414 437.138 555.523C437.131 555.637 437.131 555.75 437.138 555.863C437.138 555.977 437.138 556.09 437.138 556.216V556.543C437.161 556.658 437.19 556.771 437.226 556.883C437.252 556.996 437.29 557.105 437.339 557.21C437.39 557.314 437.453 557.411 437.528 557.5C437.595 557.595 437.681 557.676 437.78 557.739C437.883 557.809 437.998 557.86 438.119 557.89C438.258 557.931 438.402 557.952 438.547 557.953C438.671 557.948 438.794 557.926 438.912 557.89Z" fill="white"/>
<path d="M443.633 558.293C443.4 558.217 443.179 558.107 442.979 557.966C442.799 557.826 442.646 557.655 442.525 557.462C442.404 557.274 442.306 557.071 442.236 556.858C442.167 556.636 442.12 556.409 442.097 556.178C441.921 554.705 442.55 553.962 443.973 553.95C444.28 553.92 444.591 553.955 444.884 554.052C445.177 554.149 445.446 554.306 445.675 554.514C445.904 554.721 446.087 554.974 446.212 555.256C446.337 555.539 446.402 555.844 446.403 556.153C446.421 556.379 446.421 556.606 446.403 556.833C446.391 557.039 446.349 557.243 446.277 557.437C446.202 557.625 446.091 557.796 445.949 557.94C445.785 558.094 445.586 558.206 445.37 558.268C445.091 558.364 444.797 558.411 444.502 558.406C444.208 558.407 443.916 558.369 443.633 558.293ZM444.892 557.852C445 557.814 445.102 557.758 445.194 557.689C445.274 557.62 445.342 557.54 445.395 557.449C445.498 557.26 445.55 557.048 445.547 556.833C445.559 556.72 445.559 556.606 445.547 556.493C445.552 556.384 445.552 556.274 445.547 556.165C445.533 556.047 445.512 555.929 445.484 555.813C445.469 555.696 445.439 555.582 445.395 555.473C445.363 555.36 445.321 555.251 445.27 555.146C445.218 555.046 445.155 554.953 445.081 554.869C445.01 554.776 444.925 554.696 444.829 554.63C444.72 554.574 444.606 554.527 444.489 554.491C444.347 554.471 444.203 554.471 444.061 554.491C443.923 554.471 443.783 554.471 443.646 554.491C443.538 554.526 443.436 554.577 443.344 554.642C443.267 554.706 443.203 554.782 443.155 554.869C443.097 554.958 443.055 555.056 443.029 555.158C443.021 555.267 443.021 555.377 443.029 555.486C443.023 555.599 443.023 555.712 443.029 555.825V556.178C443.022 556.287 443.022 556.396 443.029 556.505C443.048 556.621 443.077 556.735 443.117 556.845C443.147 556.959 443.189 557.068 443.243 557.172C443.294 557.276 443.357 557.373 443.432 557.462C443.499 557.557 443.585 557.638 443.683 557.701C443.787 557.771 443.902 557.822 444.023 557.852C444.165 557.872 444.309 557.872 444.451 557.852C444.598 557.868 444.746 557.868 444.892 557.852Z" fill="white"/>
<path d="M449.625 558.243C449.384 558.177 449.157 558.066 448.958 557.915C448.774 557.798 448.608 557.654 448.467 557.487C448.345 557.299 448.248 557.096 448.178 556.883C448.11 556.661 448.059 556.433 448.026 556.203C447.825 554.73 448.442 553.988 449.864 553.975C450.177 553.94 450.494 553.97 450.794 554.065C451.095 554.159 451.372 554.314 451.609 554.522C451.846 554.729 452.037 554.983 452.17 555.268C452.303 555.554 452.375 555.863 452.382 556.178C452.394 556.4 452.394 556.623 452.382 556.845C452.372 557.056 452.329 557.264 452.256 557.462C452.186 557.649 452.079 557.821 451.942 557.966C451.779 558.121 451.58 558.234 451.362 558.293C451.087 558.388 450.798 558.435 450.506 558.431C450.205 558.416 449.907 558.352 449.625 558.243ZM450.884 557.802C450.992 557.767 451.094 557.716 451.186 557.651C451.263 557.583 451.326 557.502 451.375 557.412C451.477 557.222 451.529 557.01 451.526 556.795V556.455V556.128C451.526 556.002 451.526 555.876 451.463 555.775C451.438 555.66 451.404 555.546 451.362 555.435C451.33 555.323 451.288 555.213 451.237 555.108C451.181 555.008 451.113 554.915 451.035 554.831C450.964 554.739 450.879 554.658 450.783 554.592C450.674 554.536 450.561 554.49 450.443 554.453C450.302 554.433 450.157 554.433 450.015 554.453C449.878 554.432 449.738 554.432 449.6 554.453C449.491 554.486 449.389 554.537 449.298 554.604C449.222 554.668 449.158 554.745 449.109 554.831C449.06 554.923 449.022 555.02 448.996 555.121C448.982 555.229 448.982 555.339 448.996 555.448C448.983 555.561 448.983 555.675 448.996 555.788C448.984 555.905 448.984 556.023 448.996 556.14C448.996 556.254 448.996 556.367 448.996 556.468C448.996 556.568 448.996 556.682 449.084 556.807C449.118 556.921 449.164 557.031 449.222 557.135C449.273 557.239 449.337 557.336 449.411 557.424C449.484 557.52 449.573 557.601 449.676 557.663C449.779 557.733 449.894 557.784 450.015 557.815C450.157 557.841 450.302 557.841 450.443 557.815C450.586 557.838 450.731 557.833 450.871 557.802H450.884Z" fill="white"/>
<path d="M455.605 558.205C455.364 558.14 455.137 558.028 454.938 557.877C454.752 557.746 454.594 557.579 454.472 557.386C454.343 557.199 454.237 556.996 454.157 556.782C454.091 556.559 454.041 556.332 454.006 556.102C453.78 554.629 454.384 553.887 455.806 553.874C456.119 553.843 456.434 553.876 456.732 553.972C457.031 554.067 457.307 554.223 457.543 554.43C457.779 554.636 457.97 554.889 458.105 555.172C458.239 555.456 458.314 555.764 458.324 556.077C458.342 556.299 458.342 556.522 458.324 556.744C458.324 556.955 458.286 557.164 458.211 557.361C458.148 557.552 458.04 557.724 457.896 557.865C457.737 558.019 457.543 558.131 457.33 558.192C456.76 558.368 456.15 558.368 455.58 558.192L455.605 558.205ZM456.864 557.764C456.974 557.735 457.077 557.683 457.166 557.613C457.242 557.545 457.306 557.464 457.355 557.374C457.403 557.283 457.437 557.185 457.456 557.084C457.469 556.971 457.469 556.857 457.456 556.744C457.462 556.635 457.462 556.526 457.456 556.417C457.467 556.304 457.467 556.19 457.456 556.077C457.456 555.951 457.456 555.838 457.393 555.737C457.33 555.637 457.33 555.523 457.292 555.397C457.256 555.284 457.209 555.175 457.153 555.07C457.098 554.97 457.03 554.877 456.952 554.793C456.88 554.698 456.79 554.616 456.688 554.554C456.581 554.494 456.466 554.447 456.348 554.415C456.206 554.395 456.062 554.395 455.92 554.415C455.782 554.395 455.642 554.395 455.504 554.415C455.399 554.448 455.301 554.499 455.215 554.567C455.139 554.63 455.075 554.707 455.026 554.793C454.977 554.885 454.939 554.982 454.913 555.083C454.913 555.183 454.913 555.284 454.913 555.41C454.906 555.523 454.906 555.637 454.913 555.75V556.102C454.913 556.216 454.913 556.329 454.913 556.43C454.913 556.53 454.976 556.644 455.013 556.769C455.05 556.883 455.096 556.992 455.152 557.097C455.206 557.199 455.269 557.296 455.341 557.386C455.419 557.476 455.508 557.556 455.605 557.626C455.711 557.691 455.825 557.742 455.945 557.777C456.091 557.796 456.239 557.796 456.386 557.777C456.536 557.806 456.69 557.802 456.839 557.764H456.864Z" fill="white"/>
<path d="M451.287 569.182C451.69 572.115 448.769 574.544 444.729 574.57C440.688 574.595 437.175 572.216 436.886 569.295C436.596 566.375 439.542 564.071 443.47 564.046C447.397 564.02 450.884 566.299 451.287 569.182Z" fill="white" stroke="#263238" stroke-linecap="round" stroke-linejoin="round"/>
<path d="M461.055 569.119C461.533 572.039 458.663 574.469 454.635 574.494C450.606 574.519 447.082 572.153 446.666 569.219C446.251 566.286 449.184 564.008 453.111 563.983C457.039 563.957 460.589 566.299 461.055 569.119Z" fill="white" stroke="#263238" stroke-linecap="round" stroke-linejoin="round"/>
<path d="M251.192 618C251.192 618 279.34 558.985 283.67 547.617C288.001 536.25 348.639 507.548 351.887 502.097C355.135 496.647 359.44 479.904 362.726 472.867C366.012 465.83 363.267 463.111 365.433 457.156C367.598 451.202 371.387 444.165 365.974 444.165C360.561 444.165 353.524 450.119 350.805 459.863C348.086 469.606 337.272 477.739 337.272 477.739L337.813 471.243C338.355 464.735 344.85 444.706 347.557 440.376C350.263 436.045 366.515 418.724 368.68 418.182C370.846 417.641 375.717 422.513 380.589 422.513C385.461 422.513 386.543 418.736 383.837 416.558C381.13 414.381 378.965 407.344 372.507 403.013C366.049 398.683 358.975 403.013 358.975 403.013C357.168 400.007 355.18 397.115 353.02 394.352C350.301 391.104 344.888 385.691 337.851 384.067C335.79 383.597 333.65 383.596 331.589 384.064C329.527 384.533 327.598 385.459 325.942 386.774C323.45 386.256 320.927 385.894 318.389 385.691C312.976 385.15 309.187 388.398 303.774 397.021C298.361 405.644 289.687 422.475 289.687 422.475C289.687 422.475 291.853 406.765 291.853 400.269C291.853 393.773 292.394 386.736 289.687 384.03C286.981 381.323 284.274 384.571 283.192 394.315C282.109 404.058 269.659 438.173 268.086 447.375C266.512 456.577 249.14 507.473 239.925 520.477C230.71 533.481 180.91 590.318 180.91 590.318L251.192 618ZM329.152 426.34C329.152 426.34 336.706 404.675 338.896 404.675C341.086 404.675 349.181 410.629 349.181 410.629L329.152 426.34Z" fill="white" stroke="#263238" stroke-linecap="round" stroke-linejoin="round"/>
<path d="M263.617 470.903C263.617 470.903 272.844 442.038 274.38 434.611C275.475 429.374 279.353 435.479 279.353 435.479C279.353 435.479 286.906 430.079 286.906 434.611C286.992 437.49 287.983 440.27 289.738 442.554C289.738 442.554 288.039 434.611 296.033 432.345C304.026 430.079 307.362 433.478 305.675 442.554C303.988 451.63 306.808 448.219 308.508 445.953C310.207 443.687 307.941 438.01 318.151 434.044C328.36 430.079 334.037 434.044 332.325 442.554C330.613 451.064 327.793 458.428 327.793 470.903C327.793 483.379 330.059 494.721 332.325 494.721C334.591 494.721 347.079 481.679 349.345 490.189C351.611 498.699 347.079 498.699 335.17 508.895C323.261 519.092 292.067 527.615 286.969 537.849C281.87 548.083 278.459 554.29 275.06 554.856C271.661 555.423 265.984 535.017 249.531 537.232C233.077 539.448 216.07 555.951 220.048 549.141C224.026 542.331 238.755 531.517 247.265 512.282C255.774 493.047 263.617 470.903 263.617 470.903Z" fill="#009C8E"/>
<path opacity="0.4" d="M263.617 470.903C263.617 470.903 272.844 442.038 274.38 434.611C275.475 429.374 279.353 435.479 279.353 435.479C279.353 435.479 286.906 430.079 286.906 434.611C286.992 437.49 287.983 440.27 289.738 442.554C289.738 442.554 288.039 434.611 296.033 432.345C304.026 430.079 307.362 433.478 305.675 442.554C303.988 451.63 306.808 448.219 308.508 445.953C310.207 443.687 307.941 438.01 318.151 434.044C328.36 430.079 334.037 434.044 332.325 442.554C330.613 451.064 327.793 458.428 327.793 470.903C327.793 483.379 330.059 494.721 332.325 494.721C334.591 494.721 347.079 481.679 349.345 490.189C351.611 498.699 347.079 498.699 335.17 508.895C323.261 519.092 292.067 527.615 286.969 537.849C281.87 548.083 278.459 554.29 275.06 554.856C271.661 555.423 265.984 535.017 249.531 537.232C233.077 539.448 216.07 555.951 220.048 549.141C224.026 542.331 238.755 531.517 247.265 512.282C255.774 493.047 263.617 470.903 263.617 470.903Z" fill="white"/>
<path d="M325.905 386.812C325.905 386.812 310.798 412.807 307.5 418.22C304.202 423.633 301.546 428.505 297.744 430.67C293.942 432.836 291.249 437.707 292.331 439.331" fill="white"/>
<path d="M325.905 386.812C325.905 386.812 310.798 412.807 307.5 418.22C304.202 423.633 301.546 428.505 297.744 430.67C293.942 432.836 291.249 437.707 292.331 439.331" stroke="#263238" stroke-linecap="round" stroke-linejoin="round"/>
<path d="M289.624 422.551C287.951 425.616 285.752 428.365 283.129 430.67C278.798 434.447 273.927 437.707 272.844 442C272.102 444.745 270.818 447.313 269.067 449.553" fill="white"/>
<path d="M289.624 422.551C287.951 425.616 285.752 428.365 283.129 430.67C278.798 434.447 273.927 437.707 272.844 442C272.102 444.745 270.818 447.313 269.067 449.553" stroke="#263238" stroke-linecap="round" stroke-linejoin="round"/>
<path d="M329.153 426.34C329.153 426.34 318.327 433.377 315.62 435.542C312.914 437.707 311.844 442.579 311.844 442.579" fill="white"/>
<path d="M329.153 426.34C329.153 426.34 318.327 433.377 315.62 435.542C312.914 437.707 311.844 442.579 311.844 442.579" stroke="#263238" stroke-linecap="round" stroke-linejoin="round"/>
<path d="M358.937 403.051L349.181 410.63" stroke="#263238" stroke-linecap="round" stroke-linejoin="round"/>
<path d="M622.263 584.061C622.263 584.061 572.992 535.885 569.203 526.154C565.413 516.423 566.496 514.245 563.248 507.271C560 500.297 550.257 488.25 549.716 479.576C549.174 470.903 544.844 450.333 544.844 443.296C544.844 436.259 543.22 425.975 541.067 424.351C538.915 422.727 526.981 420.008 526.981 420.008C526.981 420.008 520.485 399.438 515.651 398.355C510.817 397.273 500.985 402.648 500.985 402.648C500.985 402.648 498.82 398.871 496.114 392.905C493.407 386.938 488.561 386.95 482.581 389.128C476.601 391.306 464.705 396.165 464.705 396.165C464.705 396.165 451.173 385.88 446.842 392.388C442.512 398.897 437.099 410.793 436.016 415.123C434.933 419.454 442.424 419.303 444.048 418.22C445.671 417.137 451.764 412.656 451.764 412.656C451.764 412.656 463.623 421.619 465.788 426.503C467.953 431.388 472.284 454.11 472.825 458.44C473.366 462.771 471.201 476.303 471.201 476.303C471.201 476.303 460.916 457.899 456.095 452.486C451.273 447.073 444.186 443.825 438.773 443.825C433.36 443.825 429.571 449.779 433.901 452.486C438.232 455.192 443.103 458.44 444.186 462.229C445.269 466.019 456.095 485.518 457.177 492.555C458.26 499.592 465.838 513.666 472.875 517.997C479.912 522.327 505.908 527.74 510.779 532.624C515.651 537.509 550.307 606.255 550.307 606.255L622.263 584.061ZM474.449 406.425H483.122L492.325 424.3L474.449 406.425Z" fill="white" stroke="#263238" stroke-linecap="round" stroke-linejoin="round"/>
<path d="M543.195 451.051C543.195 451.051 536.901 433.427 529.587 436.876C522.273 440.325 521.077 441.987 521.077 441.987C521.077 441.987 517.099 435.693 510.301 438.009C503.504 440.325 501.225 435.743 501.225 435.743C501.225 435.743 492.149 430.078 486.484 434.61C480.819 439.142 485.351 451.617 487.617 461.827C489.883 472.036 484.784 491.888 483.651 493.587C482.518 495.287 467.198 488.489 465.499 494.72C463.799 500.952 470.597 514.572 484.218 519.104C497.839 523.636 508.035 525.915 513.171 531.013C518.308 536.111 531.324 572.983 542.666 575.816C554.009 578.648 566.484 562.207 578.393 563.34C590.301 564.473 605.609 572.983 599.378 565.606C593.146 558.229 567.05 531.617 565.389 521.949C563.727 512.281 557.445 505.496 554.613 500.964C551.78 496.432 546.657 469.203 544.895 461.814C543.972 458.292 543.402 454.686 543.195 451.051Z" fill="#009C8E"/>
<path opacity="0.4" d="M543.195 451.051C543.195 451.051 536.901 433.427 529.587 436.876C522.273 440.325 521.077 441.987 521.077 441.987C521.077 441.987 517.099 435.693 510.301 438.009C503.504 440.325 501.225 435.743 501.225 435.743C501.225 435.743 492.149 430.078 486.484 434.61C480.819 439.142 485.351 451.617 487.617 461.827C489.883 472.036 484.784 491.888 483.651 493.587C482.518 495.287 467.198 488.489 465.499 494.72C463.799 500.952 470.597 514.572 484.218 519.104C497.839 523.636 508.035 525.915 513.171 531.013C518.308 536.111 531.324 572.983 542.666 575.816C554.009 578.648 566.484 562.207 578.393 563.34C590.301 564.473 605.609 572.983 599.378 565.606C593.146 558.229 567.05 531.617 565.389 521.949C563.727 512.281 557.445 505.496 554.613 500.964C551.78 496.432 546.657 469.203 544.895 461.814C543.972 458.292 543.402 454.686 543.195 451.051Z" fill="white"/>
<path d="M500.985 402.648L508.538 416.722C508.538 416.722 511.623 424.112 514.745 427.221C517.867 430.331 520.586 432.672 521.756 436.574C522.927 440.477 523.305 442.416 523.305 442.416" fill="white"/>
<path d="M500.985 402.648L508.538 416.722C508.538 416.722 511.623 424.112 514.745 427.221C517.867 430.331 520.586 432.672 521.756 436.574C522.927 440.477 523.305 442.416 523.305 442.416" stroke="#263238" stroke-linecap="round" stroke-linejoin="round"/>
<path d="M526.969 420.008L534.56 435.718" stroke="#263238" stroke-linecap="round" stroke-linejoin="round"/>
<path d="M464.705 396.19L474.449 406.475" stroke="#263238" stroke-linecap="round" stroke-linejoin="round"/>
<path d="M536.587 439.331C536.753 442.602 537.144 445.857 537.758 449.075L536.587 439.331Z" fill="white"/>
<path d="M536.587 439.331C536.753 442.602 537.144 445.857 537.758 449.075" stroke="#263238" stroke-linecap="round" stroke-linejoin="round"/>
<path d="M497.638 430.343C497.638 430.343 502.308 433.843 503.089 438.513L497.638 430.343Z" fill="white"/>
<path d="M497.638 430.343C497.638 430.343 502.308 433.843 503.089 438.513" stroke="#263238" stroke-linecap="round" stroke-linejoin="round"/>
<path d="M451.764 412.719C451.764 412.719 447.484 411.007 447.484 407.583L451.764 412.719Z" fill="white"/>
<path d="M451.764 412.719C451.764 412.719 447.484 411.007 447.484 407.583" stroke="#263238" stroke-linecap="round" stroke-linejoin="round"/>
<path d="M483.122 406.425C483.122 406.425 480.025 404.046 480.025 401.05L483.122 406.425Z" fill="white"/>
<path d="M483.122 406.425C483.122 406.425 480.025 404.046 480.025 401.05" stroke="#263238" stroke-linecap="round" stroke-linejoin="round"/>
</svg>
